<svg width="84" height="84" viewBox="0 0 84 84" fill="none" xmlns="http://www.w3.org/2000/svg">
<g id="play">
<path id="Vector" d="M41.5598 0C33.3401 0 25.3049 2.43744 18.4704 7.00409C11.636 11.5707 6.30913 18.0615 3.16357 25.6556C0.0180073 33.2496 -0.805016 41.6059 0.798579 49.6677C2.40217 57.7295 6.36036 65.1348 12.1726 70.947C17.9848 76.7593 25.3901 80.7174 33.4519 82.321C41.5137 83.9246 49.87 83.1016 57.4641 79.956C65.0581 76.8105 71.5489 71.4837 76.1155 64.6492C80.6822 57.8147 83.1196 49.7796 83.1196 41.5598C83.1196 30.5375 78.741 19.9666 70.947 12.1726C63.1531 4.37861 52.5822 0 41.5598 0Z" fill="#D6EDFF"/>
<path id="Vector_2" d="M26.7166 62.34C25.9293 62.34 25.1742 62.0272 24.6175 61.4705C24.0608 60.9138 23.748 60.1587 23.748 59.3714V23.7487C23.7483 23.2429 23.8778 22.7455 24.1243 22.3038C24.3708 21.8621 24.726 21.4907 25.1563 21.2249C25.5866 20.959 26.0777 20.8075 26.583 20.7847C27.0883 20.762 27.5911 20.8687 28.0435 21.0948L63.6662 38.9062C64.1587 39.153 64.5727 39.5319 64.8621 40.0006C65.1514 40.4693 65.3047 41.0092 65.3047 41.5601C65.3047 42.1109 65.1514 42.6508 64.8621 43.1195C64.5727 43.5882 64.1587 43.9671 63.6662 44.2139L28.0435 62.0253C27.6316 62.2316 27.1773 62.3393 26.7166 62.34Z" fill="#1F1F1F"/>
</g>
</svg>
