<svg width="40" height="40" viewBox="0 0 40 40" fill="none" xmlns="http://www.w3.org/2000/svg">
<circle cx="20" cy="20" r="20" fill="#F6F4F3"/>
<path d="M17.6662 24.8153C17.5399 24.4648 17.4139 24.1139 17.2873 23.7634C16.573 21.7869 15.8586 19.8104 15.1442 17.834C14.6599 16.4943 14.1831 15.1516 13.6876 13.8159C13.4025 13.0474 13.6525 12.3209 14.1606 11.8838C15.0458 11.122 16.4437 11.4846 16.8529 12.5758C17.766 15.0105 18.6836 17.4436 19.5994 19.8772C19.601 19.8813 19.6042 19.8847 19.6216 19.9114C19.6074 19.7479 19.6026 19.6066 19.5822 19.4676C19.4291 18.4202 20.2478 17.4906 21.3075 17.512C22.0179 17.5262 22.6564 18.0095 22.8803 18.701C22.958 18.9413 23.0379 19.1809 23.1278 19.454C23.198 19.2472 23.1699 19.0185 23.2342 18.8061C23.3023 18.5808 23.4174 18.3692 23.5718 18.191C23.8545 17.8642 24.2669 17.6531 24.6976 17.6114C25.609 17.5232 26.4175 18.1899 26.5355 19.0575C26.5685 19.2993 26.6329 19.5368 26.6927 19.777C26.6932 19.5018 26.7382 19.2376 26.8458 18.9835C27.1032 18.3743 27.7361 17.962 28.4166 17.9655C29.0809 17.9689 29.725 18.3916 29.9604 19.0008C30.4257 20.2048 30.6437 21.4508 30.9234 22.7037C31.2813 24.3066 31.749 25.875 32.236 27.4427C32.5189 28.3535 32.4907 29.2505 32.1791 30.1432C31.7954 31.2425 31.1036 32.1248 30.2157 32.8628C29.1479 33.7501 27.9232 34.32 26.5669 34.6065C25.2068 34.8937 23.8598 34.8598 22.5405 34.3874C21.8371 34.1357 21.2161 33.7509 20.6811 33.2269C19.7214 32.2872 18.7906 31.3205 17.9097 30.3067C17.3656 29.6807 16.8486 29.0325 16.3348 28.3819C15.8353 27.7491 15.2649 27.188 14.6387 26.6795C13.863 26.0495 13.1057 25.3975 12.3575 24.7354C12.0036 24.4223 11.9379 24.0036 12.0199 23.5587C12.1267 22.9802 12.3822 22.724 13.0159 22.6256C14.0188 22.4701 14.9715 22.67 15.8377 23.1782C16.5225 23.5801 17.1101 24.1118 17.5852 24.7557C17.6032 24.7803 17.6231 24.8033 17.6421 24.8271C17.6501 24.8233 17.6582 24.8193 17.6662 24.8156V24.8153Z" fill="#026972"/>
<path d="M7.3125 12.8146C7.32698 11.0786 7.85444 9.51259 8.92278 8.14161C10.0751 6.66267 11.5856 5.73202 13.4273 5.36382C15.1228 5.02475 16.7583 5.24252 18.2954 6.03502C20.5109 7.17729 21.8616 8.98515 22.3483 11.4223C22.617 12.7673 22.4891 14.0878 22.0289 15.3781C22.0096 15.4326 21.9954 15.4887 21.9788 15.5443C21.8731 15.8933 21.5428 16.0806 21.2199 15.9745C20.8807 15.8631 20.7174 15.5085 20.8525 15.1638C21.1035 14.5239 21.2467 13.8599 21.2824 13.1756C21.3207 12.4408 21.2328 11.717 21.0134 11.0134C20.4516 9.212 19.3173 7.89498 17.6143 7.07202C16.6376 6.60014 15.5991 6.39654 14.5181 6.46842C12.9333 6.57369 11.5555 7.17515 10.4239 8.28963C9.37597 9.32182 8.74902 10.5766 8.56345 12.0363C8.3449 13.7543 8.76162 15.3161 9.79563 16.7047C10.5006 17.6514 11.407 18.3501 12.5139 18.7817C12.8344 18.9064 12.9845 19.2348 12.8658 19.5432C12.7467 19.8521 12.4021 20.0102 12.0959 19.8769C11.3893 19.5694 10.7186 19.1985 10.1204 18.7082C9.2553 17.9996 8.56828 17.1475 8.08157 16.1426C7.66834 15.2894 7.41333 14.39 7.33878 13.4417C7.32242 13.2325 7.31894 13.0241 7.31277 12.8141L7.3125 12.8146Z" fill="#026972"/>
<path d="M14.8682 8.85787C13.3695 8.92895 12.2263 9.59079 11.4943 10.9099C10.7348 12.278 10.9424 14.0634 11.9751 15.2423C12.3575 15.6789 12.8061 16.0198 13.3405 16.2509C13.6395 16.3803 13.769 16.7071 13.6529 17.0106C13.5411 17.3029 13.226 17.4565 12.9187 17.3601C12.6827 17.2861 12.4701 17.1616 12.2623 17.0304C10.918 16.1812 10.109 14.9697 9.90167 13.4024C9.67776 11.7086 10.2068 10.243 11.4371 9.05212C12.2513 8.26416 13.2397 7.80565 14.374 7.70358C16.1307 7.5454 17.5983 8.14285 18.7516 9.46628C19.4218 10.235 19.7961 11.1456 19.9125 12.1612C19.9991 12.9177 19.909 13.6522 19.6653 14.3699C19.5706 14.6488 19.3204 14.8067 19.0461 14.7766C18.7565 14.7445 18.5508 14.542 18.5084 14.2486C18.4931 14.1436 18.5234 14.046 18.5535 13.948C19.0174 12.4316 18.6967 11.0922 17.5919 9.96273C16.9751 9.33215 16.1988 8.98051 15.3125 8.88539C15.1653 8.86963 15.0192 8.85974 14.8682 8.85814V8.85787Z" fill="#026972"/>
</svg>
