<svg width="75" height="75" viewBox="0 0 75 75" fill="none" xmlns="http://www.w3.org/2000/svg">
<circle cx="37.496" cy="37.496" r="37.496" fill="#a8abaa"/>
<path d="M38.1919 37.5342C38.1919 43.2376 38.1919 48.9411 38.1919 54.6446C38.1919 54.791 38.1919 54.9385 38.1898 55.0849C38.1844 55.4262 38.139 55.7608 37.8011 55.9315C37.4546 56.1076 37.1685 55.9128 36.9159 55.7014C35.0008 54.0931 33.0921 52.477 31.1813 50.8643C29.644 49.5675 28.1024 48.2751 26.5694 46.9717C26.3157 46.7559 26.0458 46.6932 25.7263 46.6943C23.4063 46.702 21.0864 46.6954 18.7664 46.6987C17.5454 46.7009 16.752 46.1152 16.1442 45.0276C15.3043 43.5239 15.1942 41.8825 15.0992 40.2489C14.9351 37.4296 14.9275 34.607 15.4457 31.8098C15.6033 30.9566 15.9866 30.2147 16.4249 29.509C16.9646 28.6383 17.8088 28.2684 18.8161 28.2706C21.0821 28.275 23.348 28.2629 25.614 28.2794C26.0739 28.2827 26.4323 28.1495 26.7875 27.8479C30.0726 25.0539 33.3706 22.2754 36.6654 19.4936C36.8036 19.3769 36.9429 19.2569 37.0962 19.1644C37.6381 18.8363 38.1056 19.0719 38.18 19.7104C38.2027 19.9097 38.193 20.1133 38.193 20.3148C38.193 26.0557 38.193 31.7955 38.193 37.5364L38.1919 37.5342Z" fill="#1F1F1F"/>
<path d="M55.3828 43.7102C55.8931 43.2059 56.3846 42.6817 56.9116 42.1962C57.2293 41.9033 57.2293 41.7018 56.9149 41.3967C55.7525 40.2703 54.6267 39.1064 53.4609 37.9833C53.1266 37.6607 53.1377 37.4713 53.4665 37.1542C54.62 36.0454 55.7315 34.8936 56.8861 33.7848C57.2249 33.4588 57.2105 33.2518 56.8773 32.949C56.3603 32.4789 55.8632 31.9845 55.3916 31.4702C55.0971 31.1487 54.899 31.152 54.5934 31.4647C53.462 32.622 52.2963 33.7462 51.1649 34.9035C50.866 35.2096 50.6767 35.2261 50.3679 34.9101C49.2243 33.7396 48.0453 32.6022 46.8984 31.4339C46.6283 31.1586 46.4268 31.1531 46.1667 31.4163C45.6497 31.9393 45.136 32.4678 44.5947 32.9655C44.2637 33.2695 44.3124 33.4754 44.6168 33.7694C45.7936 34.9057 46.9383 36.0762 48.1195 37.2081C48.4328 37.5087 48.3896 37.6684 48.1018 37.947C46.9261 39.0855 45.7836 40.2582 44.6079 41.3978C44.2902 41.7051 44.3024 41.911 44.6168 42.2006C45.1305 42.674 45.6297 43.1662 46.1013 43.6816C46.4191 44.0295 46.6383 43.9855 46.9493 43.6672C48.0431 42.5496 49.1601 41.4551 50.2693 40.354C50.7564 39.8706 50.7863 39.8739 51.2712 40.3584C52.3893 41.476 53.5097 42.5915 54.6311 43.7058C54.7329 43.8071 54.8492 43.8963 54.9377 43.9733C55.1636 43.9645 55.2676 43.8247 55.3828 43.7113V43.7102Z" fill="#1F1F1F"/>
</svg>
