<svg width="75" height="75" viewBox="0 0 75 75" fill="none" xmlns="http://www.w3.org/2000/svg">
<circle cx="37.496" cy="37.496" r="37.496" fill="#a8abaa"/>
<path d="M38.1919 37.5342C38.1919 43.2377 38.1919 48.9411 38.1919 54.6446C38.1919 54.791 38.1919 54.9385 38.1898 55.0849C38.1844 55.4262 38.139 55.7608 37.8011 55.9315C37.4546 56.1076 37.1685 55.9128 36.9159 55.7014C35.0008 54.0931 33.0921 52.477 31.1813 50.8643C29.644 49.5675 28.1024 48.2751 26.5694 46.9717C26.3157 46.756 26.0458 46.6932 25.7263 46.6943C23.4063 46.702 21.0864 46.6954 18.7664 46.6987C17.5454 46.7009 16.752 46.1153 16.1442 45.0276C15.3043 43.5239 15.1942 41.8825 15.0992 40.2489C14.9351 37.4296 14.9275 34.607 15.4457 31.8098C15.6033 30.9566 15.9866 30.2147 16.4249 29.509C16.9646 28.6383 17.8088 28.2684 18.8161 28.2706C21.0821 28.275 23.348 28.2629 25.614 28.2794C26.0739 28.2827 26.4323 28.1495 26.7875 27.8479C30.0726 25.0539 33.3706 22.2754 36.6654 19.4936C36.8036 19.3769 36.9429 19.2569 37.0962 19.1644C37.6381 18.8364 38.1056 19.0719 38.18 19.7104C38.2027 19.9097 38.193 20.1133 38.193 20.3148C38.193 26.0557 38.193 31.7955 38.193 37.5364L38.1919 37.5342ZM59.566 31.4696C59.0802 28.1671 58.2511 24.9736 56.648 22.031C56.0877 21.0017 55.4389 20.0374 54.626 19.1919C54.4284 18.9872 54.2708 18.9079 54.0463 19.1479C53.5011 19.7325 52.944 20.3049 52.3945 20.8839C52.2067 21.081 52.1657 21.2648 52.3805 21.4971C53.9124 23.1572 54.762 25.1981 55.3914 27.3338C57.0215 32.86 57.2255 38.4809 56.2259 44.1392C55.6256 47.5353 54.7005 50.8247 52.3848 53.503C52.1916 53.7265 52.2002 53.9026 52.4064 54.114C52.9138 54.6336 53.4288 55.1488 53.8973 55.7036C54.2255 56.0922 54.45 56.0405 54.7544 55.6871C55.5911 54.7183 56.3144 53.6736 56.8898 52.5255C59.2108 47.8887 59.8845 42.8909 60 38.2828C59.9514 35.6628 59.8748 33.5579 59.5682 31.4696H59.566ZM52.5349 28.417C51.9627 26.7812 51.1984 25.2565 50.0551 23.9465C49.7788 23.6294 49.5672 23.592 49.2746 23.93C48.7985 24.4782 48.2998 25.0077 47.7881 25.5218C47.5376 25.7728 47.556 25.9621 47.773 26.2164C48.859 27.4934 49.4474 29.028 49.8921 30.6242C50.7461 33.6933 50.9544 36.8241 50.6629 39.9913C50.3715 43.1628 49.7475 46.2308 47.7568 48.8233C47.5409 49.1052 47.6035 49.3022 47.8302 49.5312C48.316 50.0211 48.7996 50.5142 49.253 51.0338C49.5499 51.374 49.7593 51.3894 50.0627 51.0338C50.7515 50.2247 51.3377 49.3506 51.7921 48.3885C53.418 44.944 53.9048 41.2616 53.9642 37.8182C53.9394 34.3913 53.5615 31.3508 52.536 28.4159L52.5349 28.417ZM47.1576 32.5749C46.7755 31.2054 46.2238 29.9208 45.3202 28.8111C45.0546 28.4853 44.8485 28.4335 44.5483 28.7814C44.0744 29.3318 43.5713 29.858 43.0596 30.3721C42.8016 30.6319 42.7811 30.8367 43.0326 31.113C43.3155 31.4234 43.5001 31.8054 43.6588 32.1973C44.6563 34.6577 44.8009 37.2127 44.449 39.814C44.2461 41.3134 43.8822 42.7687 42.9582 44.006C42.8027 44.213 42.8426 44.3627 43.0013 44.5322C43.5487 45.1146 44.0971 45.6969 44.6336 46.2892C44.8409 46.5171 45.0017 46.516 45.2101 46.2892C45.6182 45.8423 45.9442 45.3403 46.2249 44.8042C47.407 42.543 47.7427 40.0903 47.8032 37.8094C47.7935 35.8785 47.6143 34.2074 47.1576 32.5738V32.5749Z" fill="#1F1F1F"/>
</svg>
