<svg width="56" height="55" viewBox="0 0 56 55" fill="none" xmlns="http://www.w3.org/2000/svg">
<g opacity="0.75">
<circle cx="28.0396" cy="27.4993" r="27.4993" fill="#D9D9D9"/>
<g clip-path="url(#clip0_4520_3)">
<path d="M24.5632 30.2082C24.5632 30.7247 24.5581 31.2429 24.5632 31.7595C24.5701 32.276 24.5564 32.7959 24.606 33.309C24.7649 34.9781 25.7439 35.9938 27.2305 36.0683C28.7683 36.1463 29.8311 35.3161 30.1797 33.6695C30.3147 33.0334 30.3813 32.354 30.3198 31.7109C30.1814 30.2793 30.6359 29.579 32.1225 29.1405C36.5668 27.8336 39.1486 24.0811 39.1862 19.2922C39.2204 14.803 36.4335 10.9171 32.0832 9.57727C28.3668 8.43332 24.7478 8.74357 21.3612 10.7801C19.1142 12.1304 17.5422 14.0421 16.9732 16.6819C16.6605 18.1343 17.274 19.4741 18.4273 20.0219C19.5653 20.5626 20.7477 20.2073 21.72 18.9784C22.3864 18.1361 22.9707 17.2244 23.6491 16.3924C25.216 14.4668 28.6607 14.0525 30.7726 15.5015C32.6727 16.8049 33.2143 19.4135 32.0541 21.6702C31.3382 23.0637 30.084 23.7466 28.7051 24.2458C23.9242 25.9773 24.623 25.8109 24.5667 30.2082H24.5632ZM27.4749 46.5753C29.3732 46.5822 30.8239 45.109 30.8051 43.192C30.7863 41.3235 29.3869 39.8867 27.5603 39.8607C25.5628 39.8312 24.1241 41.1641 24.0882 43.0811C24.0506 45.0552 25.5184 46.5684 27.4766 46.5753H27.4749Z" fill="#10110F"/>
</g>
</g>
<defs>
<clipPath id="clip0_4520_3">
<rect width="22.2967" height="37.6567" fill="white" transform="translate(16.8911 8.9187)"/>
</clipPath>
</defs>
</svg>
