<svg width="70" height="70" viewBox="0 0 70 70" fill="none" xmlns="http://www.w3.org/2000/svg">
<path d="M35 0C28.0777 0 21.3108 2.05271 15.5551 5.89856C9.79934 9.74441 5.3133 15.2107 2.66423 21.6061C0.0151649 28.0015 -0.677952 35.0388 0.672531 41.8282C2.02301 48.6175 5.35644 54.8539 10.2513 59.7487C15.1461 64.6436 21.3825 67.977 28.1719 69.3275C34.9612 70.678 41.9985 69.9848 48.3939 67.3358C54.7893 64.6867 60.2556 60.2007 64.1014 54.445C67.9473 48.6892 70 41.9223 70 35C70 25.7174 66.3125 16.815 59.7487 10.2513C53.185 3.68749 44.2826 0 35 0ZM53.6175 37.2375L23.6175 52.2375C23.2363 52.428 22.8127 52.5179 22.3869 52.4986C21.9612 52.4793 21.5474 52.3515 21.1849 52.1273C20.8225 51.9031 20.5233 51.59 20.316 51.2177C20.1086 50.8454 19.9998 50.4262 20 50V20C20.0002 19.574 20.1093 19.1552 20.3169 18.7832C20.5244 18.4112 20.8236 18.0984 21.186 17.8745C21.5484 17.6506 21.962 17.523 22.3875 17.5039C22.8131 17.4847 23.2365 17.5746 23.6175 17.765L53.6175 32.765C54.0322 32.9728 54.3809 33.292 54.6246 33.6867C54.8683 34.0814 54.9973 34.5361 54.9973 35C54.9973 35.4639 54.8683 35.9186 54.6246 36.3133C54.3809 36.708 54.0322 37.0271 53.6175 37.235" fill="#B85600"/>
</svg>
