<svg xmlns="http://www.w3.org/2000/svg" width="40" height="41" viewBox="0 0 40 41" fill="none">
  <path d="M20 0.910156C16.0444 0.910156 12.1776 2.08314 8.8886 4.28076C5.59962 6.47839 3.03617 9.60196 1.52242 13.2565C0.00866566 16.911 -0.387401 20.9323 0.384303 24.812C1.15601 28.6916 3.06082 32.2552 5.85787 35.0523C8.65492 37.8493 12.2186 39.7542 16.0982 40.5259C19.9778 41.2976 23.9992 40.9015 27.6537 39.3877C31.3082 37.874 34.4318 35.3105 36.6294 32.0216C38.827 28.7326 40 24.8658 40 20.9102C40 15.6058 37.8929 10.5187 34.1421 6.76802C30.3914 3.01729 25.3043 0.910156 20 0.910156ZM30.6386 22.1887L13.4957 30.7602C13.2779 30.869 13.0358 30.9204 12.7925 30.9094C12.5492 30.8983 12.3128 30.8253 12.1057 30.6972C11.8986 30.5691 11.7276 30.3902 11.6091 30.1774C11.4906 29.9646 11.4285 29.7251 11.4286 29.4816V12.3387C11.4287 12.0953 11.491 11.856 11.6096 11.6434C11.7282 11.4308 11.8992 11.2521 12.1063 11.1242C12.3134 10.9962 12.5497 10.9233 12.7929 10.9124C13.036 10.9014 13.278 10.9528 13.4957 11.0616L30.6386 19.633C30.8755 19.7518 31.0748 19.9341 31.2141 20.1597C31.3533 20.3852 31.4271 20.6451 31.4271 20.9102C31.4271 21.1752 31.3533 21.4351 31.2141 21.6606C31.0748 21.8862 30.8755 22.0685 30.6386 22.1873" fill="#F6F4F3"/>
</svg>