<svg width="40" height="40" viewBox="0 0 40 40" fill="none" xmlns="http://www.w3.org/2000/svg">
<path d="M20 0C16.0444 0 12.1776 1.17298 8.8886 3.37061C5.59962 5.56824 3.03617 8.69181 1.52242 12.3463C0.00866566 16.0009 -0.387401 20.0222 0.384303 23.9018C1.15601 27.7814 3.06082 31.3451 5.85787 34.1421C8.65492 36.9392 12.2186 38.844 16.0982 39.6157C19.9778 40.3874 23.9992 39.9913 27.6537 38.4776C31.3082 36.9638 34.4318 34.4004 36.6294 31.1114C38.827 27.8224 40 23.9556 40 20C40 14.6957 37.8929 9.60859 34.1421 5.85786C30.3914 2.10714 25.3043 0 20 0ZM30.6386 21.2786L13.4957 29.85C13.2779 29.9589 13.0358 30.0102 12.7925 29.9992C12.5492 29.9882 12.3128 29.9151 12.1057 29.787C11.8986 29.6589 11.7276 29.48 11.6091 29.2672C11.4906 29.0545 11.4285 28.815 11.4286 28.5714V11.4286C11.4287 11.1852 11.491 10.9458 11.6096 10.7332C11.7282 10.5207 11.8992 10.3419 12.1063 10.214C12.3134 10.0861 12.5497 10.0132 12.7929 10.0022C13.036 9.99126 13.278 10.0426 13.4957 10.1514L30.6386 18.7229C30.8755 18.8416 31.0748 19.024 31.2141 19.2495C31.3533 19.4751 31.4271 19.7349 31.4271 20C31.4271 20.2651 31.3533 20.5249 31.2141 20.7505C31.0748 20.976 30.8755 21.1584 30.6386 21.2771" fill="#F6F4F3"/>
</svg>
