<svg width="40" height="40" viewBox="0 0 40 40" fill="none" xmlns="http://www.w3.org/2000/svg">
<path d="M6.10576 34.3858C4.19556 32.5408 2.67192 30.3339 1.62374 27.8939C0.575556 25.4538 0.0238315 22.8294 0.000755135 20.1738C-0.0223212 17.5182 0.483713 14.8846 1.48933 12.4267C2.49495 9.96876 3.98001 7.73572 5.85786 5.85786C7.73572 3.98001 9.96876 2.49495 12.4267 1.48933C14.8846 0.483713 17.5182 -0.0223212 20.1738 0.000755135C22.8294 0.0238315 25.4538 0.575556 27.8939 1.62374C30.3339 2.67192 32.5408 4.19556 34.3858 6.10576C38.0289 9.87781 40.0448 14.9299 39.9992 20.1738C39.9537 25.4177 37.8503 30.434 34.1421 34.1421C30.434 37.8503 25.4177 39.9537 20.1738 39.9992C14.9299 40.0448 9.87781 38.0289 6.10576 34.3858ZM14.2458 12.2458V28.2458H18.2458V12.2458H14.2458ZM22.2458 12.2458V28.2458H26.2458V12.2458H22.2458Z" fill="#F6F4F3"/>
</svg>
