<svg width="211" height="129" viewBox="0 0 211 129" fill="none" xmlns="http://www.w3.org/2000/svg">
<path d="M50.7328 11.1692C50.6646 10.5935 50.3881 10.1465 49.9033 9.8283C49.4184 9.51012 48.8237 9.35103 48.1192 9.35103C47.604 9.35103 47.1533 9.43436 46.7669 9.60103C46.3843 9.7677 46.0851 9.99686 45.8692 10.2885C45.6571 10.5802 45.551 10.9116 45.551 11.2828C45.551 11.5935 45.6249 11.8605 45.7726 12.084C45.9241 12.3037 46.1173 12.4874 46.3521 12.6351C46.587 12.7791 46.8332 12.8984 47.0908 12.9931C47.3483 13.084 47.5851 13.1578 47.801 13.2147L48.9828 13.5328C49.2858 13.6124 49.623 13.7222 49.9942 13.8624C50.3692 14.0025 50.7271 14.1938 51.068 14.4363C51.4127 14.6749 51.6968 14.9817 51.9203 15.3567C52.1438 15.7317 52.2555 16.1919 52.2555 16.7374C52.2555 17.3662 52.0908 17.9344 51.7612 18.4419C51.4355 18.9495 50.9582 19.3529 50.3294 19.6522C49.7044 19.9514 48.9449 20.101 48.051 20.101C47.2177 20.101 46.4961 19.9666 45.8862 19.6976C45.2802 19.4287 44.8029 19.0537 44.4544 18.5726C44.1097 18.0916 43.9146 17.5328 43.8692 16.8965H45.3237C45.3616 17.3359 45.5093 17.6995 45.7669 17.9874C46.0283 18.2715 46.3578 18.4836 46.7555 18.6238C47.1571 18.7601 47.5889 18.8283 48.051 18.8283C48.5889 18.8283 49.0718 18.7412 49.4999 18.5669C49.9279 18.3889 50.2669 18.1427 50.5169 17.8283C50.7669 17.5101 50.8919 17.1389 50.8919 16.7147C50.8919 16.3283 50.784 16.0139 50.568 15.7715C50.3521 15.5291 50.068 15.3321 49.7158 15.1806C49.3635 15.0291 48.9828 14.8965 48.5737 14.7828L47.1419 14.3738C46.2328 14.1124 45.5131 13.7393 44.9828 13.2544C44.4525 12.7696 44.1874 12.1351 44.1874 11.351C44.1874 10.6995 44.3635 10.1313 44.7158 9.64648C45.0718 9.15785 45.5491 8.77906 46.1476 8.51012C46.7499 8.23739 47.4222 8.10103 48.1646 8.10103C48.9146 8.10103 49.5813 8.2355 50.1646 8.50444C50.748 8.76959 51.2101 9.13323 51.551 9.59535C51.8957 10.0575 52.0775 10.5821 52.0965 11.1692H50.7328ZM54.7105 19.8965V11.1692H56.0514V19.8965H54.7105ZM55.3923 9.71467C55.1309 9.71467 54.9056 9.62565 54.7162 9.44762C54.5306 9.26959 54.4378 9.05558 54.4378 8.80558C54.4378 8.55558 54.5306 8.34156 54.7162 8.16353C54.9056 7.9855 55.1309 7.89648 55.3923 7.89648C55.6537 7.89648 55.8772 7.9855 56.0628 8.16353C56.2522 8.34156 56.3468 8.55558 56.3468 8.80558C56.3468 9.05558 56.2522 9.26959 56.0628 9.44762C55.8772 9.62565 55.6537 9.71467 55.3923 9.71467ZM69.6019 23.1692V18.5556H69.4883C69.3898 18.7147 69.2496 18.9154 69.0678 19.1578C68.886 19.3965 68.6265 19.6105 68.2894 19.7999C67.9523 19.9855 67.5034 20.0783 66.9428 20.0783C66.2155 20.0783 65.5735 19.8946 65.0167 19.5272C64.4599 19.156 64.0243 18.6332 63.7099 17.959C63.3955 17.281 63.2383 16.4798 63.2383 15.5556C63.2383 14.6389 63.3955 13.8435 63.7099 13.1692C64.0243 12.495 64.4618 11.9741 65.0224 11.6067C65.583 11.2393 66.2307 11.0556 66.9655 11.0556C67.5337 11.0556 67.9826 11.1503 68.3121 11.3397C68.6455 11.5253 68.8993 11.7374 69.0735 11.976C69.2515 12.2109 69.3898 12.4041 69.4883 12.5556H69.6474V11.1692H70.9428V23.1692H69.6019ZM67.1246 18.8738C67.6625 18.8738 68.1171 18.7336 68.4883 18.4533C68.8595 18.1692 69.1417 17.7772 69.3349 17.2772C69.528 16.7734 69.6246 16.1919 69.6246 15.5328C69.6246 14.8813 69.5299 14.3113 69.3405 13.8226C69.1511 13.3302 68.8708 12.9476 68.4996 12.6749C68.1284 12.3984 67.6701 12.2601 67.1246 12.2601C66.5564 12.2601 66.083 12.406 65.7042 12.6976C65.3292 12.9855 65.047 13.3775 64.8576 13.8738C64.672 14.3662 64.5792 14.9192 64.5792 15.5328C64.5792 16.1541 64.6739 16.7185 64.8633 17.226C65.0564 17.7298 65.3405 18.1313 65.7155 18.4306C66.0943 18.726 66.564 18.8738 67.1246 18.8738ZM79.2174 16.3283V11.1692H80.5583V19.8965H79.2174V18.4192H79.1265C78.9219 18.8624 78.6037 19.2393 78.1719 19.5499C77.7401 19.8567 77.1946 20.0101 76.5355 20.0101C75.9901 20.0101 75.5052 19.8908 75.081 19.6522C74.6568 19.4097 74.3234 19.0461 74.081 18.5613C73.8386 18.0726 73.7174 17.4571 73.7174 16.7147V11.1692H75.0583V16.6238C75.0583 17.2601 75.2363 17.7677 75.5924 18.1465C75.9522 18.5253 76.4105 18.7147 76.9674 18.7147C77.3007 18.7147 77.6397 18.6294 77.9844 18.459C78.3329 18.2885 78.6246 18.0272 78.8594 17.6749C79.098 17.3226 79.2174 16.8738 79.2174 16.3283ZM83.3342 19.8965V11.1692H84.6751V19.8965H83.3342ZM84.0161 9.71467C83.7547 9.71467 83.5293 9.62565 83.3399 9.44762C83.1543 9.26959 83.0615 9.05558 83.0615 8.80558C83.0615 8.55558 83.1543 8.34156 83.3399 8.16353C83.5293 7.9855 83.7547 7.89648 84.0161 7.89648C84.2774 7.89648 84.5009 7.9855 84.6865 8.16353C84.8759 8.34156 84.9706 8.55558 84.9706 8.80558C84.9706 9.05558 84.8759 9.26959 84.6865 9.44762C84.5009 9.62565 84.2774 9.71467 84.0161 9.71467ZM91.1102 20.0783C90.2693 20.0783 89.5439 19.8927 88.9341 19.5215C88.328 19.1465 87.8602 18.6238 87.5307 17.9533C87.2049 17.2791 87.042 16.495 87.042 15.601C87.042 14.7071 87.2049 13.9192 87.5307 13.2374C87.8602 12.5518 88.3185 12.0177 88.9057 11.6351C89.4966 11.2488 90.186 11.0556 90.9738 11.0556C91.4284 11.0556 91.8772 11.1313 92.3204 11.2828C92.7636 11.4344 93.167 11.6806 93.5307 12.0215C93.8943 12.3586 94.1841 12.8056 94.4 13.3624C94.6159 13.9192 94.7238 14.6048 94.7238 15.4192V15.9874H87.9966V14.8283H93.3602C93.3602 14.3359 93.2617 13.8965 93.0647 13.5101C92.8716 13.1238 92.595 12.8188 92.2352 12.5953C91.8791 12.3719 91.4587 12.2601 90.9738 12.2601C90.4397 12.2601 89.9776 12.3927 89.5875 12.6578C89.2011 12.9192 88.9038 13.2601 88.6954 13.6806C88.4871 14.101 88.3829 14.5518 88.3829 15.0328V15.8056C88.3829 16.4647 88.4966 17.0234 88.7238 17.4817C88.9549 17.9363 89.275 18.2828 89.6841 18.5215C90.0932 18.7563 90.5685 18.8738 91.1102 18.8738C91.4625 18.8738 91.7807 18.8245 92.0647 18.726C92.3526 18.6238 92.6007 18.4722 92.8091 18.2715C93.0174 18.0669 93.1784 17.8132 93.292 17.5101L94.5875 17.8738C94.4511 18.3132 94.2219 18.6995 93.9 19.0328C93.578 19.3624 93.1803 19.62 92.7068 19.8056C92.2333 19.9874 91.7011 20.0783 91.1102 20.0783ZM97.0836 19.8965V11.1692H98.3791V12.4874H98.47C98.6291 12.0556 98.9169 11.7052 99.3336 11.4363C99.7503 11.1673 100.22 11.0328 100.743 11.0328C100.841 11.0328 100.964 11.0347 101.112 11.0385C101.26 11.0423 101.371 11.048 101.447 11.0556V12.4192C101.402 12.4078 101.298 12.3908 101.135 12.3681C100.976 12.3416 100.807 12.3283 100.629 12.3283C100.205 12.3283 99.826 12.4173 99.4927 12.5953C99.1632 12.7696 98.9018 13.012 98.7086 13.3226C98.5192 13.6294 98.4245 13.9798 98.4245 14.3738V19.8965H97.0836ZM106.75 20.0783C105.909 20.0783 105.184 19.8927 104.574 19.5215C103.968 19.1465 103.5 18.6238 103.171 17.9533C102.845 17.2791 102.682 16.495 102.682 15.601C102.682 14.7071 102.845 13.9192 103.171 13.2374C103.5 12.5518 103.959 12.0177 104.546 11.6351C105.137 11.2488 105.826 11.0556 106.614 11.0556C107.068 11.0556 107.517 11.1313 107.96 11.2828C108.404 11.4344 108.807 11.6806 109.171 12.0215C109.534 12.3586 109.824 12.8056 110.04 13.3624C110.256 13.9192 110.364 14.6048 110.364 15.4192V15.9874H103.637V14.8283H109C109 14.3359 108.902 13.8965 108.705 13.5101C108.512 13.1238 108.235 12.8188 107.875 12.5953C107.519 12.3719 107.099 12.2601 106.614 12.2601C106.08 12.2601 105.618 12.3927 105.227 12.6578C104.841 12.9192 104.544 13.2601 104.335 13.6806C104.127 14.101 104.023 14.5518 104.023 15.0328V15.8056C104.023 16.4647 104.137 17.0234 104.364 17.4817C104.595 17.9363 104.915 18.2828 105.324 18.5215C105.733 18.7563 106.209 18.8738 106.75 18.8738C107.102 18.8738 107.421 18.8245 107.705 18.726C107.993 18.6238 108.241 18.4722 108.449 18.2715C108.657 18.0669 108.818 17.8132 108.932 17.5101L110.227 17.8738C110.091 18.3132 109.862 18.6995 109.54 19.0328C109.218 19.3624 108.82 19.62 108.347 19.8056C107.873 19.9874 107.341 20.0783 106.75 20.0783ZM118.905 13.1238L117.701 13.4647C117.625 13.2639 117.513 13.0688 117.366 12.8794C117.222 12.6863 117.025 12.5272 116.775 12.4022C116.525 12.2772 116.205 12.2147 115.815 12.2147C115.28 12.2147 114.835 12.3378 114.479 12.584C114.127 12.8264 113.951 13.1351 113.951 13.5101C113.951 13.8435 114.072 14.1067 114.315 14.2999C114.557 14.4931 114.936 14.6541 115.451 14.7828L116.746 15.101C117.527 15.2904 118.108 15.5802 118.491 15.9703C118.873 16.3567 119.065 16.8548 119.065 17.4647C119.065 17.9647 118.921 18.4116 118.633 18.8056C118.349 19.1995 117.951 19.5101 117.44 19.7374C116.928 19.9647 116.333 20.0783 115.655 20.0783C114.765 20.0783 114.029 19.8851 113.445 19.4988C112.862 19.1124 112.493 18.548 112.337 17.8056L113.61 17.4874C113.731 17.9571 113.96 18.3094 114.297 18.5442C114.638 18.7791 115.083 18.8965 115.633 18.8965C116.258 18.8965 116.754 18.7639 117.121 18.4988C117.493 18.2298 117.678 17.9078 117.678 17.5328C117.678 17.2298 117.572 16.976 117.36 16.7715C117.148 16.5632 116.822 16.4078 116.383 16.3056L114.928 15.9647C114.129 15.7753 113.542 15.4817 113.167 15.084C112.796 14.6825 112.61 14.1806 112.61 13.5783C112.61 13.0859 112.748 12.6503 113.025 12.2715C113.305 11.8927 113.686 11.5953 114.167 11.3794C114.652 11.1635 115.201 11.0556 115.815 11.0556C116.678 11.0556 117.356 11.245 117.849 11.6238C118.345 12.0025 118.697 12.5025 118.905 13.1238ZM132.405 13.1238L131.2 13.4647C131.125 13.2639 131.013 13.0688 130.865 12.8794C130.721 12.6863 130.524 12.5272 130.274 12.4022C130.024 12.2772 129.704 12.2147 129.314 12.2147C128.78 12.2147 128.335 12.3378 127.979 12.584C127.626 12.8264 127.45 13.1351 127.45 13.5101C127.45 13.8435 127.571 14.1067 127.814 14.2999C128.056 14.4931 128.435 14.6541 128.95 14.7828L130.246 15.101C131.026 15.2904 131.607 15.5802 131.99 15.9703C132.373 16.3567 132.564 16.8548 132.564 17.4647C132.564 17.9647 132.42 18.4116 132.132 18.8056C131.848 19.1995 131.45 19.5101 130.939 19.7374C130.428 19.9647 129.833 20.0783 129.155 20.0783C128.265 20.0783 127.528 19.8851 126.945 19.4988C126.361 19.1124 125.992 18.548 125.837 17.8056L127.109 17.4874C127.231 17.9571 127.46 18.3094 127.797 18.5442C128.138 18.7791 128.583 18.8965 129.132 18.8965C129.757 18.8965 130.253 18.7639 130.621 18.4988C130.992 18.2298 131.178 17.9078 131.178 17.5328C131.178 17.2298 131.071 16.976 130.859 16.7715C130.647 16.5632 130.321 16.4078 129.882 16.3056L128.428 15.9647C127.628 15.7753 127.041 15.4817 126.666 15.084C126.295 14.6825 126.109 14.1806 126.109 13.5783C126.109 13.0859 126.248 12.6503 126.524 12.2715C126.804 11.8927 127.185 11.5953 127.666 11.3794C128.151 11.1635 128.7 11.0556 129.314 11.0556C130.178 11.0556 130.856 11.245 131.348 11.6238C131.844 12.0025 132.196 12.5025 132.405 13.1238ZM137.471 20.101C136.918 20.101 136.416 19.9969 135.965 19.7885C135.514 19.5764 135.156 19.2715 134.891 18.8738C134.626 18.4722 134.493 17.9874 134.493 17.4192C134.493 16.9192 134.592 16.5139 134.789 16.2033C134.986 15.8889 135.249 15.6427 135.578 15.4647C135.908 15.2866 136.272 15.1541 136.669 15.0669C137.071 14.976 137.474 14.9041 137.88 14.851C138.41 14.7828 138.84 14.7317 139.169 14.6976C139.503 14.6597 139.745 14.5972 139.897 14.5101C140.052 14.423 140.13 14.2715 140.13 14.0556V14.0101C140.13 13.4495 139.976 13.0139 139.669 12.7033C139.366 12.3927 138.906 12.2374 138.289 12.2374C137.649 12.2374 137.147 12.3775 136.783 12.6578C136.419 12.9382 136.164 13.2374 136.016 13.5556L134.743 13.101C134.971 12.5707 135.274 12.1578 135.652 11.8624C136.035 11.5632 136.452 11.3548 136.902 11.2374C137.357 11.1162 137.804 11.0556 138.243 11.0556C138.524 11.0556 138.846 11.0897 139.209 11.1578C139.577 11.2222 139.931 11.3567 140.272 11.5613C140.616 11.7658 140.902 12.0745 141.13 12.4874C141.357 12.9003 141.471 13.4533 141.471 14.1465V19.8965H140.13V18.7147H140.061C139.971 18.9041 139.819 19.1067 139.607 19.3226C139.395 19.5385 139.113 19.7222 138.76 19.8738C138.408 20.0253 137.978 20.101 137.471 20.101ZM137.675 18.8965C138.205 18.8965 138.652 18.7923 139.016 18.584C139.383 18.3757 139.66 18.1067 139.846 17.7772C140.035 17.4476 140.13 17.101 140.13 16.7374V15.5101C140.073 15.5783 139.948 15.6408 139.755 15.6976C139.565 15.7507 139.346 15.798 139.096 15.8397C138.849 15.8775 138.609 15.9116 138.374 15.9419C138.143 15.9685 137.955 15.9912 137.811 16.0101C137.463 16.0556 137.137 16.1294 136.834 16.2317C136.535 16.3302 136.293 16.4798 136.107 16.6806C135.925 16.8775 135.834 17.1465 135.834 17.4874C135.834 17.9533 136.007 18.3056 136.351 18.5442C136.7 18.7791 137.141 18.8965 137.675 18.8965ZM144.42 19.8965V8.26012H145.761V12.5556H145.874C145.973 12.4041 146.109 12.2109 146.283 11.976C146.461 11.7374 146.715 11.5253 147.045 11.3397C147.378 11.1503 147.829 11.0556 148.397 11.0556C149.132 11.0556 149.78 11.2393 150.34 11.6067C150.901 11.9741 151.338 12.495 151.653 13.1692C151.967 13.8435 152.124 14.6389 152.124 15.5556C152.124 16.4798 151.967 17.281 151.653 17.959C151.338 18.6332 150.903 19.156 150.346 19.5272C149.789 19.8946 149.147 20.0783 148.42 20.0783C147.859 20.0783 147.41 19.9855 147.073 19.7999C146.736 19.6105 146.477 19.3965 146.295 19.1578C146.113 18.9154 145.973 18.7147 145.874 18.5556H145.715V19.8965H144.42ZM145.738 15.5328C145.738 16.1919 145.835 16.7734 146.028 17.2772C146.221 17.7772 146.503 18.1692 146.874 18.4533C147.246 18.7336 147.7 18.8738 148.238 18.8738C148.799 18.8738 149.266 18.726 149.641 18.4306C150.02 18.1313 150.304 17.7298 150.494 17.226C150.687 16.7185 150.783 16.1541 150.783 15.5328C150.783 14.9192 150.689 14.3662 150.499 13.8738C150.314 13.3775 150.032 12.9855 149.653 12.6976C149.278 12.406 148.806 12.2601 148.238 12.2601C147.693 12.2601 147.234 12.3984 146.863 12.6749C146.492 12.9476 146.211 13.3302 146.022 13.8226C145.833 14.3113 145.738 14.8813 145.738 15.5328ZM158.155 20.0783C157.314 20.0783 156.588 19.8927 155.978 19.5215C155.372 19.1465 154.905 18.6238 154.575 17.9533C154.249 17.2791 154.086 16.495 154.086 15.601C154.086 14.7071 154.249 13.9192 154.575 13.2374C154.905 12.5518 155.363 12.0177 155.95 11.6351C156.541 11.2488 157.23 11.0556 158.018 11.0556C158.473 11.0556 158.922 11.1313 159.365 11.2828C159.808 11.4344 160.211 11.6806 160.575 12.0215C160.939 12.3586 161.228 12.8056 161.444 13.3624C161.66 13.9192 161.768 14.6048 161.768 15.4192V15.9874H155.041V14.8283H160.405C160.405 14.3359 160.306 13.8965 160.109 13.5101C159.916 13.1238 159.639 12.8188 159.28 12.5953C158.924 12.3719 158.503 12.2601 158.018 12.2601C157.484 12.2601 157.022 12.3927 156.632 12.6578C156.245 12.9192 155.948 13.2601 155.74 13.6806C155.531 14.101 155.427 14.5518 155.427 15.0328V15.8056C155.427 16.4647 155.541 17.0234 155.768 17.4817C155.999 17.9363 156.319 18.2828 156.728 18.5215C157.138 18.7563 157.613 18.8738 158.155 18.8738C158.507 18.8738 158.825 18.8245 159.109 18.726C159.397 18.6238 159.645 18.4722 159.853 18.2715C160.062 18.0669 160.223 17.8132 160.336 17.5101L161.632 17.8738C161.495 18.3132 161.266 18.6995 160.944 19.0328C160.622 19.3624 160.225 19.62 159.751 19.8056C159.278 19.9874 158.745 20.0783 158.155 20.0783ZM164.128 19.8965V11.1692H165.423V12.4874H165.514C165.673 12.0556 165.961 11.7052 166.378 11.4363C166.795 11.1673 167.264 11.0328 167.787 11.0328C167.886 11.0328 168.009 11.0347 168.156 11.0385C168.304 11.0423 168.416 11.048 168.492 11.0556V12.4192C168.446 12.4078 168.342 12.3908 168.179 12.3681C168.02 12.3416 167.851 12.3283 167.673 12.3283C167.249 12.3283 166.87 12.4173 166.537 12.5953C166.208 12.7696 165.946 13.012 165.753 13.3226C165.564 13.6294 165.469 13.9798 165.469 14.3738V19.8965H164.128ZM38.8202 38.8965V30.1692H40.1156V31.5328H40.2293C40.4111 31.0669 40.7046 30.7052 41.1099 30.4476C41.5153 30.1863 42.002 30.0556 42.5702 30.0556C43.1459 30.0556 43.6251 30.1863 44.0077 30.4476C44.394 30.7052 44.6952 31.0669 44.9111 31.5328H45.002C45.2255 31.0821 45.5607 30.7241 46.0077 30.459C46.4546 30.19 46.9906 30.0556 47.6156 30.0556C48.3959 30.0556 49.0342 30.2999 49.5304 30.7885C50.0266 31.2734 50.2747 32.0291 50.2747 33.0556V38.8965H48.9338V33.0556C48.9338 32.4116 48.7577 31.9514 48.4054 31.6749C48.0531 31.3984 47.6384 31.2601 47.1611 31.2601C46.5474 31.2601 46.0721 31.4457 45.7349 31.8169C45.3978 32.1844 45.2293 32.6503 45.2293 33.2147V38.8965H43.8656V32.9192C43.8656 32.423 43.7046 32.0234 43.3827 31.7203C43.0607 31.4135 42.6459 31.2601 42.1384 31.2601C41.7899 31.2601 41.4641 31.3529 41.1611 31.5385C40.8618 31.7241 40.6194 31.9817 40.4338 32.3113C40.252 32.637 40.1611 33.0139 40.1611 33.4419V38.8965H38.8202ZM55.6146 39.101C55.0616 39.101 54.5597 38.9969 54.1089 38.7885C53.6582 38.5764 53.3002 38.2715 53.0351 37.8738C52.7699 37.4722 52.6373 36.9874 52.6373 36.4192C52.6373 35.9192 52.7358 35.5139 52.9328 35.2033C53.1298 34.8889 53.393 34.6427 53.7226 34.4647C54.0521 34.2866 54.4157 34.1541 54.8135 34.0669C55.215 33.976 55.6184 33.9041 56.0237 33.851C56.554 33.7828 56.9839 33.7317 57.3135 33.6976C57.6468 33.6597 57.8892 33.5972 58.0407 33.5101C58.196 33.423 58.2737 33.2715 58.2737 33.0556V33.0101C58.2737 32.4495 58.1203 32.0139 57.8135 31.7033C57.5104 31.3927 57.0502 31.2374 56.4328 31.2374C55.7926 31.2374 55.2907 31.3775 54.9271 31.6578C54.5635 31.9382 54.3078 32.2374 54.1601 32.5556L52.8873 32.101C53.1146 31.5707 53.4176 31.1578 53.7964 30.8624C54.179 30.5632 54.5957 30.3548 55.0464 30.2374C55.501 30.1162 55.9479 30.0556 56.3873 30.0556C56.6676 30.0556 56.9896 30.0897 57.3532 30.1578C57.7207 30.2222 58.0748 30.3567 58.4157 30.5613C58.7604 30.7658 59.0464 31.0745 59.2737 31.4874C59.501 31.9003 59.6146 32.4533 59.6146 33.1465V38.8965H58.2737V37.7147H58.2055C58.1146 37.9041 57.9631 38.1067 57.751 38.3226C57.5388 38.5385 57.2567 38.7222 56.9044 38.8738C56.5521 39.0253 56.1222 39.101 55.6146 39.101ZM55.8192 37.8965C56.3495 37.8965 56.7964 37.7923 57.1601 37.584C57.5275 37.3757 57.804 37.1067 57.9896 36.7772C58.179 36.4476 58.2737 36.101 58.2737 35.7374V34.5101C58.2169 34.5783 58.0919 34.6408 57.8987 34.6976C57.7093 34.7507 57.4896 34.798 57.2396 34.8397C56.9934 34.8775 56.7529 34.9116 56.518 34.9419C56.287 34.9685 56.0995 34.9912 55.9555 35.0101C55.607 35.0556 55.2813 35.1294 54.9782 35.2317C54.679 35.3302 54.4366 35.4798 54.251 35.6806C54.0692 35.8775 53.9782 36.1465 53.9782 36.4874C53.9782 36.9533 54.1506 37.3056 54.4953 37.5442C54.8438 37.7791 55.2851 37.8965 55.8192 37.8965ZM55.8646 28.9874L57.251 26.351H58.8192L57.0464 28.9874H55.8646ZM68.5639 32.1238L67.3593 32.4647C67.2836 32.2639 67.1718 32.0688 67.0241 31.8794C66.8802 31.6863 66.6832 31.5272 66.4332 31.4022C66.1832 31.2772 65.8631 31.2147 65.473 31.2147C64.9389 31.2147 64.4938 31.3378 64.1377 31.584C63.7855 31.8264 63.6093 32.1351 63.6093 32.5101C63.6093 32.8435 63.7305 33.1067 63.973 33.2999C64.2154 33.4931 64.5942 33.6541 65.1093 33.7828L66.4048 34.101C67.1851 34.2904 67.7665 34.5802 68.1491 34.9703C68.5317 35.3567 68.723 35.8548 68.723 36.4647C68.723 36.9647 68.579 37.4116 68.2911 37.8056C68.0071 38.1995 67.6093 38.5101 67.098 38.7374C66.5866 38.9647 65.9919 39.0783 65.3139 39.0783C64.4237 39.0783 63.687 38.8851 63.1036 38.4988C62.5203 38.1124 62.151 37.548 61.9957 36.8056L63.2684 36.4874C63.3896 36.9571 63.6188 37.3094 63.9559 37.5442C64.2968 37.7791 64.7419 37.8965 65.2911 37.8965C65.9161 37.8965 66.4124 37.7639 66.7798 37.4988C67.151 37.2298 67.3366 36.9078 67.3366 36.5328C67.3366 36.2298 67.2305 35.976 67.0184 35.7715C66.8063 35.5632 66.4805 35.4078 66.0411 35.3056L64.5866 34.9647C63.7874 34.7753 63.2002 34.4817 62.8252 34.084C62.454 33.6825 62.2684 33.1806 62.2684 32.5783C62.2684 32.0859 62.4067 31.6503 62.6832 31.2715C62.9635 30.8927 63.3442 30.5953 63.8252 30.3794C64.3101 30.1635 64.8593 30.0556 65.473 30.0556C66.3366 30.0556 67.0146 30.245 67.5071 30.6238C68.0033 31.0025 68.3555 31.5025 68.5639 32.1238ZM75.8814 38.8965V30.1692H77.2223V38.8965H75.8814ZM76.5632 28.7147C76.3019 28.7147 76.0765 28.6257 75.8871 28.4476C75.7015 28.2696 75.6087 28.0556 75.6087 27.8056C75.6087 27.5556 75.7015 27.3416 75.8871 27.1635C76.0765 26.9855 76.3019 26.8965 76.5632 26.8965C76.8246 26.8965 77.0481 26.9855 77.2337 27.1635C77.4231 27.3416 77.5178 27.5556 77.5178 27.8056C77.5178 28.0556 77.4231 28.2696 77.2337 28.4476C77.0481 28.6257 76.8246 28.7147 76.5632 28.7147ZM81.3392 33.6465V38.8965H79.9983V30.1692H81.2938V31.5328H81.4074C81.6119 31.0897 81.9225 30.7336 82.3392 30.4647C82.7559 30.1919 83.2938 30.0556 83.9528 30.0556C84.5438 30.0556 85.0608 30.1768 85.504 30.4192C85.9472 30.6578 86.2919 31.0215 86.5381 31.5101C86.7843 31.995 86.9074 32.6086 86.9074 33.351V38.8965H85.5665V33.4419C85.5665 32.7563 85.3885 32.2222 85.0324 31.8397C84.6763 31.4533 84.1877 31.2601 83.5665 31.2601C83.1385 31.2601 82.7559 31.3529 82.4188 31.5385C82.0854 31.7241 81.8222 31.995 81.629 32.351C81.4358 32.7071 81.3392 33.1389 81.3392 33.6465ZM93.2004 42.351C92.5527 42.351 91.9959 42.2677 91.5299 42.101C91.064 41.9382 90.6758 41.7222 90.3652 41.4533C90.0584 41.1882 89.814 40.9041 89.6322 40.601L90.7004 39.851C90.8216 40.0101 90.975 40.1919 91.1606 40.3965C91.3462 40.6048 91.6 40.7847 91.922 40.9363C92.2477 41.0916 92.6739 41.1692 93.2004 41.1692C93.9049 41.1692 94.4864 40.9988 94.9447 40.6578C95.4031 40.3169 95.6322 39.7828 95.6322 39.0556V37.2828H95.5186C95.4201 37.4419 95.2799 37.6389 95.0981 37.8738C94.9201 38.1048 94.6625 38.3113 94.3254 38.4931C93.9921 38.6711 93.5413 38.7601 92.9731 38.7601C92.2686 38.7601 91.636 38.5935 91.0754 38.2601C90.5186 37.9268 90.0773 37.4419 89.7515 36.8056C89.4296 36.1692 89.2686 35.3965 89.2686 34.4874C89.2686 33.5935 89.4258 32.815 89.7402 32.1522C90.0546 31.4855 90.4921 30.9703 91.0527 30.6067C91.6133 30.2393 92.261 30.0556 92.9959 30.0556C93.564 30.0556 94.0148 30.1503 94.3481 30.3397C94.6853 30.5253 94.9428 30.7374 95.1209 30.976C95.3027 31.2109 95.4428 31.4041 95.5413 31.5556H95.6777V30.1692H96.9731V39.1465C96.9731 39.8965 96.8027 40.5063 96.4618 40.976C96.1246 41.4495 95.6701 41.7961 95.0981 42.0158C94.5299 42.2393 93.8974 42.351 93.2004 42.351ZM93.1549 37.5556C93.6928 37.5556 94.1474 37.4325 94.5186 37.1863C94.8898 36.94 95.172 36.5859 95.3652 36.1238C95.5584 35.6616 95.6549 35.1086 95.6549 34.4647C95.6549 33.8359 95.5602 33.281 95.3709 32.7999C95.1815 32.3188 94.9012 31.9419 94.5299 31.6692C94.1587 31.3965 93.7004 31.2601 93.1549 31.2601C92.5868 31.2601 92.1133 31.4041 91.7345 31.6919C91.3595 31.9798 91.0773 32.3662 90.8879 32.851C90.7023 33.3359 90.6095 33.8738 90.6095 34.4647C90.6095 35.0707 90.7042 35.6067 90.8936 36.0726C91.0868 36.5347 91.3709 36.8984 91.7459 37.1635C92.1246 37.4249 92.5943 37.5556 93.1549 37.5556ZM99.7477 38.8965V30.1692H101.043V31.4874H101.134C101.293 31.0556 101.581 30.7052 101.998 30.4363C102.414 30.1673 102.884 30.0328 103.407 30.0328C103.505 30.0328 103.628 30.0347 103.776 30.0385C103.924 30.0423 104.036 30.048 104.111 30.0556V31.4192C104.066 31.4078 103.962 31.3908 103.799 31.3681C103.64 31.3416 103.471 31.3283 103.293 31.3283C102.869 31.3283 102.49 31.4173 102.157 31.5953C101.827 31.7696 101.566 32.012 101.373 32.3226C101.183 32.6294 101.089 32.9798 101.089 33.3738V38.8965H99.7477ZM109.414 39.0783C108.573 39.0783 107.848 38.8927 107.238 38.5215C106.632 38.1465 106.164 37.6238 105.835 36.9533C105.509 36.2791 105.346 35.495 105.346 34.601C105.346 33.7071 105.509 32.9192 105.835 32.2374C106.164 31.5518 106.623 31.0177 107.21 30.6351C107.801 30.2488 108.49 30.0556 109.278 30.0556C109.732 30.0556 110.181 30.1313 110.624 30.2828C111.068 30.4344 111.471 30.6806 111.835 31.0215C112.198 31.3586 112.488 31.8056 112.704 32.3624C112.92 32.9192 113.028 33.6048 113.028 34.4192V34.9874H106.301V33.8283H111.664C111.664 33.3359 111.566 32.8965 111.369 32.5101C111.176 32.1238 110.899 31.8188 110.539 31.5953C110.183 31.3719 109.763 31.2601 109.278 31.2601C108.744 31.2601 108.282 31.3927 107.892 31.6578C107.505 31.9192 107.208 32.2601 106.999 32.6806C106.791 33.101 106.687 33.5518 106.687 34.0328V34.8056C106.687 35.4647 106.801 36.0234 107.028 36.4817C107.259 36.9363 107.579 37.2828 107.988 37.5215C108.397 37.7563 108.873 37.8738 109.414 37.8738C109.767 37.8738 110.085 37.8245 110.369 37.726C110.657 37.6238 110.905 37.4722 111.113 37.2715C111.321 37.0669 111.482 36.8132 111.596 36.5101L112.892 36.8738C112.755 37.3132 112.526 37.6995 112.204 38.0328C111.882 38.3624 111.484 38.62 111.011 38.8056C110.537 38.9874 110.005 39.0783 109.414 39.0783ZM121.569 32.1238L120.365 32.4647C120.289 32.2639 120.177 32.0688 120.03 31.8794C119.886 31.6863 119.689 31.5272 119.439 31.4022C119.189 31.2772 118.869 31.2147 118.479 31.2147C117.944 31.2147 117.499 31.3378 117.143 31.584C116.791 31.8264 116.615 32.1351 116.615 32.5101C116.615 32.8435 116.736 33.1067 116.979 33.2999C117.221 33.4931 117.6 33.6541 118.115 33.7828L119.41 34.101C120.191 34.2904 120.772 34.5802 121.155 34.9703C121.537 35.3567 121.729 35.8548 121.729 36.4647C121.729 36.9647 121.585 37.4116 121.297 37.8056C121.013 38.1995 120.615 38.5101 120.104 38.7374C119.592 38.9647 118.998 39.0783 118.319 39.0783C117.429 39.0783 116.693 38.8851 116.109 38.4988C115.526 38.1124 115.157 37.548 115.001 36.8056L116.274 36.4874C116.395 36.9571 116.624 37.3094 116.962 37.5442C117.302 37.7791 117.748 37.8965 118.297 37.8965C118.922 37.8965 119.418 37.7639 119.785 37.4988C120.157 37.2298 120.342 36.9078 120.342 36.5328C120.342 36.2298 120.236 35.976 120.024 35.7715C119.812 35.5632 119.486 35.4078 119.047 35.3056L117.592 34.9647C116.793 34.7753 116.206 34.4817 115.831 34.084C115.46 33.6825 115.274 33.1806 115.274 32.5783C115.274 32.0859 115.412 31.6503 115.689 31.2715C115.969 30.8927 116.35 30.5953 116.831 30.3794C117.316 30.1635 117.865 30.0556 118.479 30.0556C119.342 30.0556 120.02 30.245 120.513 30.6238C121.009 31.0025 121.361 31.5025 121.569 32.1238ZM126.635 39.101C126.082 39.101 125.58 38.9969 125.13 38.7885C124.679 38.5764 124.321 38.2715 124.056 37.8738C123.791 37.4722 123.658 36.9874 123.658 36.4192C123.658 35.9192 123.756 35.5139 123.953 35.2033C124.15 34.8889 124.414 34.6427 124.743 34.4647C125.073 34.2866 125.436 34.1541 125.834 34.0669C126.236 33.976 126.639 33.9041 127.044 33.851C127.575 33.7828 128.005 33.7317 128.334 33.6976C128.667 33.6597 128.91 33.5972 129.061 33.5101C129.217 33.423 129.294 33.2715 129.294 33.0556V33.0101C129.294 32.4495 129.141 32.0139 128.834 31.7033C128.531 31.3927 128.071 31.2374 127.453 31.2374C126.813 31.2374 126.311 31.3775 125.948 31.6578C125.584 31.9382 125.328 32.2374 125.181 32.5556L123.908 32.101C124.135 31.5707 124.438 31.1578 124.817 30.8624C125.2 30.5632 125.616 30.3548 126.067 30.2374C126.522 30.1162 126.969 30.0556 127.408 30.0556C127.688 30.0556 128.01 30.0897 128.374 30.1578C128.741 30.2222 129.095 30.3567 129.436 30.5613C129.781 30.7658 130.067 31.0745 130.294 31.4874C130.522 31.9003 130.635 32.4533 130.635 33.1465V38.8965H129.294V37.7147H129.226C129.135 37.9041 128.984 38.1067 128.772 38.3226C128.559 38.5385 128.277 38.7222 127.925 38.8738C127.573 39.0253 127.143 39.101 126.635 39.101ZM126.84 37.8965C127.37 37.8965 127.817 37.7923 128.181 37.584C128.548 37.3757 128.825 37.1067 129.01 36.7772C129.2 36.4476 129.294 36.101 129.294 35.7374V34.5101C129.238 34.5783 129.113 34.6408 128.919 34.6976C128.73 34.7507 128.51 34.798 128.26 34.8397C128.014 34.8775 127.773 34.9116 127.539 34.9419C127.308 34.9685 127.12 34.9912 126.976 35.0101C126.628 35.0556 126.302 35.1294 125.999 35.2317C125.7 35.3302 125.457 35.4798 125.272 35.6806C125.09 35.8775 124.999 36.1465 124.999 36.4874C124.999 36.9533 125.171 37.3056 125.516 37.5442C125.864 37.7791 126.306 37.8965 126.84 37.8965ZM140.791 39.101C140.238 39.101 139.736 38.9969 139.285 38.7885C138.834 38.5764 138.476 38.2715 138.211 37.8738C137.946 37.4722 137.814 36.9874 137.814 36.4192C137.814 35.9192 137.912 35.5139 138.109 35.2033C138.306 34.8889 138.569 34.6427 138.899 34.4647C139.228 34.2866 139.592 34.1541 139.99 34.0669C140.391 33.976 140.795 33.9041 141.2 33.851C141.73 33.7828 142.16 33.7317 142.49 33.6976C142.823 33.6597 143.065 33.5972 143.217 33.5101C143.372 33.423 143.45 33.2715 143.45 33.0556V33.0101C143.45 32.4495 143.297 32.0139 142.99 31.7033C142.687 31.3927 142.226 31.2374 141.609 31.2374C140.969 31.2374 140.467 31.3775 140.103 31.6578C139.74 31.9382 139.484 32.2374 139.336 32.5556L138.064 32.101C138.291 31.5707 138.594 31.1578 138.973 30.8624C139.355 30.5632 139.772 30.3548 140.223 30.2374C140.677 30.1162 141.124 30.0556 141.564 30.0556C141.844 30.0556 142.166 30.0897 142.529 30.1578C142.897 30.2222 143.251 30.3567 143.592 30.5613C143.937 30.7658 144.223 31.0745 144.45 31.4874C144.677 31.9003 144.791 32.4533 144.791 33.1465V38.8965H143.45V37.7147H143.382C143.291 37.9041 143.139 38.1067 142.927 38.3226C142.715 38.5385 142.433 38.7222 142.081 38.8738C141.728 39.0253 141.298 39.101 140.791 39.101ZM140.995 37.8965C141.526 37.8965 141.973 37.7923 142.336 37.584C142.704 37.3757 142.98 37.1067 143.166 36.7772C143.355 36.4476 143.45 36.101 143.45 35.7374V34.5101C143.393 34.5783 143.268 34.6408 143.075 34.6976C142.886 34.7507 142.666 34.798 142.416 34.8397C142.17 34.8775 141.929 34.9116 141.694 34.9419C141.463 34.9685 141.276 34.9912 141.132 35.0101C140.783 35.0556 140.458 35.1294 140.154 35.2317C139.855 35.3302 139.613 35.4798 139.427 35.6806C139.245 35.8775 139.154 36.1465 139.154 36.4874C139.154 36.9533 139.327 37.3056 139.672 37.5442C140.02 37.7791 140.461 37.8965 140.995 37.8965ZM153.513 42.1692V37.5556H153.399C153.301 37.7147 153.161 37.9154 152.979 38.1578C152.797 38.3965 152.537 38.6105 152.2 38.7999C151.863 38.9855 151.414 39.0783 150.854 39.0783C150.126 39.0783 149.484 38.8946 148.928 38.5272C148.371 38.156 147.935 37.6332 147.621 36.959C147.306 36.281 147.149 35.4798 147.149 34.5556C147.149 33.6389 147.306 32.8435 147.621 32.1692C147.935 31.495 148.373 30.9741 148.933 30.6067C149.494 30.2393 150.142 30.0556 150.876 30.0556C151.445 30.0556 151.894 30.1503 152.223 30.3397C152.556 30.5253 152.81 30.7374 152.984 30.976C153.162 31.2109 153.301 31.4041 153.399 31.5556H153.558V30.1692H154.854V42.1692H153.513ZM151.036 37.8738C151.573 37.8738 152.028 37.7336 152.399 37.4533C152.77 37.1692 153.053 36.7772 153.246 36.2772C153.439 35.7734 153.536 35.1919 153.536 34.5328C153.536 33.8813 153.441 33.3113 153.251 32.8226C153.062 32.3302 152.782 31.9476 152.411 31.6749C152.039 31.3984 151.581 31.2601 151.036 31.2601C150.467 31.2601 149.994 31.406 149.615 31.6976C149.24 31.9855 148.958 32.3775 148.769 32.8738C148.583 33.3662 148.49 33.9192 148.49 34.5328C148.49 35.1541 148.585 35.7185 148.774 36.226C148.967 36.7298 149.251 37.1313 149.626 37.4306C150.005 37.726 150.475 37.8738 151.036 37.8738ZM163.128 35.3283V30.1692H164.469V38.8965H163.128V37.4192H163.037C162.833 37.8624 162.515 38.2393 162.083 38.5499C161.651 38.8567 161.106 39.0101 160.446 39.0101C159.901 39.0101 159.416 38.8908 158.992 38.6522C158.568 38.4097 158.234 38.0461 157.992 37.5613C157.75 37.0726 157.628 36.4571 157.628 35.7147V30.1692H158.969V35.6238C158.969 36.2601 159.147 36.7677 159.503 37.1465C159.863 37.5253 160.321 37.7147 160.878 37.7147C161.212 37.7147 161.551 37.6294 161.895 37.459C162.244 37.2885 162.536 37.0272 162.77 36.6749C163.009 36.3226 163.128 35.8738 163.128 35.3283ZM167.245 38.8965V30.1692H168.586V38.8965H167.245ZM167.313 28.9874L168.7 26.351H170.268L168.495 28.9874H167.313ZM172.339 38.9874C172.059 38.9874 171.818 38.887 171.618 38.6863C171.417 38.4855 171.317 38.245 171.317 37.9647C171.317 37.6844 171.417 37.4438 171.618 37.2431C171.818 37.0423 172.059 36.9419 172.339 36.9419C172.62 36.9419 172.86 37.0423 173.061 37.2431C173.262 37.4438 173.362 37.6844 173.362 37.9647C173.362 38.1503 173.315 38.3207 173.22 38.476C173.129 38.6313 173.006 38.7563 172.851 38.851C172.699 38.9419 172.529 38.9874 172.339 38.9874ZM172.339 32.5101C172.059 32.5101 171.818 32.4097 171.618 32.209C171.417 32.0082 171.317 31.7677 171.317 31.4874C171.317 31.2071 171.417 30.9666 171.618 30.7658C171.818 30.565 172.059 30.4647 172.339 30.4647C172.62 30.4647 172.86 30.565 173.061 30.7658C173.262 30.9666 173.362 31.2071 173.362 31.4874C173.362 31.673 173.315 31.8435 173.22 31.9988C173.129 32.1541 173.006 32.2791 172.851 32.3738C172.699 32.4647 172.529 32.5101 172.339 32.5101Z" fill="#F6F4F3"/>
<path d="M123.272 71.3922C123.272 62.7699 116.635 54.9346 105.925 54.9346C94.942 54.9346 88.7148 63.0094 88.7148 71.529C88.7148 80.4935 95.5921 87.9182 105.686 87.9182C116.19 87.9182 123.272 80.6303 123.272 71.3922ZM93.4708 71.529C93.4708 66.1572 97.0976 59.2799 106.096 59.2799C114.479 59.2799 118.551 66.0204 118.551 71.358C118.551 74.1294 117.387 77.6194 115.334 79.8434C113.11 82.2385 109.381 83.6755 105.959 83.6755C99.2189 83.6413 93.4708 78.8511 93.4708 71.529Z" fill="#F6F4F3"/>
<path d="M133.258 55.3774H128.639V87.5057H133.258V55.3774Z" fill="#F6F4F3"/>
<path d="M156.597 74.9144L166.485 62.4942V87.5057H171.105V55.3774H166.828L156.152 68.5504L145.477 55.3774H141.132V87.5057H145.751V62.4942L155.742 74.9144H156.597Z" fill="#F6F4F3"/>
<path d="M45.632 93.4648C41.9709 93.4648 39.8838 96.1679 39.8838 99.0077C39.8838 101.984 42.1762 104.482 45.5293 104.482C49.0193 104.482 51.3802 102.053 51.3802 98.9735C51.4144 96.0652 49.1904 93.4648 45.632 93.4648ZM48.7798 101.779C48.0271 102.566 46.7953 103.045 45.6662 103.045C43.408 103.045 41.4919 101.437 41.4919 99.0077C41.4919 97.2285 42.6895 94.9361 45.7004 94.9361C48.5061 94.9361 49.8405 97.1943 49.8405 98.9735C49.8405 99.8631 49.4641 101.026 48.7798 101.779Z" fill="#F6F4F3"/>
<path d="M61.9561 101.911L54.7366 93.5967H53.5049V104.306H54.9419V96.0602L62.0929 104.306H63.4274V93.5967H61.9561V101.911Z" fill="#F6F4F3"/>
<path d="M73.8293 99.687C73.8293 100.748 73.7267 101.295 73.5214 101.672C73.2477 102.185 72.4949 103.074 70.7499 103.074C69.5182 103.074 68.7997 102.664 68.3549 102.185C67.8074 101.637 67.6706 101.09 67.6706 99.687V93.5967H66.1309V99.687C66.1309 100.406 66.1308 101.637 66.7125 102.595C67.5679 103.93 69.2102 104.477 70.7499 104.477C71.9817 104.477 73.1792 104.169 74.1372 103.314C75.3348 102.219 75.3348 100.748 75.3348 99.687V93.5967H73.7951V99.687H73.8293Z" fill="#F6F4F3"/>
<path d="M87.5473 98.0105L83.9546 93.5967H82.5176V104.306H84.0573V95.9918L87.3762 100.132H87.6841L90.9688 95.9918V104.306H92.5085V93.5967H91.0714L87.5473 98.0105Z" fill="#F6F4F3"/>
<path d="M97.0905 93.5967H95.5508V104.306H97.0905V93.5967Z" fill="#F6F4F3"/>
<path d="M105.411 100.411H107.464V102.635C106.437 102.977 105.924 103.114 105.137 103.114C102.537 103.114 100.826 101.334 100.826 98.9735C100.826 96.4416 102.845 94.8335 105 94.8335C105.582 94.8335 107.053 94.9361 108.798 95.9626V94.3887C107.635 93.9096 106.54 93.4648 105.034 93.4648C101.373 93.4648 99.252 96.2363 99.252 99.042C99.252 101.471 100.963 104.448 105.103 104.448C106.882 104.448 108.216 103.935 109.038 103.558V99.042H105.445V100.411H105.411Z" fill="#F6F4F3"/>
<path d="M116.293 99.2437C117.456 98.7989 118.072 97.8408 118.072 96.6091C118.072 95.5142 117.524 94.4535 116.395 93.9745C115.711 93.6665 115.061 93.6323 114.548 93.6323H111.845V104.342H113.384V99.6885H113.795C114.548 99.6885 115.061 99.6885 116.087 101.023C116.43 101.468 117.935 103.829 118.277 104.342H120.091C119.338 103.315 119.098 102.939 118.619 102.22C117.867 100.852 117.251 99.8937 116.293 99.2437ZM115.472 98.1488C115.061 98.3198 114.206 98.3198 113.966 98.3198H113.384V94.9325H113.863C114.787 94.9325 115.3 95.0009 115.677 95.172C116.19 95.4115 116.498 95.9932 116.498 96.6091C116.498 97.1907 116.224 97.8408 115.472 98.1488Z" fill="#F6F4F3"/>
<path d="M125.182 93.5635L120.562 104.341H122.136L123.471 101.194H128.021L129.459 104.341H131.032L126.242 93.5635H125.182ZM124.087 99.7907L125.695 95.9243L127.44 99.7907H124.087Z" fill="#F6F4F3"/>
<path d="M133.257 99.0077C133.257 96.8522 134.899 94.9361 137.499 94.9361C138.799 94.9361 140.065 95.3467 141.195 95.9968V94.3544C140.51 94.0465 139.073 93.4648 137.431 93.4648C134.043 93.4648 131.648 96.031 131.648 98.9735C131.648 101.471 133.428 104.448 137.397 104.448C138.765 104.448 140.065 104.174 141.297 103.49V101.813C140.168 102.566 138.834 103.011 137.499 103.011C134.659 103.045 133.257 100.992 133.257 99.0077Z" fill="#F6F4F3"/>
<path d="M145.506 93.5967H143.966V104.306H145.506V93.5967Z" fill="#F6F4F3"/>
<path d="M152.525 92.8784H153.347L155.913 90.5176H153.654L152.525 92.8784Z" fill="#F6F4F3"/>
<path d="M153.617 93.4648C149.956 93.4648 147.869 96.1679 147.869 99.0077C147.869 101.984 150.162 104.482 153.515 104.482C157.005 104.482 159.366 102.053 159.366 98.9735C159.4 96.0652 157.21 93.4648 153.617 93.4648ZM156.765 101.779C156.012 102.566 154.781 103.045 153.652 103.045C151.393 103.045 149.477 101.437 149.477 99.0077C149.477 97.2285 150.675 94.9361 153.686 94.9361C156.491 94.9361 157.826 97.1943 157.826 98.9735C157.86 99.8631 157.449 101.026 156.765 101.779Z" fill="#F6F4F3"/>
<path d="M169.632 93.5967V101.911L162.412 93.5967H161.181V104.306H162.618V96.0602L169.769 104.306H171.103V93.5967H169.632Z" fill="#F6F4F3"/>
<path d="M56.6901 68.4159C57.0665 68.4159 57.3402 68.108 57.3402 67.7658C57.3402 67.4237 57.0323 67.1157 56.6901 67.1157C56.348 67.1157 56.04 67.4237 56.04 67.7658C56.04 68.108 56.348 68.4159 56.6901 68.4159Z" fill="#F6F4F3"/>
<path d="M64.1816 68.8605C64.1474 68.7579 64.0448 68.6895 63.9079 68.6895H63.4631H63.1552H62.7788H62.4709H61.9918C61.8892 68.6895 61.7866 68.7579 61.7181 68.8605L60.4522 71.8031H59.2204L57.9544 68.8605C57.9202 68.7579 57.8176 68.6895 57.6807 68.6895H56.6885H55.6962C55.5936 68.6895 55.4909 68.7579 55.4225 68.8605L54.0881 71.9741C54.0197 72.111 54.0881 72.2479 54.1908 72.3505C54.225 72.3847 54.2934 72.3847 54.3276 72.3847C54.4302 72.3847 54.5329 72.3163 54.6013 72.2136L55.7647 69.4764L55.8331 72.1452L55.3883 75.5325C55.3883 75.6694 55.4567 75.8063 55.5594 75.8405C55.5936 75.8405 55.6278 75.8747 55.662 75.8747C55.7989 75.8747 55.9357 75.772 55.9357 75.6352L56.3463 72.4189H56.928L57.3386 75.6352C57.3728 75.772 57.4754 75.8747 57.6123 75.8747C57.6465 75.8747 57.6807 75.8747 57.7149 75.8405C57.8518 75.8063 57.9202 75.6694 57.886 75.5325L57.4412 72.1452L57.5096 69.4764L58.673 72.2136C58.673 72.2136 58.673 72.2479 58.7072 72.2479C58.7072 72.2479 58.7072 72.2821 58.7414 72.2821L58.7756 72.3163C58.7756 72.3163 58.8098 72.3163 58.8098 72.3505H58.844H58.8782H59.1178L58.7414 74.2666C58.7072 74.4034 58.7414 74.5403 58.844 74.6429C58.9125 74.7114 58.9809 74.7456 59.0493 74.7798V75.601C59.0493 75.7378 59.152 75.8405 59.2888 75.8405C59.4257 75.8405 59.5283 75.7378 59.5283 75.601V74.8482C59.5283 74.8482 59.5283 74.8482 59.5626 74.8482H59.6994H59.8363C59.8363 74.8482 59.8363 74.8482 59.8705 74.8482V75.6352C59.8705 75.772 59.9732 75.8747 60.11 75.8747C60.2469 75.8747 60.3495 75.772 60.3495 75.6352V74.814C60.418 74.7798 60.4864 74.7456 60.5548 74.6771C60.6575 74.5745 60.6917 74.4376 60.6575 74.3008L60.2811 72.3847H60.5206C60.5548 72.3847 60.5548 72.3847 60.5548 72.3847H60.589C60.589 72.3847 60.6232 72.3847 60.6232 72.3505C60.6232 72.3505 60.6575 72.3505 60.6575 72.3163C60.6575 72.3163 60.6575 72.2821 60.6917 72.2821C60.6917 72.2821 60.6917 72.2479 60.7259 72.2479L61.9234 69.408L62.1629 70.5713C62.1971 70.7766 62.1971 70.9477 62.1287 71.153L61.0338 75.9089H62.5735H62.9499H64.4896L63.3947 71.153C63.3605 70.9819 63.3263 70.7766 63.3947 70.5713L63.6342 69.408L64.558 71.7004C64.5922 71.8031 64.6949 71.8715 64.8317 71.8715C64.8659 71.8715 64.9002 71.8715 64.9344 71.8373C65.0713 71.7688 65.1397 71.5978 65.1055 71.4609L64.1816 68.8605Z" fill="#F6F4F3"/>
<path d="M62.9519 68.4159C63.3282 68.4159 63.602 68.108 63.602 67.7658C63.602 67.4237 63.294 67.1157 62.9519 67.1157C62.5755 67.1157 62.3018 67.4237 62.3018 67.7658C62.3018 68.108 62.5755 68.4159 62.9519 68.4159Z" fill="#F6F4F3"/>
<path d="M59.8335 71.667C60.1072 71.667 60.3125 71.4617 60.3125 71.188C60.3125 70.9143 60.1072 70.709 59.8335 70.709C59.5598 70.709 59.3545 70.9143 59.3545 71.188C59.3545 71.4617 59.5598 71.667 59.8335 71.667Z" fill="#F6F4F3"/>
<path d="M69.9592 55.4487C70.8488 56.2699 72.0805 57.7069 72.0805 57.7069C75.3652 61.368 77.2471 66.295 77.2471 70.6746C77.2471 70.743 77.2471 70.7772 77.2471 70.8457H71.841C71.0198 62.2576 64.1768 55.4829 55.8966 55.4829C47.0349 55.4829 39.8496 63.113 39.8496 72.5222C39.8496 77.6203 42.1763 83.3343 46.0084 87.577H49.3957C48.5061 86.7558 47.2744 85.3188 47.2744 85.3188C43.9897 81.6577 42.1078 76.7307 42.1078 72.3511C42.1078 72.2827 42.1078 72.2485 42.1078 72.1801H47.5481C48.3692 80.7681 55.2123 87.5428 63.4924 87.5428C72.3542 87.5428 79.5395 79.9127 79.5395 70.5035C79.5395 65.4054 77.2128 59.6914 73.3807 55.4487H69.9592ZM69.5828 70.8114H66.8114C66.8114 70.7772 66.8114 70.7772 66.8114 70.743C66.8114 69.1007 66.3665 67.4926 65.5796 66.0555H68.3168C69.0011 67.4926 69.4117 69.1007 69.5828 70.8114ZM67.8378 65.029H64.9979C63.9373 63.4209 62.5002 62.0865 60.9263 61.2653C61.679 60.8548 62.3633 60.3415 62.945 59.7599C64.9637 61.0258 66.6745 62.8735 67.8378 65.029ZM56.5467 57.7069C58.5654 57.8096 60.4815 58.3913 62.1923 59.3151C60.721 60.6837 58.7365 61.5733 56.5467 61.7101V57.7069ZM56.5467 62.5313C57.71 62.4629 58.8392 62.1892 59.8656 61.7786C61.4053 62.4629 62.8082 63.592 63.9031 65.029H56.5125V62.5313H56.5467ZM55.5203 57.6727V61.6759C53.2278 61.5733 51.1749 60.6495 49.6694 59.2124C51.4486 58.2886 53.4331 57.7412 55.5203 57.6727ZM55.5203 62.5313V65.029H47.9929C49.0878 63.592 50.5248 62.4287 52.0303 61.7786C53.1252 62.2234 54.2885 62.4971 55.5203 62.5313ZM48.9167 59.6914C49.5326 60.3073 50.2511 60.8205 51.0038 61.2653C49.4641 62.1207 47.9929 63.4209 46.9322 65.029H43.887C45.0846 62.8393 46.8296 60.9574 48.9167 59.6914ZM42.1078 71.1536C42.2447 69.3402 42.6895 67.5952 43.408 66.0213H46.3505C45.5978 67.4583 45.1188 69.0665 45.1188 70.7088C45.1188 70.7772 45.1188 70.9825 45.1188 71.1536H42.1078ZM49.7721 72.1458H52.5435C52.5435 72.1801 52.5435 72.1801 52.5435 72.2143C52.5435 73.8566 52.9883 75.4647 53.7753 76.9018H51.0381C50.3537 75.4647 49.9089 73.8566 49.7721 72.1458ZM51.5171 77.9282H54.357C55.4176 79.5364 56.8889 80.8708 58.4286 81.6919C57.6758 82.1025 56.9915 82.6158 56.4099 83.1974C54.357 81.9314 52.6804 80.0838 51.5171 77.9282ZM62.8081 85.2503C60.7894 85.1477 58.8734 84.566 57.1626 83.6422C58.6339 82.2736 60.6184 81.384 62.8081 81.2471V85.2503ZM62.8081 80.426C61.6448 80.4944 60.5157 80.7681 59.4893 81.1787C57.9496 80.4944 56.5467 79.3653 55.4518 77.9282H62.8423V80.426H62.8081ZM54.7675 76.936C53.9463 75.5332 53.4331 73.925 53.4331 72.2485C53.4331 72.2143 53.4331 72.2143 53.4331 72.1801V71.1878H46.0084C46.0084 71.051 46.0084 70.8799 46.0084 70.743C46.0084 69.0665 46.5216 67.4583 47.3428 66.0555H64.5874C65.4085 67.4583 65.9217 69.0665 65.9217 70.743C65.9217 70.7772 65.9217 70.7772 65.9217 70.8114V71.8037H73.3465C73.3465 71.9406 73.3465 72.1116 73.3465 72.2143C73.3465 73.8908 72.8333 75.499 72.0121 76.9018H54.7675V76.936ZM71.3278 77.9282C70.2329 79.3653 68.7958 80.5286 67.2903 81.1787C66.2297 80.7339 65.0322 80.4602 63.8004 80.426V77.9282H71.3278ZM63.8004 85.2846V81.2814C66.0928 81.384 68.1457 82.3078 69.6512 83.7449C67.9062 84.6687 65.9218 85.2161 63.8004 85.2846ZM70.4382 83.2659C69.8223 82.65 69.1038 82.1367 68.3511 81.6919C69.8908 80.8366 71.362 79.5364 72.4227 77.9282H75.4678C74.2361 80.1522 72.5253 81.9999 70.4382 83.2659ZM75.9469 76.936H73.0043C73.7571 75.499 74.2361 73.8908 74.2361 72.2485C74.2361 72.1801 74.2361 71.9748 74.2361 71.8379H77.2471C77.076 73.6171 76.6312 75.3621 75.9469 76.936Z" fill="#F6F4F3"/>
<path d="M209.185 2H1.81462V127H180.829H209.185V2Z" fill="#2A8A99" stroke="#C0E6EB" stroke-width="3" stroke-dasharray="10 10"/>
<path d="M57.5826 18.3636C57.523 17.8598 57.281 17.4688 56.8568 17.1903C56.4325 16.9119 55.9122 16.7727 55.2957 16.7727C54.8449 16.7727 54.4505 16.8456 54.1124 16.9915C53.7777 17.1373 53.5159 17.3378 53.3269 17.593C53.1413 17.8482 53.0485 18.1383 53.0485 18.4631C53.0485 18.7348 53.1132 18.9685 53.2424 19.1641C53.375 19.3563 53.544 19.517 53.7495 19.6463C53.955 19.7723 54.1705 19.8767 54.3958 19.9595C54.6212 20.0391 54.8284 20.1037 55.0173 20.1534L56.0514 20.4318C56.3165 20.5014 56.6115 20.5975 56.9363 20.7202C57.2644 20.8428 57.5776 21.0102 57.8759 21.2223C58.1776 21.4311 58.4261 21.6996 58.6217 22.0277C58.8172 22.3558 58.915 22.7585 58.915 23.2358C58.915 23.786 58.7708 24.2831 58.4825 24.7273C58.1974 25.1714 57.7798 25.5244 57.2296 25.7862C56.6828 26.0481 56.0182 26.179 55.236 26.179C54.5069 26.179 53.8755 26.0613 53.3419 25.826C52.8115 25.5907 52.3939 25.2625 52.089 24.8416C51.7874 24.4207 51.6167 23.9318 51.5769 23.375H52.8497C52.8828 23.7595 53.0121 24.0777 53.2374 24.3295C53.4661 24.5781 53.7545 24.7637 54.1025 24.8864C54.4538 25.0057 54.8317 25.0653 55.236 25.0653C55.7067 25.0653 56.1293 24.9891 56.5038 24.8366C56.8783 24.6809 57.1749 24.4654 57.3937 24.1903C57.6124 23.9119 57.7218 23.5871 57.7218 23.2159C57.7218 22.8778 57.6274 22.6027 57.4384 22.3906C57.2495 22.1785 57.0009 22.0062 56.6927 21.8736C56.3845 21.741 56.0514 21.625 55.6934 21.5256L54.4406 21.1676C53.6451 20.9389 53.0154 20.6125 52.5514 20.1882C52.0874 19.764 51.8553 19.2088 51.8553 18.5227C51.8553 17.9527 52.0095 17.4555 52.3177 17.0312C52.6293 16.6037 53.0469 16.2723 53.5705 16.0369C54.0975 15.7983 54.6858 15.679 55.3355 15.679C55.9917 15.679 56.575 15.7966 57.0855 16.032C57.5959 16.264 58.0002 16.5821 58.2985 16.9865C58.6001 17.3909 58.7592 17.8499 58.7758 18.3636H57.5826ZM61.0631 26V18.3636H62.2364V26H61.0631ZM61.6597 17.0909C61.431 17.0909 61.2338 17.013 61.0681 16.8572C60.9056 16.7015 60.8244 16.5142 60.8244 16.2955C60.8244 16.0767 60.9056 15.8894 61.0681 15.7337C61.2338 15.5779 61.431 15.5 61.6597 15.5C61.8884 15.5 62.0839 15.5779 62.2463 15.7337C62.412 15.8894 62.4949 16.0767 62.4949 16.2955C62.4949 16.5142 62.412 16.7015 62.2463 16.8572C62.0839 17.013 61.8884 17.0909 61.6597 17.0909ZM74.0931 28.8636V24.8267H73.9936C73.9075 24.9659 73.7848 25.1416 73.6257 25.3537C73.4667 25.5625 73.2396 25.7498 72.9446 25.9155C72.6497 26.0779 72.2569 26.1591 71.7664 26.1591C71.13 26.1591 70.5682 25.9983 70.081 25.6768C69.5938 25.352 69.2126 24.8946 68.9375 24.3047C68.6624 23.7114 68.5249 23.0104 68.5249 22.2017C68.5249 21.3996 68.6624 20.7036 68.9375 20.1136C69.2126 19.5237 69.5954 19.0679 70.086 18.7464C70.5765 18.425 71.1433 18.2642 71.7863 18.2642C72.2834 18.2642 72.6762 18.3471 72.9645 18.5128C73.2562 18.6752 73.4783 18.8608 73.6307 19.0696C73.7865 19.2751 73.9075 19.4441 73.9936 19.5767H74.1328V18.3636H75.2664V28.8636H74.0931ZM71.9255 25.1051C72.3961 25.1051 72.7938 24.9825 73.1186 24.7372C73.4435 24.4886 73.6904 24.1456 73.8594 23.7081C74.0284 23.2673 74.113 22.7585 74.113 22.1818C74.113 21.6117 74.0301 21.1129 73.8644 20.6854C73.6987 20.2545 73.4534 19.9197 73.1286 19.6811C72.8038 19.4392 72.4027 19.3182 71.9255 19.3182C71.4283 19.3182 71.014 19.4458 70.6826 19.701C70.3544 19.9529 70.1075 20.2959 69.9418 20.7301C69.7794 21.161 69.6982 21.6449 69.6982 22.1818C69.6982 22.7254 69.781 23.2192 69.9468 23.6634C70.1158 24.1042 70.3644 24.4555 70.6925 24.7173C71.0239 24.9759 71.4349 25.1051 71.9255 25.1051ZM82.5066 22.8778V18.3636H83.6799V26H82.5066V24.7074H82.4271C82.2481 25.0952 81.9697 25.425 81.5918 25.6967C81.214 25.9652 80.7367 26.0994 80.16 26.0994C79.6827 26.0994 79.2585 25.995 78.8873 25.7862C78.5161 25.5741 78.2244 25.2559 78.0123 24.8317C77.8002 24.4041 77.6941 23.8655 77.6941 23.2159V18.3636H78.8674V23.1364C78.8674 23.6932 79.0232 24.1373 79.3347 24.4688C79.6496 24.8002 80.0506 24.9659 80.5378 24.9659C80.8295 24.9659 81.1262 24.8913 81.4278 24.7422C81.7327 24.593 81.9879 24.3643 82.1934 24.0561C82.4022 23.7479 82.5066 23.3551 82.5066 22.8778ZM86.1089 26V18.3636H87.2822V26H86.1089ZM86.7055 17.0909C86.4768 17.0909 86.2796 17.013 86.1138 16.8572C85.9514 16.7015 85.8702 16.5142 85.8702 16.2955C85.8702 16.0767 85.9514 15.8894 86.1138 15.7337C86.2796 15.5779 86.4768 15.5 86.7055 15.5C86.9341 15.5 87.1297 15.5779 87.2921 15.7337C87.4578 15.8894 87.5407 16.0767 87.5407 16.2955C87.5407 16.5142 87.4578 16.7015 87.2921 16.8572C87.1297 17.013 86.9341 17.0909 86.7055 17.0909ZM92.9128 26.1591C92.177 26.1591 91.5423 25.9967 91.0087 25.6719C90.4784 25.3438 90.0691 24.8864 89.7807 24.2997C89.4957 23.7098 89.3532 23.0237 89.3532 22.2415C89.3532 21.4593 89.4957 20.7699 89.7807 20.1733C90.0691 19.5734 90.4701 19.1061 90.9839 18.7713C91.5009 18.4332 92.1041 18.2642 92.7935 18.2642C93.1912 18.2642 93.584 18.3305 93.9718 18.4631C94.3596 18.5956 94.7125 18.8111 95.0307 19.1094C95.3489 19.4044 95.6025 19.7955 95.7914 20.2827C95.9803 20.7699 96.0748 21.3698 96.0748 22.0824V22.5795H90.1884V21.5653H94.8816C94.8816 21.1345 94.7954 20.75 94.6231 20.4119C94.454 20.0739 94.2121 19.8071 93.8972 19.6115C93.5857 19.416 93.2178 19.3182 92.7935 19.3182C92.3262 19.3182 91.9218 19.4342 91.5804 19.6662C91.2424 19.8949 90.9822 20.1932 90.7999 20.5611C90.6176 20.929 90.5265 21.3234 90.5265 21.7443V22.4205C90.5265 22.9972 90.6259 23.486 90.8248 23.8871C91.0269 24.2848 91.307 24.5881 91.665 24.7969C92.0229 25.0024 92.4389 25.1051 92.9128 25.1051C93.2211 25.1051 93.4995 25.062 93.7481 24.9759C94 24.8864 94.217 24.7538 94.3993 24.5781C94.5816 24.3991 94.7225 24.1771 94.8219 23.9119L95.9554 24.2301C95.8361 24.6146 95.6356 24.9527 95.3539 25.2443C95.0722 25.5327 94.7241 25.758 94.3098 25.9205C93.8956 26.0795 93.4299 26.1591 92.9128 26.1591ZM98.1396 26V18.3636H99.2731V19.517H99.3526C99.4918 19.1392 99.7437 18.8326 100.108 18.5973C100.473 18.362 100.884 18.2443 101.341 18.2443C101.427 18.2443 101.535 18.246 101.664 18.2493C101.794 18.2526 101.891 18.2576 101.958 18.2642V19.4574C101.918 19.4474 101.827 19.4325 101.684 19.4126C101.545 19.3894 101.398 19.3778 101.242 19.3778C100.871 19.3778 100.539 19.4557 100.248 19.6115C99.9592 19.764 99.7305 19.9761 99.5614 20.2479C99.3957 20.5163 99.3129 20.8229 99.3129 21.1676V26H98.1396ZM106.598 26.1591C105.862 26.1591 105.227 25.9967 104.694 25.6719C104.163 25.3438 103.754 24.8864 103.466 24.2997C103.181 23.7098 103.038 23.0237 103.038 22.2415C103.038 21.4593 103.181 20.7699 103.466 20.1733C103.754 19.5734 104.155 19.1061 104.669 18.7713C105.186 18.4332 105.789 18.2642 106.479 18.2642C106.876 18.2642 107.269 18.3305 107.657 18.4631C108.045 18.5956 108.398 18.8111 108.716 19.1094C109.034 19.4044 109.287 19.7955 109.476 20.2827C109.665 20.7699 109.76 21.3698 109.76 22.0824V22.5795H103.873V21.5653H108.567C108.567 21.1345 108.48 20.75 108.308 20.4119C108.139 20.0739 107.897 19.8071 107.582 19.6115C107.271 19.416 106.903 19.3182 106.479 19.3182C106.011 19.3182 105.607 19.4342 105.265 19.6662C104.927 19.8949 104.667 20.1932 104.485 20.5611C104.303 20.929 104.211 21.3234 104.211 21.7443V22.4205C104.211 22.9972 104.311 23.486 104.51 23.8871C104.712 24.2848 104.992 24.5881 105.35 24.7969C105.708 25.0024 106.124 25.1051 106.598 25.1051C106.906 25.1051 107.184 25.062 107.433 24.9759C107.685 24.8864 107.902 24.7538 108.084 24.5781C108.267 24.3991 108.407 24.1771 108.507 23.9119L109.64 24.2301C109.521 24.6146 109.321 24.9527 109.039 25.2443C108.757 25.5327 108.409 25.758 107.995 25.9205C107.581 26.0795 107.115 26.1591 106.598 26.1591ZM117.234 20.0739L116.18 20.3722C116.113 20.1965 116.016 20.0258 115.886 19.8601C115.76 19.6911 115.588 19.5518 115.369 19.4425C115.151 19.3331 114.87 19.2784 114.529 19.2784C114.062 19.2784 113.672 19.3861 113.361 19.6016C113.053 19.8137 112.898 20.0838 112.898 20.4119C112.898 20.7036 113.004 20.9339 113.217 21.103C113.429 21.272 113.76 21.4129 114.211 21.5256L115.344 21.804C116.027 21.9697 116.536 22.2232 116.871 22.5646C117.205 22.9027 117.373 23.3385 117.373 23.8722C117.373 24.3097 117.247 24.7008 116.995 25.0455C116.746 25.3902 116.398 25.6619 115.951 25.8608C115.504 26.0597 114.983 26.1591 114.39 26.1591C113.611 26.1591 112.966 25.9901 112.456 25.652C111.946 25.3139 111.622 24.8201 111.486 24.1705L112.6 23.892C112.706 24.303 112.907 24.6113 113.202 24.8168C113.5 25.0223 113.889 25.125 114.37 25.125C114.917 25.125 115.351 25.009 115.673 24.777C115.997 24.5417 116.16 24.2599 116.16 23.9318C116.16 23.6667 116.067 23.4446 115.881 23.2656C115.696 23.0833 115.411 22.9474 115.026 22.858L113.754 22.5597C113.054 22.3939 112.54 22.1371 112.212 21.7891C111.888 21.4377 111.725 20.9986 111.725 20.4716C111.725 20.0407 111.846 19.6596 112.088 19.3281C112.333 18.9967 112.666 18.7365 113.087 18.5476C113.512 18.3587 113.992 18.2642 114.529 18.2642C115.285 18.2642 115.878 18.4299 116.309 18.7614C116.743 19.0928 117.051 19.5303 117.234 20.0739ZM129.046 20.0739L127.992 20.3722C127.925 20.1965 127.828 20.0258 127.698 19.8601C127.572 19.6911 127.4 19.5518 127.181 19.4425C126.963 19.3331 126.682 19.2784 126.341 19.2784C125.874 19.2784 125.484 19.3861 125.173 19.6016C124.864 19.8137 124.71 20.0838 124.71 20.4119C124.71 20.7036 124.816 20.9339 125.029 21.103C125.241 21.272 125.572 21.4129 126.023 21.5256L127.156 21.804C127.839 21.9697 128.348 22.2232 128.683 22.5646C129.017 22.9027 129.185 23.3385 129.185 23.8722C129.185 24.3097 129.059 24.7008 128.807 25.0455C128.558 25.3902 128.21 25.6619 127.763 25.8608C127.315 26.0597 126.795 26.1591 126.202 26.1591C125.423 26.1591 124.778 25.9901 124.268 25.652C123.757 25.3139 123.434 24.8201 123.298 24.1705L124.412 23.892C124.518 24.303 124.719 24.6113 125.014 24.8168C125.312 25.0223 125.701 25.125 126.182 25.125C126.729 25.125 127.163 25.009 127.485 24.777C127.809 24.5417 127.972 24.2599 127.972 23.9318C127.972 23.6667 127.879 23.4446 127.693 23.2656C127.508 23.0833 127.223 22.9474 126.838 22.858L125.565 22.5597C124.866 22.3939 124.352 22.1371 124.024 21.7891C123.699 21.4377 123.537 20.9986 123.537 20.4716C123.537 20.0407 123.658 19.6596 123.9 19.3281C124.145 18.9967 124.478 18.7365 124.899 18.5476C125.324 18.3587 125.804 18.2642 126.341 18.2642C127.097 18.2642 127.69 18.4299 128.121 18.7614C128.555 19.0928 128.863 19.5303 129.046 20.0739ZM133.478 26.179C132.994 26.179 132.555 26.0878 132.161 25.9055C131.766 25.7199 131.453 25.4531 131.221 25.1051C130.989 24.7538 130.873 24.3295 130.873 23.8324C130.873 23.3949 130.959 23.0402 131.132 22.7685C131.304 22.4934 131.534 22.2779 131.823 22.1222C132.111 21.9664 132.429 21.8504 132.777 21.7741C133.128 21.6946 133.481 21.6316 133.836 21.5852C134.3 21.5256 134.676 21.4808 134.965 21.451C135.256 21.4179 135.468 21.3632 135.601 21.2869C135.737 21.2107 135.805 21.0781 135.805 20.8892V20.8494C135.805 20.3589 135.671 19.9777 135.402 19.706C135.137 19.4342 134.734 19.2983 134.194 19.2983C133.634 19.2983 133.195 19.4209 132.877 19.6662C132.558 19.9115 132.335 20.1733 132.205 20.4517L131.092 20.054C131.291 19.59 131.556 19.2287 131.887 18.9702C132.222 18.7083 132.587 18.526 132.981 18.4233C133.379 18.3172 133.77 18.2642 134.154 18.2642C134.4 18.2642 134.681 18.294 134.999 18.3537C135.321 18.41 135.631 18.5277 135.929 18.7067C136.231 18.8857 136.481 19.1558 136.68 19.517C136.879 19.8783 136.978 20.3622 136.978 20.9688V26H135.805V24.9659H135.745C135.666 25.1316 135.533 25.3089 135.347 25.4979C135.162 25.6868 134.915 25.8475 134.607 25.9801C134.298 26.1127 133.922 26.179 133.478 26.179ZM133.657 25.125C134.121 25.125 134.512 25.0339 134.83 24.8516C135.152 24.6693 135.394 24.4339 135.556 24.1456C135.722 23.8572 135.805 23.554 135.805 23.2358V22.1619C135.755 22.2216 135.646 22.2763 135.477 22.326C135.311 22.3724 135.119 22.4138 134.9 22.4503C134.685 22.4834 134.474 22.5133 134.269 22.5398C134.066 22.563 133.902 22.5829 133.776 22.5994C133.471 22.6392 133.186 22.7038 132.921 22.7933C132.659 22.8795 132.447 23.0104 132.285 23.1861C132.126 23.3584 132.046 23.5937 132.046 23.892C132.046 24.2997 132.197 24.608 132.499 24.8168C132.804 25.0223 133.19 25.125 133.657 25.125ZM139.559 26V15.8182H140.732V19.5767H140.831C140.918 19.4441 141.037 19.2751 141.189 19.0696C141.345 18.8608 141.567 18.6752 141.856 18.5128C142.147 18.3471 142.542 18.2642 143.039 18.2642C143.682 18.2642 144.249 18.425 144.739 18.7464C145.23 19.0679 145.612 19.5237 145.888 20.1136C146.163 20.7036 146.3 21.3996 146.3 22.2017C146.3 23.0104 146.163 23.7114 145.888 24.3047C145.612 24.8946 145.231 25.352 144.744 25.6768C144.257 25.9983 143.695 26.1591 143.059 26.1591C142.568 26.1591 142.175 26.0779 141.88 25.9155C141.585 25.7498 141.358 25.5625 141.199 25.3537C141.04 25.1416 140.918 24.9659 140.831 24.8267H140.692V26H139.559ZM140.712 22.1818C140.712 22.7585 140.797 23.2673 140.966 23.7081C141.135 24.1456 141.382 24.4886 141.706 24.7372C142.031 24.9825 142.429 25.1051 142.9 25.1051C143.39 25.1051 143.799 24.9759 144.128 24.7173C144.459 24.4555 144.708 24.1042 144.873 23.6634C145.042 23.2192 145.127 22.7254 145.127 22.1818C145.127 21.6449 145.044 21.161 144.878 20.7301C144.716 20.2959 144.469 19.9529 144.138 19.701C143.809 19.4458 143.397 19.3182 142.9 19.3182C142.422 19.3182 142.021 19.4392 141.697 19.6811C141.372 19.9197 141.126 20.2545 140.961 20.6854C140.795 21.1129 140.712 21.6117 140.712 22.1818ZM151.577 26.1591C150.841 26.1591 150.206 25.9967 149.673 25.6719C149.142 25.3438 148.733 24.8864 148.445 24.2997C148.16 23.7098 148.017 23.0237 148.017 22.2415C148.017 21.4593 148.16 20.7699 148.445 20.1733C148.733 19.5734 149.134 19.1061 149.648 18.7713C150.165 18.4332 150.768 18.2642 151.457 18.2642C151.855 18.2642 152.248 18.3305 152.636 18.4631C153.023 18.5956 153.376 18.8111 153.695 19.1094C154.013 19.4044 154.266 19.7955 154.455 20.2827C154.644 20.7699 154.739 21.3698 154.739 22.0824V22.5795H148.852V21.5653H153.545C153.545 21.1345 153.459 20.75 153.287 20.4119C153.118 20.0739 152.876 19.8071 152.561 19.6115C152.249 19.416 151.882 19.3182 151.457 19.3182C150.99 19.3182 150.586 19.4342 150.244 19.6662C149.906 19.8949 149.646 20.1932 149.464 20.5611C149.281 20.929 149.19 21.3234 149.19 21.7443V22.4205C149.19 22.9972 149.29 23.486 149.489 23.8871C149.691 24.2848 149.971 24.5881 150.329 24.7969C150.687 25.0024 151.103 25.1051 151.577 25.1051C151.885 25.1051 152.163 25.062 152.412 24.9759C152.664 24.8864 152.881 24.7538 153.063 24.5781C153.245 24.3991 153.386 24.1771 153.486 23.9119L154.619 24.2301C154.5 24.6146 154.299 24.9527 154.018 25.2443C153.736 25.5327 153.388 25.758 152.974 25.9205C152.559 26.0795 152.094 26.1591 151.577 26.1591ZM156.803 26V18.3636H157.937V19.517H158.016C158.156 19.1392 158.408 18.8326 158.772 18.5973C159.137 18.362 159.548 18.2443 160.005 18.2443C160.091 18.2443 160.199 18.246 160.328 18.2493C160.458 18.2526 160.555 18.2576 160.622 18.2642V19.4574C160.582 19.4474 160.491 19.4325 160.348 19.4126C160.209 19.3894 160.061 19.3778 159.906 19.3778C159.534 19.3778 159.203 19.4557 158.911 19.6115C158.623 19.764 158.394 19.9761 158.225 20.2479C158.06 20.5163 157.977 20.8229 157.977 21.1676V26H156.803ZM47.1591 43V35.3636H48.2926V36.5568H48.392C48.5511 36.1491 48.808 35.8326 49.1626 35.6072C49.5172 35.3786 49.9431 35.2642 50.4403 35.2642C50.9441 35.2642 51.3634 35.3786 51.6981 35.6072C52.0362 35.8326 52.2997 36.1491 52.4886 36.5568H52.5681C52.7637 36.1624 53.057 35.8492 53.4481 35.6172C53.8392 35.3819 54.3082 35.2642 54.8551 35.2642C55.5378 35.2642 56.0963 35.478 56.5305 35.9055C56.9647 36.3298 57.1818 36.991 57.1818 37.8892V43H56.0085V37.8892C56.0085 37.3258 55.8544 36.9231 55.5461 36.6811C55.2379 36.4392 54.875 36.3182 54.4574 36.3182C53.9204 36.3182 53.5045 36.4806 53.2095 36.8054C52.9145 37.1269 52.767 37.5346 52.767 38.0284V43H51.5738V37.7699C51.5738 37.3357 51.433 36.986 51.1512 36.7209C50.8695 36.4524 50.5066 36.3182 50.0625 36.3182C49.7575 36.3182 49.4725 36.3994 49.2074 36.5618C48.9455 36.7242 48.7334 36.9496 48.571 37.2379C48.4119 37.523 48.3324 37.8527 48.3324 38.2273V43H47.1591ZM61.8542 43.179C61.3703 43.179 60.9311 43.0878 60.5367 42.9055C60.1423 42.7199 59.8291 42.4531 59.5971 42.1051C59.3651 41.7538 59.2491 41.3295 59.2491 40.8324C59.2491 40.3949 59.3352 40.0402 59.5076 39.7685C59.6799 39.4934 59.9103 39.2779 60.1986 39.1222C60.487 38.9664 60.8052 38.8504 61.1532 38.7741C61.5045 38.6946 61.8575 38.6316 62.2121 38.5852C62.6762 38.5256 63.0523 38.4808 63.3407 38.451C63.6324 38.4179 63.8445 38.3632 63.9771 38.2869C64.1129 38.2107 64.1809 38.0781 64.1809 37.8892V37.8494C64.1809 37.3589 64.0467 36.9777 63.7782 36.706C63.513 36.4342 63.1103 36.2983 62.5701 36.2983C62.01 36.2983 61.5708 36.4209 61.2526 36.6662C60.9344 36.9115 60.7107 37.1733 60.5815 37.4517L59.4678 37.054C59.6667 36.59 59.9318 36.2287 60.2633 35.9702C60.598 35.7083 60.9626 35.526 61.357 35.4233C61.7548 35.3172 62.1459 35.2642 62.5303 35.2642C62.7756 35.2642 63.0573 35.294 63.3755 35.3537C63.697 35.41 64.0069 35.5277 64.3052 35.7067C64.6068 35.8857 64.857 36.1558 65.0559 36.517C65.2548 36.8783 65.3542 37.3622 65.3542 37.9688V43H64.1809V41.9659H64.1212C64.0417 42.1316 63.9091 42.3089 63.7235 42.4979C63.5379 42.6868 63.291 42.8475 62.9827 42.9801C62.6745 43.1127 62.2983 43.179 61.8542 43.179ZM62.0332 42.125C62.4972 42.125 62.8883 42.0339 63.2065 41.8516C63.528 41.6693 63.7699 41.4339 63.9323 41.1456C64.098 40.8572 64.1809 40.554 64.1809 40.2358V39.1619C64.1312 39.2216 64.0218 39.2763 63.8528 39.326C63.687 39.3724 63.4948 39.4138 63.2761 39.4503C63.0606 39.4834 62.8502 39.5133 62.6447 39.5398C62.4425 39.563 62.2784 39.5829 62.1525 39.5994C61.8476 39.6392 61.5625 39.7038 61.2974 39.7933C61.0355 39.8795 60.8234 40.0104 60.661 40.1861C60.5019 40.3584 60.4224 40.5937 60.4224 40.892C60.4224 41.2997 60.5732 41.608 60.8748 41.8168C61.1797 42.0223 61.5658 42.125 62.0332 42.125ZM62.0729 34.3295L63.286 32.0227H64.6582L63.107 34.3295H62.0729ZM73.1848 37.0739L72.1308 37.3722C72.0645 37.1965 71.9667 37.0258 71.8375 36.8601C71.7115 36.6911 71.5392 36.5518 71.3204 36.4425C71.1017 36.3331 70.8216 36.2784 70.4802 36.2784C70.0129 36.2784 69.6235 36.3861 69.3119 36.6016C69.0037 36.8137 68.8496 37.0838 68.8496 37.4119C68.8496 37.7036 68.9556 37.9339 69.1677 38.103C69.3799 38.272 69.7113 38.4129 70.1621 38.5256L71.2956 38.804C71.9783 38.9697 72.4871 39.2232 72.8219 39.5646C73.1566 39.9027 73.324 40.3385 73.324 40.8722C73.324 41.3097 73.198 41.7008 72.9462 42.0455C72.6976 42.3902 72.3496 42.6619 71.9021 42.8608C71.4547 43.0597 70.9343 43.1591 70.341 43.1591C69.5622 43.1591 68.9175 42.9901 68.4071 42.652C67.8967 42.3139 67.5735 41.8201 67.4376 41.1705L68.5513 40.892C68.6573 41.303 68.8578 41.6113 69.1528 41.8168C69.4511 42.0223 69.8406 42.125 70.3212 42.125C70.868 42.125 71.3022 42.009 71.6237 41.777C71.9485 41.5417 72.1109 41.2599 72.1109 40.9318C72.1109 40.6667 72.0181 40.4446 71.8325 40.2656C71.6469 40.0833 71.3619 39.9474 70.9774 39.858L69.7047 39.5597C69.0053 39.3939 68.4916 39.1371 68.1635 38.7891C67.8387 38.4377 67.6763 37.9986 67.6763 37.4716C67.6763 37.0407 67.7972 36.6596 68.0392 36.3281C68.2845 35.9967 68.6176 35.7365 69.0385 35.5476C69.4627 35.3587 69.9433 35.2642 70.4802 35.2642C71.2359 35.2642 71.8292 35.4299 72.2601 35.7614C72.6943 36.0928 73.0025 36.5303 73.1848 37.0739ZM79.5876 43V35.3636H80.7609V43H79.5876ZM80.1842 34.0909C79.9555 34.0909 79.7583 34.013 79.5926 33.8572C79.4302 33.7015 79.349 33.5142 79.349 33.2955C79.349 33.0767 79.4302 32.8894 79.5926 32.7337C79.7583 32.5779 79.9555 32.5 80.1842 32.5C80.4129 32.5 80.6085 32.5779 80.7709 32.7337C80.9366 32.8894 81.0195 33.0767 81.0195 33.2955C81.0195 33.5142 80.9366 33.7015 80.7709 33.8572C80.6085 34.013 80.4129 34.0909 80.1842 34.0909ZM84.3632 38.4062V43H83.1899V35.3636H84.3234V36.5568H84.4229C84.6019 36.169 84.8736 35.8575 85.2382 35.6222C85.6028 35.3835 86.0734 35.2642 86.6501 35.2642C87.1672 35.2642 87.6196 35.3703 88.0074 35.5824C88.3952 35.7912 88.6968 36.1094 88.9122 36.5369C89.1277 36.9612 89.2354 37.4981 89.2354 38.1477V43H88.0621V38.2273C88.0621 37.6274 87.9063 37.16 87.5947 36.8253C87.2832 36.4872 86.8556 36.3182 86.3121 36.3182C85.9376 36.3182 85.6028 36.3994 85.3078 36.5618C85.0161 36.7242 84.7858 36.9612 84.6168 37.2727C84.4477 37.5843 84.3632 37.9621 84.3632 38.4062ZM94.7418 46.0227C94.175 46.0227 93.6878 45.9498 93.2801 45.804C92.8724 45.6615 92.5327 45.4725 92.2609 45.2372C91.9925 45.0052 91.7787 44.7566 91.6196 44.4915L92.5543 43.8352C92.6603 43.9744 92.7946 44.1335 92.957 44.3125C93.1194 44.4948 93.3414 44.6522 93.6231 44.7848C93.9082 44.9207 94.2811 44.9886 94.7418 44.9886C95.3582 44.9886 95.867 44.8395 96.268 44.5412C96.6691 44.2429 96.8696 43.7756 96.8696 43.1392V41.5881H96.7702C96.684 41.7273 96.5614 41.8996 96.4023 42.1051C96.2465 42.3073 96.0211 42.4879 95.7261 42.647C95.4345 42.8028 95.0401 42.8807 94.5429 42.8807C93.9264 42.8807 93.3729 42.7348 92.8824 42.4432C92.3952 42.1515 92.009 41.7273 91.724 41.1705C91.4423 40.6136 91.3014 39.9375 91.3014 39.142C91.3014 38.3598 91.439 37.6787 91.7141 37.0987C91.9892 36.5154 92.372 36.0646 92.8625 35.7464C93.353 35.425 93.9198 35.2642 94.5628 35.2642C95.0599 35.2642 95.4544 35.3471 95.746 35.5128C96.041 35.6752 96.2664 35.8608 96.4222 36.0696C96.5812 36.2751 96.7039 36.4441 96.7901 36.5767H96.9094V35.3636H98.0429V43.2188C98.0429 43.875 97.8937 44.4086 97.5954 44.8196C97.3005 45.2339 96.9027 45.5372 96.4023 45.7294C95.9051 45.925 95.3516 46.0227 94.7418 46.0227ZM94.702 41.8267C95.1726 41.8267 95.5704 41.719 95.8952 41.5036C96.22 41.2881 96.4669 40.9782 96.6359 40.5739C96.805 40.1695 96.8895 39.6856 96.8895 39.1222C96.8895 38.572 96.8066 38.0864 96.6409 37.6655C96.4752 37.2446 96.2299 36.9148 95.9051 36.6761C95.5803 36.4375 95.1793 36.3182 94.702 36.3182C94.2048 36.3182 93.7905 36.4441 93.4591 36.696C93.131 36.9479 92.884 37.286 92.7183 37.7102C92.5559 38.1345 92.4747 38.6051 92.4747 39.1222C92.4747 39.6525 92.5576 40.1214 92.7233 40.5291C92.8923 40.9335 93.1409 41.2517 93.469 41.4837C93.8005 41.7124 94.2115 41.8267 94.702 41.8267ZM100.471 43V35.3636H101.604V36.517H101.684C101.823 36.1392 102.075 35.8326 102.439 35.5973C102.804 35.362 103.215 35.2443 103.672 35.2443C103.758 35.2443 103.866 35.246 103.995 35.2493C104.125 35.2526 104.223 35.2576 104.289 35.2642V36.4574C104.249 36.4474 104.158 36.4325 104.015 36.4126C103.876 36.3894 103.729 36.3778 103.573 36.3778C103.202 36.3778 102.87 36.4557 102.579 36.6115C102.29 36.764 102.062 36.9761 101.892 37.2479C101.727 37.5163 101.644 37.8229 101.644 38.1676V43H100.471ZM108.929 43.1591C108.193 43.1591 107.558 42.9967 107.025 42.6719C106.494 42.3438 106.085 41.8864 105.797 41.2997C105.512 40.7098 105.369 40.0237 105.369 39.2415C105.369 38.4593 105.512 37.7699 105.797 37.1733C106.085 36.5734 106.486 36.1061 107 35.7713C107.517 35.4332 108.12 35.2642 108.81 35.2642C109.207 35.2642 109.6 35.3305 109.988 35.4631C110.376 35.5956 110.729 35.8111 111.047 36.1094C111.365 36.4044 111.619 36.7955 111.807 37.2827C111.996 37.7699 112.091 38.3698 112.091 39.0824V39.5795H106.204V38.5653H110.898C110.898 38.1345 110.811 37.75 110.639 37.4119C110.47 37.0739 110.228 36.8071 109.913 36.6115C109.602 36.416 109.234 36.3182 108.81 36.3182C108.342 36.3182 107.938 36.4342 107.597 36.6662C107.258 36.8949 106.998 37.1932 106.816 37.5611C106.634 37.929 106.543 38.3234 106.543 38.7443V39.4205C106.543 39.9972 106.642 40.486 106.841 40.8871C107.043 41.2848 107.323 41.5881 107.681 41.7969C108.039 42.0024 108.455 42.1051 108.929 42.1051C109.237 42.1051 109.516 42.062 109.764 41.9759C110.016 41.8864 110.233 41.7538 110.415 41.5781C110.598 41.3991 110.739 41.1771 110.838 40.9119L111.972 41.2301C111.852 41.6146 111.652 41.9527 111.37 42.2443C111.088 42.5327 110.74 42.758 110.326 42.9205C109.912 43.0795 109.446 43.1591 108.929 43.1591ZM119.565 37.0739L118.511 37.3722C118.444 37.1965 118.347 37.0258 118.217 36.8601C118.091 36.6911 117.919 36.5518 117.7 36.4425C117.482 36.3331 117.202 36.2784 116.86 36.2784C116.393 36.2784 116.003 36.3861 115.692 36.6016C115.384 36.8137 115.229 37.0838 115.229 37.4119C115.229 37.7036 115.336 37.9339 115.548 38.103C115.76 38.272 116.091 38.4129 116.542 38.5256L117.676 38.804C118.358 38.9697 118.867 39.2232 119.202 39.5646C119.537 39.9027 119.704 40.3385 119.704 40.8722C119.704 41.3097 119.578 41.7008 119.326 42.0455C119.077 42.3902 118.729 42.6619 118.282 42.8608C117.835 43.0597 117.314 43.1591 116.721 43.1591C115.942 43.1591 115.297 42.9901 114.787 42.652C114.277 42.3139 113.953 41.8201 113.818 41.1705L114.931 40.892C115.037 41.303 115.238 41.6113 115.533 41.8168C115.831 42.0223 116.22 42.125 116.701 42.125C117.248 42.125 117.682 42.009 118.004 41.777C118.328 41.5417 118.491 41.2599 118.491 40.9318C118.491 40.6667 118.398 40.4446 118.212 40.2656C118.027 40.0833 117.742 39.9474 117.357 39.858L116.085 39.5597C115.385 39.3939 114.872 39.1371 114.543 38.7891C114.219 38.4377 114.056 37.9986 114.056 37.4716C114.056 37.0407 114.177 36.6596 114.419 36.3281C114.664 35.9967 114.997 35.7365 115.418 35.5476C115.843 35.3587 116.323 35.2642 116.86 35.2642C117.616 35.2642 118.209 35.4299 118.64 35.7614C119.074 36.0928 119.382 36.5303 119.565 37.0739ZM123.997 43.179C123.513 43.179 123.074 43.0878 122.68 42.9055C122.285 42.7199 121.972 42.4531 121.74 42.1051C121.508 41.7538 121.392 41.3295 121.392 40.8324C121.392 40.3949 121.478 40.0402 121.651 39.7685C121.823 39.4934 122.053 39.2779 122.342 39.1222C122.63 38.9664 122.948 38.8504 123.296 38.7741C123.648 38.6946 124.001 38.6316 124.355 38.5852C124.819 38.5256 125.195 38.4808 125.484 38.451C125.775 38.4179 125.988 38.3632 126.12 38.2869C126.256 38.2107 126.324 38.0781 126.324 37.8892V37.8494C126.324 37.3589 126.19 36.9777 125.921 36.706C125.656 36.4342 125.253 36.2983 124.713 36.2983C124.153 36.2983 123.714 36.4209 123.396 36.6662C123.077 36.9115 122.854 37.1733 122.725 37.4517L121.611 37.054C121.81 36.59 122.075 36.2287 122.406 35.9702C122.741 35.7083 123.106 35.526 123.5 35.4233C123.898 35.3172 124.289 35.2642 124.673 35.2642C124.919 35.2642 125.2 35.294 125.519 35.3537C125.84 35.41 126.15 35.5277 126.448 35.7067C126.75 35.8857 127 36.1558 127.199 36.517C127.398 36.8783 127.497 37.3622 127.497 37.9688V43H126.324V41.9659H126.264C126.185 42.1316 126.052 42.3089 125.867 42.4979C125.681 42.6868 125.434 42.8475 125.126 42.9801C124.818 43.1127 124.441 43.179 123.997 43.179ZM124.176 42.125C124.64 42.125 125.031 42.0339 125.35 41.8516C125.671 41.6693 125.913 41.4339 126.075 41.1456C126.241 40.8572 126.324 40.554 126.324 40.2358V39.1619C126.274 39.2216 126.165 39.2763 125.996 39.326C125.83 39.3724 125.638 39.4138 125.419 39.4503C125.204 39.4834 124.993 39.5133 124.788 39.5398C124.586 39.563 124.421 39.5829 124.296 39.5994C123.991 39.6392 123.706 39.7038 123.44 39.7933C123.179 39.8795 122.966 40.0104 122.804 40.1861C122.645 40.3584 122.565 40.5937 122.565 40.892C122.565 41.2997 122.716 41.608 123.018 41.8168C123.323 42.0223 123.709 42.125 124.176 42.125ZM136.383 43.179C135.899 43.179 135.46 43.0878 135.066 42.9055C134.672 42.7199 134.358 42.4531 134.126 42.1051C133.894 41.7538 133.778 41.3295 133.778 40.8324C133.778 40.3949 133.864 40.0402 134.037 39.7685C134.209 39.4934 134.44 39.2779 134.728 39.1222C135.016 38.9664 135.334 38.8504 135.682 38.7741C136.034 38.6946 136.387 38.6316 136.741 38.5852C137.205 38.5256 137.582 38.4808 137.87 38.451C138.162 38.4179 138.374 38.3632 138.506 38.2869C138.642 38.2107 138.71 38.0781 138.71 37.8892V37.8494C138.71 37.3589 138.576 36.9777 138.307 36.706C138.042 36.4342 137.64 36.2983 137.099 36.2983C136.539 36.2983 136.1 36.4209 135.782 36.6662C135.464 36.9115 135.24 37.1733 135.111 37.4517L133.997 37.054C134.196 36.59 134.461 36.2287 134.792 35.9702C135.127 35.7083 135.492 35.526 135.886 35.4233C136.284 35.3172 136.675 35.2642 137.06 35.2642C137.305 35.2642 137.587 35.294 137.905 35.3537C138.226 35.41 138.536 35.5277 138.834 35.7067C139.136 35.8857 139.386 36.1558 139.585 36.517C139.784 36.8783 139.883 37.3622 139.883 37.9688V43H138.71V41.9659H138.65C138.571 42.1316 138.438 42.3089 138.253 42.4979C138.067 42.6868 137.82 42.8475 137.512 42.9801C137.204 43.1127 136.828 43.179 136.383 43.179ZM136.562 42.125C137.026 42.125 137.417 42.0339 137.736 41.8516C138.057 41.6693 138.299 41.4339 138.462 41.1456C138.627 40.8572 138.71 40.554 138.71 40.2358V39.1619C138.66 39.2216 138.551 39.2763 138.382 39.326C138.216 39.3724 138.024 39.4138 137.805 39.4503C137.59 39.4834 137.379 39.5133 137.174 39.5398C136.972 39.563 136.808 39.5829 136.682 39.5994C136.377 39.6392 136.092 39.7038 135.827 39.7933C135.565 39.8795 135.353 40.0104 135.19 40.1861C135.031 40.3584 134.952 40.5937 134.952 40.892C134.952 41.2997 135.102 41.608 135.404 41.8168C135.709 42.0223 136.095 42.125 136.562 42.125ZM147.515 45.8636V41.8267H147.416C147.33 41.9659 147.207 42.1416 147.048 42.3537C146.889 42.5625 146.662 42.7498 146.367 42.9155C146.072 43.0779 145.679 43.1591 145.188 43.1591C144.552 43.1591 143.99 42.9983 143.503 42.6768C143.016 42.352 142.635 41.8946 142.36 41.3047C142.085 40.7114 141.947 40.0104 141.947 39.2017C141.947 38.3996 142.085 37.7036 142.36 37.1136C142.635 36.5237 143.018 36.0679 143.508 35.7464C143.999 35.425 144.565 35.2642 145.208 35.2642C145.705 35.2642 146.098 35.3471 146.387 35.5128C146.678 35.6752 146.9 35.8608 147.053 36.0696C147.209 36.2751 147.33 36.4441 147.416 36.5767H147.555V35.3636H148.688V45.8636H147.515ZM145.348 42.1051C145.818 42.1051 146.216 41.9825 146.541 41.7372C146.866 41.4886 147.112 41.1456 147.281 40.7081C147.451 40.2673 147.535 39.7585 147.535 39.1818C147.535 38.6117 147.452 38.1129 147.286 37.6854C147.121 37.2545 146.875 36.9197 146.551 36.6811C146.226 36.4392 145.825 36.3182 145.348 36.3182C144.85 36.3182 144.436 36.4458 144.105 36.701C143.777 36.9529 143.53 37.2959 143.364 37.7301C143.201 38.161 143.12 38.6449 143.12 39.1818C143.12 39.7254 143.203 40.2192 143.369 40.6634C143.538 41.1042 143.786 41.4555 144.115 41.7173C144.446 41.9759 144.857 42.1051 145.348 42.1051ZM155.929 39.8778V35.3636H157.102V43H155.929V41.7074H155.849C155.67 42.0952 155.392 42.425 155.014 42.6967C154.636 42.9652 154.159 43.0994 153.582 43.0994C153.105 43.0994 152.681 42.995 152.309 42.7862C151.938 42.5741 151.646 42.2559 151.434 41.8317C151.222 41.4041 151.116 40.8655 151.116 40.2159V35.3636H152.289V40.1364C152.289 40.6932 152.445 41.1373 152.757 41.4688C153.072 41.8002 153.473 41.9659 153.96 41.9659C154.252 41.9659 154.548 41.8913 154.85 41.7422C155.155 41.593 155.41 41.3643 155.615 41.0561C155.824 40.7479 155.929 40.3551 155.929 39.8778ZM159.531 43V35.3636H160.704V43H159.531ZM159.591 34.3295L160.804 32.0227H162.176L160.625 34.3295H159.591ZM163.988 43.0795C163.743 43.0795 163.533 42.9917 163.357 42.8161C163.181 42.6404 163.093 42.4299 163.093 42.1847C163.093 41.9394 163.181 41.7289 163.357 41.5533C163.533 41.3776 163.743 41.2898 163.988 41.2898C164.234 41.2898 164.444 41.3776 164.62 41.5533C164.795 41.7289 164.883 41.9394 164.883 42.1847C164.883 42.3471 164.842 42.4962 164.759 42.6321C164.679 42.768 164.572 42.8774 164.436 42.9602C164.303 43.0398 164.154 43.0795 163.988 43.0795ZM163.988 37.4119C163.743 37.4119 163.533 37.3241 163.357 37.1484C163.181 36.9728 163.093 36.7623 163.093 36.517C163.093 36.2718 163.181 36.0613 163.357 35.8857C163.533 35.71 163.743 35.6222 163.988 35.6222C164.234 35.6222 164.444 35.71 164.62 35.8857C164.795 36.0613 164.883 36.2718 164.883 36.517C164.883 36.6795 164.842 36.8286 164.759 36.9645C164.679 37.1004 164.572 37.2098 164.436 37.2926C164.303 37.3722 164.154 37.4119 163.988 37.4119Z" fill="#F6F4F3"/>
<path d="M192.206 114.632C192.113 114.375 192.021 114.118 191.928 113.861C191.405 112.413 190.881 110.965 190.358 109.516C190.003 108.534 189.653 107.551 189.29 106.572C189.081 106.009 189.264 105.476 189.637 105.156C190.285 104.598 191.31 104.863 191.61 105.663C192.279 107.447 192.951 109.23 193.622 111.014C193.623 111.016 193.626 111.019 193.639 111.039C193.628 110.919 193.625 110.815 193.61 110.713C193.498 109.946 194.097 109.265 194.874 109.28C195.395 109.291 195.862 109.645 196.027 110.152C196.084 110.328 196.142 110.503 196.208 110.703C196.259 110.552 196.239 110.384 196.286 110.229C196.336 110.063 196.42 109.908 196.533 109.778C196.74 109.538 197.043 109.384 197.358 109.353C198.026 109.289 198.619 109.777 198.705 110.413C198.729 110.59 198.776 110.764 198.82 110.94C198.821 110.738 198.854 110.545 198.932 110.359C199.121 109.912 199.585 109.61 200.084 109.613C200.57 109.615 201.042 109.925 201.215 110.371C201.556 111.254 201.715 112.167 201.92 113.085C202.183 114.259 202.525 115.409 202.882 116.557C203.09 117.225 203.069 117.882 202.841 118.536C202.559 119.342 202.053 119.988 201.402 120.529C200.619 121.179 199.722 121.597 198.728 121.807C197.731 122.018 196.744 121.993 195.778 121.646C195.262 121.462 194.807 121.18 194.415 120.796C193.712 120.107 193.03 119.399 192.384 118.656C191.985 118.197 191.607 117.722 191.23 117.246C190.864 116.782 190.446 116.371 189.987 115.998C189.419 115.537 188.864 115.059 188.316 114.574C188.056 114.344 188.008 114.037 188.068 113.711C188.146 113.287 188.334 113.1 188.798 113.028C189.533 112.914 190.231 113.06 190.866 113.432C191.368 113.727 191.798 114.117 192.146 114.588C192.16 114.606 192.174 114.623 192.188 114.641C192.194 114.638 192.2 114.635 192.206 114.632V114.632Z" fill="#F6F4F3"/>
<path d="M184.618 105.839C184.629 104.567 185.015 103.419 185.798 102.414C186.643 101.331 187.749 100.649 189.099 100.379C190.342 100.13 191.54 100.29 192.666 100.871C194.29 101.708 195.28 103.032 195.636 104.818C195.833 105.804 195.739 106.772 195.402 107.717C195.388 107.757 195.378 107.798 195.366 107.839C195.288 108.095 195.046 108.232 194.809 108.154C194.561 108.073 194.441 107.813 194.54 107.56C194.724 107.091 194.829 106.605 194.855 106.103C194.883 105.565 194.819 105.034 194.658 104.519C194.246 103.199 193.415 102.234 192.167 101.63C191.452 101.285 190.691 101.136 189.898 101.188C188.737 101.265 187.727 101.706 186.898 102.523C186.13 103.279 185.671 104.199 185.535 105.268C185.375 106.527 185.68 107.672 186.438 108.689C186.954 109.383 187.619 109.895 188.43 110.211C188.665 110.303 188.775 110.543 188.688 110.769C188.6 110.996 188.348 111.112 188.123 111.014C187.606 110.788 187.114 110.517 186.676 110.157C186.042 109.638 185.538 109.014 185.182 108.277C184.879 107.652 184.692 106.993 184.637 106.298C184.625 106.145 184.623 105.992 184.618 105.838L184.618 105.839Z" fill="#F6F4F3"/>
<path d="M190.156 102.939C189.057 102.991 188.22 103.476 187.683 104.443C187.127 105.446 187.279 106.754 188.036 107.618C188.316 107.938 188.645 108.188 189.036 108.357C189.255 108.452 189.35 108.691 189.265 108.914C189.183 109.128 188.952 109.24 188.727 109.17C188.554 109.115 188.398 109.024 188.246 108.928C187.261 108.306 186.668 107.418 186.516 106.269C186.352 105.028 186.74 103.954 187.641 103.082C188.238 102.504 188.962 102.168 189.794 102.093C191.081 101.978 192.156 102.415 193.001 103.385C193.492 103.948 193.767 104.616 193.852 105.36C193.916 105.914 193.85 106.453 193.671 106.978C193.602 107.183 193.418 107.299 193.217 107.276C193.005 107.253 192.854 107.105 192.823 106.89C192.812 106.813 192.834 106.741 192.856 106.669C193.196 105.558 192.961 104.577 192.152 103.749C191.7 103.287 191.131 103.029 190.481 102.959C190.373 102.948 190.266 102.941 190.156 102.939V102.939Z" fill="#F6F4F3"/>
<path d="M121.051 70.5905C121.051 63.0462 115.243 56.1904 105.872 56.1904C96.2621 56.1904 90.8135 63.2557 90.8135 70.7102C90.8135 78.5539 96.831 85.0504 105.663 85.0504C114.853 85.0504 121.051 78.6737 121.051 70.5905ZM94.9748 70.7102C94.9748 66.01 98.1482 59.9925 106.022 59.9925C113.357 59.9925 116.919 65.8903 116.919 70.5605C116.919 72.9855 115.901 76.0392 114.105 77.9851C112.159 80.0808 108.896 81.3381 105.902 81.3381C100.004 81.3082 94.9748 77.1169 94.9748 70.7102Z" fill="#F6F4F3"/>
<path d="M129.787 56.5786H125.745V84.6902H129.787V56.5786Z" fill="#F6F4F3"/>
<path d="M150.209 73.6731L158.861 62.8057V84.6902H162.902V56.5786H159.16L149.819 68.1046L140.479 56.5786H136.677V84.6902H140.718V62.8057L149.46 73.6731H150.209Z" fill="#F6F4F3"/>
<path d="M53.1174 89.9028C49.9141 89.9028 48.0879 92.2679 48.0879 94.7528C48.0879 97.3573 50.0937 99.5428 53.0276 99.5428C56.0813 99.5428 58.147 97.4172 58.147 94.7228C58.1769 92.1781 56.231 89.9028 53.1174 89.9028ZM55.8717 97.1777C55.2131 97.8663 54.1353 98.2854 53.1474 98.2854C51.1715 98.2854 49.495 96.8783 49.495 94.7528C49.495 93.196 50.5428 91.1902 53.1773 91.1902C55.6322 91.1902 56.7998 93.166 56.7998 94.7228C56.7998 95.5012 56.4705 96.5191 55.8717 97.1777Z" fill="#F6F4F3"/>
<path d="M67.4005 97.2934L61.0836 90.0186H60.0059V99.3891H61.2632V92.1741L67.5202 99.3891H68.6878V90.0186H67.4005V97.2934Z" fill="#F6F4F3"/>
<path d="M77.7887 95.3475C77.7887 96.2755 77.6989 96.7545 77.5193 97.0839C77.2798 97.5329 76.6212 98.3113 75.0943 98.3113C74.0166 98.3113 73.3879 97.9521 72.9987 97.5329C72.5197 97.0539 72.3999 96.5749 72.3999 95.3475V90.0186H71.0527V95.3475C71.0527 95.9762 71.0527 97.0539 71.5617 97.8922C72.3101 99.0598 73.7471 99.5388 75.0943 99.5388C76.1721 99.5388 77.2199 99.2693 78.0581 98.5209C79.106 97.5629 79.106 96.2755 79.106 95.3475V90.0186H77.7588V95.3475H77.7887Z" fill="#F6F4F3"/>
<path d="M89.7925 93.8805L86.649 90.0186H85.3916V99.3891H86.7388V92.1142L89.6428 95.7367H89.9122L92.7862 92.1142V99.3891H94.1334V90.0186H92.876L89.7925 93.8805Z" fill="#F6F4F3"/>
<path d="M98.1421 90.0186H96.7949V99.3891H98.1421V90.0186Z" fill="#F6F4F3"/>
<path d="M105.423 95.9802H107.219V97.9261C106.321 98.2255 105.872 98.3453 105.183 98.3453C102.908 98.3453 101.411 96.7885 101.411 94.7228C101.411 92.5074 103.178 91.1003 105.064 91.1003C105.573 91.1003 106.86 91.1902 108.387 92.0883V90.7112C107.369 90.292 106.411 89.9028 105.094 89.9028C101.89 89.9028 100.034 92.3278 100.034 94.7827C100.034 96.9083 101.531 99.5129 105.154 99.5129C106.71 99.5129 107.878 99.0638 108.596 98.7345V94.7827H105.453V95.9802H105.423Z" fill="#F6F4F3"/>
<path d="M114.943 94.9596C115.961 94.5704 116.499 93.7322 116.499 92.6544C116.499 91.6964 116.02 90.7683 115.032 90.3492C114.434 90.0797 113.865 90.0498 113.416 90.0498H111.051V99.4203H112.398V95.3488H112.757C113.416 95.3488 113.865 95.3488 114.763 96.5164C115.062 96.9056 116.38 98.9713 116.679 99.4203H118.266C117.607 98.5222 117.398 98.1929 116.978 97.5642C116.32 96.3667 115.781 95.5284 114.943 94.9596ZM114.224 94.0016C113.865 94.1513 113.116 94.1513 112.907 94.1513H112.398V91.1874H112.817C113.625 91.1874 114.074 91.2473 114.404 91.397C114.853 91.6066 115.122 92.1155 115.122 92.6544C115.122 93.1633 114.883 93.7322 114.224 94.0016Z" fill="#F6F4F3"/>
<path d="M122.721 89.9893L118.68 99.4196H120.057L121.224 96.6654H125.206L126.464 99.4196H127.841L123.649 89.9893H122.721ZM121.763 95.4379L123.17 92.055L124.697 95.4379H121.763Z" fill="#F6F4F3"/>
<path d="M129.787 94.7528C129.787 92.8667 131.224 91.1902 133.499 91.1902C134.637 91.1902 135.745 91.5494 136.732 92.1182V90.6812C136.134 90.4118 134.876 89.9028 133.439 89.9028C130.475 89.9028 128.38 92.1482 128.38 94.7228C128.38 96.9083 129.937 99.5129 133.409 99.5129C134.607 99.5129 135.745 99.2733 136.822 98.6746V97.2076C135.834 97.8663 134.667 98.2555 133.499 98.2555C131.014 98.2854 129.787 96.4891 129.787 94.7528Z" fill="#F6F4F3"/>
<path d="M140.503 90.0186H139.156V99.3891H140.503V90.0186Z" fill="#F6F4F3"/>
<path d="M146.646 89.3899H147.365L149.61 87.3242H147.634L146.646 89.3899Z" fill="#F6F4F3"/>
<path d="M147.602 89.9028C144.398 89.9028 142.572 92.2679 142.572 94.7528C142.572 97.3573 144.578 99.5428 147.512 99.5428C150.566 99.5428 152.631 97.4172 152.631 94.7228C152.661 92.1781 150.745 89.9028 147.602 89.9028ZM150.356 97.1777C149.697 97.8663 148.62 98.2854 147.632 98.2854C145.656 98.2854 143.979 96.8783 143.979 94.7528C143.979 93.196 145.027 91.1902 147.662 91.1902C150.117 91.1902 151.284 93.166 151.284 94.7228C151.314 95.5012 150.955 96.5191 150.356 97.1777Z" fill="#F6F4F3"/>
<path d="M161.614 90.0186V97.2934L155.297 90.0186H154.22V99.3891H155.477V92.1741L161.734 99.3891H162.902V90.0186H161.614Z" fill="#F6F4F3"/>
<path d="M62.7915 67.9848C63.1208 67.9848 63.3603 67.7154 63.3603 67.416C63.3603 67.1166 63.0909 66.8472 62.7915 66.8472C62.4921 66.8472 62.2227 67.1166 62.2227 67.416C62.2227 67.7154 62.4921 67.9848 62.7915 67.9848Z" fill="#F6F4F3"/>
<path d="M69.3469 68.3758C69.317 68.2859 69.2272 68.2261 69.1075 68.2261H68.7183H68.4488H68.1195H67.8501H67.4309C67.3411 68.2261 67.2513 68.2859 67.1914 68.3758L66.0837 70.9504H65.006L63.8983 68.3758C63.8684 68.2859 63.7785 68.2261 63.6588 68.2261H62.7906H61.9224C61.8326 68.2261 61.7428 68.2859 61.6829 68.3758L60.5153 71.1001C60.4554 71.2199 60.5153 71.3396 60.6051 71.4294C60.6351 71.4593 60.6949 71.4594 60.7249 71.4594C60.8147 71.4594 60.9045 71.3995 60.9644 71.3097L61.9823 68.9146L62.0421 71.2498L61.653 74.2136C61.653 74.3334 61.7128 74.4531 61.8026 74.4831C61.8326 74.4831 61.8625 74.513 61.8925 74.513C62.0122 74.513 62.132 74.4232 62.132 74.3034L62.4912 71.4893H63.0002L63.3594 74.3034C63.3893 74.4232 63.4792 74.513 63.5989 74.513C63.6289 74.513 63.6588 74.513 63.6887 74.4831C63.8085 74.4531 63.8683 74.3334 63.8384 74.2136L63.4492 71.2498L63.5091 68.9146L64.527 71.3097C64.527 71.3097 64.527 71.3396 64.5569 71.3396C64.5569 71.3396 64.5569 71.3695 64.5869 71.3695L64.6168 71.3995C64.6168 71.3995 64.6467 71.3995 64.6467 71.4294H64.6767H64.7066H64.9162L64.5869 73.1059C64.5569 73.2257 64.5869 73.3454 64.6767 73.4352C64.7365 73.4951 64.7964 73.5251 64.8563 73.555V74.2735C64.8563 74.3932 64.9461 74.4831 65.0659 74.4831C65.1856 74.4831 65.2754 74.3932 65.2754 74.2735V73.6149C65.2754 73.6149 65.2754 73.6149 65.3054 73.6149H65.4251H65.5449C65.5449 73.6149 65.5449 73.6149 65.5748 73.6149V74.3034C65.5748 74.4232 65.6646 74.513 65.7844 74.513C65.9041 74.513 65.9939 74.4232 65.9939 74.3034V73.5849C66.0538 73.555 66.1137 73.5251 66.1736 73.4652C66.2634 73.3754 66.2933 73.2556 66.2634 73.1359L65.9341 71.4594H66.1436C66.1736 71.4594 66.1736 71.4594 66.1736 71.4594H66.2035C66.2035 71.4594 66.2334 71.4593 66.2334 71.4294C66.2334 71.4294 66.2634 71.4294 66.2634 71.3995C66.2634 71.3995 66.2634 71.3695 66.2933 71.3695C66.2933 71.3695 66.2933 71.3396 66.3232 71.3396L67.3711 68.8548L67.5806 69.8727C67.6105 70.0523 67.6106 70.202 67.5507 70.3816L66.5927 74.5429H67.9399H68.2692H69.6164L68.6584 70.3816C68.6285 70.2319 68.5985 70.0523 68.6584 69.8727L68.8679 68.8548L69.6763 70.8606C69.7062 70.9504 69.796 71.0103 69.9158 71.0103C69.9457 71.0103 69.9757 71.0103 70.0056 70.9803C70.1253 70.9205 70.1852 70.7708 70.1553 70.651L69.3469 68.3758Z" fill="#F6F4F3"/>
<path d="M68.271 67.9848C68.6003 67.9848 68.8398 67.7154 68.8398 67.416C68.8398 67.1166 68.5704 66.8472 68.271 66.8472C67.9417 66.8472 67.7021 67.1166 67.7021 67.416C67.7021 67.7154 67.9417 67.9848 68.271 67.9848Z" fill="#F6F4F3"/>
<path d="M65.5432 70.8304C65.7827 70.8304 65.9623 70.6508 65.9623 70.4113C65.9623 70.1718 65.7827 69.9922 65.5432 69.9922C65.3037 69.9922 65.124 70.1718 65.124 70.4113C65.124 70.6508 65.3037 70.8304 65.5432 70.8304Z" fill="#F6F4F3"/>
<path d="M74.4028 56.6401C75.1812 57.3586 76.259 58.616 76.259 58.616C79.133 61.8194 80.7796 66.1304 80.7796 69.9624C80.7796 70.0223 80.7796 70.0522 80.7796 70.1121H76.0494C75.3309 62.5977 69.3434 56.6701 62.0984 56.6701C54.3446 56.6701 48.0576 63.3462 48.0576 71.5791C48.0576 76.0398 50.0934 81.0394 53.4464 84.7517H56.4103C55.6319 84.0332 54.5541 82.7758 54.5541 82.7758C51.6801 79.5725 50.0335 75.2614 50.0335 71.4294C50.0335 71.3695 50.0335 71.3396 50.0335 71.2797H54.7936C55.5121 78.7941 61.4997 84.7217 68.7446 84.7217C76.4985 84.7217 82.7854 78.0456 82.7854 69.8127C82.7854 65.352 80.7496 60.3524 77.3966 56.6401H74.4028ZM74.0735 70.0822H71.6486C71.6486 70.0522 71.6486 70.0522 71.6486 70.0223C71.6486 68.5853 71.2594 67.1782 70.5708 65.9208H72.9658C73.5646 67.1782 73.9238 68.5853 74.0735 70.0822ZM72.5467 65.0227H70.0619C69.1338 63.6156 67.8764 62.4481 66.4993 61.7296C67.1579 61.3703 67.7567 60.9212 68.2656 60.4123C70.0319 61.52 71.5288 63.1366 72.5467 65.0227ZM62.6672 58.616C64.4336 58.7058 66.1101 59.2148 67.607 60.0231C66.3197 61.2206 64.5833 61.999 62.6672 62.1187V58.616ZM62.6672 62.8372C63.6851 62.7774 64.6731 62.5379 65.5712 62.1786C66.9184 62.7774 68.1459 63.7653 69.1039 65.0227H62.6373V62.8372H62.6672ZM61.7691 58.5861V62.0888C59.7633 61.999 57.967 61.1907 56.6498 59.9333C58.2065 59.125 59.9429 58.646 61.7691 58.5861ZM61.7691 62.8372V65.0227H55.1828C56.1408 63.7653 57.3982 62.7474 58.7154 62.1786C59.6735 62.5678 60.6913 62.8073 61.7691 62.8372ZM55.9911 60.3524C56.53 60.8913 57.1587 61.3404 57.8173 61.7296C56.4701 62.478 55.1828 63.6156 54.2547 65.0227H51.5903C52.6381 63.1067 54.1649 61.4601 55.9911 60.3524ZM50.0335 70.3816C50.1533 68.7949 50.5425 67.268 51.1712 65.8909H53.7458C53.0872 67.1483 52.668 68.5554 52.668 69.9924C52.668 70.0522 52.668 70.2319 52.668 70.3816H50.0335ZM56.7396 71.2498H59.1645C59.1645 71.2797 59.1645 71.2797 59.1645 71.3096C59.1645 72.7466 59.5537 74.1537 60.2423 75.4111H57.8473C57.2485 74.1537 56.8593 72.7466 56.7396 71.2498ZM58.2664 76.3092H60.7512C61.6793 77.7163 62.9666 78.8839 64.3138 79.6024C63.6552 79.9616 63.0564 80.4107 62.5475 80.9196C60.7512 79.8119 59.2843 78.1953 58.2664 76.3092ZM68.1458 82.7159C66.3795 82.6261 64.703 82.1172 63.2061 81.3088C64.4934 80.1113 66.2298 79.3329 68.1458 79.2132V82.7159ZM68.1458 78.4947C67.128 78.5546 66.14 78.7941 65.2419 79.1533C63.8947 78.5546 62.6672 77.5666 61.7092 76.3092H68.1758V78.4947H68.1458ZM61.1105 75.441C60.392 74.2136 59.9429 72.8065 59.9429 71.3396C59.9429 71.3096 59.9429 71.3096 59.9429 71.2797V70.4115H53.4464C53.4464 70.2917 53.4464 70.1421 53.4464 70.0223C53.4464 68.5554 53.8955 67.1483 54.614 65.9208H69.7026C70.4211 67.1483 70.8702 68.5554 70.8702 70.0223C70.8702 70.0522 70.8702 70.0522 70.8702 70.0822V70.9504H77.3667C77.3667 71.0701 77.3667 71.2198 77.3667 71.3096C77.3667 72.7766 76.9176 74.1837 76.1991 75.4111H61.1105V75.441ZM75.6003 76.3092C74.6423 77.5666 73.3849 78.5845 72.0677 79.1533C71.1396 78.7641 70.0918 78.5246 69.014 78.4947V76.3092H75.6003ZM69.014 82.7458V79.2431C71.0199 79.3329 72.8161 80.1413 74.1334 81.3987C72.6066 82.207 70.8702 82.686 69.014 82.7458ZM74.822 80.9795C74.2831 80.4406 73.6544 79.9916 72.9958 79.6024C74.343 78.8539 75.6303 77.7163 76.5583 76.3092H79.2228C78.145 78.2552 76.6482 79.8718 74.822 80.9795ZM79.6419 75.441H77.0673C77.7259 74.1837 78.1451 72.7766 78.1451 71.3396C78.1451 71.2797 78.1451 71.1001 78.1451 70.9803H80.7796C80.6299 72.5371 80.2407 74.0639 79.6419 75.441Z" fill="#F6F4F3"/>
</svg>
