<svg width="332" height="325" viewBox="0 0 332 325" fill="none" xmlns="http://www.w3.org/2000/svg">
<rect width="332" height="325" fill="#F6F4F3"/>
<path d="M38.728 57.844C40.564 58.744 41.968 60.544 41.968 64.036V65.512C41.968 70.876 39.916 72.964 33.76 73H28.36V44.2H33.76C39.916 44.2 41.608 46.252 41.608 52.048V52.3C41.608 55.468 40.384 57.016 38.728 57.844ZM36.208 52.048C36.208 49.96 35.848 49.6 33.76 49.6V55.468C35.848 55.468 36.208 55.108 36.208 53.02V52.048ZM33.76 67.6C35.848 67.6 36.568 67.24 36.568 65.152V63.316C36.568 61.228 35.848 60.868 33.76 60.868V67.6ZM53.6838 49.6H48.8238V55.9H53.6838V61.3H48.8238V67.6H53.6838V73H43.4238V44.2H53.6838V49.6ZM60.5125 67.6H65.3725V73H55.1125V44.2H60.5125V67.6ZM66.8012 44.2H72.2013V73H66.8012V44.2ZM81.7744 55.9V52.408C81.7744 49.96 81.5944 49.24 80.4064 49.24C79.2184 49.24 79.0384 49.96 79.0384 52.408V64.792C79.0384 67.24 79.2184 67.96 80.4064 67.96C81.5944 67.96 81.7744 67.24 81.7744 64.792V61.3H87.1744V65.152C87.1744 70.948 84.7624 73.36 80.4064 73.36C76.0504 73.36 73.6384 70.948 73.6384 65.152V52.048C73.6384 46.252 76.0504 43.84 80.4064 43.84C84.7624 43.84 87.1744 46.252 87.1744 52.048V55.9H81.7744ZM98.8919 49.6H94.0319V55.9H98.8919V61.3H94.0319V67.6H98.8919V73H88.6319V44.2H98.8919V49.6Z" fill="#026972"/>
<path d="M31.84 114.4H35.08V118H28.24V98.8H31.84V114.4ZM34.4005 96.448L41.0005 94.672L41.2405 95.608L34.6405 97.36L34.4005 96.448ZM36.0325 98.8H39.6325V118H36.0325V98.8ZM47.2866 98.8H50.8866V118H47.2866L44.1906 108.52V118H40.5906V98.8H44.1906L47.2866 108.28V98.8ZM58.6919 102.4H55.4519V106.6H58.6919V110.2H55.4519V114.4H58.6919V118H51.8519V98.8H58.6919V102.4ZM65.6684 118L65.4044 114.736H63.5084L63.2444 118H59.6444L61.9964 98.8H66.9164L69.2684 118H65.6684ZM63.7964 111.136H65.1164L64.4684 102.616L63.7964 111.136ZM75.3252 106.528C77.3412 108.064 78.7812 109.384 78.7812 113.008C78.7812 116.392 77.5092 118.24 74.3652 118.24C71.2212 118.24 69.7572 116.872 69.7572 111.328H73.3572C73.3572 114.16 73.6932 114.64 74.3652 114.64C75.0372 114.64 75.1812 114.16 75.1812 113.008C75.1812 111.616 74.9412 111.04 73.3572 109.744C71.6052 108.328 69.7572 107.176 69.7572 103.552C69.7572 100.408 71.0772 98.56 74.1012 98.56C77.1252 98.56 78.5412 100.408 78.5412 104.512H74.9412C74.9412 102.64 74.6532 102.16 74.1012 102.16C73.5492 102.16 73.3572 102.64 73.3572 103.552C73.3572 104.944 73.9812 105.496 75.3252 106.528ZM87.1844 98.8C91.2884 98.8 92.6564 100.168 92.6564 104.032V112.768C92.6564 116.584 91.2884 118 87.1844 118H83.5844V98.8H87.1844ZM87.1844 114.4C88.5764 114.4 89.0564 114.16 89.0564 112.768V104.032C89.0564 102.64 88.5764 102.4 87.1844 102.4V114.4ZM100.467 102.4H97.2269V106.6H100.467V110.2H97.2269V114.4H100.467V118H93.6269V98.8H100.467V102.4ZM108.851 98.8C112.955 98.8 114.323 100.168 114.323 104.032V112.768C114.323 116.584 112.955 118 108.851 118H105.251V98.8H108.851ZM108.851 114.4C110.243 114.4 110.723 114.16 110.723 112.768V104.032C110.723 102.64 110.243 102.4 108.851 102.4V114.4ZM122.133 102.4H118.893V106.6H122.133V110.2H118.893V114.4H122.133V118H115.293V98.8H122.133V102.4ZM129.782 98.8H133.382V118H129.782L126.686 108.52V118H123.086V98.8H126.686L129.782 108.28V98.8ZM143.371 98.8V112.768C143.371 116.632 141.763 118.24 138.859 118.24C135.955 118.24 134.347 116.632 134.347 112.768V98.8H137.947V112.528C137.947 114.16 138.067 114.64 138.859 114.64C139.651 114.64 139.771 114.16 139.771 112.528V98.8H143.371ZM151.039 98.8H154.639V118H151.039L147.943 108.52V118H144.343V98.8H147.943L151.039 108.28V98.8ZM161.028 106.6V104.272C161.028 102.64 160.908 102.16 160.116 102.16C159.324 102.16 159.204 102.64 159.204 104.272V112.528C159.204 114.16 159.324 114.64 160.116 114.64C160.908 114.64 161.028 114.16 161.028 112.528V110.2H164.628V112.768C164.628 116.632 163.02 118.24 160.116 118.24C157.212 118.24 155.604 116.632 155.604 112.768V104.032C155.604 100.168 157.212 98.56 160.116 98.56C163.02 98.56 164.628 100.168 164.628 104.032V106.6H161.028ZM165.6 98.8H169.2V118H165.6V98.8ZM175.947 118L175.683 114.736H173.787L173.523 118H169.923L172.275 98.8H177.195L179.547 118H175.947ZM174.075 111.136H175.395L174.747 102.616L174.075 111.136Z" fill="#AA751F"/>
<path d="M29.4091 146V134.364H36.4318V135.614H30.8182V139.545H36.0682V140.795H30.8182V144.75H36.5227V146H29.4091ZM38.7898 146V137.273H40.0852V138.636H40.1989C40.3807 138.17 40.6742 137.809 41.0795 137.551C41.4848 137.29 41.9716 137.159 42.5398 137.159C43.1155 137.159 43.5947 137.29 43.9773 137.551C44.3636 137.809 44.6648 138.17 44.8807 138.636H44.9716C45.1951 138.186 45.5303 137.828 45.9773 137.562C46.4242 137.294 46.9602 137.159 47.5852 137.159C48.3655 137.159 49.0038 137.403 49.5 137.892C49.9962 138.377 50.2443 139.133 50.2443 140.159V146H48.9034V140.159C48.9034 139.515 48.7273 139.055 48.375 138.778C48.0227 138.502 47.608 138.364 47.1307 138.364C46.517 138.364 46.0417 138.549 45.7045 138.92C45.3674 139.288 45.1989 139.754 45.1989 140.318V146H43.8352V140.023C43.8352 139.527 43.6742 139.127 43.3523 138.824C43.0303 138.517 42.6155 138.364 42.108 138.364C41.7595 138.364 41.4337 138.456 41.1307 138.642C40.8314 138.828 40.589 139.085 40.4034 139.415C40.2216 139.741 40.1307 140.117 40.1307 140.545V146H38.7898ZM56.3551 146.182C55.5142 146.182 54.7888 145.996 54.179 145.625C53.5729 145.25 53.1051 144.727 52.7756 144.057C52.4498 143.383 52.2869 142.598 52.2869 141.705C52.2869 140.811 52.4498 140.023 52.7756 139.341C53.1051 138.655 53.5634 138.121 54.1506 137.739C54.7415 137.352 55.4309 137.159 56.2188 137.159C56.6733 137.159 57.1222 137.235 57.5653 137.386C58.0085 137.538 58.4119 137.784 58.7756 138.125C59.1392 138.462 59.429 138.909 59.6449 139.466C59.8608 140.023 59.9688 140.708 59.9688 141.523V142.091H53.2415V140.932H58.6051C58.6051 140.439 58.5066 140 58.3097 139.614C58.1165 139.227 57.84 138.922 57.4801 138.699C57.1241 138.475 56.7036 138.364 56.2188 138.364C55.6847 138.364 55.2225 138.496 54.8324 138.761C54.446 139.023 54.1487 139.364 53.9403 139.784C53.732 140.205 53.6278 140.655 53.6278 141.136V141.909C53.6278 142.568 53.7415 143.127 53.9688 143.585C54.1998 144.04 54.5199 144.386 54.929 144.625C55.3381 144.86 55.8134 144.977 56.3551 144.977C56.7074 144.977 57.0256 144.928 57.3097 144.83C57.5975 144.727 57.8456 144.576 58.054 144.375C58.2623 144.17 58.4233 143.917 58.5369 143.614L59.8324 143.977C59.696 144.417 59.4669 144.803 59.1449 145.136C58.8229 145.466 58.4252 145.723 57.9517 145.909C57.4782 146.091 56.946 146.182 56.3551 146.182ZM62.0085 146V137.273H63.304V138.591H63.3949C63.554 138.159 63.8419 137.809 64.2585 137.54C64.6752 137.271 65.1449 137.136 65.6676 137.136C65.7661 137.136 65.8892 137.138 66.0369 137.142C66.1847 137.146 66.2964 137.152 66.3722 137.159V138.523C66.3267 138.511 66.2225 138.494 66.0597 138.472C65.9006 138.445 65.732 138.432 65.554 138.432C65.1297 138.432 64.7509 138.521 64.4176 138.699C64.0881 138.873 63.8267 139.116 63.6335 139.426C63.4441 139.733 63.3494 140.083 63.3494 140.477V146H62.0085ZM71.2188 149.455C70.571 149.455 70.0142 149.371 69.5483 149.205C69.0824 149.042 68.6941 148.826 68.3835 148.557C68.0767 148.292 67.8324 148.008 67.6506 147.705L68.7188 146.955C68.84 147.114 68.9934 147.295 69.179 147.5C69.3646 147.708 69.6184 147.888 69.9403 148.04C70.2661 148.195 70.6922 148.273 71.2188 148.273C71.9233 148.273 72.5047 148.102 72.9631 147.761C73.4214 147.42 73.6506 146.886 73.6506 146.159V144.386H73.5369C73.4384 144.545 73.2983 144.742 73.1165 144.977C72.9384 145.208 72.6809 145.415 72.3438 145.597C72.0104 145.775 71.5597 145.864 70.9915 145.864C70.2869 145.864 69.6544 145.697 69.0938 145.364C68.5369 145.03 68.0956 144.545 67.7699 143.909C67.4479 143.273 67.2869 142.5 67.2869 141.591C67.2869 140.697 67.4441 139.919 67.7585 139.256C68.0729 138.589 68.5104 138.074 69.071 137.71C69.6316 137.343 70.2794 137.159 71.0142 137.159C71.5824 137.159 72.0331 137.254 72.3665 137.443C72.7036 137.629 72.9612 137.841 73.1392 138.08C73.321 138.314 73.4612 138.508 73.5597 138.659H73.696V137.273H74.9915V146.25C74.9915 147 74.821 147.61 74.4801 148.08C74.143 148.553 73.6884 148.9 73.1165 149.119C72.5483 149.343 71.9157 149.455 71.2188 149.455ZM71.1733 144.659C71.7112 144.659 72.1657 144.536 72.5369 144.29C72.9081 144.044 73.1903 143.689 73.3835 143.227C73.5767 142.765 73.6733 142.212 73.6733 141.568C73.6733 140.939 73.5786 140.384 73.3892 139.903C73.1998 139.422 72.9195 139.045 72.5483 138.773C72.1771 138.5 71.7188 138.364 71.1733 138.364C70.6051 138.364 70.1316 138.508 69.7528 138.795C69.3778 139.083 69.0956 139.47 68.9062 139.955C68.7206 140.439 68.6278 140.977 68.6278 141.568C68.6278 142.174 68.7225 142.71 68.9119 143.176C69.1051 143.638 69.3892 144.002 69.7642 144.267C70.143 144.528 70.6127 144.659 71.1733 144.659ZM81.1051 146.182C80.2642 146.182 79.5388 145.996 78.929 145.625C78.3229 145.25 77.8551 144.727 77.5256 144.057C77.1998 143.383 77.0369 142.598 77.0369 141.705C77.0369 140.811 77.1998 140.023 77.5256 139.341C77.8551 138.655 78.3134 138.121 78.9006 137.739C79.4915 137.352 80.1809 137.159 80.9688 137.159C81.4233 137.159 81.8722 137.235 82.3153 137.386C82.7585 137.538 83.1619 137.784 83.5256 138.125C83.8892 138.462 84.179 138.909 84.3949 139.466C84.6108 140.023 84.7188 140.708 84.7188 141.523V142.091H77.9915V140.932H83.3551C83.3551 140.439 83.2566 140 83.0597 139.614C82.8665 139.227 82.59 138.922 82.2301 138.699C81.8741 138.475 81.4536 138.364 80.9688 138.364C80.4347 138.364 79.9725 138.496 79.5824 138.761C79.196 139.023 78.8987 139.364 78.6903 139.784C78.482 140.205 78.3778 140.655 78.3778 141.136V141.909C78.3778 142.568 78.4915 143.127 78.7188 143.585C78.9498 144.04 79.2699 144.386 79.679 144.625C80.0881 144.86 80.5634 144.977 81.1051 144.977C81.4574 144.977 81.7756 144.928 82.0597 144.83C82.3475 144.727 82.5956 144.576 82.804 144.375C83.0123 144.17 83.1733 143.917 83.2869 143.614L84.5824 143.977C84.446 144.417 84.2169 144.803 83.8949 145.136C83.5729 145.466 83.1752 145.723 82.7017 145.909C82.2282 146.091 81.696 146.182 81.1051 146.182ZM88.0994 140.75V146H86.7585V137.273H88.054V138.636H88.1676C88.3722 138.193 88.6828 137.837 89.0994 137.568C89.5161 137.295 90.054 137.159 90.7131 137.159C91.304 137.159 91.821 137.28 92.2642 137.523C92.7074 137.761 93.0521 138.125 93.2983 138.614C93.5445 139.098 93.6676 139.712 93.6676 140.455V146H92.3267V140.545C92.3267 139.86 92.1487 139.326 91.7926 138.943C91.4366 138.557 90.9479 138.364 90.3267 138.364C89.8987 138.364 89.5161 138.456 89.179 138.642C88.8456 138.828 88.5824 139.098 88.3892 139.455C88.196 139.811 88.0994 140.242 88.0994 140.75ZM99.6634 146.182C98.8452 146.182 98.1406 145.989 97.5497 145.602C96.9588 145.216 96.5043 144.684 96.1861 144.006C95.8679 143.328 95.7088 142.553 95.7088 141.682C95.7088 140.795 95.8717 140.013 96.1974 139.335C96.527 138.653 96.9853 138.121 97.5724 137.739C98.1634 137.352 98.8527 137.159 99.6406 137.159C100.254 137.159 100.807 137.273 101.3 137.5C101.792 137.727 102.196 138.045 102.51 138.455C102.824 138.864 103.019 139.341 103.095 139.886H101.754C101.652 139.489 101.425 139.136 101.072 138.83C100.724 138.519 100.254 138.364 99.6634 138.364C99.1406 138.364 98.6823 138.5 98.2884 138.773C97.8982 139.042 97.5933 139.422 97.3736 139.915C97.1577 140.403 97.0497 140.977 97.0497 141.636C97.0497 142.311 97.1558 142.898 97.3679 143.398C97.5838 143.898 97.8868 144.286 98.277 144.562C98.6709 144.839 99.133 144.977 99.6634 144.977C100.012 144.977 100.328 144.917 100.612 144.795C100.896 144.674 101.137 144.5 101.334 144.273C101.531 144.045 101.671 143.773 101.754 143.455H103.095C103.019 143.97 102.832 144.434 102.533 144.847C102.237 145.256 101.845 145.581 101.357 145.824C100.872 146.062 100.307 146.182 99.6634 146.182ZM105.055 146V137.273H106.396V146H105.055ZM105.737 135.818C105.476 135.818 105.25 135.729 105.061 135.551C104.875 135.373 104.783 135.159 104.783 134.909C104.783 134.659 104.875 134.445 105.061 134.267C105.25 134.089 105.476 134 105.737 134C105.999 134 106.222 134.089 106.408 134.267C106.597 134.445 106.692 134.659 106.692 134.909C106.692 135.159 106.597 135.373 106.408 135.551C106.222 135.729 105.999 135.818 105.737 135.818ZM111.42 146.205C110.867 146.205 110.366 146.1 109.915 145.892C109.464 145.68 109.106 145.375 108.841 144.977C108.576 144.576 108.443 144.091 108.443 143.523C108.443 143.023 108.542 142.617 108.739 142.307C108.936 141.992 109.199 141.746 109.528 141.568C109.858 141.39 110.222 141.258 110.619 141.17C111.021 141.08 111.424 141.008 111.83 140.955C112.36 140.886 112.79 140.835 113.119 140.801C113.453 140.763 113.695 140.701 113.847 140.614C114.002 140.527 114.08 140.375 114.08 140.159V140.114C114.08 139.553 113.926 139.117 113.619 138.807C113.316 138.496 112.856 138.341 112.239 138.341C111.598 138.341 111.097 138.481 110.733 138.761C110.369 139.042 110.114 139.341 109.966 139.659L108.693 139.205C108.92 138.674 109.223 138.261 109.602 137.966C109.985 137.667 110.402 137.458 110.852 137.341C111.307 137.22 111.754 137.159 112.193 137.159C112.473 137.159 112.795 137.193 113.159 137.261C113.527 137.326 113.881 137.46 114.222 137.665C114.566 137.869 114.852 138.178 115.08 138.591C115.307 139.004 115.42 139.557 115.42 140.25V146H114.08V144.818H114.011C113.92 145.008 113.769 145.21 113.557 145.426C113.345 145.642 113.063 145.826 112.71 145.977C112.358 146.129 111.928 146.205 111.42 146.205ZM111.625 145C112.155 145 112.602 144.896 112.966 144.688C113.333 144.479 113.61 144.21 113.795 143.881C113.985 143.551 114.08 143.205 114.08 142.841V141.614C114.023 141.682 113.898 141.744 113.705 141.801C113.515 141.854 113.295 141.902 113.045 141.943C112.799 141.981 112.559 142.015 112.324 142.045C112.093 142.072 111.905 142.095 111.761 142.114C111.413 142.159 111.087 142.233 110.784 142.335C110.485 142.434 110.242 142.583 110.057 142.784C109.875 142.981 109.784 143.25 109.784 143.591C109.784 144.057 109.956 144.409 110.301 144.648C110.65 144.883 111.091 145 111.625 145ZM124.05 139.227L122.845 139.568C122.769 139.367 122.658 139.172 122.51 138.983C122.366 138.79 122.169 138.631 121.919 138.506C121.669 138.381 121.349 138.318 120.959 138.318C120.425 138.318 119.98 138.441 119.624 138.688C119.271 138.93 119.095 139.239 119.095 139.614C119.095 139.947 119.216 140.21 119.459 140.403C119.701 140.597 120.08 140.758 120.595 140.886L121.891 141.205C122.671 141.394 123.252 141.684 123.635 142.074C124.018 142.46 124.209 142.958 124.209 143.568C124.209 144.068 124.065 144.515 123.777 144.909C123.493 145.303 123.095 145.614 122.584 145.841C122.072 146.068 121.478 146.182 120.8 146.182C119.91 146.182 119.173 145.989 118.589 145.602C118.006 145.216 117.637 144.652 117.482 143.909L118.754 143.591C118.875 144.061 119.105 144.413 119.442 144.648C119.783 144.883 120.228 145 120.777 145C121.402 145 121.898 144.867 122.266 144.602C122.637 144.333 122.822 144.011 122.822 143.636C122.822 143.333 122.716 143.08 122.504 142.875C122.292 142.667 121.966 142.511 121.527 142.409L120.072 142.068C119.273 141.879 118.686 141.585 118.311 141.188C117.94 140.786 117.754 140.284 117.754 139.682C117.754 139.189 117.893 138.754 118.169 138.375C118.449 137.996 118.83 137.699 119.311 137.483C119.796 137.267 120.345 137.159 120.959 137.159C121.822 137.159 122.5 137.348 122.993 137.727C123.489 138.106 123.841 138.606 124.05 139.227ZM134.653 134.205C135.252 134.205 135.828 134.305 136.381 134.506C136.938 134.706 137.434 135.027 137.869 135.466C138.309 135.905 138.655 136.489 138.909 137.216C139.167 137.939 139.297 138.828 139.301 139.881C139.301 140.869 139.189 141.752 138.966 142.528C138.746 143.301 138.43 143.958 138.017 144.5C137.604 145.042 137.106 145.455 136.523 145.739C135.939 146.019 135.288 146.159 134.568 146.159C133.792 146.159 133.106 146.009 132.511 145.71C131.917 145.407 131.438 144.996 131.074 144.477C130.714 143.955 130.496 143.367 130.42 142.716H132.847C132.941 143.14 133.14 143.47 133.443 143.705C133.746 143.936 134.121 144.051 134.568 144.051C135.326 144.051 135.902 143.722 136.295 143.062C136.689 142.4 136.888 141.492 136.892 140.341H136.812C136.638 140.682 136.403 140.975 136.108 141.222C135.813 141.464 135.473 141.652 135.091 141.784C134.712 141.917 134.309 141.983 133.881 141.983C133.195 141.983 132.583 141.822 132.045 141.5C131.508 141.178 131.083 140.735 130.773 140.17C130.462 139.606 130.307 138.962 130.307 138.239C130.303 137.458 130.483 136.763 130.847 136.153C131.21 135.544 131.718 135.066 132.369 134.722C133.025 134.373 133.786 134.201 134.653 134.205ZM134.67 136.136C134.288 136.136 133.947 136.227 133.648 136.409C133.352 136.591 133.117 136.835 132.943 137.142C132.773 137.449 132.689 137.792 132.693 138.17C132.693 138.553 132.777 138.898 132.943 139.205C133.114 139.508 133.345 139.75 133.636 139.932C133.932 140.11 134.269 140.199 134.648 140.199C134.932 140.199 135.195 140.146 135.438 140.04C135.68 139.934 135.89 139.788 136.068 139.602C136.25 139.413 136.392 139.195 136.494 138.949C136.597 138.703 136.648 138.441 136.648 138.165C136.644 137.797 136.557 137.46 136.386 137.153C136.216 136.847 135.981 136.6 135.682 136.415C135.383 136.229 135.045 136.136 134.67 136.136ZM146.068 134.364V146H143.608V136.699H143.54L140.875 138.369V136.188L143.756 134.364H146.068ZM153.896 134.364V146H151.436V136.699H151.368L148.703 138.369V136.188L151.584 134.364H153.896ZM38.7727 170H37.3636C37.2803 169.595 37.1345 169.239 36.9261 168.932C36.7216 168.625 36.4716 168.367 36.1761 168.159C35.8845 167.947 35.5606 167.788 35.2045 167.682C34.8485 167.576 34.4773 167.523 34.0909 167.523C33.3864 167.523 32.7481 167.701 32.1761 168.057C31.608 168.413 31.1553 168.938 30.8182 169.631C30.4848 170.324 30.3182 171.174 30.3182 172.182C30.3182 173.189 30.4848 174.04 30.8182 174.733C31.1553 175.426 31.608 175.951 32.1761 176.307C32.7481 176.663 33.3864 176.841 34.0909 176.841C34.4773 176.841 34.8485 176.788 35.2045 176.682C35.5606 176.576 35.8845 176.419 36.1761 176.21C36.4716 175.998 36.7216 175.739 36.9261 175.432C37.1345 175.121 37.2803 174.765 37.3636 174.364H38.7727C38.6667 174.958 38.4735 175.491 38.1932 175.96C37.9129 176.43 37.5644 176.83 37.1477 177.159C36.7311 177.485 36.2633 177.733 35.7443 177.903C35.2292 178.074 34.678 178.159 34.0909 178.159C33.0985 178.159 32.2159 177.917 31.4432 177.432C30.6705 176.947 30.0625 176.258 29.6193 175.364C29.1761 174.47 28.9545 173.409 28.9545 172.182C28.9545 170.955 29.1761 169.894 29.6193 169C30.0625 168.106 30.6705 167.417 31.4432 166.932C32.2159 166.447 33.0985 166.205 34.0909 166.205C34.678 166.205 35.2292 166.29 35.7443 166.46C36.2633 166.631 36.7311 166.881 37.1477 167.21C37.5644 167.536 37.9129 167.934 38.1932 168.403C38.4735 168.869 38.6667 169.402 38.7727 170ZM40.8679 178V169.273H42.1634V170.591H42.2543C42.4134 170.159 42.7012 169.809 43.1179 169.54C43.5346 169.271 44.0043 169.136 44.527 169.136C44.6255 169.136 44.7486 169.138 44.8963 169.142C45.044 169.146 45.1558 169.152 45.2315 169.159V170.523C45.1861 170.511 45.0819 170.494 44.919 170.472C44.7599 170.445 44.5914 170.432 44.4134 170.432C43.9891 170.432 43.6103 170.521 43.277 170.699C42.9474 170.873 42.6861 171.116 42.4929 171.426C42.3035 171.733 42.2088 172.083 42.2088 172.477V178H40.8679ZM46.821 178V169.273H48.1619V178H46.821ZM47.5028 167.818C47.2415 167.818 47.0161 167.729 46.8267 167.551C46.6411 167.373 46.5483 167.159 46.5483 166.909C46.5483 166.659 46.6411 166.445 46.8267 166.267C47.0161 166.089 47.2415 166 47.5028 166C47.7642 166 47.9877 166.089 48.1733 166.267C48.3627 166.445 48.4574 166.659 48.4574 166.909C48.4574 167.159 48.3627 167.373 48.1733 167.551C47.9877 167.729 47.7642 167.818 47.5028 167.818ZM50.6179 178V169.273H51.9134V170.636H52.027C52.2088 170.17 52.5024 169.809 52.9077 169.551C53.313 169.29 53.7997 169.159 54.3679 169.159C54.9437 169.159 55.4228 169.29 55.8054 169.551C56.1918 169.809 56.4929 170.17 56.7088 170.636H56.7997C57.0232 170.186 57.3584 169.828 57.8054 169.562C58.2524 169.294 58.7884 169.159 59.4134 169.159C60.1937 169.159 60.8319 169.403 61.3281 169.892C61.8243 170.377 62.0724 171.133 62.0724 172.159V178H60.7315V172.159C60.7315 171.515 60.5554 171.055 60.2031 170.778C59.8509 170.502 59.4361 170.364 58.9588 170.364C58.3452 170.364 57.8698 170.549 57.5327 170.92C57.1955 171.288 57.027 171.754 57.027 172.318V178H55.6634V172.023C55.6634 171.527 55.5024 171.127 55.1804 170.824C54.8584 170.517 54.4437 170.364 53.9361 170.364C53.5876 170.364 53.2618 170.456 52.9588 170.642C52.6596 170.828 52.4171 171.085 52.2315 171.415C52.0497 171.741 51.9588 172.117 51.9588 172.545V178H50.6179ZM68.1832 178.182C67.3423 178.182 66.617 177.996 66.0071 177.625C65.401 177.25 64.9332 176.727 64.6037 176.057C64.2779 175.383 64.1151 174.598 64.1151 173.705C64.1151 172.811 64.2779 172.023 64.6037 171.341C64.9332 170.655 65.3916 170.121 65.9787 169.739C66.5696 169.352 67.259 169.159 68.0469 169.159C68.5014 169.159 68.9503 169.235 69.3935 169.386C69.8366 169.538 70.2401 169.784 70.6037 170.125C70.9673 170.462 71.2571 170.909 71.473 171.466C71.6889 172.023 71.7969 172.708 71.7969 173.523V174.091H65.0696V172.932H70.4332C70.4332 172.439 70.3348 172 70.1378 171.614C69.9446 171.227 69.6681 170.922 69.3082 170.699C68.9522 170.475 68.5317 170.364 68.0469 170.364C67.5128 170.364 67.0507 170.496 66.6605 170.761C66.2741 171.023 65.9768 171.364 65.7685 171.784C65.5601 172.205 65.456 172.655 65.456 173.136V173.909C65.456 174.568 65.5696 175.127 65.7969 175.585C66.0279 176.04 66.348 176.386 66.7571 176.625C67.1662 176.86 67.6416 176.977 68.1832 176.977C68.5355 176.977 68.8537 176.928 69.1378 176.83C69.4257 176.727 69.6738 176.576 69.8821 176.375C70.0904 176.17 70.2514 175.917 70.3651 175.614L71.6605 175.977C71.5241 176.417 71.295 176.803 70.973 177.136C70.651 177.466 70.2533 177.723 69.7798 177.909C69.3063 178.091 68.7741 178.182 68.1832 178.182ZM84.8821 169.273C84.8139 168.697 84.5374 168.25 84.0526 167.932C83.5677 167.614 82.973 167.455 82.2685 167.455C81.7533 167.455 81.3026 167.538 80.9162 167.705C80.5336 167.871 80.2344 168.1 80.0185 168.392C79.8063 168.684 79.7003 169.015 79.7003 169.386C79.7003 169.697 79.7741 169.964 79.9219 170.188C80.0734 170.407 80.2666 170.591 80.5014 170.739C80.7363 170.883 80.9825 171.002 81.2401 171.097C81.4976 171.187 81.7344 171.261 81.9503 171.318L83.1321 171.636C83.4351 171.716 83.7723 171.826 84.1435 171.966C84.5185 172.106 84.8764 172.297 85.2173 172.54C85.562 172.778 85.8461 173.085 86.0696 173.46C86.2931 173.835 86.4048 174.295 86.4048 174.841C86.4048 175.47 86.2401 176.038 85.9105 176.545C85.5848 177.053 85.1075 177.456 84.4787 177.756C83.8537 178.055 83.0942 178.205 82.2003 178.205C81.367 178.205 80.6454 178.07 80.0355 177.801C79.4295 177.532 78.9522 177.157 78.6037 176.676C78.259 176.195 78.0639 175.636 78.0185 175H79.473C79.5109 175.439 79.6586 175.803 79.9162 176.091C80.1776 176.375 80.5071 176.587 80.9048 176.727C81.3063 176.864 81.7382 176.932 82.2003 176.932C82.7382 176.932 83.2211 176.845 83.6491 176.67C84.0772 176.492 84.4162 176.246 84.6662 175.932C84.9162 175.614 85.0412 175.242 85.0412 174.818C85.0412 174.432 84.9332 174.117 84.7173 173.875C84.5014 173.633 84.2173 173.436 83.8651 173.284C83.5128 173.133 83.1321 173 82.723 172.886L81.2912 172.477C80.3821 172.216 79.6624 171.843 79.1321 171.358C78.6018 170.873 78.3366 170.239 78.3366 169.455C78.3366 168.803 78.5128 168.235 78.8651 167.75C79.2211 167.261 79.6984 166.883 80.2969 166.614C80.8991 166.341 81.5715 166.205 82.3139 166.205C83.0639 166.205 83.7306 166.339 84.3139 166.608C84.8973 166.873 85.3594 167.237 85.7003 167.699C86.045 168.161 86.2268 168.686 86.2457 169.273H84.8821ZM92.3352 169.273V170.409H87.8125V169.273H92.3352ZM89.1307 167.182H90.4716V175.5C90.4716 175.879 90.5265 176.163 90.6364 176.352C90.75 176.538 90.8939 176.663 91.0682 176.727C91.2462 176.788 91.4337 176.818 91.6307 176.818C91.7784 176.818 91.8996 176.811 91.9943 176.795C92.089 176.777 92.1648 176.761 92.2216 176.75L92.4943 177.955C92.4034 177.989 92.2765 178.023 92.1136 178.057C91.9508 178.095 91.7443 178.114 91.4943 178.114C91.1155 178.114 90.7443 178.032 90.3807 177.869C90.0208 177.706 89.7216 177.458 89.483 177.125C89.2481 176.792 89.1307 176.371 89.1307 175.864V167.182ZM97.804 178.182C97.0161 178.182 96.3248 177.994 95.7301 177.619C95.1392 177.244 94.6771 176.72 94.3438 176.045C94.0142 175.371 93.8494 174.583 93.8494 173.682C93.8494 172.773 94.0142 171.979 94.3438 171.301C94.6771 170.623 95.1392 170.097 95.7301 169.722C96.3248 169.347 97.0161 169.159 97.804 169.159C98.5919 169.159 99.2813 169.347 99.8722 169.722C100.467 170.097 100.929 170.623 101.259 171.301C101.592 171.979 101.759 172.773 101.759 173.682C101.759 174.583 101.592 175.371 101.259 176.045C100.929 176.72 100.467 177.244 99.8722 177.619C99.2813 177.994 98.5919 178.182 97.804 178.182ZM97.804 176.977C98.4025 176.977 98.8949 176.824 99.2812 176.517C99.6676 176.21 99.9536 175.807 100.139 175.307C100.325 174.807 100.418 174.265 100.418 173.682C100.418 173.098 100.325 172.555 100.139 172.051C99.9536 171.547 99.6676 171.14 99.2812 170.83C98.8949 170.519 98.4025 170.364 97.804 170.364C97.2055 170.364 96.7131 170.519 96.3267 170.83C95.9403 171.14 95.6544 171.547 95.4688 172.051C95.2831 172.555 95.1903 173.098 95.1903 173.682C95.1903 174.265 95.2831 174.807 95.4688 175.307C95.6544 175.807 95.9403 176.21 96.3267 176.517C96.7131 176.824 97.2055 176.977 97.804 176.977ZM103.805 181.273V169.273H105.101V170.659H105.26C105.358 170.508 105.495 170.314 105.669 170.08C105.847 169.841 106.101 169.629 106.43 169.443C106.764 169.254 107.214 169.159 107.783 169.159C108.518 169.159 109.165 169.343 109.726 169.71C110.286 170.078 110.724 170.598 111.038 171.273C111.353 171.947 111.51 172.742 111.51 173.659C111.51 174.583 111.353 175.384 111.038 176.062C110.724 176.737 110.288 177.259 109.732 177.631C109.175 177.998 108.533 178.182 107.805 178.182C107.245 178.182 106.796 178.089 106.459 177.903C106.122 177.714 105.862 177.5 105.68 177.261C105.499 177.019 105.358 176.818 105.26 176.659H105.146V181.273H103.805ZM105.124 173.636C105.124 174.295 105.22 174.877 105.413 175.381C105.607 175.881 105.889 176.273 106.26 176.557C106.631 176.837 107.086 176.977 107.624 176.977C108.184 176.977 108.652 176.83 109.027 176.534C109.406 176.235 109.69 175.833 109.879 175.33C110.072 174.822 110.169 174.258 110.169 173.636C110.169 173.023 110.074 172.47 109.885 171.977C109.699 171.481 109.417 171.089 109.038 170.801C108.663 170.509 108.192 170.364 107.624 170.364C107.078 170.364 106.62 170.502 106.249 170.778C105.877 171.051 105.597 171.434 105.408 171.926C105.218 172.415 105.124 172.985 105.124 173.636ZM113.555 181.273V169.273H114.851V170.659H115.01C115.108 170.508 115.245 170.314 115.419 170.08C115.597 169.841 115.851 169.629 116.18 169.443C116.514 169.254 116.964 169.159 117.533 169.159C118.268 169.159 118.915 169.343 119.476 169.71C120.036 170.078 120.474 170.598 120.788 171.273C121.103 171.947 121.26 172.742 121.26 173.659C121.26 174.583 121.103 175.384 120.788 176.062C120.474 176.737 120.038 177.259 119.482 177.631C118.925 177.998 118.283 178.182 117.555 178.182C116.995 178.182 116.546 178.089 116.209 177.903C115.872 177.714 115.612 177.5 115.43 177.261C115.249 177.019 115.108 176.818 115.01 176.659H114.896V181.273H113.555ZM114.874 173.636C114.874 174.295 114.97 174.877 115.163 175.381C115.357 175.881 115.639 176.273 116.01 176.557C116.381 176.837 116.836 176.977 117.374 176.977C117.934 176.977 118.402 176.83 118.777 176.534C119.156 176.235 119.44 175.833 119.629 175.33C119.822 174.822 119.919 174.258 119.919 173.636C119.919 173.023 119.824 172.47 119.635 171.977C119.449 171.481 119.167 171.089 118.788 170.801C118.413 170.509 117.942 170.364 117.374 170.364C116.828 170.364 116.37 170.502 115.999 170.778C115.627 171.051 115.347 171.434 115.158 171.926C114.968 172.415 114.874 172.985 114.874 173.636ZM126.964 178.182C126.124 178.182 125.398 177.996 124.788 177.625C124.182 177.25 123.714 176.727 123.385 176.057C123.059 175.383 122.896 174.598 122.896 173.705C122.896 172.811 123.059 172.023 123.385 171.341C123.714 170.655 124.173 170.121 124.76 169.739C125.351 169.352 126.04 169.159 126.828 169.159C127.283 169.159 127.732 169.235 128.175 169.386C128.618 169.538 129.021 169.784 129.385 170.125C129.749 170.462 130.038 170.909 130.254 171.466C130.47 172.023 130.578 172.708 130.578 173.523V174.091H123.851V172.932H129.214C129.214 172.439 129.116 172 128.919 171.614C128.726 171.227 128.449 170.922 128.089 170.699C127.733 170.475 127.313 170.364 126.828 170.364C126.294 170.364 125.832 170.496 125.442 170.761C125.055 171.023 124.758 171.364 124.55 171.784C124.341 172.205 124.237 172.655 124.237 173.136V173.909C124.237 174.568 124.351 175.127 124.578 175.585C124.809 176.04 125.129 176.386 125.538 176.625C125.947 176.86 126.423 176.977 126.964 176.977C127.317 176.977 127.635 176.928 127.919 176.83C128.207 176.727 128.455 176.576 128.663 176.375C128.872 176.17 129.033 175.917 129.146 175.614L130.442 175.977C130.305 176.417 130.076 176.803 129.754 177.136C129.432 177.466 129.035 177.723 128.561 177.909C128.088 178.091 127.555 178.182 126.964 178.182ZM132.618 178V169.273H133.913V170.591H134.004C134.163 170.159 134.451 169.809 134.868 169.54C135.285 169.271 135.754 169.136 136.277 169.136C136.375 169.136 136.499 169.138 136.646 169.142C136.794 169.146 136.906 169.152 136.982 169.159V170.523C136.936 170.511 136.832 170.494 136.669 170.472C136.51 170.445 136.341 170.432 136.163 170.432C135.739 170.432 135.36 170.521 135.027 170.699C134.697 170.873 134.436 171.116 134.243 171.426C134.054 171.733 133.959 172.083 133.959 172.477V178H132.618ZM144.753 171.227L143.548 171.568C143.473 171.367 143.361 171.172 143.213 170.983C143.069 170.79 142.872 170.631 142.622 170.506C142.372 170.381 142.052 170.318 141.662 170.318C141.128 170.318 140.683 170.441 140.327 170.688C139.974 170.93 139.798 171.239 139.798 171.614C139.798 171.947 139.92 172.21 140.162 172.403C140.404 172.597 140.783 172.758 141.298 172.886L142.594 173.205C143.374 173.394 143.955 173.684 144.338 174.074C144.721 174.46 144.912 174.958 144.912 175.568C144.912 176.068 144.768 176.515 144.48 176.909C144.196 177.303 143.798 177.614 143.287 177.841C142.776 178.068 142.181 178.182 141.503 178.182C140.613 178.182 139.876 177.989 139.293 177.602C138.709 177.216 138.34 176.652 138.185 175.909L139.457 175.591C139.579 176.061 139.808 176.413 140.145 176.648C140.486 176.883 140.931 177 141.48 177C142.105 177 142.601 176.867 142.969 176.602C143.34 176.333 143.526 176.011 143.526 175.636C143.526 175.333 143.42 175.08 143.207 174.875C142.995 174.667 142.67 174.511 142.23 174.409L140.776 174.068C139.976 173.879 139.389 173.585 139.014 173.188C138.643 172.786 138.457 172.284 138.457 171.682C138.457 171.189 138.596 170.754 138.872 170.375C139.152 169.996 139.533 169.699 140.014 169.483C140.499 169.267 141.048 169.159 141.662 169.159C142.526 169.159 143.204 169.348 143.696 169.727C144.192 170.106 144.545 170.606 144.753 171.227ZM151.612 178V166.364H155.68C156.491 166.364 157.16 166.504 157.686 166.784C158.213 167.061 158.605 167.434 158.862 167.903C159.12 168.369 159.249 168.886 159.249 169.455C159.249 169.955 159.16 170.367 158.982 170.693C158.807 171.019 158.576 171.277 158.288 171.466C158.004 171.655 157.696 171.795 157.362 171.886V172C157.718 172.023 158.076 172.148 158.436 172.375C158.796 172.602 159.097 172.928 159.339 173.352C159.582 173.777 159.703 174.295 159.703 174.909C159.703 175.492 159.571 176.017 159.305 176.483C159.04 176.949 158.622 177.318 158.05 177.591C157.478 177.864 156.733 178 155.817 178H151.612ZM153.021 176.75H155.817C156.737 176.75 157.391 176.572 157.777 176.216C158.167 175.856 158.362 175.42 158.362 174.909C158.362 174.515 158.262 174.152 158.061 173.818C157.86 173.481 157.574 173.212 157.203 173.011C156.832 172.807 156.393 172.705 155.885 172.705H153.021V176.75ZM153.021 171.477H155.635C156.059 171.477 156.442 171.394 156.783 171.227C157.127 171.061 157.4 170.826 157.601 170.523C157.805 170.22 157.908 169.864 157.908 169.455C157.908 168.943 157.73 168.509 157.374 168.153C157.018 167.794 156.453 167.614 155.68 167.614H153.021V171.477ZM165.496 178.182C164.655 178.182 163.929 177.996 163.32 177.625C162.714 177.25 162.246 176.727 161.916 176.057C161.59 175.383 161.428 174.598 161.428 173.705C161.428 172.811 161.59 172.023 161.916 171.341C162.246 170.655 162.704 170.121 163.291 169.739C163.882 169.352 164.571 169.159 165.359 169.159C165.814 169.159 166.263 169.235 166.706 169.386C167.149 169.538 167.553 169.784 167.916 170.125C168.28 170.462 168.57 170.909 168.786 171.466C169.001 172.023 169.109 172.708 169.109 173.523V174.091H162.382V172.932H167.746C167.746 172.439 167.647 172 167.45 171.614C167.257 171.227 166.981 170.922 166.621 170.699C166.265 170.475 165.844 170.364 165.359 170.364C164.825 170.364 164.363 170.496 163.973 170.761C163.587 171.023 163.289 171.364 163.081 171.784C162.873 172.205 162.768 172.655 162.768 173.136V173.909C162.768 174.568 162.882 175.127 163.109 175.585C163.34 176.04 163.661 176.386 164.07 176.625C164.479 176.86 164.954 176.977 165.496 176.977C165.848 176.977 166.166 176.928 166.45 176.83C166.738 176.727 166.986 176.576 167.195 176.375C167.403 176.17 167.564 175.917 167.678 175.614L168.973 175.977C168.837 176.417 168.607 176.803 168.286 177.136C167.964 177.466 167.566 177.723 167.092 177.909C166.619 178.091 166.087 178.182 165.496 178.182ZM172.49 166.364V178H171.149V166.364H172.49ZM174.946 178V169.273H176.287V178H174.946ZM175.628 167.818C175.366 167.818 175.141 167.729 174.952 167.551C174.766 167.373 174.673 167.159 174.673 166.909C174.673 166.659 174.766 166.445 174.952 166.267C175.141 166.089 175.366 166 175.628 166C175.889 166 176.113 166.089 176.298 166.267C176.488 166.445 176.582 166.659 176.582 166.909C176.582 167.159 176.488 167.373 176.298 167.551C176.113 167.729 175.889 167.818 175.628 167.818ZM178.493 178V176.977L183.447 170.614V170.523H178.652V169.273H185.175V170.341L180.357 176.659V176.75H185.334V178H178.493ZM190.808 178.182C189.967 178.182 189.242 177.996 188.632 177.625C188.026 177.25 187.558 176.727 187.229 176.057C186.903 175.383 186.74 174.598 186.74 173.705C186.74 172.811 186.903 172.023 187.229 171.341C187.558 170.655 188.017 170.121 188.604 169.739C189.195 169.352 189.884 169.159 190.672 169.159C191.126 169.159 191.575 169.235 192.018 169.386C192.462 169.538 192.865 169.784 193.229 170.125C193.592 170.462 193.882 170.909 194.098 171.466C194.314 172.023 194.422 172.708 194.422 173.523V174.091H187.695V172.932H193.058C193.058 172.439 192.96 172 192.763 171.614C192.57 171.227 192.293 170.922 191.933 170.699C191.577 170.475 191.157 170.364 190.672 170.364C190.138 170.364 189.676 170.496 189.286 170.761C188.899 171.023 188.602 171.364 188.393 171.784C188.185 172.205 188.081 172.655 188.081 173.136V173.909C188.081 174.568 188.195 175.127 188.422 175.585C188.653 176.04 188.973 176.386 189.382 176.625C189.791 176.86 190.267 176.977 190.808 176.977C191.161 176.977 191.479 176.928 191.763 176.83C192.051 176.727 192.299 176.576 192.507 176.375C192.715 176.17 192.876 175.917 192.99 175.614L194.286 175.977C194.149 176.417 193.92 176.803 193.598 177.136C193.276 177.466 192.878 177.723 192.405 177.909C191.931 178.091 191.399 178.182 190.808 178.182ZM204.888 166.205C205.486 166.205 206.062 166.305 206.615 166.506C207.172 166.706 207.668 167.027 208.104 167.466C208.543 167.905 208.89 168.489 209.143 169.216C209.401 169.939 209.532 170.828 209.536 171.881C209.536 172.869 209.424 173.752 209.2 174.528C208.981 175.301 208.664 175.958 208.251 176.5C207.839 177.042 207.34 177.455 206.757 177.739C206.174 178.019 205.522 178.159 204.803 178.159C204.026 178.159 203.34 178.009 202.746 177.71C202.151 177.407 201.672 176.996 201.308 176.477C200.948 175.955 200.731 175.367 200.655 174.716H203.081C203.176 175.14 203.375 175.47 203.678 175.705C203.981 175.936 204.356 176.051 204.803 176.051C205.56 176.051 206.136 175.722 206.53 175.062C206.924 174.4 207.123 173.492 207.126 172.341H207.047C206.873 172.682 206.638 172.975 206.342 173.222C206.047 173.464 205.708 173.652 205.325 173.784C204.946 173.917 204.543 173.983 204.115 173.983C203.429 173.983 202.818 173.822 202.28 173.5C201.742 173.178 201.318 172.735 201.007 172.17C200.696 171.606 200.541 170.962 200.541 170.239C200.537 169.458 200.717 168.763 201.081 168.153C201.445 167.544 201.952 167.066 202.604 166.722C203.259 166.373 204.02 166.201 204.888 166.205ZM204.905 168.136C204.522 168.136 204.181 168.227 203.882 168.409C203.587 168.591 203.352 168.835 203.178 169.142C203.007 169.449 202.924 169.792 202.928 170.17C202.928 170.553 203.011 170.898 203.178 171.205C203.348 171.508 203.579 171.75 203.871 171.932C204.166 172.11 204.503 172.199 204.882 172.199C205.166 172.199 205.429 172.146 205.672 172.04C205.914 171.934 206.125 171.788 206.303 171.602C206.484 171.413 206.626 171.195 206.729 170.949C206.831 170.703 206.882 170.441 206.882 170.165C206.878 169.797 206.791 169.46 206.621 169.153C206.45 168.847 206.215 168.6 205.916 168.415C205.617 168.229 205.28 168.136 204.905 168.136ZM211.24 178V176.227L215.382 172.392C215.734 172.051 216.03 171.744 216.268 171.472C216.511 171.199 216.695 170.932 216.82 170.67C216.945 170.405 217.007 170.119 217.007 169.812C217.007 169.472 216.929 169.178 216.774 168.932C216.619 168.682 216.407 168.491 216.138 168.358C215.869 168.222 215.564 168.153 215.223 168.153C214.867 168.153 214.556 168.225 214.291 168.369C214.026 168.513 213.821 168.72 213.678 168.989C213.534 169.258 213.462 169.578 213.462 169.949H211.126C211.126 169.187 211.299 168.527 211.643 167.966C211.988 167.405 212.471 166.972 213.092 166.665C213.714 166.358 214.429 166.205 215.24 166.205C216.073 166.205 216.799 166.352 217.416 166.648C218.037 166.939 218.52 167.345 218.865 167.864C219.21 168.383 219.382 168.977 219.382 169.648C219.382 170.087 219.295 170.521 219.121 170.949C218.95 171.377 218.645 171.852 218.206 172.375C217.767 172.894 217.147 173.517 216.348 174.244L214.649 175.909V175.989H219.536V178H211.24ZM221.318 178V176.227L225.46 172.392C225.813 172.051 226.108 171.744 226.347 171.472C226.589 171.199 226.773 170.932 226.898 170.67C227.023 170.405 227.085 170.119 227.085 169.812C227.085 169.472 227.008 169.178 226.852 168.932C226.697 168.682 226.485 168.491 226.216 168.358C225.947 168.222 225.642 168.153 225.301 168.153C224.945 168.153 224.634 168.225 224.369 168.369C224.104 168.513 223.9 168.72 223.756 168.989C223.612 169.258 223.54 169.578 223.54 169.949H221.205C221.205 169.187 221.377 168.527 221.722 167.966C222.066 167.405 222.549 166.972 223.17 166.665C223.792 166.358 224.508 166.205 225.318 166.205C226.152 166.205 226.877 166.352 227.494 166.648C228.116 166.939 228.598 167.345 228.943 167.864C229.288 168.383 229.46 168.977 229.46 169.648C229.46 170.087 229.373 170.521 229.199 170.949C229.028 171.377 228.723 171.852 228.284 172.375C227.845 172.894 227.225 173.517 226.426 174.244L224.727 175.909V175.989H229.614V178H221.318Z" fill="#333333"/>
<path d="M129.5 149.182H155.72V150.273H129.5V149.182ZM199.734 181.182H230.455V182.273H199.734V181.182Z" fill="#333333"/>
<path d="M35.08 210.4H31.84V214.6H35.08V218.2H31.84V222.4H35.08V226H28.24V206.8H35.08V210.4ZM42.7285 206.8H46.3285V226H42.7285L39.6325 216.52V226H36.0325V206.8H39.6325L42.7285 216.28V206.8ZM55.8377 206.8V210.4H53.3657V226H49.7657V210.4H47.2937V206.8H55.8377ZM56.7972 206.8H60.3972V226H56.7972V206.8ZM64.9553 206.8C69.0593 206.8 70.4273 208.168 70.4273 212.032V220.768C70.4273 224.584 69.0593 226 64.9553 226H61.3553V206.8H64.9553ZM64.9553 222.4C66.3473 222.4 66.8273 222.16 66.8273 220.768V212.032C66.8273 210.64 66.3473 210.4 64.9553 210.4V222.4ZM76.9531 226L76.6891 222.736H74.7931L74.5291 226H70.9291L73.2811 206.8H78.2011L80.5531 226H76.9531ZM75.0811 219.136H76.4011L75.7531 210.616L75.0811 219.136ZM84.8763 206.8C88.9803 206.8 90.3483 208.168 90.3483 212.032V220.768C90.3483 224.584 88.9803 226 84.8763 226H81.2763V206.8H84.8763ZM84.8763 222.4C86.2683 222.4 86.7483 222.16 86.7483 220.768V212.032C86.7483 210.64 86.2683 210.4 84.8763 210.4V222.4ZM104.222 224.296C104.222 225.016 104.246 225.712 104.486 226H100.886C100.646 225.712 100.622 225.016 100.622 224.296V220.6C100.622 219.208 100.142 218.968 98.7503 218.968V226H95.1503V206.8H98.7503C102.854 206.8 104.222 208.168 104.222 212.032V213.736C104.222 215.848 103.574 217.216 102.446 218.032C103.67 218.536 104.222 219.52 104.222 221.32V224.296ZM100.622 212.032C100.622 210.64 100.142 210.4 98.7503 210.4V215.368C100.142 215.368 100.622 215.128 100.622 213.736V212.032ZM112.056 210.4H108.816V214.6H112.056V218.2H108.816V222.4H112.056V226H105.216V206.8H112.056V210.4ZM118.577 214.528C120.593 216.064 122.033 217.384 122.033 221.008C122.033 224.392 120.761 226.24 117.617 226.24C114.473 226.24 113.009 224.872 113.009 219.328H116.609C116.609 222.16 116.945 222.64 117.617 222.64C118.289 222.64 118.433 222.16 118.433 221.008C118.433 219.616 118.193 219.04 116.609 217.744C114.857 216.328 113.009 215.176 113.009 211.552C113.009 208.408 114.329 206.56 117.353 206.56C120.377 206.56 121.793 208.408 121.793 212.512H118.193C118.193 210.64 117.905 210.16 117.353 210.16C116.801 210.16 116.609 210.64 116.609 211.552C116.609 212.944 117.233 213.496 118.577 214.528ZM126.604 206.8C130.708 206.8 132.076 208.168 132.076 212.032V214.456C132.076 218.272 130.708 219.616 126.604 219.688V226H123.004V206.8H126.604ZM126.604 216.088C127.996 216.088 128.476 215.848 128.476 214.456V212.032C128.476 210.64 127.996 210.4 126.604 210.4V216.088ZM137.559 206.56C140.463 206.56 142.071 208.168 142.071 212.032V220.768C142.071 224.632 140.463 226.24 137.559 226.24C134.655 226.24 133.047 224.632 133.047 220.768V212.032C133.047 208.168 134.655 206.56 137.559 206.56ZM138.471 220.528V212.272C138.471 210.64 138.351 210.16 137.559 210.16C136.767 210.16 136.647 210.64 136.647 212.272V220.528C136.647 222.16 136.767 222.64 137.559 222.64C138.351 222.64 138.471 222.16 138.471 220.528ZM149.738 206.8H153.338V226H149.738L146.642 216.52V226H143.042V206.8H146.642L149.738 216.28V206.8ZM159.872 214.528C161.888 216.064 163.328 217.384 163.328 221.008C163.328 224.392 162.056 226.24 158.912 226.24C155.768 226.24 154.304 224.872 154.304 219.328H157.904C157.904 222.16 158.24 222.64 158.912 222.64C159.584 222.64 159.728 222.16 159.728 221.008C159.728 219.616 159.488 219.04 157.904 217.744C156.152 216.328 154.304 215.176 154.304 211.552C154.304 208.408 155.624 206.56 158.648 206.56C161.672 206.56 163.088 208.408 163.088 212.512H159.488C159.488 210.64 159.2 210.16 158.648 210.16C158.096 210.16 157.904 210.64 157.904 211.552C157.904 212.944 158.528 213.496 159.872 214.528ZM169.855 226L169.591 222.736H167.695L167.431 226H163.831L166.183 206.8H171.103L173.455 226H169.855ZM167.983 219.136H169.303L168.655 210.616L167.983 219.136ZM181.09 215.896C182.314 216.496 183.25 217.696 183.25 220.024V221.008C183.25 224.584 181.882 225.976 177.778 226H174.178V206.8H177.778C181.882 206.8 183.01 208.168 183.01 212.032V212.2C183.01 214.312 182.194 215.344 181.09 215.896ZM179.41 212.032C179.41 210.64 179.17 210.4 177.778 210.4V214.312C179.17 214.312 179.41 214.072 179.41 212.68V212.032ZM177.778 222.4C179.17 222.4 179.65 222.16 179.65 220.768V219.544C179.65 218.152 179.17 217.912 177.778 217.912V222.4ZM187.82 222.4H191.06V226H184.22V206.8H187.82V222.4ZM198.853 210.4H195.613V214.6H198.853V218.2H195.613V222.4H198.853V226H192.013V206.8H198.853V210.4Z" fill="#AA751F"/>
<path d="M29.4091 248.364H31.0909L35.0455 258.023H35.1818L39.1364 248.364H40.8182V260H39.5V251.159H39.3864L35.75 260H34.4773L30.8409 251.159H30.7273V260H29.4091V248.364ZM43.4616 260V251.273H44.8026V260H43.4616ZM44.1435 249.818C43.8821 249.818 43.6567 249.729 43.4673 249.551C43.2817 249.373 43.1889 249.159 43.1889 248.909C43.1889 248.659 43.2817 248.445 43.4673 248.267C43.6567 248.089 43.8821 248 44.1435 248C44.4048 248 44.6283 248.089 44.8139 248.267C45.0033 248.445 45.098 248.659 45.098 248.909C45.098 249.159 45.0033 249.373 44.8139 249.551C44.6283 249.729 44.4048 249.818 44.1435 249.818ZM48.5994 254.75V260H47.2585V251.273H48.554V252.636H48.6676C48.8722 252.193 49.1828 251.837 49.5994 251.568C50.0161 251.295 50.554 251.159 51.2131 251.159C51.804 251.159 52.321 251.28 52.7642 251.523C53.2074 251.761 53.5521 252.125 53.7983 252.614C54.0445 253.098 54.1676 253.712 54.1676 254.455V260H52.8267V254.545C52.8267 253.86 52.6487 253.326 52.2926 252.943C51.9366 252.557 51.4479 252.364 50.8267 252.364C50.3987 252.364 50.0161 252.456 49.679 252.642C49.3456 252.828 49.0824 253.098 48.8892 253.455C48.696 253.811 48.5994 254.242 48.5994 254.75ZM56.6179 260V251.273H57.9588V260H56.6179ZM57.2997 249.818C57.0384 249.818 56.813 249.729 56.6236 249.551C56.438 249.373 56.3452 249.159 56.3452 248.909C56.3452 248.659 56.438 248.445 56.6236 248.267C56.813 248.089 57.0384 248 57.2997 248C57.5611 248 57.7846 248.089 57.9702 248.267C58.1596 248.445 58.2543 248.659 58.2543 248.909C58.2543 249.159 58.1596 249.373 57.9702 249.551C57.7846 249.729 57.5611 249.818 57.2997 249.818ZM66.5966 253.227L65.392 253.568C65.3163 253.367 65.2045 253.172 65.0568 252.983C64.9129 252.79 64.7159 252.631 64.4659 252.506C64.2159 252.381 63.8958 252.318 63.5057 252.318C62.9716 252.318 62.5265 252.441 62.1705 252.688C61.8182 252.93 61.642 253.239 61.642 253.614C61.642 253.947 61.7633 254.21 62.0057 254.403C62.2481 254.597 62.6269 254.758 63.142 254.886L64.4375 255.205C65.2178 255.394 65.7992 255.684 66.1818 256.074C66.5644 256.46 66.7557 256.958 66.7557 257.568C66.7557 258.068 66.6117 258.515 66.3239 258.909C66.0398 259.303 65.642 259.614 65.1307 259.841C64.6193 260.068 64.0246 260.182 63.3466 260.182C62.4564 260.182 61.7197 259.989 61.1364 259.602C60.553 259.216 60.1837 258.652 60.0284 257.909L61.3011 257.591C61.4223 258.061 61.6515 258.413 61.9886 258.648C62.3295 258.883 62.7746 259 63.3239 259C63.9489 259 64.4451 258.867 64.8125 258.602C65.1837 258.333 65.3693 258.011 65.3693 257.636C65.3693 257.333 65.2633 257.08 65.0511 256.875C64.839 256.667 64.5133 256.511 64.0739 256.409L62.6193 256.068C61.8201 255.879 61.233 255.585 60.858 255.188C60.4867 254.786 60.3011 254.284 60.3011 253.682C60.3011 253.189 60.4394 252.754 60.7159 252.375C60.9962 251.996 61.3769 251.699 61.858 251.483C62.3428 251.267 62.892 251.159 63.5057 251.159C64.3693 251.159 65.0473 251.348 65.5398 251.727C66.036 252.106 66.3883 252.606 66.5966 253.227ZM72.5696 251.273V252.409H68.0469V251.273H72.5696ZM69.3651 249.182H70.706V257.5C70.706 257.879 70.7609 258.163 70.8707 258.352C70.9844 258.538 71.1283 258.663 71.3026 258.727C71.4806 258.788 71.6681 258.818 71.8651 258.818C72.0128 258.818 72.134 258.811 72.2287 258.795C72.3234 258.777 72.3991 258.761 72.456 258.75L72.7287 259.955C72.6378 259.989 72.5109 260.023 72.348 260.057C72.1851 260.095 71.9787 260.114 71.7287 260.114C71.3499 260.114 70.9787 260.032 70.6151 259.869C70.2552 259.706 69.956 259.458 69.7173 259.125C69.4825 258.792 69.3651 258.371 69.3651 257.864V249.182ZM78.152 260.182C77.3111 260.182 76.5857 259.996 75.9759 259.625C75.3698 259.25 74.902 258.727 74.5724 258.057C74.2467 257.383 74.0838 256.598 74.0838 255.705C74.0838 254.811 74.2467 254.023 74.5724 253.341C74.902 252.655 75.3603 252.121 75.9474 251.739C76.5384 251.352 77.2277 251.159 78.0156 251.159C78.4702 251.159 78.919 251.235 79.3622 251.386C79.8054 251.538 80.2088 251.784 80.5724 252.125C80.9361 252.462 81.2259 252.909 81.4418 253.466C81.6577 254.023 81.7656 254.708 81.7656 255.523V256.091H75.0384V254.932H80.402C80.402 254.439 80.3035 254 80.1065 253.614C79.9134 253.227 79.6368 252.922 79.277 252.699C78.9209 252.475 78.5005 252.364 78.0156 252.364C77.4815 252.364 77.0194 252.496 76.6293 252.761C76.2429 253.023 75.9455 253.364 75.7372 253.784C75.5289 254.205 75.4247 254.655 75.4247 255.136V255.909C75.4247 256.568 75.5384 257.127 75.7656 257.585C75.9967 258.04 76.3168 258.386 76.7259 258.625C77.1349 258.86 77.6103 258.977 78.152 258.977C78.5043 258.977 78.8224 258.928 79.1065 258.83C79.3944 258.727 79.6425 258.576 79.8509 258.375C80.0592 258.17 80.2202 257.917 80.3338 257.614L81.6293 257.977C81.4929 258.417 81.2637 258.803 80.9418 259.136C80.6198 259.466 80.2221 259.723 79.7486 259.909C79.2751 260.091 78.7429 260.182 78.152 260.182ZM83.8054 260V251.273H85.1009V252.591H85.1918C85.3509 252.159 85.6387 251.809 86.0554 251.54C86.4721 251.271 86.9418 251.136 87.4645 251.136C87.563 251.136 87.6861 251.138 87.8338 251.142C87.9815 251.146 88.0933 251.152 88.169 251.159V252.523C88.1236 252.511 88.0194 252.494 87.8565 252.472C87.6974 252.445 87.5289 252.432 87.3509 252.432C86.9266 252.432 86.5478 252.521 86.2145 252.699C85.8849 252.873 85.6236 253.116 85.4304 253.426C85.241 253.733 85.1463 254.083 85.1463 254.477V260H83.8054ZM89.7585 260V251.273H91.0994V260H89.7585ZM90.4403 249.818C90.179 249.818 89.9536 249.729 89.7642 249.551C89.5786 249.373 89.4858 249.159 89.4858 248.909C89.4858 248.659 89.5786 248.445 89.7642 248.267C89.9536 248.089 90.179 248 90.4403 248C90.7017 248 90.9252 248.089 91.1108 248.267C91.3002 248.445 91.3949 248.659 91.3949 248.909C91.3949 249.159 91.3002 249.373 91.1108 249.551C90.9252 249.729 90.7017 249.818 90.4403 249.818ZM97.1009 260.182C96.313 260.182 95.6217 259.994 95.027 259.619C94.4361 259.244 93.974 258.72 93.6406 258.045C93.3111 257.371 93.1463 256.583 93.1463 255.682C93.1463 254.773 93.3111 253.979 93.6406 253.301C93.974 252.623 94.4361 252.097 95.027 251.722C95.6217 251.347 96.313 251.159 97.1009 251.159C97.8887 251.159 98.5781 251.347 99.169 251.722C99.7637 252.097 100.226 252.623 100.555 253.301C100.889 253.979 101.055 254.773 101.055 255.682C101.055 256.583 100.889 257.371 100.555 258.045C100.226 258.72 99.7637 259.244 99.169 259.619C98.5781 259.994 97.8887 260.182 97.1009 260.182ZM97.1009 258.977C97.6993 258.977 98.1918 258.824 98.5781 258.517C98.9645 258.21 99.2505 257.807 99.4361 257.307C99.6217 256.807 99.7145 256.265 99.7145 255.682C99.7145 255.098 99.6217 254.555 99.4361 254.051C99.2505 253.547 98.9645 253.14 98.5781 252.83C98.1918 252.519 97.6993 252.364 97.1009 252.364C96.5024 252.364 96.0099 252.519 95.6236 252.83C95.2372 253.14 94.9512 253.547 94.7656 254.051C94.58 254.555 94.4872 255.098 94.4872 255.682C94.4872 256.265 94.58 256.807 94.7656 257.307C94.9512 257.807 95.2372 258.21 95.6236 258.517C96.0099 258.824 96.5024 258.977 97.1009 258.977ZM110.898 260.182C110.17 260.182 109.528 259.998 108.972 259.631C108.415 259.259 107.979 258.737 107.665 258.062C107.35 257.384 107.193 256.583 107.193 255.659C107.193 254.742 107.35 253.947 107.665 253.273C107.979 252.598 108.417 252.078 108.977 251.71C109.538 251.343 110.186 251.159 110.92 251.159C111.489 251.159 111.938 251.254 112.267 251.443C112.6 251.629 112.854 251.841 113.028 252.08C113.206 252.314 113.345 252.508 113.443 252.659H113.557V248.364H114.898V260H113.602V258.659H113.443C113.345 258.818 113.205 259.019 113.023 259.261C112.841 259.5 112.581 259.714 112.244 259.903C111.907 260.089 111.458 260.182 110.898 260.182ZM111.08 258.977C111.617 258.977 112.072 258.837 112.443 258.557C112.814 258.273 113.097 257.881 113.29 257.381C113.483 256.877 113.58 256.295 113.58 255.636C113.58 254.985 113.485 254.415 113.295 253.926C113.106 253.434 112.826 253.051 112.455 252.778C112.083 252.502 111.625 252.364 111.08 252.364C110.511 252.364 110.038 252.509 109.659 252.801C109.284 253.089 109.002 253.481 108.812 253.977C108.627 254.47 108.534 255.023 108.534 255.636C108.534 256.258 108.629 256.822 108.818 257.33C109.011 257.833 109.295 258.235 109.67 258.534C110.049 258.83 110.519 258.977 111.08 258.977ZM121.199 260.182C120.358 260.182 119.633 259.996 119.023 259.625C118.417 259.25 117.949 258.727 117.619 258.057C117.294 257.383 117.131 256.598 117.131 255.705C117.131 254.811 117.294 254.023 117.619 253.341C117.949 252.655 118.407 252.121 118.994 251.739C119.585 251.352 120.275 251.159 121.062 251.159C121.517 251.159 121.966 251.235 122.409 251.386C122.852 251.538 123.256 251.784 123.619 252.125C123.983 252.462 124.273 252.909 124.489 253.466C124.705 254.023 124.812 254.708 124.812 255.523V256.091H118.085V254.932H123.449C123.449 254.439 123.35 254 123.153 253.614C122.96 253.227 122.684 252.922 122.324 252.699C121.968 252.475 121.547 252.364 121.062 252.364C120.528 252.364 120.066 252.496 119.676 252.761C119.29 253.023 118.992 253.364 118.784 253.784C118.576 254.205 118.472 254.655 118.472 255.136V255.909C118.472 256.568 118.585 257.127 118.812 257.585C119.044 258.04 119.364 258.386 119.773 258.625C120.182 258.86 120.657 258.977 121.199 258.977C121.551 258.977 121.869 258.928 122.153 258.83C122.441 258.727 122.689 258.576 122.898 258.375C123.106 258.17 123.267 257.917 123.381 257.614L124.676 257.977C124.54 258.417 124.311 258.803 123.989 259.136C123.667 259.466 123.269 259.723 122.795 259.909C122.322 260.091 121.79 260.182 121.199 260.182ZM131.534 260V248.364H135.466C136.375 248.364 137.121 248.519 137.705 248.83C138.288 249.136 138.72 249.559 139 250.097C139.28 250.634 139.42 251.246 139.42 251.932C139.42 252.617 139.28 253.225 139 253.756C138.72 254.286 138.29 254.703 137.71 255.006C137.131 255.305 136.39 255.455 135.489 255.455H132.307V254.182H135.443C136.064 254.182 136.564 254.091 136.943 253.909C137.326 253.727 137.602 253.47 137.773 253.136C137.947 252.799 138.034 252.398 138.034 251.932C138.034 251.466 137.947 251.059 137.773 250.71C137.598 250.362 137.32 250.093 136.938 249.903C136.555 249.71 136.049 249.614 135.42 249.614H132.943V260H131.534ZM137.011 254.773L139.875 260H138.239L135.42 254.773H137.011ZM145.152 260.182C144.311 260.182 143.586 259.996 142.976 259.625C142.37 259.25 141.902 258.727 141.572 258.057C141.247 257.383 141.084 256.598 141.084 255.705C141.084 254.811 141.247 254.023 141.572 253.341C141.902 252.655 142.36 252.121 142.947 251.739C143.538 251.352 144.228 251.159 145.016 251.159C145.47 251.159 145.919 251.235 146.362 251.386C146.805 251.538 147.209 251.784 147.572 252.125C147.936 252.462 148.226 252.909 148.442 253.466C148.658 254.023 148.766 254.708 148.766 255.523V256.091H142.038V254.932H147.402C147.402 254.439 147.304 254 147.107 253.614C146.913 253.227 146.637 252.922 146.277 252.699C145.921 252.475 145.5 252.364 145.016 252.364C144.482 252.364 144.019 252.496 143.629 252.761C143.243 253.023 142.946 253.364 142.737 253.784C142.529 254.205 142.425 254.655 142.425 255.136V255.909C142.425 256.568 142.538 257.127 142.766 257.585C142.997 258.04 143.317 258.386 143.726 258.625C144.135 258.86 144.61 258.977 145.152 258.977C145.504 258.977 145.822 258.928 146.107 258.83C146.394 258.727 146.643 258.576 146.851 258.375C147.059 258.17 147.22 257.917 147.334 257.614L148.629 257.977C148.493 258.417 148.264 258.803 147.942 259.136C147.62 259.466 147.222 259.723 146.749 259.909C146.275 260.091 145.743 260.182 145.152 260.182ZM152.146 248.364V260H150.805V248.364H152.146ZM157.17 260.205C156.617 260.205 156.116 260.1 155.665 259.892C155.214 259.68 154.856 259.375 154.591 258.977C154.326 258.576 154.193 258.091 154.193 257.523C154.193 257.023 154.292 256.617 154.489 256.307C154.686 255.992 154.949 255.746 155.278 255.568C155.608 255.39 155.972 255.258 156.369 255.17C156.771 255.08 157.174 255.008 157.58 254.955C158.11 254.886 158.54 254.835 158.869 254.801C159.203 254.763 159.445 254.701 159.597 254.614C159.752 254.527 159.83 254.375 159.83 254.159V254.114C159.83 253.553 159.676 253.117 159.369 252.807C159.066 252.496 158.606 252.341 157.989 252.341C157.348 252.341 156.847 252.481 156.483 252.761C156.119 253.042 155.864 253.341 155.716 253.659L154.443 253.205C154.67 252.674 154.973 252.261 155.352 251.966C155.735 251.667 156.152 251.458 156.602 251.341C157.057 251.22 157.504 251.159 157.943 251.159C158.223 251.159 158.545 251.193 158.909 251.261C159.277 251.326 159.631 251.46 159.972 251.665C160.316 251.869 160.602 252.178 160.83 252.591C161.057 253.004 161.17 253.557 161.17 254.25V260H159.83V258.818H159.761C159.67 259.008 159.519 259.21 159.307 259.426C159.095 259.642 158.813 259.826 158.46 259.977C158.108 260.129 157.678 260.205 157.17 260.205ZM157.375 259C157.905 259 158.352 258.896 158.716 258.688C159.083 258.479 159.36 258.21 159.545 257.881C159.735 257.551 159.83 257.205 159.83 256.841V255.614C159.773 255.682 159.648 255.744 159.455 255.801C159.265 255.854 159.045 255.902 158.795 255.943C158.549 255.981 158.309 256.015 158.074 256.045C157.843 256.072 157.655 256.095 157.511 256.114C157.163 256.159 156.837 256.233 156.534 256.335C156.235 256.434 155.992 256.583 155.807 256.784C155.625 256.981 155.534 257.25 155.534 257.591C155.534 258.057 155.706 258.409 156.051 258.648C156.4 258.883 156.841 259 157.375 259ZM167.163 260.182C166.345 260.182 165.641 259.989 165.05 259.602C164.459 259.216 164.004 258.684 163.686 258.006C163.368 257.328 163.209 256.553 163.209 255.682C163.209 254.795 163.372 254.013 163.697 253.335C164.027 252.653 164.485 252.121 165.072 251.739C165.663 251.352 166.353 251.159 167.141 251.159C167.754 251.159 168.307 251.273 168.8 251.5C169.292 251.727 169.696 252.045 170.01 252.455C170.324 252.864 170.519 253.341 170.595 253.886H169.254C169.152 253.489 168.925 253.136 168.572 252.83C168.224 252.519 167.754 252.364 167.163 252.364C166.641 252.364 166.182 252.5 165.788 252.773C165.398 253.042 165.093 253.422 164.874 253.915C164.658 254.403 164.55 254.977 164.55 255.636C164.55 256.311 164.656 256.898 164.868 257.398C165.084 257.898 165.387 258.286 165.777 258.562C166.171 258.839 166.633 258.977 167.163 258.977C167.512 258.977 167.828 258.917 168.112 258.795C168.396 258.674 168.637 258.5 168.834 258.273C169.031 258.045 169.171 257.773 169.254 257.455H170.595C170.519 257.97 170.332 258.434 170.033 258.847C169.737 259.256 169.345 259.581 168.857 259.824C168.372 260.062 167.807 260.182 167.163 260.182ZM172.555 260V251.273H173.896V260H172.555ZM173.237 249.818C172.976 249.818 172.75 249.729 172.561 249.551C172.375 249.373 172.283 249.159 172.283 248.909C172.283 248.659 172.375 248.445 172.561 248.267C172.75 248.089 172.976 248 173.237 248C173.499 248 173.722 248.089 173.908 248.267C174.097 248.445 174.192 248.659 174.192 248.909C174.192 249.159 174.097 249.373 173.908 249.551C173.722 249.729 173.499 249.818 173.237 249.818ZM179.898 260.182C179.11 260.182 178.419 259.994 177.824 259.619C177.233 259.244 176.771 258.72 176.438 258.045C176.108 257.371 175.943 256.583 175.943 255.682C175.943 254.773 176.108 253.979 176.438 253.301C176.771 252.623 177.233 252.097 177.824 251.722C178.419 251.347 179.11 251.159 179.898 251.159C180.686 251.159 181.375 251.347 181.966 251.722C182.561 252.097 183.023 252.623 183.352 253.301C183.686 253.979 183.852 254.773 183.852 255.682C183.852 256.583 183.686 257.371 183.352 258.045C183.023 258.72 182.561 259.244 181.966 259.619C181.375 259.994 180.686 260.182 179.898 260.182ZM179.898 258.977C180.496 258.977 180.989 258.824 181.375 258.517C181.761 258.21 182.047 257.807 182.233 257.307C182.419 256.807 182.511 256.265 182.511 255.682C182.511 255.098 182.419 254.555 182.233 254.051C182.047 253.547 181.761 253.14 181.375 252.83C180.989 252.519 180.496 252.364 179.898 252.364C179.299 252.364 178.807 252.519 178.42 252.83C178.034 253.14 177.748 253.547 177.562 254.051C177.377 254.555 177.284 255.098 177.284 255.682C177.284 256.265 177.377 256.807 177.562 257.307C177.748 257.807 178.034 258.21 178.42 258.517C178.807 258.824 179.299 258.977 179.898 258.977ZM187.24 254.75V260H185.899V251.273H187.195V252.636H187.308C187.513 252.193 187.823 251.837 188.24 251.568C188.657 251.295 189.195 251.159 189.854 251.159C190.445 251.159 190.962 251.28 191.405 251.523C191.848 251.761 192.193 252.125 192.439 252.614C192.685 253.098 192.808 253.712 192.808 254.455V260H191.467V254.545C191.467 253.86 191.289 253.326 190.933 252.943C190.577 252.557 190.089 252.364 189.467 252.364C189.039 252.364 188.657 252.456 188.32 252.642C187.986 252.828 187.723 253.098 187.53 253.455C187.337 253.811 187.24 254.242 187.24 254.75ZM198.918 260.182C198.077 260.182 197.351 259.996 196.741 259.625C196.135 259.25 195.668 258.727 195.338 258.057C195.012 257.383 194.849 256.598 194.849 255.705C194.849 254.811 195.012 254.023 195.338 253.341C195.668 252.655 196.126 252.121 196.713 251.739C197.304 251.352 197.993 251.159 198.781 251.159C199.236 251.159 199.685 251.235 200.128 251.386C200.571 251.538 200.974 251.784 201.338 252.125C201.702 252.462 201.991 252.909 202.207 253.466C202.423 254.023 202.531 254.708 202.531 255.523V256.091H195.804V254.932H201.168C201.168 254.439 201.069 254 200.872 253.614C200.679 253.227 200.402 252.922 200.043 252.699C199.687 252.475 199.266 252.364 198.781 252.364C198.247 252.364 197.785 252.496 197.395 252.761C197.009 253.023 196.711 253.364 196.503 253.784C196.295 254.205 196.19 254.655 196.19 255.136V255.909C196.19 256.568 196.304 257.127 196.531 257.585C196.762 258.04 197.082 258.386 197.491 258.625C197.901 258.86 198.376 258.977 198.918 258.977C199.27 258.977 199.588 258.928 199.872 258.83C200.16 258.727 200.408 258.576 200.616 258.375C200.825 258.17 200.986 257.917 201.099 257.614L202.395 257.977C202.259 258.417 202.029 258.803 201.707 259.136C201.385 259.466 200.988 259.723 200.514 259.909C200.041 260.091 199.509 260.182 198.918 260.182ZM210.753 253.227L209.548 253.568C209.473 253.367 209.361 253.172 209.213 252.983C209.069 252.79 208.872 252.631 208.622 252.506C208.372 252.381 208.052 252.318 207.662 252.318C207.128 252.318 206.683 252.441 206.327 252.688C205.974 252.93 205.798 253.239 205.798 253.614C205.798 253.947 205.92 254.21 206.162 254.403C206.404 254.597 206.783 254.758 207.298 254.886L208.594 255.205C209.374 255.394 209.955 255.684 210.338 256.074C210.721 256.46 210.912 256.958 210.912 257.568C210.912 258.068 210.768 258.515 210.48 258.909C210.196 259.303 209.798 259.614 209.287 259.841C208.776 260.068 208.181 260.182 207.503 260.182C206.613 260.182 205.876 259.989 205.293 259.602C204.709 259.216 204.34 258.652 204.185 257.909L205.457 257.591C205.579 258.061 205.808 258.413 206.145 258.648C206.486 258.883 206.931 259 207.48 259C208.105 259 208.601 258.867 208.969 258.602C209.34 258.333 209.526 258.011 209.526 257.636C209.526 257.333 209.42 257.08 209.207 256.875C208.995 256.667 208.67 256.511 208.23 256.409L206.776 256.068C205.976 255.879 205.389 255.585 205.014 255.188C204.643 254.786 204.457 254.284 204.457 253.682C204.457 253.189 204.596 252.754 204.872 252.375C205.152 251.996 205.533 251.699 206.014 251.483C206.499 251.267 207.048 251.159 207.662 251.159C208.526 251.159 209.204 251.348 209.696 251.727C210.192 252.106 210.545 252.606 210.753 253.227ZM217.612 260V248.364H224.635V249.614H219.021V253.545H224.271V254.795H219.021V258.75H224.726V260H217.612ZM227.993 251.273L230.084 254.841L232.175 251.273H233.72L230.902 255.636L233.72 260H232.175L230.084 256.614L227.993 260H226.447L229.22 255.636L226.447 251.273H227.993ZM239.429 251.273V252.409H234.906V251.273H239.429ZM236.224 249.182H237.565V257.5C237.565 257.879 237.62 258.163 237.73 258.352C237.844 258.538 237.988 258.663 238.162 258.727C238.34 258.788 238.527 258.818 238.724 258.818C238.872 258.818 238.993 258.811 239.088 258.795C239.183 258.777 239.259 258.761 239.315 258.75L239.588 259.955C239.497 259.989 239.37 260.023 239.207 260.057C239.045 260.095 238.838 260.114 238.588 260.114C238.209 260.114 237.838 260.032 237.474 259.869C237.115 259.706 236.815 259.458 236.577 259.125C236.342 258.792 236.224 258.371 236.224 257.864V249.182ZM245.011 260.182C244.17 260.182 243.445 259.996 242.835 259.625C242.229 259.25 241.761 258.727 241.432 258.057C241.106 257.383 240.943 256.598 240.943 255.705C240.943 254.811 241.106 254.023 241.432 253.341C241.761 252.655 242.22 252.121 242.807 251.739C243.398 251.352 244.087 251.159 244.875 251.159C245.33 251.159 245.778 251.235 246.222 251.386C246.665 251.538 247.068 251.784 247.432 252.125C247.795 252.462 248.085 252.909 248.301 253.466C248.517 254.023 248.625 254.708 248.625 255.523V256.091H241.898V254.932H247.261C247.261 254.439 247.163 254 246.966 253.614C246.773 253.227 246.496 252.922 246.136 252.699C245.78 252.475 245.36 252.364 244.875 252.364C244.341 252.364 243.879 252.496 243.489 252.761C243.102 253.023 242.805 253.364 242.597 253.784C242.388 254.205 242.284 254.655 242.284 255.136V255.909C242.284 256.568 242.398 257.127 242.625 257.585C242.856 258.04 243.176 258.386 243.585 258.625C243.994 258.86 244.47 258.977 245.011 258.977C245.364 258.977 245.682 258.928 245.966 258.83C246.254 258.727 246.502 258.576 246.71 258.375C246.919 258.17 247.08 257.917 247.193 257.614L248.489 257.977C248.352 258.417 248.123 258.803 247.801 259.136C247.479 259.466 247.081 259.723 246.608 259.909C246.134 260.091 245.602 260.182 245.011 260.182ZM250.665 260V251.273H251.96V252.591H252.051C252.21 252.159 252.498 251.809 252.915 251.54C253.331 251.271 253.801 251.136 254.324 251.136C254.422 251.136 254.545 251.138 254.693 251.142C254.841 251.146 254.953 251.152 255.028 251.159V252.523C254.983 252.511 254.879 252.494 254.716 252.472C254.557 252.445 254.388 252.432 254.21 252.432C253.786 252.432 253.407 252.521 253.074 252.699C252.744 252.873 252.483 253.116 252.29 253.426C252.1 253.733 252.006 254.083 252.006 254.477V260H250.665ZM256.618 260V251.273H257.959V260H256.618ZM257.3 249.818C257.038 249.818 256.813 249.729 256.624 249.551C256.438 249.373 256.345 249.159 256.345 248.909C256.345 248.659 256.438 248.445 256.624 248.267C256.813 248.089 257.038 248 257.3 248C257.561 248 257.785 248.089 257.97 248.267C258.16 248.445 258.254 248.659 258.254 248.909C258.254 249.159 258.16 249.373 257.97 249.551C257.785 249.729 257.561 249.818 257.3 249.818ZM263.96 260.182C263.172 260.182 262.481 259.994 261.886 259.619C261.295 259.244 260.833 258.72 260.5 258.045C260.17 257.371 260.006 256.583 260.006 255.682C260.006 254.773 260.17 253.979 260.5 253.301C260.833 252.623 261.295 252.097 261.886 251.722C262.481 251.347 263.172 251.159 263.96 251.159C264.748 251.159 265.438 251.347 266.028 251.722C266.623 252.097 267.085 252.623 267.415 253.301C267.748 253.979 267.915 254.773 267.915 255.682C267.915 256.583 267.748 257.371 267.415 258.045C267.085 258.72 266.623 259.244 266.028 259.619C265.438 259.994 264.748 260.182 263.96 260.182ZM263.96 258.977C264.559 258.977 265.051 258.824 265.438 258.517C265.824 258.21 266.11 257.807 266.295 257.307C266.481 256.807 266.574 256.265 266.574 255.682C266.574 255.098 266.481 254.555 266.295 254.051C266.11 253.547 265.824 253.14 265.438 252.83C265.051 252.519 264.559 252.364 263.96 252.364C263.362 252.364 262.869 252.519 262.483 252.83C262.097 253.14 261.811 253.547 261.625 254.051C261.439 254.555 261.347 255.098 261.347 255.682C261.347 256.265 261.439 256.807 261.625 257.307C261.811 257.807 262.097 258.21 262.483 258.517C262.869 258.824 263.362 258.977 263.96 258.977ZM269.962 260V251.273H271.257V252.591H271.348C271.507 252.159 271.795 251.809 272.212 251.54C272.628 251.271 273.098 251.136 273.621 251.136C273.719 251.136 273.842 251.138 273.99 251.142C274.138 251.146 274.25 251.152 274.325 251.159V252.523C274.28 252.511 274.176 252.494 274.013 252.472C273.854 252.445 273.685 252.432 273.507 252.432C273.083 252.432 272.704 252.521 272.371 252.699C272.041 252.873 271.78 253.116 271.587 253.426C271.397 253.733 271.303 254.083 271.303 254.477V260H269.962ZM279.308 260.182C278.467 260.182 277.742 259.996 277.132 259.625C276.526 259.25 276.058 258.727 275.729 258.057C275.403 257.383 275.24 256.598 275.24 255.705C275.24 254.811 275.403 254.023 275.729 253.341C276.058 252.655 276.517 252.121 277.104 251.739C277.695 251.352 278.384 251.159 279.172 251.159C279.626 251.159 280.075 251.235 280.518 251.386C280.962 251.538 281.365 251.784 281.729 252.125C282.092 252.462 282.382 252.909 282.598 253.466C282.814 254.023 282.922 254.708 282.922 255.523V256.091H276.195V254.932H281.558C281.558 254.439 281.46 254 281.263 253.614C281.07 253.227 280.793 252.922 280.433 252.699C280.077 252.475 279.657 252.364 279.172 252.364C278.638 252.364 278.176 252.496 277.786 252.761C277.399 253.023 277.102 253.364 276.893 253.784C276.685 254.205 276.581 254.655 276.581 255.136V255.909C276.581 256.568 276.695 257.127 276.922 257.585C277.153 258.04 277.473 258.386 277.882 258.625C278.291 258.86 278.767 258.977 279.308 258.977C279.661 258.977 279.979 258.928 280.263 258.83C280.551 258.727 280.799 258.576 281.007 258.375C281.215 258.17 281.376 257.917 281.49 257.614L282.786 257.977C282.649 258.417 282.42 258.803 282.098 259.136C281.776 259.466 281.378 259.723 280.905 259.909C280.431 260.091 279.899 260.182 279.308 260.182ZM291.143 253.227L289.939 253.568C289.863 253.367 289.751 253.172 289.604 252.983C289.46 252.79 289.263 252.631 289.013 252.506C288.763 252.381 288.443 252.318 288.053 252.318C287.518 252.318 287.073 252.441 286.717 252.688C286.365 252.93 286.189 253.239 286.189 253.614C286.189 253.947 286.31 254.21 286.553 254.403C286.795 254.597 287.174 254.758 287.689 254.886L288.984 255.205C289.765 255.394 290.346 255.684 290.729 256.074C291.111 256.46 291.303 256.958 291.303 257.568C291.303 258.068 291.159 258.515 290.871 258.909C290.587 259.303 290.189 259.614 289.678 259.841C289.166 260.068 288.571 260.182 287.893 260.182C287.003 260.182 286.267 259.989 285.683 259.602C285.1 259.216 284.731 258.652 284.575 257.909L285.848 257.591C285.969 258.061 286.198 258.413 286.536 258.648C286.876 258.883 287.321 259 287.871 259C288.496 259 288.992 258.867 289.359 258.602C289.731 258.333 289.916 258.011 289.916 257.636C289.916 257.333 289.81 257.08 289.598 256.875C289.386 256.667 289.06 256.511 288.621 256.409L287.166 256.068C286.367 255.879 285.78 255.585 285.405 255.188C285.034 254.786 284.848 254.284 284.848 253.682C284.848 253.189 284.986 252.754 285.263 252.375C285.543 251.996 285.924 251.699 286.405 251.483C286.89 251.267 287.439 251.159 288.053 251.159C288.916 251.159 289.594 251.348 290.087 251.727C290.583 252.106 290.935 252.606 291.143 253.227ZM295.321 258.409L295.23 259.023C295.166 259.455 295.067 259.917 294.935 260.409C294.806 260.902 294.671 261.366 294.531 261.801C294.391 262.237 294.276 262.583 294.185 262.841H293.162C293.211 262.598 293.276 262.278 293.355 261.881C293.435 261.483 293.514 261.038 293.594 260.545C293.677 260.057 293.745 259.557 293.798 259.045L293.866 258.409H295.321ZM38.7727 274H37.3636C37.2803 273.595 37.1345 273.239 36.9261 272.932C36.7216 272.625 36.4716 272.367 36.1761 272.159C35.8845 271.947 35.5606 271.788 35.2045 271.682C34.8485 271.576 34.4773 271.523 34.0909 271.523C33.3864 271.523 32.7481 271.701 32.1761 272.057C31.608 272.413 31.1553 272.938 30.8182 273.631C30.4848 274.324 30.3182 275.174 30.3182 276.182C30.3182 277.189 30.4848 278.04 30.8182 278.733C31.1553 279.426 31.608 279.951 32.1761 280.307C32.7481 280.663 33.3864 280.841 34.0909 280.841C34.4773 280.841 34.8485 280.788 35.2045 280.682C35.5606 280.576 35.8845 280.419 36.1761 280.21C36.4716 279.998 36.7216 279.739 36.9261 279.432C37.1345 279.121 37.2803 278.765 37.3636 278.364H38.7727C38.6667 278.958 38.4735 279.491 38.1932 279.96C37.9129 280.43 37.5644 280.83 37.1477 281.159C36.7311 281.485 36.2633 281.733 35.7443 281.903C35.2292 282.074 34.678 282.159 34.0909 282.159C33.0985 282.159 32.2159 281.917 31.4432 281.432C30.6705 280.947 30.0625 280.258 29.6193 279.364C29.1761 278.47 28.9545 277.409 28.9545 276.182C28.9545 274.955 29.1761 273.894 29.6193 273C30.0625 272.106 30.6705 271.417 31.4432 270.932C32.2159 270.447 33.0985 270.205 34.0909 270.205C34.678 270.205 35.2292 270.29 35.7443 270.46C36.2633 270.631 36.7311 270.881 37.1477 271.21C37.5644 271.536 37.9129 271.934 38.1932 272.403C38.4735 272.869 38.6667 273.402 38.7727 274ZM44.4134 282.182C43.6255 282.182 42.9342 281.994 42.3395 281.619C41.7486 281.244 41.2865 280.72 40.9531 280.045C40.6236 279.371 40.4588 278.583 40.4588 277.682C40.4588 276.773 40.6236 275.979 40.9531 275.301C41.2865 274.623 41.7486 274.097 42.3395 273.722C42.9342 273.347 43.6255 273.159 44.4134 273.159C45.2012 273.159 45.8906 273.347 46.4815 273.722C47.0762 274.097 47.5384 274.623 47.8679 275.301C48.2012 275.979 48.3679 276.773 48.3679 277.682C48.3679 278.583 48.2012 279.371 47.8679 280.045C47.5384 280.72 47.0762 281.244 46.4815 281.619C45.8906 281.994 45.2012 282.182 44.4134 282.182ZM44.4134 280.977C45.0118 280.977 45.5043 280.824 45.8906 280.517C46.277 280.21 46.563 279.807 46.7486 279.307C46.9342 278.807 47.027 278.265 47.027 277.682C47.027 277.098 46.9342 276.555 46.7486 276.051C46.563 275.547 46.277 275.14 45.8906 274.83C45.5043 274.519 45.0118 274.364 44.4134 274.364C43.8149 274.364 43.3224 274.519 42.9361 274.83C42.5497 275.14 42.2637 275.547 42.0781 276.051C41.8925 276.555 41.7997 277.098 41.7997 277.682C41.7997 278.265 41.8925 278.807 42.0781 279.307C42.2637 279.807 42.5497 280.21 42.9361 280.517C43.3224 280.824 43.8149 280.977 44.4134 280.977ZM50.4148 282V273.273H51.7102V274.636H51.8239C52.0057 274.17 52.2992 273.809 52.7045 273.551C53.1098 273.29 53.5966 273.159 54.1648 273.159C54.7405 273.159 55.2197 273.29 55.6023 273.551C55.9886 273.809 56.2898 274.17 56.5057 274.636H56.5966C56.8201 274.186 57.1553 273.828 57.6023 273.562C58.0492 273.294 58.5852 273.159 59.2102 273.159C59.9905 273.159 60.6288 273.403 61.125 273.892C61.6212 274.377 61.8693 275.133 61.8693 276.159V282H60.5284V276.159C60.5284 275.515 60.3523 275.055 60 274.778C59.6477 274.502 59.233 274.364 58.7557 274.364C58.142 274.364 57.6667 274.549 57.3295 274.92C56.9924 275.288 56.8239 275.754 56.8239 276.318V282H55.4602V276.023C55.4602 275.527 55.2992 275.127 54.9773 274.824C54.6553 274.517 54.2405 274.364 53.733 274.364C53.3845 274.364 53.0587 274.456 52.7557 274.642C52.4564 274.828 52.214 275.085 52.0284 275.415C51.8466 275.741 51.7557 276.117 51.7557 276.545V282H50.4148ZM67.9801 282.182C67.1392 282.182 66.4138 281.996 65.804 281.625C65.1979 281.25 64.7301 280.727 64.4006 280.057C64.0748 279.383 63.9119 278.598 63.9119 277.705C63.9119 276.811 64.0748 276.023 64.4006 275.341C64.7301 274.655 65.1884 274.121 65.7756 273.739C66.3665 273.352 67.0559 273.159 67.8438 273.159C68.2983 273.159 68.7472 273.235 69.1903 273.386C69.6335 273.538 70.0369 273.784 70.4006 274.125C70.7642 274.462 71.054 274.909 71.2699 275.466C71.4858 276.023 71.5938 276.708 71.5938 277.523V278.091H64.8665V276.932H70.2301C70.2301 276.439 70.1316 276 69.9347 275.614C69.7415 275.227 69.465 274.922 69.1051 274.699C68.7491 274.475 68.3286 274.364 67.8438 274.364C67.3097 274.364 66.8475 274.496 66.4574 274.761C66.071 275.023 65.7737 275.364 65.5653 275.784C65.357 276.205 65.2528 276.655 65.2528 277.136V277.909C65.2528 278.568 65.3665 279.127 65.5938 279.585C65.8248 280.04 66.1449 280.386 66.554 280.625C66.9631 280.86 67.4384 280.977 67.9801 280.977C68.3324 280.977 68.6506 280.928 68.9347 280.83C69.2225 280.727 69.4706 280.576 69.679 280.375C69.8873 280.17 70.0483 279.917 70.1619 279.614L71.4574 279.977C71.321 280.417 71.0919 280.803 70.7699 281.136C70.4479 281.466 70.0502 281.723 69.5767 281.909C69.1032 282.091 68.571 282.182 67.9801 282.182ZM73.6335 282V273.273H74.929V274.591H75.0199C75.179 274.159 75.4669 273.809 75.8835 273.54C76.3002 273.271 76.7699 273.136 77.2926 273.136C77.3911 273.136 77.5142 273.138 77.6619 273.142C77.8097 273.146 77.9214 273.152 77.9972 273.159V274.523C77.9517 274.511 77.8475 274.494 77.6847 274.472C77.5256 274.445 77.357 274.432 77.179 274.432C76.7547 274.432 76.3759 274.521 76.0426 274.699C75.7131 274.873 75.4517 275.116 75.2585 275.426C75.0691 275.733 74.9744 276.083 74.9744 276.477V282H73.6335ZM82.8665 282.182C82.0483 282.182 81.3438 281.989 80.7528 281.602C80.1619 281.216 79.7074 280.684 79.3892 280.006C79.071 279.328 78.9119 278.553 78.9119 277.682C78.9119 276.795 79.0748 276.013 79.4006 275.335C79.7301 274.653 80.1884 274.121 80.7756 273.739C81.3665 273.352 82.0559 273.159 82.8438 273.159C83.4574 273.159 84.0104 273.273 84.5028 273.5C84.9953 273.727 85.3987 274.045 85.7131 274.455C86.0275 274.864 86.2225 275.341 86.2983 275.886H84.9574C84.8551 275.489 84.6278 275.136 84.2756 274.83C83.9271 274.519 83.4574 274.364 82.8665 274.364C82.3438 274.364 81.8854 274.5 81.4915 274.773C81.1013 275.042 80.7964 275.422 80.5767 275.915C80.3608 276.403 80.2528 276.977 80.2528 277.636C80.2528 278.311 80.3589 278.898 80.571 279.398C80.7869 279.898 81.09 280.286 81.4801 280.562C81.8741 280.839 82.3362 280.977 82.8665 280.977C83.215 280.977 83.5312 280.917 83.8153 280.795C84.0994 280.674 84.34 280.5 84.5369 280.273C84.7339 280.045 84.8741 279.773 84.9574 279.455H86.2983C86.2225 279.97 86.035 280.434 85.7358 280.847C85.4403 281.256 85.0483 281.581 84.5597 281.824C84.0748 282.062 83.5104 282.182 82.8665 282.182ZM88.2585 282V273.273H89.5994V282H88.2585ZM88.9403 271.818C88.679 271.818 88.4536 271.729 88.2642 271.551C88.0786 271.373 87.9858 271.159 87.9858 270.909C87.9858 270.659 88.0786 270.445 88.2642 270.267C88.4536 270.089 88.679 270 88.9403 270C89.2017 270 89.4252 270.089 89.6108 270.267C89.8002 270.445 89.8949 270.659 89.8949 270.909C89.8949 271.159 89.8002 271.373 89.6108 271.551C89.4252 271.729 89.2017 271.818 88.9403 271.818ZM95.6009 282.182C94.813 282.182 94.1217 281.994 93.527 281.619C92.9361 281.244 92.474 280.72 92.1406 280.045C91.8111 279.371 91.6463 278.583 91.6463 277.682C91.6463 276.773 91.8111 275.979 92.1406 275.301C92.474 274.623 92.9361 274.097 93.527 273.722C94.1217 273.347 94.813 273.159 95.6009 273.159C96.3887 273.159 97.0781 273.347 97.669 273.722C98.2637 274.097 98.7259 274.623 99.0554 275.301C99.3887 275.979 99.5554 276.773 99.5554 277.682C99.5554 278.583 99.3887 279.371 99.0554 280.045C98.7259 280.72 98.2637 281.244 97.669 281.619C97.0781 281.994 96.3887 282.182 95.6009 282.182ZM95.6009 280.977C96.1993 280.977 96.6918 280.824 97.0781 280.517C97.4645 280.21 97.7505 279.807 97.9361 279.307C98.1217 278.807 98.2145 278.265 98.2145 277.682C98.2145 277.098 98.1217 276.555 97.9361 276.051C97.7505 275.547 97.4645 275.14 97.0781 274.83C96.6918 274.519 96.1993 274.364 95.6009 274.364C95.0024 274.364 94.5099 274.519 94.1236 274.83C93.7372 275.14 93.4512 275.547 93.2656 276.051C93.08 276.555 92.9872 277.098 92.9872 277.682C92.9872 278.265 93.08 278.807 93.2656 279.307C93.4512 279.807 93.7372 280.21 94.1236 280.517C94.5099 280.824 95.0024 280.977 95.6009 280.977ZM106.284 282V270.364H113.307V271.614H107.693V275.545H112.943V276.795H107.693V280.75H113.398V282H106.284ZM116.665 273.273L118.756 276.841L120.847 273.273H122.392L119.574 277.636L122.392 282H120.847L118.756 278.614L116.665 282H115.119L117.892 277.636L115.119 273.273H116.665ZM128.101 273.273V274.409H123.578V273.273H128.101ZM124.896 271.182H126.237V279.5C126.237 279.879 126.292 280.163 126.402 280.352C126.516 280.538 126.66 280.663 126.834 280.727C127.012 280.788 127.199 280.818 127.396 280.818C127.544 280.818 127.665 280.811 127.76 280.795C127.855 280.777 127.93 280.761 127.987 280.75L128.26 281.955C128.169 281.989 128.042 282.023 127.879 282.057C127.716 282.095 127.51 282.114 127.26 282.114C126.881 282.114 126.51 282.032 126.146 281.869C125.786 281.706 125.487 281.458 125.249 281.125C125.014 280.792 124.896 280.371 124.896 279.864V271.182ZM133.683 282.182C132.842 282.182 132.117 281.996 131.507 281.625C130.901 281.25 130.433 280.727 130.104 280.057C129.778 279.383 129.615 278.598 129.615 277.705C129.615 276.811 129.778 276.023 130.104 275.341C130.433 274.655 130.892 274.121 131.479 273.739C132.07 273.352 132.759 273.159 133.547 273.159C134.001 273.159 134.45 273.235 134.893 273.386C135.337 273.538 135.74 273.784 136.104 274.125C136.467 274.462 136.757 274.909 136.973 275.466C137.189 276.023 137.297 276.708 137.297 277.523V278.091H130.57V276.932H135.933C135.933 276.439 135.835 276 135.638 275.614C135.445 275.227 135.168 274.922 134.808 274.699C134.452 274.475 134.032 274.364 133.547 274.364C133.013 274.364 132.551 274.496 132.161 274.761C131.774 275.023 131.477 275.364 131.268 275.784C131.06 276.205 130.956 276.655 130.956 277.136V277.909C130.956 278.568 131.07 279.127 131.297 279.585C131.528 280.04 131.848 280.386 132.257 280.625C132.666 280.86 133.142 280.977 133.683 280.977C134.036 280.977 134.354 280.928 134.638 280.83C134.926 280.727 135.174 280.576 135.382 280.375C135.59 280.17 135.751 279.917 135.865 279.614L137.161 279.977C137.024 280.417 136.795 280.803 136.473 281.136C136.151 281.466 135.753 281.723 135.28 281.909C134.806 282.091 134.274 282.182 133.683 282.182ZM139.337 282V273.273H140.632V274.591H140.723C140.882 274.159 141.17 273.809 141.587 273.54C142.003 273.271 142.473 273.136 142.996 273.136C143.094 273.136 143.217 273.138 143.365 273.142C143.513 273.146 143.625 273.152 143.7 273.159V274.523C143.655 274.511 143.551 274.494 143.388 274.472C143.229 274.445 143.06 274.432 142.882 274.432C142.458 274.432 142.079 274.521 141.746 274.699C141.416 274.873 141.155 275.116 140.962 275.426C140.772 275.733 140.678 276.083 140.678 276.477V282H139.337ZM145.29 282V273.273H146.631V282H145.29ZM145.972 271.818C145.71 271.818 145.485 271.729 145.295 271.551C145.11 271.373 145.017 271.159 145.017 270.909C145.017 270.659 145.11 270.445 145.295 270.267C145.485 270.089 145.71 270 145.972 270C146.233 270 146.456 270.089 146.642 270.267C146.831 270.445 146.926 270.659 146.926 270.909C146.926 271.159 146.831 271.373 146.642 271.551C146.456 271.729 146.233 271.818 145.972 271.818ZM152.632 282.182C151.844 282.182 151.153 281.994 150.558 281.619C149.967 281.244 149.505 280.72 149.172 280.045C148.842 279.371 148.678 278.583 148.678 277.682C148.678 276.773 148.842 275.979 149.172 275.301C149.505 274.623 149.967 274.097 150.558 273.722C151.153 273.347 151.844 273.159 152.632 273.159C153.42 273.159 154.109 273.347 154.7 273.722C155.295 274.097 155.757 274.623 156.087 275.301C156.42 275.979 156.587 276.773 156.587 277.682C156.587 278.583 156.42 279.371 156.087 280.045C155.757 280.72 155.295 281.244 154.7 281.619C154.109 281.994 153.42 282.182 152.632 282.182ZM152.632 280.977C153.231 280.977 153.723 280.824 154.109 280.517C154.496 280.21 154.782 279.807 154.967 279.307C155.153 278.807 155.246 278.265 155.246 277.682C155.246 277.098 155.153 276.555 154.967 276.051C154.782 275.547 154.496 275.14 154.109 274.83C153.723 274.519 153.231 274.364 152.632 274.364C152.034 274.364 151.541 274.519 151.155 274.83C150.768 275.14 150.482 275.547 150.297 276.051C150.111 276.555 150.018 277.098 150.018 277.682C150.018 278.265 150.111 278.807 150.297 279.307C150.482 279.807 150.768 280.21 151.155 280.517C151.541 280.824 152.034 280.977 152.632 280.977ZM158.634 282V273.273H159.929V274.591H160.02C160.179 274.159 160.467 273.809 160.884 273.54C161.3 273.271 161.77 273.136 162.293 273.136C162.391 273.136 162.514 273.138 162.662 273.142C162.81 273.146 162.921 273.152 162.997 273.159V274.523C162.952 274.511 162.848 274.494 162.685 274.472C162.526 274.445 162.357 274.432 162.179 274.432C161.755 274.432 161.376 274.521 161.043 274.699C160.713 274.873 160.452 275.116 160.259 275.426C160.069 275.733 159.974 276.083 159.974 276.477V282H158.634ZM169.95 285.273C169.723 285.273 169.52 285.254 169.342 285.216C169.164 285.182 169.041 285.148 168.973 285.114L169.314 283.932C169.64 284.015 169.928 284.045 170.178 284.023C170.428 284 170.649 283.888 170.842 283.688C171.039 283.491 171.219 283.17 171.382 282.727L171.632 282.045L168.405 273.273H169.859L172.268 280.227H172.359L174.768 273.273H176.223L172.518 283.273C172.352 283.723 172.145 284.097 171.899 284.392C171.653 284.691 171.367 284.913 171.041 285.057C170.719 285.201 170.356 285.273 169.95 285.273ZM182.675 270.364H184.357L188.311 280.023H188.447L192.402 270.364H194.084V282H192.766V273.159H192.652L189.016 282H187.743L184.107 273.159H183.993V282H182.675V270.364ZM196.727 282V273.273H198.068V282H196.727ZM197.409 271.818C197.148 271.818 196.922 271.729 196.733 271.551C196.547 271.373 196.455 271.159 196.455 270.909C196.455 270.659 196.547 270.445 196.733 270.267C196.922 270.089 197.148 270 197.409 270C197.67 270 197.894 270.089 198.08 270.267C198.269 270.445 198.364 270.659 198.364 270.909C198.364 271.159 198.269 271.373 198.08 271.551C197.894 271.729 197.67 271.818 197.409 271.818ZM204.047 285.455C203.399 285.455 202.842 285.371 202.376 285.205C201.911 285.042 201.522 284.826 201.212 284.557C200.905 284.292 200.661 284.008 200.479 283.705L201.547 282.955C201.668 283.114 201.821 283.295 202.007 283.5C202.193 283.708 202.446 283.888 202.768 284.04C203.094 284.195 203.52 284.273 204.047 284.273C204.751 284.273 205.333 284.102 205.791 283.761C206.25 283.42 206.479 282.886 206.479 282.159V280.386H206.365C206.267 280.545 206.126 280.742 205.945 280.977C205.767 281.208 205.509 281.415 205.172 281.597C204.839 281.775 204.388 281.864 203.82 281.864C203.115 281.864 202.482 281.697 201.922 281.364C201.365 281.03 200.924 280.545 200.598 279.909C200.276 279.273 200.115 278.5 200.115 277.591C200.115 276.697 200.272 275.919 200.587 275.256C200.901 274.589 201.339 274.074 201.899 273.71C202.46 273.343 203.107 273.159 203.842 273.159C204.411 273.159 204.861 273.254 205.195 273.443C205.532 273.629 205.789 273.841 205.967 274.08C206.149 274.314 206.289 274.508 206.388 274.659H206.524V273.273H207.82V282.25C207.82 283 207.649 283.61 207.308 284.08C206.971 284.553 206.517 284.9 205.945 285.119C205.376 285.343 204.744 285.455 204.047 285.455ZM204.001 280.659C204.539 280.659 204.994 280.536 205.365 280.29C205.736 280.044 206.018 279.689 206.212 279.227C206.405 278.765 206.501 278.212 206.501 277.568C206.501 276.939 206.407 276.384 206.217 275.903C206.028 275.422 205.748 275.045 205.376 274.773C205.005 274.5 204.547 274.364 204.001 274.364C203.433 274.364 202.96 274.508 202.581 274.795C202.206 275.083 201.924 275.47 201.734 275.955C201.549 276.439 201.456 276.977 201.456 277.568C201.456 278.174 201.551 278.71 201.74 279.176C201.933 279.638 202.217 280.002 202.592 280.267C202.971 280.528 203.441 280.659 204.001 280.659ZM210.274 282V273.273H211.57V274.591H211.661C211.82 274.159 212.107 273.809 212.524 273.54C212.941 273.271 213.411 273.136 213.933 273.136C214.032 273.136 214.155 273.138 214.303 273.142C214.45 273.146 214.562 273.152 214.638 273.159V274.523C214.592 274.511 214.488 274.494 214.325 274.472C214.166 274.445 213.998 274.432 213.82 274.432C213.395 274.432 213.017 274.521 212.683 274.699C212.354 274.873 212.092 275.116 211.899 275.426C211.71 275.733 211.615 276.083 211.615 276.477V282H210.274ZM218.795 282.205C218.242 282.205 217.741 282.1 217.29 281.892C216.839 281.68 216.481 281.375 216.216 280.977C215.951 280.576 215.818 280.091 215.818 279.523C215.818 279.023 215.917 278.617 216.114 278.307C216.311 277.992 216.574 277.746 216.903 277.568C217.233 277.39 217.597 277.258 217.994 277.17C218.396 277.08 218.799 277.008 219.205 276.955C219.735 276.886 220.165 276.835 220.494 276.801C220.828 276.763 221.07 276.701 221.222 276.614C221.377 276.527 221.455 276.375 221.455 276.159V276.114C221.455 275.553 221.301 275.117 220.994 274.807C220.691 274.496 220.231 274.341 219.614 274.341C218.973 274.341 218.472 274.481 218.108 274.761C217.744 275.042 217.489 275.341 217.341 275.659L216.068 275.205C216.295 274.674 216.598 274.261 216.977 273.966C217.36 273.667 217.777 273.458 218.227 273.341C218.682 273.22 219.129 273.159 219.568 273.159C219.848 273.159 220.17 273.193 220.534 273.261C220.902 273.326 221.256 273.46 221.597 273.665C221.941 273.869 222.227 274.178 222.455 274.591C222.682 275.004 222.795 275.557 222.795 276.25V282H221.455V280.818H221.386C221.295 281.008 221.144 281.21 220.932 281.426C220.72 281.642 220.438 281.826 220.085 281.977C219.733 282.129 219.303 282.205 218.795 282.205ZM219 281C219.53 281 219.977 280.896 220.341 280.688C220.708 280.479 220.985 280.21 221.17 279.881C221.36 279.551 221.455 279.205 221.455 278.841V277.614C221.398 277.682 221.273 277.744 221.08 277.801C220.89 277.854 220.67 277.902 220.42 277.943C220.174 277.981 219.934 278.015 219.699 278.045C219.468 278.072 219.28 278.095 219.136 278.114C218.788 278.159 218.462 278.233 218.159 278.335C217.86 278.434 217.617 278.583 217.432 278.784C217.25 278.981 217.159 279.25 217.159 279.591C217.159 280.057 217.331 280.409 217.676 280.648C218.025 280.883 218.466 281 219 281ZM228.788 282.182C227.97 282.182 227.266 281.989 226.675 281.602C226.084 281.216 225.629 280.684 225.311 280.006C224.993 279.328 224.834 278.553 224.834 277.682C224.834 276.795 224.997 276.013 225.322 275.335C225.652 274.653 226.11 274.121 226.697 273.739C227.288 273.352 227.978 273.159 228.766 273.159C229.379 273.159 229.932 273.273 230.425 273.5C230.917 273.727 231.321 274.045 231.635 274.455C231.949 274.864 232.144 275.341 232.22 275.886H230.879C230.777 275.489 230.55 275.136 230.197 274.83C229.849 274.519 229.379 274.364 228.788 274.364C228.266 274.364 227.807 274.5 227.413 274.773C227.023 275.042 226.718 275.422 226.499 275.915C226.283 276.403 226.175 276.977 226.175 277.636C226.175 278.311 226.281 278.898 226.493 279.398C226.709 279.898 227.012 280.286 227.402 280.562C227.796 280.839 228.258 280.977 228.788 280.977C229.137 280.977 229.453 280.917 229.737 280.795C230.021 280.674 230.262 280.5 230.459 280.273C230.656 280.045 230.796 279.773 230.879 279.455H232.22C232.144 279.97 231.957 280.434 231.658 280.847C231.362 281.256 230.97 281.581 230.482 281.824C229.997 282.062 229.432 282.182 228.788 282.182ZM234.18 282V273.273H235.521V282H234.18ZM234.862 271.818C234.601 271.818 234.375 271.729 234.186 271.551C234 271.373 233.908 271.159 233.908 270.909C233.908 270.659 234 270.445 234.186 270.267C234.375 270.089 234.601 270 234.862 270C235.124 270 235.347 270.089 235.533 270.267C235.722 270.445 235.817 270.659 235.817 270.909C235.817 271.159 235.722 271.373 235.533 271.551C235.347 271.729 235.124 271.818 234.862 271.818ZM241.523 282.182C240.735 282.182 240.044 281.994 239.449 281.619C238.858 281.244 238.396 280.72 238.062 280.045C237.733 279.371 237.568 278.583 237.568 277.682C237.568 276.773 237.733 275.979 238.062 275.301C238.396 274.623 238.858 274.097 239.449 273.722C240.044 273.347 240.735 273.159 241.523 273.159C242.311 273.159 243 273.347 243.591 273.722C244.186 274.097 244.648 274.623 244.977 275.301C245.311 275.979 245.477 276.773 245.477 277.682C245.477 278.583 245.311 279.371 244.977 280.045C244.648 280.72 244.186 281.244 243.591 281.619C243 281.994 242.311 282.182 241.523 282.182ZM241.523 280.977C242.121 280.977 242.614 280.824 243 280.517C243.386 280.21 243.672 279.807 243.858 279.307C244.044 278.807 244.136 278.265 244.136 277.682C244.136 277.098 244.044 276.555 243.858 276.051C243.672 275.547 243.386 275.14 243 274.83C242.614 274.519 242.121 274.364 241.523 274.364C240.924 274.364 240.432 274.519 240.045 274.83C239.659 275.14 239.373 275.547 239.188 276.051C239.002 276.555 238.909 277.098 238.909 277.682C238.909 278.265 239.002 278.807 239.188 279.307C239.373 279.807 239.659 280.21 240.045 280.517C240.432 280.824 240.924 280.977 241.523 280.977ZM240.909 272.091L242.295 269.455H243.864L242.091 272.091H240.909ZM248.865 276.75V282H247.524V273.273H248.82V274.636H248.933C249.138 274.193 249.448 273.837 249.865 273.568C250.282 273.295 250.82 273.159 251.479 273.159C252.07 273.159 252.587 273.28 253.03 273.523C253.473 273.761 253.818 274.125 254.064 274.614C254.31 275.098 254.433 275.712 254.433 276.455V282H253.092V276.545C253.092 275.86 252.914 275.326 252.558 274.943C252.202 274.557 251.714 274.364 251.092 274.364C250.664 274.364 250.282 274.456 249.945 274.642C249.611 274.828 249.348 275.098 249.155 275.455C248.962 275.811 248.865 276.242 248.865 276.75Z" fill="#333333"/>
</svg>
