<svg width="211" height="129" viewBox="0 0 211 129" fill="none" xmlns="http://www.w3.org/2000/svg">
<path d="M209.182 2H1.81169V127H180.826H209.182V2Z" fill="#C0E6EB" stroke="#45AFC0" stroke-width="3" stroke-dasharray="10 10"/>
<path d="M57.5807 18.3636C57.521 17.8598 57.2791 17.4688 56.8548 17.1903C56.4306 16.9119 55.9102 16.7727 55.2937 16.7727C54.843 16.7727 54.4486 16.8456 54.1105 16.9915C53.7757 17.1373 53.5139 17.3378 53.325 17.593C53.1394 17.8482 53.0466 18.1383 53.0466 18.4631C53.0466 18.7348 53.1112 18.9685 53.2405 19.1641C53.373 19.3563 53.5421 19.517 53.7476 19.6463C53.9531 19.7723 54.1685 19.8767 54.3939 19.9595C54.6193 20.0391 54.8264 20.1037 55.0153 20.1534L56.0494 20.4318C56.3146 20.5014 56.6095 20.5975 56.9344 20.7202C57.2625 20.8428 57.5757 21.0102 57.874 21.2223C58.1756 21.4311 58.4242 21.6996 58.6197 22.0277C58.8153 22.3558 58.9131 22.7585 58.9131 23.2358C58.9131 23.786 58.7689 24.2831 58.4805 24.7273C58.1955 25.1714 57.7779 25.5244 57.2277 25.7862C56.6808 26.0481 56.0163 26.179 55.2341 26.179C54.5049 26.179 53.8735 26.0613 53.3399 25.826C52.8096 25.5907 52.392 25.2625 52.0871 24.8416C51.7854 24.4207 51.6148 23.9318 51.575 23.375H52.8477C52.8809 23.7595 53.0101 24.0777 53.2355 24.3295C53.4642 24.5781 53.7525 24.7637 54.1006 24.8864C54.4519 25.0057 54.8297 25.0653 55.2341 25.0653C55.7047 25.0653 56.1273 24.9891 56.5018 24.8366C56.8764 24.6809 57.173 24.4654 57.3917 24.1903C57.6105 23.9119 57.7199 23.5871 57.7199 23.2159C57.7199 22.8778 57.6254 22.6027 57.4365 22.3906C57.2476 22.1785 56.999 22.0062 56.6908 21.8736C56.3825 21.741 56.0494 21.625 55.6915 21.5256L54.4386 21.1676C53.6432 20.9389 53.0134 20.6125 52.5494 20.1882C52.0854 19.764 51.8534 19.2088 51.8534 18.5227C51.8534 17.9527 52.0075 17.4555 52.3158 17.0312C52.6273 16.6037 53.0449 16.2723 53.5686 16.0369C54.0956 15.7983 54.6839 15.679 55.3335 15.679C55.9898 15.679 56.5731 15.7966 57.0835 16.032C57.5939 16.264 57.9983 16.5821 58.2966 16.9865C58.5982 17.3909 58.7573 17.8499 58.7738 18.3636H57.5807ZM61.0611 26V18.3636H62.2344V26H61.0611ZM61.6577 17.0909C61.429 17.0909 61.2318 17.013 61.0661 16.8572C60.9037 16.7015 60.8225 16.5142 60.8225 16.2955C60.8225 16.0767 60.9037 15.8894 61.0661 15.7337C61.2318 15.5779 61.429 15.5 61.6577 15.5C61.8864 15.5 62.082 15.5779 62.2444 15.7337C62.4101 15.8894 62.4929 16.0767 62.4929 16.2955C62.4929 16.5142 62.4101 16.7015 62.2444 16.8572C62.082 17.013 61.8864 17.0909 61.6577 17.0909ZM74.0911 28.8636V24.8267H73.9917C73.9055 24.9659 73.7829 25.1416 73.6238 25.3537C73.4647 25.5625 73.2377 25.7498 72.9427 25.9155C72.6477 26.0779 72.2549 26.1591 71.7644 26.1591C71.1281 26.1591 70.5663 25.9983 70.079 25.6768C69.5918 25.352 69.2107 24.8946 68.9356 24.3047C68.6605 23.7114 68.5229 23.0104 68.5229 22.2017C68.5229 21.3996 68.6605 20.7036 68.9356 20.1136C69.2107 19.5237 69.5935 19.0679 70.084 18.7464C70.5745 18.425 71.1413 18.2642 71.7843 18.2642C72.2815 18.2642 72.6742 18.3471 72.9626 18.5128C73.2542 18.6752 73.4763 18.8608 73.6288 19.0696C73.7845 19.2751 73.9055 19.4441 73.9917 19.5767H74.1309V18.3636H75.2644V28.8636H74.0911ZM71.9235 25.1051C72.3942 25.1051 72.7919 24.9825 73.1167 24.7372C73.4415 24.4886 73.6884 24.1456 73.8575 23.7081C74.0265 23.2673 74.111 22.7585 74.111 22.1818C74.111 21.6117 74.0281 21.1129 73.8624 20.6854C73.6967 20.2545 73.4514 19.9197 73.1266 19.6811C72.8018 19.4392 72.4008 19.3182 71.9235 19.3182C71.4263 19.3182 71.012 19.4458 70.6806 19.701C70.3525 19.9529 70.1056 20.2959 69.9398 20.7301C69.7774 21.161 69.6962 21.6449 69.6962 22.1818C69.6962 22.7254 69.7791 23.2192 69.9448 23.6634C70.1138 24.1042 70.3624 24.4555 70.6906 24.7173C71.022 24.9759 71.433 25.1051 71.9235 25.1051ZM82.5046 22.8778V18.3636H83.6779V26H82.5046V24.7074H82.4251C82.2461 25.0952 81.9677 25.425 81.5899 25.6967C81.212 25.9652 80.7348 26.0994 80.1581 26.0994C79.6808 26.0994 79.2565 25.995 78.8853 25.7862C78.5141 25.5741 78.2224 25.2559 78.0103 24.8317C77.7982 24.4041 77.6921 23.8655 77.6921 23.2159V18.3636H78.8654V23.1364C78.8654 23.6932 79.0212 24.1373 79.3328 24.4688C79.6476 24.8002 80.0487 24.9659 80.5359 24.9659C80.8276 24.9659 81.1242 24.8913 81.4258 24.7422C81.7307 24.593 81.9859 24.3643 82.1914 24.0561C82.4002 23.7479 82.5046 23.3551 82.5046 22.8778ZM86.1069 26V18.3636H87.2802V26H86.1069ZM86.7035 17.0909C86.4748 17.0909 86.2776 17.013 86.1119 16.8572C85.9495 16.7015 85.8683 16.5142 85.8683 16.2955C85.8683 16.0767 85.9495 15.8894 86.1119 15.7337C86.2776 15.5779 86.4748 15.5 86.7035 15.5C86.9322 15.5 87.1277 15.5779 87.2901 15.7337C87.4559 15.8894 87.5387 16.0767 87.5387 16.2955C87.5387 16.5142 87.4559 16.7015 87.2901 16.8572C87.1277 17.013 86.9322 17.0909 86.7035 17.0909ZM92.9109 26.1591C92.1751 26.1591 91.5404 25.9967 91.0068 25.6719C90.4765 25.3438 90.0671 24.8864 89.7788 24.2997C89.4937 23.7098 89.3512 23.0237 89.3512 22.2415C89.3512 21.4593 89.4937 20.7699 89.7788 20.1733C90.0671 19.5734 90.4682 19.1061 90.9819 18.7713C91.4989 18.4332 92.1022 18.2642 92.7916 18.2642C93.1893 18.2642 93.582 18.3305 93.9698 18.4631C94.3576 18.5956 94.7106 18.8111 95.0288 19.1094C95.347 19.4044 95.6005 19.7955 95.7894 20.2827C95.9784 20.7699 96.0728 21.3698 96.0728 22.0824V22.5795H90.1864V21.5653H94.8796C94.8796 21.1345 94.7935 20.75 94.6211 20.4119C94.4521 20.0739 94.2101 19.8071 93.8953 19.6115C93.5837 19.416 93.2158 19.3182 92.7916 19.3182C92.3242 19.3182 91.9199 19.4342 91.5785 19.6662C91.2404 19.8949 90.9802 20.1932 90.798 20.5611C90.6157 20.929 90.5245 21.3234 90.5245 21.7443V22.4205C90.5245 22.9972 90.6239 23.486 90.8228 23.8871C91.025 24.2848 91.3051 24.5881 91.663 24.7969C92.021 25.0024 92.4369 25.1051 92.9109 25.1051C93.2191 25.1051 93.4975 25.062 93.7461 24.9759C93.998 24.8864 94.2151 24.7538 94.3974 24.5781C94.5797 24.3991 94.7205 24.1771 94.82 23.9119L95.9535 24.2301C95.8342 24.6146 95.6337 24.9527 95.3519 25.2443C95.0702 25.5327 94.7222 25.758 94.3079 25.9205C93.8936 26.0795 93.4279 26.1591 92.9109 26.1591ZM98.1376 26V18.3636H99.2711V19.517H99.3507C99.4899 19.1392 99.7418 18.8326 100.106 18.5973C100.471 18.362 100.882 18.2443 101.339 18.2443C101.425 18.2443 101.533 18.246 101.662 18.2493C101.792 18.2526 101.89 18.2576 101.956 18.2642V19.4574C101.916 19.4474 101.825 19.4325 101.682 19.4126C101.543 19.3894 101.396 19.3778 101.24 19.3778C100.869 19.3778 100.537 19.4557 100.246 19.6115C99.9572 19.764 99.7285 19.9761 99.5595 20.2479C99.3938 20.5163 99.3109 20.8229 99.3109 21.1676V26H98.1376ZM106.596 26.1591C105.86 26.1591 105.225 25.9967 104.692 25.6719C104.161 25.3438 103.752 24.8864 103.464 24.2997C103.179 23.7098 103.036 23.0237 103.036 22.2415C103.036 21.4593 103.179 20.7699 103.464 20.1733C103.752 19.5734 104.153 19.1061 104.667 18.7713C105.184 18.4332 105.787 18.2642 106.477 18.2642C106.874 18.2642 107.267 18.3305 107.655 18.4631C108.043 18.5956 108.396 18.8111 108.714 19.1094C109.032 19.4044 109.286 19.7955 109.474 20.2827C109.663 20.7699 109.758 21.3698 109.758 22.0824V22.5795H103.871V21.5653H108.565C108.565 21.1345 108.478 20.75 108.306 20.4119C108.137 20.0739 107.895 19.8071 107.58 19.6115C107.269 19.416 106.901 19.3182 106.477 19.3182C106.009 19.3182 105.605 19.4342 105.263 19.6662C104.925 19.8949 104.665 20.1932 104.483 20.5611C104.301 20.929 104.21 21.3234 104.21 21.7443V22.4205C104.21 22.9972 104.309 23.486 104.508 23.8871C104.71 24.2848 104.99 24.5881 105.348 24.7969C105.706 25.0024 106.122 25.1051 106.596 25.1051C106.904 25.1051 107.183 25.062 107.431 24.9759C107.683 24.8864 107.9 24.7538 108.082 24.5781C108.265 24.3991 108.406 24.1771 108.505 23.9119L109.638 24.2301C109.519 24.6146 109.319 24.9527 109.037 25.2443C108.755 25.5327 108.407 25.758 107.993 25.9205C107.579 26.0795 107.113 26.1591 106.596 26.1591ZM117.232 20.0739L116.178 20.3722C116.111 20.1965 116.014 20.0258 115.884 19.8601C115.758 19.6911 115.586 19.5518 115.367 19.4425C115.149 19.3331 114.869 19.2784 114.527 19.2784C114.06 19.2784 113.67 19.3861 113.359 19.6016C113.051 19.8137 112.896 20.0838 112.896 20.4119C112.896 20.7036 113.003 20.9339 113.215 21.103C113.427 21.272 113.758 21.4129 114.209 21.5256L115.342 21.804C116.025 21.9697 116.534 22.2232 116.869 22.5646C117.204 22.9027 117.371 23.3385 117.371 23.8722C117.371 24.3097 117.245 24.7008 116.993 25.0455C116.744 25.3902 116.396 25.6619 115.949 25.8608C115.502 26.0597 114.981 26.1591 114.388 26.1591C113.609 26.1591 112.964 25.9901 112.454 25.652C111.944 25.3139 111.62 24.8201 111.485 24.1705L112.598 23.892C112.704 24.303 112.905 24.6113 113.2 24.8168C113.498 25.0223 113.887 25.125 114.368 25.125C114.915 25.125 115.349 25.009 115.671 24.777C115.995 24.5417 116.158 24.2599 116.158 23.9318C116.158 23.6667 116.065 23.4446 115.879 23.2656C115.694 23.0833 115.409 22.9474 115.024 22.858L113.752 22.5597C113.052 22.3939 112.539 22.1371 112.21 21.7891C111.886 21.4377 111.723 20.9986 111.723 20.4716C111.723 20.0407 111.844 19.6596 112.086 19.3281C112.331 18.9967 112.664 18.7365 113.085 18.5476C113.51 18.3587 113.99 18.2642 114.527 18.2642C115.283 18.2642 115.876 18.4299 116.307 18.7614C116.741 19.0928 117.049 19.5303 117.232 20.0739ZM129.044 20.0739L127.99 20.3722C127.923 20.1965 127.826 20.0258 127.696 19.8601C127.57 19.6911 127.398 19.5518 127.179 19.4425C126.961 19.3331 126.68 19.2784 126.339 19.2784C125.872 19.2784 125.482 19.3861 125.171 19.6016C124.863 19.8137 124.708 20.0838 124.708 20.4119C124.708 20.7036 124.814 20.9339 125.027 21.103C125.239 21.272 125.57 21.4129 126.021 21.5256L127.154 21.804C127.837 21.9697 128.346 22.2232 128.681 22.5646C129.015 22.9027 129.183 23.3385 129.183 23.8722C129.183 24.3097 129.057 24.7008 128.805 25.0455C128.556 25.3902 128.208 25.6619 127.761 25.8608C127.314 26.0597 126.793 26.1591 126.2 26.1591C125.421 26.1591 124.776 25.9901 124.266 25.652C123.756 25.3139 123.432 24.8201 123.296 24.1705L124.41 23.892C124.516 24.303 124.717 24.6113 125.012 24.8168C125.31 25.0223 125.699 25.125 126.18 25.125C126.727 25.125 127.161 25.009 127.483 24.777C127.807 24.5417 127.97 24.2599 127.97 23.9318C127.97 23.6667 127.877 23.4446 127.691 23.2656C127.506 23.0833 127.221 22.9474 126.836 22.858L125.564 22.5597C124.864 22.3939 124.35 22.1371 124.022 21.7891C123.698 21.4377 123.535 20.9986 123.535 20.4716C123.535 20.0407 123.656 19.6596 123.898 19.3281C124.143 18.9967 124.476 18.7365 124.897 18.5476C125.322 18.3587 125.802 18.2642 126.339 18.2642C127.095 18.2642 127.688 18.4299 128.119 18.7614C128.553 19.0928 128.861 19.5303 129.044 20.0739ZM133.476 26.179C132.992 26.179 132.553 26.0878 132.159 25.9055C131.764 25.7199 131.451 25.4531 131.219 25.1051C130.987 24.7538 130.871 24.3295 130.871 23.8324C130.871 23.3949 130.957 23.0402 131.13 22.7685C131.302 22.4934 131.532 22.2779 131.821 22.1222C132.109 21.9664 132.427 21.8504 132.775 21.7741C133.127 21.6946 133.479 21.6316 133.834 21.5852C134.298 21.5256 134.674 21.4808 134.963 21.451C135.254 21.4179 135.466 21.3632 135.599 21.2869C135.735 21.2107 135.803 21.0781 135.803 20.8892V20.8494C135.803 20.3589 135.669 19.9777 135.4 19.706C135.135 19.4342 134.732 19.2983 134.192 19.2983C133.632 19.2983 133.193 19.4209 132.875 19.6662C132.556 19.9115 132.333 20.1733 132.203 20.4517L131.09 20.054C131.289 19.59 131.554 19.2287 131.885 18.9702C132.22 18.7083 132.585 18.526 132.979 18.4233C133.377 18.3172 133.768 18.2642 134.152 18.2642C134.398 18.2642 134.679 18.294 134.997 18.3537C135.319 18.41 135.629 18.5277 135.927 18.7067C136.229 18.8857 136.479 19.1558 136.678 19.517C136.877 19.8783 136.976 20.3622 136.976 20.9688V26H135.803V24.9659H135.743C135.664 25.1316 135.531 25.3089 135.345 25.4979C135.16 25.6868 134.913 25.8475 134.605 25.9801C134.296 26.1127 133.92 26.179 133.476 26.179ZM133.655 25.125C134.119 25.125 134.51 25.0339 134.828 24.8516C135.15 24.6693 135.392 24.4339 135.554 24.1456C135.72 23.8572 135.803 23.554 135.803 23.2358V22.1619C135.753 22.2216 135.644 22.2763 135.475 22.326C135.309 22.3724 135.117 22.4138 134.898 22.4503C134.683 22.4834 134.472 22.5133 134.267 22.5398C134.064 22.563 133.9 22.5829 133.774 22.5994C133.47 22.6392 133.185 22.7038 132.919 22.7933C132.658 22.8795 132.445 23.0104 132.283 23.1861C132.124 23.3584 132.044 23.5937 132.044 23.892C132.044 24.2997 132.195 24.608 132.497 24.8168C132.802 25.0223 133.188 25.125 133.655 25.125ZM139.557 26V15.8182H140.73V19.5767H140.83C140.916 19.4441 141.035 19.2751 141.187 19.0696C141.343 18.8608 141.565 18.6752 141.854 18.5128C142.145 18.3471 142.54 18.2642 143.037 18.2642C143.68 18.2642 144.247 18.425 144.737 18.7464C145.228 19.0679 145.611 19.5237 145.886 20.1136C146.161 20.7036 146.298 21.3996 146.298 22.2017C146.298 23.0104 146.161 23.7114 145.886 24.3047C145.611 24.8946 145.229 25.352 144.742 25.6768C144.255 25.9983 143.693 26.1591 143.057 26.1591C142.566 26.1591 142.173 26.0779 141.879 25.9155C141.584 25.7498 141.356 25.5625 141.197 25.3537C141.038 25.1416 140.916 24.9659 140.83 24.8267H140.69V26H139.557ZM140.71 22.1818C140.71 22.7585 140.795 23.2673 140.964 23.7081C141.133 24.1456 141.38 24.4886 141.705 24.7372C142.029 24.9825 142.427 25.1051 142.898 25.1051C143.388 25.1051 143.798 24.9759 144.126 24.7173C144.457 24.4555 144.706 24.1042 144.871 23.6634C145.04 23.2192 145.125 22.7254 145.125 22.1818C145.125 21.6449 145.042 21.161 144.876 20.7301C144.714 20.2959 144.467 19.9529 144.136 19.701C143.807 19.4458 143.395 19.3182 142.898 19.3182C142.42 19.3182 142.019 19.4392 141.695 19.6811C141.37 19.9197 141.124 20.2545 140.959 20.6854C140.793 21.1129 140.71 21.6117 140.71 22.1818ZM151.575 26.1591C150.839 26.1591 150.204 25.9967 149.671 25.6719C149.14 25.3438 148.731 24.8864 148.443 24.2997C148.158 23.7098 148.015 23.0237 148.015 22.2415C148.015 21.4593 148.158 20.7699 148.443 20.1733C148.731 19.5734 149.132 19.1061 149.646 18.7713C150.163 18.4332 150.766 18.2642 151.455 18.2642C151.853 18.2642 152.246 18.3305 152.634 18.4631C153.021 18.5956 153.374 18.8111 153.693 19.1094C154.011 19.4044 154.264 19.7955 154.453 20.2827C154.642 20.7699 154.737 21.3698 154.737 22.0824V22.5795H148.85V21.5653H153.543C153.543 21.1345 153.457 20.75 153.285 20.4119C153.116 20.0739 152.874 19.8071 152.559 19.6115C152.248 19.416 151.88 19.3182 151.455 19.3182C150.988 19.3182 150.584 19.4342 150.242 19.6662C149.904 19.8949 149.644 20.1932 149.462 20.5611C149.279 20.929 149.188 21.3234 149.188 21.7443V22.4205C149.188 22.9972 149.288 23.486 149.487 23.8871C149.689 24.2848 149.969 24.5881 150.327 24.7969C150.685 25.0024 151.101 25.1051 151.575 25.1051C151.883 25.1051 152.161 25.062 152.41 24.9759C152.662 24.8864 152.879 24.7538 153.061 24.5781C153.243 24.3991 153.384 24.1771 153.484 23.9119L154.617 24.2301C154.498 24.6146 154.297 24.9527 154.016 25.2443C153.734 25.5327 153.386 25.758 152.972 25.9205C152.557 26.0795 152.092 26.1591 151.575 26.1591ZM156.801 26V18.3636H157.935V19.517H158.015C158.154 19.1392 158.406 18.8326 158.77 18.5973C159.135 18.362 159.546 18.2443 160.003 18.2443C160.089 18.2443 160.197 18.246 160.326 18.2493C160.456 18.2526 160.553 18.2576 160.62 18.2642V19.4574C160.58 19.4474 160.489 19.4325 160.346 19.4126C160.207 19.3894 160.059 19.3778 159.904 19.3778C159.532 19.3778 159.201 19.4557 158.909 19.6115C158.621 19.764 158.392 19.9761 158.223 20.2479C158.058 20.5163 157.975 20.8229 157.975 21.1676V26H156.801ZM47.1571 43V35.3636H48.2906V36.5568H48.3901C48.5491 36.1491 48.806 35.8326 49.1607 35.6072C49.5153 35.3786 49.9412 35.2642 50.4384 35.2642C50.9421 35.2642 51.3614 35.3786 51.6962 35.6072C52.0342 35.8326 52.2977 36.1491 52.4866 36.5568H52.5662C52.7617 36.1624 53.0551 35.8492 53.4462 35.6172C53.8373 35.3819 54.3063 35.2642 54.8531 35.2642C55.5359 35.2642 56.0944 35.478 56.5286 35.9055C56.9627 36.3298 57.1798 36.991 57.1798 37.8892V43H56.0065V37.8892C56.0065 37.3258 55.8524 36.9231 55.5442 36.6811C55.2359 36.4392 54.873 36.3182 54.4554 36.3182C53.9185 36.3182 53.5025 36.4806 53.2075 36.8054C52.9125 37.1269 52.7651 37.5346 52.7651 38.0284V43H51.5719V37.7699C51.5719 37.3357 51.431 36.986 51.1493 36.7209C50.8676 36.4524 50.5046 36.3182 50.0605 36.3182C49.7556 36.3182 49.4706 36.3994 49.2054 36.5618C48.9436 36.7242 48.7314 36.9496 48.569 37.2379C48.4099 37.523 48.3304 37.8527 48.3304 38.2273V43H47.1571ZM61.8522 43.179C61.3683 43.179 60.9292 43.0878 60.5348 42.9055C60.1403 42.7199 59.8271 42.4531 59.5951 42.1051C59.3631 41.7538 59.2471 41.3295 59.2471 40.8324C59.2471 40.3949 59.3333 40.0402 59.5056 39.7685C59.678 39.4934 59.9083 39.2779 60.1967 39.1222C60.485 38.9664 60.8032 38.8504 61.1512 38.7741C61.5026 38.6946 61.8555 38.6316 62.2102 38.5852C62.6742 38.5256 63.0504 38.4808 63.3387 38.451C63.6304 38.4179 63.8425 38.3632 63.9751 38.2869C64.111 38.2107 64.1789 38.0781 64.1789 37.8892V37.8494C64.1789 37.3589 64.0447 36.9777 63.7762 36.706C63.5111 36.4342 63.1084 36.2983 62.5681 36.2983C62.008 36.2983 61.5689 36.4209 61.2507 36.6662C60.9325 36.9115 60.7088 37.1733 60.5795 37.4517L59.4659 37.054C59.6647 36.59 59.9299 36.2287 60.2613 35.9702C60.5961 35.7083 60.9607 35.526 61.3551 35.4233C61.7528 35.3172 62.1439 35.2642 62.5284 35.2642C62.7736 35.2642 63.0554 35.294 63.3735 35.3537C63.695 35.41 64.0049 35.5277 64.3032 35.7067C64.6048 35.8857 64.8551 36.1558 65.0539 36.517C65.2528 36.8783 65.3522 37.3622 65.3522 37.9688V43H64.1789V41.9659H64.1193C64.0397 42.1316 63.9072 42.3089 63.7215 42.4979C63.5359 42.6868 63.289 42.8475 62.9808 42.9801C62.6725 43.1127 62.2964 43.179 61.8522 43.179ZM62.0312 42.125C62.4952 42.125 62.8863 42.0339 63.2045 41.8516C63.526 41.6693 63.768 41.4339 63.9304 41.1456C64.0961 40.8572 64.1789 40.554 64.1789 40.2358V39.1619C64.1292 39.2216 64.0198 39.2763 63.8508 39.326C63.6851 39.3724 63.4929 39.4138 63.2741 39.4503C63.0587 39.4834 62.8482 39.5133 62.6427 39.5398C62.4405 39.563 62.2765 39.5829 62.1505 39.5994C61.8456 39.6392 61.5606 39.7038 61.2954 39.7933C61.0336 39.8795 60.8215 40.0104 60.659 40.1861C60.5 40.3584 60.4204 40.5937 60.4204 40.892C60.4204 41.2997 60.5712 41.608 60.8728 41.8168C61.1778 42.0223 61.5639 42.125 62.0312 42.125ZM62.071 34.3295L63.284 32.0227H64.6562L63.1051 34.3295H62.071ZM73.1828 37.0739L72.1289 37.3722C72.0626 37.1965 71.9648 37.0258 71.8355 36.8601C71.7096 36.6911 71.5372 36.5518 71.3185 36.4425C71.0997 36.3331 70.8197 36.2784 70.4783 36.2784C70.011 36.2784 69.6215 36.3861 69.31 36.6016C69.0017 36.8137 68.8476 37.0838 68.8476 37.4119C68.8476 37.7036 68.9537 37.9339 69.1658 38.103C69.3779 38.272 69.7094 38.4129 70.1601 38.5256L71.2936 38.804C71.9764 38.9697 72.4852 39.2232 72.8199 39.5646C73.1547 39.9027 73.322 40.3385 73.322 40.8722C73.322 41.3097 73.1961 41.7008 72.9442 42.0455C72.6956 42.3902 72.3476 42.6619 71.9002 42.8608C71.4527 43.0597 70.9324 43.1591 70.3391 43.1591C69.5602 43.1591 68.9156 42.9901 68.4051 42.652C67.8947 42.3139 67.5716 41.8201 67.4357 41.1705L68.5493 40.892C68.6554 41.303 68.8559 41.6113 69.1509 41.8168C69.4492 42.0223 69.8386 42.125 70.3192 42.125C70.8661 42.125 71.3003 42.009 71.6218 41.777C71.9466 41.5417 72.109 41.2599 72.109 40.9318C72.109 40.6667 72.0162 40.4446 71.8306 40.2656C71.645 40.0833 71.3599 39.9474 70.9754 39.858L69.7027 39.5597C69.0034 39.3939 68.4897 39.1371 68.1615 38.7891C67.8367 38.4377 67.6743 37.9986 67.6743 37.4716C67.6743 37.0407 67.7953 36.6596 68.0372 36.3281C68.2825 35.9967 68.6156 35.7365 69.0365 35.5476C69.4608 35.3587 69.9414 35.2642 70.4783 35.2642C71.234 35.2642 71.8272 35.4299 72.2581 35.7614C72.6923 36.0928 73.0005 36.5303 73.1828 37.0739ZM79.5857 43V35.3636H80.759V43H79.5857ZM80.1823 34.0909C79.9536 34.0909 79.7564 34.013 79.5907 33.8572C79.4283 33.7015 79.3471 33.5142 79.3471 33.2955C79.3471 33.0767 79.4283 32.8894 79.5907 32.7337C79.7564 32.5779 79.9536 32.5 80.1823 32.5C80.411 32.5 80.6065 32.5779 80.7689 32.7337C80.9347 32.8894 81.0175 33.0767 81.0175 33.2955C81.0175 33.5142 80.9347 33.7015 80.7689 33.8572C80.6065 34.013 80.411 34.0909 80.1823 34.0909ZM84.3613 38.4062V43H83.188V35.3636H84.3215V36.5568H84.4209C84.5999 36.169 84.8717 35.8575 85.2363 35.6222C85.6008 35.3835 86.0715 35.2642 86.6482 35.2642C87.1652 35.2642 87.6177 35.3703 88.0054 35.5824C88.3932 35.7912 88.6948 36.1094 88.9103 36.5369C89.1257 36.9612 89.2334 37.4981 89.2334 38.1477V43H88.0601V38.2273C88.0601 37.6274 87.9043 37.16 87.5928 36.8253C87.2812 36.4872 86.8537 36.3182 86.3101 36.3182C85.9356 36.3182 85.6008 36.3994 85.3059 36.5618C85.0142 36.7242 84.7838 36.9612 84.6148 37.2727C84.4458 37.5843 84.3613 37.9621 84.3613 38.4062ZM94.7398 46.0227C94.173 46.0227 93.6858 45.9498 93.2782 45.804C92.8705 45.6615 92.5308 45.4725 92.259 45.2372C91.9905 45.0052 91.7767 44.7566 91.6176 44.4915L92.5523 43.8352C92.6584 43.9744 92.7926 44.1335 92.955 44.3125C93.1174 44.4948 93.3395 44.6522 93.6212 44.7848C93.9062 44.9207 94.2791 44.9886 94.7398 44.9886C95.3563 44.9886 95.865 44.8395 96.2661 44.5412C96.6671 44.2429 96.8676 43.7756 96.8676 43.1392V41.5881H96.7682C96.682 41.7273 96.5594 41.8996 96.4003 42.1051C96.2445 42.3073 96.0192 42.4879 95.7242 42.647C95.4325 42.8028 95.0381 42.8807 94.5409 42.8807C93.9245 42.8807 93.371 42.7348 92.8804 42.4432C92.3932 42.1515 92.0071 41.7273 91.722 41.1705C91.4403 40.6136 91.2995 39.9375 91.2995 39.142C91.2995 38.3598 91.437 37.6787 91.7121 37.0987C91.9872 36.5154 92.37 36.0646 92.8605 35.7464C93.3511 35.425 93.9178 35.2642 94.5608 35.2642C95.058 35.2642 95.4524 35.3471 95.7441 35.5128C96.039 35.6752 96.2644 35.8608 96.4202 36.0696C96.5793 36.2751 96.7019 36.4441 96.7881 36.5767H96.9074V35.3636H98.0409V43.2188C98.0409 43.875 97.8918 44.4086 97.5935 44.8196C97.2985 45.2339 96.9008 45.5372 96.4003 45.7294C95.9032 45.925 95.3497 46.0227 94.7398 46.0227ZM94.7 41.8267C95.1707 41.8267 95.5684 41.719 95.8932 41.5036C96.218 41.2881 96.4649 40.9782 96.634 40.5739C96.803 40.1695 96.8875 39.6856 96.8875 39.1222C96.8875 38.572 96.8047 38.0864 96.639 37.6655C96.4732 37.2446 96.228 36.9148 95.9032 36.6761C95.5783 36.4375 95.1773 36.3182 94.7 36.3182C94.2029 36.3182 93.7886 36.4441 93.4571 36.696C93.129 36.9479 92.8821 37.286 92.7164 37.7102C92.554 38.1345 92.4728 38.6051 92.4728 39.1222C92.4728 39.6525 92.5556 40.1214 92.7213 40.5291C92.8904 40.9335 93.139 41.2517 93.4671 41.4837C93.7985 41.7124 94.2095 41.8267 94.7 41.8267ZM100.469 43V35.3636H101.602V36.517H101.682C101.821 36.1392 102.073 35.8326 102.437 35.5973C102.802 35.362 103.213 35.2443 103.67 35.2443C103.757 35.2443 103.864 35.246 103.994 35.2493C104.123 35.2526 104.221 35.2576 104.287 35.2642V36.4574C104.247 36.4474 104.156 36.4325 104.013 36.4126C103.874 36.3894 103.727 36.3778 103.571 36.3778C103.2 36.3778 102.868 36.4557 102.577 36.6115C102.288 36.764 102.06 36.9761 101.891 37.2479C101.725 37.5163 101.642 37.8229 101.642 38.1676V43H100.469ZM108.927 43.1591C108.191 43.1591 107.556 42.9967 107.023 42.6719C106.493 42.3438 106.083 41.8864 105.795 41.2997C105.51 40.7098 105.367 40.0237 105.367 39.2415C105.367 38.4593 105.51 37.7699 105.795 37.1733C106.083 36.5734 106.484 36.1061 106.998 35.7713C107.515 35.4332 108.118 35.2642 108.808 35.2642C109.205 35.2642 109.598 35.3305 109.986 35.4631C110.374 35.5956 110.727 35.8111 111.045 36.1094C111.363 36.4044 111.617 36.7955 111.805 37.2827C111.994 37.7699 112.089 38.3698 112.089 39.0824V39.5795H106.203V38.5653H110.896C110.896 38.1345 110.81 37.75 110.637 37.4119C110.468 37.0739 110.226 36.8071 109.911 36.6115C109.6 36.416 109.232 36.3182 108.808 36.3182C108.34 36.3182 107.936 36.4342 107.595 36.6662C107.256 36.8949 106.996 37.1932 106.814 37.5611C106.632 37.929 106.541 38.3234 106.541 38.7443V39.4205C106.541 39.9972 106.64 40.486 106.839 40.8871C107.041 41.2848 107.321 41.5881 107.679 41.7969C108.037 42.0024 108.453 42.1051 108.927 42.1051C109.235 42.1051 109.514 42.062 109.762 41.9759C110.014 41.8864 110.231 41.7538 110.413 41.5781C110.596 41.3991 110.737 41.1771 110.836 40.9119L111.97 41.2301C111.85 41.6146 111.65 41.9527 111.368 42.2443C111.086 42.5327 110.738 42.758 110.324 42.9205C109.91 43.0795 109.444 43.1591 108.927 43.1591ZM119.563 37.0739L118.509 37.3722C118.442 37.1965 118.345 37.0258 118.215 36.8601C118.09 36.6911 117.917 36.5518 117.698 36.4425C117.48 36.3331 117.2 36.2784 116.858 36.2784C116.391 36.2784 116.001 36.3861 115.69 36.6016C115.382 36.8137 115.228 37.0838 115.228 37.4119C115.228 37.7036 115.334 37.9339 115.546 38.103C115.758 38.272 116.089 38.4129 116.54 38.5256L117.674 38.804C118.356 38.9697 118.865 39.2232 119.2 39.5646C119.535 39.9027 119.702 40.3385 119.702 40.8722C119.702 41.3097 119.576 41.7008 119.324 42.0455C119.076 42.3902 118.728 42.6619 118.28 42.8608C117.833 43.0597 117.312 43.1591 116.719 43.1591C115.94 43.1591 115.295 42.9901 114.785 42.652C114.275 42.3139 113.951 41.8201 113.816 41.1705L114.929 40.892C115.035 41.303 115.236 41.6113 115.531 41.8168C115.829 42.0223 116.219 42.125 116.699 42.125C117.246 42.125 117.68 42.009 118.002 41.777C118.326 41.5417 118.489 41.2599 118.489 40.9318C118.489 40.6667 118.396 40.4446 118.21 40.2656C118.025 40.0833 117.74 39.9474 117.355 39.858L116.083 39.5597C115.383 39.3939 114.87 39.1371 114.541 38.7891C114.217 38.4377 114.054 37.9986 114.054 37.4716C114.054 37.0407 114.175 36.6596 114.417 36.3281C114.662 35.9967 114.996 35.7365 115.416 35.5476C115.841 35.3587 116.321 35.2642 116.858 35.2642C117.614 35.2642 118.207 35.4299 118.638 35.7614C119.072 36.0928 119.38 36.5303 119.563 37.0739ZM123.995 43.179C123.511 43.179 123.072 43.0878 122.678 42.9055C122.283 42.7199 121.97 42.4531 121.738 42.1051C121.506 41.7538 121.39 41.3295 121.39 40.8324C121.39 40.3949 121.476 40.0402 121.649 39.7685C121.821 39.4934 122.051 39.2779 122.34 39.1222C122.628 38.9664 122.946 38.8504 123.294 38.7741C123.646 38.6946 123.999 38.6316 124.353 38.5852C124.817 38.5256 125.193 38.4808 125.482 38.451C125.773 38.4179 125.986 38.3632 126.118 38.2869C126.254 38.2107 126.322 38.0781 126.322 37.8892V37.8494C126.322 37.3589 126.188 36.9777 125.919 36.706C125.654 36.4342 125.251 36.2983 124.711 36.2983C124.151 36.2983 123.712 36.4209 123.394 36.6662C123.076 36.9115 122.852 37.1733 122.723 37.4517L121.609 37.054C121.808 36.59 122.073 36.2287 122.404 35.9702C122.739 35.7083 123.104 35.526 123.498 35.4233C123.896 35.3172 124.287 35.2642 124.671 35.2642C124.917 35.2642 125.198 35.294 125.517 35.3537C125.838 35.41 126.148 35.5277 126.446 35.7067C126.748 35.8857 126.998 36.1558 127.197 36.517C127.396 36.8783 127.495 37.3622 127.495 37.9688V43H126.322V41.9659H126.262C126.183 42.1316 126.05 42.3089 125.865 42.4979C125.679 42.6868 125.432 42.8475 125.124 42.9801C124.816 43.1127 124.439 43.179 123.995 43.179ZM124.174 42.125C124.638 42.125 125.029 42.0339 125.348 41.8516C125.669 41.6693 125.911 41.4339 126.073 41.1456C126.239 40.8572 126.322 40.554 126.322 40.2358V39.1619C126.272 39.2216 126.163 39.2763 125.994 39.326C125.828 39.3724 125.636 39.4138 125.417 39.4503C125.202 39.4834 124.991 39.5133 124.786 39.5398C124.584 39.563 124.42 39.5829 124.294 39.5994C123.989 39.6392 123.704 39.7038 123.438 39.7933C123.177 39.8795 122.965 40.0104 122.802 40.1861C122.643 40.3584 122.563 40.5937 122.563 40.892C122.563 41.2997 122.714 41.608 123.016 41.8168C123.321 42.0223 123.707 42.125 124.174 42.125ZM136.381 43.179C135.898 43.179 135.458 43.0878 135.064 42.9055C134.67 42.7199 134.356 42.4531 134.124 42.1051C133.892 41.7538 133.776 41.3295 133.776 40.8324C133.776 40.3949 133.863 40.0402 134.035 39.7685C134.207 39.4934 134.438 39.2779 134.726 39.1222C135.014 38.9664 135.332 38.8504 135.68 38.7741C136.032 38.6946 136.385 38.6316 136.739 38.5852C137.203 38.5256 137.58 38.4808 137.868 38.451C138.16 38.4179 138.372 38.3632 138.504 38.2869C138.64 38.2107 138.708 38.0781 138.708 37.8892V37.8494C138.708 37.3589 138.574 36.9777 138.305 36.706C138.04 36.4342 137.638 36.2983 137.097 36.2983C136.537 36.2983 136.098 36.4209 135.78 36.6662C135.462 36.9115 135.238 37.1733 135.109 37.4517L133.995 37.054C134.194 36.59 134.459 36.2287 134.791 35.9702C135.125 35.7083 135.49 35.526 135.884 35.4233C136.282 35.3172 136.673 35.2642 137.058 35.2642C137.303 35.2642 137.585 35.294 137.903 35.3537C138.224 35.41 138.534 35.5277 138.832 35.7067C139.134 35.8857 139.384 36.1558 139.583 36.517C139.782 36.8783 139.881 37.3622 139.881 37.9688V43H138.708V41.9659H138.648C138.569 42.1316 138.436 42.3089 138.251 42.4979C138.065 42.6868 137.818 42.8475 137.51 42.9801C137.202 43.1127 136.826 43.179 136.381 43.179ZM136.56 42.125C137.024 42.125 137.416 42.0339 137.734 41.8516C138.055 41.6693 138.297 41.4339 138.46 41.1456C138.625 40.8572 138.708 40.554 138.708 40.2358V39.1619C138.658 39.2216 138.549 39.2763 138.38 39.326C138.214 39.3724 138.022 39.4138 137.803 39.4503C137.588 39.4834 137.377 39.5133 137.172 39.5398C136.97 39.563 136.806 39.5829 136.68 39.5994C136.375 39.6392 136.09 39.7038 135.825 39.7933C135.563 39.8795 135.351 40.0104 135.188 40.1861C135.029 40.3584 134.95 40.5937 134.95 40.892C134.95 41.2997 135.1 41.608 135.402 41.8168C135.707 42.0223 136.093 42.125 136.56 42.125ZM147.513 45.8636V41.8267H147.414C147.328 41.9659 147.205 42.1416 147.046 42.3537C146.887 42.5625 146.66 42.7498 146.365 42.9155C146.07 43.0779 145.677 43.1591 145.186 43.1591C144.55 43.1591 143.988 42.9983 143.501 42.6768C143.014 42.352 142.633 41.8946 142.358 41.3047C142.083 40.7114 141.945 40.0104 141.945 39.2017C141.945 38.3996 142.083 37.7036 142.358 37.1136C142.633 36.5237 143.016 36.0679 143.506 35.7464C143.997 35.425 144.563 35.2642 145.206 35.2642C145.704 35.2642 146.096 35.3471 146.385 35.5128C146.676 35.6752 146.898 35.8608 147.051 36.0696C147.207 36.2751 147.328 36.4441 147.414 36.5767H147.553V35.3636H148.686V45.8636H147.513ZM145.346 42.1051C145.816 42.1051 146.214 41.9825 146.539 41.7372C146.864 41.4886 147.11 41.1456 147.28 40.7081C147.449 40.2673 147.533 39.7585 147.533 39.1818C147.533 38.6117 147.45 38.1129 147.284 37.6854C147.119 37.2545 146.874 36.9197 146.549 36.6811C146.224 36.4392 145.823 36.3182 145.346 36.3182C144.848 36.3182 144.434 36.4458 144.103 36.701C143.775 36.9529 143.528 37.2959 143.362 37.7301C143.2 38.161 143.118 38.6449 143.118 39.1818C143.118 39.7254 143.201 40.2192 143.367 40.6634C143.536 41.1042 143.784 41.4555 144.113 41.7173C144.444 41.9759 144.855 42.1051 145.346 42.1051ZM155.927 39.8778V35.3636H157.1V43H155.927V41.7074H155.847C155.668 42.0952 155.39 42.425 155.012 42.6967C154.634 42.9652 154.157 43.0994 153.58 43.0994C153.103 43.0994 152.679 42.995 152.307 42.7862C151.936 42.5741 151.645 42.2559 151.432 41.8317C151.22 41.4041 151.114 40.8655 151.114 40.2159V35.3636H152.288V40.1364C152.288 40.6932 152.443 41.1373 152.755 41.4688C153.07 41.8002 153.471 41.9659 153.958 41.9659C154.25 41.9659 154.546 41.8913 154.848 41.7422C155.153 41.593 155.408 41.3643 155.613 41.0561C155.822 40.7479 155.927 40.3551 155.927 39.8778ZM159.529 43V35.3636H160.702V43H159.529ZM159.589 34.3295L160.802 32.0227H162.174L160.623 34.3295H159.589ZM163.986 43.0795C163.741 43.0795 163.531 42.9917 163.355 42.8161C163.179 42.6404 163.091 42.4299 163.091 42.1847C163.091 41.9394 163.179 41.7289 163.355 41.5533C163.531 41.3776 163.741 41.2898 163.986 41.2898C164.232 41.2898 164.442 41.3776 164.618 41.5533C164.793 41.7289 164.881 41.9394 164.881 42.1847C164.881 42.3471 164.84 42.4962 164.757 42.6321C164.677 42.768 164.57 42.8774 164.434 42.9602C164.301 43.0398 164.152 43.0795 163.986 43.0795ZM163.986 37.4119C163.741 37.4119 163.531 37.3241 163.355 37.1484C163.179 36.9728 163.091 36.7623 163.091 36.517C163.091 36.2718 163.179 36.0613 163.355 35.8857C163.531 35.71 163.741 35.6222 163.986 35.6222C164.232 35.6222 164.442 35.71 164.618 35.8857C164.793 36.0613 164.881 36.2718 164.881 36.517C164.881 36.6795 164.84 36.8286 164.757 36.9645C164.677 37.1004 164.57 37.2098 164.434 37.2926C164.301 37.3722 164.152 37.4119 163.986 37.4119Z" fill="#026972"/>
<path d="M192.204 114.633C192.111 114.376 192.019 114.119 191.926 113.862C191.403 112.413 190.879 110.965 190.356 109.517C190.001 108.535 189.651 107.551 189.288 106.572C189.079 106.009 189.262 105.477 189.635 105.156C190.284 104.598 191.308 104.864 191.608 105.664C192.277 107.448 192.949 109.231 193.62 111.014C193.622 111.017 193.624 111.019 193.637 111.039C193.626 110.919 193.623 110.816 193.608 110.714C193.496 109.946 194.095 109.265 194.872 109.281C195.393 109.291 195.86 109.645 196.025 110.152C196.082 110.328 196.14 110.504 196.206 110.704C196.257 110.552 196.237 110.385 196.284 110.229C196.334 110.064 196.418 109.909 196.531 109.778C196.738 109.539 197.041 109.384 197.356 109.354C198.024 109.289 198.617 109.778 198.703 110.413C198.727 110.59 198.774 110.765 198.818 110.941C198.819 110.739 198.852 110.545 198.93 110.359C199.119 109.913 199.583 109.611 200.082 109.613C200.568 109.616 201.04 109.925 201.213 110.372C201.554 111.254 201.714 112.167 201.918 113.085C202.181 114.26 202.524 115.409 202.88 116.558C203.088 117.225 203.067 117.883 202.839 118.537C202.558 119.342 202.051 119.989 201.4 120.53C200.617 121.18 199.72 121.598 198.726 121.808C197.729 122.018 196.742 121.993 195.776 121.647C195.26 121.463 194.805 121.181 194.413 120.797C193.71 120.108 193.028 119.4 192.382 118.657C191.983 118.198 191.605 117.723 191.228 117.246C190.862 116.782 190.444 116.371 189.985 115.999C189.417 115.537 188.862 115.059 188.314 114.574C188.054 114.345 188.006 114.038 188.066 113.712C188.144 113.288 188.332 113.1 188.796 113.028C189.531 112.914 190.229 113.061 190.864 113.433C191.366 113.727 191.796 114.117 192.144 114.589C192.158 114.607 192.172 114.624 192.186 114.641C192.192 114.638 192.198 114.636 192.204 114.633V114.633Z" fill="#026972"/>
<path d="M184.615 105.839C184.626 104.567 185.012 103.419 185.795 102.414C186.64 101.331 187.747 100.649 189.096 100.379C190.339 100.13 191.537 100.29 192.663 100.871C194.287 101.708 195.277 103.032 195.633 104.818C195.83 105.804 195.737 106.772 195.399 107.717C195.385 107.757 195.375 107.798 195.363 107.839C195.285 108.095 195.043 108.232 194.807 108.154C194.558 108.073 194.438 107.813 194.537 107.56C194.721 107.091 194.826 106.605 194.852 106.103C194.88 105.565 194.816 105.034 194.655 104.519C194.244 103.199 193.412 102.234 192.164 101.63C191.449 101.285 190.688 101.136 189.895 101.188C188.734 101.265 187.725 101.706 186.895 102.523C186.127 103.279 185.668 104.199 185.532 105.268C185.372 106.527 185.677 107.672 186.435 108.689C186.951 109.383 187.616 109.895 188.427 110.211C188.662 110.303 188.772 110.543 188.685 110.769C188.597 110.996 188.345 111.112 188.12 111.014C187.603 110.788 187.111 110.517 186.673 110.157C186.039 109.638 185.535 109.014 185.179 108.277C184.876 107.652 184.689 106.993 184.634 106.298C184.623 106.145 184.62 105.992 184.615 105.838L184.615 105.839Z" fill="#026972"/>
<path d="M190.153 102.939C189.054 102.991 188.217 103.476 187.68 104.443C187.124 105.446 187.276 106.754 188.033 107.618C188.313 107.938 188.642 108.188 189.033 108.357C189.252 108.452 189.347 108.691 189.262 108.914C189.18 109.128 188.949 109.24 188.724 109.17C188.551 109.115 188.395 109.024 188.243 108.928C187.258 108.306 186.665 107.418 186.513 106.269C186.349 105.028 186.737 103.954 187.638 103.082C188.235 102.504 188.959 102.168 189.791 102.093C191.078 101.978 192.153 102.415 192.998 103.385C193.49 103.948 193.764 104.616 193.849 105.36C193.913 105.914 193.847 106.453 193.668 106.978C193.599 107.183 193.415 107.299 193.214 107.276C193.002 107.253 192.851 107.105 192.82 106.89C192.809 106.813 192.831 106.741 192.853 106.669C193.193 105.558 192.958 104.577 192.149 103.749C191.697 103.287 191.128 103.029 190.478 102.959C190.37 102.948 190.263 102.941 190.153 102.939V102.939Z" fill="#026972"/>
<path d="M121.048 70.5915C121.048 63.0471 115.24 56.1914 105.869 56.1914C96.2592 56.1914 90.8105 63.2567 90.8105 70.7112C90.8105 78.5549 96.828 85.0514 105.66 85.0514C114.851 85.0514 121.048 78.6747 121.048 70.5915ZM94.9719 70.7112C94.9719 66.011 98.1453 59.9935 106.019 59.9935C113.354 59.9935 116.916 65.8912 116.916 70.5615C116.916 72.9865 115.898 76.0401 114.102 77.9861C112.156 80.0817 108.893 81.3391 105.899 81.3391C100.001 81.3092 94.9719 77.1179 94.9719 70.7112Z" fill="#026972"/>
<path d="M129.784 56.5801H125.742V84.6916H129.784V56.5801Z" fill="#026972"/>
<path d="M150.206 73.6745L158.858 62.8071V84.6916H162.899V56.5801H159.157L149.817 68.1061L140.476 56.5801H136.674V84.6916H140.715V62.8071L149.457 73.6745H150.206Z" fill="#026972"/>
<path d="M53.1135 89.9043C49.9102 89.9043 48.084 92.2694 48.084 94.7542C48.084 97.3588 50.0898 99.5443 53.0237 99.5443C56.0774 99.5443 58.1431 97.4187 58.1431 94.7243C58.173 92.1796 56.2271 89.9043 53.1135 89.9043ZM55.8678 97.1792C55.2092 97.8677 54.1314 98.2869 53.1435 98.2869C51.1676 98.2869 49.4911 96.8798 49.4911 94.7542C49.4911 93.1975 50.5389 91.1916 53.1734 91.1916C55.6283 91.1916 56.7959 93.1675 56.7959 94.7243C56.7959 95.5027 56.4666 96.5205 55.8678 97.1792Z" fill="#026972"/>
<path d="M67.3966 97.2944L61.0797 90.0195H60.002V99.39H61.2593V92.175L67.5163 99.39H68.6839V90.0195H67.3966V97.2944Z" fill="#026972"/>
<path d="M77.7848 95.3485C77.7848 96.2765 77.695 96.7555 77.5154 97.0848C77.2759 97.5339 76.6172 98.3123 75.0904 98.3123C74.0127 98.3123 73.384 97.953 72.9948 97.5339C72.5158 97.0549 72.396 96.5759 72.396 95.3485V90.0195H71.0488V95.3485C71.0488 95.9771 71.0488 97.0549 71.5578 97.8932C72.3062 99.0607 73.7432 99.5397 75.0904 99.5397C76.1682 99.5397 77.216 99.2703 78.0542 98.5218C79.1021 97.5638 79.1021 96.2765 79.1021 95.3485V90.0195H77.7549V95.3485H77.7848Z" fill="#026972"/>
<path d="M89.7895 93.8815L86.6461 90.0195H85.3887V99.39H86.7359V92.1152L89.6399 95.7376H89.9093L92.7833 92.1152V99.39H94.1305V90.0195H92.8731L89.7895 93.8815Z" fill="#026972"/>
<path d="M98.1382 90.0195H96.791V99.39H98.1382V90.0195Z" fill="#026972"/>
<path d="M105.42 95.9817H107.216V97.9276C106.318 98.227 105.869 98.3467 105.181 98.3467C102.905 98.3467 101.408 96.79 101.408 94.7243C101.408 92.5089 103.175 91.1018 105.061 91.1018C105.57 91.1018 106.857 91.1916 108.384 92.0898V90.7126C107.366 90.2935 106.408 89.9043 105.091 89.9043C101.887 89.9043 100.031 92.3293 100.031 94.7842C100.031 96.9097 101.528 99.5143 105.151 99.5143C106.707 99.5143 107.875 99.0652 108.593 98.7359V94.7842H105.45V95.9817H105.42Z" fill="#026972"/>
<path d="M114.939 94.9606C115.957 94.5714 116.496 93.7331 116.496 92.6554C116.496 91.6974 116.017 90.7693 115.029 90.3502C114.43 90.0807 113.861 90.0508 113.412 90.0508H111.047V99.4213H112.394V95.3498H112.753C113.412 95.3498 113.861 95.3498 114.759 96.5173C115.059 96.9065 116.376 98.9722 116.675 99.4213H118.262C117.603 98.5232 117.394 98.1939 116.975 97.5652C116.316 96.3676 115.777 95.5294 114.939 94.9606ZM114.22 94.0026C113.861 94.1523 113.113 94.1523 112.903 94.1523H112.394V91.1884H112.813C113.622 91.1884 114.071 91.2483 114.4 91.398C114.849 91.6075 115.118 92.1165 115.118 92.6554C115.118 93.1643 114.879 93.7331 114.22 94.0026Z" fill="#026972"/>
<path d="M122.717 89.9902L118.676 99.4206H120.053L121.22 96.6664H125.202L126.46 99.4206H127.837L123.645 89.9902H122.717ZM121.759 95.4389L123.166 92.0559L124.693 95.4389H121.759Z" fill="#026972"/>
<path d="M129.784 94.7542C129.784 92.8681 131.221 91.1916 133.496 91.1916C134.634 91.1916 135.742 91.5509 136.73 92.1197V90.6827C136.131 90.4132 134.873 89.9043 133.436 89.9043C130.473 89.9043 128.377 92.1496 128.377 94.7243C128.377 96.9097 129.934 99.5143 133.406 99.5143C134.604 99.5143 135.742 99.2748 136.819 98.6761V97.2091C135.831 97.8677 134.664 98.2569 133.496 98.2569C131.011 98.2869 129.784 96.4906 129.784 94.7542Z" fill="#026972"/>
<path d="M140.501 90.0195H139.154V99.39H140.501V90.0195Z" fill="#026972"/>
<path d="M146.645 89.3909H147.363L149.608 87.3252H147.632L146.645 89.3909Z" fill="#026972"/>
<path d="M147.598 89.9043C144.395 89.9043 142.568 92.2694 142.568 94.7542C142.568 97.3588 144.574 99.5443 147.508 99.5443C150.562 99.5443 152.627 97.4187 152.627 94.7243C152.657 92.1796 150.741 89.9043 147.598 89.9043ZM150.352 97.1792C149.694 97.8677 148.616 98.2869 147.628 98.2869C145.652 98.2869 143.975 96.8798 143.975 94.7542C143.975 93.1975 145.023 91.1916 147.658 91.1916C150.113 91.1916 151.28 93.1675 151.28 94.7243C151.31 95.5027 150.951 96.5205 150.352 97.1792Z" fill="#026972"/>
<path d="M161.611 90.0195V97.2944L155.295 90.0195H154.217V99.39H155.474V92.175L161.731 99.39H162.899V90.0195H161.611Z" fill="#026972"/>
<path d="M62.7895 67.9863C63.1188 67.9863 63.3583 67.7168 63.3583 67.4175C63.3583 67.1181 63.0889 66.8486 62.7895 66.8486C62.4902 66.8486 62.2207 67.1181 62.2207 67.4175C62.2207 67.7168 62.4902 67.9863 62.7895 67.9863Z" fill="#026972"/>
<path d="M69.344 68.3772C69.3141 68.2874 69.2243 68.2275 69.1045 68.2275H68.7153H68.4459H68.1166H67.8471H67.428C67.3382 68.2275 67.2484 68.2874 67.1885 68.3772L66.0808 70.9519H65.003L63.8954 68.3772C63.8654 68.2874 63.7756 68.2275 63.6558 68.2275H62.7877H61.9195C61.8296 68.2275 61.7398 68.2874 61.68 68.3772L60.5124 71.1016C60.4525 71.2213 60.5124 71.3411 60.6022 71.4309C60.6321 71.4608 60.692 71.4608 60.7219 71.4608C60.8118 71.4608 60.9016 71.4009 60.9614 71.3111L61.9793 68.9161L62.0392 71.2513L61.65 74.2151C61.65 74.3348 61.7099 74.4546 61.7997 74.4845C61.8297 74.4845 61.8596 74.5145 61.8895 74.5145C62.0093 74.5145 62.129 74.4247 62.129 74.3049L62.4883 71.4908H62.9972L63.3565 74.3049C63.3864 74.4247 63.4762 74.5145 63.596 74.5145C63.6259 74.5145 63.6559 74.5145 63.6858 74.4845C63.8055 74.4546 63.8654 74.3348 63.8355 74.2151L63.4463 71.2513L63.5062 68.9161L64.524 71.3111C64.524 71.3111 64.524 71.3411 64.554 71.3411C64.554 71.3411 64.554 71.371 64.5839 71.371L64.6139 71.4009C64.6139 71.4009 64.6438 71.4009 64.6438 71.4309H64.6737H64.7037H64.9132L64.5839 73.1074C64.554 73.2271 64.5839 73.3469 64.6737 73.4367C64.7336 73.4966 64.7935 73.5265 64.8534 73.5565V74.275C64.8534 74.3947 64.9432 74.4845 65.0629 74.4845C65.1827 74.4845 65.2725 74.3947 65.2725 74.275V73.6163C65.2725 73.6163 65.2725 73.6163 65.3024 73.6163H65.4222H65.5419C65.5419 73.6163 65.5419 73.6163 65.5719 73.6163V74.3049C65.5719 74.4247 65.6617 74.5145 65.7814 74.5145C65.9012 74.5145 65.991 74.4247 65.991 74.3049V73.5864C66.0509 73.5565 66.1107 73.5265 66.1706 73.4666C66.2604 73.3768 66.2904 73.2571 66.2604 73.1373L65.9311 71.4608H66.1407C66.1706 71.4608 66.1706 71.4608 66.1706 71.4608H66.2006C66.2006 71.4608 66.2305 71.4608 66.2305 71.4309C66.2305 71.4309 66.2604 71.4309 66.2604 71.4009C66.2604 71.4009 66.2604 71.371 66.2904 71.371C66.2904 71.371 66.2904 71.3411 66.3203 71.3411L67.3681 68.8562L67.5777 69.8741C67.6076 70.0537 67.6076 70.2034 67.5478 70.3831L66.5898 74.5444H67.937H68.2663H69.6135L68.6555 70.3831C68.6255 70.2334 68.5956 70.0537 68.6555 69.8741L68.865 68.8562L69.6733 70.8621C69.7033 70.9519 69.7931 71.0118 69.9128 71.0118C69.9428 71.0118 69.9727 71.0117 70.0027 70.9818C70.1224 70.9219 70.1823 70.7722 70.1524 70.6525L69.344 68.3772Z" fill="#026972"/>
<path d="M68.268 67.9863C68.5974 67.9863 68.8369 67.7168 68.8369 67.4175C68.8369 67.1181 68.5674 66.8486 68.268 66.8486C67.9387 66.8486 67.6992 67.1181 67.6992 67.4175C67.6992 67.7168 67.9387 67.9863 68.268 67.9863Z" fill="#026972"/>
<path d="M65.5402 70.8314C65.7797 70.8314 65.9593 70.6518 65.9593 70.4123C65.9593 70.1728 65.7797 69.9932 65.5402 69.9932C65.3007 69.9932 65.1211 70.1728 65.1211 70.4123C65.1211 70.6518 65.3007 70.8314 65.5402 70.8314Z" fill="#026972"/>
<path d="M74.3999 56.6406C75.1783 57.3591 76.256 58.6165 76.256 58.6165C79.1301 61.8199 80.7767 66.1309 80.7767 69.9629C80.7767 70.0228 80.7767 70.0527 80.7767 70.1126H76.0465C75.328 62.5982 69.3404 56.6706 62.0955 56.6706C54.3416 56.6706 48.0547 63.3467 48.0547 71.5796C48.0547 76.0403 50.0905 81.0399 53.4435 84.7522H56.4073C55.6289 84.0337 54.5512 82.7763 54.5512 82.7763C51.6772 79.5729 50.0306 75.2619 50.0306 71.4299C50.0306 71.37 50.0306 71.3401 50.0306 71.2802H54.7907C55.5092 78.7946 61.4967 84.7222 68.7417 84.7222C76.4955 84.7222 82.7825 78.0461 82.7825 69.8132C82.7825 65.3525 80.7467 60.3529 77.3937 56.6406H74.3999ZM74.0706 70.0827H71.6456C71.6456 70.0527 71.6456 70.0527 71.6456 70.0228C71.6456 68.5858 71.2564 67.1787 70.5679 65.9213H72.9629C73.5616 67.1787 73.9209 68.5858 74.0706 70.0827ZM72.5438 65.0232H70.0589C69.1309 63.6161 67.8735 62.4485 66.4963 61.73C67.155 61.3708 67.7537 60.9217 68.2627 60.4128C70.029 61.5205 71.5259 63.1371 72.5438 65.0232ZM62.6643 58.6165C64.4306 58.7063 66.1072 59.2153 67.6041 60.0236C66.3167 61.2211 64.5803 61.9995 62.6643 62.1192V58.6165ZM62.6643 62.8377C63.6822 62.7779 64.6701 62.5384 65.5683 62.1791C66.9155 62.7779 68.1429 63.7658 69.1009 65.0232H62.6344V62.8377H62.6643ZM61.7662 58.5866V62.0893C59.7603 61.9995 57.9641 61.1912 56.6468 59.9338C58.2036 59.1255 59.94 58.6465 61.7662 58.5866ZM61.7662 62.8377V65.0232H55.1799C56.1379 63.7658 57.3953 62.7479 58.7125 62.1791C59.6705 62.5683 60.6884 62.8078 61.7662 62.8377ZM55.9882 60.3529C56.5271 60.8918 57.1558 61.3409 57.8144 61.73C56.4672 62.4785 55.1799 63.6161 54.2518 65.0232H51.5873C52.6352 63.1072 54.162 61.4606 55.9882 60.3529ZM50.0306 70.382C50.1503 68.7953 50.5395 67.2685 51.1682 65.8914H53.7429C53.0842 67.1488 52.6651 68.5558 52.6651 69.9929C52.6651 70.0527 52.6651 70.2324 52.6651 70.382H50.0306ZM56.7366 71.2502H59.1616C59.1616 71.2802 59.1616 71.2802 59.1616 71.3101C59.1616 72.7471 59.5508 74.1542 60.2394 75.4116H57.8443C57.2456 74.1542 56.8564 72.7471 56.7366 71.2502ZM58.2635 76.3097H60.7483C61.6764 77.7168 62.9637 78.8844 64.3109 79.6029C63.6523 79.9621 63.0535 80.4112 62.5446 80.9201C60.7483 79.8124 59.2813 78.1958 58.2635 76.3097ZM68.1429 82.7164C66.3766 82.6266 64.7001 82.1176 63.2032 81.3093C64.4905 80.1118 66.2269 79.3334 68.1429 79.2137V82.7164ZM68.1429 78.4952C67.125 78.5551 66.1371 78.7946 65.239 79.1538C63.8918 78.5551 62.6643 77.5671 61.7063 76.3097H68.1728V78.4952H68.1429ZM61.1075 75.4415C60.389 74.2141 59.94 72.807 59.94 71.3401C59.94 71.3101 59.94 71.3101 59.94 71.2802V70.412H53.4435C53.4435 70.2922 53.4435 70.1425 53.4435 70.0228C53.4435 68.5558 53.8926 67.1488 54.6111 65.9213H69.6997C70.4182 67.1488 70.8672 68.5558 70.8672 70.0228C70.8672 70.0527 70.8672 70.0527 70.8672 70.0827V70.9509H77.3638C77.3638 71.0706 77.3638 71.2203 77.3638 71.3101C77.3638 72.7771 76.9147 74.1841 76.1962 75.4116H61.1075V75.4415ZM75.5974 76.3097C74.6394 77.5671 73.382 78.585 72.0647 79.1538C71.1367 78.7646 70.0889 78.5251 69.0111 78.4952V76.3097H75.5974ZM69.0111 82.7463V79.2436C71.0169 79.3334 72.8132 80.1418 74.1305 81.3991C72.6036 82.2075 70.8673 82.6865 69.0111 82.7463ZM74.819 80.98C74.2802 80.4411 73.6515 79.9921 72.9928 79.6029C74.34 78.8544 75.6273 77.7168 76.5554 76.3097H79.2199C78.1421 78.2557 76.6452 79.8723 74.819 80.98ZM79.639 75.4415H77.0644C77.723 74.1841 78.1421 72.7771 78.1421 71.3401C78.1421 71.2802 78.1421 71.1006 78.1421 70.9808H80.7767C80.627 72.5376 80.2378 74.0644 79.639 75.4415Z" fill="#026972"/>
</svg>
