<svg width="498" height="40" viewBox="0 0 498 40" fill="none" xmlns="http://www.w3.org/2000/svg">
<circle cx="20" cy="20" r="20" fill="#1F1F1F"/>
<path d="M17.6662 24.8146C17.5399 24.464 17.4139 24.1132 17.2873 23.7626C16.573 21.7862 15.8586 19.8097 15.1442 17.8333C14.6599 16.4935 14.1831 15.1509 13.6876 13.8151C13.4025 13.0467 13.6525 12.3202 14.1606 11.883C15.0458 11.1213 16.4437 11.4839 16.8529 12.5751C17.766 15.0098 18.6836 17.4429 19.5994 19.8765C19.601 19.8805 19.6042 19.884 19.6216 19.9107C19.6074 19.7472 19.6026 19.6058 19.5822 19.4669C19.4291 18.4195 20.2478 17.4899 21.3075 17.5113C22.0179 17.5254 22.6564 18.0088 22.8803 18.7003C22.958 18.9405 23.0379 19.1802 23.1278 19.4533C23.198 19.2465 23.1699 19.0177 23.2342 18.8053C23.3023 18.5801 23.4174 18.3685 23.5718 18.1902C23.8545 17.8635 24.2669 17.6524 24.6976 17.6107C25.609 17.5225 26.4175 18.1892 26.5355 19.0568C26.5685 19.2986 26.6329 19.5361 26.6927 19.7763C26.6932 19.5011 26.7382 19.2368 26.8458 18.9827C27.1032 18.3735 27.7361 17.9612 28.4166 17.9647C29.0809 17.9682 29.725 18.3909 29.9604 19.0001C30.4257 20.2041 30.6437 21.45 30.9234 22.7029C31.2813 24.3058 31.749 25.8743 32.236 27.4419C32.5189 28.3528 32.4907 29.2498 32.1791 30.1425C31.7954 31.2417 31.1036 32.124 30.2157 32.862C29.1479 33.7494 27.9232 34.3193 26.5669 34.6058C25.2068 34.893 23.8598 34.8591 22.5405 34.3867C21.8371 34.135 21.2161 33.7502 20.6811 33.2262C19.7214 32.2865 18.7906 31.3198 17.9097 30.306C17.3656 29.68 16.8486 29.0318 16.3348 28.3811C15.8353 27.7484 15.2649 27.1873 14.6387 26.6788C13.863 26.0488 13.1057 25.3968 12.3575 24.7347C12.0036 24.4215 11.9379 24.0028 12.0199 23.558C12.1267 22.9795 12.3822 22.7232 13.0159 22.6249C14.0188 22.4694 14.9715 22.6693 15.8377 23.1775C16.5225 23.5793 17.1101 24.1111 17.5852 24.755C17.6032 24.7796 17.6231 24.8026 17.6421 24.8263C17.6501 24.8226 17.6582 24.8186 17.6662 24.8149V24.8146Z" fill="#C0E6EB"/>
<path d="M7.3125 12.8141C7.32698 11.0781 7.85444 9.51211 8.92278 8.14112C10.0751 6.66218 11.5856 5.73153 13.4273 5.36334C15.1228 5.02426 16.7583 5.24203 18.2954 6.03453C20.5109 7.1768 21.8616 8.98466 22.3483 11.4218C22.617 12.7668 22.4891 14.0873 22.0289 15.3776C22.0096 15.4321 21.9954 15.4882 21.9788 15.5438C21.8731 15.8928 21.5428 16.0801 21.2199 15.974C20.8807 15.8626 20.7174 15.508 20.8525 15.1633C21.1035 14.5234 21.2467 13.8594 21.2824 13.1751C21.3207 12.4403 21.2328 11.7165 21.0134 11.013C20.4516 9.21151 19.3173 7.89449 17.6143 7.07153C16.6376 6.59966 15.5991 6.39605 14.5181 6.46793C12.9333 6.5732 11.5555 7.17466 10.4239 8.28914C9.37597 9.32133 8.74902 10.5761 8.56345 12.0358C8.3449 13.7539 8.76162 15.3156 9.79563 16.7043C10.5006 17.6509 11.407 18.3497 12.5139 18.7812C12.8344 18.906 12.9845 19.2343 12.8658 19.5427C12.7467 19.8516 12.4021 20.0097 12.0959 19.8764C11.3893 19.5689 10.7186 19.198 10.1204 18.7077C9.2553 17.9991 8.56828 17.147 8.08157 16.1421C7.66834 15.2889 7.41333 14.3895 7.33878 13.4412C7.32242 13.232 7.31894 13.0236 7.31277 12.8136L7.3125 12.8141Z" fill="#C0E6EB"/>
<path d="M14.8702 8.85787C13.3714 8.92895 12.2283 9.59079 11.4962 10.9099C10.7368 12.278 10.9443 14.0634 11.977 15.2423C12.3594 15.6789 12.808 16.0198 13.3425 16.2509C13.6415 16.3803 13.771 16.7071 13.6549 17.0106C13.543 17.3029 13.228 17.4565 12.9207 17.3601C12.6847 17.2861 12.472 17.1616 12.2642 17.0304C10.9199 16.1812 10.1109 14.9697 9.90362 13.4024C9.67971 11.7086 10.2088 10.243 11.4391 9.05212C12.2532 8.26416 13.2416 7.80565 14.3759 7.70358C16.1326 7.5454 17.6003 8.14285 18.7536 9.46628C19.4237 10.235 19.7981 11.1456 19.9144 12.1612C20.0011 12.9177 19.911 13.6522 19.6672 14.3699C19.5725 14.6488 19.3224 14.8067 19.048 14.7766C18.7584 14.7445 18.5527 14.542 18.5104 14.2486C18.4951 14.1436 18.5254 14.046 18.5554 13.948C19.0193 12.4316 18.6986 11.0922 17.5938 9.96273C16.9771 9.33215 16.2007 8.98051 15.3145 8.88539C15.1673 8.86963 15.0211 8.85974 14.8702 8.85814V8.85787Z" fill="#C0E6EB"/>
<path d="M49.6889 27L52.1037 12.4545H57.2884C58.4152 12.4545 59.3149 12.6605 59.9872 13.0724C60.6643 13.4844 61.1283 14.0455 61.3793 14.7557C61.6349 15.4659 61.6894 16.2685 61.5426 17.1634C61.3911 18.0582 61.0691 18.8632 60.5767 19.5781C60.089 20.2884 59.438 20.8518 58.6236 21.2685C57.8092 21.6804 56.8409 21.8864 55.7188 21.8864H52.1463L52.4517 20.0256H55.8182C56.5331 20.0256 57.1345 19.9025 57.6222 19.6562C58.1146 19.4053 58.5005 19.0644 58.7798 18.6335C59.0592 18.1979 59.2415 17.7079 59.3267 17.1634C59.4167 16.6094 59.393 16.1217 59.2557 15.7003C59.1184 15.2741 58.8461 14.9403 58.4389 14.6989C58.0365 14.4574 57.473 14.3366 56.7486 14.3366H53.9929L51.8835 27H49.6889ZM65.321 27.2415C64.6297 27.2415 64.026 27.1136 63.5099 26.858C62.9938 26.5975 62.6127 26.2211 62.3665 25.7287C62.1203 25.2363 62.0563 24.6326 62.1747 23.9176C62.2789 23.3021 62.4825 22.7955 62.7855 22.3977C63.0933 22 63.4673 21.6851 63.9077 21.4531C64.348 21.2164 64.8262 21.0388 65.3423 20.9205C65.8584 20.8021 66.3793 20.7145 66.9048 20.6577C67.5677 20.5819 68.1051 20.518 68.517 20.4659C68.9337 20.4138 69.2462 20.3333 69.4545 20.2244C69.6629 20.1108 69.7884 19.9261 69.831 19.6705V19.6207C69.9304 19.0052 69.8404 18.527 69.5611 18.1861C69.2865 17.8404 68.8082 17.6676 68.1264 17.6676C67.4162 17.6676 66.8196 17.8239 66.3366 18.1364C65.8584 18.4489 65.5057 18.7992 65.2784 19.1875L63.375 18.733C63.7159 18.0701 64.1491 17.535 64.6747 17.1278C65.205 16.7159 65.785 16.4176 66.4148 16.233C67.0445 16.0436 67.6884 15.9489 68.3466 15.9489C68.7822 15.9489 69.2344 16.0009 69.7031 16.1051C70.1719 16.2045 70.598 16.3892 70.9815 16.6591C71.3698 16.929 71.6586 17.3149 71.848 17.8168C72.0374 18.3139 72.0658 18.9602 71.9332 19.7557L70.733 27H68.6591L68.9148 25.5085H68.8295C68.6496 25.7831 68.3987 26.053 68.0767 26.3182C67.7595 26.5833 67.3712 26.8035 66.9119 26.9787C66.4527 27.1539 65.9223 27.2415 65.321 27.2415ZM66.0455 25.5369C66.6373 25.5369 67.1605 25.4209 67.6151 25.1889C68.0743 24.9569 68.446 24.6539 68.7301 24.2798C69.0142 23.901 69.1918 23.4962 69.2628 23.0653L69.4972 21.6591C69.4072 21.7348 69.2486 21.8035 69.0213 21.8651C68.7988 21.9266 68.5478 21.9811 68.2685 22.0284C67.9891 22.0758 67.7145 22.116 67.4446 22.1491C67.1795 22.1823 66.9593 22.2131 66.7841 22.2415C66.3674 22.2936 65.9768 22.3812 65.6122 22.5043C65.2524 22.6274 64.9517 22.8049 64.7102 23.0369C64.4688 23.2642 64.3172 23.5672 64.2557 23.946C64.1705 24.4716 64.2959 24.8693 64.6321 25.1392C64.973 25.4044 65.4441 25.5369 66.0455 25.5369ZM83.114 18.7543L81.1325 19.0952C81.0898 18.8442 81.0022 18.6075 80.8697 18.3849C80.7418 18.1624 80.5453 17.9825 80.2802 17.8452C80.015 17.7031 79.6623 17.6321 79.2219 17.6321C78.6112 17.6321 78.0761 17.7718 77.6168 18.0511C77.1623 18.3305 76.9019 18.6856 76.8356 19.1165C76.774 19.4669 76.8569 19.7509 77.0842 19.9688C77.3114 20.1818 77.7115 20.3594 78.2844 20.5014L79.9606 20.8991C80.9265 21.1312 81.6178 21.4934 82.0344 21.9858C82.4558 22.4735 82.6026 23.108 82.4748 23.8892C82.3659 24.5379 82.0818 25.1132 81.6225 25.6151C81.168 26.117 80.5856 26.5099 79.8754 26.794C79.1651 27.0781 78.3744 27.2202 77.5032 27.2202C76.2627 27.2202 75.2968 26.9574 74.6055 26.4318C73.9142 25.9063 73.5591 25.1629 73.5401 24.2017L75.6424 23.8892C75.6803 24.4242 75.872 24.8291 76.2177 25.1037C76.5681 25.3736 77.0534 25.5085 77.6737 25.5085C78.3839 25.5133 78.9781 25.3641 79.4563 25.0611C79.9345 24.758 80.2068 24.3911 80.2731 23.9602C80.3299 23.6241 80.2541 23.3447 80.0458 23.1222C79.8422 22.8996 79.4824 22.7292 78.9663 22.6108L77.2049 22.206C76.2201 21.974 75.524 21.5999 75.1168 21.0838C74.7096 20.5677 74.5723 19.919 74.7049 19.1378C74.8091 18.4986 75.079 17.9422 75.5146 17.4688C75.9549 16.9905 76.5112 16.6188 77.1836 16.3537C77.8559 16.0838 78.5993 15.9489 79.4137 15.9489C80.6022 15.9489 81.4947 16.2045 82.0913 16.7159C82.6879 17.2225 83.0288 17.902 83.114 18.7543ZM88.9574 27.2202C87.8873 27.2202 87.0019 26.9905 86.3011 26.5312C85.6051 26.0672 85.1174 25.4162 84.8381 24.5781C84.5587 23.7353 84.5137 22.7481 84.7031 21.6165C84.8878 20.4991 85.2595 19.5142 85.8182 18.6619C86.3769 17.8097 87.0729 17.1444 87.9062 16.6662C88.7443 16.188 89.67 15.9489 90.6832 15.9489C91.2988 15.9489 91.8788 16.0507 92.4233 16.2543C92.9725 16.4579 93.4389 16.7775 93.8224 17.2131C94.206 17.6487 94.4711 18.2145 94.6179 18.9105C94.7694 19.6018 94.7647 20.4422 94.6037 21.4318L94.483 22.1847H85.804L86.0526 20.5938H92.6435C92.7429 20.035 92.7169 19.5402 92.5653 19.1094C92.4138 18.6738 92.1534 18.3305 91.7841 18.0795C91.4195 17.8286 90.9602 17.7031 90.4062 17.7031C89.8381 17.7031 89.3078 17.8523 88.8153 18.1506C88.3229 18.4489 87.911 18.83 87.5795 19.294C87.2528 19.7533 87.0469 20.2268 86.9616 20.7145L86.7131 22.1705C86.59 22.9659 86.6113 23.6051 86.777 24.0881C86.9474 24.571 87.2457 24.9214 87.6719 25.1392C88.098 25.357 88.6307 25.4659 89.2699 25.4659C89.6818 25.4659 90.063 25.4091 90.4134 25.2955C90.7685 25.1771 91.0833 25.0043 91.358 24.777C91.6326 24.545 91.8622 24.2562 92.0469 23.9105L93.9929 24.2727C93.7325 24.8646 93.3584 25.383 92.8707 25.8281C92.383 26.2685 91.8078 26.6117 91.1449 26.858C90.4867 27.0994 89.7576 27.2202 88.9574 27.2202ZM106.028 27.2202C104.958 27.2202 104.072 26.9905 103.371 26.5312C102.675 26.0672 102.188 25.4162 101.908 24.5781C101.629 23.7353 101.584 22.7481 101.773 21.6165C101.958 20.4991 102.33 19.5142 102.888 18.6619C103.447 17.8097 104.143 17.1444 104.977 16.6662C105.815 16.188 106.74 15.9489 107.754 15.9489C108.369 15.9489 108.949 16.0507 109.494 16.2543C110.043 16.4579 110.509 16.7775 110.893 17.2131C111.276 17.6487 111.541 18.2145 111.688 18.9105C111.84 19.6018 111.835 20.4422 111.674 21.4318L111.553 22.1847H102.874L103.123 20.5938H109.714C109.813 20.035 109.787 19.5402 109.636 19.1094C109.484 18.6738 109.224 18.3305 108.854 18.0795C108.49 17.8286 108.031 17.7031 107.477 17.7031C106.908 17.7031 106.378 17.8523 105.886 18.1506C105.393 18.4489 104.981 18.83 104.65 19.294C104.323 19.7533 104.117 20.2268 104.032 20.7145L103.783 22.1705C103.66 22.9659 103.682 23.6051 103.847 24.0881C104.018 24.571 104.316 24.9214 104.742 25.1392C105.168 25.357 105.701 25.4659 106.34 25.4659C106.752 25.4659 107.133 25.4091 107.484 25.2955C107.839 25.1771 108.154 25.0043 108.428 24.777C108.703 24.545 108.933 24.2562 109.117 23.9105L111.063 24.2727C110.803 24.8646 110.429 25.383 109.941 25.8281C109.453 26.2685 108.878 26.6117 108.215 26.858C107.557 27.0994 106.828 27.2202 106.028 27.2202ZM117.67 12.4545L115.255 27H113.132L115.547 12.4545H117.67ZM127.972 27.2202C126.911 27.2202 126.042 26.9811 125.365 26.5028C124.688 26.0199 124.217 25.3546 123.952 24.5071C123.687 23.6596 123.644 22.6889 123.824 21.5952C124.004 20.4872 124.371 19.5095 124.925 18.6619C125.484 17.8097 126.182 17.1444 127.02 16.6662C127.863 16.188 128.798 15.9489 129.826 15.9489C130.654 15.9489 131.367 16.1027 131.963 16.4105C132.56 16.7135 133.012 17.1397 133.32 17.6889C133.628 18.2382 133.76 18.8797 133.718 19.6136H131.651C131.618 19.1023 131.428 18.6619 131.083 18.2926C130.737 17.9233 130.228 17.7386 129.556 17.7386C128.964 17.7386 128.419 17.8949 127.922 18.2074C127.425 18.5152 127.006 18.9555 126.665 19.5284C126.324 20.0966 126.092 20.7689 125.969 21.5455C125.837 22.3409 125.844 23.0275 125.99 23.6051C126.137 24.1828 126.407 24.6302 126.8 24.9474C127.193 25.2647 127.688 25.4233 128.284 25.4233C128.692 25.4233 129.07 25.3499 129.421 25.2031C129.776 25.0516 130.088 24.8362 130.358 24.5568C130.633 24.2775 130.846 23.9413 130.998 23.5483H133.071C132.868 24.2538 132.527 24.8835 132.049 25.4375C131.575 25.9915 130.993 26.4271 130.301 26.7443C129.61 27.0616 128.834 27.2202 127.972 27.2202ZM142.416 22.4759L143.482 16.0909H145.612L143.794 27H141.706L142.026 25.1108H141.912C141.571 25.6932 141.088 26.1785 140.463 26.5668C139.843 26.9503 139.123 27.142 138.304 27.142C137.603 27.142 137.009 26.9882 136.521 26.6804C136.038 26.3679 135.695 25.9062 135.491 25.2955C135.288 24.6847 135.259 23.9295 135.406 23.0298L136.571 16.0909H138.695L137.58 22.7741C137.461 23.5175 137.572 24.1094 137.913 24.5497C138.254 24.9901 138.751 25.2102 139.405 25.2102C139.803 25.2102 140.214 25.1108 140.641 24.9119C141.067 24.7131 141.443 24.4124 141.77 24.0099C142.101 23.6075 142.317 23.0961 142.416 22.4759ZM146.647 27L148.466 16.0909H150.518L150.227 17.8239H150.341C150.634 17.2367 151.063 16.7751 151.626 16.4389C152.19 16.098 152.791 15.9276 153.43 15.9276C153.567 15.9276 153.724 15.9323 153.899 15.9418C154.074 15.9465 154.216 15.9583 154.325 15.9773L153.984 18.0085C153.904 17.9848 153.757 17.9588 153.544 17.9304C153.331 17.8973 153.11 17.8807 152.883 17.8807C152.386 17.8807 151.924 17.9872 151.498 18.2003C151.072 18.4086 150.715 18.6998 150.426 19.0739C150.137 19.4432 149.95 19.8646 149.865 20.3381L148.771 27H146.647ZM163.915 18.7543L161.933 19.0952C161.891 18.8442 161.803 18.6075 161.67 18.3849C161.543 18.1624 161.346 17.9825 161.081 17.8452C160.816 17.7031 160.463 17.6321 160.023 17.6321C159.412 17.6321 158.877 17.7718 158.418 18.0511C157.963 18.3305 157.703 18.6856 157.636 19.1165C157.575 19.4669 157.658 19.7509 157.885 19.9688C158.112 20.1818 158.512 20.3594 159.085 20.5014L160.761 20.8991C161.727 21.1312 162.419 21.4934 162.835 21.9858C163.257 22.4735 163.403 23.108 163.276 23.8892C163.167 24.5379 162.883 25.1132 162.423 25.6151C161.969 26.117 161.386 26.5099 160.676 26.794C159.966 27.0781 159.175 27.2202 158.304 27.2202C157.063 27.2202 156.098 26.9574 155.406 26.4318C154.715 25.9063 154.36 25.1629 154.341 24.2017L156.443 23.8892C156.481 24.4242 156.673 24.8291 157.018 25.1037C157.369 25.3736 157.854 25.5085 158.474 25.5085C159.185 25.5133 159.779 25.3641 160.257 25.0611C160.735 24.758 161.008 24.3911 161.074 23.9602C161.131 23.6241 161.055 23.3447 160.847 23.1222C160.643 22.8996 160.283 22.7292 159.767 22.6108L158.006 22.206C157.021 21.974 156.325 21.5999 155.918 21.0838C155.51 20.5677 155.373 19.919 155.506 19.1378C155.61 18.4986 155.88 17.9422 156.315 17.4688C156.756 16.9905 157.312 16.6188 157.984 16.3537C158.657 16.0838 159.4 15.9489 160.214 15.9489C161.403 15.9489 162.295 16.2045 162.892 16.7159C163.489 17.2225 163.83 17.902 163.915 18.7543ZM169.73 27.2202C168.693 27.2202 167.826 26.9834 167.13 26.5099C166.434 26.0317 165.944 25.3641 165.66 24.5071C165.381 23.6454 165.333 22.6439 165.518 21.5028C165.698 20.3854 166.06 19.41 166.605 18.5767C167.154 17.7434 167.841 17.0971 168.664 16.6378C169.493 16.1785 170.414 15.9489 171.427 15.9489C172.464 15.9489 173.328 16.188 174.02 16.6662C174.716 17.1444 175.206 17.8144 175.49 18.6761C175.774 19.5379 175.824 20.5417 175.639 21.6875C175.459 22.7955 175.092 23.7661 174.538 24.5994C173.989 25.428 173.302 26.072 172.478 26.5312C171.654 26.9905 170.738 27.2202 169.73 27.2202ZM169.85 25.4375C170.532 25.4375 171.127 25.2576 171.633 24.8977C172.145 24.5379 172.561 24.0597 172.883 23.4631C173.205 22.8665 173.425 22.2131 173.544 21.5028C173.653 20.8163 173.65 20.1889 173.537 19.6207C173.428 19.0478 173.191 18.5885 172.826 18.2429C172.462 17.8973 171.955 17.7244 171.306 17.7244C170.625 17.7244 170.026 17.9067 169.51 18.2713C168.998 18.6312 168.582 19.1117 168.26 19.7131C167.942 20.3144 167.727 20.9702 167.613 21.6804C167.504 22.3622 167.504 22.9896 167.613 23.5625C167.722 24.1307 167.959 24.5852 168.324 24.9261C168.688 25.267 169.197 25.4375 169.85 25.4375ZM177.136 27L178.954 16.0909H181.006L180.715 17.8239H180.829C181.122 17.2367 181.551 16.7751 182.114 16.4389C182.678 16.098 183.279 15.9276 183.918 15.9276C184.056 15.9276 184.212 15.9323 184.387 15.9418C184.562 15.9465 184.704 15.9583 184.813 15.9773L184.472 18.0085C184.392 17.9848 184.245 17.9588 184.032 17.9304C183.819 17.8973 183.599 17.8807 183.371 17.8807C182.874 17.8807 182.413 17.9872 181.987 18.2003C181.56 18.4086 181.203 18.6998 180.914 19.0739C180.625 19.4432 180.438 19.8646 180.353 20.3381L179.259 27H177.136ZM199.696 18.7543L197.714 19.0952C197.672 18.8442 197.584 18.6075 197.452 18.3849C197.324 18.1624 197.127 17.9825 196.862 17.8452C196.597 17.7031 196.244 17.6321 195.804 17.6321C195.193 17.6321 194.658 17.7718 194.199 18.0511C193.744 18.3305 193.484 18.6856 193.418 19.1165C193.356 19.4669 193.439 19.7509 193.666 19.9688C193.893 20.1818 194.294 20.3594 194.866 20.5014L196.543 20.8991C197.509 21.1312 198.2 21.4934 198.616 21.9858C199.038 22.4735 199.185 23.108 199.057 23.8892C198.948 24.5379 198.664 25.1132 198.205 25.6151C197.75 26.117 197.168 26.5099 196.457 26.794C195.747 27.0781 194.956 27.2202 194.085 27.2202C192.845 27.2202 191.879 26.9574 191.188 26.4318C190.496 25.9063 190.141 25.1629 190.122 24.2017L192.224 23.8892C192.262 24.4242 192.454 24.8291 192.8 25.1037C193.15 25.3736 193.635 25.5085 194.256 25.5085C194.966 25.5133 195.56 25.3641 196.038 25.0611C196.517 24.758 196.789 24.3911 196.855 23.9602C196.912 23.6241 196.836 23.3447 196.628 23.1222C196.424 22.8996 196.064 22.7292 195.548 22.6108L193.787 22.206C192.802 21.974 192.106 21.5999 191.699 21.0838C191.292 20.5677 191.154 19.919 191.287 19.1378C191.391 18.4986 191.661 17.9422 192.097 17.4688C192.537 16.9905 193.093 16.6188 193.766 16.3537C194.438 16.0838 195.181 15.9489 195.996 15.9489C197.184 15.9489 198.077 16.2045 198.673 16.7159C199.27 17.2225 199.611 17.902 199.696 18.7543ZM205.511 27.2202C204.474 27.2202 203.608 26.9834 202.912 26.5099C202.216 26.0317 201.725 25.3641 201.441 24.5071C201.162 23.6454 201.115 22.6439 201.299 21.5028C201.479 20.3854 201.842 19.41 202.386 18.5767C202.935 17.7434 203.622 17.0971 204.446 16.6378C205.274 16.1785 206.195 15.9489 207.208 15.9489C208.245 15.9489 209.109 16.188 209.801 16.6662C210.497 17.1444 210.987 17.8144 211.271 18.6761C211.555 19.5379 211.605 20.5417 211.42 21.6875C211.24 22.7955 210.873 23.7661 210.319 24.5994C209.77 25.428 209.083 26.072 208.26 26.5312C207.436 26.9905 206.52 27.2202 205.511 27.2202ZM205.632 25.4375C206.314 25.4375 206.908 25.2576 207.414 24.8977C207.926 24.5379 208.342 24.0597 208.664 23.4631C208.986 22.8665 209.207 22.2131 209.325 21.5028C209.434 20.8163 209.431 20.1889 209.318 19.6207C209.209 19.0478 208.972 18.5885 208.608 18.2429C208.243 17.8973 207.736 17.7244 207.088 17.7244C206.406 17.7244 205.807 17.9067 205.291 18.2713C204.779 18.6312 204.363 19.1117 204.041 19.7131C203.724 20.3144 203.508 20.9702 203.395 21.6804C203.286 22.3622 203.286 22.9896 203.395 23.5625C203.503 24.1307 203.74 24.5852 204.105 24.9261C204.469 25.267 204.978 25.4375 205.632 25.4375ZM213.087 27L215.502 12.4545H217.626L216.738 17.8594H216.866C217.027 17.6321 217.247 17.3693 217.526 17.071C217.81 16.7727 218.177 16.5123 218.627 16.2898C219.077 16.0625 219.64 15.9489 220.317 15.9489C221.198 15.9489 221.946 16.1714 222.562 16.6165C223.177 17.0616 223.613 17.7031 223.869 18.5412C224.124 19.3793 224.155 20.3878 223.961 21.5668C223.767 22.7457 223.402 23.7566 222.867 24.5994C222.337 25.4375 221.691 26.0838 220.928 26.5384C220.166 26.9882 219.344 27.2131 218.464 27.2131C217.801 27.2131 217.278 27.1018 216.894 26.8793C216.515 26.6567 216.231 26.3963 216.042 26.098C215.857 25.7997 215.718 25.5346 215.623 25.3026H215.445L215.161 27H213.087ZM216.077 21.5455C215.954 22.3125 215.954 22.9848 216.077 23.5625C216.205 24.1402 216.454 24.5923 216.823 24.919C217.197 25.241 217.687 25.402 218.293 25.402C218.928 25.402 219.487 25.2339 219.969 24.8977C220.452 24.5568 220.85 24.0952 221.163 23.5128C221.475 22.9304 221.693 22.2746 221.816 21.5455C221.93 20.8258 221.927 20.1795 221.809 19.6065C221.691 19.0336 221.444 18.5814 221.07 18.25C220.701 17.9186 220.197 17.7528 219.558 17.7528C218.942 17.7528 218.395 17.9115 217.917 18.2287C217.439 18.5459 217.043 18.9886 216.731 19.5568C216.418 20.125 216.201 20.7879 216.077 21.5455ZM225.436 27L227.255 16.0909H229.307L229.016 17.8239H229.13C229.423 17.2367 229.852 16.7751 230.415 16.4389C230.979 16.098 231.58 15.9276 232.219 15.9276C232.356 15.9276 232.513 15.9323 232.688 15.9418C232.863 15.9465 233.005 15.9583 233.114 15.9773L232.773 18.0085C232.693 17.9848 232.546 17.9588 232.333 17.9304C232.12 17.8973 231.9 17.8807 231.672 17.8807C231.175 17.8807 230.713 17.9872 230.287 18.2003C229.861 18.4086 229.504 18.6998 229.215 19.0739C228.926 19.4432 228.739 19.8646 228.654 20.3381L227.56 27H225.436ZM237.434 27.2202C236.364 27.2202 235.478 26.9905 234.778 26.5312C234.082 26.0672 233.594 25.4162 233.315 24.5781C233.035 23.7353 232.99 22.7481 233.18 21.6165C233.364 20.4991 233.736 19.5142 234.295 18.6619C234.853 17.8097 235.549 17.1444 236.383 16.6662C237.221 16.188 238.147 15.9489 239.16 15.9489C239.775 15.9489 240.355 16.0507 240.9 16.2543C241.449 16.4579 241.915 16.7775 242.299 17.2131C242.683 17.6487 242.948 18.2145 243.094 18.9105C243.246 19.6018 243.241 20.4422 243.08 21.4318L242.96 22.1847H234.281L234.529 20.5938H241.12C241.219 20.035 241.193 19.5402 241.042 19.1094C240.89 18.6738 240.63 18.3305 240.261 18.0795C239.896 17.8286 239.437 17.7031 238.883 17.7031C238.315 17.7031 237.784 17.8523 237.292 18.1506C236.799 18.4489 236.388 18.83 236.056 19.294C235.729 19.7533 235.523 20.2268 235.438 20.7145L235.19 22.1705C235.067 22.9659 235.088 23.6051 235.254 24.0881C235.424 24.571 235.722 24.9214 236.148 25.1392C236.575 25.357 237.107 25.4659 237.746 25.4659C238.158 25.4659 238.54 25.4091 238.89 25.2955C239.245 25.1771 239.56 25.0043 239.835 24.777C240.109 24.545 240.339 24.2562 240.523 23.9105L242.469 24.2727C242.209 24.8646 241.835 25.383 241.347 25.8281C240.86 26.2685 240.284 26.6117 239.621 26.858C238.963 27.0994 238.234 27.2202 237.434 27.2202ZM254.398 27.2202C253.337 27.2202 252.468 26.9811 251.791 26.5028C251.114 26.0199 250.643 25.3546 250.378 24.5071C250.113 23.6596 250.07 22.6889 250.25 21.5952C250.43 20.4872 250.797 19.5095 251.351 18.6619C251.91 17.8097 252.608 17.1444 253.446 16.6662C254.289 16.188 255.224 15.9489 256.251 15.9489C257.08 15.9489 257.793 16.1027 258.389 16.4105C258.986 16.7135 259.438 17.1397 259.746 17.6889C260.054 18.2382 260.186 18.8797 260.143 19.6136H258.077C258.044 19.1023 257.854 18.6619 257.509 18.2926C257.163 17.9233 256.654 17.7386 255.982 17.7386C255.39 17.7386 254.845 17.8949 254.348 18.2074C253.851 18.5152 253.432 18.9555 253.091 19.5284C252.75 20.0966 252.518 20.7689 252.395 21.5455C252.262 22.3409 252.269 23.0275 252.416 23.6051C252.563 24.1828 252.833 24.6302 253.226 24.9474C253.619 25.2647 254.114 25.4233 254.71 25.4233C255.117 25.4233 255.496 25.3499 255.847 25.2031C256.202 25.0516 256.514 24.8362 256.784 24.5568C257.059 24.2775 257.272 23.9413 257.423 23.5483H259.497C259.294 24.2538 258.953 24.8835 258.474 25.4375C258.001 25.9915 257.419 26.4271 256.727 26.7443C256.036 27.0616 255.259 27.2202 254.398 27.2202ZM264.325 27.2415C263.634 27.2415 263.03 27.1136 262.514 26.858C261.998 26.5975 261.617 26.2211 261.37 25.7287C261.124 25.2363 261.06 24.6326 261.179 23.9176C261.283 23.3021 261.486 22.7955 261.789 22.3977C262.097 22 262.471 21.6851 262.912 21.4531C263.352 21.2164 263.83 21.0388 264.346 20.9205C264.862 20.8021 265.383 20.7145 265.909 20.6577C266.572 20.5819 267.109 20.518 267.521 20.4659C267.938 20.4138 268.25 20.3333 268.458 20.2244C268.667 20.1108 268.792 19.9261 268.835 19.6705V19.6207C268.934 19.0052 268.844 18.527 268.565 18.1861C268.29 17.8404 267.812 17.6676 267.13 17.6676C266.42 17.6676 265.824 17.8239 265.341 18.1364C264.862 18.4489 264.51 18.7992 264.282 19.1875L262.379 18.733C262.72 18.0701 263.153 17.535 263.679 17.1278C264.209 16.7159 264.789 16.4176 265.419 16.233C266.048 16.0436 266.692 15.9489 267.35 15.9489C267.786 15.9489 268.238 16.0009 268.707 16.1051C269.176 16.2045 269.602 16.3892 269.985 16.6591C270.374 16.929 270.663 17.3149 270.852 17.8168C271.041 18.3139 271.07 18.9602 270.937 19.7557L269.737 27H267.663L267.919 25.5085H267.833C267.654 25.7831 267.403 26.053 267.081 26.3182C266.763 26.5833 266.375 26.8035 265.916 26.9787C265.457 27.1539 264.926 27.2415 264.325 27.2415ZM265.049 25.5369C265.641 25.5369 266.164 25.4209 266.619 25.1889C267.078 24.9569 267.45 24.6539 267.734 24.2798C268.018 23.901 268.196 23.4962 268.267 23.0653L268.501 21.6591C268.411 21.7348 268.252 21.8035 268.025 21.8651C267.803 21.9266 267.552 21.9811 267.272 22.0284C266.993 22.0758 266.718 22.116 266.449 22.1491C266.183 22.1823 265.963 22.2131 265.788 22.2415C265.371 22.2936 264.981 22.3812 264.616 22.5043C264.256 22.6274 263.956 22.8049 263.714 23.0369C263.473 23.2642 263.321 23.5672 263.26 23.946C263.174 24.4716 263.3 24.8693 263.636 25.1392C263.977 25.4044 264.448 25.5369 265.049 25.5369ZM276.635 27.2131C275.75 27.2131 274.999 26.9882 274.384 26.5384C273.773 26.0838 273.339 25.4375 273.084 24.5994C272.833 23.7566 272.804 22.7457 272.999 21.5668C273.197 20.3878 273.564 19.3793 274.099 18.5412C274.634 17.7031 275.283 17.0616 276.045 16.6165C276.808 16.1714 277.629 15.9489 278.51 15.9489C279.187 15.9489 279.713 16.0625 280.087 16.2898C280.465 16.5123 280.745 16.7727 280.925 17.071C281.105 17.3693 281.24 17.6321 281.33 17.8594H281.45L282.352 12.4545H284.476L282.061 27H279.987L280.278 25.3026H280.101C279.935 25.5346 279.705 25.7997 279.412 26.098C279.123 26.3963 278.754 26.6567 278.304 26.8793C277.854 27.1018 277.298 27.2131 276.635 27.2131ZM277.352 25.402C277.963 25.402 278.51 25.241 278.993 24.919C279.481 24.5923 279.885 24.1402 280.207 23.5625C280.534 22.9848 280.761 22.3125 280.889 21.5455C281.017 20.7879 281.015 20.125 280.882 19.5568C280.75 18.9886 280.494 18.5459 280.115 18.2287C279.736 17.9115 279.237 17.7528 278.616 17.7528C277.977 17.7528 277.421 17.9186 276.947 18.25C276.474 18.5814 276.086 19.0336 275.783 19.6065C275.484 20.1795 275.276 20.8258 275.158 21.5455C275.035 22.2746 275.03 22.9304 275.143 23.5128C275.257 24.0952 275.496 24.5568 275.861 24.8977C276.225 25.2339 276.723 25.402 277.352 25.402ZM288.231 27.2415C287.54 27.2415 286.936 27.1136 286.42 26.858C285.904 26.5975 285.523 26.2211 285.277 25.7287C285.03 25.2363 284.967 24.6326 285.085 23.9176C285.189 23.3021 285.393 22.7955 285.696 22.3977C286.003 22 286.377 21.6851 286.818 21.4531C287.258 21.2164 287.736 21.0388 288.252 20.9205C288.769 20.8021 289.289 20.7145 289.815 20.6577C290.478 20.5819 291.015 20.518 291.427 20.4659C291.844 20.4138 292.156 20.3333 292.365 20.2244C292.573 20.1108 292.699 19.9261 292.741 19.6705V19.6207C292.841 19.0052 292.751 18.527 292.471 18.1861C292.197 17.8404 291.718 17.6676 291.037 17.6676C290.326 17.6676 289.73 17.8239 289.247 18.1364C288.769 18.4489 288.416 18.7992 288.189 19.1875L286.285 18.733C286.626 18.0701 287.059 17.535 287.585 17.1278C288.115 16.7159 288.695 16.4176 289.325 16.233C289.955 16.0436 290.599 15.9489 291.257 15.9489C291.692 15.9489 292.145 16.0009 292.613 16.1051C293.082 16.2045 293.508 16.3892 293.892 16.6591C294.28 16.929 294.569 17.3149 294.758 17.8168C294.948 18.3139 294.976 18.9602 294.843 19.7557L293.643 27H291.569L291.825 25.5085H291.74C291.56 25.7831 291.309 26.053 290.987 26.3182C290.67 26.5833 290.281 26.8035 289.822 26.9787C289.363 27.1539 288.833 27.2415 288.231 27.2415ZM288.956 25.5369C289.547 25.5369 290.071 25.4209 290.525 25.1889C290.984 24.9569 291.356 24.6539 291.64 24.2798C291.924 23.901 292.102 23.4962 292.173 23.0653L292.407 21.6591C292.317 21.7348 292.159 21.8035 291.931 21.8651C291.709 21.9266 291.458 21.9811 291.179 22.0284C290.899 22.0758 290.625 22.116 290.355 22.1491C290.09 22.1823 289.869 22.2131 289.694 22.2415C289.278 22.2936 288.887 22.3812 288.522 22.5043C288.163 22.6274 287.862 22.8049 287.62 23.0369C287.379 23.2642 287.227 23.5672 287.166 23.946C287.081 24.4716 287.206 24.8693 287.542 25.1392C287.883 25.4044 288.354 25.5369 288.956 25.5369ZM304.961 20.5227L303.895 27H301.772L303.59 16.0909H305.628L305.33 17.8665H305.465C305.81 17.2841 306.282 16.8201 306.878 16.4744C307.48 16.1241 308.19 15.9489 309.009 15.9489C309.748 15.9489 310.368 16.1051 310.87 16.4176C311.376 16.7254 311.734 17.1847 311.942 17.7955C312.155 18.4062 312.188 19.1615 312.042 20.0611L310.877 27H308.753L309.868 20.3168C309.996 19.526 309.892 18.9081 309.556 18.4631C309.224 18.0133 308.696 17.7884 307.972 17.7884C307.48 17.7884 307.023 17.8949 306.601 18.108C306.185 18.321 305.832 18.6335 305.543 19.0455C305.259 19.4527 305.065 19.9451 304.961 20.5227ZM321.381 22.4759L322.446 16.0909H324.577L322.759 27H320.671L320.99 25.1108H320.877C320.536 25.6932 320.053 26.1785 319.428 26.5668C318.808 26.9503 318.088 27.142 317.269 27.142C316.568 27.142 315.974 26.9882 315.486 26.6804C315.003 26.3679 314.66 25.9062 314.456 25.2955C314.253 24.6847 314.224 23.9295 314.371 23.0298L315.536 16.0909H317.659L316.544 22.7741C316.426 23.5175 316.537 24.1094 316.878 24.5497C317.219 24.9901 317.716 25.2102 318.37 25.2102C318.767 25.2102 319.179 25.1108 319.605 24.9119C320.032 24.7131 320.408 24.4124 320.735 24.0099C321.066 23.6075 321.282 23.0961 321.381 22.4759ZM319.414 14.6349L321.615 11.3608H323.853L321.118 14.6349H319.414ZM325.619 27L327.438 16.0909H329.476L329.178 17.8665H329.312C329.644 17.2652 330.094 16.7964 330.662 16.4602C331.235 16.1193 331.884 15.9489 332.608 15.9489C333.328 15.9489 333.908 16.1193 334.348 16.4602C334.793 16.8011 335.084 17.2699 335.222 17.8665H335.335C335.686 17.2794 336.176 16.813 336.805 16.4673C337.435 16.1217 338.143 15.9489 338.929 15.9489C339.909 15.9489 340.662 16.2614 341.188 16.8864C341.718 17.5066 341.879 18.4394 341.67 19.6847L340.449 27H338.318L339.511 19.8835C339.63 19.1402 339.516 18.6051 339.17 18.2784C338.825 17.947 338.373 17.7812 337.814 17.7812C337.123 17.7812 336.55 17.9943 336.095 18.4205C335.641 18.8419 335.361 19.384 335.257 20.0469L334.085 27H331.976L333.19 19.7486C333.285 19.152 333.176 18.6761 332.864 18.321C332.556 17.9612 332.106 17.7812 331.514 17.7812C331.112 17.7812 330.721 17.8878 330.342 18.1009C329.968 18.3139 329.649 18.6075 329.384 18.9815C329.118 19.3556 328.946 19.7865 328.865 20.2741L327.743 27H325.619ZM347.961 27.2202C346.891 27.2202 346.006 26.9905 345.305 26.5312C344.609 26.0672 344.121 25.4162 343.842 24.5781C343.563 23.7353 343.518 22.7481 343.707 21.6165C343.892 20.4991 344.263 19.5142 344.822 18.6619C345.381 17.8097 346.077 17.1444 346.91 16.6662C347.748 16.188 348.674 15.9489 349.687 15.9489C350.303 15.9489 350.883 16.0507 351.427 16.2543C351.976 16.4579 352.443 16.7775 352.826 17.2131C353.21 17.6487 353.475 18.2145 353.622 18.9105C353.773 19.6018 353.769 20.4422 353.608 21.4318L353.487 22.1847H344.808L345.056 20.5938H351.647C351.747 20.035 351.721 19.5402 351.569 19.1094C351.418 18.6738 351.157 18.3305 350.788 18.0795C350.423 17.8286 349.964 17.7031 349.41 17.7031C348.842 17.7031 348.312 17.8523 347.819 18.1506C347.327 18.4489 346.915 18.83 346.583 19.294C346.257 19.7533 346.051 20.2268 345.966 20.7145L345.717 22.1705C345.594 22.9659 345.615 23.6051 345.781 24.0881C345.951 24.571 346.25 24.9214 346.676 25.1392C347.102 25.357 347.635 25.4659 348.274 25.4659C348.686 25.4659 349.067 25.4091 349.417 25.2955C349.772 25.1771 350.087 25.0043 350.362 24.777C350.636 24.545 350.866 24.2562 351.051 23.9105L352.997 24.2727C352.736 24.8646 352.362 25.383 351.875 25.8281C351.387 26.2685 350.812 26.6117 350.149 26.858C349.491 27.0994 348.761 27.2202 347.961 27.2202ZM355.065 27L356.884 16.0909H358.936L358.645 17.8239H358.759C359.052 17.2367 359.481 16.7751 360.044 16.4389C360.607 16.098 361.209 15.9276 361.848 15.9276C361.985 15.9276 362.142 15.9323 362.317 15.9418C362.492 15.9465 362.634 15.9583 362.743 15.9773L362.402 18.0085C362.321 17.9848 362.175 17.9588 361.962 17.9304C361.749 17.8973 361.528 17.8807 361.301 17.8807C360.804 17.8807 360.342 17.9872 359.916 18.2003C359.49 18.4086 359.133 18.6998 358.844 19.0739C358.555 19.4432 358.368 19.8646 358.283 20.3381L357.189 27H355.065ZM367.034 27.2202C365.998 27.2202 365.131 26.9834 364.435 26.5099C363.739 26.0317 363.249 25.3641 362.965 24.5071C362.685 23.6454 362.638 22.6439 362.823 21.5028C363.003 20.3854 363.365 19.41 363.909 18.5767C364.459 17.7434 365.145 17.0971 365.969 16.6378C366.798 16.1785 367.719 15.9489 368.732 15.9489C369.769 15.9489 370.633 16.188 371.324 16.6662C372.02 17.1444 372.51 17.8144 372.794 18.6761C373.078 19.5379 373.128 20.5417 372.944 21.6875C372.764 22.7955 372.397 23.7661 371.843 24.5994C371.293 25.428 370.607 26.072 369.783 26.5312C368.959 26.9905 368.043 27.2202 367.034 27.2202ZM367.155 25.4375C367.837 25.4375 368.431 25.2576 368.938 24.8977C369.449 24.5379 369.866 24.0597 370.188 23.4631C370.51 22.8665 370.73 22.2131 370.848 21.5028C370.957 20.8163 370.955 20.1889 370.841 19.6207C370.732 19.0478 370.496 18.5885 370.131 18.2429C369.766 17.8973 369.26 17.7244 368.611 17.7244C367.929 17.7244 367.33 17.9067 366.814 18.2713C366.303 18.6312 365.886 19.1117 365.564 19.7131C365.247 20.3144 365.032 20.9702 364.918 21.6804C364.809 22.3622 364.809 22.9896 364.918 23.5625C365.027 24.1307 365.264 24.5852 365.628 24.9261C365.993 25.267 366.502 25.4375 367.155 25.4375ZM384.407 27.2202C383.337 27.2202 382.451 26.9905 381.75 26.5312C381.054 26.0672 380.567 25.4162 380.287 24.5781C380.008 23.7353 379.963 22.7481 380.152 21.6165C380.337 20.4991 380.709 19.5142 381.267 18.6619C381.826 17.8097 382.522 17.1444 383.355 16.6662C384.194 16.188 385.119 15.9489 386.132 15.9489C386.748 15.9489 387.328 16.0507 387.873 16.2543C388.422 16.4579 388.888 16.7775 389.272 17.2131C389.655 17.6487 389.92 18.2145 390.067 18.9105C390.219 19.6018 390.214 20.4422 390.053 21.4318L389.932 22.1847H381.253L381.502 20.5938H388.093C388.192 20.035 388.166 19.5402 388.015 19.1094C387.863 18.6738 387.603 18.3305 387.233 18.0795C386.869 17.8286 386.409 17.7031 385.855 17.7031C385.287 17.7031 384.757 17.8523 384.265 18.1506C383.772 18.4489 383.36 18.83 383.029 19.294C382.702 19.7533 382.496 20.2268 382.411 20.7145L382.162 22.1705C382.039 22.9659 382.06 23.6051 382.226 24.0881C382.397 24.571 382.695 24.9214 383.121 25.1392C383.547 25.357 384.08 25.4659 384.719 25.4659C385.131 25.4659 385.512 25.4091 385.863 25.2955C386.218 25.1771 386.533 25.0043 386.807 24.777C387.082 24.545 387.311 24.2562 387.496 23.9105L389.442 24.2727C389.182 24.8646 388.808 25.383 388.32 25.8281C387.832 26.2685 387.257 26.6117 386.594 26.858C385.936 27.0994 385.207 27.2202 384.407 27.2202ZM394.707 20.5227L393.641 27H391.518L393.336 16.0909H395.374L395.076 17.8665H395.211C395.557 17.2841 396.028 16.8201 396.624 16.4744C397.226 16.1241 397.936 15.9489 398.755 15.9489C399.494 15.9489 400.114 16.1051 400.616 16.4176C401.122 16.7254 401.48 17.1847 401.688 17.7955C401.901 18.4062 401.934 19.1615 401.788 20.0611L400.623 27H398.499L399.614 20.3168C399.742 19.526 399.638 18.9081 399.302 18.4631C398.97 18.0133 398.442 17.7884 397.718 17.7884C397.226 17.7884 396.769 17.8949 396.347 18.108C395.931 18.321 395.578 18.6335 395.289 19.0455C395.005 19.4527 394.811 19.9451 394.707 20.5227ZM413.43 27.2202C412.36 27.2202 411.475 26.9905 410.774 26.5312C410.078 26.0672 409.59 25.4162 409.311 24.5781C409.031 23.7353 408.986 22.7481 409.176 21.6165C409.36 20.4991 409.732 19.5142 410.291 18.6619C410.85 17.8097 411.546 17.1444 412.379 16.6662C413.217 16.188 414.143 15.9489 415.156 15.9489C415.771 15.9489 416.351 16.0507 416.896 16.2543C417.445 16.4579 417.912 16.7775 418.295 17.2131C418.679 17.6487 418.944 18.2145 419.091 18.9105C419.242 19.6018 419.237 20.4422 419.076 21.4318L418.956 22.1847H410.277L410.525 20.5938H417.116C417.216 20.035 417.19 19.5402 417.038 19.1094C416.886 18.6738 416.626 18.3305 416.257 18.0795C415.892 17.8286 415.433 17.7031 414.879 17.7031C414.311 17.7031 413.78 17.8523 413.288 18.1506C412.796 18.4489 412.384 18.83 412.052 19.294C411.725 19.7533 411.52 20.2268 411.434 20.7145L411.186 22.1705C411.063 22.9659 411.084 23.6051 411.25 24.0881C411.42 24.571 411.718 24.9214 412.145 25.1392C412.571 25.357 413.103 25.4659 413.743 25.4659C414.154 25.4659 414.536 25.4091 414.886 25.2955C415.241 25.1771 415.556 25.0043 415.831 24.777C416.105 24.545 416.335 24.2562 416.52 23.9105L418.466 24.2727C418.205 24.8646 417.831 25.383 417.343 25.8281C416.856 26.2685 416.28 26.6117 415.618 26.858C414.959 27.0994 414.23 27.2202 413.43 27.2202ZM425.072 12.4545L422.658 27H420.534L422.949 12.4545H425.072ZM430.815 27L432.633 16.0909H434.671L434.373 17.8665H434.508C434.839 17.2652 435.289 16.7964 435.857 16.4602C436.43 16.1193 437.079 15.9489 437.803 15.9489C438.523 15.9489 439.103 16.1193 439.543 16.4602C439.988 16.8011 440.28 17.2699 440.417 17.8665H440.531C440.881 17.2794 441.371 16.813 442.001 16.4673C442.63 16.1217 443.338 15.9489 444.124 15.9489C445.104 15.9489 445.857 16.2614 446.383 16.8864C446.913 17.5066 447.074 18.4394 446.866 19.6847L445.644 27H443.513L444.707 19.8835C444.825 19.1402 444.711 18.6051 444.366 18.2784C444.02 17.947 443.568 17.7812 443.009 17.7812C442.318 17.7812 441.745 17.9943 441.29 18.4205C440.836 18.8419 440.557 19.384 440.452 20.0469L439.281 27H437.171L438.386 19.7486C438.48 19.152 438.371 18.6761 438.059 18.321C437.751 17.9612 437.301 17.7812 436.71 17.7812C436.307 17.7812 435.916 17.8878 435.538 18.1009C435.164 18.3139 434.844 18.6075 434.579 18.9815C434.314 19.3556 434.141 19.7865 434.06 20.2741L432.938 27H430.815ZM451.63 27.2415C450.938 27.2415 450.335 27.1136 449.819 26.858C449.302 26.5975 448.921 26.2211 448.675 25.7287C448.429 25.2363 448.365 24.6326 448.483 23.9176C448.587 23.3021 448.791 22.7955 449.094 22.3977C449.402 22 449.776 21.6851 450.216 21.4531C450.657 21.2164 451.135 21.0388 451.651 20.9205C452.167 20.8021 452.688 20.7145 453.213 20.6577C453.876 20.5819 454.414 20.518 454.826 20.4659C455.242 20.4138 455.555 20.3333 455.763 20.2244C455.971 20.1108 456.097 19.9261 456.14 19.6705V19.6207C456.239 19.0052 456.149 18.527 455.87 18.1861C455.595 17.8404 455.117 17.6676 454.435 17.6676C453.725 17.6676 453.128 17.8239 452.645 18.1364C452.167 18.4489 451.814 18.7992 451.587 19.1875L449.684 18.733C450.025 18.0701 450.458 17.535 450.983 17.1278C451.514 16.7159 452.094 16.4176 452.723 16.233C453.353 16.0436 453.997 15.9489 454.655 15.9489C455.091 15.9489 455.543 16.0009 456.012 16.1051C456.48 16.2045 456.907 16.3892 457.29 16.6591C457.678 16.929 457.967 17.3149 458.157 17.8168C458.346 18.3139 458.374 18.9602 458.242 19.7557L457.042 27H454.968L455.223 25.5085H455.138C454.958 25.7831 454.707 26.053 454.385 26.3182C454.068 26.5833 453.68 26.8035 453.221 26.9787C452.761 27.1539 452.231 27.2415 451.63 27.2415ZM452.354 25.5369C452.946 25.5369 453.469 25.4209 453.924 25.1889C454.383 24.9569 454.755 24.6539 455.039 24.2798C455.323 23.901 455.5 23.4962 455.571 23.0653L455.806 21.6591C455.716 21.7348 455.557 21.8035 455.33 21.8651C455.107 21.9266 454.856 21.9811 454.577 22.0284C454.298 22.0758 454.023 22.116 453.753 22.1491C453.488 22.1823 453.268 22.2131 453.093 22.2415C452.676 22.2936 452.285 22.3812 451.921 22.5043C451.561 22.6274 451.26 22.8049 451.019 23.0369C450.777 23.2642 450.626 23.5672 450.564 23.946C450.479 24.4716 450.605 24.8693 450.941 25.1392C451.282 25.4044 451.753 25.5369 452.354 25.5369ZM459.195 31.0909L461.71 16.0909H463.783L463.492 17.8594H463.67C463.831 17.6321 464.049 17.3693 464.323 17.071C464.603 16.7727 464.969 16.5123 465.424 16.2898C465.879 16.0625 466.444 15.9489 467.121 15.9489C468.002 15.9489 468.748 16.1714 469.359 16.6165C469.969 17.0616 470.405 17.7031 470.665 18.5412C470.926 19.3793 470.959 20.3878 470.765 21.5668C470.571 22.7457 470.206 23.7566 469.671 24.5994C469.136 25.4375 468.487 26.0838 467.725 26.5384C466.968 26.9882 466.146 27.2131 465.261 27.2131C464.598 27.2131 464.075 27.1018 463.691 26.8793C463.312 26.6567 463.031 26.3963 462.846 26.098C462.661 25.7997 462.522 25.5346 462.427 25.3026H462.299L461.333 31.0909H459.195ZM462.881 21.5455C462.758 22.3125 462.758 22.9848 462.881 23.5625C463.004 24.1402 463.251 24.5923 463.62 24.919C463.994 25.241 464.487 25.402 465.097 25.402C465.732 25.402 466.288 25.2339 466.766 24.8977C467.245 24.5568 467.64 24.0952 467.952 23.5128C468.27 22.9304 468.49 22.2746 468.613 21.5455C468.731 20.8258 468.729 20.1795 468.606 19.6065C468.487 19.0336 468.244 18.5814 467.874 18.25C467.505 17.9186 467.001 17.7528 466.362 17.7528C465.741 17.7528 465.192 17.9115 464.714 18.2287C464.24 18.5459 463.847 18.9886 463.535 19.5568C463.222 20.125 463.004 20.7879 462.881 21.5455ZM475.38 27.2415C474.688 27.2415 474.085 27.1136 473.569 26.858C473.052 26.5975 472.671 26.2211 472.425 25.7287C472.179 25.2363 472.115 24.6326 472.233 23.9176C472.337 23.3021 472.541 22.7955 472.844 22.3977C473.152 22 473.526 21.6851 473.966 21.4531C474.407 21.2164 474.885 21.0388 475.401 20.9205C475.917 20.8021 476.438 20.7145 476.963 20.6577C477.626 20.5819 478.164 20.518 478.576 20.4659C478.992 20.4138 479.305 20.3333 479.513 20.2244C479.721 20.1108 479.847 19.9261 479.89 19.6705V19.6207C479.989 19.0052 479.899 18.527 479.62 18.1861C479.345 17.8404 478.867 17.6676 478.185 17.6676C477.475 17.6676 476.878 17.8239 476.395 18.1364C475.917 18.4489 475.564 18.7992 475.337 19.1875L473.434 18.733C473.775 18.0701 474.208 17.535 474.733 17.1278C475.264 16.7159 475.844 16.4176 476.473 16.233C477.103 16.0436 477.747 15.9489 478.405 15.9489C478.841 15.9489 479.293 16.0009 479.762 16.1051C480.23 16.2045 480.657 16.3892 481.04 16.6591C481.428 16.929 481.717 17.3149 481.907 17.8168C482.096 18.3139 482.124 18.9602 481.992 19.7557L480.792 27H478.718L478.973 25.5085H478.888C478.708 25.7831 478.457 26.053 478.135 26.3182C477.818 26.5833 477.43 26.8035 476.971 26.9787C476.511 27.1539 475.981 27.2415 475.38 27.2415ZM476.104 25.5369C476.696 25.5369 477.219 25.4209 477.674 25.1889C478.133 24.9569 478.505 24.6539 478.789 24.2798C479.073 23.901 479.25 23.4962 479.321 23.0653L479.556 21.6591C479.466 21.7348 479.307 21.8035 479.08 21.8651C478.857 21.9266 478.606 21.9811 478.327 22.0284C478.048 22.0758 477.773 22.116 477.503 22.1491C477.238 22.1823 477.018 22.2131 476.843 22.2415C476.426 22.2936 476.035 22.3812 475.671 22.5043C475.311 22.6274 475.01 22.8049 474.769 23.0369C474.527 23.2642 474.376 23.5672 474.314 23.946C474.229 24.4716 474.355 24.8693 474.691 25.1392C475.032 25.4044 475.503 25.5369 476.104 25.5369ZM485.197 27.1349C484.799 27.1349 484.468 26.9976 484.202 26.723C483.942 26.4484 483.814 26.1122 483.819 25.7145C483.824 25.3215 483.97 24.9924 484.259 24.7273C484.553 24.4574 484.894 24.3224 485.282 24.3224C485.67 24.3224 486.002 24.4598 486.276 24.7344C486.551 25.009 486.679 25.3357 486.66 25.7145C486.646 25.9796 486.57 26.2211 486.433 26.4389C486.3 26.652 486.125 26.8224 485.907 26.9503C485.689 27.0734 485.452 27.1349 485.197 27.1349ZM486.511 19.1946C486.113 19.1946 485.781 19.0573 485.516 18.7827C485.256 18.5033 485.128 18.1671 485.133 17.7741C485.138 17.3812 485.284 17.0521 485.573 16.7869C485.867 16.517 486.208 16.3821 486.596 16.3821C486.979 16.3821 487.308 16.5194 487.583 16.794C487.862 17.0639 487.993 17.3906 487.974 17.7741C487.96 18.0346 487.884 18.2737 487.746 18.4915C487.609 18.7045 487.432 18.875 487.214 19.0028C487.001 19.1307 486.766 19.1946 486.511 19.1946Z" fill="#1F1F1F"/>
</svg>
