<svg width="412" height="40" viewBox="0 0 412 40" fill="none" xmlns="http://www.w3.org/2000/svg">
<circle cx="20" cy="20" r="20" fill="#1F1F1F"/>
<path d="M17.6662 24.8146C17.5399 24.464 17.4139 24.1132 17.2873 23.7626C16.573 21.7862 15.8586 19.8097 15.1442 17.8333C14.6599 16.4935 14.1831 15.1509 13.6876 13.8151C13.4025 13.0467 13.6525 12.3202 14.1606 11.883C15.0458 11.1213 16.4437 11.4839 16.8529 12.5751C17.766 15.0098 18.6836 17.4429 19.5994 19.8765C19.601 19.8805 19.6042 19.884 19.6216 19.9107C19.6074 19.7472 19.6026 19.6058 19.5822 19.4669C19.4291 18.4195 20.2478 17.4899 21.3075 17.5113C22.0179 17.5254 22.6564 18.0088 22.8803 18.7003C22.958 18.9405 23.0379 19.1802 23.1278 19.4533C23.198 19.2465 23.1699 19.0177 23.2342 18.8053C23.3023 18.5801 23.4174 18.3685 23.5718 18.1902C23.8545 17.8635 24.2669 17.6524 24.6976 17.6107C25.609 17.5225 26.4175 18.1892 26.5355 19.0568C26.5685 19.2986 26.6329 19.5361 26.6927 19.7763C26.6932 19.5011 26.7382 19.2368 26.8458 18.9827C27.1032 18.3735 27.7361 17.9612 28.4166 17.9647C29.0809 17.9682 29.725 18.3909 29.9604 19.0001C30.4257 20.2041 30.6437 21.45 30.9234 22.7029C31.2813 24.3058 31.749 25.8743 32.236 27.4419C32.5189 28.3528 32.4907 29.2498 32.1791 30.1425C31.7954 31.2417 31.1036 32.124 30.2157 32.862C29.1479 33.7494 27.9232 34.3193 26.5669 34.6058C25.2068 34.893 23.8598 34.8591 22.5405 34.3867C21.8371 34.135 21.2161 33.7502 20.6811 33.2262C19.7214 32.2865 18.7906 31.3198 17.9097 30.306C17.3656 29.68 16.8486 29.0318 16.3348 28.3811C15.8353 27.7484 15.2649 27.1873 14.6387 26.6788C13.863 26.0488 13.1057 25.3968 12.3575 24.7347C12.0036 24.4215 11.9379 24.0028 12.0199 23.558C12.1267 22.9795 12.3822 22.7232 13.0159 22.6249C14.0188 22.4694 14.9715 22.6693 15.8377 23.1775C16.5225 23.5793 17.1101 24.1111 17.5852 24.755C17.6032 24.7796 17.6231 24.8026 17.6421 24.8263C17.6501 24.8226 17.6582 24.8186 17.6662 24.8149V24.8146Z" fill="#D6F6FA"/>
<path d="M7.3125 12.8141C7.32698 11.0781 7.85444 9.51211 8.92278 8.14112C10.0751 6.66218 11.5856 5.73153 13.4273 5.36334C15.1228 5.02426 16.7583 5.24203 18.2954 6.03453C20.5109 7.1768 21.8616 8.98466 22.3483 11.4218C22.617 12.7668 22.4891 14.0873 22.0289 15.3776C22.0096 15.4321 21.9954 15.4882 21.9788 15.5438C21.8731 15.8928 21.5428 16.0801 21.2199 15.974C20.8807 15.8626 20.7174 15.508 20.8525 15.1633C21.1035 14.5234 21.2467 13.8594 21.2824 13.1751C21.3207 12.4403 21.2328 11.7165 21.0134 11.013C20.4516 9.21151 19.3173 7.89449 17.6143 7.07153C16.6376 6.59966 15.5991 6.39605 14.5181 6.46793C12.9333 6.5732 11.5555 7.17466 10.4239 8.28914C9.37597 9.32133 8.74902 10.5761 8.56345 12.0358C8.3449 13.7539 8.76162 15.3156 9.79563 16.7043C10.5006 17.6509 11.407 18.3497 12.5139 18.7812C12.8344 18.906 12.9845 19.2343 12.8658 19.5427C12.7467 19.8516 12.4021 20.0097 12.0959 19.8764C11.3893 19.5689 10.7186 19.198 10.1204 18.7077C9.2553 17.9991 8.56828 17.147 8.08157 16.1421C7.66834 15.2889 7.41333 14.3895 7.33878 13.4412C7.32242 13.232 7.31894 13.0236 7.31277 12.8136L7.3125 12.8141Z" fill="#D6F6FA"/>
<path d="M14.8702 8.85787C13.3714 8.92895 12.2283 9.59079 11.4962 10.9099C10.7368 12.278 10.9443 14.0634 11.977 15.2423C12.3594 15.6789 12.808 16.0198 13.3425 16.2509C13.6415 16.3803 13.771 16.7071 13.6549 17.0106C13.543 17.3029 13.228 17.4565 12.9207 17.3601C12.6847 17.2861 12.472 17.1616 12.2642 17.0304C10.9199 16.1812 10.1109 14.9697 9.90362 13.4024C9.67971 11.7086 10.2088 10.243 11.4391 9.05212C12.2532 8.26416 13.2416 7.80565 14.3759 7.70358C16.1326 7.5454 17.6003 8.14285 18.7536 9.46628C19.4237 10.235 19.7981 11.1456 19.9144 12.1612C20.0011 12.9177 19.911 13.6522 19.6672 14.3699C19.5725 14.6488 19.3224 14.8067 19.048 14.7766C18.7584 14.7445 18.5527 14.542 18.5104 14.2486C18.4951 14.1436 18.5254 14.046 18.5554 13.948C19.0193 12.4316 18.6986 11.0922 17.5938 9.96273C16.9771 9.33215 16.2007 8.98051 15.3145 8.88539C15.1673 8.86963 15.0211 8.85974 14.8702 8.85814V8.85787Z" fill="#D6F6FA"/>
<path d="M49.6889 27L52.1037 12.4545H61.223L60.9105 14.3438H53.9858L53.2472 18.7756H59.696L59.3835 20.6577H52.9347L52.196 25.1108H59.206L58.8935 27H49.6889ZM65.0636 16.0909L66.7681 20.3381L69.9002 16.0909H72.2227L67.9116 21.5455L70.4329 27H68.1104L66.3349 22.9233L63.2028 27H60.8732L65.1772 21.5455L62.734 16.0909H65.0636ZM71.9102 31.0909L74.4244 16.0909H76.4982L76.207 17.8594H76.3846C76.5456 17.6321 76.7634 17.3693 77.038 17.071C77.3174 16.7727 77.6843 16.5123 78.1388 16.2898C78.5934 16.0625 79.1592 15.9489 79.8363 15.9489C80.717 15.9489 81.4627 16.1714 82.0735 16.6165C82.6843 17.0616 83.1199 17.7031 83.3803 18.5412C83.6407 19.3793 83.6739 20.3878 83.4798 21.5668C83.2856 22.7457 82.921 23.7566 82.386 24.5994C81.851 25.4375 81.2023 26.0838 80.44 26.5384C79.6824 26.9882 78.8609 27.2131 77.9755 27.2131C77.3126 27.2131 76.7894 27.1018 76.4059 26.8793C76.0271 26.6567 75.7454 26.3963 75.5607 26.098C75.3761 25.7997 75.2364 25.5346 75.1417 25.3026H75.0138L74.0479 31.0909H71.9102ZM75.5962 21.5455C75.4731 22.3125 75.4731 22.9848 75.5962 23.5625C75.7193 24.1402 75.9656 24.5923 76.3349 24.919C76.7089 25.241 77.2013 25.402 77.8121 25.402C78.4466 25.402 79.003 25.2339 79.4812 24.8977C79.9594 24.5568 80.3548 24.0952 80.6673 23.5128C80.9845 22.9304 81.2047 22.2746 81.3278 21.5455C81.4461 20.8258 81.4438 20.1795 81.3207 19.6065C81.2023 19.0336 80.9585 18.5814 80.5891 18.25C80.2198 17.9186 79.7156 17.7528 79.0763 17.7528C78.4561 17.7528 77.9068 17.9115 77.4286 18.2287C76.9551 18.5459 76.5621 18.9886 76.2496 19.5568C75.9371 20.125 75.7193 20.7879 75.5962 21.5455ZM89.4865 12.4545L87.0717 27H84.9482L87.3629 12.4545H89.4865ZM94.5735 27.2202C93.5366 27.2202 92.6701 26.9834 91.9741 26.5099C91.2781 26.0317 90.788 25.3641 90.5039 24.5071C90.2246 23.6454 90.1772 22.6439 90.3619 21.5028C90.5418 20.3854 90.904 19.41 91.4485 18.5767C91.9978 17.7434 92.6843 17.0971 93.5082 16.6378C94.3368 16.1785 95.2577 15.9489 96.271 15.9489C97.3079 15.9489 98.172 16.188 98.8633 16.6662C99.5593 17.1444 100.049 17.8144 100.333 18.6761C100.618 19.5379 100.667 20.5417 100.483 21.6875C100.303 22.7955 99.9357 23.7661 99.3817 24.5994C98.8325 25.428 98.146 26.072 97.3221 26.5312C96.4982 26.9905 95.582 27.2202 94.5735 27.2202ZM94.6942 25.4375C95.3761 25.4375 95.9703 25.2576 96.4769 24.8977C96.9883 24.5379 97.4049 24.0597 97.7269 23.4631C98.0489 22.8665 98.2691 22.2131 98.3874 21.5028C98.4963 20.8163 98.494 20.1889 98.3803 19.6207C98.2714 19.0478 98.0347 18.5885 97.6701 18.2429C97.3055 17.8973 96.7989 17.7244 96.1502 17.7244C95.4684 17.7244 94.8694 17.9067 94.3533 18.2713C93.842 18.6312 93.4253 19.1117 93.1033 19.7131C92.7861 20.3144 92.5707 20.9702 92.457 21.6804C92.3481 22.3622 92.3481 22.9896 92.457 23.5625C92.5659 24.1307 92.8027 24.5852 93.1673 24.9261C93.5318 25.267 94.0408 25.4375 94.6942 25.4375ZM101.979 27L103.798 16.0909H105.85L105.559 17.8239H105.673C105.966 17.2367 106.395 16.7751 106.958 16.4389C107.522 16.098 108.123 15.9276 108.762 15.9276C108.899 15.9276 109.056 15.9323 109.231 15.9418C109.406 15.9465 109.548 15.9583 109.657 15.9773L109.316 18.0085C109.236 17.9848 109.089 17.9588 108.876 17.9304C108.663 17.8973 108.442 17.8807 108.215 17.8807C107.718 17.8807 107.256 17.9872 106.83 18.2003C106.404 18.4086 106.047 18.6998 105.758 19.0739C105.469 19.4432 105.282 19.8646 105.197 20.3381L104.103 27H101.979ZM113.977 27.2202C112.907 27.2202 112.021 26.9905 111.321 26.5312C110.625 26.0672 110.137 25.4162 109.858 24.5781C109.578 23.7353 109.533 22.7481 109.723 21.6165C109.907 20.4991 110.279 19.5142 110.838 18.6619C111.396 17.8097 112.092 17.1444 112.926 16.6662C113.764 16.188 114.69 15.9489 115.703 15.9489C116.318 15.9489 116.898 16.0507 117.443 16.2543C117.992 16.4579 118.458 16.7775 118.842 17.2131C119.225 17.6487 119.491 18.2145 119.637 18.9105C119.789 19.6018 119.784 20.4422 119.623 21.4318L119.502 22.1847H110.824L111.072 20.5938H117.663C117.762 20.035 117.736 19.5402 117.585 19.1094C117.433 18.6738 117.173 18.3305 116.804 18.0795C116.439 17.8286 115.98 17.7031 115.426 17.7031C114.858 17.7031 114.327 17.8523 113.835 18.1506C113.342 18.4489 112.931 18.83 112.599 19.294C112.272 19.7533 112.066 20.2268 111.981 20.7145L111.733 22.1705C111.609 22.9659 111.631 23.6051 111.797 24.0881C111.967 24.571 112.265 24.9214 112.691 25.1392C113.118 25.357 113.65 25.4659 114.289 25.4659C114.701 25.4659 115.083 25.4091 115.433 25.2955C115.788 25.1771 116.103 25.0043 116.377 24.777C116.652 24.545 116.882 24.2562 117.066 23.9105L119.012 24.2727C118.752 24.8646 118.378 25.383 117.89 25.8281C117.403 26.2685 116.827 26.6117 116.164 26.858C115.506 27.0994 114.777 27.2202 113.977 27.2202ZM130.912 12.4545L128.498 27H126.374L128.789 12.4545H130.912ZM134.501 27.2415C133.809 27.2415 133.206 27.1136 132.69 26.858C132.174 26.5975 131.792 26.2211 131.546 25.7287C131.3 25.2363 131.236 24.6326 131.354 23.9176C131.459 23.3021 131.662 22.7955 131.965 22.3977C132.273 22 132.647 21.6851 133.087 21.4531C133.528 21.2164 134.006 21.0388 134.522 20.9205C135.038 20.8021 135.559 20.7145 136.085 20.6577C136.747 20.5819 137.285 20.518 137.697 20.4659C138.113 20.4138 138.426 20.3333 138.634 20.2244C138.843 20.1108 138.968 19.9261 139.011 19.6705V19.6207C139.11 19.0052 139.02 18.527 138.741 18.1861C138.466 17.8404 137.988 17.6676 137.306 17.6676C136.596 17.6676 135.999 17.8239 135.516 18.1364C135.038 18.4489 134.685 18.7992 134.458 19.1875L132.555 18.733C132.896 18.0701 133.329 17.535 133.854 17.1278C134.385 16.7159 134.965 16.4176 135.594 16.233C136.224 16.0436 136.868 15.9489 137.526 15.9489C137.962 15.9489 138.414 16.0009 138.883 16.1051C139.352 16.2045 139.778 16.3892 140.161 16.6591C140.549 16.929 140.838 17.3149 141.028 17.8168C141.217 18.3139 141.246 18.9602 141.113 19.7557L139.913 27H137.839L138.094 25.5085H138.009C137.829 25.7831 137.578 26.053 137.256 26.3182C136.939 26.5833 136.551 26.8035 136.092 26.9787C135.632 27.1539 135.102 27.2415 134.501 27.2415ZM135.225 25.5369C135.817 25.5369 136.34 25.4209 136.795 25.1889C137.254 24.9569 137.626 24.6539 137.91 24.2798C138.194 23.901 138.371 23.4962 138.442 23.0653L138.677 21.6591C138.587 21.7348 138.428 21.8035 138.201 21.8651C137.978 21.9266 137.728 21.9811 137.448 22.0284C137.169 22.0758 136.894 22.116 136.624 22.1491C136.359 22.1823 136.139 22.2131 135.964 22.2415C135.547 22.2936 135.156 22.3812 134.792 22.5043C134.432 22.6274 134.131 22.8049 133.89 23.0369C133.648 23.2642 133.497 23.5672 133.435 23.946C133.35 24.4716 133.476 24.8693 133.812 25.1392C134.153 25.4044 134.624 25.5369 135.225 25.5369ZM148.034 27L149.852 16.0909H151.976L150.158 27H148.034ZM151.358 14.3864C150.989 14.3864 150.676 14.2633 150.42 14.017C150.17 13.7661 150.054 13.4678 150.072 13.1222C150.091 12.7718 150.238 12.4735 150.513 12.2273C150.787 11.9763 151.107 11.8509 151.472 11.8509C151.841 11.8509 152.151 11.9763 152.402 12.2273C152.653 12.4735 152.771 12.7718 152.757 13.1222C152.738 13.4678 152.591 13.7661 152.317 14.017C152.047 14.2633 151.727 14.3864 151.358 14.3864ZM156.211 20.5227L155.145 27H153.022L154.84 16.0909H156.878L156.58 17.8665H156.715C157.06 17.2841 157.532 16.8201 158.128 16.4744C158.73 16.1241 159.44 15.9489 160.259 15.9489C160.998 15.9489 161.618 16.1051 162.12 16.4176C162.626 16.7254 162.984 17.1847 163.192 17.7955C163.405 18.4062 163.438 19.1615 163.292 20.0611L162.127 27H160.003L161.118 20.3168C161.246 19.526 161.142 18.9081 160.806 18.4631C160.474 18.0133 159.946 17.7884 159.222 17.7884C158.73 17.7884 158.273 17.8949 157.851 18.108C157.435 18.321 157.082 18.6335 156.793 19.0455C156.509 19.4527 156.315 19.9451 156.211 20.5227ZM171.978 16.0909L171.701 17.7955H165.536L165.813 16.0909H171.978ZM165.685 27L167.716 14.8267C167.82 14.1449 168.06 13.5791 168.434 13.1293C168.808 12.6747 169.26 12.3362 169.79 12.1136C170.32 11.8864 170.874 11.7727 171.452 11.7727C171.878 11.7727 172.236 11.8082 172.525 11.8793C172.818 11.9455 173.031 12.0071 173.164 12.0639L172.39 13.7827C172.295 13.7543 172.174 13.7211 172.027 13.6832C171.881 13.6406 171.696 13.6193 171.473 13.6193C170.957 13.6193 170.567 13.7472 170.301 14.0028C170.041 14.2585 169.866 14.6278 169.776 15.1108L167.809 27H165.685ZM176.566 27.2202C175.529 27.2202 174.662 26.9834 173.966 26.5099C173.27 26.0317 172.78 25.3641 172.496 24.5071C172.217 23.6454 172.169 22.6439 172.354 21.5028C172.534 20.3854 172.896 19.41 173.441 18.5767C173.99 17.7434 174.676 17.0971 175.5 16.6378C176.329 16.1785 177.25 15.9489 178.263 15.9489C179.3 15.9489 180.164 16.188 180.855 16.6662C181.551 17.1444 182.042 17.8144 182.326 18.6761C182.61 19.5379 182.659 20.5417 182.475 21.6875C182.295 22.7955 181.928 23.7661 181.374 24.5994C180.825 25.428 180.138 26.072 179.314 26.5312C178.49 26.9905 177.574 27.2202 176.566 27.2202ZM176.686 25.4375C177.368 25.4375 177.962 25.2576 178.469 24.8977C178.98 24.5379 179.397 24.0597 179.719 23.4631C180.041 22.8665 180.261 22.2131 180.38 21.5028C180.489 20.8163 180.486 20.1889 180.373 19.6207C180.264 19.0478 180.027 18.5885 179.662 18.2429C179.298 17.8973 178.791 17.7244 178.142 17.7244C177.461 17.7244 176.862 17.9067 176.346 18.2713C175.834 18.6312 175.417 19.1117 175.096 19.7131C174.778 20.3144 174.563 20.9702 174.449 21.6804C174.34 22.3622 174.34 22.9896 174.449 23.5625C174.558 24.1307 174.795 24.5852 175.159 24.9261C175.524 25.267 176.033 25.4375 176.686 25.4375ZM183.972 27L185.79 16.0909H187.842L187.551 17.8239H187.665C187.958 17.2367 188.387 16.7751 188.95 16.4389C189.514 16.098 190.115 15.9276 190.754 15.9276C190.892 15.9276 191.048 15.9323 191.223 15.9418C191.398 15.9465 191.54 15.9583 191.649 15.9773L191.308 18.0085C191.228 17.9848 191.081 17.9588 190.868 17.9304C190.655 17.8973 190.435 17.8807 190.207 17.8807C189.71 17.8807 189.249 17.9872 188.822 18.2003C188.396 18.4086 188.039 18.6998 187.75 19.0739C187.461 19.4432 187.274 19.8646 187.189 20.3381L186.095 27H183.972ZM191.694 27L193.512 16.0909H195.55L195.252 17.8665H195.387C195.718 17.2652 196.168 16.7964 196.736 16.4602C197.309 16.1193 197.958 15.9489 198.682 15.9489C199.402 15.9489 199.982 16.1193 200.422 16.4602C200.867 16.8011 201.158 17.2699 201.296 17.8665H201.409C201.76 17.2794 202.25 16.813 202.88 16.4673C203.509 16.1217 204.217 15.9489 205.003 15.9489C205.983 15.9489 206.736 16.2614 207.262 16.8864C207.792 17.5066 207.953 18.4394 207.745 19.6847L206.523 27H204.392L205.586 19.8835C205.704 19.1402 205.59 18.6051 205.245 18.2784C204.899 17.947 204.447 17.7812 203.888 17.7812C203.197 17.7812 202.624 17.9943 202.169 18.4205C201.715 18.8419 201.435 19.384 201.331 20.0469L200.159 27H198.05L199.265 19.7486C199.359 19.152 199.25 18.6761 198.938 18.321C198.63 17.9612 198.18 17.7812 197.588 17.7812C197.186 17.7812 196.795 17.8878 196.417 18.1009C196.042 18.3139 195.723 18.6075 195.458 18.9815C195.193 19.3556 195.02 19.7865 194.939 20.2741L193.817 27H191.694ZM212.509 27.2415C211.817 27.2415 211.214 27.1136 210.697 26.858C210.181 26.5975 209.8 26.2211 209.554 25.7287C209.308 25.2363 209.244 24.6326 209.362 23.9176C209.466 23.3021 209.67 22.7955 209.973 22.3977C210.281 22 210.655 21.6851 211.095 21.4531C211.536 21.2164 212.014 21.0388 212.53 20.9205C213.046 20.8021 213.567 20.7145 214.092 20.6577C214.755 20.5819 215.293 20.518 215.705 20.4659C216.121 20.4138 216.434 20.3333 216.642 20.2244C216.85 20.1108 216.976 19.9261 217.018 19.6705V19.6207C217.118 19.0052 217.028 18.527 216.749 18.1861C216.474 17.8404 215.996 17.6676 215.314 17.6676C214.604 17.6676 214.007 17.8239 213.524 18.1364C213.046 18.4489 212.693 18.7992 212.466 19.1875L210.562 18.733C210.903 18.0701 211.337 17.535 211.862 17.1278C212.393 16.7159 212.973 16.4176 213.602 16.233C214.232 16.0436 214.876 15.9489 215.534 15.9489C215.97 15.9489 216.422 16.0009 216.891 16.1051C217.359 16.2045 217.786 16.3892 218.169 16.6591C218.557 16.929 218.846 17.3149 219.036 17.8168C219.225 18.3139 219.253 18.9602 219.121 19.7557L217.92 27H215.847L216.102 25.5085H216.017C215.837 25.7831 215.586 26.053 215.264 26.3182C214.947 26.5833 214.559 26.8035 214.099 26.9787C213.64 27.1539 213.11 27.2415 212.509 27.2415ZM213.233 25.5369C213.825 25.5369 214.348 25.4209 214.803 25.1889C215.262 24.9569 215.634 24.6539 215.918 24.2798C216.202 23.901 216.379 23.4962 216.45 23.0653L216.685 21.6591C216.595 21.7348 216.436 21.8035 216.209 21.8651C215.986 21.9266 215.735 21.9811 215.456 22.0284C215.177 22.0758 214.902 22.116 214.632 22.1491C214.367 22.1823 214.147 22.2131 213.972 22.2415C213.555 22.2936 213.164 22.3812 212.8 22.5043C212.44 22.6274 212.139 22.8049 211.898 23.0369C211.656 23.2642 211.505 23.5672 211.443 23.946C211.358 24.4716 211.483 24.8693 211.82 25.1392C212.161 25.4044 212.632 25.5369 213.233 25.5369ZM225.316 27.2202C224.255 27.2202 223.386 26.9811 222.709 26.5028C222.032 26.0199 221.561 25.3546 221.296 24.5071C221.031 23.6596 220.988 22.6889 221.168 21.5952C221.348 20.4872 221.715 19.5095 222.269 18.6619C222.828 17.8097 223.526 17.1444 224.364 16.6662C225.207 16.188 226.142 15.9489 227.169 15.9489C227.998 15.9489 228.711 16.1027 229.307 16.4105C229.904 16.7135 230.356 17.1397 230.664 17.6889C230.971 18.2382 231.104 18.8797 231.061 19.6136H228.995C228.962 19.1023 228.772 18.6619 228.426 18.2926C228.081 17.9233 227.572 17.7386 226.9 17.7386C226.308 17.7386 225.763 17.8949 225.266 18.2074C224.769 18.5152 224.35 18.9555 224.009 19.5284C223.668 20.0966 223.436 20.7689 223.313 21.5455C223.18 22.3409 223.187 23.0275 223.334 23.6051C223.481 24.1828 223.751 24.6302 224.144 24.9474C224.537 25.2647 225.032 25.4233 225.628 25.4233C226.035 25.4233 226.414 25.3499 226.765 25.2031C227.12 25.0516 227.432 24.8362 227.702 24.5568C227.977 24.2775 228.19 23.9413 228.341 23.5483H230.415C230.212 24.2538 229.871 24.8835 229.392 25.4375C228.919 25.9915 228.337 26.4271 227.645 26.7443C226.954 27.0616 226.177 27.2202 225.316 27.2202ZM232.097 27L233.915 16.0909H236.038L234.22 27H232.097ZM235.42 14.3864C235.051 14.3864 234.739 14.2633 234.483 14.017C234.232 13.7661 234.116 13.4678 234.135 13.1222C234.154 12.7718 234.301 12.4735 234.575 12.2273C234.85 11.9763 235.17 11.8509 235.534 11.8509C235.903 11.8509 236.214 11.9763 236.464 12.2273C236.715 12.4735 236.834 12.7718 236.82 13.1222C236.801 13.4678 236.654 13.7661 236.379 14.017C236.109 14.2633 235.79 14.3864 235.42 14.3864ZM241.722 27.2202C240.685 27.2202 239.819 26.9834 239.123 26.5099C238.426 26.0317 237.936 25.3641 237.652 24.5071C237.373 23.6454 237.326 22.6439 237.51 21.5028C237.69 20.3854 238.052 19.41 238.597 18.5767C239.146 17.7434 239.833 17.0971 240.657 16.6378C241.485 16.1785 242.406 15.9489 243.419 15.9489C244.456 15.9489 245.32 16.188 246.012 16.6662C246.708 17.1444 247.198 17.8144 247.482 18.6761C247.766 19.5379 247.816 20.5417 247.631 21.6875C247.451 22.7955 247.084 23.7661 246.53 24.5994C245.981 25.428 245.294 26.072 244.471 26.5312C243.647 26.9905 242.73 27.2202 241.722 27.2202ZM241.843 25.4375C242.525 25.4375 243.119 25.2576 243.625 24.8977C244.137 24.5379 244.553 24.0597 244.875 23.4631C245.197 22.8665 245.417 22.2131 245.536 21.5028C245.645 20.8163 245.642 20.1889 245.529 19.6207C245.42 19.0478 245.183 18.5885 244.819 18.2429C244.454 17.8973 243.947 17.7244 243.299 17.7244C242.617 17.7244 242.018 17.9067 241.502 18.2713C240.99 18.6312 240.574 19.1117 240.252 19.7131C239.935 20.3144 239.719 20.9702 239.605 21.6804C239.497 22.3622 239.497 22.9896 239.605 23.5625C239.714 24.1307 239.951 24.5852 240.316 24.9261C240.68 25.267 241.189 25.4375 241.843 25.4375ZM242.844 14.6349L245.046 11.3608H247.283L244.549 14.6349H242.844ZM252.324 20.5227L251.259 27H249.135L250.953 16.0909H252.991L252.693 17.8665H252.828C253.174 17.2841 253.645 16.8201 254.241 16.4744C254.843 16.1241 255.553 15.9489 256.372 15.9489C257.111 15.9489 257.731 16.1051 258.233 16.4176C258.74 16.7254 259.097 17.1847 259.305 17.7955C259.518 18.4062 259.552 19.1615 259.405 20.0611L258.24 27H256.116L257.232 20.3168C257.359 19.526 257.255 18.9081 256.919 18.4631C256.588 18.0133 256.06 17.7884 255.335 17.7884C254.843 17.7884 254.386 17.8949 253.964 18.108C253.548 18.321 253.195 18.6335 252.906 19.0455C252.622 19.4527 252.428 19.9451 252.324 20.5227ZM265.699 31.0909L268.213 16.0909H270.287L269.996 17.8594H270.174C270.335 17.6321 270.552 17.3693 270.827 17.071C271.106 16.7727 271.473 16.5123 271.928 16.2898C272.382 16.0625 272.948 15.9489 273.625 15.9489C274.506 15.9489 275.252 16.1714 275.863 16.6165C276.473 17.0616 276.909 17.7031 277.169 18.5412C277.43 19.3793 277.463 20.3878 277.269 21.5668C277.075 22.7457 276.71 23.7566 276.175 24.5994C275.64 25.4375 274.991 26.0838 274.229 26.5384C273.471 26.9882 272.65 27.2131 271.765 27.2131C271.102 27.2131 270.578 27.1018 270.195 26.8793C269.816 26.6567 269.534 26.3963 269.35 26.098C269.165 25.7997 269.025 25.5346 268.931 25.3026H268.803L267.837 31.0909H265.699ZM269.385 21.5455C269.262 22.3125 269.262 22.9848 269.385 23.5625C269.508 24.1402 269.755 24.5923 270.124 24.919C270.498 25.241 270.99 25.402 271.601 25.402C272.236 25.402 272.792 25.2339 273.27 24.8977C273.748 24.5568 274.144 24.0952 274.456 23.5128C274.774 22.9304 274.994 22.2746 275.117 21.5455C275.235 20.8258 275.233 20.1795 275.11 19.6065C274.991 19.0336 274.748 18.5814 274.378 18.25C274.009 17.9186 273.505 17.7528 272.865 17.7528C272.245 17.7528 271.696 17.9115 271.218 18.2287C270.744 18.5459 270.351 18.9886 270.039 19.5568C269.726 20.125 269.508 20.7879 269.385 21.5455ZM281.884 27.2415C281.192 27.2415 280.589 27.1136 280.072 26.858C279.556 26.5975 279.175 26.2211 278.929 25.7287C278.683 25.2363 278.619 24.6326 278.737 23.9176C278.841 23.3021 279.045 22.7955 279.348 22.3977C279.656 22 280.03 21.6851 280.47 21.4531C280.911 21.2164 281.389 21.0388 281.905 20.9205C282.421 20.8021 282.942 20.7145 283.467 20.6577C284.13 20.5819 284.668 20.518 285.08 20.4659C285.496 20.4138 285.809 20.3333 286.017 20.2244C286.225 20.1108 286.351 19.9261 286.393 19.6705V19.6207C286.493 19.0052 286.403 18.527 286.124 18.1861C285.849 17.8404 285.371 17.6676 284.689 17.6676C283.979 17.6676 283.382 17.8239 282.899 18.1364C282.421 18.4489 282.068 18.7992 281.841 19.1875L279.938 18.733C280.278 18.0701 280.712 17.535 281.237 17.1278C281.768 16.7159 282.348 16.4176 282.977 16.233C283.607 16.0436 284.251 15.9489 284.909 15.9489C285.345 15.9489 285.797 16.0009 286.266 16.1051C286.734 16.2045 287.161 16.3892 287.544 16.6591C287.932 16.929 288.221 17.3149 288.411 17.8168C288.6 18.3139 288.628 18.9602 288.496 19.7557L287.295 27H285.222L285.477 25.5085H285.392C285.212 25.7831 284.961 26.053 284.639 26.3182C284.322 26.5833 283.934 26.8035 283.474 26.9787C283.015 27.1539 282.485 27.2415 281.884 27.2415ZM282.608 25.5369C283.2 25.5369 283.723 25.4209 284.178 25.1889C284.637 24.9569 285.009 24.6539 285.293 24.2798C285.577 23.901 285.754 23.4962 285.825 23.0653L286.06 21.6591C285.97 21.7348 285.811 21.8035 285.584 21.8651C285.361 21.9266 285.11 21.9811 284.831 22.0284C284.552 22.0758 284.277 22.116 284.007 22.1491C283.742 22.1823 283.522 22.2131 283.347 22.2415C282.93 22.2936 282.539 22.3812 282.175 22.5043C281.815 22.6274 281.514 22.8049 281.273 23.0369C281.031 23.2642 280.88 23.5672 280.818 23.946C280.733 24.4716 280.858 24.8693 281.195 25.1392C281.536 25.4044 282.007 25.5369 282.608 25.5369ZM290.124 27L291.942 16.0909H293.995L293.703 17.8239H293.817C294.111 17.2367 294.539 16.7751 295.103 16.4389C295.666 16.098 296.267 15.9276 296.907 15.9276C297.044 15.9276 297.2 15.9323 297.375 15.9418C297.551 15.9465 297.693 15.9583 297.801 15.9773L297.461 18.0085C297.38 17.9848 297.233 17.9588 297.02 17.9304C296.807 17.8973 296.587 17.8807 296.36 17.8807C295.863 17.8807 295.401 17.9872 294.975 18.2003C294.549 18.4086 294.191 18.6998 293.902 19.0739C293.614 19.4432 293.426 19.8646 293.341 20.3381L292.248 27H290.124ZM300.887 27.2415C300.196 27.2415 299.592 27.1136 299.076 26.858C298.56 26.5975 298.179 26.2211 297.933 25.7287C297.687 25.2363 297.623 24.6326 297.741 23.9176C297.845 23.3021 298.049 22.7955 298.352 22.3977C298.66 22 299.034 21.6851 299.474 21.4531C299.914 21.2164 300.393 21.0388 300.909 20.9205C301.425 20.8021 301.946 20.7145 302.471 20.6577C303.134 20.5819 303.672 20.518 304.083 20.4659C304.5 20.4138 304.813 20.3333 305.021 20.2244C305.229 20.1108 305.355 19.9261 305.397 19.6705V19.6207C305.497 19.0052 305.407 18.527 305.127 18.1861C304.853 17.8404 304.375 17.6676 303.693 17.6676C302.983 17.6676 302.386 17.8239 301.903 18.1364C301.425 18.4489 301.072 18.7992 300.845 19.1875L298.941 18.733C299.282 18.0701 299.716 17.535 300.241 17.1278C300.771 16.7159 301.351 16.4176 301.981 16.233C302.611 16.0436 303.255 15.9489 303.913 15.9489C304.349 15.9489 304.801 16.0009 305.27 16.1051C305.738 16.2045 306.164 16.3892 306.548 16.6591C306.936 16.929 307.225 17.3149 307.414 17.8168C307.604 18.3139 307.632 18.9602 307.5 19.7557L306.299 27H304.225L304.481 25.5085H304.396C304.216 25.7831 303.965 26.053 303.643 26.3182C303.326 26.5833 302.938 26.8035 302.478 26.9787C302.019 27.1539 301.489 27.2415 300.887 27.2415ZM301.612 25.5369C302.204 25.5369 302.727 25.4209 303.181 25.1889C303.641 24.9569 304.012 24.6539 304.297 24.2798C304.581 23.901 304.758 23.4962 304.829 23.0653L305.064 21.6591C304.974 21.7348 304.815 21.8035 304.588 21.8651C304.365 21.9266 304.114 21.9811 303.835 22.0284C303.556 22.0758 303.281 22.116 303.011 22.1491C302.746 22.1823 302.526 22.2131 302.35 22.2415C301.934 22.2936 301.543 22.3812 301.179 22.5043C300.819 22.6274 300.518 22.8049 300.277 23.0369C300.035 23.2642 299.884 23.5672 299.822 23.946C299.737 24.4716 299.862 24.8693 300.199 25.1392C300.539 25.4044 301.011 25.5369 301.612 25.5369ZM318.988 27.2202C317.927 27.2202 317.058 26.9811 316.381 26.5028C315.704 26.0199 315.233 25.3546 314.968 24.5071C314.703 23.6596 314.66 22.6889 314.84 21.5952C315.02 20.4872 315.387 19.5095 315.941 18.6619C316.499 17.8097 317.198 17.1444 318.036 16.6662C318.879 16.188 319.814 15.9489 320.841 15.9489C321.67 15.9489 322.382 16.1027 322.979 16.4105C323.576 16.7135 324.028 17.1397 324.336 17.6889C324.643 18.2382 324.776 18.8797 324.733 19.6136H322.667C322.633 19.1023 322.444 18.6619 322.098 18.2926C321.753 17.9233 321.244 17.7386 320.571 17.7386C319.98 17.7386 319.435 17.8949 318.938 18.2074C318.441 18.5152 318.022 18.9555 317.681 19.5284C317.34 20.0966 317.108 20.7689 316.985 21.5455C316.852 22.3409 316.859 23.0275 317.006 23.6051C317.153 24.1828 317.423 24.6302 317.816 24.9474C318.209 25.2647 318.703 25.4233 319.3 25.4233C319.707 25.4233 320.086 25.3499 320.436 25.2031C320.792 25.0516 321.104 24.8362 321.374 24.5568C321.649 24.2775 321.862 23.9413 322.013 23.5483H324.087C323.883 24.2538 323.542 24.8835 323.064 25.4375C322.591 25.9915 322.008 26.4271 321.317 26.7443C320.626 27.0616 319.849 27.2202 318.988 27.2202ZM328.915 27.2415C328.223 27.2415 327.62 27.1136 327.104 26.858C326.588 26.5975 326.206 26.2211 325.96 25.7287C325.714 25.2363 325.65 24.6326 325.768 23.9176C325.873 23.3021 326.076 22.7955 326.379 22.3977C326.687 22 327.061 21.6851 327.501 21.4531C327.942 21.2164 328.42 21.0388 328.936 20.9205C329.452 20.8021 329.973 20.7145 330.499 20.6577C331.161 20.5819 331.699 20.518 332.111 20.4659C332.527 20.4138 332.84 20.3333 333.048 20.2244C333.257 20.1108 333.382 19.9261 333.425 19.6705V19.6207C333.524 19.0052 333.434 18.527 333.155 18.1861C332.88 17.8404 332.402 17.6676 331.72 17.6676C331.01 17.6676 330.413 17.8239 329.93 18.1364C329.452 18.4489 329.099 18.7992 328.872 19.1875L326.969 18.733C327.31 18.0701 327.743 17.535 328.268 17.1278C328.799 16.7159 329.379 16.4176 330.009 16.233C330.638 16.0436 331.282 15.9489 331.94 15.9489C332.376 15.9489 332.828 16.0009 333.297 16.1051C333.766 16.2045 334.192 16.3892 334.575 16.6591C334.964 16.929 335.252 17.3149 335.442 17.8168C335.631 18.3139 335.66 18.9602 335.527 19.7557L334.327 27H332.253L332.509 25.5085H332.423C332.243 25.7831 331.992 26.053 331.67 26.3182C331.353 26.5833 330.965 26.8035 330.506 26.9787C330.046 27.1539 329.516 27.2415 328.915 27.2415ZM329.639 25.5369C330.231 25.5369 330.754 25.4209 331.209 25.1889C331.668 24.9569 332.04 24.6539 332.324 24.2798C332.608 23.901 332.786 23.4962 332.857 23.0653L333.091 21.6591C333.001 21.7348 332.842 21.8035 332.615 21.8651C332.393 21.9266 332.142 21.9811 331.862 22.0284C331.583 22.0758 331.308 22.116 331.038 22.1491C330.773 22.1823 330.553 22.2131 330.378 22.2415C329.961 22.2936 329.571 22.3812 329.206 22.5043C328.846 22.6274 328.545 22.8049 328.304 23.0369C328.063 23.2642 327.911 23.5672 327.849 23.946C327.764 24.4716 327.89 24.8693 328.226 25.1392C328.567 25.4044 329.038 25.5369 329.639 25.5369ZM341.225 27.2131C340.339 27.2131 339.589 26.9882 338.973 26.5384C338.363 26.0838 337.929 25.4375 337.674 24.5994C337.423 23.7566 337.394 22.7457 337.588 21.5668C337.787 20.3878 338.154 19.3793 338.689 18.5412C339.224 17.7031 339.873 17.0616 340.635 16.6165C341.398 16.1714 342.219 15.9489 343.1 15.9489C343.777 15.9489 344.302 16.0625 344.676 16.2898C345.055 16.5123 345.335 16.7727 345.515 17.071C345.694 17.3693 345.829 17.6321 345.919 17.8594H346.04L346.942 12.4545H349.066L346.651 27H344.577L344.868 25.3026H344.691C344.525 25.5346 344.295 25.7997 344.002 26.098C343.713 26.3963 343.344 26.6567 342.894 26.8793C342.444 27.1018 341.888 27.2131 341.225 27.2131ZM341.942 25.402C342.553 25.402 343.1 25.241 343.583 24.919C344.07 24.5923 344.475 24.1402 344.797 23.5625C345.124 22.9848 345.351 22.3125 345.479 21.5455C345.607 20.7879 345.605 20.125 345.472 19.5568C345.339 18.9886 345.084 18.5459 344.705 18.2287C344.326 17.9115 343.827 17.7528 343.206 17.7528C342.567 17.7528 342.011 17.9186 341.537 18.25C341.064 18.5814 340.676 19.0336 340.373 19.6065C340.074 20.1795 339.866 20.8258 339.748 21.5455C339.624 22.2746 339.62 22.9304 339.733 23.5128C339.847 24.0952 340.086 24.5568 340.451 24.8977C340.815 25.2339 341.312 25.402 341.942 25.402ZM352.821 27.2415C352.13 27.2415 351.526 27.1136 351.01 26.858C350.494 26.5975 350.113 26.2211 349.866 25.7287C349.62 25.2363 349.556 24.6326 349.675 23.9176C349.779 23.3021 349.982 22.7955 350.286 22.3977C350.593 22 350.967 21.6851 351.408 21.4531C351.848 21.2164 352.326 21.0388 352.842 20.9205C353.358 20.8021 353.879 20.7145 354.405 20.6577C355.068 20.5819 355.605 20.518 356.017 20.4659C356.434 20.4138 356.746 20.3333 356.955 20.2244C357.163 20.1108 357.288 19.9261 357.331 19.6705V19.6207C357.43 19.0052 357.34 18.527 357.061 18.1861C356.786 17.8404 356.308 17.6676 355.626 17.6676C354.916 17.6676 354.32 17.8239 353.837 18.1364C353.358 18.4489 353.006 18.7992 352.778 19.1875L350.875 18.733C351.216 18.0701 351.649 17.535 352.175 17.1278C352.705 16.7159 353.285 16.4176 353.915 16.233C354.545 16.0436 355.188 15.9489 355.847 15.9489C356.282 15.9489 356.734 16.0009 357.203 16.1051C357.672 16.2045 358.098 16.3892 358.482 16.6591C358.87 16.929 359.159 17.3149 359.348 17.8168C359.537 18.3139 359.566 18.9602 359.433 19.7557L358.233 27H356.159L356.415 25.5085H356.33C356.15 25.7831 355.899 26.053 355.577 26.3182C355.259 26.5833 354.871 26.8035 354.412 26.9787C353.953 27.1539 353.422 27.2415 352.821 27.2415ZM353.545 25.5369C354.137 25.5369 354.661 25.4209 355.115 25.1889C355.574 24.9569 355.946 24.6539 356.23 24.2798C356.514 23.901 356.692 23.4962 356.763 23.0653L356.997 21.6591C356.907 21.7348 356.749 21.8035 356.521 21.8651C356.299 21.9266 356.048 21.9811 355.768 22.0284C355.489 22.0758 355.214 22.116 354.945 22.1491C354.679 22.1823 354.459 22.2131 354.284 22.2415C353.867 22.2936 353.477 22.3812 353.112 22.5043C352.752 22.6274 352.452 22.8049 352.21 23.0369C351.969 23.2642 351.817 23.5672 351.756 23.946C351.67 24.4716 351.796 24.8693 352.132 25.1392C352.473 25.4044 352.944 25.5369 353.545 25.5369ZM365.68 31.0909L368.194 16.0909H370.268L369.977 17.8594H370.154C370.315 17.6321 370.533 17.3693 370.808 17.071C371.087 16.7727 371.454 16.5123 371.908 16.2898C372.363 16.0625 372.929 15.9489 373.606 15.9489C374.487 15.9489 375.232 16.1714 375.843 16.6165C376.454 17.0616 376.889 17.7031 377.15 18.5412C377.41 19.3793 377.443 20.3878 377.249 21.5668C377.055 22.7457 376.691 23.7566 376.156 24.5994C375.621 25.4375 374.972 26.0838 374.21 26.5384C373.452 26.9882 372.63 27.2131 371.745 27.2131C371.082 27.2131 370.559 27.1018 370.175 26.8793C369.797 26.6567 369.515 26.3963 369.33 26.098C369.146 25.7997 369.006 25.5346 368.911 25.3026H368.783L367.817 31.0909H365.68ZM369.366 21.5455C369.243 22.3125 369.243 22.9848 369.366 23.5625C369.489 24.1402 369.735 24.5923 370.104 24.919C370.478 25.241 370.971 25.402 371.582 25.402C372.216 25.402 372.772 25.2339 373.251 24.8977C373.729 24.5568 374.124 24.0952 374.437 23.5128C374.754 22.9304 374.974 22.2746 375.097 21.5455C375.216 20.8258 375.213 20.1795 375.09 19.6065C374.972 19.0336 374.728 18.5814 374.359 18.25C373.989 17.9186 373.485 17.7528 372.846 17.7528C372.226 17.7528 371.676 17.9115 371.198 18.2287C370.725 18.5459 370.332 18.9886 370.019 19.5568C369.707 20.125 369.489 20.7879 369.366 21.5455ZM381.864 27.2415C381.173 27.2415 380.569 27.1136 380.053 26.858C379.537 26.5975 379.156 26.2211 378.909 25.7287C378.663 25.2363 378.599 24.6326 378.718 23.9176C378.822 23.3021 379.025 22.7955 379.328 22.3977C379.636 22 380.01 21.6851 380.451 21.4531C380.891 21.2164 381.369 21.0388 381.885 20.9205C382.401 20.8021 382.922 20.7145 383.448 20.6577C384.111 20.5819 384.648 20.518 385.06 20.4659C385.477 20.4138 385.789 20.3333 385.998 20.2244C386.206 20.1108 386.331 19.9261 386.374 19.6705V19.6207C386.473 19.0052 386.383 18.527 386.104 18.1861C385.829 17.8404 385.351 17.6676 384.669 17.6676C383.959 17.6676 383.363 17.8239 382.88 18.1364C382.401 18.4489 382.049 18.7992 381.821 19.1875L379.918 18.733C380.259 18.0701 380.692 17.535 381.218 17.1278C381.748 16.7159 382.328 16.4176 382.958 16.233C383.587 16.0436 384.231 15.9489 384.89 15.9489C385.325 15.9489 385.777 16.0009 386.246 16.1051C386.715 16.2045 387.141 16.3892 387.525 16.6591C387.913 16.929 388.202 17.3149 388.391 17.8168C388.58 18.3139 388.609 18.9602 388.476 19.7557L387.276 27H385.202L385.458 25.5085H385.373C385.193 25.7831 384.942 26.053 384.62 26.3182C384.302 26.5833 383.914 26.8035 383.455 26.9787C382.996 27.1539 382.465 27.2415 381.864 27.2415ZM382.588 25.5369C383.18 25.5369 383.703 25.4209 384.158 25.1889C384.617 24.9569 384.989 24.6539 385.273 24.2798C385.557 23.901 385.735 23.4962 385.806 23.0653L386.04 21.6591C385.95 21.7348 385.792 21.8035 385.564 21.8651C385.342 21.9266 385.091 21.9811 384.811 22.0284C384.532 22.0758 384.257 22.116 383.988 22.1491C383.722 22.1823 383.502 22.2131 383.327 22.2415C382.91 22.2936 382.52 22.3812 382.155 22.5043C381.795 22.6274 381.495 22.8049 381.253 23.0369C381.012 23.2642 380.86 23.5672 380.799 23.946C380.713 24.4716 380.839 24.8693 381.175 25.1392C381.516 25.4044 381.987 25.5369 382.588 25.5369ZM390.104 27L391.923 16.0909H394.046L392.228 27H390.104ZM392.363 14.6136L394.565 11.3395H396.802L394.067 14.6136H392.363ZM404.637 18.7543L402.656 19.0952C402.613 18.8442 402.526 18.6075 402.393 18.3849C402.265 18.1624 402.069 17.9825 401.804 17.8452C401.538 17.7031 401.186 17.6321 400.745 17.6321C400.135 17.6321 399.6 17.7718 399.14 18.0511C398.686 18.3305 398.425 18.6856 398.359 19.1165C398.297 19.4669 398.38 19.7509 398.608 19.9688C398.835 20.1818 399.235 20.3594 399.808 20.5014L401.484 20.8991C402.45 21.1312 403.141 21.4934 403.558 21.9858C403.979 22.4735 404.126 23.108 403.998 23.8892C403.889 24.5379 403.605 25.1132 403.146 25.6151C402.691 26.117 402.109 26.5099 401.399 26.794C400.689 27.0781 399.898 27.2202 399.027 27.2202C397.786 27.2202 396.82 26.9574 396.129 26.4318C395.438 25.9063 395.083 25.1629 395.064 24.2017L397.166 23.8892C397.204 24.4242 397.395 24.8291 397.741 25.1037C398.092 25.3736 398.577 25.5085 399.197 25.5085C399.907 25.5133 400.502 25.3641 400.98 25.0611C401.458 24.758 401.73 24.3911 401.797 23.9602C401.853 23.6241 401.778 23.3447 401.569 23.1222C401.366 22.8996 401.006 22.7292 400.49 22.6108L398.728 22.206C397.743 21.974 397.047 21.5999 396.64 21.0838C396.233 20.5677 396.096 19.919 396.228 19.1378C396.333 18.4986 396.602 17.9422 397.038 17.4688C397.478 16.9905 398.035 16.6188 398.707 16.3537C399.379 16.0838 400.123 15.9489 400.937 15.9489C402.126 15.9489 403.018 16.2045 403.615 16.7159C404.211 17.2225 404.552 17.902 404.637 18.7543ZM407.384 27.1349C406.987 27.1349 406.655 26.9976 406.39 26.723C406.129 26.4484 406.002 26.1122 406.006 25.7145C406.011 25.3215 406.158 24.9924 406.447 24.7273C406.74 24.4574 407.081 24.3224 407.469 24.3224C407.858 24.3224 408.189 24.4598 408.464 24.7344C408.738 25.009 408.866 25.3357 408.847 25.7145C408.833 25.9796 408.757 26.2211 408.62 26.4389C408.487 26.652 408.312 26.8224 408.094 26.9503C407.877 27.0734 407.64 27.1349 407.384 27.1349ZM408.698 19.1946C408.3 19.1946 407.969 19.0573 407.704 18.7827C407.443 18.5033 407.316 18.1671 407.32 17.7741C407.325 17.3812 407.472 17.0521 407.761 16.7869C408.054 16.517 408.395 16.3821 408.783 16.3821C409.167 16.3821 409.496 16.5194 409.771 16.794C410.05 17.0639 410.18 17.3906 410.161 17.7741C410.147 18.0346 410.071 18.2737 409.934 18.4915C409.797 18.7045 409.619 18.875 409.401 19.0028C409.188 19.1307 408.954 19.1946 408.698 19.1946Z" fill="#1F1F1F"/>
</svg>
