<svg width="40" height="40" viewBox="0 0 40 40" fill="none" xmlns="http://www.w3.org/2000/svg">
<g id="Group 94">
<circle id="Ellipse 62" cx="20" cy="20" r="20" fill="#026972"/>
<g id="Group 8">
<path id="Vector" d="M17.6662 24.8151C17.5399 24.4645 17.4139 24.1137 17.2873 23.7631C16.573 21.7867 15.8586 19.8102 15.1442 17.8337C14.6599 16.494 14.1831 15.1514 13.6876 13.8156C13.4025 13.0472 13.6525 12.3207 14.1606 11.8835C15.0458 11.1218 16.4437 11.4843 16.8529 12.5756C17.766 15.0103 18.6836 17.4434 19.5994 19.877C19.601 19.881 19.6042 19.8845 19.6216 19.9112C19.6074 19.7477 19.6026 19.6063 19.5822 19.4674C19.4291 18.42 20.2478 17.4904 21.3075 17.5118C22.0179 17.5259 22.6564 18.0093 22.8803 18.7008C22.958 18.941 23.0379 19.1807 23.1278 19.4538C23.198 19.247 23.1699 19.0182 23.2342 18.8058C23.3023 18.5806 23.4174 18.3689 23.5718 18.1907C23.8545 17.8639 24.2669 17.6529 24.6976 17.6112C25.609 17.523 26.4175 18.1897 26.5355 19.0572C26.5685 19.2991 26.6329 19.5366 26.6927 19.7768C26.6932 19.5016 26.7382 19.2373 26.8458 18.9832C27.1032 18.374 27.7361 17.9617 28.4166 17.9652C29.0809 17.9687 29.725 18.3914 29.9604 19.0006C30.4257 20.2046 30.6437 21.4505 30.9234 22.7034C31.2813 24.3063 31.749 25.8748 32.236 27.4424C32.5189 28.3533 32.4907 29.2503 32.1791 30.143C31.7954 31.2422 31.1036 32.1245 30.2157 32.8625C29.1479 33.7499 27.9232 34.3198 26.5669 34.6062C25.2068 34.8935 23.8598 34.8595 22.5405 34.3871C21.8371 34.1354 21.2161 33.7507 20.6811 33.2267C19.7214 32.287 18.7906 31.3203 17.9097 30.3065C17.3656 29.6805 16.8486 29.0322 16.3348 28.3816C15.8353 27.7489 15.2649 27.1878 14.6387 26.6793C13.863 26.0493 13.1057 25.3973 12.3575 24.7352C12.0036 24.422 11.9379 24.0033 12.0199 23.5584C12.1267 22.98 12.3822 22.7237 13.0159 22.6254C14.0188 22.4699 14.9715 22.6697 15.8377 23.178C16.5225 23.5798 17.1101 24.1115 17.5852 24.7555C17.6032 24.7801 17.6231 24.803 17.6421 24.8268C17.6501 24.8231 17.6582 24.8191 17.6662 24.8153V24.8151Z" fill="#F6F4F3"/>
<path id="Vector_2" d="M7.3125 12.8141C7.32698 11.0781 7.85444 9.51211 8.92278 8.14112C10.0751 6.66218 11.5856 5.73153 13.4273 5.36334C15.1228 5.02426 16.7583 5.24203 18.2954 6.03453C20.5109 7.1768 21.8616 8.98466 22.3483 11.4218C22.617 12.7668 22.4891 14.0873 22.0289 15.3776C22.0096 15.4321 21.9954 15.4882 21.9788 15.5438C21.8731 15.8928 21.5428 16.0801 21.2199 15.974C20.8807 15.8626 20.7174 15.508 20.8525 15.1633C21.1035 14.5234 21.2467 13.8594 21.2824 13.1751C21.3207 12.4403 21.2328 11.7165 21.0134 11.013C20.4516 9.21151 19.3173 7.89449 17.6143 7.07153C16.6376 6.59966 15.5991 6.39605 14.5181 6.46793C12.9333 6.5732 11.5555 7.17466 10.4239 8.28914C9.37597 9.32133 8.74902 10.5761 8.56345 12.0358C8.3449 13.7539 8.76162 15.3156 9.79563 16.7043C10.5006 17.6509 11.407 18.3497 12.5139 18.7812C12.8344 18.906 12.9845 19.2343 12.8658 19.5427C12.7467 19.8516 12.4021 20.0097 12.0959 19.8764C11.3893 19.5689 10.7186 19.198 10.1204 18.7077C9.2553 17.9991 8.56828 17.147 8.08157 16.1421C7.66834 15.2889 7.41333 14.3895 7.33878 13.4412C7.32242 13.232 7.31894 13.0236 7.31277 12.8136L7.3125 12.8141Z" fill="#F6F4F3"/>
<path id="Vector_3" d="M14.8702 8.85689C13.3714 8.92797 12.2283 9.58982 11.4962 10.909C10.7368 12.277 10.9443 14.0624 11.977 15.2413C12.3594 15.6779 12.808 16.0188 13.3425 16.25C13.6415 16.3793 13.771 16.7061 13.6549 17.0096C13.543 17.3019 13.228 17.4556 12.9207 17.3591C12.6847 17.2851 12.472 17.1606 12.2642 17.0294C10.9199 16.1802 10.1109 14.9688 9.90362 13.4014C9.67971 11.7076 10.2088 10.242 11.4391 9.05115C12.2532 8.26318 13.2416 7.80467 14.3759 7.7026C16.1326 7.54442 17.6003 8.14188 18.7536 9.4653C19.4237 10.234 19.7981 11.1446 19.9144 12.1603C20.0011 12.9167 19.911 13.6512 19.6672 14.3689C19.5725 14.6479 19.3224 14.8058 19.048 14.7756C18.7584 14.7435 18.5527 14.541 18.5104 14.2476C18.4951 14.1426 18.5254 14.0451 18.5554 13.947C19.0193 12.4307 18.6986 11.0912 17.5938 9.96175C16.9771 9.33117 16.2007 8.97954 15.3145 8.88442C15.1673 8.86865 15.0211 8.85877 14.8702 8.85716V8.85689Z" fill="#F6F4F3"/>
</g>
</g>
</svg>
