<svg width="332" height="325" viewBox="0 0 332 325" fill="none" xmlns="http://www.w3.org/2000/svg">
<rect width="332" height="325" fill="#F6F4F3"/>
<path d="M40.744 44.2H46.144V73H40.744V60.652L38.512 73H35.992L33.76 60.652V73H28.36V44.2H33.76L37.252 60.832L40.744 44.2ZM57.8322 39.412L47.9322 42.04L47.5722 40.672L57.4722 38.008L57.8322 39.412ZM57.8322 44.2V49.6H52.9722V55.9H57.8322V61.3H52.9722V67.6H57.8322V73H47.5722V44.2H57.8322ZM59.2609 73L63.5449 58.6L59.2609 44.2H65.0209L67.1449 54.64L69.2689 44.2H75.0289L70.7449 58.6L75.0289 73H69.2689L67.1449 62.56L65.0209 73H59.2609ZM76.4692 44.2H81.8692V73H76.4692V44.2ZM91.4424 55.9V52.408C91.4424 49.96 91.2624 49.24 90.0744 49.24C88.8864 49.24 88.7064 49.96 88.7064 52.408V64.792C88.7064 67.24 88.8864 67.96 90.0744 67.96C91.2624 67.96 91.4424 67.24 91.4424 64.792V61.3H96.8424V65.152C96.8424 70.948 94.4304 73.36 90.0744 73.36C85.7184 73.36 83.3064 70.948 83.3064 65.152V52.048C83.3064 46.252 85.7184 43.84 90.0744 43.84C94.4304 43.84 96.8424 46.252 96.8424 52.048V55.9H91.4424ZM105.068 43.84C109.424 43.84 111.836 46.252 111.836 52.048V65.152C111.836 70.948 109.424 73.36 105.068 73.36C100.712 73.36 98.2998 70.948 98.2998 65.152V52.048C98.2998 46.252 100.712 43.84 105.068 43.84ZM106.436 64.792V52.408C106.436 49.96 106.256 49.24 105.068 49.24C103.88 49.24 103.7 49.96 103.7 52.408V64.792C103.7 67.24 103.88 67.96 105.068 67.96C106.256 67.96 106.436 67.24 106.436 64.792Z" fill="#026972"/>
<path d="M31.84 114.4H35.08V118H28.24V98.8H31.84V114.4ZM34.4005 96.448L41.0005 94.672L41.2405 95.608L34.6405 97.36L34.4005 96.448ZM36.0325 98.8H39.6325V118H36.0325V98.8ZM47.2866 98.8H50.8866V118H47.2866L44.1906 108.52V118H40.5906V98.8H44.1906L47.2866 108.28V98.8ZM58.6919 102.4H55.4519V106.6H58.6919V110.2H55.4519V114.4H58.6919V118H51.8519V98.8H58.6919V102.4ZM65.6684 118L65.4044 114.736H63.5084L63.2444 118H59.6444L61.9964 98.8H66.9164L69.2684 118H65.6684ZM63.7964 111.136H65.1164L64.4684 102.616L63.7964 111.136ZM75.3252 106.528C77.3412 108.064 78.7812 109.384 78.7812 113.008C78.7812 116.392 77.5092 118.24 74.3652 118.24C71.2212 118.24 69.7572 116.872 69.7572 111.328H73.3572C73.3572 114.16 73.6932 114.64 74.3652 114.64C75.0372 114.64 75.1812 114.16 75.1812 113.008C75.1812 111.616 74.9412 111.04 73.3572 109.744C71.6052 108.328 69.7572 107.176 69.7572 103.552C69.7572 100.408 71.0772 98.56 74.1012 98.56C77.1252 98.56 78.5412 100.408 78.5412 104.512H74.9412C74.9412 102.64 74.6532 102.16 74.1012 102.16C73.5492 102.16 73.3572 102.64 73.3572 103.552C73.3572 104.944 73.9812 105.496 75.3252 106.528ZM87.1844 98.8C91.2884 98.8 92.6564 100.168 92.6564 104.032V112.768C92.6564 116.584 91.2884 118 87.1844 118H83.5844V98.8H87.1844ZM87.1844 114.4C88.5764 114.4 89.0564 114.16 89.0564 112.768V104.032C89.0564 102.64 88.5764 102.4 87.1844 102.4V114.4ZM100.467 102.4H97.2269V106.6H100.467V110.2H97.2269V114.4H100.467V118H93.6269V98.8H100.467V102.4ZM108.851 98.8C112.955 98.8 114.323 100.168 114.323 104.032V112.768C114.323 116.584 112.955 118 108.851 118H105.251V98.8H108.851ZM108.851 114.4C110.243 114.4 110.723 114.16 110.723 112.768V104.032C110.723 102.64 110.243 102.4 108.851 102.4V114.4ZM122.133 102.4H118.893V106.6H122.133V110.2H118.893V114.4H122.133V118H115.293V98.8H122.133V102.4ZM129.782 98.8H133.382V118H129.782L126.686 108.52V118H123.086V98.8H126.686L129.782 108.28V98.8ZM143.371 98.8V112.768C143.371 116.632 141.763 118.24 138.859 118.24C135.955 118.24 134.347 116.632 134.347 112.768V98.8H137.947V112.528C137.947 114.16 138.067 114.64 138.859 114.64C139.651 114.64 139.771 114.16 139.771 112.528V98.8H143.371ZM151.039 98.8H154.639V118H151.039L147.943 108.52V118H144.343V98.8H147.943L151.039 108.28V98.8ZM161.028 106.6V104.272C161.028 102.64 160.908 102.16 160.116 102.16C159.324 102.16 159.204 102.64 159.204 104.272V112.528C159.204 114.16 159.324 114.64 160.116 114.64C160.908 114.64 161.028 114.16 161.028 112.528V110.2H164.628V112.768C164.628 116.632 163.02 118.24 160.116 118.24C157.212 118.24 155.604 116.632 155.604 112.768V104.032C155.604 100.168 157.212 98.56 160.116 98.56C163.02 98.56 164.628 100.168 164.628 104.032V106.6H161.028ZM165.6 98.8H169.2V118H165.6V98.8ZM175.947 118L175.683 114.736H173.787L173.523 118H169.923L172.275 98.8H177.195L179.547 118H175.947ZM174.075 111.136H175.395L174.747 102.616L174.075 111.136Z" fill="#AA751F"/>
<path d="M29.4091 146V134.364H30.8182V144.75H36.2273V146H29.4091ZM38.2273 146V137.273H39.5682V146H38.2273ZM38.2955 136.091L39.6818 133.455H41.25L39.4773 136.091H38.2955ZM43.3651 140.75V146H42.0241V137.273H43.3196V138.636H43.4332C43.6378 138.193 43.9484 137.837 44.3651 137.568C44.7817 137.295 45.3196 137.159 45.9787 137.159C46.5696 137.159 47.0866 137.28 47.5298 137.523C47.973 137.761 48.3177 138.125 48.5639 138.614C48.8101 139.098 48.9332 139.712 48.9332 140.455V146H47.5923V140.545C47.5923 139.86 47.4143 139.326 47.0582 138.943C46.7022 138.557 46.2135 138.364 45.5923 138.364C45.1643 138.364 44.7817 138.456 44.4446 138.642C44.1113 138.828 43.848 139.098 43.6548 139.455C43.4616 139.811 43.3651 140.242 43.3651 140.75ZM55.0426 146.182C54.2017 146.182 53.4763 145.996 52.8665 145.625C52.2604 145.25 51.7926 144.727 51.4631 144.057C51.1373 143.383 50.9744 142.598 50.9744 141.705C50.9744 140.811 51.1373 140.023 51.4631 139.341C51.7926 138.655 52.2509 138.121 52.8381 137.739C53.429 137.352 54.1184 137.159 54.9062 137.159C55.3608 137.159 55.8097 137.235 56.2528 137.386C56.696 137.538 57.0994 137.784 57.4631 138.125C57.8267 138.462 58.1165 138.909 58.3324 139.466C58.5483 140.023 58.6562 140.708 58.6562 141.523V142.091H51.929V140.932H57.2926C57.2926 140.439 57.1941 140 56.9972 139.614C56.804 139.227 56.5275 138.922 56.1676 138.699C55.8116 138.475 55.3911 138.364 54.9062 138.364C54.3722 138.364 53.91 138.496 53.5199 138.761C53.1335 139.023 52.8362 139.364 52.6278 139.784C52.4195 140.205 52.3153 140.655 52.3153 141.136V141.909C52.3153 142.568 52.429 143.127 52.6562 143.585C52.8873 144.04 53.2074 144.386 53.6165 144.625C54.0256 144.86 54.5009 144.977 55.0426 144.977C55.3949 144.977 55.7131 144.928 55.9972 144.83C56.285 144.727 56.5331 144.576 56.7415 144.375C56.9498 144.17 57.1108 143.917 57.2244 143.614L58.5199 143.977C58.3835 144.417 58.1544 144.803 57.8324 145.136C57.5104 145.466 57.1127 145.723 56.6392 145.909C56.1657 146.091 55.6335 146.182 55.0426 146.182ZM63.2642 146.205C62.7112 146.205 62.2093 146.1 61.7585 145.892C61.3078 145.68 60.9498 145.375 60.6847 144.977C60.4195 144.576 60.2869 144.091 60.2869 143.523C60.2869 143.023 60.3854 142.617 60.5824 142.307C60.7794 141.992 61.0426 141.746 61.3722 141.568C61.7017 141.39 62.0653 141.258 62.4631 141.17C62.8646 141.08 63.268 141.008 63.6733 140.955C64.2036 140.886 64.6335 140.835 64.9631 140.801C65.2964 140.763 65.5388 140.701 65.6903 140.614C65.8456 140.527 65.9233 140.375 65.9233 140.159V140.114C65.9233 139.553 65.7699 139.117 65.4631 138.807C65.16 138.496 64.6998 138.341 64.0824 138.341C63.4422 138.341 62.9403 138.481 62.5767 138.761C62.2131 139.042 61.9574 139.341 61.8097 139.659L60.5369 139.205C60.7642 138.674 61.0672 138.261 61.446 137.966C61.8286 137.667 62.2453 137.458 62.696 137.341C63.1506 137.22 63.5975 137.159 64.0369 137.159C64.3172 137.159 64.6392 137.193 65.0028 137.261C65.3703 137.326 65.7244 137.46 66.0653 137.665C66.41 137.869 66.696 138.178 66.9233 138.591C67.1506 139.004 67.2642 139.557 67.2642 140.25V146H65.9233V144.818H65.8551C65.7642 145.008 65.6127 145.21 65.4006 145.426C65.1884 145.642 64.9063 145.826 64.554 145.977C64.2017 146.129 63.7718 146.205 63.2642 146.205ZM63.4688 145C63.9991 145 64.446 144.896 64.8097 144.688C65.1771 144.479 65.4536 144.21 65.6392 143.881C65.8286 143.551 65.9233 143.205 65.9233 142.841V141.614C65.8665 141.682 65.7415 141.744 65.5483 141.801C65.3589 141.854 65.1392 141.902 64.8892 141.943C64.643 141.981 64.4025 142.015 64.1676 142.045C63.9366 142.072 63.7491 142.095 63.6051 142.114C63.2566 142.159 62.9309 142.233 62.6278 142.335C62.3286 142.434 62.0862 142.583 61.9006 142.784C61.7188 142.981 61.6278 143.25 61.6278 143.591C61.6278 144.057 61.8002 144.409 62.1449 144.648C62.4934 144.883 62.9347 145 63.4688 145ZM83.6207 134.364V146H82.2571L75.9162 136.864H75.8026V146H74.3935V134.364H75.7571L82.1207 143.523H82.2344V134.364H83.6207ZM88.8267 146.205C88.2737 146.205 87.7718 146.1 87.321 145.892C86.8703 145.68 86.5123 145.375 86.2472 144.977C85.982 144.576 85.8494 144.091 85.8494 143.523C85.8494 143.023 85.9479 142.617 86.1449 142.307C86.3419 141.992 86.6051 141.746 86.9347 141.568C87.2642 141.39 87.6278 141.258 88.0256 141.17C88.4271 141.08 88.8305 141.008 89.2358 140.955C89.7661 140.886 90.196 140.835 90.5256 140.801C90.8589 140.763 91.1013 140.701 91.2528 140.614C91.4081 140.527 91.4858 140.375 91.4858 140.159V140.114C91.4858 139.553 91.3324 139.117 91.0256 138.807C90.7225 138.496 90.2623 138.341 89.6449 138.341C89.0047 138.341 88.5028 138.481 88.1392 138.761C87.7756 139.042 87.5199 139.341 87.3722 139.659L86.0994 139.205C86.3267 138.674 86.6297 138.261 87.0085 137.966C87.3911 137.667 87.8078 137.458 88.2585 137.341C88.7131 137.22 89.16 137.159 89.5994 137.159C89.8797 137.159 90.2017 137.193 90.5653 137.261C90.9328 137.326 91.2869 137.46 91.6278 137.665C91.9725 137.869 92.2585 138.178 92.4858 138.591C92.7131 139.004 92.8267 139.557 92.8267 140.25V146H91.4858V144.818H91.4176C91.3267 145.008 91.1752 145.21 90.9631 145.426C90.7509 145.642 90.4688 145.826 90.1165 145.977C89.7642 146.129 89.3343 146.205 88.8267 146.205ZM89.0312 145C89.5616 145 90.0085 144.896 90.3722 144.688C90.7396 144.479 91.0161 144.21 91.2017 143.881C91.3911 143.551 91.4858 143.205 91.4858 142.841V141.614C91.429 141.682 91.304 141.744 91.1108 141.801C90.9214 141.854 90.7017 141.902 90.4517 141.943C90.2055 141.981 89.965 142.015 89.7301 142.045C89.4991 142.072 89.3116 142.095 89.1676 142.114C88.8191 142.159 88.4934 142.233 88.1903 142.335C87.8911 142.434 87.6487 142.583 87.4631 142.784C87.2813 142.981 87.1903 143.25 87.1903 143.591C87.1903 144.057 87.3627 144.409 87.7074 144.648C88.0559 144.883 88.4972 145 89.0312 145ZM98.8196 146.182C98.0014 146.182 97.2969 145.989 96.706 145.602C96.1151 145.216 95.6605 144.684 95.3423 144.006C95.0241 143.328 94.8651 142.553 94.8651 141.682C94.8651 140.795 95.0279 140.013 95.3537 139.335C95.6832 138.653 96.1416 138.121 96.7287 137.739C97.3196 137.352 98.009 137.159 98.7969 137.159C99.4105 137.159 99.9635 137.273 100.456 137.5C100.948 137.727 101.352 138.045 101.666 138.455C101.981 138.864 102.176 139.341 102.251 139.886H100.911C100.808 139.489 100.581 139.136 100.229 138.83C99.8802 138.519 99.4105 138.364 98.8196 138.364C98.2969 138.364 97.8385 138.5 97.4446 138.773C97.0545 139.042 96.7495 139.422 96.5298 139.915C96.3139 140.403 96.206 140.977 96.206 141.636C96.206 142.311 96.312 142.898 96.5241 143.398C96.7401 143.898 97.0431 144.286 97.4332 144.562C97.8272 144.839 98.2893 144.977 98.8196 144.977C99.1681 144.977 99.4844 144.917 99.7685 144.795C100.053 144.674 100.293 144.5 100.49 144.273C100.687 144.045 100.827 143.773 100.911 143.455H102.251C102.176 143.97 101.988 144.434 101.689 144.847C101.393 145.256 101.001 145.581 100.513 145.824C100.028 146.062 99.4635 146.182 98.8196 146.182ZM104.212 146V137.273H105.553V146H104.212ZM104.893 135.818C104.632 135.818 104.407 135.729 104.217 135.551C104.032 135.373 103.939 135.159 103.939 134.909C103.939 134.659 104.032 134.445 104.217 134.267C104.407 134.089 104.632 134 104.893 134C105.155 134 105.378 134.089 105.564 134.267C105.753 134.445 105.848 134.659 105.848 134.909C105.848 135.159 105.753 135.373 105.564 135.551C105.378 135.729 105.155 135.818 104.893 135.818ZM111.554 146.182C110.766 146.182 110.075 145.994 109.48 145.619C108.889 145.244 108.427 144.72 108.094 144.045C107.764 143.371 107.599 142.583 107.599 141.682C107.599 140.773 107.764 139.979 108.094 139.301C108.427 138.623 108.889 138.097 109.48 137.722C110.075 137.347 110.766 137.159 111.554 137.159C112.342 137.159 113.031 137.347 113.622 137.722C114.217 138.097 114.679 138.623 115.009 139.301C115.342 139.979 115.509 140.773 115.509 141.682C115.509 142.583 115.342 143.371 115.009 144.045C114.679 144.72 114.217 145.244 113.622 145.619C113.031 145.994 112.342 146.182 111.554 146.182ZM111.554 144.977C112.152 144.977 112.645 144.824 113.031 144.517C113.418 144.21 113.704 143.807 113.889 143.307C114.075 142.807 114.168 142.265 114.168 141.682C114.168 141.098 114.075 140.555 113.889 140.051C113.704 139.547 113.418 139.14 113.031 138.83C112.645 138.519 112.152 138.364 111.554 138.364C110.955 138.364 110.463 138.519 110.077 138.83C109.69 139.14 109.404 139.547 109.219 140.051C109.033 140.555 108.94 141.098 108.94 141.682C108.94 142.265 109.033 142.807 109.219 143.307C109.404 143.807 109.69 144.21 110.077 144.517C110.463 144.824 110.955 144.977 111.554 144.977ZM118.896 140.75V146H117.555V137.273H118.851V138.636H118.964C119.169 138.193 119.48 137.837 119.896 137.568C120.313 137.295 120.851 137.159 121.51 137.159C122.101 137.159 122.618 137.28 123.061 137.523C123.504 137.761 123.849 138.125 124.095 138.614C124.341 139.098 124.464 139.712 124.464 140.455V146H123.124V140.545C123.124 139.86 122.946 139.326 122.589 138.943C122.233 138.557 121.745 138.364 121.124 138.364C120.696 138.364 120.313 138.456 119.976 138.642C119.643 138.828 119.379 139.098 119.186 139.455C118.993 139.811 118.896 140.242 118.896 140.75ZM129.483 146.205C128.93 146.205 128.428 146.1 127.977 145.892C127.527 145.68 127.169 145.375 126.903 144.977C126.638 144.576 126.506 144.091 126.506 143.523C126.506 143.023 126.604 142.617 126.801 142.307C126.998 141.992 127.261 141.746 127.591 141.568C127.92 141.39 128.284 141.258 128.682 141.17C129.083 141.08 129.487 141.008 129.892 140.955C130.422 140.886 130.852 140.835 131.182 140.801C131.515 140.763 131.758 140.701 131.909 140.614C132.064 140.527 132.142 140.375 132.142 140.159V140.114C132.142 139.553 131.989 139.117 131.682 138.807C131.379 138.496 130.919 138.341 130.301 138.341C129.661 138.341 129.159 138.481 128.795 138.761C128.432 139.042 128.176 139.341 128.028 139.659L126.756 139.205C126.983 138.674 127.286 138.261 127.665 137.966C128.047 137.667 128.464 137.458 128.915 137.341C129.369 137.22 129.816 137.159 130.256 137.159C130.536 137.159 130.858 137.193 131.222 137.261C131.589 137.326 131.943 137.46 132.284 137.665C132.629 137.869 132.915 138.178 133.142 138.591C133.369 139.004 133.483 139.557 133.483 140.25V146H132.142V144.818H132.074C131.983 145.008 131.831 145.21 131.619 145.426C131.407 145.642 131.125 145.826 130.773 145.977C130.42 146.129 129.991 146.205 129.483 146.205ZM129.688 145C130.218 145 130.665 144.896 131.028 144.688C131.396 144.479 131.672 144.21 131.858 143.881C132.047 143.551 132.142 143.205 132.142 142.841V141.614C132.085 141.682 131.96 141.744 131.767 141.801C131.578 141.854 131.358 141.902 131.108 141.943C130.862 141.981 130.621 142.015 130.386 142.045C130.155 142.072 129.968 142.095 129.824 142.114C129.475 142.159 129.15 142.233 128.847 142.335C128.547 142.434 128.305 142.583 128.119 142.784C127.938 142.981 127.847 143.25 127.847 143.591C127.847 144.057 128.019 144.409 128.364 144.648C128.712 144.883 129.153 145 129.688 145ZM137.271 134.364V146H135.93V134.364H137.271ZM147.523 146.182C146.795 146.182 146.153 145.998 145.597 145.631C145.04 145.259 144.604 144.737 144.29 144.062C143.975 143.384 143.818 142.583 143.818 141.659C143.818 140.742 143.975 139.947 144.29 139.273C144.604 138.598 145.042 138.078 145.602 137.71C146.163 137.343 146.811 137.159 147.545 137.159C148.114 137.159 148.563 137.254 148.892 137.443C149.225 137.629 149.479 137.841 149.653 138.08C149.831 138.314 149.97 138.508 150.068 138.659H150.182V134.364H151.523V146H150.227V144.659H150.068C149.97 144.818 149.83 145.019 149.648 145.261C149.466 145.5 149.206 145.714 148.869 145.903C148.532 146.089 148.083 146.182 147.523 146.182ZM147.705 144.977C148.242 144.977 148.697 144.837 149.068 144.557C149.439 144.273 149.722 143.881 149.915 143.381C150.108 142.877 150.205 142.295 150.205 141.636C150.205 140.985 150.11 140.415 149.92 139.926C149.731 139.434 149.451 139.051 149.08 138.778C148.708 138.502 148.25 138.364 147.705 138.364C147.136 138.364 146.663 138.509 146.284 138.801C145.909 139.089 145.627 139.481 145.438 139.977C145.252 140.47 145.159 141.023 145.159 141.636C145.159 142.258 145.254 142.822 145.443 143.33C145.636 143.833 145.92 144.235 146.295 144.534C146.674 144.83 147.144 144.977 147.705 144.977ZM157.824 146.182C156.983 146.182 156.258 145.996 155.648 145.625C155.042 145.25 154.574 144.727 154.244 144.057C153.919 143.383 153.756 142.598 153.756 141.705C153.756 140.811 153.919 140.023 154.244 139.341C154.574 138.655 155.032 138.121 155.619 137.739C156.21 137.352 156.9 137.159 157.688 137.159C158.142 137.159 158.591 137.235 159.034 137.386C159.477 137.538 159.881 137.784 160.244 138.125C160.608 138.462 160.898 138.909 161.114 139.466C161.33 140.023 161.438 140.708 161.438 141.523V142.091H154.71V140.932H160.074C160.074 140.439 159.975 140 159.778 139.614C159.585 139.227 159.309 138.922 158.949 138.699C158.593 138.475 158.172 138.364 157.688 138.364C157.153 138.364 156.691 138.496 156.301 138.761C155.915 139.023 155.617 139.364 155.409 139.784C155.201 140.205 155.097 140.655 155.097 141.136V141.909C155.097 142.568 155.21 143.127 155.438 143.585C155.669 144.04 155.989 144.386 156.398 144.625C156.807 144.86 157.282 144.977 157.824 144.977C158.176 144.977 158.494 144.928 158.778 144.83C159.066 144.727 159.314 144.576 159.523 144.375C159.731 144.17 159.892 143.917 160.006 143.614L161.301 143.977C161.165 144.417 160.936 144.803 160.614 145.136C160.292 145.466 159.894 145.723 159.42 145.909C158.947 146.091 158.415 146.182 157.824 146.182ZM171.75 146H168.159V134.364H171.909C173.038 134.364 174.004 134.597 174.807 135.062C175.61 135.525 176.225 136.189 176.653 137.057C177.081 137.92 177.295 138.955 177.295 140.159C177.295 141.371 177.08 142.415 176.648 143.29C176.216 144.161 175.587 144.831 174.761 145.301C173.936 145.767 172.932 146 171.75 146ZM169.568 144.75H171.659C172.621 144.75 173.419 144.564 174.051 144.193C174.684 143.822 175.155 143.294 175.466 142.608C175.777 141.922 175.932 141.106 175.932 140.159C175.932 139.22 175.778 138.411 175.472 137.733C175.165 137.051 174.706 136.528 174.097 136.165C173.487 135.797 172.727 135.614 171.818 135.614H169.568V144.75ZM183.136 146.182C182.295 146.182 181.57 145.996 180.96 145.625C180.354 145.25 179.886 144.727 179.557 144.057C179.231 143.383 179.068 142.598 179.068 141.705C179.068 140.811 179.231 140.023 179.557 139.341C179.886 138.655 180.345 138.121 180.932 137.739C181.523 137.352 182.212 137.159 183 137.159C183.455 137.159 183.903 137.235 184.347 137.386C184.79 137.538 185.193 137.784 185.557 138.125C185.92 138.462 186.21 138.909 186.426 139.466C186.642 140.023 186.75 140.708 186.75 141.523V142.091H180.023V140.932H185.386C185.386 140.439 185.288 140 185.091 139.614C184.898 139.227 184.621 138.922 184.261 138.699C183.905 138.475 183.485 138.364 183 138.364C182.466 138.364 182.004 138.496 181.614 138.761C181.227 139.023 180.93 139.364 180.722 139.784C180.513 140.205 180.409 140.655 180.409 141.136V141.909C180.409 142.568 180.523 143.127 180.75 143.585C180.981 144.04 181.301 144.386 181.71 144.625C182.119 144.86 182.595 144.977 183.136 144.977C183.489 144.977 183.807 144.928 184.091 144.83C184.379 144.727 184.627 144.576 184.835 144.375C185.044 144.17 185.205 143.917 185.318 143.614L186.614 143.977C186.477 144.417 186.248 144.803 185.926 145.136C185.604 145.466 185.206 145.723 184.733 145.909C184.259 146.091 183.727 146.182 183.136 146.182ZM190.131 140.75V146H188.79V137.273H190.085V138.636H190.199C190.403 138.193 190.714 137.837 191.131 137.568C191.547 137.295 192.085 137.159 192.744 137.159C193.335 137.159 193.852 137.28 194.295 137.523C194.739 137.761 195.083 138.125 195.33 138.614C195.576 139.098 195.699 139.712 195.699 140.455V146H194.358V140.545C194.358 139.86 194.18 139.326 193.824 138.943C193.468 138.557 192.979 138.364 192.358 138.364C191.93 138.364 191.547 138.456 191.21 138.642C190.877 138.828 190.614 139.098 190.42 139.455C190.227 139.811 190.131 140.242 190.131 140.75ZM203.649 142.432V137.273H204.99V146H203.649V144.523H203.558C203.354 144.966 203.036 145.343 202.604 145.653C202.172 145.96 201.626 146.114 200.967 146.114C200.422 146.114 199.937 145.994 199.513 145.756C199.089 145.513 198.755 145.15 198.513 144.665C198.27 144.176 198.149 143.561 198.149 142.818V137.273H199.49V142.727C199.49 143.364 199.668 143.871 200.024 144.25C200.384 144.629 200.842 144.818 201.399 144.818C201.732 144.818 202.071 144.733 202.416 144.562C202.765 144.392 203.056 144.131 203.291 143.778C203.53 143.426 203.649 142.977 203.649 142.432ZM208.787 140.75V146H207.446V137.273H208.741V138.636H208.855C209.06 138.193 209.37 137.837 209.787 137.568C210.204 137.295 210.741 137.159 211.401 137.159C211.991 137.159 212.509 137.28 212.952 137.523C213.395 137.761 213.74 138.125 213.986 138.614C214.232 139.098 214.355 139.712 214.355 140.455V146H213.014V140.545C213.014 139.86 212.836 139.326 212.48 138.943C212.124 138.557 211.635 138.364 211.014 138.364C210.586 138.364 210.204 138.456 209.866 138.642C209.533 138.828 209.27 139.098 209.077 139.455C208.884 139.811 208.787 140.242 208.787 140.75ZM220.351 146.182C219.533 146.182 218.828 145.989 218.237 145.602C217.646 145.216 217.192 144.684 216.874 144.006C216.555 143.328 216.396 142.553 216.396 141.682C216.396 140.795 216.559 140.013 216.885 139.335C217.214 138.653 217.673 138.121 218.26 137.739C218.851 137.352 219.54 137.159 220.328 137.159C220.942 137.159 221.495 137.273 221.987 137.5C222.48 137.727 222.883 138.045 223.197 138.455C223.512 138.864 223.707 139.341 223.783 139.886H222.442C222.339 139.489 222.112 139.136 221.76 138.83C221.411 138.519 220.942 138.364 220.351 138.364C219.828 138.364 219.37 138.5 218.976 138.773C218.586 139.042 218.281 139.422 218.061 139.915C217.845 140.403 217.737 140.977 217.737 141.636C217.737 142.311 217.843 142.898 218.055 143.398C218.271 143.898 218.574 144.286 218.964 144.562C219.358 144.839 219.821 144.977 220.351 144.977C220.699 144.977 221.016 144.917 221.3 144.795C221.584 144.674 221.824 144.5 222.021 144.273C222.218 144.045 222.358 143.773 222.442 143.455H223.783C223.707 143.97 223.519 144.434 223.22 144.847C222.925 145.256 222.533 145.581 222.044 145.824C221.559 146.062 220.995 146.182 220.351 146.182ZM225.743 146V137.273H227.084V146H225.743ZM226.425 135.818C226.163 135.818 225.938 135.729 225.749 135.551C225.563 135.373 225.47 135.159 225.47 134.909C225.47 134.659 225.563 134.445 225.749 134.267C225.938 134.089 226.163 134 226.425 134C226.686 134 226.91 134.089 227.095 134.267C227.285 134.445 227.379 134.659 227.379 134.909C227.379 135.159 227.285 135.373 227.095 135.551C226.91 135.729 226.686 135.818 226.425 135.818ZM232.108 146.205C231.555 146.205 231.053 146.1 230.602 145.892C230.152 145.68 229.794 145.375 229.528 144.977C229.263 144.576 229.131 144.091 229.131 143.523C229.131 143.023 229.229 142.617 229.426 142.307C229.623 141.992 229.886 141.746 230.216 141.568C230.545 141.39 230.909 141.258 231.307 141.17C231.708 141.08 232.112 141.008 232.517 140.955C233.047 140.886 233.477 140.835 233.807 140.801C234.14 140.763 234.383 140.701 234.534 140.614C234.689 140.527 234.767 140.375 234.767 140.159V140.114C234.767 139.553 234.614 139.117 234.307 138.807C234.004 138.496 233.544 138.341 232.926 138.341C232.286 138.341 231.784 138.481 231.42 138.761C231.057 139.042 230.801 139.341 230.653 139.659L229.381 139.205C229.608 138.674 229.911 138.261 230.29 137.966C230.672 137.667 231.089 137.458 231.54 137.341C231.994 137.22 232.441 137.159 232.881 137.159C233.161 137.159 233.483 137.193 233.847 137.261C234.214 137.326 234.568 137.46 234.909 137.665C235.254 137.869 235.54 138.178 235.767 138.591C235.994 139.004 236.108 139.557 236.108 140.25V146H234.767V144.818H234.699C234.608 145.008 234.456 145.21 234.244 145.426C234.032 145.642 233.75 145.826 233.398 145.977C233.045 146.129 232.616 146.205 232.108 146.205ZM232.312 145C232.843 145 233.29 144.896 233.653 144.688C234.021 144.479 234.297 144.21 234.483 143.881C234.672 143.551 234.767 143.205 234.767 142.841V141.614C234.71 141.682 234.585 141.744 234.392 141.801C234.203 141.854 233.983 141.902 233.733 141.943C233.487 141.981 233.246 142.015 233.011 142.045C232.78 142.072 232.593 142.095 232.449 142.114C232.1 142.159 231.775 142.233 231.472 142.335C231.172 142.434 230.93 142.583 230.744 142.784C230.563 142.981 230.472 143.25 230.472 143.591C230.472 144.057 230.644 144.409 230.989 144.648C231.337 144.883 231.778 145 232.312 145ZM246.351 146.182C245.624 146.182 244.982 145.998 244.425 145.631C243.868 145.259 243.432 144.737 243.118 144.062C242.804 143.384 242.646 142.583 242.646 141.659C242.646 140.742 242.804 139.947 243.118 139.273C243.432 138.598 243.87 138.078 244.43 137.71C244.991 137.343 245.639 137.159 246.374 137.159C246.942 137.159 247.391 137.254 247.72 137.443C248.054 137.629 248.307 137.841 248.482 138.08C248.66 138.314 248.798 138.508 248.896 138.659H249.01V134.364H250.351V146H249.055V144.659H248.896C248.798 144.818 248.658 145.019 248.476 145.261C248.294 145.5 248.035 145.714 247.697 145.903C247.36 146.089 246.911 146.182 246.351 146.182ZM246.533 144.977C247.071 144.977 247.525 144.837 247.896 144.557C248.268 144.273 248.55 143.881 248.743 143.381C248.936 142.877 249.033 142.295 249.033 141.636C249.033 140.985 248.938 140.415 248.749 139.926C248.559 139.434 248.279 139.051 247.908 138.778C247.536 138.502 247.078 138.364 246.533 138.364C245.964 138.364 245.491 138.509 245.112 138.801C244.737 139.089 244.455 139.481 244.266 139.977C244.08 140.47 243.987 141.023 243.987 141.636C243.987 142.258 244.082 142.822 244.271 143.33C244.464 143.833 244.749 144.235 245.124 144.534C245.502 144.83 245.972 144.977 246.533 144.977ZM256.652 146.182C255.811 146.182 255.086 145.996 254.476 145.625C253.87 145.25 253.402 144.727 253.072 144.057C252.747 143.383 252.584 142.598 252.584 141.705C252.584 140.811 252.747 140.023 253.072 139.341C253.402 138.655 253.86 138.121 254.447 137.739C255.038 137.352 255.728 137.159 256.516 137.159C256.97 137.159 257.419 137.235 257.862 137.386C258.305 137.538 258.709 137.784 259.072 138.125C259.436 138.462 259.726 138.909 259.942 139.466C260.158 140.023 260.266 140.708 260.266 141.523V142.091H253.538V140.932H258.902C258.902 140.439 258.804 140 258.607 139.614C258.413 139.227 258.137 138.922 257.777 138.699C257.421 138.475 257 138.364 256.516 138.364C255.982 138.364 255.519 138.496 255.129 138.761C254.743 139.023 254.446 139.364 254.237 139.784C254.029 140.205 253.925 140.655 253.925 141.136V141.909C253.925 142.568 254.038 143.127 254.266 143.585C254.497 144.04 254.817 144.386 255.226 144.625C255.635 144.86 256.11 144.977 256.652 144.977C257.004 144.977 257.322 144.928 257.607 144.83C257.894 144.727 258.143 144.576 258.351 144.375C258.559 144.17 258.72 143.917 258.834 143.614L260.129 143.977C259.993 144.417 259.764 144.803 259.442 145.136C259.12 145.466 258.722 145.723 258.249 145.909C257.775 146.091 257.243 146.182 256.652 146.182ZM28.7727 157.614V156.364H37.5V157.614H33.8409V168H32.4318V157.614H28.7727ZM38.5866 168V159.273H39.8821V160.591H39.973C40.1321 160.159 40.42 159.809 40.8366 159.54C41.2533 159.271 41.723 159.136 42.2457 159.136C42.3442 159.136 42.4673 159.138 42.6151 159.142C42.7628 159.146 42.8745 159.152 42.9503 159.159V160.523C42.9048 160.511 42.8007 160.494 42.6378 160.472C42.4787 160.445 42.3101 160.432 42.1321 160.432C41.7079 160.432 41.3291 160.521 40.9957 160.699C40.6662 160.873 40.4048 161.116 40.2116 161.426C40.0223 161.733 39.9276 162.083 39.9276 162.477V168H38.5866ZM47.108 168.205C46.5549 168.205 46.053 168.1 45.6023 167.892C45.1515 167.68 44.7936 167.375 44.5284 166.977C44.2633 166.576 44.1307 166.091 44.1307 165.523C44.1307 165.023 44.2292 164.617 44.4261 164.307C44.6231 163.992 44.8864 163.746 45.2159 163.568C45.5455 163.39 45.9091 163.258 46.3068 163.17C46.7083 163.08 47.1117 163.008 47.517 162.955C48.0473 162.886 48.4773 162.835 48.8068 162.801C49.1402 162.763 49.3826 162.701 49.5341 162.614C49.6894 162.527 49.767 162.375 49.767 162.159V162.114C49.767 161.553 49.6136 161.117 49.3068 160.807C49.0038 160.496 48.5436 160.341 47.9261 160.341C47.286 160.341 46.7841 160.481 46.4205 160.761C46.0568 161.042 45.8011 161.341 45.6534 161.659L44.3807 161.205C44.608 160.674 44.911 160.261 45.2898 159.966C45.6723 159.667 46.089 159.458 46.5398 159.341C46.9943 159.22 47.4413 159.159 47.8807 159.159C48.161 159.159 48.483 159.193 48.8466 159.261C49.214 159.326 49.5682 159.46 49.9091 159.665C50.2538 159.869 50.5398 160.178 50.767 160.591C50.9943 161.004 51.108 161.557 51.108 162.25V168H49.767V166.818H49.6989C49.608 167.008 49.4564 167.21 49.2443 167.426C49.0322 167.642 48.75 167.826 48.3977 167.977C48.0455 168.129 47.6155 168.205 47.108 168.205ZM47.3125 167C47.8428 167 48.2898 166.896 48.6534 166.688C49.0208 166.479 49.2973 166.21 49.483 165.881C49.6723 165.551 49.767 165.205 49.767 164.841V163.614C49.7102 163.682 49.5852 163.744 49.392 163.801C49.2027 163.854 48.983 163.902 48.733 163.943C48.4867 163.981 48.2462 164.015 48.0114 164.045C47.7803 164.072 47.5928 164.095 47.4489 164.114C47.1004 164.159 46.7746 164.233 46.4716 164.335C46.1723 164.434 45.9299 164.583 45.7443 164.784C45.5625 164.981 45.4716 165.25 45.4716 165.591C45.4716 166.057 45.6439 166.409 45.9886 166.648C46.3371 166.883 46.7784 167 47.3125 167ZM57.3509 159.273V160.409H52.8281V159.273H57.3509ZM54.1463 157.182H55.4872V165.5C55.4872 165.879 55.5421 166.163 55.652 166.352C55.7656 166.538 55.9096 166.663 56.0838 166.727C56.2618 166.788 56.4493 166.818 56.6463 166.818C56.794 166.818 56.9152 166.811 57.0099 166.795C57.1046 166.777 57.1804 166.761 57.2372 166.75L57.5099 167.955C57.419 167.989 57.2921 168.023 57.1293 168.057C56.9664 168.095 56.7599 168.114 56.5099 168.114C56.1312 168.114 55.7599 168.032 55.3963 167.869C55.0365 167.706 54.7372 167.458 54.4986 167.125C54.2637 166.792 54.1463 166.371 54.1463 165.864V157.182ZM61.9361 168.205C61.383 168.205 60.8812 168.1 60.4304 167.892C59.9796 167.68 59.6217 167.375 59.3565 166.977C59.0914 166.576 58.9588 166.091 58.9588 165.523C58.9588 165.023 59.0573 164.617 59.2543 164.307C59.4512 163.992 59.7145 163.746 60.044 163.568C60.3736 163.39 60.7372 163.258 61.1349 163.17C61.5365 163.08 61.9399 163.008 62.3452 162.955C62.8755 162.886 63.3054 162.835 63.6349 162.801C63.9683 162.763 64.2107 162.701 64.3622 162.614C64.5175 162.527 64.5952 162.375 64.5952 162.159V162.114C64.5952 161.553 64.4418 161.117 64.1349 160.807C63.8319 160.496 63.3717 160.341 62.7543 160.341C62.1141 160.341 61.6122 160.481 61.2486 160.761C60.8849 161.042 60.6293 161.341 60.4815 161.659L59.2088 161.205C59.4361 160.674 59.7391 160.261 60.1179 159.966C60.5005 159.667 60.9171 159.458 61.3679 159.341C61.8224 159.22 62.2694 159.159 62.7088 159.159C62.9891 159.159 63.3111 159.193 63.6747 159.261C64.0421 159.326 64.3963 159.46 64.7372 159.665C65.0819 159.869 65.3679 160.178 65.5952 160.591C65.8224 161.004 65.9361 161.557 65.9361 162.25V168H64.5952V166.818H64.527C64.4361 167.008 64.2846 167.21 64.0724 167.426C63.8603 167.642 63.5781 167.826 63.2259 167.977C62.8736 168.129 62.4437 168.205 61.9361 168.205ZM62.1406 167C62.6709 167 63.1179 166.896 63.4815 166.688C63.849 166.479 64.1255 166.21 64.3111 165.881C64.5005 165.551 64.5952 165.205 64.5952 164.841V163.614C64.5384 163.682 64.4134 163.744 64.2202 163.801C64.0308 163.854 63.8111 163.902 63.5611 163.943C63.3149 163.981 63.0743 164.015 62.8395 164.045C62.6084 164.072 62.4209 164.095 62.277 164.114C61.9285 164.159 61.6027 164.233 61.2997 164.335C61.0005 164.434 60.758 164.583 60.5724 164.784C60.3906 164.981 60.2997 165.25 60.2997 165.591C60.2997 166.057 60.4721 166.409 60.8168 166.648C61.1652 166.883 61.6065 167 62.1406 167ZM76.179 168.182C75.4517 168.182 74.8097 167.998 74.2528 167.631C73.696 167.259 73.2604 166.737 72.946 166.062C72.6316 165.384 72.4744 164.583 72.4744 163.659C72.4744 162.742 72.6316 161.947 72.946 161.273C73.2604 160.598 73.6979 160.078 74.2585 159.71C74.8191 159.343 75.4669 159.159 76.2017 159.159C76.7699 159.159 77.2188 159.254 77.5483 159.443C77.8816 159.629 78.1354 159.841 78.3097 160.08C78.4877 160.314 78.6259 160.508 78.7244 160.659H78.8381V156.364H80.179V168H78.8835V166.659H78.7244C78.6259 166.818 78.4858 167.019 78.304 167.261C78.1222 167.5 77.8627 167.714 77.5256 167.903C77.1884 168.089 76.7396 168.182 76.179 168.182ZM76.3608 166.977C76.8987 166.977 77.3532 166.837 77.7244 166.557C78.0956 166.273 78.3778 165.881 78.571 165.381C78.7642 164.877 78.8608 164.295 78.8608 163.636C78.8608 162.985 78.7661 162.415 78.5767 161.926C78.3873 161.434 78.107 161.051 77.7358 160.778C77.3646 160.502 76.9063 160.364 76.3608 160.364C75.7926 160.364 75.3191 160.509 74.9403 160.801C74.5653 161.089 74.2831 161.481 74.0938 161.977C73.9081 162.47 73.8153 163.023 73.8153 163.636C73.8153 164.258 73.91 164.822 74.0994 165.33C74.2926 165.833 74.5767 166.235 74.9517 166.534C75.3305 166.83 75.8002 166.977 76.3608 166.977ZM86.4801 168.182C85.6392 168.182 84.9138 167.996 84.304 167.625C83.6979 167.25 83.2301 166.727 82.9006 166.057C82.5748 165.383 82.4119 164.598 82.4119 163.705C82.4119 162.811 82.5748 162.023 82.9006 161.341C83.2301 160.655 83.6884 160.121 84.2756 159.739C84.8665 159.352 85.5559 159.159 86.3438 159.159C86.7983 159.159 87.2472 159.235 87.6903 159.386C88.1335 159.538 88.5369 159.784 88.9006 160.125C89.2642 160.462 89.554 160.909 89.7699 161.466C89.9858 162.023 90.0938 162.708 90.0938 163.523V164.091H83.3665V162.932H88.7301C88.7301 162.439 88.6316 162 88.4347 161.614C88.2415 161.227 87.965 160.922 87.6051 160.699C87.2491 160.475 86.8286 160.364 86.3438 160.364C85.8097 160.364 85.3475 160.496 84.9574 160.761C84.571 161.023 84.2737 161.364 84.0653 161.784C83.857 162.205 83.7528 162.655 83.7528 163.136V163.909C83.7528 164.568 83.8665 165.127 84.0938 165.585C84.3248 166.04 84.6449 166.386 85.054 166.625C85.4631 166.86 85.9384 166.977 86.4801 166.977C86.8324 166.977 87.1506 166.928 87.4347 166.83C87.7225 166.727 87.9706 166.576 88.179 166.375C88.3873 166.17 88.5483 165.917 88.6619 165.614L89.9574 165.977C89.821 166.417 89.5919 166.803 89.2699 167.136C88.9479 167.466 88.5502 167.723 88.0767 167.909C87.6032 168.091 87.071 168.182 86.4801 168.182ZM96.8153 168V156.364H100.747C101.66 156.364 102.406 156.528 102.986 156.858C103.569 157.184 104.001 157.625 104.281 158.182C104.562 158.739 104.702 159.36 104.702 160.045C104.702 160.731 104.562 161.354 104.281 161.915C104.005 162.475 103.577 162.922 102.997 163.256C102.418 163.585 101.675 163.75 100.77 163.75H97.9517V162.5H100.724C101.349 162.5 101.851 162.392 102.23 162.176C102.609 161.96 102.884 161.669 103.054 161.301C103.228 160.93 103.315 160.511 103.315 160.045C103.315 159.58 103.228 159.163 103.054 158.795C102.884 158.428 102.607 158.14 102.224 157.932C101.842 157.72 101.334 157.614 100.702 157.614H98.2244V168H96.8153ZM110.355 168.182C109.514 168.182 108.789 167.996 108.179 167.625C107.573 167.25 107.105 166.727 106.776 166.057C106.45 165.383 106.287 164.598 106.287 163.705C106.287 162.811 106.45 162.023 106.776 161.341C107.105 160.655 107.563 160.121 108.151 159.739C108.741 159.352 109.431 159.159 110.219 159.159C110.673 159.159 111.122 159.235 111.565 159.386C112.009 159.538 112.412 159.784 112.776 160.125C113.139 160.462 113.429 160.909 113.645 161.466C113.861 162.023 113.969 162.708 113.969 163.523V164.091H107.241V162.932H112.605C112.605 162.439 112.507 162 112.31 161.614C112.116 161.227 111.84 160.922 111.48 160.699C111.124 160.475 110.704 160.364 110.219 160.364C109.685 160.364 109.223 160.496 108.832 160.761C108.446 161.023 108.149 161.364 107.94 161.784C107.732 162.205 107.628 162.655 107.628 163.136V163.909C107.628 164.568 107.741 165.127 107.969 165.585C108.2 166.04 108.52 166.386 108.929 166.625C109.338 166.86 109.813 166.977 110.355 166.977C110.707 166.977 111.026 166.928 111.31 166.83C111.598 166.727 111.846 166.576 112.054 166.375C112.262 166.17 112.423 165.917 112.537 165.614L113.832 165.977C113.696 166.417 113.467 166.803 113.145 167.136C112.823 167.466 112.425 167.723 111.952 167.909C111.478 168.091 110.946 168.182 110.355 168.182ZM116.009 168V159.273H117.304V160.591H117.395C117.554 160.159 117.842 159.809 118.259 159.54C118.675 159.271 119.145 159.136 119.668 159.136C119.766 159.136 119.889 159.138 120.037 159.142C120.185 159.146 120.296 159.152 120.372 159.159V160.523C120.327 160.511 120.223 160.494 120.06 160.472C119.901 160.445 119.732 160.432 119.554 160.432C119.13 160.432 118.751 160.521 118.418 160.699C118.088 160.873 117.827 161.116 117.634 161.426C117.444 161.733 117.349 162.083 117.349 162.477V168H116.009ZM128.143 161.227L126.939 161.568C126.863 161.367 126.751 161.172 126.604 160.983C126.46 160.79 126.263 160.631 126.013 160.506C125.763 160.381 125.443 160.318 125.053 160.318C124.518 160.318 124.073 160.441 123.717 160.688C123.365 160.93 123.189 161.239 123.189 161.614C123.189 161.947 123.31 162.21 123.553 162.403C123.795 162.597 124.174 162.758 124.689 162.886L125.984 163.205C126.765 163.394 127.346 163.684 127.729 164.074C128.111 164.46 128.303 164.958 128.303 165.568C128.303 166.068 128.159 166.515 127.871 166.909C127.587 167.303 127.189 167.614 126.678 167.841C126.166 168.068 125.571 168.182 124.893 168.182C124.003 168.182 123.267 167.989 122.683 167.602C122.1 167.216 121.731 166.652 121.575 165.909L122.848 165.591C122.969 166.061 123.198 166.413 123.536 166.648C123.876 166.883 124.321 167 124.871 167C125.496 167 125.992 166.867 126.359 166.602C126.731 166.333 126.916 166.011 126.916 165.636C126.916 165.333 126.81 165.08 126.598 164.875C126.386 164.667 126.06 164.511 125.621 164.409L124.166 164.068C123.367 163.879 122.78 163.585 122.405 163.188C122.034 162.786 121.848 162.284 121.848 161.682C121.848 161.189 121.986 160.754 122.263 160.375C122.543 159.996 122.924 159.699 123.405 159.483C123.89 159.267 124.439 159.159 125.053 159.159C125.916 159.159 126.594 159.348 127.087 159.727C127.583 160.106 127.935 160.606 128.143 161.227ZM133.866 168.182C133.079 168.182 132.387 167.994 131.793 167.619C131.202 167.244 130.74 166.72 130.406 166.045C130.077 165.371 129.912 164.583 129.912 163.682C129.912 162.773 130.077 161.979 130.406 161.301C130.74 160.623 131.202 160.097 131.793 159.722C132.387 159.347 133.079 159.159 133.866 159.159C134.654 159.159 135.344 159.347 135.935 159.722C136.529 160.097 136.991 160.623 137.321 161.301C137.654 161.979 137.821 162.773 137.821 163.682C137.821 164.583 137.654 165.371 137.321 166.045C136.991 166.72 136.529 167.244 135.935 167.619C135.344 167.994 134.654 168.182 133.866 168.182ZM133.866 166.977C134.465 166.977 134.957 166.824 135.344 166.517C135.73 166.21 136.016 165.807 136.202 165.307C136.387 164.807 136.48 164.265 136.48 163.682C136.48 163.098 136.387 162.555 136.202 162.051C136.016 161.547 135.73 161.14 135.344 160.83C134.957 160.519 134.465 160.364 133.866 160.364C133.268 160.364 132.776 160.519 132.389 160.83C132.003 161.14 131.717 161.547 131.531 162.051C131.346 162.555 131.253 163.098 131.253 163.682C131.253 164.265 131.346 164.807 131.531 165.307C131.717 165.807 132.003 166.21 132.389 166.517C132.776 166.824 133.268 166.977 133.866 166.977ZM141.209 162.75V168H139.868V159.273H141.163V160.636H141.277C141.482 160.193 141.792 159.837 142.209 159.568C142.625 159.295 143.163 159.159 143.822 159.159C144.413 159.159 144.93 159.28 145.374 159.523C145.817 159.761 146.161 160.125 146.408 160.614C146.654 161.098 146.777 161.712 146.777 162.455V168H145.436V162.545C145.436 161.86 145.258 161.326 144.902 160.943C144.546 160.557 144.057 160.364 143.436 160.364C143.008 160.364 142.625 160.456 142.288 160.642C141.955 160.828 141.692 161.098 141.499 161.455C141.305 161.811 141.209 162.242 141.209 162.75ZM151.795 168.205C151.242 168.205 150.741 168.1 150.29 167.892C149.839 167.68 149.481 167.375 149.216 166.977C148.951 166.576 148.818 166.091 148.818 165.523C148.818 165.023 148.917 164.617 149.114 164.307C149.311 163.992 149.574 163.746 149.903 163.568C150.233 163.39 150.597 163.258 150.994 163.17C151.396 163.08 151.799 163.008 152.205 162.955C152.735 162.886 153.165 162.835 153.494 162.801C153.828 162.763 154.07 162.701 154.222 162.614C154.377 162.527 154.455 162.375 154.455 162.159V162.114C154.455 161.553 154.301 161.117 153.994 160.807C153.691 160.496 153.231 160.341 152.614 160.341C151.973 160.341 151.472 160.481 151.108 160.761C150.744 161.042 150.489 161.341 150.341 161.659L149.068 161.205C149.295 160.674 149.598 160.261 149.977 159.966C150.36 159.667 150.777 159.458 151.227 159.341C151.682 159.22 152.129 159.159 152.568 159.159C152.848 159.159 153.17 159.193 153.534 159.261C153.902 159.326 154.256 159.46 154.597 159.665C154.941 159.869 155.227 160.178 155.455 160.591C155.682 161.004 155.795 161.557 155.795 162.25V168H154.455V166.818H154.386C154.295 167.008 154.144 167.21 153.932 167.426C153.72 167.642 153.438 167.826 153.085 167.977C152.733 168.129 152.303 168.205 151.795 168.205ZM152 167C152.53 167 152.977 166.896 153.341 166.688C153.708 166.479 153.985 166.21 154.17 165.881C154.36 165.551 154.455 165.205 154.455 164.841V163.614C154.398 163.682 154.273 163.744 154.08 163.801C153.89 163.854 153.67 163.902 153.42 163.943C153.174 163.981 152.934 164.015 152.699 164.045C152.468 164.072 152.28 164.095 152.136 164.114C151.788 164.159 151.462 164.233 151.159 164.335C150.86 164.434 150.617 164.583 150.432 164.784C150.25 164.981 150.159 165.25 150.159 165.591C150.159 166.057 150.331 166.409 150.676 166.648C151.025 166.883 151.466 167 152 167ZM164.425 161.227L163.22 161.568C163.144 161.367 163.033 161.172 162.885 160.983C162.741 160.79 162.544 160.631 162.294 160.506C162.044 160.381 161.724 160.318 161.334 160.318C160.8 160.318 160.355 160.441 159.999 160.688C159.646 160.93 159.47 161.239 159.47 161.614C159.47 161.947 159.591 162.21 159.834 162.403C160.076 162.597 160.455 162.758 160.97 162.886L162.266 163.205C163.046 163.394 163.627 163.684 164.01 164.074C164.393 164.46 164.584 164.958 164.584 165.568C164.584 166.068 164.44 166.515 164.152 166.909C163.868 167.303 163.47 167.614 162.959 167.841C162.447 168.068 161.853 168.182 161.175 168.182C160.285 168.182 159.548 167.989 158.964 167.602C158.381 167.216 158.012 166.652 157.857 165.909L159.129 165.591C159.25 166.061 159.48 166.413 159.817 166.648C160.158 166.883 160.603 167 161.152 167C161.777 167 162.273 166.867 162.641 166.602C163.012 166.333 163.197 166.011 163.197 165.636C163.197 165.333 163.091 165.08 162.879 164.875C162.667 164.667 162.341 164.511 161.902 164.409L160.447 164.068C159.648 163.879 159.061 163.585 158.686 163.188C158.315 162.786 158.129 162.284 158.129 161.682C158.129 161.189 158.268 160.754 158.544 160.375C158.824 159.996 159.205 159.699 159.686 159.483C160.171 159.267 160.72 159.159 161.334 159.159C162.197 159.159 162.875 159.348 163.368 159.727C163.864 160.106 164.216 160.606 164.425 161.227ZM175.381 168.256C174.403 168.252 173.563 168.011 172.858 167.534C172.157 167.057 171.617 166.366 171.239 165.46C170.864 164.555 170.678 163.466 170.682 162.193C170.682 160.924 170.869 159.843 171.244 158.949C171.623 158.055 172.163 157.375 172.864 156.909C173.568 156.439 174.407 156.205 175.381 156.205C176.354 156.205 177.191 156.439 177.892 156.909C178.597 157.379 179.138 158.061 179.517 158.955C179.896 159.845 180.083 160.924 180.08 162.193C180.08 163.47 179.89 164.561 179.511 165.466C179.136 166.371 178.598 167.062 177.898 167.54C177.197 168.017 176.358 168.256 175.381 168.256ZM175.381 166.216C176.047 166.216 176.58 165.881 176.977 165.21C177.375 164.54 177.572 163.534 177.568 162.193C177.568 161.311 177.477 160.576 177.295 159.989C177.117 159.402 176.864 158.96 176.534 158.665C176.208 158.369 175.824 158.222 175.381 158.222C174.718 158.222 174.188 158.553 173.79 159.216C173.392 159.879 173.191 160.871 173.188 162.193C173.188 163.087 173.277 163.833 173.455 164.432C173.636 165.027 173.892 165.473 174.222 165.773C174.551 166.068 174.938 166.216 175.381 166.216ZM186.896 156.364V168H184.436V158.699H184.368L181.703 160.369V158.188L184.584 156.364H186.896ZM194.003 168.159C193.128 168.159 192.349 168.017 191.668 167.733C190.99 167.445 190.457 167.053 190.071 166.557C189.685 166.061 189.491 165.498 189.491 164.869C189.491 164.384 189.601 163.939 189.821 163.534C190.045 163.125 190.348 162.786 190.73 162.517C191.113 162.244 191.541 162.07 192.014 161.994V161.915C191.393 161.79 190.889 161.489 190.503 161.011C190.116 160.53 189.923 159.972 189.923 159.335C189.923 158.733 190.099 158.197 190.452 157.727C190.804 157.254 191.287 156.883 191.901 156.614C192.518 156.341 193.219 156.205 194.003 156.205C194.787 156.205 195.486 156.341 196.099 156.614C196.717 156.886 197.202 157.259 197.554 157.733C197.906 158.203 198.084 158.737 198.088 159.335C198.084 159.975 197.887 160.534 197.497 161.011C197.107 161.489 196.607 161.79 195.997 161.915V161.994C196.463 162.07 196.885 162.244 197.264 162.517C197.647 162.786 197.95 163.125 198.173 163.534C198.401 163.939 198.516 164.384 198.52 164.869C198.516 165.498 198.321 166.061 197.935 166.557C197.548 167.053 197.014 167.445 196.332 167.733C195.654 168.017 194.878 168.159 194.003 168.159ZM194.003 166.352C194.393 166.352 194.734 166.282 195.026 166.142C195.317 165.998 195.545 165.801 195.707 165.551C195.874 165.297 195.957 165.006 195.957 164.676C195.957 164.339 195.872 164.042 195.702 163.784C195.531 163.523 195.3 163.318 195.009 163.17C194.717 163.019 194.382 162.943 194.003 162.943C193.628 162.943 193.293 163.019 192.997 163.17C192.702 163.318 192.469 163.523 192.298 163.784C192.132 164.042 192.048 164.339 192.048 164.676C192.048 165.006 192.13 165.297 192.293 165.551C192.455 165.801 192.685 165.998 192.98 166.142C193.276 166.282 193.616 166.352 194.003 166.352ZM194.003 161.153C194.329 161.153 194.618 161.087 194.872 160.955C195.126 160.822 195.325 160.638 195.469 160.403C195.613 160.169 195.685 159.898 195.685 159.591C195.685 159.288 195.613 159.023 195.469 158.795C195.325 158.564 195.128 158.384 194.878 158.256C194.628 158.123 194.336 158.057 194.003 158.057C193.673 158.057 193.382 158.123 193.128 158.256C192.874 158.384 192.675 158.564 192.531 158.795C192.391 159.023 192.321 159.288 192.321 159.591C192.321 159.898 192.393 160.169 192.537 160.403C192.681 160.638 192.88 160.822 193.134 160.955C193.387 161.087 193.677 161.153 194.003 161.153ZM204.803 168.256C203.825 168.252 202.984 168.011 202.28 167.534C201.579 167.057 201.039 166.366 200.661 165.46C200.286 164.555 200.1 163.466 200.104 162.193C200.104 160.924 200.291 159.843 200.666 158.949C201.045 158.055 201.585 157.375 202.286 156.909C202.99 156.439 203.829 156.205 204.803 156.205C205.776 156.205 206.613 156.439 207.314 156.909C208.018 157.379 208.56 158.061 208.939 158.955C209.318 159.845 209.505 160.924 209.501 162.193C209.501 163.47 209.312 164.561 208.933 165.466C208.558 166.371 208.02 167.062 207.32 167.54C206.619 168.017 205.78 168.256 204.803 168.256ZM204.803 166.216C205.469 166.216 206.001 165.881 206.399 165.21C206.797 164.54 206.994 163.534 206.99 162.193C206.99 161.311 206.899 160.576 206.717 159.989C206.539 159.402 206.286 158.96 205.956 158.665C205.63 158.369 205.246 158.222 204.803 158.222C204.14 158.222 203.609 158.553 203.212 159.216C202.814 159.879 202.613 160.871 202.609 162.193C202.609 163.087 202.698 163.833 202.876 164.432C203.058 165.027 203.314 165.473 203.643 165.773C203.973 166.068 204.359 166.216 204.803 166.216ZM215.818 168.256C214.841 168.252 214 168.011 213.295 167.534C212.595 167.057 212.055 166.366 211.676 165.46C211.301 164.555 211.116 163.466 211.119 162.193C211.119 160.924 211.307 159.843 211.682 158.949C212.061 158.055 212.6 157.375 213.301 156.909C214.006 156.439 214.845 156.205 215.818 156.205C216.792 156.205 217.629 156.439 218.33 156.909C219.034 157.379 219.576 158.061 219.955 158.955C220.333 159.845 220.521 160.924 220.517 162.193C220.517 163.47 220.328 164.561 219.949 165.466C219.574 166.371 219.036 167.062 218.335 167.54C217.634 168.017 216.795 168.256 215.818 168.256ZM215.818 166.216C216.485 166.216 217.017 165.881 217.415 165.21C217.813 164.54 218.009 163.534 218.006 162.193C218.006 161.311 217.915 160.576 217.733 159.989C217.555 159.402 217.301 158.96 216.972 158.665C216.646 158.369 216.261 158.222 215.818 158.222C215.155 158.222 214.625 158.553 214.227 159.216C213.83 159.879 213.629 160.871 213.625 162.193C213.625 163.087 213.714 163.833 213.892 164.432C214.074 165.027 214.33 165.473 214.659 165.773C214.989 166.068 215.375 166.216 215.818 166.216ZM230.224 168.159C229.421 168.159 228.705 168.011 228.077 167.716C227.452 167.42 226.955 167.013 226.588 166.494C226.221 165.975 226.029 165.381 226.014 164.71H228.401C228.427 165.161 228.616 165.527 228.969 165.807C229.321 166.087 229.74 166.227 230.224 166.227C230.611 166.227 230.952 166.142 231.247 165.972C231.546 165.797 231.779 165.557 231.946 165.25C232.116 164.939 232.202 164.583 232.202 164.182C232.202 163.773 232.115 163.413 231.94 163.102C231.77 162.792 231.533 162.549 231.23 162.375C230.927 162.201 230.58 162.112 230.19 162.108C229.849 162.108 229.518 162.178 229.196 162.318C228.878 162.458 228.63 162.65 228.452 162.892L226.264 162.5L226.815 156.364H233.929V158.375H228.844L228.543 161.29H228.611C228.815 161.002 229.124 160.763 229.537 160.574C229.95 160.384 230.412 160.29 230.923 160.29C231.624 160.29 232.249 160.455 232.798 160.784C233.348 161.114 233.781 161.566 234.099 162.142C234.418 162.714 234.575 163.373 234.571 164.119C234.575 164.903 234.393 165.6 234.026 166.21C233.662 166.816 233.152 167.294 232.497 167.642C231.846 167.987 231.088 168.159 230.224 168.159ZM240.537 168.159C239.734 168.159 239.018 168.011 238.389 167.716C237.764 167.42 237.268 167.013 236.901 166.494C236.533 165.975 236.342 165.381 236.327 164.71H238.713C238.74 165.161 238.929 165.527 239.281 165.807C239.634 166.087 240.052 166.227 240.537 166.227C240.923 166.227 241.264 166.142 241.56 165.972C241.859 165.797 242.092 165.557 242.259 165.25C242.429 164.939 242.514 164.583 242.514 164.182C242.514 163.773 242.427 163.413 242.253 163.102C242.082 162.792 241.846 162.549 241.543 162.375C241.24 162.201 240.893 162.112 240.503 162.108C240.162 162.108 239.83 162.178 239.509 162.318C239.19 162.458 238.942 162.65 238.764 162.892L236.577 162.5L237.128 156.364H244.241V158.375H239.156L238.855 161.29H238.923C239.128 161.002 239.437 160.763 239.849 160.574C240.262 160.384 240.724 160.29 241.236 160.29C241.937 160.29 242.562 160.455 243.111 160.784C243.66 161.114 244.094 161.566 244.412 162.142C244.73 162.714 244.887 163.373 244.884 164.119C244.887 164.903 244.705 165.6 244.338 166.21C243.974 166.816 243.465 167.294 242.81 167.642C242.158 167.987 241.401 168.159 240.537 168.159ZM250.901 168.159C250.052 168.159 249.296 168.013 248.634 167.722C247.974 167.426 247.454 167.021 247.071 166.506C246.692 165.987 246.497 165.388 246.486 164.71H248.963C248.978 164.994 249.071 165.244 249.241 165.46C249.416 165.672 249.647 165.837 249.935 165.955C250.223 166.072 250.546 166.131 250.906 166.131C251.281 166.131 251.613 166.064 251.901 165.932C252.188 165.799 252.414 165.616 252.577 165.381C252.74 165.146 252.821 164.875 252.821 164.568C252.821 164.258 252.734 163.983 252.56 163.744C252.389 163.502 252.143 163.312 251.821 163.176C251.503 163.04 251.124 162.972 250.685 162.972H249.599V161.165H250.685C251.056 161.165 251.384 161.1 251.668 160.972C251.955 160.843 252.179 160.665 252.338 160.438C252.497 160.206 252.577 159.938 252.577 159.631C252.577 159.339 252.507 159.083 252.366 158.864C252.23 158.64 252.037 158.466 251.787 158.341C251.541 158.216 251.253 158.153 250.923 158.153C250.59 158.153 250.285 158.214 250.009 158.335C249.732 158.453 249.51 158.621 249.344 158.841C249.177 159.061 249.088 159.318 249.077 159.614H246.719C246.73 158.943 246.921 158.352 247.293 157.841C247.664 157.33 248.164 156.93 248.793 156.642C249.425 156.35 250.139 156.205 250.935 156.205C251.738 156.205 252.44 156.35 253.043 156.642C253.645 156.934 254.113 157.328 254.446 157.824C254.783 158.316 254.95 158.869 254.946 159.483C254.95 160.134 254.747 160.678 254.338 161.114C253.933 161.549 253.404 161.826 252.753 161.943V162.034C253.609 162.144 254.26 162.441 254.707 162.926C255.158 163.407 255.382 164.009 255.378 164.733C255.382 165.396 255.19 165.985 254.804 166.5C254.421 167.015 253.893 167.42 253.219 167.716C252.545 168.011 251.772 168.159 250.901 168.159ZM261.447 168.159C260.599 168.159 259.843 168.013 259.18 167.722C258.521 167.426 258 167.021 257.618 166.506C257.239 165.987 257.044 165.388 257.033 164.71H259.51C259.525 164.994 259.618 165.244 259.788 165.46C259.963 165.672 260.194 165.837 260.482 165.955C260.769 166.072 261.093 166.131 261.453 166.131C261.828 166.131 262.16 166.064 262.447 165.932C262.735 165.799 262.961 165.616 263.124 165.381C263.286 165.146 263.368 164.875 263.368 164.568C263.368 164.258 263.281 163.983 263.107 163.744C262.936 163.502 262.69 163.312 262.368 163.176C262.05 163.04 261.671 162.972 261.232 162.972H260.146V161.165H261.232C261.603 161.165 261.93 161.1 262.214 160.972C262.502 160.843 262.726 160.665 262.885 160.438C263.044 160.206 263.124 159.938 263.124 159.631C263.124 159.339 263.054 159.083 262.913 158.864C262.777 158.64 262.584 158.466 262.334 158.341C262.088 158.216 261.8 158.153 261.47 158.153C261.137 158.153 260.832 158.214 260.555 158.335C260.279 158.453 260.057 158.621 259.891 158.841C259.724 159.061 259.635 159.318 259.624 159.614H257.266C257.277 158.943 257.468 158.352 257.839 157.841C258.211 157.33 258.711 156.93 259.339 156.642C259.972 156.35 260.686 156.205 261.482 156.205C262.285 156.205 262.987 156.35 263.589 156.642C264.192 156.934 264.66 157.328 264.993 157.824C265.33 158.316 265.497 158.869 265.493 159.483C265.497 160.134 265.294 160.678 264.885 161.114C264.48 161.549 263.951 161.826 263.3 161.943V162.034C264.156 162.144 264.807 162.441 265.254 162.926C265.705 163.407 265.929 164.009 265.925 164.733C265.929 165.396 265.737 165.985 265.351 166.5C264.968 167.015 264.44 167.42 263.766 167.716C263.091 168.011 262.319 168.159 261.447 168.159ZM275.959 168.256C274.982 168.252 274.141 168.011 273.436 167.534C272.735 167.057 272.196 166.366 271.817 165.46C271.442 164.555 271.256 163.466 271.26 162.193C271.26 160.924 271.447 159.843 271.822 158.949C272.201 158.055 272.741 157.375 273.442 156.909C274.146 156.439 274.985 156.205 275.959 156.205C276.932 156.205 277.769 156.439 278.47 156.909C279.175 157.379 279.716 158.061 280.095 158.955C280.474 159.845 280.661 160.924 280.658 162.193C280.658 163.47 280.468 164.561 280.089 165.466C279.714 166.371 279.177 167.062 278.476 167.54C277.775 168.017 276.936 168.256 275.959 168.256ZM275.959 166.216C276.625 166.216 277.158 165.881 277.555 165.21C277.953 164.54 278.15 163.534 278.146 162.193C278.146 161.311 278.055 160.576 277.874 159.989C277.696 159.402 277.442 158.96 277.112 158.665C276.786 158.369 276.402 158.222 275.959 158.222C275.296 158.222 274.766 158.553 274.368 159.216C273.97 159.879 273.769 160.871 273.766 162.193C273.766 163.087 273.855 163.833 274.033 164.432C274.214 165.027 274.47 165.473 274.8 165.773C275.129 166.068 275.516 166.216 275.959 166.216ZM286.974 168.256C285.997 168.252 285.156 168.011 284.452 167.534C283.751 167.057 283.211 166.366 282.832 165.46C282.457 164.555 282.272 163.466 282.276 162.193C282.276 160.924 282.463 159.843 282.838 158.949C283.217 158.055 283.757 157.375 284.457 156.909C285.162 156.439 286.001 156.205 286.974 156.205C287.948 156.205 288.785 156.439 289.486 156.909C290.19 157.379 290.732 158.061 291.111 158.955C291.49 159.845 291.677 160.924 291.673 162.193C291.673 163.47 291.484 164.561 291.105 165.466C290.73 166.371 290.192 167.062 289.491 167.54C288.791 168.017 287.952 168.256 286.974 168.256ZM286.974 166.216C287.641 166.216 288.173 165.881 288.571 165.21C288.969 164.54 289.166 163.534 289.162 162.193C289.162 161.311 289.071 160.576 288.889 159.989C288.711 159.402 288.457 158.96 288.128 158.665C287.802 158.369 287.418 158.222 286.974 158.222C286.312 158.222 285.781 158.553 285.384 159.216C284.986 159.879 284.785 160.871 284.781 162.193C284.781 163.087 284.87 163.833 285.048 164.432C285.23 165.027 285.486 165.473 285.815 165.773C286.145 166.068 286.531 166.216 286.974 166.216ZM297.99 168.256C297.013 168.252 296.172 168.011 295.467 167.534C294.767 167.057 294.227 166.366 293.848 165.46C293.473 164.555 293.287 163.466 293.291 162.193C293.291 160.924 293.479 159.843 293.854 158.949C294.232 158.055 294.772 157.375 295.473 156.909C296.178 156.439 297.017 156.205 297.99 156.205C298.964 156.205 299.801 156.439 300.501 156.909C301.206 157.379 301.748 158.061 302.126 158.955C302.505 159.845 302.693 160.924 302.689 162.193C302.689 163.47 302.5 164.561 302.121 165.466C301.746 166.371 301.208 167.062 300.507 167.54C299.806 168.017 298.967 168.256 297.99 168.256ZM297.99 166.216C298.657 166.216 299.189 165.881 299.587 165.21C299.984 164.54 300.181 163.534 300.178 162.193C300.178 161.311 300.087 160.576 299.905 159.989C299.727 159.402 299.473 158.96 299.143 158.665C298.818 158.369 298.433 158.222 297.99 158.222C297.327 158.222 296.797 158.553 296.399 159.216C296.001 159.879 295.801 160.871 295.797 162.193C295.797 163.087 295.886 163.833 296.064 164.432C296.246 165.027 296.501 165.473 296.831 165.773C297.161 166.068 297.547 166.216 297.99 166.216ZM29.4091 200V188.364H36.4318V189.614H30.8182V193.545H36.0682V194.795H30.8182V198.75H36.5227V200H29.4091ZM38.7898 200V191.273H40.0852V192.636H40.1989C40.3807 192.17 40.6742 191.809 41.0795 191.551C41.4848 191.29 41.9716 191.159 42.5398 191.159C43.1155 191.159 43.5947 191.29 43.9773 191.551C44.3636 191.809 44.6648 192.17 44.8807 192.636H44.9716C45.1951 192.186 45.5303 191.828 45.9773 191.562C46.4242 191.294 46.9602 191.159 47.5852 191.159C48.3655 191.159 49.0038 191.403 49.5 191.892C49.9962 192.377 50.2443 193.133 50.2443 194.159V200H48.9034V194.159C48.9034 193.515 48.7273 193.055 48.375 192.778C48.0227 192.502 47.608 192.364 47.1307 192.364C46.517 192.364 46.0417 192.549 45.7045 192.92C45.3674 193.288 45.1989 193.754 45.1989 194.318V200H43.8352V194.023C43.8352 193.527 43.6742 193.127 43.3523 192.824C43.0303 192.517 42.6155 192.364 42.108 192.364C41.7595 192.364 41.4337 192.456 41.1307 192.642C40.8314 192.828 40.589 193.085 40.4034 193.415C40.2216 193.741 40.1307 194.117 40.1307 194.545V200H38.7898ZM56.3551 200.182C55.5142 200.182 54.7888 199.996 54.179 199.625C53.5729 199.25 53.1051 198.727 52.7756 198.057C52.4498 197.383 52.2869 196.598 52.2869 195.705C52.2869 194.811 52.4498 194.023 52.7756 193.341C53.1051 192.655 53.5634 192.121 54.1506 191.739C54.7415 191.352 55.4309 191.159 56.2188 191.159C56.6733 191.159 57.1222 191.235 57.5653 191.386C58.0085 191.538 58.4119 191.784 58.7756 192.125C59.1392 192.462 59.429 192.909 59.6449 193.466C59.8608 194.023 59.9688 194.708 59.9688 195.523V196.091H53.2415V194.932H58.6051C58.6051 194.439 58.5066 194 58.3097 193.614C58.1165 193.227 57.84 192.922 57.4801 192.699C57.1241 192.475 56.7036 192.364 56.2188 192.364C55.6847 192.364 55.2225 192.496 54.8324 192.761C54.446 193.023 54.1487 193.364 53.9403 193.784C53.732 194.205 53.6278 194.655 53.6278 195.136V195.909C53.6278 196.568 53.7415 197.127 53.9688 197.585C54.1998 198.04 54.5199 198.386 54.929 198.625C55.3381 198.86 55.8134 198.977 56.3551 198.977C56.7074 198.977 57.0256 198.928 57.3097 198.83C57.5975 198.727 57.8456 198.576 58.054 198.375C58.2623 198.17 58.4233 197.917 58.5369 197.614L59.8324 197.977C59.696 198.417 59.4669 198.803 59.1449 199.136C58.8229 199.466 58.4252 199.723 57.9517 199.909C57.4782 200.091 56.946 200.182 56.3551 200.182ZM62.0085 200V191.273H63.304V192.591H63.3949C63.554 192.159 63.8419 191.809 64.2585 191.54C64.6752 191.271 65.1449 191.136 65.6676 191.136C65.7661 191.136 65.8892 191.138 66.0369 191.142C66.1847 191.146 66.2964 191.152 66.3722 191.159V192.523C66.3267 192.511 66.2225 192.494 66.0597 192.472C65.9006 192.445 65.732 192.432 65.554 192.432C65.1297 192.432 64.7509 192.521 64.4176 192.699C64.0881 192.873 63.8267 193.116 63.6335 193.426C63.4441 193.733 63.3494 194.083 63.3494 194.477V200H62.0085ZM71.2188 203.455C70.571 203.455 70.0142 203.371 69.5483 203.205C69.0824 203.042 68.6941 202.826 68.3835 202.557C68.0767 202.292 67.8324 202.008 67.6506 201.705L68.7188 200.955C68.84 201.114 68.9934 201.295 69.179 201.5C69.3646 201.708 69.6184 201.888 69.9403 202.04C70.2661 202.195 70.6922 202.273 71.2188 202.273C71.9233 202.273 72.5047 202.102 72.9631 201.761C73.4214 201.42 73.6506 200.886 73.6506 200.159V198.386H73.5369C73.4384 198.545 73.2983 198.742 73.1165 198.977C72.9384 199.208 72.6809 199.415 72.3438 199.597C72.0104 199.775 71.5597 199.864 70.9915 199.864C70.2869 199.864 69.6544 199.697 69.0938 199.364C68.5369 199.03 68.0956 198.545 67.7699 197.909C67.4479 197.273 67.2869 196.5 67.2869 195.591C67.2869 194.697 67.4441 193.919 67.7585 193.256C68.0729 192.589 68.5104 192.074 69.071 191.71C69.6316 191.343 70.2794 191.159 71.0142 191.159C71.5824 191.159 72.0331 191.254 72.3665 191.443C72.7036 191.629 72.9612 191.841 73.1392 192.08C73.321 192.314 73.4612 192.508 73.5597 192.659H73.696V191.273H74.9915V200.25C74.9915 201 74.821 201.61 74.4801 202.08C74.143 202.553 73.6884 202.9 73.1165 203.119C72.5483 203.343 71.9157 203.455 71.2188 203.455ZM71.1733 198.659C71.7112 198.659 72.1657 198.536 72.5369 198.29C72.9081 198.044 73.1903 197.689 73.3835 197.227C73.5767 196.765 73.6733 196.212 73.6733 195.568C73.6733 194.939 73.5786 194.384 73.3892 193.903C73.1998 193.422 72.9195 193.045 72.5483 192.773C72.1771 192.5 71.7188 192.364 71.1733 192.364C70.6051 192.364 70.1316 192.508 69.7528 192.795C69.3778 193.083 69.0956 193.47 68.9062 193.955C68.7206 194.439 68.6278 194.977 68.6278 195.568C68.6278 196.174 68.7225 196.71 68.9119 197.176C69.1051 197.638 69.3892 198.002 69.7642 198.267C70.143 198.528 70.6127 198.659 71.1733 198.659ZM81.1051 200.182C80.2642 200.182 79.5388 199.996 78.929 199.625C78.3229 199.25 77.8551 198.727 77.5256 198.057C77.1998 197.383 77.0369 196.598 77.0369 195.705C77.0369 194.811 77.1998 194.023 77.5256 193.341C77.8551 192.655 78.3134 192.121 78.9006 191.739C79.4915 191.352 80.1809 191.159 80.9688 191.159C81.4233 191.159 81.8722 191.235 82.3153 191.386C82.7585 191.538 83.1619 191.784 83.5256 192.125C83.8892 192.462 84.179 192.909 84.3949 193.466C84.6108 194.023 84.7188 194.708 84.7188 195.523V196.091H77.9915V194.932H83.3551C83.3551 194.439 83.2566 194 83.0597 193.614C82.8665 193.227 82.59 192.922 82.2301 192.699C81.8741 192.475 81.4536 192.364 80.9688 192.364C80.4347 192.364 79.9725 192.496 79.5824 192.761C79.196 193.023 78.8987 193.364 78.6903 193.784C78.482 194.205 78.3778 194.655 78.3778 195.136V195.909C78.3778 196.568 78.4915 197.127 78.7188 197.585C78.9498 198.04 79.2699 198.386 79.679 198.625C80.0881 198.86 80.5634 198.977 81.1051 198.977C81.4574 198.977 81.7756 198.928 82.0597 198.83C82.3475 198.727 82.5956 198.576 82.804 198.375C83.0123 198.17 83.1733 197.917 83.2869 197.614L84.5824 197.977C84.446 198.417 84.2169 198.803 83.8949 199.136C83.5729 199.466 83.1752 199.723 82.7017 199.909C82.2282 200.091 81.696 200.182 81.1051 200.182ZM88.0994 194.75V200H86.7585V191.273H88.054V192.636H88.1676C88.3722 192.193 88.6828 191.837 89.0994 191.568C89.5161 191.295 90.054 191.159 90.7131 191.159C91.304 191.159 91.821 191.28 92.2642 191.523C92.7074 191.761 93.0521 192.125 93.2983 192.614C93.5445 193.098 93.6676 193.712 93.6676 194.455V200H92.3267V194.545C92.3267 193.86 92.1487 193.326 91.7926 192.943C91.4366 192.557 90.9479 192.364 90.3267 192.364C89.8987 192.364 89.5161 192.456 89.179 192.642C88.8456 192.828 88.5824 193.098 88.3892 193.455C88.196 193.811 88.0994 194.242 88.0994 194.75ZM99.6634 200.182C98.8452 200.182 98.1406 199.989 97.5497 199.602C96.9588 199.216 96.5043 198.684 96.1861 198.006C95.8679 197.328 95.7088 196.553 95.7088 195.682C95.7088 194.795 95.8717 194.013 96.1974 193.335C96.527 192.653 96.9853 192.121 97.5724 191.739C98.1634 191.352 98.8527 191.159 99.6406 191.159C100.254 191.159 100.807 191.273 101.3 191.5C101.792 191.727 102.196 192.045 102.51 192.455C102.824 192.864 103.019 193.341 103.095 193.886H101.754C101.652 193.489 101.425 193.136 101.072 192.83C100.724 192.519 100.254 192.364 99.6634 192.364C99.1406 192.364 98.6823 192.5 98.2884 192.773C97.8982 193.042 97.5933 193.422 97.3736 193.915C97.1577 194.403 97.0497 194.977 97.0497 195.636C97.0497 196.311 97.1558 196.898 97.3679 197.398C97.5838 197.898 97.8868 198.286 98.277 198.562C98.6709 198.839 99.133 198.977 99.6634 198.977C100.012 198.977 100.328 198.917 100.612 198.795C100.896 198.674 101.137 198.5 101.334 198.273C101.531 198.045 101.671 197.773 101.754 197.455H103.095C103.019 197.97 102.832 198.434 102.533 198.847C102.237 199.256 101.845 199.581 101.357 199.824C100.872 200.062 100.307 200.182 99.6634 200.182ZM105.055 200V191.273H106.396V200H105.055ZM105.737 189.818C105.476 189.818 105.25 189.729 105.061 189.551C104.875 189.373 104.783 189.159 104.783 188.909C104.783 188.659 104.875 188.445 105.061 188.267C105.25 188.089 105.476 188 105.737 188C105.999 188 106.222 188.089 106.408 188.267C106.597 188.445 106.692 188.659 106.692 188.909C106.692 189.159 106.597 189.373 106.408 189.551C106.222 189.729 105.999 189.818 105.737 189.818ZM111.42 200.205C110.867 200.205 110.366 200.1 109.915 199.892C109.464 199.68 109.106 199.375 108.841 198.977C108.576 198.576 108.443 198.091 108.443 197.523C108.443 197.023 108.542 196.617 108.739 196.307C108.936 195.992 109.199 195.746 109.528 195.568C109.858 195.39 110.222 195.258 110.619 195.17C111.021 195.08 111.424 195.008 111.83 194.955C112.36 194.886 112.79 194.835 113.119 194.801C113.453 194.763 113.695 194.701 113.847 194.614C114.002 194.527 114.08 194.375 114.08 194.159V194.114C114.08 193.553 113.926 193.117 113.619 192.807C113.316 192.496 112.856 192.341 112.239 192.341C111.598 192.341 111.097 192.481 110.733 192.761C110.369 193.042 110.114 193.341 109.966 193.659L108.693 193.205C108.92 192.674 109.223 192.261 109.602 191.966C109.985 191.667 110.402 191.458 110.852 191.341C111.307 191.22 111.754 191.159 112.193 191.159C112.473 191.159 112.795 191.193 113.159 191.261C113.527 191.326 113.881 191.46 114.222 191.665C114.566 191.869 114.852 192.178 115.08 192.591C115.307 193.004 115.42 193.557 115.42 194.25V200H114.08V198.818H114.011C113.92 199.008 113.769 199.21 113.557 199.426C113.345 199.642 113.063 199.826 112.71 199.977C112.358 200.129 111.928 200.205 111.42 200.205ZM111.625 199C112.155 199 112.602 198.896 112.966 198.688C113.333 198.479 113.61 198.21 113.795 197.881C113.985 197.551 114.08 197.205 114.08 196.841V195.614C114.023 195.682 113.898 195.744 113.705 195.801C113.515 195.854 113.295 195.902 113.045 195.943C112.799 195.981 112.559 196.015 112.324 196.045C112.093 196.072 111.905 196.095 111.761 196.114C111.413 196.159 111.087 196.233 110.784 196.335C110.485 196.434 110.242 196.583 110.057 196.784C109.875 196.981 109.784 197.25 109.784 197.591C109.784 198.057 109.956 198.409 110.301 198.648C110.65 198.883 111.091 199 111.625 199ZM124.05 193.227L122.845 193.568C122.769 193.367 122.658 193.172 122.51 192.983C122.366 192.79 122.169 192.631 121.919 192.506C121.669 192.381 121.349 192.318 120.959 192.318C120.425 192.318 119.98 192.441 119.624 192.688C119.271 192.93 119.095 193.239 119.095 193.614C119.095 193.947 119.216 194.21 119.459 194.403C119.701 194.597 120.08 194.758 120.595 194.886L121.891 195.205C122.671 195.394 123.252 195.684 123.635 196.074C124.018 196.46 124.209 196.958 124.209 197.568C124.209 198.068 124.065 198.515 123.777 198.909C123.493 199.303 123.095 199.614 122.584 199.841C122.072 200.068 121.478 200.182 120.8 200.182C119.91 200.182 119.173 199.989 118.589 199.602C118.006 199.216 117.637 198.652 117.482 197.909L118.754 197.591C118.875 198.061 119.105 198.413 119.442 198.648C119.783 198.883 120.228 199 120.777 199C121.402 199 121.898 198.867 122.266 198.602C122.637 198.333 122.822 198.011 122.822 197.636C122.822 197.333 122.716 197.08 122.504 196.875C122.292 196.667 121.966 196.511 121.527 196.409L120.072 196.068C119.273 195.879 118.686 195.585 118.311 195.188C117.94 194.786 117.754 194.284 117.754 193.682C117.754 193.189 117.893 192.754 118.169 192.375C118.449 191.996 118.83 191.699 119.311 191.483C119.796 191.267 120.345 191.159 120.959 191.159C121.822 191.159 122.5 191.348 122.993 191.727C123.489 192.106 123.841 192.606 124.05 193.227ZM134.653 188.205C135.252 188.205 135.828 188.305 136.381 188.506C136.938 188.706 137.434 189.027 137.869 189.466C138.309 189.905 138.655 190.489 138.909 191.216C139.167 191.939 139.297 192.828 139.301 193.881C139.301 194.869 139.189 195.752 138.966 196.528C138.746 197.301 138.43 197.958 138.017 198.5C137.604 199.042 137.106 199.455 136.523 199.739C135.939 200.019 135.288 200.159 134.568 200.159C133.792 200.159 133.106 200.009 132.511 199.71C131.917 199.407 131.438 198.996 131.074 198.477C130.714 197.955 130.496 197.367 130.42 196.716H132.847C132.941 197.14 133.14 197.47 133.443 197.705C133.746 197.936 134.121 198.051 134.568 198.051C135.326 198.051 135.902 197.722 136.295 197.062C136.689 196.4 136.888 195.492 136.892 194.341H136.812C136.638 194.682 136.403 194.975 136.108 195.222C135.813 195.464 135.473 195.652 135.091 195.784C134.712 195.917 134.309 195.983 133.881 195.983C133.195 195.983 132.583 195.822 132.045 195.5C131.508 195.178 131.083 194.735 130.773 194.17C130.462 193.606 130.307 192.962 130.307 192.239C130.303 191.458 130.483 190.763 130.847 190.153C131.21 189.544 131.718 189.066 132.369 188.722C133.025 188.373 133.786 188.201 134.653 188.205ZM134.67 190.136C134.288 190.136 133.947 190.227 133.648 190.409C133.352 190.591 133.117 190.835 132.943 191.142C132.773 191.449 132.689 191.792 132.693 192.17C132.693 192.553 132.777 192.898 132.943 193.205C133.114 193.508 133.345 193.75 133.636 193.932C133.932 194.11 134.269 194.199 134.648 194.199C134.932 194.199 135.195 194.146 135.438 194.04C135.68 193.934 135.89 193.788 136.068 193.602C136.25 193.413 136.392 193.195 136.494 192.949C136.597 192.703 136.648 192.441 136.648 192.165C136.644 191.797 136.557 191.46 136.386 191.153C136.216 190.847 135.981 190.6 135.682 190.415C135.383 190.229 135.045 190.136 134.67 190.136ZM146.068 188.364V200H143.608V190.699H143.54L140.875 192.369V190.188L143.756 188.364H146.068ZM153.896 188.364V200H151.436V190.699H151.368L148.703 192.369V190.188L151.584 188.364H153.896Z" fill="#333333"/>
<path d="M169.875 171.182H303.496V172.273H169.875V171.182ZM129.5 203.182H155.72V204.273H129.5V203.182Z" fill="#333333"/>
<path d="M35.08 232.4H31.84V236.6H35.08V240.2H31.84V244.4H35.08V248H28.24V228.8H35.08V232.4ZM42.7285 228.8H46.3285V248H42.7285L39.6325 238.52V248H36.0325V228.8H39.6325L42.7285 238.28V228.8ZM55.8377 228.8V232.4H53.3657V248H49.7657V232.4H47.2937V228.8H55.8377ZM56.7972 228.8H60.3972V248H56.7972V228.8ZM64.9553 228.8C69.0593 228.8 70.4273 230.168 70.4273 234.032V242.768C70.4273 246.584 69.0593 248 64.9553 248H61.3553V228.8H64.9553ZM64.9553 244.4C66.3473 244.4 66.8273 244.16 66.8273 242.768V234.032C66.8273 232.64 66.3473 232.4 64.9553 232.4V244.4ZM76.9531 248L76.6891 244.736H74.7931L74.5291 248H70.9291L73.2811 228.8H78.2011L80.5531 248H76.9531ZM75.0811 241.136H76.4011L75.7531 232.616L75.0811 241.136ZM84.8763 228.8C88.9803 228.8 90.3483 230.168 90.3483 234.032V242.768C90.3483 246.584 88.9803 248 84.8763 248H81.2763V228.8H84.8763ZM84.8763 244.4C86.2683 244.4 86.7483 244.16 86.7483 242.768V234.032C86.7483 232.64 86.2683 232.4 84.8763 232.4V244.4ZM104.222 246.296C104.222 247.016 104.246 247.712 104.486 248H100.886C100.646 247.712 100.622 247.016 100.622 246.296V242.6C100.622 241.208 100.142 240.968 98.7503 240.968V248H95.1503V228.8H98.7503C102.854 228.8 104.222 230.168 104.222 234.032V235.736C104.222 237.848 103.574 239.216 102.446 240.032C103.67 240.536 104.222 241.52 104.222 243.32V246.296ZM100.622 234.032C100.622 232.64 100.142 232.4 98.7503 232.4V237.368C100.142 237.368 100.622 237.128 100.622 235.736V234.032ZM112.056 232.4H108.816V236.6H112.056V240.2H108.816V244.4H112.056V248H105.216V228.8H112.056V232.4ZM118.577 236.528C120.593 238.064 122.033 239.384 122.033 243.008C122.033 246.392 120.761 248.24 117.617 248.24C114.473 248.24 113.009 246.872 113.009 241.328H116.609C116.609 244.16 116.945 244.64 117.617 244.64C118.289 244.64 118.433 244.16 118.433 243.008C118.433 241.616 118.193 241.04 116.609 239.744C114.857 238.328 113.009 237.176 113.009 233.552C113.009 230.408 114.329 228.56 117.353 228.56C120.377 228.56 121.793 230.408 121.793 234.512H118.193C118.193 232.64 117.905 232.16 117.353 232.16C116.801 232.16 116.609 232.64 116.609 233.552C116.609 234.944 117.233 235.496 118.577 236.528ZM126.604 228.8C130.708 228.8 132.076 230.168 132.076 234.032V236.456C132.076 240.272 130.708 241.616 126.604 241.688V248H123.004V228.8H126.604ZM126.604 238.088C127.996 238.088 128.476 237.848 128.476 236.456V234.032C128.476 232.64 127.996 232.4 126.604 232.4V238.088ZM137.559 228.56C140.463 228.56 142.071 230.168 142.071 234.032V242.768C142.071 246.632 140.463 248.24 137.559 248.24C134.655 248.24 133.047 246.632 133.047 242.768V234.032C133.047 230.168 134.655 228.56 137.559 228.56ZM138.471 242.528V234.272C138.471 232.64 138.351 232.16 137.559 232.16C136.767 232.16 136.647 232.64 136.647 234.272V242.528C136.647 244.16 136.767 244.64 137.559 244.64C138.351 244.64 138.471 244.16 138.471 242.528ZM149.738 228.8H153.338V248H149.738L146.642 238.52V248H143.042V228.8H146.642L149.738 238.28V228.8ZM159.872 236.528C161.888 238.064 163.328 239.384 163.328 243.008C163.328 246.392 162.056 248.24 158.912 248.24C155.768 248.24 154.304 246.872 154.304 241.328H157.904C157.904 244.16 158.24 244.64 158.912 244.64C159.584 244.64 159.728 244.16 159.728 243.008C159.728 241.616 159.488 241.04 157.904 239.744C156.152 238.328 154.304 237.176 154.304 233.552C154.304 230.408 155.624 228.56 158.648 228.56C161.672 228.56 163.088 230.408 163.088 234.512H159.488C159.488 232.64 159.2 232.16 158.648 232.16C158.096 232.16 157.904 232.64 157.904 233.552C157.904 234.944 158.528 235.496 159.872 236.528ZM169.855 248L169.591 244.736H167.695L167.431 248H163.831L166.183 228.8H171.103L173.455 248H169.855ZM167.983 241.136H169.303L168.655 232.616L167.983 241.136ZM181.09 237.896C182.314 238.496 183.25 239.696 183.25 242.024V243.008C183.25 246.584 181.882 247.976 177.778 248H174.178V228.8H177.778C181.882 228.8 183.01 230.168 183.01 234.032V234.2C183.01 236.312 182.194 237.344 181.09 237.896ZM179.41 234.032C179.41 232.64 179.17 232.4 177.778 232.4V236.312C179.17 236.312 179.41 236.072 179.41 234.68V234.032ZM177.778 244.4C179.17 244.4 179.65 244.16 179.65 242.768V241.544C179.65 240.152 179.17 239.912 177.778 239.912V244.4ZM187.82 244.4H191.06V248H184.22V228.8H187.82V244.4ZM198.853 232.4H195.613V236.6H198.853V240.2H195.613V244.4H198.853V248H192.013V228.8H198.853V232.4Z" fill="#AA751F"/>
<path d="M30.8182 270.364V282H29.4091V270.364H30.8182ZM34.8026 276.75V282H33.4616V273.273H34.7571V274.636H34.8707C35.0753 274.193 35.3859 273.837 35.8026 273.568C36.2192 273.295 36.7571 273.159 37.4162 273.159C38.0071 273.159 38.5241 273.28 38.9673 273.523C39.4105 273.761 39.7552 274.125 40.0014 274.614C40.2476 275.098 40.3707 275.712 40.3707 276.455V282H39.0298V276.545C39.0298 275.86 38.8518 275.326 38.4957 274.943C38.1397 274.557 37.651 274.364 37.0298 274.364C36.6018 274.364 36.2192 274.456 35.8821 274.642C35.5488 274.828 35.2855 275.098 35.0923 275.455C34.8991 275.811 34.8026 276.242 34.8026 276.75ZM49.0028 275.227L47.7983 275.568C47.7225 275.367 47.6108 275.172 47.4631 274.983C47.3191 274.79 47.1222 274.631 46.8722 274.506C46.6222 274.381 46.3021 274.318 45.9119 274.318C45.3778 274.318 44.9328 274.441 44.5767 274.688C44.2244 274.93 44.0483 275.239 44.0483 275.614C44.0483 275.947 44.1695 276.21 44.4119 276.403C44.6544 276.597 45.0331 276.758 45.5483 276.886L46.8438 277.205C47.6241 277.394 48.2055 277.684 48.5881 278.074C48.9706 278.46 49.1619 278.958 49.1619 279.568C49.1619 280.068 49.018 280.515 48.7301 280.909C48.446 281.303 48.0483 281.614 47.5369 281.841C47.0256 282.068 46.4309 282.182 45.7528 282.182C44.8627 282.182 44.1259 281.989 43.5426 281.602C42.9593 281.216 42.59 280.652 42.4347 279.909L43.7074 279.591C43.8286 280.061 44.0578 280.413 44.3949 280.648C44.7358 280.883 45.1809 281 45.7301 281C46.3551 281 46.8513 280.867 47.2188 280.602C47.59 280.333 47.7756 280.011 47.7756 279.636C47.7756 279.333 47.6695 279.08 47.4574 278.875C47.2453 278.667 46.9195 278.511 46.4801 278.409L45.0256 278.068C44.2263 277.879 43.6392 277.585 43.2642 277.188C42.893 276.786 42.7074 276.284 42.7074 275.682C42.7074 275.189 42.8456 274.754 43.1222 274.375C43.4025 273.996 43.7831 273.699 44.2642 273.483C44.7491 273.267 45.2983 273.159 45.9119 273.159C46.7756 273.159 47.4536 273.348 47.946 273.727C48.4422 274.106 48.7945 274.606 49.0028 275.227ZM54.9759 273.273V274.409H50.4531V273.273H54.9759ZM51.7713 271.182H53.1122V279.5C53.1122 279.879 53.1671 280.163 53.277 280.352C53.3906 280.538 53.5346 280.663 53.7088 280.727C53.8868 280.788 54.0743 280.818 54.2713 280.818C54.419 280.818 54.5402 280.811 54.6349 280.795C54.7296 280.777 54.8054 280.761 54.8622 280.75L55.1349 281.955C55.044 281.989 54.9171 282.023 54.7543 282.057C54.5914 282.095 54.3849 282.114 54.1349 282.114C53.7562 282.114 53.3849 282.032 53.0213 281.869C52.6615 281.706 52.3622 281.458 52.1236 281.125C51.8887 280.792 51.7713 280.371 51.7713 279.864V271.182ZM56.9929 282V273.273H58.3338V282H56.9929ZM57.6747 271.818C57.4134 271.818 57.188 271.729 56.9986 271.551C56.813 271.373 56.7202 271.159 56.7202 270.909C56.7202 270.659 56.813 270.445 56.9986 270.267C57.188 270.089 57.4134 270 57.6747 270C57.9361 270 58.1596 270.089 58.3452 270.267C58.5346 270.445 58.6293 270.659 58.6293 270.909C58.6293 271.159 58.5346 271.373 58.3452 271.551C58.1596 271.729 57.9361 271.818 57.6747 271.818ZM64.5852 273.273V274.409H60.0625V273.273H64.5852ZM61.3807 271.182H62.7216V279.5C62.7216 279.879 62.7765 280.163 62.8864 280.352C63 280.538 63.1439 280.663 63.3182 280.727C63.4962 280.788 63.6837 280.818 63.8807 280.818C64.0284 280.818 64.1496 280.811 64.2443 280.795C64.339 280.777 64.4148 280.761 64.4716 280.75L64.7443 281.955C64.6534 281.989 64.5265 282.023 64.3636 282.057C64.2008 282.095 63.9943 282.114 63.7443 282.114C63.3655 282.114 62.9943 282.032 62.6307 281.869C62.2708 281.706 61.9716 281.458 61.733 281.125C61.4981 280.792 61.3807 280.371 61.3807 279.864V271.182ZM72.1023 278.432V273.273H73.4432V282H72.1023V280.523H72.0114C71.8068 280.966 71.4886 281.343 71.0568 281.653C70.625 281.96 70.0795 282.114 69.4205 282.114C68.875 282.114 68.3902 281.994 67.9659 281.756C67.5417 281.513 67.2083 281.15 66.9659 280.665C66.7235 280.176 66.6023 279.561 66.6023 278.818V273.273H67.9432V278.727C67.9432 279.364 68.1212 279.871 68.4773 280.25C68.8371 280.629 69.2955 280.818 69.8523 280.818C70.1856 280.818 70.5246 280.733 70.8693 280.562C71.2178 280.392 71.5095 280.131 71.7443 279.778C71.983 279.426 72.1023 278.977 72.1023 278.432ZM79.6946 273.273V274.409H75.1719V273.273H79.6946ZM76.4901 271.182H77.831V279.5C77.831 279.879 77.8859 280.163 77.9957 280.352C78.1094 280.538 78.2533 280.663 78.4276 280.727C78.6056 280.788 78.7931 280.818 78.9901 280.818C79.1378 280.818 79.259 280.811 79.3537 280.795C79.4484 280.777 79.5241 280.761 79.581 280.75L79.8537 281.955C79.7628 281.989 79.6359 282.023 79.473 282.057C79.3101 282.095 79.1037 282.114 78.8537 282.114C78.4749 282.114 78.1037 282.032 77.7401 281.869C77.3802 281.706 77.081 281.458 76.8423 281.125C76.6075 280.792 76.4901 280.371 76.4901 279.864V271.182ZM85.1634 282.182C84.3755 282.182 83.6842 281.994 83.0895 281.619C82.4986 281.244 82.0365 280.72 81.7031 280.045C81.3736 279.371 81.2088 278.583 81.2088 277.682C81.2088 276.773 81.3736 275.979 81.7031 275.301C82.0365 274.623 82.4986 274.097 83.0895 273.722C83.6842 273.347 84.3755 273.159 85.1634 273.159C85.9512 273.159 86.6406 273.347 87.2315 273.722C87.8262 274.097 88.2884 274.623 88.6179 275.301C88.9512 275.979 89.1179 276.773 89.1179 277.682C89.1179 278.583 88.9512 279.371 88.6179 280.045C88.2884 280.72 87.8262 281.244 87.2315 281.619C86.6406 281.994 85.9512 282.182 85.1634 282.182ZM85.1634 280.977C85.7618 280.977 86.2543 280.824 86.6406 280.517C87.027 280.21 87.313 279.807 87.4986 279.307C87.6842 278.807 87.777 278.265 87.777 277.682C87.777 277.098 87.6842 276.555 87.4986 276.051C87.313 275.547 87.027 275.14 86.6406 274.83C86.2543 274.519 85.7618 274.364 85.1634 274.364C84.5649 274.364 84.0724 274.519 83.6861 274.83C83.2997 275.14 83.0137 275.547 82.8281 276.051C82.6425 276.555 82.5497 277.098 82.5497 277.682C82.5497 278.265 82.6425 278.807 82.8281 279.307C83.0137 279.807 83.2997 280.21 83.6861 280.517C84.0724 280.824 84.5649 280.977 85.1634 280.977ZM105.074 270.364V282H103.71L97.3693 272.864H97.2557V282H95.8466V270.364H97.2102L103.574 279.523H103.688V270.364H105.074ZM110.28 282.205C109.727 282.205 109.225 282.1 108.774 281.892C108.323 281.68 107.965 281.375 107.7 280.977C107.435 280.576 107.303 280.091 107.303 279.523C107.303 279.023 107.401 278.617 107.598 278.307C107.795 277.992 108.058 277.746 108.388 277.568C108.717 277.39 109.081 277.258 109.479 277.17C109.88 277.08 110.284 277.008 110.689 276.955C111.219 276.886 111.649 276.835 111.979 276.801C112.312 276.763 112.554 276.701 112.706 276.614C112.861 276.527 112.939 276.375 112.939 276.159V276.114C112.939 275.553 112.786 275.117 112.479 274.807C112.176 274.496 111.715 274.341 111.098 274.341C110.458 274.341 109.956 274.481 109.592 274.761C109.229 275.042 108.973 275.341 108.825 275.659L107.553 275.205C107.78 274.674 108.083 274.261 108.462 273.966C108.844 273.667 109.261 273.458 109.712 273.341C110.166 273.22 110.613 273.159 111.053 273.159C111.333 273.159 111.655 273.193 112.018 273.261C112.386 273.326 112.74 273.46 113.081 273.665C113.426 273.869 113.712 274.178 113.939 274.591C114.166 275.004 114.28 275.557 114.28 276.25V282H112.939V280.818H112.871C112.78 281.008 112.628 281.21 112.416 281.426C112.204 281.642 111.922 281.826 111.57 281.977C111.217 282.129 110.787 282.205 110.28 282.205ZM110.484 281C111.015 281 111.462 280.896 111.825 280.688C112.193 280.479 112.469 280.21 112.655 279.881C112.844 279.551 112.939 279.205 112.939 278.841V277.614C112.882 277.682 112.757 277.744 112.564 277.801C112.375 277.854 112.155 277.902 111.905 277.943C111.659 277.981 111.418 278.015 111.183 278.045C110.952 278.072 110.765 278.095 110.621 278.114C110.272 278.159 109.946 278.233 109.643 278.335C109.344 278.434 109.102 278.583 108.916 278.784C108.734 278.981 108.643 279.25 108.643 279.591C108.643 280.057 108.816 280.409 109.161 280.648C109.509 280.883 109.95 281 110.484 281ZM120.273 282.182C119.455 282.182 118.75 281.989 118.159 281.602C117.568 281.216 117.114 280.684 116.795 280.006C116.477 279.328 116.318 278.553 116.318 277.682C116.318 276.795 116.481 276.013 116.807 275.335C117.136 274.653 117.595 274.121 118.182 273.739C118.773 273.352 119.462 273.159 120.25 273.159C120.864 273.159 121.417 273.273 121.909 273.5C122.402 273.727 122.805 274.045 123.119 274.455C123.434 274.864 123.629 275.341 123.705 275.886H122.364C122.261 275.489 122.034 275.136 121.682 274.83C121.333 274.519 120.864 274.364 120.273 274.364C119.75 274.364 119.292 274.5 118.898 274.773C118.508 275.042 118.203 275.422 117.983 275.915C117.767 276.403 117.659 276.977 117.659 277.636C117.659 278.311 117.765 278.898 117.977 279.398C118.193 279.898 118.496 280.286 118.886 280.562C119.28 280.839 119.742 280.977 120.273 280.977C120.621 280.977 120.938 280.917 121.222 280.795C121.506 280.674 121.746 280.5 121.943 280.273C122.14 280.045 122.28 279.773 122.364 279.455H123.705C123.629 279.97 123.441 280.434 123.142 280.847C122.847 281.256 122.455 281.581 121.966 281.824C121.481 282.062 120.917 282.182 120.273 282.182ZM125.665 282V273.273H127.006V282H125.665ZM126.347 271.818C126.085 271.818 125.86 271.729 125.67 271.551C125.485 271.373 125.392 271.159 125.392 270.909C125.392 270.659 125.485 270.445 125.67 270.267C125.86 270.089 126.085 270 126.347 270C126.608 270 126.831 270.089 127.017 270.267C127.206 270.445 127.301 270.659 127.301 270.909C127.301 271.159 127.206 271.373 127.017 271.551C126.831 271.729 126.608 271.818 126.347 271.818ZM133.007 282.182C132.219 282.182 131.528 281.994 130.933 281.619C130.342 281.244 129.88 280.72 129.547 280.045C129.217 279.371 129.053 278.583 129.053 277.682C129.053 276.773 129.217 275.979 129.547 275.301C129.88 274.623 130.342 274.097 130.933 273.722C131.528 273.347 132.219 273.159 133.007 273.159C133.795 273.159 134.484 273.347 135.075 273.722C135.67 274.097 136.132 274.623 136.462 275.301C136.795 275.979 136.962 276.773 136.962 277.682C136.962 278.583 136.795 279.371 136.462 280.045C136.132 280.72 135.67 281.244 135.075 281.619C134.484 281.994 133.795 282.182 133.007 282.182ZM133.007 280.977C133.606 280.977 134.098 280.824 134.484 280.517C134.871 280.21 135.157 279.807 135.342 279.307C135.528 278.807 135.621 278.265 135.621 277.682C135.621 277.098 135.528 276.555 135.342 276.051C135.157 275.547 134.871 275.14 134.484 274.83C134.098 274.519 133.606 274.364 133.007 274.364C132.409 274.364 131.916 274.519 131.53 274.83C131.143 275.14 130.857 275.547 130.672 276.051C130.486 276.555 130.393 277.098 130.393 277.682C130.393 278.265 130.486 278.807 130.672 279.307C130.857 279.807 131.143 280.21 131.53 280.517C131.916 280.824 132.409 280.977 133.007 280.977ZM140.349 276.75V282H139.009V273.273H140.304V274.636H140.418C140.622 274.193 140.933 273.837 141.349 273.568C141.766 273.295 142.304 273.159 142.963 273.159C143.554 273.159 144.071 273.28 144.514 273.523C144.957 273.761 145.302 274.125 145.548 274.614C145.795 275.098 145.918 275.712 145.918 276.455V282H144.577V276.545C144.577 275.86 144.399 275.326 144.043 274.943C143.687 274.557 143.198 274.364 142.577 274.364C142.149 274.364 141.766 274.456 141.429 274.642C141.096 274.828 140.832 275.098 140.639 275.455C140.446 275.811 140.349 276.242 140.349 276.75ZM150.936 282.205C150.383 282.205 149.881 282.1 149.43 281.892C148.98 281.68 148.622 281.375 148.357 280.977C148.091 280.576 147.959 280.091 147.959 279.523C147.959 279.023 148.057 278.617 148.254 278.307C148.451 277.992 148.714 277.746 149.044 277.568C149.374 277.39 149.737 277.258 150.135 277.17C150.536 277.08 150.94 277.008 151.345 276.955C151.875 276.886 152.305 276.835 152.635 276.801C152.968 276.763 153.211 276.701 153.362 276.614C153.518 276.527 153.595 276.375 153.595 276.159V276.114C153.595 275.553 153.442 275.117 153.135 274.807C152.832 274.496 152.372 274.341 151.754 274.341C151.114 274.341 150.612 274.481 150.249 274.761C149.885 275.042 149.629 275.341 149.482 275.659L148.209 275.205C148.436 274.674 148.739 274.261 149.118 273.966C149.5 273.667 149.917 273.458 150.368 273.341C150.822 273.22 151.269 273.159 151.709 273.159C151.989 273.159 152.311 273.193 152.675 273.261C153.042 273.326 153.396 273.46 153.737 273.665C154.082 273.869 154.368 274.178 154.595 274.591C154.822 275.004 154.936 275.557 154.936 276.25V282H153.595V280.818H153.527C153.436 281.008 153.285 281.21 153.072 281.426C152.86 281.642 152.578 281.826 152.226 281.977C151.874 282.129 151.444 282.205 150.936 282.205ZM151.141 281C151.671 281 152.118 280.896 152.482 280.688C152.849 280.479 153.125 280.21 153.311 279.881C153.5 279.551 153.595 279.205 153.595 278.841V277.614C153.538 277.682 153.413 277.744 153.22 277.801C153.031 277.854 152.811 277.902 152.561 277.943C152.315 277.981 152.074 278.015 151.839 278.045C151.608 278.072 151.421 278.095 151.277 278.114C150.929 278.159 150.603 278.233 150.3 278.335C150 278.434 149.758 278.583 149.572 278.784C149.391 278.981 149.3 279.25 149.3 279.591C149.3 280.057 149.472 280.409 149.817 280.648C150.165 280.883 150.607 281 151.141 281ZM158.724 270.364V282H157.384V270.364H158.724ZM168.976 282.182C168.249 282.182 167.607 281.998 167.05 281.631C166.493 281.259 166.057 280.737 165.743 280.062C165.429 279.384 165.271 278.583 165.271 277.659C165.271 276.742 165.429 275.947 165.743 275.273C166.057 274.598 166.495 274.078 167.055 273.71C167.616 273.343 168.264 273.159 168.999 273.159C169.567 273.159 170.016 273.254 170.345 273.443C170.679 273.629 170.932 273.841 171.107 274.08C171.285 274.314 171.423 274.508 171.521 274.659H171.635V270.364H172.976V282H171.68V280.659H171.521C171.423 280.818 171.283 281.019 171.101 281.261C170.919 281.5 170.66 281.714 170.322 281.903C169.985 282.089 169.536 282.182 168.976 282.182ZM169.158 280.977C169.696 280.977 170.15 280.837 170.521 280.557C170.893 280.273 171.175 279.881 171.368 279.381C171.561 278.877 171.658 278.295 171.658 277.636C171.658 276.985 171.563 276.415 171.374 275.926C171.184 275.434 170.904 275.051 170.533 274.778C170.161 274.502 169.703 274.364 169.158 274.364C168.589 274.364 168.116 274.509 167.737 274.801C167.362 275.089 167.08 275.481 166.891 275.977C166.705 276.47 166.612 277.023 166.612 277.636C166.612 278.258 166.707 278.822 166.896 279.33C167.089 279.833 167.374 280.235 167.749 280.534C168.127 280.83 168.597 280.977 169.158 280.977ZM179.277 282.182C178.436 282.182 177.711 281.996 177.101 281.625C176.495 281.25 176.027 280.727 175.697 280.057C175.372 279.383 175.209 278.598 175.209 277.705C175.209 276.811 175.372 276.023 175.697 275.341C176.027 274.655 176.485 274.121 177.072 273.739C177.663 273.352 178.353 273.159 179.141 273.159C179.595 273.159 180.044 273.235 180.487 273.386C180.93 273.538 181.334 273.784 181.697 274.125C182.061 274.462 182.351 274.909 182.567 275.466C182.783 276.023 182.891 276.708 182.891 277.523V278.091H176.163V276.932H181.527C181.527 276.439 181.429 276 181.232 275.614C181.038 275.227 180.762 274.922 180.402 274.699C180.046 274.475 179.625 274.364 179.141 274.364C178.607 274.364 178.144 274.496 177.754 274.761C177.368 275.023 177.071 275.364 176.862 275.784C176.654 276.205 176.55 276.655 176.55 277.136V277.909C176.55 278.568 176.663 279.127 176.891 279.585C177.122 280.04 177.442 280.386 177.851 280.625C178.26 280.86 178.735 280.977 179.277 280.977C179.629 280.977 179.947 280.928 180.232 280.83C180.519 280.727 180.768 280.576 180.976 280.375C181.184 280.17 181.345 279.917 181.459 279.614L182.754 279.977C182.618 280.417 182.389 280.803 182.067 281.136C181.745 281.466 181.347 281.723 180.874 281.909C180.4 282.091 179.868 282.182 179.277 282.182ZM189.612 270.364H191.294L195.249 280.023H195.385L199.339 270.364H201.021V282H199.703V273.159H199.589L195.953 282H194.68L191.044 273.159H190.93V282H189.612V270.364ZM203.665 282V273.273H205.006V282H203.665ZM204.347 271.818C204.085 271.818 203.86 271.729 203.67 271.551C203.485 271.373 203.392 271.159 203.392 270.909C203.392 270.659 203.485 270.445 203.67 270.267C203.86 270.089 204.085 270 204.347 270C204.608 270 204.831 270.089 205.017 270.267C205.206 270.445 205.301 270.659 205.301 270.909C205.301 271.159 205.206 271.373 205.017 271.551C204.831 271.729 204.608 271.818 204.347 271.818ZM210.984 285.455C210.337 285.455 209.78 285.371 209.314 285.205C208.848 285.042 208.46 284.826 208.149 284.557C207.842 284.292 207.598 284.008 207.416 283.705L208.484 282.955C208.606 283.114 208.759 283.295 208.945 283.5C209.13 283.708 209.384 283.888 209.706 284.04C210.032 284.195 210.458 284.273 210.984 284.273C211.689 284.273 212.27 284.102 212.729 283.761C213.187 283.42 213.416 282.886 213.416 282.159V280.386H213.303C213.204 280.545 213.064 280.742 212.882 280.977C212.704 281.208 212.446 281.415 212.109 281.597C211.776 281.775 211.325 281.864 210.757 281.864C210.053 281.864 209.42 281.697 208.859 281.364C208.303 281.03 207.861 280.545 207.536 279.909C207.214 279.273 207.053 278.5 207.053 277.591C207.053 276.697 207.21 275.919 207.524 275.256C207.839 274.589 208.276 274.074 208.837 273.71C209.397 273.343 210.045 273.159 210.78 273.159C211.348 273.159 211.799 273.254 212.132 273.443C212.469 273.629 212.727 273.841 212.905 274.08C213.087 274.314 213.227 274.508 213.325 274.659H213.462V273.273H214.757V282.25C214.757 283 214.587 283.61 214.246 284.08C213.909 284.553 213.454 284.9 212.882 285.119C212.314 285.343 211.681 285.455 210.984 285.455ZM210.939 280.659C211.477 280.659 211.931 280.536 212.303 280.29C212.674 280.044 212.956 279.689 213.149 279.227C213.342 278.765 213.439 278.212 213.439 277.568C213.439 276.939 213.344 276.384 213.155 275.903C212.965 275.422 212.685 275.045 212.314 274.773C211.943 274.5 211.484 274.364 210.939 274.364C210.371 274.364 209.897 274.508 209.518 274.795C209.143 275.083 208.861 275.47 208.672 275.955C208.486 276.439 208.393 276.977 208.393 277.568C208.393 278.174 208.488 278.71 208.678 279.176C208.871 279.638 209.155 280.002 209.53 280.267C209.909 280.528 210.378 280.659 210.939 280.659ZM217.212 282V273.273H218.507V274.591H218.598C218.757 274.159 219.045 273.809 219.462 273.54C219.878 273.271 220.348 273.136 220.871 273.136C220.969 273.136 221.092 273.138 221.24 273.142C221.388 273.146 221.5 273.152 221.575 273.159V274.523C221.53 274.511 221.426 274.494 221.263 274.472C221.104 274.445 220.935 274.432 220.757 274.432C220.333 274.432 219.954 274.521 219.621 274.699C219.291 274.873 219.03 275.116 218.837 275.426C218.647 275.733 218.553 276.083 218.553 276.477V282H217.212ZM225.733 282.205C225.18 282.205 224.678 282.1 224.227 281.892C223.777 281.68 223.419 281.375 223.153 280.977C222.888 280.576 222.756 280.091 222.756 279.523C222.756 279.023 222.854 278.617 223.051 278.307C223.248 277.992 223.511 277.746 223.841 277.568C224.17 277.39 224.534 277.258 224.932 277.17C225.333 277.08 225.737 277.008 226.142 276.955C226.672 276.886 227.102 276.835 227.432 276.801C227.765 276.763 228.008 276.701 228.159 276.614C228.314 276.527 228.392 276.375 228.392 276.159V276.114C228.392 275.553 228.239 275.117 227.932 274.807C227.629 274.496 227.169 274.341 226.551 274.341C225.911 274.341 225.409 274.481 225.045 274.761C224.682 275.042 224.426 275.341 224.278 275.659L223.006 275.205C223.233 274.674 223.536 274.261 223.915 273.966C224.297 273.667 224.714 273.458 225.165 273.341C225.619 273.22 226.066 273.159 226.506 273.159C226.786 273.159 227.108 273.193 227.472 273.261C227.839 273.326 228.193 273.46 228.534 273.665C228.879 273.869 229.165 274.178 229.392 274.591C229.619 275.004 229.733 275.557 229.733 276.25V282H228.392V280.818H228.324C228.233 281.008 228.081 281.21 227.869 281.426C227.657 281.642 227.375 281.826 227.023 281.977C226.67 282.129 226.241 282.205 225.733 282.205ZM225.938 281C226.468 281 226.915 280.896 227.278 280.688C227.646 280.479 227.922 280.21 228.108 279.881C228.297 279.551 228.392 279.205 228.392 278.841V277.614C228.335 277.682 228.21 277.744 228.017 277.801C227.828 277.854 227.608 277.902 227.358 277.943C227.112 277.981 226.871 278.015 226.636 278.045C226.405 278.072 226.218 278.095 226.074 278.114C225.725 278.159 225.4 278.233 225.097 278.335C224.797 278.434 224.555 278.583 224.369 278.784C224.188 278.981 224.097 279.25 224.097 279.591C224.097 280.057 224.269 280.409 224.614 280.648C224.962 280.883 225.403 281 225.938 281ZM235.726 282.182C234.908 282.182 234.203 281.989 233.612 281.602C233.021 281.216 232.567 280.684 232.249 280.006C231.93 279.328 231.771 278.553 231.771 277.682C231.771 276.795 231.934 276.013 232.26 275.335C232.589 274.653 233.048 274.121 233.635 273.739C234.226 273.352 234.915 273.159 235.703 273.159C236.317 273.159 236.87 273.273 237.362 273.5C237.855 273.727 238.258 274.045 238.572 274.455C238.887 274.864 239.082 275.341 239.158 275.886H237.817C237.714 275.489 237.487 275.136 237.135 274.83C236.786 274.519 236.317 274.364 235.726 274.364C235.203 274.364 234.745 274.5 234.351 274.773C233.961 275.042 233.656 275.422 233.436 275.915C233.22 276.403 233.112 276.977 233.112 277.636C233.112 278.311 233.218 278.898 233.43 279.398C233.646 279.898 233.949 280.286 234.339 280.562C234.733 280.839 235.196 280.977 235.726 280.977C236.074 280.977 236.391 280.917 236.675 280.795C236.959 280.674 237.199 280.5 237.396 280.273C237.593 280.045 237.733 279.773 237.817 279.455H239.158C239.082 279.97 238.894 280.434 238.595 280.847C238.3 281.256 237.908 281.581 237.419 281.824C236.934 282.062 236.37 282.182 235.726 282.182ZM241.118 282V273.273H242.459V282H241.118ZM241.8 271.818C241.538 271.818 241.313 271.729 241.124 271.551C240.938 271.373 240.845 271.159 240.845 270.909C240.845 270.659 240.938 270.445 241.124 270.267C241.313 270.089 241.538 270 241.8 270C242.061 270 242.285 270.089 242.47 270.267C242.66 270.445 242.754 270.659 242.754 270.909C242.754 271.159 242.66 271.373 242.47 271.551C242.285 271.729 242.061 271.818 241.8 271.818ZM248.46 282.182C247.672 282.182 246.981 281.994 246.386 281.619C245.795 281.244 245.333 280.72 245 280.045C244.67 279.371 244.506 278.583 244.506 277.682C244.506 276.773 244.67 275.979 245 275.301C245.333 274.623 245.795 274.097 246.386 273.722C246.981 273.347 247.672 273.159 248.46 273.159C249.248 273.159 249.938 273.347 250.528 273.722C251.123 274.097 251.585 274.623 251.915 275.301C252.248 275.979 252.415 276.773 252.415 277.682C252.415 278.583 252.248 279.371 251.915 280.045C251.585 280.72 251.123 281.244 250.528 281.619C249.938 281.994 249.248 282.182 248.46 282.182ZM248.46 280.977C249.059 280.977 249.551 280.824 249.938 280.517C250.324 280.21 250.61 279.807 250.795 279.307C250.981 278.807 251.074 278.265 251.074 277.682C251.074 277.098 250.981 276.555 250.795 276.051C250.61 275.547 250.324 275.14 249.938 274.83C249.551 274.519 249.059 274.364 248.46 274.364C247.862 274.364 247.369 274.519 246.983 274.83C246.597 275.14 246.311 275.547 246.125 276.051C245.939 276.555 245.847 277.098 245.847 277.682C245.847 278.265 245.939 278.807 246.125 279.307C246.311 279.807 246.597 280.21 246.983 280.517C247.369 280.824 247.862 280.977 248.46 280.977ZM247.847 272.091L249.233 269.455H250.801L249.028 272.091H247.847ZM255.803 276.75V282H254.462V273.273H255.757V274.636H255.871C256.075 274.193 256.386 273.837 256.803 273.568C257.219 273.295 257.757 273.159 258.416 273.159C259.007 273.159 259.524 273.28 259.967 273.523C260.411 273.761 260.755 274.125 261.001 274.614C261.248 275.098 261.371 275.712 261.371 276.455V282H260.03V276.545C260.03 275.86 259.852 275.326 259.496 274.943C259.14 274.557 258.651 274.364 258.03 274.364C257.602 274.364 257.219 274.456 256.882 274.642C256.549 274.828 256.286 275.098 256.092 275.455C255.899 275.811 255.803 276.242 255.803 276.75ZM264.798 282.091C264.518 282.091 264.277 281.991 264.077 281.79C263.876 281.589 263.776 281.348 263.776 281.068C263.776 280.788 263.876 280.547 264.077 280.347C264.277 280.146 264.518 280.045 264.798 280.045C265.079 280.045 265.319 280.146 265.52 280.347C265.721 280.547 265.821 280.788 265.821 281.068C265.821 281.254 265.774 281.424 265.679 281.58C265.588 281.735 265.465 281.86 265.31 281.955C265.158 282.045 264.988 282.091 264.798 282.091Z" fill="#333333"/>
</svg>
