<svg width="30" height="30" viewBox="0 0 30 30" fill="none" xmlns="http://www.w3.org/2000/svg">
<path d="M15 0C6.73467 0 0 6.73467 0 15C0 23.2653 6.73467 30 15 30C23.2653 30 30 23.2653 30 15C30 6.73467 23.2653 0 15 0Z" fill="#E62150"/>
<path d="M22.6527 7.65357C22.4997 7.65357 22.4997 7.65357 22.6527 7.65357L18.9792 13.0107C18.8262 13.1638 18.8262 13.3168 18.9792 13.4699L21.8874 23.8781C21.8874 24.1842 21.8874 24.3372 21.5813 24.4903L19.7445 25.1025C19.5915 25.2556 19.2854 25.1025 19.1323 24.9495L15.4588 18.3679C15.3058 18.0617 14.8466 18.0617 14.6935 18.3679L13.0099 20.3576C12.8568 20.5107 12.8568 20.6638 12.8568 20.8168L13.9282 24.4903C13.9282 24.6434 13.9283 24.9495 13.7752 24.9495L12.3976 25.8678C12.2445 26.0209 11.9384 26.0209 11.7853 25.7148L9.79554 22.5005C9.79554 22.3474 9.64246 22.3475 9.4894 22.3475L5.50985 21.1229C5.20373 20.9699 5.05065 20.8168 5.20371 20.5107L5.81599 19.1332C5.81599 18.9801 6.12209 18.827 6.27515 18.827H10.4078C10.5609 18.827 10.7139 18.674 10.867 18.5209L12.0915 16.378C12.2445 16.0719 12.0914 15.7658 11.7853 15.7658L3.97924 13.6229C3.82618 13.6229 3.6731 13.3168 3.6731 13.1638V11.4801C3.6731 11.174 3.82614 11.0209 4.13226 11.0209H15.4588C15.6119 11.0209 15.765 11.0209 15.765 10.8679L19.8976 5.96989C20.2038 5.66377 22.1936 3.98011 22.9589 4.74542C23.5711 5.51072 22.6527 7.34745 22.6527 7.65357Z" fill="#F6F4F3"/>
</svg>
