<svg width="316" height="40" viewBox="0 0 316 40" fill="none" xmlns="http://www.w3.org/2000/svg">
<circle cx="20" cy="20" r="20" fill="#1F1F1F"/>
<path d="M17.667 24.8151C17.5407 24.4645 17.4146 24.1137 17.2881 23.7631C16.5737 21.7867 15.8593 19.8102 15.145 17.8337C14.6607 16.494 14.1839 15.1514 13.6883 13.8156C13.4033 13.0472 13.6532 12.3207 14.1614 11.8835C15.0465 11.1218 16.4444 11.4843 16.8536 12.5756C17.7667 15.0103 18.6844 17.4434 19.6001 19.877C19.6017 19.881 19.6049 19.8845 19.6224 19.9112C19.6081 19.7477 19.6033 19.6063 19.5829 19.4674C19.4298 18.42 20.2485 17.4904 21.3083 17.5118C22.0186 17.5259 22.6571 18.0093 22.881 18.7008C22.9588 18.941 23.0387 19.1807 23.1285 19.4538C23.1988 19.247 23.1706 19.0182 23.235 18.8058C23.3031 18.5806 23.4181 18.3689 23.5726 18.1907C23.8552 17.8639 24.2676 17.6529 24.6983 17.6112C25.6098 17.523 26.4183 18.1897 26.5362 19.0572C26.5692 19.2991 26.6336 19.5366 26.6934 19.7768C26.6939 19.5016 26.739 19.2373 26.8465 18.9832C27.1039 18.374 27.7368 17.9617 28.4174 17.9652C29.0816 17.9687 29.7257 18.3914 29.9611 19.0006C30.4264 20.2046 30.6444 21.4505 30.9241 22.7034C31.2821 24.3063 31.7497 25.8748 32.2367 27.4424C32.5196 28.3533 32.4915 29.2503 32.1799 30.143C31.7961 31.2422 31.1043 32.1245 30.2164 32.8625C29.1486 33.7499 27.924 34.3198 26.5676 34.6062C25.2075 34.8935 23.8606 34.8595 22.5412 34.3871C21.8379 34.1354 21.2168 33.7507 20.6818 33.2267C19.7221 32.287 18.7913 31.3203 17.9104 30.3065C17.3664 29.6805 16.8494 29.0322 16.3356 28.3816C15.836 27.7489 15.2656 27.1878 14.6395 26.6793C13.8637 26.0493 13.1064 25.3973 12.3583 24.7352C12.0043 24.422 11.9386 24.0033 12.0207 23.5584C12.1274 22.98 12.3829 22.7237 13.0166 22.6254C14.0195 22.4699 14.9723 22.6697 15.8384 23.178C16.5233 23.5798 17.1108 24.1115 17.586 24.7555C17.6039 24.7801 17.6238 24.803 17.6428 24.8268C17.6509 24.8231 17.6589 24.8191 17.667 24.8153V24.8151Z" fill="#D6EDFF"/>
<path d="M7.3125 12.8141C7.32698 11.0781 7.85444 9.51211 8.92278 8.14112C10.0751 6.66218 11.5856 5.73153 13.4273 5.36334C15.1228 5.02426 16.7583 5.24203 18.2954 6.03453C20.5109 7.1768 21.8616 8.98466 22.3483 11.4218C22.617 12.7668 22.4891 14.0873 22.0289 15.3776C22.0096 15.4321 21.9954 15.4882 21.9788 15.5438C21.8731 15.8928 21.5428 16.0801 21.2199 15.974C20.8807 15.8626 20.7174 15.508 20.8525 15.1633C21.1035 14.5234 21.2467 13.8594 21.2824 13.1751C21.3207 12.4403 21.2328 11.7165 21.0134 11.013C20.4516 9.21151 19.3173 7.89449 17.6143 7.07153C16.6376 6.59966 15.5991 6.39605 14.5181 6.46793C12.9333 6.5732 11.5555 7.17466 10.4239 8.28914C9.37597 9.32133 8.74902 10.5761 8.56345 12.0358C8.3449 13.7539 8.76162 15.3156 9.79563 16.7043C10.5006 17.6509 11.407 18.3497 12.5139 18.7812C12.8344 18.906 12.9845 19.2343 12.8658 19.5427C12.7467 19.8516 12.4021 20.0097 12.0959 19.8764C11.3893 19.5689 10.7186 19.198 10.1204 18.7077C9.2553 17.9991 8.56828 17.147 8.08157 16.1421C7.66834 15.2889 7.41333 14.3895 7.33878 13.4412C7.32242 13.232 7.31894 13.0236 7.31277 12.8136L7.3125 12.8141Z" fill="#D6EDFF"/>
<path d="M14.8694 8.85787C13.3707 8.92895 12.2275 9.59079 11.4955 10.9099C10.7361 12.278 10.9436 14.0634 11.9763 15.2423C12.3587 15.6789 12.8073 16.0198 13.3417 16.2509C13.6407 16.3803 13.7702 16.7071 13.6541 17.0106C13.5423 17.3029 13.2272 17.4565 12.9199 17.3601C12.6839 17.2861 12.4713 17.1616 12.2635 17.0304C10.9192 16.1812 10.1102 14.9697 9.90289 13.4024C9.67898 11.7086 10.2081 10.243 11.4384 9.05212C12.2525 8.26416 13.2409 7.80565 14.3752 7.70358C16.1319 7.5454 17.5995 8.14285 18.7529 9.46628C19.423 10.235 19.7973 11.1456 19.9137 12.1612C20.0003 12.9177 19.9102 13.6522 19.6665 14.3699C19.5718 14.6488 19.3216 14.8067 19.0473 14.7766C18.7577 14.7445 18.552 14.542 18.5096 14.2486C18.4944 14.1436 18.5247 14.046 18.5547 13.948C19.0186 12.4316 18.6979 11.0922 17.5931 9.96273C16.9763 9.33215 16.2 8.98051 15.3138 8.88539C15.1665 8.86963 15.0204 8.85974 14.8694 8.85814V8.85787Z" fill="#D6EDFF"/>
<path d="M49.6889 27L52.1037 12.4545H61.223L60.9105 14.3438H53.9858L53.2472 18.7756H59.696L59.3835 20.6577H52.9347L52.196 25.1108H59.206L58.8935 27H49.6889ZM65.0636 16.0909L66.7681 20.3381L69.9002 16.0909H72.2227L67.9116 21.5455L70.4329 27H68.1104L66.3349 22.9233L63.2028 27H60.8732L65.1772 21.5455L62.734 16.0909H65.0636ZM71.9102 31.0909L74.4244 16.0909H76.4982L76.207 17.8594H76.3846C76.5456 17.6321 76.7634 17.3693 77.038 17.071C77.3174 16.7727 77.6843 16.5123 78.1388 16.2898C78.5934 16.0625 79.1592 15.9489 79.8363 15.9489C80.717 15.9489 81.4627 16.1714 82.0735 16.6165C82.6843 17.0616 83.1199 17.7031 83.3803 18.5412C83.6407 19.3793 83.6739 20.3878 83.4798 21.5668C83.2856 22.7457 82.921 23.7566 82.386 24.5994C81.851 25.4375 81.2023 26.0838 80.44 26.5384C79.6824 26.9882 78.8609 27.2131 77.9755 27.2131C77.3126 27.2131 76.7894 27.1018 76.4059 26.8793C76.0271 26.6567 75.7454 26.3963 75.5607 26.098C75.3761 25.7997 75.2364 25.5346 75.1417 25.3026H75.0138L74.0479 31.0909H71.9102ZM75.5962 21.5455C75.4731 22.3125 75.4731 22.9848 75.5962 23.5625C75.7193 24.1402 75.9656 24.5923 76.3349 24.919C76.7089 25.241 77.2013 25.402 77.8121 25.402C78.4466 25.402 79.003 25.2339 79.4812 24.8977C79.9594 24.5568 80.3548 24.0952 80.6673 23.5128C80.9845 22.9304 81.2047 22.2746 81.3278 21.5455C81.4461 20.8258 81.4438 20.1795 81.3207 19.6065C81.2023 19.0336 80.9585 18.5814 80.5891 18.25C80.2198 17.9186 79.7156 17.7528 79.0763 17.7528C78.4561 17.7528 77.9068 17.9115 77.4286 18.2287C76.9551 18.5459 76.5621 18.9886 76.2496 19.5568C75.9371 20.125 75.7193 20.7879 75.5962 21.5455ZM89.4865 12.4545L87.0717 27H84.9482L87.3629 12.4545H89.4865ZM94.5735 27.2202C93.5366 27.2202 92.6701 26.9834 91.9741 26.5099C91.2781 26.0317 90.788 25.3641 90.5039 24.5071C90.2246 23.6454 90.1772 22.6439 90.3619 21.5028C90.5418 20.3854 90.904 19.41 91.4485 18.5767C91.9978 17.7434 92.6843 17.0971 93.5082 16.6378C94.3368 16.1785 95.2577 15.9489 96.271 15.9489C97.3079 15.9489 98.172 16.188 98.8633 16.6662C99.5593 17.1444 100.049 17.8144 100.333 18.6761C100.618 19.5379 100.667 20.5417 100.483 21.6875C100.303 22.7955 99.9357 23.7661 99.3817 24.5994C98.8325 25.428 98.146 26.072 97.3221 26.5312C96.4982 26.9905 95.582 27.2202 94.5735 27.2202ZM94.6942 25.4375C95.3761 25.4375 95.9703 25.2576 96.4769 24.8977C96.9883 24.5379 97.4049 24.0597 97.7269 23.4631C98.0489 22.8665 98.2691 22.2131 98.3874 21.5028C98.4963 20.8163 98.494 20.1889 98.3803 19.6207C98.2714 19.0478 98.0347 18.5885 97.6701 18.2429C97.3055 17.8973 96.7989 17.7244 96.1502 17.7244C95.4684 17.7244 94.8694 17.9067 94.3533 18.2713C93.842 18.6312 93.4253 19.1117 93.1033 19.7131C92.7861 20.3144 92.5707 20.9702 92.457 21.6804C92.3481 22.3622 92.3481 22.9896 92.457 23.5625C92.5659 24.1307 92.8027 24.5852 93.1673 24.9261C93.5318 25.267 94.0408 25.4375 94.6942 25.4375ZM101.979 27L103.798 16.0909H105.85L105.559 17.8239H105.673C105.966 17.2367 106.395 16.7751 106.958 16.4389C107.522 16.098 108.123 15.9276 108.762 15.9276C108.899 15.9276 109.056 15.9323 109.231 15.9418C109.406 15.9465 109.548 15.9583 109.657 15.9773L109.316 18.0085C109.236 17.9848 109.089 17.9588 108.876 17.9304C108.663 17.8973 108.442 17.8807 108.215 17.8807C107.718 17.8807 107.256 17.9872 106.83 18.2003C106.404 18.4086 106.047 18.6998 105.758 19.0739C105.469 19.4432 105.282 19.8646 105.197 20.3381L104.103 27H101.979ZM113.977 27.2202C112.907 27.2202 112.021 26.9905 111.321 26.5312C110.625 26.0672 110.137 25.4162 109.858 24.5781C109.578 23.7353 109.533 22.7481 109.723 21.6165C109.907 20.4991 110.279 19.5142 110.838 18.6619C111.396 17.8097 112.092 17.1444 112.926 16.6662C113.764 16.188 114.69 15.9489 115.703 15.9489C116.318 15.9489 116.898 16.0507 117.443 16.2543C117.992 16.4579 118.458 16.7775 118.842 17.2131C119.225 17.6487 119.491 18.2145 119.637 18.9105C119.789 19.6018 119.784 20.4422 119.623 21.4318L119.502 22.1847H110.824L111.072 20.5938H117.663C117.762 20.035 117.736 19.5402 117.585 19.1094C117.433 18.6738 117.173 18.3305 116.804 18.0795C116.439 17.8286 115.98 17.7031 115.426 17.7031C114.858 17.7031 114.327 17.8523 113.835 18.1506C113.342 18.4489 112.931 18.83 112.599 19.294C112.272 19.7533 112.066 20.2268 111.981 20.7145L111.733 22.1705C111.609 22.9659 111.631 23.6051 111.797 24.0881C111.967 24.571 112.265 24.9214 112.691 25.1392C113.118 25.357 113.65 25.4659 114.289 25.4659C114.701 25.4659 115.083 25.4091 115.433 25.2955C115.788 25.1771 116.103 25.0043 116.377 24.777C116.652 24.545 116.882 24.2562 117.066 23.9105L119.012 24.2727C118.752 24.8646 118.378 25.383 117.89 25.8281C117.403 26.2685 116.827 26.6117 116.164 26.858C115.506 27.0994 114.777 27.2202 113.977 27.2202ZM130.912 12.4545L128.498 27H126.374L128.789 12.4545H130.912ZM134.501 27.2415C133.809 27.2415 133.206 27.1136 132.69 26.858C132.174 26.5975 131.792 26.2211 131.546 25.7287C131.3 25.2363 131.236 24.6326 131.354 23.9176C131.459 23.3021 131.662 22.7955 131.965 22.3977C132.273 22 132.647 21.6851 133.087 21.4531C133.528 21.2164 134.006 21.0388 134.522 20.9205C135.038 20.8021 135.559 20.7145 136.085 20.6577C136.747 20.5819 137.285 20.518 137.697 20.4659C138.113 20.4138 138.426 20.3333 138.634 20.2244C138.843 20.1108 138.968 19.9261 139.011 19.6705V19.6207C139.11 19.0052 139.02 18.527 138.741 18.1861C138.466 17.8404 137.988 17.6676 137.306 17.6676C136.596 17.6676 135.999 17.8239 135.516 18.1364C135.038 18.4489 134.685 18.7992 134.458 19.1875L132.555 18.733C132.896 18.0701 133.329 17.535 133.854 17.1278C134.385 16.7159 134.965 16.4176 135.594 16.233C136.224 16.0436 136.868 15.9489 137.526 15.9489C137.962 15.9489 138.414 16.0009 138.883 16.1051C139.352 16.2045 139.778 16.3892 140.161 16.6591C140.549 16.929 140.838 17.3149 141.028 17.8168C141.217 18.3139 141.246 18.9602 141.113 19.7557L139.913 27H137.839L138.094 25.5085H138.009C137.829 25.7831 137.578 26.053 137.256 26.3182C136.939 26.5833 136.551 26.8035 136.092 26.9787C135.632 27.1539 135.102 27.2415 134.501 27.2415ZM135.225 25.5369C135.817 25.5369 136.34 25.4209 136.795 25.1889C137.254 24.9569 137.626 24.6539 137.91 24.2798C138.194 23.901 138.371 23.4962 138.442 23.0653L138.677 21.6591C138.587 21.7348 138.428 21.8035 138.201 21.8651C137.978 21.9266 137.728 21.9811 137.448 22.0284C137.169 22.0758 136.894 22.116 136.624 22.1491C136.359 22.1823 136.139 22.2131 135.964 22.2415C135.547 22.2936 135.156 22.3812 134.792 22.5043C134.432 22.6274 134.131 22.8049 133.89 23.0369C133.648 23.2642 133.497 23.5672 133.435 23.946C133.35 24.4716 133.476 24.8693 133.812 25.1392C134.153 25.4044 134.624 25.5369 135.225 25.5369ZM152.294 18.7543L150.312 19.0952C150.27 18.8442 150.182 18.6075 150.049 18.3849C149.922 18.1624 149.725 17.9825 149.46 17.8452C149.195 17.7031 148.842 17.6321 148.402 17.6321C147.791 17.6321 147.256 17.7718 146.797 18.0511C146.342 18.3305 146.082 18.6856 146.015 19.1165C145.954 19.4669 146.037 19.7509 146.264 19.9688C146.491 20.1818 146.891 20.3594 147.464 20.5014L149.14 20.8991C150.106 21.1312 150.797 21.4934 151.214 21.9858C151.636 22.4735 151.782 23.108 151.654 23.8892C151.546 24.5379 151.261 25.1132 150.802 25.6151C150.348 26.117 149.765 26.5099 149.055 26.794C148.345 27.0781 147.554 27.2202 146.683 27.2202C145.442 27.2202 144.476 26.9574 143.785 26.4318C143.094 25.9063 142.739 25.1629 142.72 24.2017L144.822 23.8892C144.86 24.4242 145.052 24.8291 145.397 25.1037C145.748 25.3736 146.233 25.5085 146.853 25.5085C147.564 25.5133 148.158 25.3641 148.636 25.0611C149.114 24.758 149.386 24.3911 149.453 23.9602C149.51 23.6241 149.434 23.3447 149.225 23.1222C149.022 22.8996 148.662 22.7292 148.146 22.6108L146.385 22.206C145.4 21.974 144.704 21.5999 144.297 21.0838C143.889 20.5677 143.752 19.919 143.885 19.1378C143.989 18.4986 144.259 17.9422 144.694 17.4688C145.135 16.9905 145.691 16.6188 146.363 16.3537C147.036 16.0838 147.779 15.9489 148.593 15.9489C149.782 15.9489 150.674 16.2045 151.271 16.7159C151.868 17.2225 152.208 17.902 152.294 18.7543ZM158.757 27L160.575 16.0909H162.627L162.336 17.8239H162.45C162.743 17.2367 163.172 16.7751 163.735 16.4389C164.299 16.098 164.9 15.9276 165.539 15.9276C165.677 15.9276 165.833 15.9323 166.008 15.9418C166.183 15.9465 166.325 15.9583 166.434 15.9773L166.093 18.0085C166.013 17.9848 165.866 17.9588 165.653 17.9304C165.44 17.8973 165.22 17.8807 164.993 17.8807C164.495 17.8807 164.034 17.9872 163.608 18.2003C163.181 18.4086 162.824 18.6998 162.535 19.0739C162.246 19.4432 162.059 19.8646 161.974 20.3381L160.88 27H158.757ZM174.135 22.4759L175.2 16.0909H177.331L175.513 27H173.425L173.744 25.1108H173.631C173.29 25.6932 172.807 26.1785 172.182 26.5668C171.562 26.9503 170.842 27.142 170.023 27.142C169.322 27.142 168.728 26.9882 168.24 26.6804C167.757 26.3679 167.414 25.9062 167.21 25.2955C167.007 24.6847 166.978 23.9295 167.125 23.0298L168.29 16.0909H170.413L169.298 22.7741C169.18 23.5175 169.291 24.1094 169.632 24.5497C169.973 24.9901 170.47 25.2102 171.124 25.2102C171.521 25.2102 171.933 25.1108 172.359 24.9119C172.786 24.7131 173.162 24.4124 173.489 24.0099C173.82 23.6075 174.036 23.0961 174.135 22.4759ZM185.277 16.0909L185 17.7955H179.041L179.318 16.0909H185.277ZM181.342 13.4773H183.466L181.747 23.7969C181.681 24.2088 181.692 24.5189 181.782 24.7273C181.872 24.9309 182.01 25.0705 182.194 25.1463C182.384 25.2173 182.594 25.2528 182.826 25.2528C182.997 25.2528 183.146 25.241 183.274 25.2173C183.402 25.1937 183.503 25.1747 183.579 25.1605L183.693 26.9148C183.551 26.9621 183.359 27.0095 183.118 27.0568C182.881 27.1089 182.592 27.1373 182.251 27.142C181.692 27.1515 181.188 27.0521 180.738 26.8438C180.288 26.6307 179.952 26.3087 179.73 25.8778C179.507 25.4422 179.453 24.8954 179.566 24.2372L181.342 13.4773ZM188.954 27.2415C188.263 27.2415 187.659 27.1136 187.143 26.858C186.627 26.5975 186.246 26.2211 185.999 25.7287C185.753 25.2363 185.689 24.6326 185.808 23.9176C185.912 23.3021 186.115 22.7955 186.418 22.3977C186.726 22 187.1 21.6851 187.54 21.4531C187.981 21.2164 188.459 21.0388 188.975 20.9205C189.491 20.8021 190.012 20.7145 190.538 20.6577C191.201 20.5819 191.738 20.518 192.15 20.4659C192.567 20.4138 192.879 20.3333 193.087 20.2244C193.296 20.1108 193.421 19.9261 193.464 19.6705V19.6207C193.563 19.0052 193.473 18.527 193.194 18.1861C192.919 17.8404 192.441 17.6676 191.759 17.6676C191.049 17.6676 190.452 17.8239 189.969 18.1364C189.491 18.4489 189.138 18.7992 188.911 19.1875L187.008 18.733C187.349 18.0701 187.782 17.535 188.308 17.1278C188.838 16.7159 189.418 16.4176 190.048 16.233C190.677 16.0436 191.321 15.9489 191.979 15.9489C192.415 15.9489 192.867 16.0009 193.336 16.1051C193.805 16.2045 194.231 16.3892 194.614 16.6591C195.003 16.929 195.291 17.3149 195.481 17.8168C195.67 18.3139 195.699 18.9602 195.566 19.7557L194.366 27H192.292L192.548 25.5085H192.462C192.282 25.7831 192.031 26.053 191.71 26.3182C191.392 26.5833 191.004 26.8035 190.545 26.9787C190.085 27.1539 189.555 27.2415 188.954 27.2415ZM189.678 25.5369C190.27 25.5369 190.793 25.4209 191.248 25.1889C191.707 24.9569 192.079 24.6539 192.363 24.2798C192.647 23.901 192.825 23.4962 192.896 23.0653L193.13 21.6591C193.04 21.7348 192.881 21.8035 192.654 21.8651C192.432 21.9266 192.181 21.9811 191.901 22.0284C191.622 22.0758 191.347 22.116 191.077 22.1491C190.812 22.1823 190.592 22.2131 190.417 22.2415C190 22.2936 189.61 22.3812 189.245 22.5043C188.885 22.6274 188.585 22.8049 188.343 23.0369C188.102 23.2642 187.95 23.5672 187.888 23.946C187.803 24.4716 187.929 24.8693 188.265 25.1392C188.606 25.4044 189.077 25.5369 189.678 25.5369ZM206.747 18.7543L204.765 19.0952C204.723 18.8442 204.635 18.6075 204.502 18.3849C204.375 18.1624 204.178 17.9825 203.913 17.8452C203.648 17.7031 203.295 17.6321 202.855 17.6321C202.244 17.6321 201.709 17.7718 201.25 18.0511C200.795 18.3305 200.535 18.6856 200.468 19.1165C200.407 19.4669 200.49 19.7509 200.717 19.9688C200.944 20.1818 201.344 20.3594 201.917 20.5014L203.593 20.8991C204.559 21.1312 205.251 21.4934 205.667 21.9858C206.089 22.4735 206.235 23.108 206.108 23.8892C205.999 24.5379 205.715 25.1132 205.255 25.6151C204.801 26.117 204.218 26.5099 203.508 26.794C202.798 27.0781 202.007 27.2202 201.136 27.2202C199.895 27.2202 198.93 26.9574 198.238 26.4318C197.547 25.9063 197.192 25.1629 197.173 24.2017L199.275 23.8892C199.313 24.4242 199.505 24.8291 199.85 25.1037C200.201 25.3736 200.686 25.5085 201.306 25.5085C202.017 25.5133 202.611 25.3641 203.089 25.0611C203.567 24.758 203.84 24.3911 203.906 23.9602C203.963 23.6241 203.887 23.3447 203.679 23.1222C203.475 22.8996 203.115 22.7292 202.599 22.6108L200.838 22.206C199.853 21.974 199.157 21.5999 198.75 21.0838C198.342 20.5677 198.205 19.919 198.338 19.1378C198.442 18.4986 198.712 17.9422 199.147 17.4688C199.588 16.9905 200.144 16.6188 200.816 16.3537C201.489 16.0838 202.232 15.9489 203.047 15.9489C204.235 15.9489 205.127 16.2045 205.724 16.7159C206.321 17.2225 206.662 17.902 206.747 18.7543ZM213.885 31.0909C213.563 31.0909 213.276 31.0649 213.025 31.0128C212.774 30.9654 212.587 30.9134 212.464 30.8565L213.274 29.1165C213.648 29.2206 213.982 29.2609 214.275 29.2372C214.574 29.2135 214.853 29.0904 215.113 28.8679C215.374 28.6454 215.639 28.295 215.909 27.8168L216.306 27.0994L214.169 16.0909H216.356L217.706 24.5781H217.819L221.995 16.0909H224.36L217.819 28.4418C217.511 29.0289 217.161 29.5166 216.768 29.9048C216.38 30.2978 215.944 30.5938 215.461 30.7926C214.983 30.9915 214.458 31.0909 213.885 31.0909ZM234.369 12.4545L231.955 27H229.831L232.246 12.4545H234.369ZM239.456 27.2202C238.419 27.2202 237.553 26.9834 236.857 26.5099C236.161 26.0317 235.671 25.3641 235.387 24.5071C235.107 23.6454 235.06 22.6439 235.245 21.5028C235.425 20.3854 235.787 19.41 236.331 18.5767C236.881 17.7434 237.567 17.0971 238.391 16.6378C239.22 16.1785 240.141 15.9489 241.154 15.9489C242.191 15.9489 243.055 16.188 243.746 16.6662C244.442 17.1444 244.932 17.8144 245.216 18.6761C245.5 19.5379 245.55 20.5417 245.365 21.6875C245.185 22.7955 244.819 23.7661 244.265 24.5994C243.715 25.428 243.029 26.072 242.205 26.5312C241.381 26.9905 240.465 27.2202 239.456 27.2202ZM239.577 25.4375C240.259 25.4375 240.853 25.2576 241.36 24.8977C241.871 24.5379 242.288 24.0597 242.61 23.4631C242.932 22.8665 243.152 22.2131 243.27 21.5028C243.379 20.8163 243.377 20.1889 243.263 19.6207C243.154 19.0478 242.917 18.5885 242.553 18.2429C242.188 17.8973 241.682 17.7244 241.033 17.7244C240.351 17.7244 239.752 17.9067 239.236 18.2713C238.725 18.6312 238.308 19.1117 237.986 19.7131C237.669 20.3144 237.453 20.9702 237.34 21.6804C237.231 22.3622 237.231 22.9896 237.34 23.5625C237.449 24.1307 237.685 24.5852 238.05 24.9261C238.415 25.267 238.924 25.4375 239.577 25.4375ZM256.415 18.7543L254.433 19.0952C254.391 18.8442 254.303 18.6075 254.17 18.3849C254.043 18.1624 253.846 17.9825 253.581 17.8452C253.316 17.7031 252.963 17.6321 252.523 17.6321C251.912 17.6321 251.377 17.7718 250.918 18.0511C250.463 18.3305 250.203 18.6856 250.136 19.1165C250.075 19.4669 250.158 19.7509 250.385 19.9688C250.612 20.1818 251.012 20.3594 251.585 20.5014L253.261 20.8991C254.227 21.1312 254.919 21.4934 255.335 21.9858C255.757 22.4735 255.903 23.108 255.776 23.8892C255.667 24.5379 255.383 25.1132 254.923 25.6151C254.469 26.117 253.886 26.5099 253.176 26.794C252.466 27.0781 251.675 27.2202 250.804 27.2202C249.563 27.2202 248.598 26.9574 247.906 26.4318C247.215 25.9063 246.86 25.1629 246.841 24.2017L248.943 23.8892C248.981 24.4242 249.173 24.8291 249.518 25.1037C249.869 25.3736 250.354 25.5085 250.974 25.5085C251.685 25.5133 252.279 25.3641 252.757 25.0611C253.235 24.758 253.508 24.3911 253.574 23.9602C253.631 23.6241 253.555 23.3447 253.347 23.1222C253.143 22.8996 252.783 22.7292 252.267 22.6108L250.506 22.206C249.521 21.974 248.825 21.5999 248.418 21.0838C248.01 20.5677 247.873 19.919 248.006 19.1378C248.11 18.4986 248.38 17.9422 248.815 17.4688C249.256 16.9905 249.812 16.6188 250.484 16.3537C251.157 16.0838 251.9 15.9489 252.714 15.9489C253.903 15.9489 254.795 16.2045 255.392 16.7159C255.989 17.2225 256.33 17.902 256.415 18.7543ZM266.074 20.5227L265.009 27H262.885L265.3 12.4545H267.395L266.5 17.8665H266.635C266.981 17.2746 267.445 16.8082 268.027 16.4673C268.614 16.1217 269.334 15.9489 270.186 15.9489C270.934 15.9489 271.562 16.1027 272.068 16.4105C272.58 16.7183 272.939 17.1776 273.148 17.7884C273.361 18.3944 273.394 19.152 273.247 20.0611L272.082 27H269.959L271.067 20.3168C271.199 19.5166 271.095 18.8963 270.754 18.456C270.413 18.0109 269.881 17.7884 269.156 17.7884C268.65 17.7884 268.181 17.8949 267.75 18.108C267.324 18.321 266.964 18.6335 266.67 19.0455C266.377 19.4527 266.178 19.9451 266.074 20.5227ZM282.572 22.4759L283.638 16.0909H285.768L283.95 27H281.862L282.182 25.1108H282.068C281.727 25.6932 281.244 26.1785 280.619 26.5668C279.999 26.9503 279.279 27.142 278.46 27.142C277.759 27.142 277.165 26.9882 276.678 26.6804C276.195 26.3679 275.851 25.9062 275.648 25.2955C275.444 24.6847 275.416 23.9295 275.562 23.0298L276.727 16.0909H278.851L277.736 22.7741C277.617 23.5175 277.729 24.1094 278.07 24.5497C278.411 24.9901 278.908 25.2102 279.561 25.2102C279.959 25.2102 280.371 25.1108 280.797 24.9119C281.223 24.7131 281.599 24.4124 281.926 24.0099C282.258 23.6075 282.473 23.0961 282.572 22.4759ZM286.974 27L289.389 12.4545H291.512L290.625 17.8594H290.752C290.913 17.6321 291.134 17.3693 291.413 17.071C291.697 16.7727 292.064 16.5123 292.514 16.2898C292.964 16.0625 293.527 15.9489 294.204 15.9489C295.085 15.9489 295.833 16.1714 296.449 16.6165C297.064 17.0616 297.5 17.7031 297.755 18.5412C298.011 19.3793 298.042 20.3878 297.848 21.5668C297.654 22.7457 297.289 23.7566 296.754 24.5994C296.224 25.4375 295.577 26.0838 294.815 26.5384C294.053 26.9882 293.231 27.2131 292.35 27.2131C291.688 27.2131 291.164 27.1018 290.781 26.8793C290.402 26.6567 290.118 26.3963 289.929 26.098C289.744 25.7997 289.604 25.5346 289.51 25.3026H289.332L289.048 27H286.974ZM289.964 21.5455C289.841 22.3125 289.841 22.9848 289.964 23.5625C290.092 24.1402 290.341 24.5923 290.71 24.919C291.084 25.241 291.574 25.402 292.18 25.402C292.815 25.402 293.373 25.2339 293.856 24.8977C294.339 24.5568 294.737 24.0952 295.049 23.5128C295.362 22.9304 295.58 22.2746 295.703 21.5455C295.816 20.8258 295.814 20.1795 295.696 19.6065C295.577 19.0336 295.331 18.5814 294.957 18.25C294.588 17.9186 294.083 17.7528 293.444 17.7528C292.829 17.7528 292.282 17.9115 291.804 18.2287C291.325 18.5459 290.93 18.9886 290.618 19.5568C290.305 20.125 290.087 20.7879 289.964 21.5455ZM308.876 18.7543L306.894 19.0952C306.852 18.8442 306.764 18.6075 306.631 18.3849C306.504 18.1624 306.307 17.9825 306.042 17.8452C305.777 17.7031 305.424 17.6321 304.984 17.6321C304.373 17.6321 303.838 17.7718 303.379 18.0511C302.924 18.3305 302.664 18.6856 302.597 19.1165C302.536 19.4669 302.619 19.7509 302.846 19.9688C303.073 20.1818 303.473 20.3594 304.046 20.5014L305.722 20.8991C306.688 21.1312 307.379 21.4934 307.796 21.9858C308.218 22.4735 308.364 23.108 308.237 23.8892C308.128 24.5379 307.844 25.1132 307.384 25.6151C306.93 26.117 306.347 26.5099 305.637 26.794C304.927 27.0781 304.136 27.2202 303.265 27.2202C302.024 27.2202 301.058 26.9574 300.367 26.4318C299.676 25.9063 299.321 25.1629 299.302 24.2017L301.404 23.8892C301.442 24.4242 301.634 24.8291 301.979 25.1037C302.33 25.3736 302.815 25.5085 303.435 25.5085C304.146 25.5133 304.74 25.3641 305.218 25.0611C305.696 24.758 305.969 24.3911 306.035 23.9602C306.092 23.6241 306.016 23.3447 305.808 23.1222C305.604 22.8996 305.244 22.7292 304.728 22.6108L302.967 22.206C301.982 21.974 301.286 21.5999 300.879 21.0838C300.471 20.5677 300.334 19.919 300.467 19.1378C300.571 18.4986 300.841 17.9422 301.276 17.4688C301.717 16.9905 302.273 16.6188 302.945 16.3537C303.618 16.0838 304.361 15.9489 305.175 15.9489C306.364 15.9489 307.256 16.2045 307.853 16.7159C308.45 17.2225 308.79 17.902 308.876 18.7543ZM311.623 27.1349C311.225 27.1349 310.893 26.9976 310.628 26.723C310.368 26.4484 310.24 26.1122 310.245 25.7145C310.249 25.3215 310.396 24.9924 310.685 24.7273C310.979 24.4574 311.319 24.3224 311.708 24.3224C312.096 24.3224 312.427 24.4598 312.702 24.7344C312.977 25.009 313.105 25.3357 313.086 25.7145C313.071 25.9796 312.996 26.2211 312.858 26.4389C312.726 26.652 312.551 26.8224 312.333 26.9503C312.115 27.0734 311.878 27.1349 311.623 27.1349ZM312.936 19.1946C312.539 19.1946 312.207 19.0573 311.942 18.7827C311.682 18.5033 311.554 18.1671 311.559 17.7741C311.563 17.3812 311.71 17.0521 311.999 16.7869C312.292 16.517 312.633 16.3821 313.022 16.3821C313.405 16.3821 313.734 16.5194 314.009 16.794C314.288 17.0639 314.418 17.3906 314.4 17.7741C314.385 18.0346 314.31 18.2737 314.172 18.4915C314.035 18.7045 313.857 18.875 313.64 19.0028C313.426 19.1307 313.192 19.1946 312.936 19.1946Z" fill="#1F1F1F"/>
</svg>
