<svg width="252" height="212" viewBox="0 0 252 212" fill="none" xmlns="http://www.w3.org/2000/svg">
<rect width="252" height="212" fill="#014979"/>
<path d="M29 87.8636C28.5417 87.8636 28.1231 87.7519 27.7443 87.5284C27.3655 87.3011 27.0625 86.9981 26.8352 86.6193C26.6117 86.2405 26.5 85.822 26.5 85.3636C26.5 84.9015 26.6117 84.483 26.8352 84.108C27.0625 83.7292 27.3655 83.428 27.7443 83.2045C28.1231 82.9773 28.5417 82.8636 29 82.8636C29.4621 82.8636 29.8807 82.9773 30.2557 83.2045C30.6345 83.428 30.9356 83.7292 31.1591 84.108C31.3864 84.483 31.5 84.9015 31.5 85.3636C31.5 85.822 31.3864 86.2405 31.1591 86.6193C30.9356 86.9981 30.6345 87.3011 30.2557 87.5284C29.8807 87.7519 29.4621 87.8636 29 87.8636ZM51.6364 78.3636V90H50.2727L43.9318 80.8636H43.8182V90H42.4091V78.3636H43.7727L50.1364 87.5227H50.25V78.3636H51.6364ZM57.9332 90.1818C57.0923 90.1818 56.367 89.9962 55.7571 89.625C55.151 89.25 54.6832 88.7273 54.3537 88.0568C54.0279 87.3826 53.8651 86.5985 53.8651 85.7045C53.8651 84.8106 54.0279 84.0227 54.3537 83.3409C54.6832 82.6553 55.1416 82.1212 55.7287 81.7386C56.3196 81.3523 57.009 81.1591 57.7969 81.1591C58.2514 81.1591 58.7003 81.2348 59.1435 81.3864C59.5866 81.5379 59.9901 81.7841 60.3537 82.125C60.7173 82.4621 61.0071 82.9091 61.223 83.4659C61.4389 84.0227 61.5469 84.7083 61.5469 85.5227V86.0909H54.8196V84.9318H60.1832C60.1832 84.4394 60.0848 84 59.8878 83.6136C59.6946 83.2273 59.4181 82.9223 59.0582 82.6989C58.7022 82.4754 58.2817 82.3636 57.7969 82.3636C57.2628 82.3636 56.8007 82.4962 56.4105 82.7614C56.0241 83.0227 55.7268 83.3636 55.5185 83.7841C55.3101 84.2045 55.206 84.6553 55.206 85.1364V85.9091C55.206 86.5682 55.3196 87.1269 55.5469 87.5852C55.7779 88.0398 56.098 88.3864 56.5071 88.625C56.9162 88.8598 57.3916 88.9773 57.9332 88.9773C58.2855 88.9773 58.6037 88.928 58.8878 88.8295C59.1757 88.7273 59.4238 88.5758 59.6321 88.375C59.8404 88.1705 60.0014 87.9167 60.1151 87.6136L61.4105 87.9773C61.2741 88.4167 61.045 88.803 60.723 89.1364C60.401 89.4659 60.0033 89.7235 59.5298 89.9091C59.0563 90.0909 58.5241 90.1818 57.9332 90.1818ZM67.1321 90.1818C66.3139 90.1818 65.6094 89.9886 65.0185 89.6023C64.4276 89.2159 63.973 88.6837 63.6548 88.0057C63.3366 87.3277 63.1776 86.553 63.1776 85.6818C63.1776 84.7955 63.3404 84.0133 63.6662 83.3352C63.9957 82.6534 64.4541 82.1212 65.0412 81.7386C65.6321 81.3523 66.3215 81.1591 67.1094 81.1591C67.723 81.1591 68.276 81.2727 68.7685 81.5C69.2609 81.7273 69.6643 82.0455 69.9787 82.4545C70.2931 82.8636 70.4882 83.3409 70.5639 83.8864H69.223C69.1207 83.4886 68.8935 83.1364 68.5412 82.8295C68.1927 82.5189 67.723 82.3636 67.1321 82.3636C66.6094 82.3636 66.151 82.5 65.7571 82.7727C65.367 83.0417 65.062 83.4223 64.8423 83.9148C64.6264 84.4034 64.5185 84.9773 64.5185 85.6364C64.5185 86.3106 64.6245 86.8977 64.8366 87.3977C65.0526 87.8977 65.3556 88.286 65.7457 88.5625C66.1397 88.839 66.6018 88.9773 67.1321 88.9773C67.4806 88.9773 67.7969 88.9167 68.081 88.7955C68.3651 88.6742 68.6056 88.5 68.8026 88.2727C68.9995 88.0455 69.1397 87.7727 69.223 87.4545H70.5639C70.4882 87.9697 70.3007 88.4337 70.0014 88.8466C69.706 89.2557 69.3139 89.5814 68.8253 89.8239C68.3404 90.0625 67.776 90.1818 67.1321 90.1818ZM76.0696 90.1818C75.2817 90.1818 74.5904 89.9943 73.9957 89.6193C73.4048 89.2443 72.9427 88.7197 72.6094 88.0455C72.2798 87.3712 72.1151 86.5833 72.1151 85.6818C72.1151 84.7727 72.2798 83.9792 72.6094 83.3011C72.9427 82.6231 73.4048 82.0966 73.9957 81.7216C74.5904 81.3466 75.2817 81.1591 76.0696 81.1591C76.8575 81.1591 77.5469 81.3466 78.1378 81.7216C78.7325 82.0966 79.1946 82.6231 79.5241 83.3011C79.8575 83.9792 80.0241 84.7727 80.0241 85.6818C80.0241 86.5833 79.8575 87.3712 79.5241 88.0455C79.1946 88.7197 78.7325 89.2443 78.1378 89.6193C77.5469 89.9943 76.8575 90.1818 76.0696 90.1818ZM76.0696 88.9773C76.6681 88.9773 77.1605 88.8239 77.5469 88.517C77.9332 88.2102 78.2192 87.8068 78.4048 87.3068C78.5904 86.8068 78.6832 86.2652 78.6832 85.6818C78.6832 85.0985 78.5904 84.5549 78.4048 84.0511C78.2192 83.5473 77.9332 83.1402 77.5469 82.8295C77.1605 82.5189 76.6681 82.3636 76.0696 82.3636C75.4711 82.3636 74.9787 82.5189 74.5923 82.8295C74.206 83.1402 73.92 83.5473 73.7344 84.0511C73.5488 84.5549 73.456 85.0985 73.456 85.6818C73.456 86.2652 73.5488 86.8068 73.7344 87.3068C73.92 87.8068 74.206 88.2102 74.5923 88.517C74.9787 88.8239 75.4711 88.9773 76.0696 88.9773ZM85.6165 90.1818C84.7983 90.1818 84.0938 89.9886 83.5028 89.6023C82.9119 89.2159 82.4574 88.6837 82.1392 88.0057C81.821 87.3277 81.6619 86.553 81.6619 85.6818C81.6619 84.7955 81.8248 84.0133 82.1506 83.3352C82.4801 82.6534 82.9384 82.1212 83.5256 81.7386C84.1165 81.3523 84.8059 81.1591 85.5938 81.1591C86.2074 81.1591 86.7604 81.2727 87.2528 81.5C87.7453 81.7273 88.1487 82.0455 88.4631 82.4545C88.7775 82.8636 88.9725 83.3409 89.0483 83.8864H87.7074C87.6051 83.4886 87.3778 83.1364 87.0256 82.8295C86.6771 82.5189 86.2074 82.3636 85.6165 82.3636C85.0938 82.3636 84.6354 82.5 84.2415 82.7727C83.8513 83.0417 83.5464 83.4223 83.3267 83.9148C83.1108 84.4034 83.0028 84.9773 83.0028 85.6364C83.0028 86.3106 83.1089 86.8977 83.321 87.3977C83.5369 87.8977 83.84 88.286 84.2301 88.5625C84.6241 88.839 85.0862 88.9773 85.6165 88.9773C85.965 88.9773 86.2812 88.9167 86.5653 88.7955C86.8494 88.6742 87.09 88.5 87.2869 88.2727C87.4839 88.0455 87.6241 87.7727 87.7074 87.4545H89.0483C88.9725 87.9697 88.785 88.4337 88.4858 88.8466C88.1903 89.2557 87.7983 89.5814 87.3097 89.8239C86.8248 90.0625 86.2604 90.1818 85.6165 90.1818ZM92.3494 78.3636V90H91.0085V78.3636H92.3494ZM94.8054 90V81.2727H96.1463V90H94.8054ZM94.8736 80.0909L96.2599 77.4545H97.8281L96.0554 80.0909H94.8736ZM29 109.864C28.5417 109.864 28.1231 109.752 27.7443 109.528C27.3655 109.301 27.0625 108.998 26.8352 108.619C26.6117 108.241 26.5 107.822 26.5 107.364C26.5 106.902 26.6117 106.483 26.8352 106.108C27.0625 105.729 27.3655 105.428 27.7443 105.205C28.1231 104.977 28.5417 104.864 29 104.864C29.4621 104.864 29.8807 104.977 30.2557 105.205C30.6345 105.428 30.9356 105.729 31.1591 106.108C31.3864 106.483 31.5 106.902 31.5 107.364C31.5 107.822 31.3864 108.241 31.1591 108.619C30.9356 108.998 30.6345 109.301 30.2557 109.528C29.8807 109.752 29.4621 109.864 29 109.864ZM52.2273 106.182C52.2273 107.409 52.0057 108.47 51.5625 109.364C51.1193 110.258 50.5114 110.947 49.7386 111.432C48.9659 111.917 48.0833 112.159 47.0909 112.159C46.0985 112.159 45.2159 111.917 44.4432 111.432C43.6705 110.947 43.0625 110.258 42.6193 109.364C42.1761 108.47 41.9545 107.409 41.9545 106.182C41.9545 104.955 42.1761 103.894 42.6193 103C43.0625 102.106 43.6705 101.417 44.4432 100.932C45.2159 100.447 46.0985 100.205 47.0909 100.205C48.0833 100.205 48.9659 100.447 49.7386 100.932C50.5114 101.417 51.1193 102.106 51.5625 103C52.0057 103.894 52.2273 104.955 52.2273 106.182ZM50.8636 106.182C50.8636 105.174 50.6951 104.324 50.358 103.631C50.0246 102.938 49.572 102.413 49 102.057C48.4318 101.701 47.7955 101.523 47.0909 101.523C46.3864 101.523 45.7481 101.701 45.1761 102.057C44.608 102.413 44.1553 102.938 43.8182 103.631C43.4848 104.324 43.3182 105.174 43.3182 106.182C43.3182 107.189 43.4848 108.04 43.8182 108.733C44.1553 109.426 44.608 109.951 45.1761 110.307C45.7481 110.663 46.3864 110.841 47.0909 110.841C47.7955 110.841 48.4318 110.663 49 110.307C49.572 109.951 50.0246 109.426 50.358 108.733C50.6951 108.04 50.8636 107.189 50.8636 106.182ZM57.9602 112.182C57.142 112.182 56.4375 111.989 55.8466 111.602C55.2557 111.216 54.8011 110.684 54.483 110.006C54.1648 109.328 54.0057 108.553 54.0057 107.682C54.0057 106.795 54.1686 106.013 54.4943 105.335C54.8239 104.653 55.2822 104.121 55.8693 103.739C56.4602 103.352 57.1496 103.159 57.9375 103.159C58.5511 103.159 59.1042 103.273 59.5966 103.5C60.089 103.727 60.4924 104.045 60.8068 104.455C61.1212 104.864 61.3163 105.341 61.392 105.886H60.0511C59.9489 105.489 59.7216 105.136 59.3693 104.83C59.0208 104.519 58.5511 104.364 57.9602 104.364C57.4375 104.364 56.9792 104.5 56.5852 104.773C56.1951 105.042 55.8902 105.422 55.6705 105.915C55.4545 106.403 55.3466 106.977 55.3466 107.636C55.3466 108.311 55.4527 108.898 55.6648 109.398C55.8807 109.898 56.1837 110.286 56.5739 110.562C56.9678 110.839 57.4299 110.977 57.9602 110.977C58.3087 110.977 58.625 110.917 58.9091 110.795C59.1932 110.674 59.4337 110.5 59.6307 110.273C59.8277 110.045 59.9678 109.773 60.0511 109.455H61.392C61.3163 109.97 61.1288 110.434 60.8295 110.847C60.5341 111.256 60.142 111.581 59.6534 111.824C59.1686 112.062 58.6042 112.182 57.9602 112.182ZM66.8977 112.182C66.1098 112.182 65.4186 111.994 64.8239 111.619C64.233 111.244 63.7708 110.72 63.4375 110.045C63.108 109.371 62.9432 108.583 62.9432 107.682C62.9432 106.773 63.108 105.979 63.4375 105.301C63.7708 104.623 64.233 104.097 64.8239 103.722C65.4186 103.347 66.1098 103.159 66.8977 103.159C67.6856 103.159 68.375 103.347 68.9659 103.722C69.5606 104.097 70.0227 104.623 70.3523 105.301C70.6856 105.979 70.8523 106.773 70.8523 107.682C70.8523 108.583 70.6856 109.371 70.3523 110.045C70.0227 110.72 69.5606 111.244 68.9659 111.619C68.375 111.994 67.6856 112.182 66.8977 112.182ZM66.8977 110.977C67.4962 110.977 67.9886 110.824 68.375 110.517C68.7614 110.21 69.0473 109.807 69.233 109.307C69.4186 108.807 69.5114 108.265 69.5114 107.682C69.5114 107.098 69.4186 106.555 69.233 106.051C69.0473 105.547 68.7614 105.14 68.375 104.83C67.9886 104.519 67.4962 104.364 66.8977 104.364C66.2992 104.364 65.8068 104.519 65.4205 104.83C65.0341 105.14 64.7481 105.547 64.5625 106.051C64.3769 106.555 64.2841 107.098 64.2841 107.682C64.2841 108.265 64.3769 108.807 64.5625 109.307C64.7481 109.807 65.0341 110.21 65.4205 110.517C65.8068 110.824 66.2992 110.977 66.8977 110.977ZM66.2841 102.091L67.6705 99.4545H69.2386L67.4659 102.091H66.2841ZM79.081 105.227L77.8764 105.568C77.8007 105.367 77.6889 105.172 77.5412 104.983C77.3973 104.79 77.2003 104.631 76.9503 104.506C76.7003 104.381 76.3802 104.318 75.9901 104.318C75.456 104.318 75.0109 104.441 74.6548 104.688C74.3026 104.93 74.1264 105.239 74.1264 105.614C74.1264 105.947 74.2476 106.21 74.4901 106.403C74.7325 106.597 75.1113 106.758 75.6264 106.886L76.9219 107.205C77.7022 107.394 78.2836 107.684 78.6662 108.074C79.0488 108.46 79.2401 108.958 79.2401 109.568C79.2401 110.068 79.0961 110.515 78.8082 110.909C78.5241 111.303 78.1264 111.614 77.6151 111.841C77.1037 112.068 76.509 112.182 75.831 112.182C74.9408 112.182 74.2041 111.989 73.6207 111.602C73.0374 111.216 72.6681 110.652 72.5128 109.909L73.7855 109.591C73.9067 110.061 74.1359 110.413 74.473 110.648C74.8139 110.883 75.259 111 75.8082 111C76.4332 111 76.9295 110.867 77.2969 110.602C77.6681 110.333 77.8537 110.011 77.8537 109.636C77.8537 109.333 77.7476 109.08 77.5355 108.875C77.3234 108.667 76.9976 108.511 76.5582 108.409L75.1037 108.068C74.3045 107.879 73.7173 107.585 73.3423 107.188C72.9711 106.786 72.7855 106.284 72.7855 105.682C72.7855 105.189 72.9238 104.754 73.2003 104.375C73.4806 103.996 73.8613 103.699 74.3423 103.483C74.8272 103.267 75.3764 103.159 75.9901 103.159C76.8537 103.159 77.5317 103.348 78.0241 103.727C78.5204 104.106 78.8726 104.606 79.081 105.227ZM29 131.864C28.5417 131.864 28.1231 131.752 27.7443 131.528C27.3655 131.301 27.0625 130.998 26.8352 130.619C26.6117 130.241 26.5 129.822 26.5 129.364C26.5 128.902 26.6117 128.483 26.8352 128.108C27.0625 127.729 27.3655 127.428 27.7443 127.205C28.1231 126.977 28.5417 126.864 29 126.864C29.4621 126.864 29.8807 126.977 30.2557 127.205C30.6345 127.428 30.9356 127.729 31.1591 128.108C31.3864 128.483 31.5 128.902 31.5 129.364C31.5 129.822 31.3864 130.241 31.1591 130.619C30.9356 130.998 30.6345 131.301 30.2557 131.528C29.8807 131.752 29.4621 131.864 29 131.864ZM48.7727 125.273C48.7045 124.697 48.428 124.25 47.9432 123.932C47.4583 123.614 46.8636 123.455 46.1591 123.455C45.6439 123.455 45.1932 123.538 44.8068 123.705C44.4242 123.871 44.125 124.1 43.9091 124.392C43.697 124.684 43.5909 125.015 43.5909 125.386C43.5909 125.697 43.6648 125.964 43.8125 126.188C43.964 126.407 44.1572 126.591 44.392 126.739C44.6269 126.883 44.8731 127.002 45.1307 127.097C45.3883 127.187 45.625 127.261 45.8409 127.318L47.0227 127.636C47.3258 127.716 47.6629 127.826 48.0341 127.966C48.4091 128.106 48.767 128.297 49.108 128.54C49.4527 128.778 49.7367 129.085 49.9602 129.46C50.1837 129.835 50.2955 130.295 50.2955 130.841C50.2955 131.47 50.1307 132.038 49.8011 132.545C49.4754 133.053 48.9981 133.456 48.3693 133.756C47.7443 134.055 46.9848 134.205 46.0909 134.205C45.2576 134.205 44.536 134.07 43.9261 133.801C43.3201 133.532 42.8428 133.157 42.4943 132.676C42.1496 132.195 41.9545 131.636 41.9091 131H43.3636C43.4015 131.439 43.5492 131.803 43.8068 132.091C44.0682 132.375 44.3977 132.587 44.7955 132.727C45.197 132.864 45.6288 132.932 46.0909 132.932C46.6288 132.932 47.1117 132.845 47.5398 132.67C47.9678 132.492 48.3068 132.246 48.5568 131.932C48.8068 131.614 48.9318 131.242 48.9318 130.818C48.9318 130.432 48.8239 130.117 48.608 129.875C48.392 129.633 48.108 129.436 47.7557 129.284C47.4034 129.133 47.0227 129 46.6136 128.886L45.1818 128.477C44.2727 128.216 43.553 127.843 43.0227 127.358C42.4924 126.873 42.2273 126.239 42.2273 125.455C42.2273 124.803 42.4034 124.235 42.7557 123.75C43.1117 123.261 43.589 122.883 44.1875 122.614C44.7898 122.341 45.4621 122.205 46.2045 122.205C46.9545 122.205 47.6212 122.339 48.2045 122.608C48.7879 122.873 49.25 123.237 49.5909 123.699C49.9356 124.161 50.1174 124.686 50.1364 125.273H48.7727ZM54.9986 134.205C54.4455 134.205 53.9437 134.1 53.4929 133.892C53.0421 133.68 52.6842 133.375 52.419 132.977C52.1539 132.576 52.0213 132.091 52.0213 131.523C52.0213 131.023 52.1198 130.617 52.3168 130.307C52.5137 129.992 52.777 129.746 53.1065 129.568C53.4361 129.39 53.7997 129.258 54.1974 129.17C54.599 129.08 55.0024 129.008 55.4077 128.955C55.938 128.886 56.3679 128.835 56.6974 128.801C57.0308 128.763 57.2732 128.701 57.4247 128.614C57.58 128.527 57.6577 128.375 57.6577 128.159V128.114C57.6577 127.553 57.5043 127.117 57.1974 126.807C56.8944 126.496 56.4342 126.341 55.8168 126.341C55.1766 126.341 54.6747 126.481 54.3111 126.761C53.9474 127.042 53.6918 127.341 53.544 127.659L52.2713 127.205C52.4986 126.674 52.8016 126.261 53.1804 125.966C53.563 125.667 53.9796 125.458 54.4304 125.341C54.8849 125.22 55.3319 125.159 55.7713 125.159C56.0516 125.159 56.3736 125.193 56.7372 125.261C57.1046 125.326 57.4588 125.46 57.7997 125.665C58.1444 125.869 58.4304 126.178 58.6577 126.591C58.8849 127.004 58.9986 127.557 58.9986 128.25V134H57.6577V132.818H57.5895C57.4986 133.008 57.3471 133.21 57.1349 133.426C56.9228 133.642 56.6406 133.826 56.2884 133.977C55.9361 134.129 55.5062 134.205 54.9986 134.205ZM55.2031 133C55.7334 133 56.1804 132.896 56.544 132.688C56.9115 132.479 57.188 132.21 57.3736 131.881C57.563 131.551 57.6577 131.205 57.6577 130.841V129.614C57.6009 129.682 57.4759 129.744 57.2827 129.801C57.0933 129.854 56.8736 129.902 56.6236 129.943C56.3774 129.981 56.1368 130.015 55.902 130.045C55.6709 130.072 55.4834 130.095 55.3395 130.114C54.991 130.159 54.6652 130.233 54.3622 130.335C54.063 130.434 53.8205 130.583 53.6349 130.784C53.4531 130.981 53.3622 131.25 53.3622 131.591C53.3622 132.057 53.5346 132.409 53.8793 132.648C54.2277 132.883 54.669 133 55.2031 133ZM62.7869 122.364V134H61.446V122.364H62.7869ZM65.2429 134V125.273H66.5838V134H65.2429ZM65.9247 123.818C65.6634 123.818 65.438 123.729 65.2486 123.551C65.063 123.373 64.9702 123.159 64.9702 122.909C64.9702 122.659 65.063 122.445 65.2486 122.267C65.438 122.089 65.6634 122 65.9247 122C66.1861 122 66.4096 122.089 66.5952 122.267C66.7846 122.445 66.8793 122.659 66.8793 122.909C66.8793 123.159 66.7846 123.373 66.5952 123.551C66.4096 123.729 66.1861 123.818 65.9247 123.818ZM70.3807 128.75V134H69.0398V125.273H70.3352V126.636H70.4489C70.6534 126.193 70.964 125.837 71.3807 125.568C71.7973 125.295 72.3352 125.159 72.9943 125.159C73.5852 125.159 74.1023 125.28 74.5455 125.523C74.9886 125.761 75.3333 126.125 75.5795 126.614C75.8258 127.098 75.9489 127.712 75.9489 128.455V134H74.608V128.545C74.608 127.86 74.4299 127.326 74.0739 126.943C73.7178 126.557 73.2292 126.364 72.608 126.364C72.1799 126.364 71.7973 126.456 71.4602 126.642C71.1269 126.828 70.8636 127.098 70.6705 127.455C70.4773 127.811 70.3807 128.242 70.3807 128.75ZM80.9673 134.205C80.4143 134.205 79.9124 134.1 79.4616 133.892C79.0109 133.68 78.6529 133.375 78.3878 132.977C78.1226 132.576 77.9901 132.091 77.9901 131.523C77.9901 131.023 78.0885 130.617 78.2855 130.307C78.4825 129.992 78.7457 129.746 79.0753 129.568C79.4048 129.39 79.7685 129.258 80.1662 129.17C80.5677 129.08 80.9711 129.008 81.3764 128.955C81.9067 128.886 82.3366 128.835 82.6662 128.801C82.9995 128.763 83.242 128.701 83.3935 128.614C83.5488 128.527 83.6264 128.375 83.6264 128.159V128.114C83.6264 127.553 83.473 127.117 83.1662 126.807C82.8632 126.496 82.4029 126.341 81.7855 126.341C81.1454 126.341 80.6435 126.481 80.2798 126.761C79.9162 127.042 79.6605 127.341 79.5128 127.659L78.2401 127.205C78.4673 126.674 78.7704 126.261 79.1491 125.966C79.5317 125.667 79.9484 125.458 80.3991 125.341C80.8537 125.22 81.3007 125.159 81.7401 125.159C82.0204 125.159 82.3423 125.193 82.706 125.261C83.0734 125.326 83.4276 125.46 83.7685 125.665C84.1132 125.869 84.3991 126.178 84.6264 126.591C84.8537 127.004 84.9673 127.557 84.9673 128.25V134H83.6264V132.818H83.5582C83.4673 133.008 83.3158 133.21 83.1037 133.426C82.8916 133.642 82.6094 133.826 82.2571 133.977C81.9048 134.129 81.4749 134.205 80.9673 134.205ZM81.1719 133C81.7022 133 82.1491 132.896 82.5128 132.688C82.8802 132.479 83.1567 132.21 83.3423 131.881C83.5317 131.551 83.6264 131.205 83.6264 130.841V129.614C83.5696 129.682 83.4446 129.744 83.2514 129.801C83.062 129.854 82.8423 129.902 82.5923 129.943C82.3461 129.981 82.1056 130.015 81.8707 130.045C81.6397 130.072 81.4522 130.095 81.3082 130.114C80.9598 130.159 80.634 130.233 80.331 130.335C80.0317 130.434 79.7893 130.583 79.6037 130.784C79.4219 130.981 79.331 131.25 79.331 131.591C79.331 132.057 79.5033 132.409 79.848 132.648C80.1965 132.883 80.6378 133 81.1719 133ZM101.46 126H100.051C99.9678 125.595 99.822 125.239 99.6136 124.932C99.4091 124.625 99.1591 124.367 98.8636 124.159C98.572 123.947 98.2481 123.788 97.892 123.682C97.536 123.576 97.1648 123.523 96.7784 123.523C96.0739 123.523 95.4356 123.701 94.8636 124.057C94.2955 124.413 93.8428 124.938 93.5057 125.631C93.1723 126.324 93.0057 127.174 93.0057 128.182C93.0057 129.189 93.1723 130.04 93.5057 130.733C93.8428 131.426 94.2955 131.951 94.8636 132.307C95.4356 132.663 96.0739 132.841 96.7784 132.841C97.1648 132.841 97.536 132.788 97.892 132.682C98.2481 132.576 98.572 132.419 98.8636 132.21C99.1591 131.998 99.4091 131.739 99.6136 131.432C99.822 131.121 99.9678 130.765 100.051 130.364H101.46C101.354 130.958 101.161 131.491 100.881 131.96C100.6 132.43 100.252 132.83 99.8352 133.159C99.4186 133.485 98.9508 133.733 98.4318 133.903C97.9167 134.074 97.3655 134.159 96.7784 134.159C95.786 134.159 94.9034 133.917 94.1307 133.432C93.358 132.947 92.75 132.258 92.3068 131.364C91.8636 130.47 91.642 129.409 91.642 128.182C91.642 126.955 91.8636 125.894 92.3068 125C92.75 124.106 93.358 123.417 94.1307 122.932C94.9034 122.447 95.786 122.205 96.7784 122.205C97.3655 122.205 97.9167 122.29 98.4318 122.46C98.9508 122.631 99.4186 122.881 99.8352 123.21C100.252 123.536 100.6 123.934 100.881 124.403C101.161 124.869 101.354 125.402 101.46 126ZM103.555 134V125.273H104.851V126.591H104.942C105.101 126.159 105.389 125.809 105.805 125.54C106.222 125.271 106.692 125.136 107.214 125.136C107.313 125.136 107.436 125.138 107.584 125.142C107.732 125.146 107.843 125.152 107.919 125.159V126.523C107.874 126.511 107.769 126.494 107.607 126.472C107.447 126.445 107.279 126.432 107.101 126.432C106.677 126.432 106.298 126.521 105.964 126.699C105.635 126.873 105.374 127.116 105.18 127.426C104.991 127.733 104.896 128.083 104.896 128.477V134H103.555ZM115.009 130.432V125.273H116.349V134H115.009V132.523H114.918C114.713 132.966 114.395 133.343 113.963 133.653C113.531 133.96 112.986 134.114 112.327 134.114C111.781 134.114 111.296 133.994 110.872 133.756C110.448 133.513 110.115 133.15 109.872 132.665C109.63 132.176 109.509 131.561 109.509 130.818V125.273H110.849V130.727C110.849 131.364 111.027 131.871 111.384 132.25C111.743 132.629 112.202 132.818 112.759 132.818C113.092 132.818 113.431 132.733 113.776 132.562C114.124 132.392 114.416 132.131 114.651 131.778C114.889 131.426 115.009 130.977 115.009 130.432ZM118.555 134V132.977L123.51 126.614V126.523H118.714V125.273H125.237V126.341L120.419 132.659V132.75H125.396V134H118.555ZM29 153.864C28.5417 153.864 28.1231 153.752 27.7443 153.528C27.3655 153.301 27.0625 152.998 26.8352 152.619C26.6117 152.241 26.5 151.822 26.5 151.364C26.5 150.902 26.6117 150.483 26.8352 150.108C27.0625 149.729 27.3655 149.428 27.7443 149.205C28.1231 148.977 28.5417 148.864 29 148.864C29.4621 148.864 29.8807 148.977 30.2557 149.205C30.6345 149.428 30.9356 149.729 31.1591 150.108C31.3864 150.483 31.5 150.902 31.5 151.364C31.5 151.822 31.3864 152.241 31.1591 152.619C30.9356 152.998 30.6345 153.301 30.2557 153.528C29.8807 153.752 29.4621 153.864 29 153.864ZM42.4091 156V144.364H46.4773C47.2879 144.364 47.9564 144.504 48.483 144.784C49.0095 145.061 49.4015 145.434 49.6591 145.903C49.9167 146.369 50.0455 146.886 50.0455 147.455C50.0455 147.955 49.9564 148.367 49.7784 148.693C49.6042 149.019 49.3731 149.277 49.0852 149.466C48.8011 149.655 48.4924 149.795 48.1591 149.886V150C48.5152 150.023 48.8731 150.148 49.233 150.375C49.5928 150.602 49.8939 150.928 50.1364 151.352C50.3788 151.777 50.5 152.295 50.5 152.909C50.5 153.492 50.3674 154.017 50.1023 154.483C49.8371 154.949 49.4186 155.318 48.8466 155.591C48.2746 155.864 47.5303 156 46.6136 156H42.4091ZM43.8182 154.75H46.6136C47.5341 154.75 48.1875 154.572 48.5739 154.216C48.964 153.856 49.1591 153.42 49.1591 152.909C49.1591 152.515 49.0587 152.152 48.858 151.818C48.6572 151.481 48.3712 151.212 48 151.011C47.6288 150.807 47.1894 150.705 46.6818 150.705H43.8182V154.75ZM43.8182 149.477H46.4318C46.8561 149.477 47.2386 149.394 47.5795 149.227C47.9242 149.061 48.197 148.826 48.3977 148.523C48.6023 148.22 48.7045 147.864 48.7045 147.455C48.7045 146.943 48.5265 146.509 48.1705 146.153C47.8144 145.794 47.25 145.614 46.4773 145.614H43.8182V149.477ZM55.2017 156.205C54.6487 156.205 54.1468 156.1 53.696 155.892C53.2453 155.68 52.8873 155.375 52.6222 154.977C52.357 154.576 52.2244 154.091 52.2244 153.523C52.2244 153.023 52.3229 152.617 52.5199 152.307C52.7169 151.992 52.9801 151.746 53.3097 151.568C53.6392 151.39 54.0028 151.258 54.4006 151.17C54.8021 151.08 55.2055 151.008 55.6108 150.955C56.1411 150.886 56.571 150.835 56.9006 150.801C57.2339 150.763 57.4763 150.701 57.6278 150.614C57.7831 150.527 57.8608 150.375 57.8608 150.159V150.114C57.8608 149.553 57.7074 149.117 57.4006 148.807C57.0975 148.496 56.6373 148.341 56.0199 148.341C55.3797 148.341 54.8778 148.481 54.5142 148.761C54.1506 149.042 53.8949 149.341 53.7472 149.659L52.4744 149.205C52.7017 148.674 53.0047 148.261 53.3835 147.966C53.7661 147.667 54.1828 147.458 54.6335 147.341C55.0881 147.22 55.535 147.159 55.9744 147.159C56.2547 147.159 56.5767 147.193 56.9403 147.261C57.3078 147.326 57.6619 147.46 58.0028 147.665C58.3475 147.869 58.6335 148.178 58.8608 148.591C59.0881 149.004 59.2017 149.557 59.2017 150.25V156H57.8608V154.818H57.7926C57.7017 155.008 57.5502 155.21 57.3381 155.426C57.1259 155.642 56.8438 155.826 56.4915 155.977C56.1392 156.129 55.7093 156.205 55.2017 156.205ZM55.4062 155C55.9366 155 56.3835 154.896 56.7472 154.688C57.1146 154.479 57.3911 154.21 57.5767 153.881C57.7661 153.551 57.8608 153.205 57.8608 152.841V151.614C57.804 151.682 57.679 151.744 57.4858 151.801C57.2964 151.854 57.0767 151.902 56.8267 151.943C56.5805 151.981 56.34 152.015 56.1051 152.045C55.8741 152.072 55.6866 152.095 55.5426 152.114C55.1941 152.159 54.8684 152.233 54.5653 152.335C54.2661 152.434 54.0237 152.583 53.8381 152.784C53.6563 152.981 53.5653 153.25 53.5653 153.591C53.5653 154.057 53.7377 154.409 54.0824 154.648C54.4309 154.883 54.8722 155 55.4062 155ZM61.6491 147.273H62.9901V156.636C62.9901 157.174 62.8973 157.64 62.7116 158.034C62.5298 158.428 62.2533 158.733 61.8821 158.949C61.5147 159.165 61.0507 159.273 60.4901 159.273C60.4446 159.273 60.3991 159.273 60.3537 159.273C60.3082 159.273 60.2628 159.273 60.2173 159.273V158.023C60.2628 158.023 60.3045 158.023 60.3423 158.023C60.3802 158.023 60.4219 158.023 60.4673 158.023C60.8764 158.023 61.1757 157.902 61.3651 157.659C61.5545 157.42 61.6491 157.08 61.6491 156.636V147.273ZM62.3082 145.818C62.0469 145.818 61.8215 145.729 61.6321 145.551C61.4465 145.373 61.3537 145.159 61.3537 144.909C61.3537 144.659 61.4465 144.445 61.6321 144.267C61.8215 144.089 62.0469 144 62.3082 144C62.5696 144 62.7931 144.089 62.9787 144.267C63.1681 144.445 63.2628 144.659 63.2628 144.909C63.2628 145.159 63.1681 145.373 62.9787 145.551C62.7931 145.729 62.5696 145.818 62.3082 145.818ZM68.0142 156.205C67.4612 156.205 66.9593 156.1 66.5085 155.892C66.0578 155.68 65.6998 155.375 65.4347 154.977C65.1695 154.576 65.0369 154.091 65.0369 153.523C65.0369 153.023 65.1354 152.617 65.3324 152.307C65.5294 151.992 65.7926 151.746 66.1222 151.568C66.4517 151.39 66.8153 151.258 67.2131 151.17C67.6146 151.08 68.018 151.008 68.4233 150.955C68.9536 150.886 69.3835 150.835 69.7131 150.801C70.0464 150.763 70.2888 150.701 70.4403 150.614C70.5956 150.527 70.6733 150.375 70.6733 150.159V150.114C70.6733 149.553 70.5199 149.117 70.2131 148.807C69.91 148.496 69.4498 148.341 68.8324 148.341C68.1922 148.341 67.6903 148.481 67.3267 148.761C66.9631 149.042 66.7074 149.341 66.5597 149.659L65.2869 149.205C65.5142 148.674 65.8172 148.261 66.196 147.966C66.5786 147.667 66.9953 147.458 67.446 147.341C67.9006 147.22 68.3475 147.159 68.7869 147.159C69.0672 147.159 69.3892 147.193 69.7528 147.261C70.1203 147.326 70.4744 147.46 70.8153 147.665C71.16 147.869 71.446 148.178 71.6733 148.591C71.9006 149.004 72.0142 149.557 72.0142 150.25V156H70.6733V154.818H70.6051C70.5142 155.008 70.3627 155.21 70.1506 155.426C69.9384 155.642 69.6563 155.826 69.304 155.977C68.9517 156.129 68.5218 156.205 68.0142 156.205ZM68.2188 155C68.7491 155 69.196 154.896 69.5597 154.688C69.9271 154.479 70.2036 154.21 70.3892 153.881C70.5786 153.551 70.6733 153.205 70.6733 152.841V151.614C70.6165 151.682 70.4915 151.744 70.2983 151.801C70.1089 151.854 69.8892 151.902 69.6392 151.943C69.393 151.981 69.1525 152.015 68.9176 152.045C68.6866 152.072 68.4991 152.095 68.3551 152.114C68.0066 152.159 67.6809 152.233 67.3778 152.335C67.0786 152.434 66.8362 152.583 66.6506 152.784C66.4688 152.981 66.3778 153.25 66.3778 153.591C66.3778 154.057 66.5502 154.409 66.8949 154.648C67.2434 154.883 67.6847 155 68.2188 155ZM88.5071 148H87.098C87.0147 147.595 86.8688 147.239 86.6605 146.932C86.456 146.625 86.206 146.367 85.9105 146.159C85.6188 145.947 85.295 145.788 84.9389 145.682C84.5829 145.576 84.2116 145.523 83.8253 145.523C83.1207 145.523 82.4825 145.701 81.9105 146.057C81.3423 146.413 80.8897 146.938 80.5526 147.631C80.2192 148.324 80.0526 149.174 80.0526 150.182C80.0526 151.189 80.2192 152.04 80.5526 152.733C80.8897 153.426 81.3423 153.951 81.9105 154.307C82.4825 154.663 83.1207 154.841 83.8253 154.841C84.2116 154.841 84.5829 154.788 84.9389 154.682C85.295 154.576 85.6188 154.419 85.9105 154.21C86.206 153.998 86.456 153.739 86.6605 153.432C86.8688 153.121 87.0147 152.765 87.098 152.364H88.5071C88.401 152.958 88.2079 153.491 87.9276 153.96C87.6473 154.43 87.2988 154.83 86.8821 155.159C86.4654 155.485 85.9976 155.733 85.4787 155.903C84.9635 156.074 84.4124 156.159 83.8253 156.159C82.8329 156.159 81.9503 155.917 81.1776 155.432C80.4048 154.947 79.7969 154.258 79.3537 153.364C78.9105 152.47 78.6889 151.409 78.6889 150.182C78.6889 148.955 78.9105 147.894 79.3537 147C79.7969 146.106 80.4048 145.417 81.1776 144.932C81.9503 144.447 82.8329 144.205 83.8253 144.205C84.4124 144.205 84.9635 144.29 85.4787 144.46C85.9976 144.631 86.4654 144.881 86.8821 145.21C87.2988 145.536 87.6473 145.934 87.9276 146.403C88.2079 146.869 88.401 147.402 88.5071 148ZM93.1705 156.205C92.6174 156.205 92.1155 156.1 91.6648 155.892C91.214 155.68 90.8561 155.375 90.5909 154.977C90.3258 154.576 90.1932 154.091 90.1932 153.523C90.1932 153.023 90.2917 152.617 90.4886 152.307C90.6856 151.992 90.9489 151.746 91.2784 151.568C91.608 151.39 91.9716 151.258 92.3693 151.17C92.7708 151.08 93.1742 151.008 93.5795 150.955C94.1098 150.886 94.5398 150.835 94.8693 150.801C95.2027 150.763 95.4451 150.701 95.5966 150.614C95.7519 150.527 95.8295 150.375 95.8295 150.159V150.114C95.8295 149.553 95.6761 149.117 95.3693 148.807C95.0663 148.496 94.6061 148.341 93.9886 148.341C93.3485 148.341 92.8466 148.481 92.483 148.761C92.1193 149.042 91.8636 149.341 91.7159 149.659L90.4432 149.205C90.6705 148.674 90.9735 148.261 91.3523 147.966C91.7348 147.667 92.1515 147.458 92.6023 147.341C93.0568 147.22 93.5038 147.159 93.9432 147.159C94.2235 147.159 94.5455 147.193 94.9091 147.261C95.2765 147.326 95.6307 147.46 95.9716 147.665C96.3163 147.869 96.6023 148.178 96.8295 148.591C97.0568 149.004 97.1705 149.557 97.1705 150.25V156H95.8295V154.818H95.7614C95.6705 155.008 95.5189 155.21 95.3068 155.426C95.0947 155.642 94.8125 155.826 94.4602 155.977C94.108 156.129 93.678 156.205 93.1705 156.205ZM93.375 155C93.9053 155 94.3523 154.896 94.7159 154.688C95.0833 154.479 95.3598 154.21 95.5455 153.881C95.7348 153.551 95.8295 153.205 95.8295 152.841V151.614C95.7727 151.682 95.6477 151.744 95.4545 151.801C95.2652 151.854 95.0455 151.902 94.7955 151.943C94.5492 151.981 94.3087 152.015 94.0739 152.045C93.8428 152.072 93.6553 152.095 93.5114 152.114C93.1629 152.159 92.8371 152.233 92.5341 152.335C92.2348 152.434 91.9924 152.583 91.8068 152.784C91.625 152.981 91.5341 153.25 91.5341 153.591C91.5341 154.057 91.7064 154.409 92.0511 154.648C92.3996 154.883 92.8409 155 93.375 155ZM100.959 144.364V156H99.6179V144.364H100.959ZM103.415 156V147.273H104.756V156H103.415ZM104.097 145.818C103.835 145.818 103.61 145.729 103.42 145.551C103.235 145.373 103.142 145.159 103.142 144.909C103.142 144.659 103.235 144.445 103.42 144.267C103.61 144.089 103.835 144 104.097 144C104.358 144 104.581 144.089 104.767 144.267C104.956 144.445 105.051 144.659 105.051 144.909C105.051 145.159 104.956 145.373 104.767 145.551C104.581 145.729 104.358 145.818 104.097 145.818ZM111.098 147.273V148.409H106.393V147.273H111.098ZM107.803 156V146.068C107.803 145.568 107.92 145.152 108.155 144.818C108.39 144.485 108.695 144.235 109.07 144.068C109.445 143.902 109.84 143.818 110.257 143.818C110.587 143.818 110.856 143.845 111.064 143.898C111.272 143.951 111.428 144 111.53 144.045L111.143 145.205C111.075 145.182 110.981 145.153 110.859 145.119C110.742 145.085 110.587 145.068 110.393 145.068C109.95 145.068 109.63 145.18 109.433 145.403C109.24 145.627 109.143 145.955 109.143 146.386V156H107.803ZM116.163 156.182C115.375 156.182 114.684 155.994 114.089 155.619C113.499 155.244 113.036 154.72 112.703 154.045C112.374 153.371 112.209 152.583 112.209 151.682C112.209 150.773 112.374 149.979 112.703 149.301C113.036 148.623 113.499 148.097 114.089 147.722C114.684 147.347 115.375 147.159 116.163 147.159C116.951 147.159 117.641 147.347 118.232 147.722C118.826 148.097 119.288 148.623 119.618 149.301C119.951 149.979 120.118 150.773 120.118 151.682C120.118 152.583 119.951 153.371 119.618 154.045C119.288 154.72 118.826 155.244 118.232 155.619C117.641 155.994 116.951 156.182 116.163 156.182ZM116.163 154.977C116.762 154.977 117.254 154.824 117.641 154.517C118.027 154.21 118.313 153.807 118.499 153.307C118.684 152.807 118.777 152.265 118.777 151.682C118.777 151.098 118.684 150.555 118.499 150.051C118.313 149.547 118.027 149.14 117.641 148.83C117.254 148.519 116.762 148.364 116.163 148.364C115.565 148.364 115.072 148.519 114.686 148.83C114.3 149.14 114.014 149.547 113.828 150.051C113.643 150.555 113.55 151.098 113.55 151.682C113.55 152.265 113.643 152.807 113.828 153.307C114.014 153.807 114.3 154.21 114.686 154.517C115.072 154.824 115.565 154.977 116.163 154.977ZM122.165 156V147.273H123.46V148.591H123.551C123.71 148.159 123.998 147.809 124.415 147.54C124.831 147.271 125.301 147.136 125.824 147.136C125.922 147.136 126.045 147.138 126.193 147.142C126.341 147.146 126.453 147.152 126.528 147.159V148.523C126.483 148.511 126.379 148.494 126.216 148.472C126.057 148.445 125.888 148.432 125.71 148.432C125.286 148.432 124.907 148.521 124.574 148.699C124.244 148.873 123.983 149.116 123.79 149.426C123.6 149.733 123.506 150.083 123.506 150.477V156H122.165ZM129.459 150.75V156H128.118V147.273H129.413V148.636H129.527C129.732 148.193 130.042 147.837 130.459 147.568C130.875 147.295 131.413 147.159 132.072 147.159C132.663 147.159 133.18 147.28 133.624 147.523C134.067 147.761 134.411 148.125 134.658 148.614C134.904 149.098 135.027 149.712 135.027 150.455V156H133.686V150.545C133.686 149.86 133.508 149.326 133.152 148.943C132.796 148.557 132.307 148.364 131.686 148.364C131.258 148.364 130.875 148.456 130.538 148.642C130.205 148.828 129.942 149.098 129.749 149.455C129.555 149.811 129.459 150.242 129.459 150.75ZM137.477 156V147.273H138.818V156H137.477ZM138.159 145.818C137.898 145.818 137.672 145.729 137.483 145.551C137.297 145.373 137.205 145.159 137.205 144.909C137.205 144.659 137.297 144.445 137.483 144.267C137.672 144.089 137.898 144 138.159 144C138.42 144 138.644 144.089 138.83 144.267C139.019 144.445 139.114 144.659 139.114 144.909C139.114 145.159 139.019 145.373 138.83 145.551C138.644 145.729 138.42 145.818 138.159 145.818ZM143.842 156.205C143.289 156.205 142.787 156.1 142.337 155.892C141.886 155.68 141.528 155.375 141.263 154.977C140.998 154.576 140.865 154.091 140.865 153.523C140.865 153.023 140.964 152.617 141.161 152.307C141.357 151.992 141.621 151.746 141.95 151.568C142.28 151.39 142.643 151.258 143.041 151.17C143.443 151.08 143.846 151.008 144.251 150.955C144.782 150.886 145.212 150.835 145.541 150.801C145.875 150.763 146.117 150.701 146.268 150.614C146.424 150.527 146.501 150.375 146.501 150.159V150.114C146.501 149.553 146.348 149.117 146.041 148.807C145.738 148.496 145.278 148.341 144.661 148.341C144.02 148.341 143.518 148.481 143.155 148.761C142.791 149.042 142.536 149.341 142.388 149.659L141.115 149.205C141.342 148.674 141.645 148.261 142.024 147.966C142.407 147.667 142.823 147.458 143.274 147.341C143.729 147.22 144.176 147.159 144.615 147.159C144.895 147.159 145.217 147.193 145.581 147.261C145.948 147.326 146.303 147.46 146.643 147.665C146.988 147.869 147.274 148.178 147.501 148.591C147.729 149.004 147.842 149.557 147.842 150.25V156H146.501V154.818H146.433C146.342 155.008 146.191 155.21 145.979 155.426C145.767 155.642 145.484 155.826 145.132 155.977C144.78 156.129 144.35 156.205 143.842 156.205ZM144.047 155C144.577 155 145.024 154.896 145.388 154.688C145.755 154.479 146.032 154.21 146.217 153.881C146.407 153.551 146.501 153.205 146.501 152.841V151.614C146.445 151.682 146.32 151.744 146.126 151.801C145.937 151.854 145.717 151.902 145.467 151.943C145.221 151.981 144.981 152.015 144.746 152.045C144.515 152.072 144.327 152.095 144.183 152.114C143.835 152.159 143.509 152.233 143.206 152.335C142.907 152.434 142.664 152.583 142.479 152.784C142.297 152.981 142.206 153.25 142.206 153.591C142.206 154.057 142.378 154.409 142.723 154.648C143.071 154.883 143.513 155 144.047 155ZM29 175.864C28.5417 175.864 28.1231 175.752 27.7443 175.528C27.3655 175.301 27.0625 174.998 26.8352 174.619C26.6117 174.241 26.5 173.822 26.5 173.364C26.5 172.902 26.6117 172.483 26.8352 172.108C27.0625 171.729 27.3655 171.428 27.7443 171.205C28.1231 170.977 28.5417 170.864 29 170.864C29.4621 170.864 29.8807 170.977 30.2557 171.205C30.6345 171.428 30.9356 171.729 31.1591 172.108C31.3864 172.483 31.5 172.902 31.5 173.364C31.5 173.822 31.3864 174.241 31.1591 174.619C30.9356 174.998 30.6345 175.301 30.2557 175.528C29.8807 175.752 29.4621 175.864 29 175.864ZM42.4091 166.364H44.0909L48.0455 176.023H48.1818L52.1364 166.364H53.8182V178H52.5V169.159H52.3864L48.75 178H47.4773L43.8409 169.159H43.7273V178H42.4091V166.364ZM59.0298 178.205C58.4768 178.205 57.9749 178.1 57.5241 177.892C57.0734 177.68 56.7154 177.375 56.4503 176.977C56.1851 176.576 56.0526 176.091 56.0526 175.523C56.0526 175.023 56.151 174.617 56.348 174.307C56.545 173.992 56.8082 173.746 57.1378 173.568C57.4673 173.39 57.831 173.258 58.2287 173.17C58.6302 173.08 59.0336 173.008 59.4389 172.955C59.9692 172.886 60.3991 172.835 60.7287 172.801C61.062 172.763 61.3045 172.701 61.456 172.614C61.6113 172.527 61.6889 172.375 61.6889 172.159V172.114C61.6889 171.553 61.5355 171.117 61.2287 170.807C60.9257 170.496 60.4654 170.341 59.848 170.341C59.2079 170.341 58.706 170.481 58.3423 170.761C57.9787 171.042 57.723 171.341 57.5753 171.659L56.3026 171.205C56.5298 170.674 56.8329 170.261 57.2116 169.966C57.5942 169.667 58.0109 169.458 58.4616 169.341C58.9162 169.22 59.3632 169.159 59.8026 169.159C60.0829 169.159 60.4048 169.193 60.7685 169.261C61.1359 169.326 61.4901 169.46 61.831 169.665C62.1757 169.869 62.4616 170.178 62.6889 170.591C62.9162 171.004 63.0298 171.557 63.0298 172.25V178H61.6889V176.818H61.6207C61.5298 177.008 61.3783 177.21 61.1662 177.426C60.9541 177.642 60.6719 177.826 60.3196 177.977C59.9673 178.129 59.5374 178.205 59.0298 178.205ZM59.2344 177C59.7647 177 60.2116 176.896 60.5753 176.688C60.9427 176.479 61.2192 176.21 61.4048 175.881C61.5942 175.551 61.6889 175.205 61.6889 174.841V173.614C61.6321 173.682 61.5071 173.744 61.3139 173.801C61.1245 173.854 60.9048 173.902 60.6548 173.943C60.4086 173.981 60.1681 174.015 59.9332 174.045C59.7022 174.072 59.5147 174.095 59.3707 174.114C59.0223 174.159 58.6965 174.233 58.3935 174.335C58.0942 174.434 57.8518 174.583 57.6662 174.784C57.4844 174.981 57.3935 175.25 57.3935 175.591C57.3935 176.057 57.5658 176.409 57.9105 176.648C58.259 176.883 58.7003 177 59.2344 177ZM69.2727 169.273V170.409H64.75V169.273H69.2727ZM66.0682 167.182H67.4091V175.5C67.4091 175.879 67.464 176.163 67.5739 176.352C67.6875 176.538 67.8314 176.663 68.0057 176.727C68.1837 176.788 68.3712 176.818 68.5682 176.818C68.7159 176.818 68.8371 176.811 68.9318 176.795C69.0265 176.777 69.1023 176.761 69.1591 176.75L69.4318 177.955C69.3409 177.989 69.214 178.023 69.0511 178.057C68.8883 178.095 68.6818 178.114 68.4318 178.114C68.053 178.114 67.6818 178.032 67.3182 177.869C66.9583 177.706 66.6591 177.458 66.4205 177.125C66.1856 176.792 66.0682 176.371 66.0682 175.864V167.182ZM73.858 178.205C73.3049 178.205 72.803 178.1 72.3523 177.892C71.9015 177.68 71.5436 177.375 71.2784 176.977C71.0133 176.576 70.8807 176.091 70.8807 175.523C70.8807 175.023 70.9792 174.617 71.1761 174.307C71.3731 173.992 71.6364 173.746 71.9659 173.568C72.2955 173.39 72.6591 173.258 73.0568 173.17C73.4583 173.08 73.8617 173.008 74.267 172.955C74.7973 172.886 75.2273 172.835 75.5568 172.801C75.8902 172.763 76.1326 172.701 76.2841 172.614C76.4394 172.527 76.517 172.375 76.517 172.159V172.114C76.517 171.553 76.3636 171.117 76.0568 170.807C75.7538 170.496 75.2936 170.341 74.6761 170.341C74.036 170.341 73.5341 170.481 73.1705 170.761C72.8068 171.042 72.5511 171.341 72.4034 171.659L71.1307 171.205C71.358 170.674 71.661 170.261 72.0398 169.966C72.4223 169.667 72.839 169.458 73.2898 169.341C73.7443 169.22 74.1913 169.159 74.6307 169.159C74.911 169.159 75.233 169.193 75.5966 169.261C75.964 169.326 76.3182 169.46 76.6591 169.665C77.0038 169.869 77.2898 170.178 77.517 170.591C77.7443 171.004 77.858 171.557 77.858 172.25V178H76.517V176.818H76.4489C76.358 177.008 76.2064 177.21 75.9943 177.426C75.7822 177.642 75.5 177.826 75.1477 177.977C74.7955 178.129 74.3655 178.205 73.858 178.205ZM74.0625 177C74.5928 177 75.0398 176.896 75.4034 176.688C75.7708 176.479 76.0473 176.21 76.233 175.881C76.4223 175.551 76.517 175.205 76.517 174.841V173.614C76.4602 173.682 76.3352 173.744 76.142 173.801C75.9527 173.854 75.733 173.902 75.483 173.943C75.2367 173.981 74.9962 174.015 74.7614 174.045C74.5303 174.072 74.3428 174.095 74.1989 174.114C73.8504 174.159 73.5246 174.233 73.2216 174.335C72.9223 174.434 72.6799 174.583 72.4943 174.784C72.3125 174.981 72.2216 175.25 72.2216 175.591C72.2216 176.057 72.3939 176.409 72.7386 176.648C73.0871 176.883 73.5284 177 74.0625 177ZM80.3054 178V169.273H81.6009V170.636H81.7145C81.8963 170.17 82.1899 169.809 82.5952 169.551C83.0005 169.29 83.4872 169.159 84.0554 169.159C84.6312 169.159 85.1103 169.29 85.4929 169.551C85.8793 169.809 86.1804 170.17 86.3963 170.636H86.4872C86.7107 170.186 87.0459 169.828 87.4929 169.562C87.9399 169.294 88.4759 169.159 89.1009 169.159C89.8812 169.159 90.5194 169.403 91.0156 169.892C91.5118 170.377 91.7599 171.133 91.7599 172.159V178H90.419V172.159C90.419 171.515 90.2429 171.055 89.8906 170.778C89.5384 170.502 89.1236 170.364 88.6463 170.364C88.0327 170.364 87.5573 170.549 87.2202 170.92C86.883 171.288 86.7145 171.754 86.7145 172.318V178H85.3509V172.023C85.3509 171.527 85.1899 171.127 84.8679 170.824C84.5459 170.517 84.1312 170.364 83.6236 170.364C83.2751 170.364 82.9493 170.456 82.6463 170.642C82.3471 170.828 82.1046 171.085 81.919 171.415C81.7372 171.741 81.6463 172.117 81.6463 172.545V178H80.3054ZM97.7571 178.182C96.9692 178.182 96.2779 177.994 95.6832 177.619C95.0923 177.244 94.6302 176.72 94.2969 176.045C93.9673 175.371 93.8026 174.583 93.8026 173.682C93.8026 172.773 93.9673 171.979 94.2969 171.301C94.6302 170.623 95.0923 170.097 95.6832 169.722C96.2779 169.347 96.9692 169.159 97.7571 169.159C98.545 169.159 99.2344 169.347 99.8253 169.722C100.42 170.097 100.882 170.623 101.212 171.301C101.545 171.979 101.712 172.773 101.712 173.682C101.712 174.583 101.545 175.371 101.212 176.045C100.882 176.72 100.42 177.244 99.8253 177.619C99.2344 177.994 98.545 178.182 97.7571 178.182ZM97.7571 176.977C98.3556 176.977 98.848 176.824 99.2344 176.517C99.6207 176.21 99.9067 175.807 100.092 175.307C100.278 174.807 100.371 174.265 100.371 173.682C100.371 173.098 100.278 172.555 100.092 172.051C99.9067 171.547 99.6207 171.14 99.2344 170.83C98.848 170.519 98.3556 170.364 97.7571 170.364C97.1586 170.364 96.6662 170.519 96.2798 170.83C95.8935 171.14 95.6075 171.547 95.4219 172.051C95.2363 172.555 95.1435 173.098 95.1435 173.682C95.1435 174.265 95.2363 174.807 95.4219 175.307C95.6075 175.807 95.8935 176.21 96.2798 176.517C96.6662 176.824 97.1586 176.977 97.7571 176.977ZM103.759 178V169.273H105.054V170.591H105.145C105.304 170.159 105.592 169.809 106.009 169.54C106.425 169.271 106.895 169.136 107.418 169.136C107.516 169.136 107.639 169.138 107.787 169.142C107.935 169.146 108.046 169.152 108.122 169.159V170.523C108.077 170.511 107.973 170.494 107.81 170.472C107.651 170.445 107.482 170.432 107.304 170.432C106.88 170.432 106.501 170.521 106.168 170.699C105.838 170.873 105.577 171.116 105.384 171.426C105.194 171.733 105.099 172.083 105.099 172.477V178H103.759ZM112.991 178.182C112.204 178.182 111.512 177.994 110.918 177.619C110.327 177.244 109.865 176.72 109.531 176.045C109.202 175.371 109.037 174.583 109.037 173.682C109.037 172.773 109.202 171.979 109.531 171.301C109.865 170.623 110.327 170.097 110.918 169.722C111.512 169.347 112.204 169.159 112.991 169.159C113.779 169.159 114.469 169.347 115.06 169.722C115.654 170.097 116.116 170.623 116.446 171.301C116.779 171.979 116.946 172.773 116.946 173.682C116.946 174.583 116.779 175.371 116.446 176.045C116.116 176.72 115.654 177.244 115.06 177.619C114.469 177.994 113.779 178.182 112.991 178.182ZM112.991 176.977C113.59 176.977 114.082 176.824 114.469 176.517C114.855 176.21 115.141 175.807 115.327 175.307C115.512 174.807 115.605 174.265 115.605 173.682C115.605 173.098 115.512 172.555 115.327 172.051C115.141 171.547 114.855 171.14 114.469 170.83C114.082 170.519 113.59 170.364 112.991 170.364C112.393 170.364 111.901 170.519 111.514 170.83C111.128 171.14 110.842 171.547 110.656 172.051C110.471 172.555 110.378 173.098 110.378 173.682C110.378 174.265 110.471 174.807 110.656 175.307C110.842 175.807 111.128 176.21 111.514 176.517C111.901 176.824 112.393 176.977 112.991 176.977ZM125.175 171.227L123.97 171.568C123.894 171.367 123.783 171.172 123.635 170.983C123.491 170.79 123.294 170.631 123.044 170.506C122.794 170.381 122.474 170.318 122.084 170.318C121.55 170.318 121.105 170.441 120.749 170.688C120.396 170.93 120.22 171.239 120.22 171.614C120.22 171.947 120.341 172.21 120.584 172.403C120.826 172.597 121.205 172.758 121.72 172.886L123.016 173.205C123.796 173.394 124.377 173.684 124.76 174.074C125.143 174.46 125.334 174.958 125.334 175.568C125.334 176.068 125.19 176.515 124.902 176.909C124.618 177.303 124.22 177.614 123.709 177.841C123.197 178.068 122.603 178.182 121.925 178.182C121.035 178.182 120.298 177.989 119.714 177.602C119.131 177.216 118.762 176.652 118.607 175.909L119.879 175.591C120 176.061 120.23 176.413 120.567 176.648C120.908 176.883 121.353 177 121.902 177C122.527 177 123.023 176.867 123.391 176.602C123.762 176.333 123.947 176.011 123.947 175.636C123.947 175.333 123.841 175.08 123.629 174.875C123.417 174.667 123.091 174.511 122.652 174.409L121.197 174.068C120.398 173.879 119.811 173.585 119.436 173.188C119.065 172.786 118.879 172.284 118.879 171.682C118.879 171.189 119.018 170.754 119.294 170.375C119.574 169.996 119.955 169.699 120.436 169.483C120.921 169.267 121.47 169.159 122.084 169.159C122.947 169.159 123.625 169.348 124.118 169.727C124.614 170.106 124.966 170.606 125.175 171.227Z" fill="#F6F4F3"/>
<circle cx="29" cy="85" r="5" fill="#F6F4F3"/>
<circle cx="29" cy="107" r="5" fill="#F6F4F3"/>
<circle cx="29" cy="129" r="5" fill="#F6F4F3"/>
<circle cx="29" cy="151" r="5" fill="#F6F4F3"/>
<circle cx="29" cy="173" r="5" fill="#F6F4F3"/>
<path d="M65.62 33H70.12V57H65.62V47.25H62.8V57H58.3V33H62.8V42.75H65.62V33ZM82.6019 33V50.46C82.6019 55.29 80.5919 57.3 76.9619 57.3C73.3319 57.3 71.3219 55.29 71.3219 50.46V33H75.8219V50.16C75.8219 52.2 75.9719 52.8 76.9619 52.8C77.9519 52.8 78.1019 52.2 78.1019 50.16V33H82.6019ZM92.4564 44.37C93.9864 45.12 95.1564 46.62 95.1564 49.53V50.76C95.1564 55.23 93.4464 56.97 88.3164 57H83.8164V33H88.3164C93.4464 33 94.8564 34.71 94.8564 39.54V39.75C94.8564 42.39 93.8364 43.68 92.4564 44.37ZM90.3564 39.54C90.3564 37.8 90.0564 37.5 88.3164 37.5V42.39C90.0564 42.39 90.3564 42.09 90.3564 40.35V39.54ZM88.3164 52.5C90.0564 52.5 90.6564 52.2 90.6564 50.46V48.93C90.6564 47.19 90.0564 46.89 88.3164 46.89V52.5ZM103.33 42.66C105.85 44.58 107.65 46.23 107.65 50.76C107.65 54.99 106.06 57.3 102.13 57.3C98.1995 57.3 96.3695 55.59 96.3695 48.66H100.87C100.87 52.2 101.29 52.8 102.13 52.8C102.97 52.8 103.15 52.2 103.15 50.76C103.15 49.02 102.85 48.3 100.87 46.68C98.6795 44.91 96.3695 43.47 96.3695 38.94C96.3695 35.01 98.0195 32.7 101.8 32.7C105.58 32.7 107.35 35.01 107.35 40.14H102.85C102.85 37.8 102.49 37.2 101.8 37.2C101.11 37.2 100.87 37.8 100.87 38.94C100.87 40.68 101.65 41.37 103.33 42.66ZM123.974 33H128.474V57H123.974V46.71L122.114 57H120.014L118.154 46.71V57H113.654V33H118.154L121.064 46.86L123.974 33ZM136.901 57L136.571 52.92H134.201L133.871 57H129.371L132.311 33H138.461L141.401 57H136.901ZM134.561 48.42H136.211L135.401 37.77L134.561 48.42ZM153.645 54.87C153.645 55.77 153.675 56.64 153.975 57H149.475C149.175 56.64 149.145 55.77 149.145 54.87V50.25C149.145 48.51 148.545 48.21 146.805 48.21V57H142.305V33H146.805C151.935 33 153.645 34.71 153.645 39.54V41.67C153.645 44.31 152.835 46.02 151.425 47.04C152.955 47.67 153.645 48.9 153.645 51.15V54.87ZM149.145 39.54C149.145 37.8 148.545 37.5 146.805 37.5V43.71C148.545 43.71 149.145 43.41 149.145 41.67V39.54ZM152.847 30.06L161.097 27.84L161.397 29.01L153.147 31.2L152.847 30.06ZM154.887 33H159.387V57H154.887V33ZM171.265 33V37.5H168.175V57H163.675V37.5H160.585V33H171.265ZM172.464 33H176.964V57H172.464V33ZM188.482 33H192.982V57H188.482V46.71L186.622 57H184.522L182.662 46.71V57H178.162V33H182.662L185.572 46.86L188.482 33ZM199.812 32.7C203.442 32.7 205.452 34.71 205.452 39.54V50.46C205.452 55.29 203.442 57.3 199.812 57.3C196.182 57.3 194.172 55.29 194.172 50.46V39.54C194.172 34.71 196.182 32.7 199.812 32.7ZM200.952 50.16V39.84C200.952 37.8 200.802 37.2 199.812 37.2C198.822 37.2 198.672 37.8 198.672 39.84V50.16C198.672 52.2 198.822 52.8 199.812 52.8C200.802 52.8 200.952 52.2 200.952 50.16ZM213.626 42.66C216.146 44.58 217.946 46.23 217.946 50.76C217.946 54.99 216.356 57.3 212.426 57.3C208.496 57.3 206.666 55.59 206.666 48.66H211.166C211.166 52.2 211.586 52.8 212.426 52.8C213.266 52.8 213.446 52.2 213.446 50.76C213.446 49.02 213.146 48.3 211.166 46.68C208.976 44.91 206.666 43.47 206.666 38.94C206.666 35.01 208.316 32.7 212.096 32.7C215.876 32.7 217.646 35.01 217.646 40.14H213.146C213.146 37.8 212.786 37.2 212.096 37.2C211.406 37.2 211.166 37.8 211.166 38.94C211.166 40.68 211.946 41.37 213.626 42.66Z" fill="#F6F4F3"/>
<path d="M30 31C21.7347 31 15 37.7347 15 46C15 54.2653 21.7347 61 30 61C38.2653 61 45 54.2653 45 46C45 37.7347 38.2653 31 30 31Z" fill="#F6F4F3"/>
<path d="M37.6535 45.8481L36.1229 44.3174H33.0617L28.776 37.4297L27.3984 37.8889L29.3882 41.4093H26.1739C26.1739 41.4093 26.1739 40.1848 25.4086 40.1848C24.9494 40.1848 24.6433 40.797 24.6433 41.4093C24.6433 41.4093 23.2658 41.4093 22.5005 42.6338C21.8882 43.5522 20.3576 46.0011 20.3576 46.0011H16.9902L18.674 51.8175H40.4086L43.3168 45.0827L37.6535 45.8481ZM24.9494 45.0827H23.5718L24.4903 43.7052H24.9494V45.0827ZM26.6331 45.0827H25.4086V43.7052H26.6331V45.0827ZM28.3168 45.0827H26.9392V43.7052H28.3168V45.0827ZM30.0004 45.0827H28.776V43.7052H30.0004V45.0827ZM30.3066 45.0827V43.7052H30.9189L31.8372 45.0827H30.3066Z" fill="#014979"/>
</svg>
