<svg width="221" height="198" viewBox="0 0 221 198" fill="none" xmlns="http://www.w3.org/2000/svg">
<rect width="221" height="198" fill="#E52150"/>
<path d="M32 21C23.7347 21 17 27.7347 17 36C17 44.2653 23.7347 51 32 51C40.2653 51 47 44.2653 47 36C47 27.7347 40.2653 21 32 21Z" fill="#F6F4F3"/>
<path d="M39.6525 28.6536C39.4994 28.6536 39.4994 28.6536 39.6525 28.6536L35.979 34.0107C35.8259 34.1638 35.8259 34.3168 35.979 34.4699L38.8872 44.8781C38.8872 45.1842 38.8871 45.3372 38.581 45.4903L36.7443 46.1025C36.5912 46.2556 36.2851 46.1025 36.1321 45.9495L32.4586 39.3679C32.3055 39.0617 31.8463 39.0617 31.6933 39.3679L30.0096 41.3576C29.8566 41.5107 29.8565 41.6638 29.8565 41.8168L30.928 45.4903C30.928 45.6434 30.928 45.9495 30.7749 45.9495L29.3974 46.8678C29.2443 47.0209 28.9381 47.0209 28.7851 46.7148L26.7953 43.5005C26.7953 43.3474 26.6422 43.3475 26.4892 43.3475L22.5096 42.1229C22.2035 41.9699 22.0504 41.8168 22.2035 41.5107L22.8157 40.1332C22.8157 39.9801 23.1218 39.827 23.2749 39.827H27.4076C27.5606 39.827 27.7137 39.674 27.8667 39.5209L29.0912 37.378C29.2443 37.0719 29.0912 36.7658 28.7851 36.7658L20.979 34.6229C20.8259 34.6229 20.6729 34.3168 20.6729 34.1638V32.4801C20.6729 32.174 20.8259 32.0209 21.132 32.0209H32.4586C32.6116 32.0209 32.7647 32.0209 32.7647 31.8679L36.8974 26.9699C37.2035 26.6638 39.1933 24.9801 39.9586 25.7454C40.5709 26.5107 39.6525 28.3474 39.6525 28.6536Z" fill="#E52150"/>
<path d="M62.62 24H67.12V48H62.62V38.25H59.8V48H55.3V24H59.8V33.75H62.62V24ZM79.6019 24V41.46C79.6019 46.29 77.5919 48.3 73.9619 48.3C70.3319 48.3 68.3219 46.29 68.3219 41.46V24H72.8219V41.16C72.8219 43.2 72.9719 43.8 73.9619 43.8C74.9519 43.8 75.1019 43.2 75.1019 41.16V24H79.6019ZM89.4564 35.37C90.9864 36.12 92.1564 37.62 92.1564 40.53V41.76C92.1564 46.23 90.4464 47.97 85.3164 48H80.8164V24H85.3164C90.4464 24 91.8564 25.71 91.8564 30.54V30.75C91.8564 33.39 90.8364 34.68 89.4564 35.37ZM87.3564 30.54C87.3564 28.8 87.0564 28.5 85.3164 28.5V33.39C87.0564 33.39 87.3564 33.09 87.3564 31.35V30.54ZM85.3164 43.5C87.0564 43.5 87.6564 43.2 87.6564 41.46V39.93C87.6564 38.19 87.0564 37.89 85.3164 37.89V43.5ZM100.33 33.66C102.85 35.58 104.65 37.23 104.65 41.76C104.65 45.99 103.06 48.3 99.1295 48.3C95.1995 48.3 93.3695 46.59 93.3695 39.66H97.8695C97.8695 43.2 98.2895 43.8 99.1295 43.8C99.9695 43.8 100.15 43.2 100.15 41.76C100.15 40.02 99.8495 39.3 97.8695 37.68C95.6795 35.91 93.3695 34.47 93.3695 29.94C93.3695 26.01 95.0195 23.7 98.7995 23.7C102.58 23.7 104.35 26.01 104.35 31.14H99.8495C99.8495 28.8 99.4895 28.2 98.7995 28.2C98.1095 28.2 97.8695 28.8 97.8695 29.94C97.8695 31.68 98.6495 32.37 100.33 33.66ZM118.184 48L117.854 43.92H115.484L115.154 48H110.654L113.594 24H119.744L122.684 48H118.184ZM115.844 39.42H117.494L116.684 28.77L115.844 39.42ZM132.137 20.01L123.887 22.2L123.587 21.06L131.837 18.84L132.137 20.01ZM132.137 24V28.5H128.087V33.75H132.137V38.25H128.087V43.5H132.137V48H123.587V24H132.137ZM144.668 45.87C144.668 46.77 144.698 47.64 144.998 48H140.498C140.198 47.64 140.168 46.77 140.168 45.87V41.25C140.168 39.51 139.568 39.21 137.828 39.21V48H133.328V24H137.828C142.958 24 144.668 25.71 144.668 30.54V32.67C144.668 35.31 143.858 37.02 142.448 38.04C143.978 38.67 144.668 39.9 144.668 42.15V45.87ZM140.168 30.54C140.168 28.8 139.568 28.5 137.828 28.5V34.71C139.568 34.71 140.168 34.41 140.168 32.67V30.54ZM154.461 28.5H150.411V33.75H154.461V38.25H150.411V43.5H154.461V48H145.911V24H154.461V28.5ZM161.291 23.7C164.921 23.7 166.931 25.71 166.931 30.54V41.46C166.931 46.29 164.921 48.3 161.291 48.3C157.661 48.3 155.651 46.29 155.651 41.46V30.54C155.651 25.71 157.661 23.7 161.291 23.7ZM162.431 41.16V30.84C162.431 28.8 162.281 28.2 161.291 28.2C160.301 28.2 160.151 28.8 160.151 30.84V41.16C160.151 43.2 160.301 43.8 161.291 43.8C162.281 43.8 162.431 43.2 162.431 41.16ZM175.106 33.66C177.626 35.58 179.426 37.23 179.426 41.76C179.426 45.99 177.836 48.3 173.906 48.3C169.976 48.3 168.146 46.59 168.146 39.66H172.646C172.646 43.2 173.066 43.8 173.906 43.8C174.746 43.8 174.926 43.2 174.926 41.76C174.926 40.02 174.626 39.3 172.646 37.68C170.456 35.91 168.146 34.47 168.146 29.94C168.146 26.01 169.796 23.7 173.576 23.7C177.356 23.7 179.126 26.01 179.126 31.14H174.626C174.626 28.8 174.266 28.2 173.576 28.2C172.886 28.2 172.646 28.8 172.646 29.94C172.646 31.68 173.426 32.37 175.106 33.66Z" fill="#F6F4F3"/>
<path d="M27 81.8636C26.5417 81.8636 26.1231 81.7519 25.7443 81.5284C25.3655 81.3011 25.0625 80.9981 24.8352 80.6193C24.6117 80.2405 24.5 79.822 24.5 79.3636C24.5 78.9015 24.6117 78.483 24.8352 78.108C25.0625 77.7292 25.3655 77.428 25.7443 77.2045C26.1231 76.9773 26.5417 76.8636 27 76.8636C27.4621 76.8636 27.8807 76.9773 28.2557 77.2045C28.6345 77.428 28.9356 77.7292 29.1591 78.108C29.3864 78.483 29.5 78.9015 29.5 79.3636C29.5 79.822 29.3864 80.2405 29.1591 80.6193C28.9356 80.9981 28.6345 81.3011 28.2557 81.5284C27.8807 81.7519 27.4621 81.8636 27 81.8636ZM40.4091 84V72.3636H44.3409C45.2538 72.3636 46 72.5284 46.5795 72.858C47.1629 73.1837 47.5947 73.625 47.875 74.1818C48.1553 74.7386 48.2955 75.3598 48.2955 76.0455C48.2955 76.7311 48.1553 77.3542 47.875 77.9148C47.5985 78.4754 47.1705 78.9223 46.5909 79.2557C46.0114 79.5852 45.2689 79.75 44.3636 79.75H41.5455V78.5H44.3182C44.9432 78.5 45.4451 78.392 45.8239 78.1761C46.2027 77.9602 46.4773 77.6686 46.6477 77.3011C46.822 76.9299 46.9091 76.5114 46.9091 76.0455C46.9091 75.5795 46.822 75.1629 46.6477 74.7955C46.4773 74.428 46.2008 74.1402 45.8182 73.9318C45.4356 73.7197 44.928 73.6136 44.2955 73.6136H41.8182V84H40.4091ZM55.8835 80.4318V75.2727H57.2244V84H55.8835V82.5227H55.7926C55.5881 82.9659 55.2699 83.3428 54.8381 83.6534C54.4063 83.9602 53.8608 84.1136 53.2017 84.1136C52.6562 84.1136 52.1714 83.9943 51.7472 83.7557C51.3229 83.5133 50.9896 83.1496 50.7472 82.6648C50.5047 82.1761 50.3835 81.5606 50.3835 80.8182V75.2727H51.7244V80.7273C51.7244 81.3636 51.9025 81.8712 52.2585 82.25C52.6184 82.6288 53.0767 82.8182 53.6335 82.8182C53.9669 82.8182 54.3059 82.733 54.6506 82.5625C54.9991 82.392 55.2907 82.1307 55.5256 81.7784C55.7642 81.4261 55.8835 80.9773 55.8835 80.4318ZM61.0213 78.75V84H59.6804V75.2727H60.9759V76.6364H61.0895C61.294 76.1932 61.6046 75.8371 62.0213 75.5682C62.438 75.2955 62.9759 75.1591 63.6349 75.1591C64.2259 75.1591 64.7429 75.2803 65.1861 75.5227C65.6293 75.7614 65.974 76.125 66.2202 76.6136C66.4664 77.0985 66.5895 77.7121 66.5895 78.4545V84H65.2486V78.5455C65.2486 77.8598 65.0705 77.3258 64.7145 76.9432C64.3584 76.5568 63.8698 76.3636 63.2486 76.3636C62.8205 76.3636 62.438 76.4564 62.1009 76.642C61.7675 76.8277 61.5043 77.0985 61.3111 77.4545C61.1179 77.8106 61.0213 78.2424 61.0213 78.75ZM72.8352 75.2727V76.4091H68.3125V75.2727H72.8352ZM69.6307 73.1818H70.9716V81.5C70.9716 81.8788 71.0265 82.1629 71.1364 82.3523C71.25 82.5379 71.3939 82.6629 71.5682 82.7273C71.7462 82.7879 71.9337 82.8182 72.1307 82.8182C72.2784 82.8182 72.3996 82.8106 72.4943 82.7955C72.589 82.7765 72.6648 82.7614 72.7216 82.75L72.9943 83.9545C72.9034 83.9886 72.7765 84.0227 72.6136 84.0568C72.4508 84.0947 72.2443 84.1136 71.9943 84.1136C71.6155 84.1136 71.2443 84.0322 70.8807 83.8693C70.5208 83.7064 70.2216 83.4583 69.983 83.125C69.7481 82.7917 69.6307 82.3712 69.6307 81.8636V73.1818ZM77.4205 84.2045C76.8674 84.2045 76.3655 84.1004 75.9148 83.892C75.464 83.6799 75.1061 83.375 74.8409 82.9773C74.5758 82.5758 74.4432 82.0909 74.4432 81.5227C74.4432 81.0227 74.5417 80.6174 74.7386 80.3068C74.9356 79.9924 75.1989 79.7462 75.5284 79.5682C75.858 79.3902 76.2216 79.2576 76.6193 79.1705C77.0208 79.0795 77.4242 79.0076 77.8295 78.9545C78.3598 78.8864 78.7898 78.8352 79.1193 78.8011C79.4527 78.7633 79.6951 78.7008 79.8466 78.6136C80.0019 78.5265 80.0795 78.375 80.0795 78.1591V78.1136C80.0795 77.553 79.9261 77.1174 79.6193 76.8068C79.3163 76.4962 78.8561 76.3409 78.2386 76.3409C77.5985 76.3409 77.0966 76.4811 76.733 76.7614C76.3693 77.0417 76.1136 77.3409 75.9659 77.6591L74.6932 77.2045C74.9205 76.6742 75.2235 76.2614 75.6023 75.9659C75.9848 75.6667 76.4015 75.4583 76.8523 75.3409C77.3068 75.2197 77.7538 75.1591 78.1932 75.1591C78.4735 75.1591 78.7955 75.1932 79.1591 75.2614C79.5265 75.3258 79.8807 75.4602 80.2216 75.6648C80.5663 75.8693 80.8523 76.178 81.0795 76.5909C81.3068 77.0038 81.4205 77.5568 81.4205 78.25V84H80.0795V82.8182H80.0114C79.9205 83.0076 79.7689 83.2102 79.5568 83.4261C79.3447 83.642 79.0625 83.8258 78.7102 83.9773C78.358 84.1288 77.928 84.2045 77.4205 84.2045ZM77.625 83C78.1553 83 78.6023 82.8958 78.9659 82.6875C79.3333 82.4792 79.6098 82.2102 79.7955 81.8807C79.9848 81.5511 80.0795 81.2045 80.0795 80.8409V79.6136C80.0227 79.6818 79.8977 79.7443 79.7045 79.8011C79.5152 79.8542 79.2955 79.9015 79.0455 79.9432C78.7992 79.9811 78.5587 80.0152 78.3239 80.0455C78.0928 80.072 77.9053 80.0947 77.7614 80.1136C77.4129 80.1591 77.0871 80.233 76.7841 80.3352C76.4848 80.4337 76.2424 80.5833 76.0568 80.7841C75.875 80.9811 75.7841 81.25 75.7841 81.5909C75.7841 82.0568 75.9564 82.4091 76.3011 82.6477C76.6496 82.8826 77.0909 83 77.625 83ZM97.9134 76H96.5043C96.4209 75.5947 96.2751 75.2386 96.0668 74.9318C95.8622 74.625 95.6122 74.3674 95.3168 74.1591C95.0251 73.947 94.7012 73.7879 94.3452 73.6818C93.9891 73.5758 93.6179 73.5227 93.2315 73.5227C92.527 73.5227 91.8887 73.7008 91.3168 74.0568C90.7486 74.4129 90.2959 74.9375 89.9588 75.6307C89.6255 76.3239 89.4588 77.1742 89.4588 78.1818C89.4588 79.1894 89.6255 80.0398 89.9588 80.733C90.2959 81.4261 90.7486 81.9508 91.3168 82.3068C91.8887 82.6629 92.527 82.8409 93.2315 82.8409C93.6179 82.8409 93.9891 82.7879 94.3452 82.6818C94.7012 82.5758 95.0251 82.4186 95.3168 82.2102C95.6122 81.9981 95.8622 81.7386 96.0668 81.4318C96.2751 81.1212 96.4209 80.7652 96.5043 80.3636H97.9134C97.8073 80.9583 97.6141 81.4905 97.3338 81.9602C97.0535 82.4299 96.705 82.8295 96.2884 83.1591C95.8717 83.4848 95.4039 83.733 94.8849 83.9034C94.3698 84.0739 93.8187 84.1591 93.2315 84.1591C92.2391 84.1591 91.3565 83.9167 90.5838 83.4318C89.8111 82.947 89.2031 82.2576 88.7599 81.3636C88.3168 80.4697 88.0952 79.4091 88.0952 78.1818C88.0952 76.9545 88.3168 75.8939 88.7599 75C89.2031 74.1061 89.8111 73.4167 90.5838 72.9318C91.3565 72.447 92.2391 72.2045 93.2315 72.2045C93.8187 72.2045 94.3698 72.2898 94.8849 72.4602C95.4039 72.6307 95.8717 72.8807 96.2884 73.2102C96.705 73.536 97.0535 73.9337 97.3338 74.4034C97.6141 74.8693 97.8073 75.4015 97.9134 76ZM102.577 84.2045C102.024 84.2045 101.522 84.1004 101.071 83.892C100.62 83.6799 100.262 83.375 99.9972 82.9773C99.732 82.5758 99.5994 82.0909 99.5994 81.5227C99.5994 81.0227 99.6979 80.6174 99.8949 80.3068C100.092 79.9924 100.355 79.7462 100.685 79.5682C101.014 79.3902 101.378 79.2576 101.776 79.1705C102.177 79.0795 102.58 79.0076 102.986 78.9545C103.516 78.8864 103.946 78.8352 104.276 78.8011C104.609 78.7633 104.851 78.7008 105.003 78.6136C105.158 78.5265 105.236 78.375 105.236 78.1591V78.1136C105.236 77.553 105.082 77.1174 104.776 76.8068C104.473 76.4962 104.012 76.3409 103.395 76.3409C102.755 76.3409 102.253 76.4811 101.889 76.7614C101.526 77.0417 101.27 77.3409 101.122 77.6591L99.8494 77.2045C100.077 76.6742 100.38 76.2614 100.759 75.9659C101.141 75.6667 101.558 75.4583 102.009 75.3409C102.463 75.2197 102.91 75.1591 103.349 75.1591C103.63 75.1591 103.952 75.1932 104.315 75.2614C104.683 75.3258 105.037 75.4602 105.378 75.6648C105.723 75.8693 106.009 76.178 106.236 76.5909C106.463 77.0038 106.577 77.5568 106.577 78.25V84H105.236V82.8182H105.168C105.077 83.0076 104.925 83.2102 104.713 83.4261C104.501 83.642 104.219 83.8258 103.866 83.9773C103.514 84.1288 103.084 84.2045 102.577 84.2045ZM102.781 83C103.312 83 103.759 82.8958 104.122 82.6875C104.49 82.4792 104.766 82.2102 104.952 81.8807C105.141 81.5511 105.236 81.2045 105.236 80.8409V79.6136C105.179 79.6818 105.054 79.7443 104.861 79.8011C104.671 79.8542 104.452 79.9015 104.202 79.9432C103.955 79.9811 103.715 80.0152 103.48 80.0455C103.249 80.072 103.062 80.0947 102.918 80.1136C102.569 80.1591 102.243 80.233 101.94 80.3352C101.641 80.4337 101.399 80.5833 101.213 80.7841C101.031 80.9811 100.94 81.25 100.94 81.5909C100.94 82.0568 101.113 82.4091 101.457 82.6477C101.806 82.8826 102.247 83 102.781 83ZM110.365 78.75V84H109.024V75.2727H110.32V76.6364H110.433C110.638 76.1932 110.948 75.8371 111.365 75.5682C111.782 75.2955 112.32 75.1591 112.979 75.1591C113.57 75.1591 114.087 75.2803 114.53 75.5227C114.973 75.7614 115.318 76.125 115.564 76.6136C115.81 77.0985 115.933 77.7121 115.933 78.4545V84H114.592V78.5455C114.592 77.8598 114.414 77.3258 114.058 76.9432C113.702 76.5568 113.214 76.3636 112.592 76.3636C112.164 76.3636 111.782 76.4564 111.445 76.642C111.111 76.8277 110.848 77.0985 110.655 77.4545C110.462 77.8106 110.365 78.2424 110.365 78.75ZM120.952 84.2045C120.399 84.2045 119.897 84.1004 119.446 83.892C118.995 83.6799 118.637 83.375 118.372 82.9773C118.107 82.5758 117.974 82.0909 117.974 81.5227C117.974 81.0227 118.073 80.6174 118.27 80.3068C118.467 79.9924 118.73 79.7462 119.06 79.5682C119.389 79.3902 119.753 79.2576 120.151 79.1705C120.552 79.0795 120.955 79.0076 121.361 78.9545C121.891 78.8864 122.321 78.8352 122.651 78.8011C122.984 78.7633 123.226 78.7008 123.378 78.6136C123.533 78.5265 123.611 78.375 123.611 78.1591V78.1136C123.611 77.553 123.457 77.1174 123.151 76.8068C122.848 76.4962 122.387 76.3409 121.77 76.3409C121.13 76.3409 120.628 76.4811 120.264 76.7614C119.901 77.0417 119.645 77.3409 119.497 77.6591L118.224 77.2045C118.452 76.6742 118.755 76.2614 119.134 75.9659C119.516 75.6667 119.933 75.4583 120.384 75.3409C120.838 75.2197 121.285 75.1591 121.724 75.1591C122.005 75.1591 122.327 75.1932 122.69 75.2614C123.058 75.3258 123.412 75.4602 123.753 75.6648C124.098 75.8693 124.384 76.178 124.611 76.5909C124.838 77.0038 124.952 77.5568 124.952 78.25V84H123.611V82.8182H123.543C123.452 83.0076 123.3 83.2102 123.088 83.4261C122.876 83.642 122.594 83.8258 122.241 83.9773C121.889 84.1288 121.459 84.2045 120.952 84.2045ZM121.156 83C121.687 83 122.134 82.8958 122.497 82.6875C122.865 82.4792 123.141 82.2102 123.327 81.8807C123.516 81.5511 123.611 81.2045 123.611 80.8409V79.6136C123.554 79.6818 123.429 79.7443 123.236 79.8011C123.046 79.8542 122.827 79.9015 122.577 79.9432C122.33 79.9811 122.09 80.0152 121.855 80.0455C121.624 80.072 121.437 80.0947 121.293 80.1136C120.944 80.1591 120.618 80.233 120.315 80.3352C120.016 80.4337 119.774 80.5833 119.588 80.7841C119.406 80.9811 119.315 81.25 119.315 81.5909C119.315 82.0568 119.488 82.4091 119.832 82.6477C120.181 82.8826 120.622 83 121.156 83ZM27 103.864C26.5417 103.864 26.1231 103.752 25.7443 103.528C25.3655 103.301 25.0625 102.998 24.8352 102.619C24.6117 102.241 24.5 101.822 24.5 101.364C24.5 100.902 24.6117 100.483 24.8352 100.108C25.0625 99.7292 25.3655 99.428 25.7443 99.2045C26.1231 98.9773 26.5417 98.8636 27 98.8636C27.4621 98.8636 27.8807 98.9773 28.2557 99.2045C28.6345 99.428 28.9356 99.7292 29.1591 100.108C29.3864 100.483 29.5 100.902 29.5 101.364C29.5 101.822 29.3864 102.241 29.1591 102.619C28.9356 102.998 28.6345 103.301 28.2557 103.528C27.8807 103.752 27.4621 103.864 27 103.864ZM46.7727 97.2727C46.7045 96.697 46.428 96.25 45.9432 95.9318C45.4583 95.6136 44.8636 95.4545 44.1591 95.4545C43.6439 95.4545 43.1932 95.5379 42.8068 95.7045C42.4242 95.8712 42.125 96.1004 41.9091 96.392C41.697 96.6837 41.5909 97.0152 41.5909 97.3864C41.5909 97.697 41.6648 97.964 41.8125 98.1875C41.964 98.4072 42.1572 98.5909 42.392 98.7386C42.6269 98.8826 42.8731 99.0019 43.1307 99.0966C43.3883 99.1875 43.625 99.2614 43.8409 99.3182L45.0227 99.6364C45.3258 99.7159 45.6629 99.8258 46.0341 99.9659C46.4091 100.106 46.767 100.297 47.108 100.54C47.4527 100.778 47.7367 101.085 47.9602 101.46C48.1837 101.835 48.2955 102.295 48.2955 102.841C48.2955 103.47 48.1307 104.038 47.8011 104.545C47.4754 105.053 46.9981 105.456 46.3693 105.756C45.7443 106.055 44.9848 106.205 44.0909 106.205C43.2576 106.205 42.536 106.07 41.9261 105.801C41.3201 105.532 40.8428 105.157 40.4943 104.676C40.1496 104.195 39.9545 103.636 39.9091 103H41.3636C41.4015 103.439 41.5492 103.803 41.8068 104.091C42.0682 104.375 42.3977 104.587 42.7955 104.727C43.197 104.864 43.6288 104.932 44.0909 104.932C44.6288 104.932 45.1117 104.845 45.5398 104.67C45.9678 104.492 46.3068 104.246 46.5568 103.932C46.8068 103.614 46.9318 103.242 46.9318 102.818C46.9318 102.432 46.8239 102.117 46.608 101.875C46.392 101.633 46.108 101.436 45.7557 101.284C45.4034 101.133 45.0227 101 44.6136 100.886L43.1818 100.477C42.2727 100.216 41.553 99.8428 41.0227 99.358C40.4924 98.8731 40.2273 98.2386 40.2273 97.4545C40.2273 96.803 40.4034 96.2348 40.7557 95.75C41.1117 95.2614 41.589 94.8826 42.1875 94.6136C42.7898 94.3409 43.4621 94.2045 44.2045 94.2045C44.9545 94.2045 45.6212 94.339 46.2045 94.608C46.7879 94.8731 47.25 95.2367 47.5909 95.6989C47.9356 96.161 48.1174 96.6856 48.1364 97.2727H46.7727ZM52.9986 106.205C52.4455 106.205 51.9437 106.1 51.4929 105.892C51.0421 105.68 50.6842 105.375 50.419 104.977C50.1539 104.576 50.0213 104.091 50.0213 103.523C50.0213 103.023 50.1198 102.617 50.3168 102.307C50.5137 101.992 50.777 101.746 51.1065 101.568C51.4361 101.39 51.7997 101.258 52.1974 101.17C52.599 101.08 53.0024 101.008 53.4077 100.955C53.938 100.886 54.3679 100.835 54.6974 100.801C55.0308 100.763 55.2732 100.701 55.4247 100.614C55.58 100.527 55.6577 100.375 55.6577 100.159V100.114C55.6577 99.553 55.5043 99.1174 55.1974 98.8068C54.8944 98.4962 54.4342 98.3409 53.8168 98.3409C53.1766 98.3409 52.6747 98.4811 52.3111 98.7614C51.9474 99.0417 51.6918 99.3409 51.544 99.6591L50.2713 99.2045C50.4986 98.6742 50.8016 98.2614 51.1804 97.9659C51.563 97.6667 51.9796 97.4583 52.4304 97.3409C52.8849 97.2197 53.3319 97.1591 53.7713 97.1591C54.0516 97.1591 54.3736 97.1932 54.7372 97.2614C55.1046 97.3258 55.4588 97.4602 55.7997 97.6648C56.1444 97.8693 56.4304 98.178 56.6577 98.5909C56.8849 99.0038 56.9986 99.5568 56.9986 100.25V106H55.6577V104.818H55.5895C55.4986 105.008 55.3471 105.21 55.1349 105.426C54.9228 105.642 54.6406 105.826 54.2884 105.977C53.9361 106.129 53.5062 106.205 52.9986 106.205ZM53.2031 105C53.7334 105 54.1804 104.896 54.544 104.688C54.9115 104.479 55.188 104.21 55.3736 103.881C55.563 103.551 55.6577 103.205 55.6577 102.841V101.614C55.6009 101.682 55.4759 101.744 55.2827 101.801C55.0933 101.854 54.8736 101.902 54.6236 101.943C54.3774 101.981 54.1368 102.015 53.902 102.045C53.6709 102.072 53.4834 102.095 53.3395 102.114C52.991 102.159 52.6652 102.233 52.3622 102.335C52.063 102.434 51.8205 102.583 51.6349 102.784C51.4531 102.981 51.3622 103.25 51.3622 103.591C51.3622 104.057 51.5346 104.409 51.8793 104.648C52.2277 104.883 52.669 105 53.2031 105ZM60.7869 100.75V106H59.446V97.2727H60.7415V98.6364H60.8551C61.0597 98.1932 61.3703 97.8371 61.7869 97.5682C62.2036 97.2955 62.7415 97.1591 63.4006 97.1591C63.9915 97.1591 64.5085 97.2803 64.9517 97.5227C65.3949 97.7614 65.7396 98.125 65.9858 98.6136C66.232 99.0985 66.3551 99.7121 66.3551 100.455V106H65.0142V100.545C65.0142 99.8598 64.8362 99.3258 64.4801 98.9432C64.1241 98.5568 63.6354 98.3636 63.0142 98.3636C62.5862 98.3636 62.2036 98.4564 61.8665 98.642C61.5331 98.8277 61.2699 99.0985 61.0767 99.4545C60.8835 99.8106 60.7869 100.242 60.7869 100.75ZM72.6009 97.2727V98.4091H68.0781V97.2727H72.6009ZM69.3963 95.1818H70.7372V103.5C70.7372 103.879 70.7921 104.163 70.902 104.352C71.0156 104.538 71.1596 104.663 71.3338 104.727C71.5118 104.788 71.6993 104.818 71.8963 104.818C72.044 104.818 72.1652 104.811 72.2599 104.795C72.3546 104.777 72.4304 104.761 72.4872 104.75L72.7599 105.955C72.669 105.989 72.5421 106.023 72.3793 106.057C72.2164 106.095 72.0099 106.114 71.7599 106.114C71.3812 106.114 71.0099 106.032 70.6463 105.869C70.2865 105.706 69.9872 105.458 69.7486 105.125C69.5137 104.792 69.3963 104.371 69.3963 103.864V95.1818ZM78.0696 106.182C77.2817 106.182 76.5904 105.994 75.9957 105.619C75.4048 105.244 74.9427 104.72 74.6094 104.045C74.2798 103.371 74.1151 102.583 74.1151 101.682C74.1151 100.773 74.2798 99.9792 74.6094 99.3011C74.9427 98.6231 75.4048 98.0966 75.9957 97.7216C76.5904 97.3466 77.2817 97.1591 78.0696 97.1591C78.8575 97.1591 79.5469 97.3466 80.1378 97.7216C80.7325 98.0966 81.1946 98.6231 81.5241 99.3011C81.8575 99.9792 82.0241 100.773 82.0241 101.682C82.0241 102.583 81.8575 103.371 81.5241 104.045C81.1946 104.72 80.7325 105.244 80.1378 105.619C79.5469 105.994 78.8575 106.182 78.0696 106.182ZM78.0696 104.977C78.6681 104.977 79.1605 104.824 79.5469 104.517C79.9332 104.21 80.2192 103.807 80.4048 103.307C80.5904 102.807 80.6832 102.265 80.6832 101.682C80.6832 101.098 80.5904 100.555 80.4048 100.051C80.2192 99.5473 79.9332 99.1402 79.5469 98.8295C79.1605 98.5189 78.6681 98.3636 78.0696 98.3636C77.4711 98.3636 76.9787 98.5189 76.5923 98.8295C76.206 99.1402 75.92 99.5473 75.7344 100.051C75.5488 100.555 75.456 101.098 75.456 101.682C75.456 102.265 75.5488 102.807 75.7344 103.307C75.92 103.807 76.206 104.21 76.5923 104.517C76.9787 104.824 77.4711 104.977 78.0696 104.977ZM92.3438 106H88.7528V94.3636H92.5028C93.6316 94.3636 94.5975 94.5966 95.4006 95.0625C96.2036 95.5246 96.8191 96.1894 97.2472 97.0568C97.6752 97.9205 97.8892 98.9545 97.8892 100.159C97.8892 101.371 97.6733 102.415 97.2415 103.29C96.8097 104.161 96.1809 104.831 95.3551 105.301C94.5294 105.767 93.5256 106 92.3438 106ZM90.1619 104.75H92.2528C93.215 104.75 94.0123 104.564 94.6449 104.193C95.2775 103.822 95.7491 103.294 96.0597 102.608C96.3703 101.922 96.5256 101.106 96.5256 100.159C96.5256 99.2197 96.3722 98.411 96.0653 97.733C95.7585 97.0511 95.3002 96.5284 94.6903 96.1648C94.0805 95.7973 93.321 95.6136 92.4119 95.6136H90.1619V104.75ZM103.616 106.182C102.829 106.182 102.137 105.994 101.543 105.619C100.952 105.244 100.49 104.72 100.156 104.045C99.8267 103.371 99.6619 102.583 99.6619 101.682C99.6619 100.773 99.8267 99.9792 100.156 99.3011C100.49 98.6231 100.952 98.0966 101.543 97.7216C102.137 97.3466 102.829 97.1591 103.616 97.1591C104.404 97.1591 105.094 97.3466 105.685 97.7216C106.279 98.0966 106.741 98.6231 107.071 99.3011C107.404 99.9792 107.571 100.773 107.571 101.682C107.571 102.583 107.404 103.371 107.071 104.045C106.741 104.72 106.279 105.244 105.685 105.619C105.094 105.994 104.404 106.182 103.616 106.182ZM103.616 104.977C104.215 104.977 104.707 104.824 105.094 104.517C105.48 104.21 105.766 103.807 105.952 103.307C106.137 102.807 106.23 102.265 106.23 101.682C106.23 101.098 106.137 100.555 105.952 100.051C105.766 99.5473 105.48 99.1402 105.094 98.8295C104.707 98.5189 104.215 98.3636 103.616 98.3636C103.018 98.3636 102.526 98.5189 102.139 98.8295C101.753 99.1402 101.467 99.5473 101.281 100.051C101.096 100.555 101.003 101.098 101.003 101.682C101.003 102.265 101.096 102.807 101.281 103.307C101.467 103.807 101.753 104.21 102.139 104.517C102.526 104.824 103.018 104.977 103.616 104.977ZM109.618 106V97.2727H110.913V98.6364H111.027C111.209 98.1705 111.502 97.8087 111.908 97.5511C112.313 97.2898 112.8 97.1591 113.368 97.1591C113.944 97.1591 114.423 97.2898 114.805 97.5511C115.192 97.8087 115.493 98.1705 115.709 98.6364H115.8C116.023 98.1856 116.358 97.8277 116.805 97.5625C117.252 97.2936 117.788 97.1591 118.413 97.1591C119.194 97.1591 119.832 97.4034 120.328 97.892C120.824 98.3769 121.072 99.1326 121.072 100.159V106H119.732V100.159C119.732 99.5152 119.555 99.0549 119.203 98.7784C118.851 98.5019 118.436 98.3636 117.959 98.3636C117.345 98.3636 116.87 98.5492 116.533 98.9205C116.196 99.2879 116.027 99.7538 116.027 100.318V106H114.663V100.023C114.663 99.5265 114.502 99.1269 114.18 98.8239C113.858 98.517 113.444 98.3636 112.936 98.3636C112.588 98.3636 112.262 98.4564 111.959 98.642C111.66 98.8277 111.417 99.0852 111.232 99.4148C111.05 99.7405 110.959 100.117 110.959 100.545V106H109.618ZM123.524 106V97.2727H124.865V106H123.524ZM124.206 95.8182C123.945 95.8182 123.719 95.7292 123.53 95.5511C123.344 95.3731 123.251 95.1591 123.251 94.9091C123.251 94.6591 123.344 94.4451 123.53 94.267C123.719 94.089 123.945 94 124.206 94C124.467 94 124.691 94.089 124.876 94.267C125.066 94.4451 125.161 94.6591 125.161 94.9091C125.161 95.1591 125.066 95.3731 124.876 95.5511C124.691 95.7292 124.467 95.8182 124.206 95.8182ZM128.662 100.75V106H127.321V97.2727H128.616V98.6364H128.73C128.935 98.1932 129.245 97.8371 129.662 97.5682C130.079 97.2955 130.616 97.1591 131.276 97.1591C131.866 97.1591 132.384 97.2803 132.827 97.5227C133.27 97.7614 133.615 98.125 133.861 98.6136C134.107 99.0985 134.23 99.7121 134.23 100.455V106H132.889V100.545C132.889 99.8598 132.711 99.3258 132.355 98.9432C131.999 98.5568 131.51 98.3636 130.889 98.3636C130.461 98.3636 130.079 98.4564 129.741 98.642C129.408 98.8277 129.145 99.0985 128.952 99.4545C128.759 99.8106 128.662 100.242 128.662 100.75ZM140.203 109.455C139.555 109.455 138.999 109.371 138.533 109.205C138.067 109.042 137.679 108.826 137.368 108.557C137.061 108.292 136.817 108.008 136.635 107.705L137.703 106.955C137.824 107.114 137.978 107.295 138.163 107.5C138.349 107.708 138.603 107.888 138.925 108.04C139.25 108.195 139.677 108.273 140.203 108.273C140.908 108.273 141.489 108.102 141.947 107.761C142.406 107.42 142.635 106.886 142.635 106.159V104.386H142.521C142.423 104.545 142.283 104.742 142.101 104.977C141.923 105.208 141.665 105.415 141.328 105.597C140.995 105.775 140.544 105.864 139.976 105.864C139.271 105.864 138.639 105.697 138.078 105.364C137.521 105.03 137.08 104.545 136.754 103.909C136.432 103.273 136.271 102.5 136.271 101.591C136.271 100.697 136.429 99.9186 136.743 99.2557C137.057 98.589 137.495 98.0739 138.055 97.7102C138.616 97.3428 139.264 97.1591 139.999 97.1591C140.567 97.1591 141.018 97.2538 141.351 97.4432C141.688 97.6288 141.946 97.8409 142.124 98.0795C142.305 98.3144 142.446 98.5076 142.544 98.6591H142.68V97.2727H143.976V106.25C143.976 107 143.805 107.61 143.464 108.08C143.127 108.553 142.673 108.9 142.101 109.119C141.533 109.343 140.9 109.455 140.203 109.455ZM140.158 104.659C140.696 104.659 141.15 104.536 141.521 104.29C141.893 104.044 142.175 103.689 142.368 103.227C142.561 102.765 142.658 102.212 142.658 101.568C142.658 100.939 142.563 100.384 142.374 99.9034C142.184 99.4223 141.904 99.0455 141.533 98.7727C141.161 98.5 140.703 98.3636 140.158 98.3636C139.589 98.3636 139.116 98.5076 138.737 98.7955C138.362 99.0833 138.08 99.4697 137.891 99.9545C137.705 100.439 137.612 100.977 137.612 101.568C137.612 102.174 137.707 102.71 137.896 103.176C138.089 103.638 138.374 104.002 138.749 104.267C139.127 104.528 139.597 104.659 140.158 104.659ZM149.976 106.182C149.188 106.182 148.497 105.994 147.902 105.619C147.311 105.244 146.849 104.72 146.516 104.045C146.186 103.371 146.021 102.583 146.021 101.682C146.021 100.773 146.186 99.9792 146.516 99.3011C146.849 98.6231 147.311 98.0966 147.902 97.7216C148.497 97.3466 149.188 97.1591 149.976 97.1591C150.764 97.1591 151.453 97.3466 152.044 97.7216C152.639 98.0966 153.101 98.6231 153.43 99.3011C153.764 99.9792 153.93 100.773 153.93 101.682C153.93 102.583 153.764 103.371 153.43 104.045C153.101 104.72 152.639 105.244 152.044 105.619C151.453 105.994 150.764 106.182 149.976 106.182ZM149.976 104.977C150.574 104.977 151.067 104.824 151.453 104.517C151.839 104.21 152.125 103.807 152.311 103.307C152.497 102.807 152.589 102.265 152.589 101.682C152.589 101.098 152.497 100.555 152.311 100.051C152.125 99.5473 151.839 99.1402 151.453 98.8295C151.067 98.5189 150.574 98.3636 149.976 98.3636C149.377 98.3636 148.885 98.5189 148.499 98.8295C148.112 99.1402 147.826 99.5473 147.641 100.051C147.455 100.555 147.362 101.098 147.362 101.682C147.362 102.265 147.455 102.807 147.641 103.307C147.826 103.807 148.112 104.21 148.499 104.517C148.885 104.824 149.377 104.977 149.976 104.977ZM27 125.864C26.5417 125.864 26.1231 125.752 25.7443 125.528C25.3655 125.301 25.0625 124.998 24.8352 124.619C24.6117 124.241 24.5 123.822 24.5 123.364C24.5 122.902 24.6117 122.483 24.8352 122.108C25.0625 121.729 25.3655 121.428 25.7443 121.205C26.1231 120.977 26.5417 120.864 27 120.864C27.4621 120.864 27.8807 120.977 28.2557 121.205C28.6345 121.428 28.9356 121.729 29.1591 122.108C29.3864 122.483 29.5 122.902 29.5 123.364C29.5 123.822 29.3864 124.241 29.1591 124.619C28.9356 124.998 28.6345 125.301 28.2557 125.528C27.8807 125.752 27.4621 125.864 27 125.864ZM49.7727 120H48.3636C48.2803 119.595 48.1345 119.239 47.9261 118.932C47.7216 118.625 47.4716 118.367 47.1761 118.159C46.8845 117.947 46.5606 117.788 46.2045 117.682C45.8485 117.576 45.4773 117.523 45.0909 117.523C44.3864 117.523 43.7481 117.701 43.1761 118.057C42.608 118.413 42.1553 118.938 41.8182 119.631C41.4848 120.324 41.3182 121.174 41.3182 122.182C41.3182 123.189 41.4848 124.04 41.8182 124.733C42.1553 125.426 42.608 125.951 43.1761 126.307C43.7481 126.663 44.3864 126.841 45.0909 126.841C45.4773 126.841 45.8485 126.788 46.2045 126.682C46.5606 126.576 46.8845 126.419 47.1761 126.21C47.4716 125.998 47.7216 125.739 47.9261 125.432C48.1345 125.121 48.2803 124.765 48.3636 124.364H49.7727C49.6667 124.958 49.4735 125.491 49.1932 125.96C48.9129 126.43 48.5644 126.83 48.1477 127.159C47.7311 127.485 47.2633 127.733 46.7443 127.903C46.2292 128.074 45.678 128.159 45.0909 128.159C44.0985 128.159 43.2159 127.917 42.4432 127.432C41.6705 126.947 41.0625 126.258 40.6193 125.364C40.1761 124.47 39.9545 123.409 39.9545 122.182C39.9545 120.955 40.1761 119.894 40.6193 119C41.0625 118.106 41.6705 117.417 42.4432 116.932C43.2159 116.447 44.0985 116.205 45.0909 116.205C45.678 116.205 46.2292 116.29 46.7443 116.46C47.2633 116.631 47.7311 116.881 48.1477 117.21C48.5644 117.536 48.9129 117.934 49.1932 118.403C49.4735 118.869 49.6667 119.402 49.7727 120ZM51.8679 128V119.273H53.2088V128H51.8679ZM52.5497 117.818C52.2884 117.818 52.063 117.729 51.8736 117.551C51.688 117.373 51.5952 117.159 51.5952 116.909C51.5952 116.659 51.688 116.445 51.8736 116.267C52.063 116.089 52.2884 116 52.5497 116C52.8111 116 53.0346 116.089 53.2202 116.267C53.4096 116.445 53.5043 116.659 53.5043 116.909C53.5043 117.159 53.4096 117.373 53.2202 117.551C53.0346 117.729 52.8111 117.818 52.5497 117.818ZM61.1648 124.432V119.273H62.5057V128H61.1648V126.523H61.0739C60.8693 126.966 60.5511 127.343 60.1193 127.653C59.6875 127.96 59.142 128.114 58.483 128.114C57.9375 128.114 57.4527 127.994 57.0284 127.756C56.6042 127.513 56.2708 127.15 56.0284 126.665C55.786 126.176 55.6648 125.561 55.6648 124.818V119.273H57.0057V124.727C57.0057 125.364 57.1837 125.871 57.5398 126.25C57.8996 126.629 58.358 126.818 58.9148 126.818C59.2481 126.818 59.5871 126.733 59.9318 126.562C60.2803 126.392 60.572 126.131 60.8068 125.778C61.0455 125.426 61.1648 124.977 61.1648 124.432ZM68.2571 128.182C67.5298 128.182 66.8878 127.998 66.331 127.631C65.7741 127.259 65.3385 126.737 65.0241 126.062C64.7098 125.384 64.5526 124.583 64.5526 123.659C64.5526 122.742 64.7098 121.947 65.0241 121.273C65.3385 120.598 65.776 120.078 66.3366 119.71C66.8973 119.343 67.545 119.159 68.2798 119.159C68.848 119.159 69.2969 119.254 69.6264 119.443C69.9598 119.629 70.2135 119.841 70.3878 120.08C70.5658 120.314 70.7041 120.508 70.8026 120.659H70.9162V116.364H72.2571V128H70.9616V126.659H70.8026C70.7041 126.818 70.5639 127.019 70.3821 127.261C70.2003 127.5 69.9408 127.714 69.6037 127.903C69.2666 128.089 68.8177 128.182 68.2571 128.182ZM68.4389 126.977C68.9768 126.977 69.4313 126.837 69.8026 126.557C70.1738 126.273 70.456 125.881 70.6491 125.381C70.8423 124.877 70.9389 124.295 70.9389 123.636C70.9389 122.985 70.8442 122.415 70.6548 121.926C70.4654 121.434 70.1851 121.051 69.8139 120.778C69.4427 120.502 68.9844 120.364 68.4389 120.364C67.8707 120.364 67.3973 120.509 67.0185 120.801C66.6435 121.089 66.3613 121.481 66.1719 121.977C65.9863 122.47 65.8935 123.023 65.8935 123.636C65.8935 124.258 65.9882 124.822 66.1776 125.33C66.3707 125.833 66.6548 126.235 67.0298 126.534C67.4086 126.83 67.8783 126.977 68.4389 126.977ZM77.4673 128.205C76.9143 128.205 76.4124 128.1 75.9616 127.892C75.5109 127.68 75.1529 127.375 74.8878 126.977C74.6226 126.576 74.4901 126.091 74.4901 125.523C74.4901 125.023 74.5885 124.617 74.7855 124.307C74.9825 123.992 75.2457 123.746 75.5753 123.568C75.9048 123.39 76.2685 123.258 76.6662 123.17C77.0677 123.08 77.4711 123.008 77.8764 122.955C78.4067 122.886 78.8366 122.835 79.1662 122.801C79.4995 122.763 79.742 122.701 79.8935 122.614C80.0488 122.527 80.1264 122.375 80.1264 122.159V122.114C80.1264 121.553 79.973 121.117 79.6662 120.807C79.3632 120.496 78.9029 120.341 78.2855 120.341C77.6454 120.341 77.1435 120.481 76.7798 120.761C76.4162 121.042 76.1605 121.341 76.0128 121.659L74.7401 121.205C74.9673 120.674 75.2704 120.261 75.6491 119.966C76.0317 119.667 76.4484 119.458 76.8991 119.341C77.3537 119.22 77.8007 119.159 78.2401 119.159C78.5204 119.159 78.8423 119.193 79.206 119.261C79.5734 119.326 79.9276 119.46 80.2685 119.665C80.6132 119.869 80.8991 120.178 81.1264 120.591C81.3537 121.004 81.4673 121.557 81.4673 122.25V128H80.1264V126.818H80.0582C79.9673 127.008 79.8158 127.21 79.6037 127.426C79.3916 127.642 79.1094 127.826 78.7571 127.977C78.4048 128.129 77.9749 128.205 77.4673 128.205ZM77.6719 127C78.2022 127 78.6491 126.896 79.0128 126.688C79.3802 126.479 79.6567 126.21 79.8423 125.881C80.0317 125.551 80.1264 125.205 80.1264 124.841V123.614C80.0696 123.682 79.9446 123.744 79.7514 123.801C79.562 123.854 79.3423 123.902 79.0923 123.943C78.8461 123.981 78.6056 124.015 78.3707 124.045C78.1397 124.072 77.9522 124.095 77.8082 124.114C77.4598 124.159 77.134 124.233 76.831 124.335C76.5317 124.434 76.2893 124.583 76.1037 124.784C75.9219 124.981 75.831 125.25 75.831 125.591C75.831 126.057 76.0033 126.409 76.348 126.648C76.6965 126.883 77.1378 127 77.6719 127ZM87.2102 128.182C86.483 128.182 85.8409 127.998 85.2841 127.631C84.7273 127.259 84.2917 126.737 83.9773 126.062C83.6629 125.384 83.5057 124.583 83.5057 123.659C83.5057 122.742 83.6629 121.947 83.9773 121.273C84.2917 120.598 84.7292 120.078 85.2898 119.71C85.8504 119.343 86.4981 119.159 87.233 119.159C87.8011 119.159 88.25 119.254 88.5795 119.443C88.9129 119.629 89.1667 119.841 89.3409 120.08C89.5189 120.314 89.6572 120.508 89.7557 120.659H89.8693V116.364H91.2102V128H89.9148V126.659H89.7557C89.6572 126.818 89.517 127.019 89.3352 127.261C89.1534 127.5 88.8939 127.714 88.5568 127.903C88.2197 128.089 87.7708 128.182 87.2102 128.182ZM87.392 126.977C87.9299 126.977 88.3845 126.837 88.7557 126.557C89.1269 126.273 89.4091 125.881 89.6023 125.381C89.7955 124.877 89.892 124.295 89.892 123.636C89.892 122.985 89.7973 122.415 89.608 121.926C89.4186 121.434 89.1383 121.051 88.767 120.778C88.3958 120.502 87.9375 120.364 87.392 120.364C86.8239 120.364 86.3504 120.509 85.9716 120.801C85.5966 121.089 85.3144 121.481 85.125 121.977C84.9394 122.47 84.8466 123.023 84.8466 123.636C84.8466 124.258 84.9413 124.822 85.1307 125.33C85.3239 125.833 85.608 126.235 85.983 126.534C86.3617 126.83 86.8314 126.977 87.392 126.977ZM101.648 128.182C100.92 128.182 100.278 127.998 99.7216 127.631C99.1648 127.259 98.7292 126.737 98.4148 126.062C98.1004 125.384 97.9432 124.583 97.9432 123.659C97.9432 122.742 98.1004 121.947 98.4148 121.273C98.7292 120.598 99.1667 120.078 99.7273 119.71C100.288 119.343 100.936 119.159 101.67 119.159C102.239 119.159 102.688 119.254 103.017 119.443C103.35 119.629 103.604 119.841 103.778 120.08C103.956 120.314 104.095 120.508 104.193 120.659H104.307V116.364H105.648V128H104.352V126.659H104.193C104.095 126.818 103.955 127.019 103.773 127.261C103.591 127.5 103.331 127.714 102.994 127.903C102.657 128.089 102.208 128.182 101.648 128.182ZM101.83 126.977C102.367 126.977 102.822 126.837 103.193 126.557C103.564 126.273 103.847 125.881 104.04 125.381C104.233 124.877 104.33 124.295 104.33 123.636C104.33 122.985 104.235 122.415 104.045 121.926C103.856 121.434 103.576 121.051 103.205 120.778C102.833 120.502 102.375 120.364 101.83 120.364C101.261 120.364 100.788 120.509 100.409 120.801C100.034 121.089 99.7519 121.481 99.5625 121.977C99.3769 122.47 99.2841 123.023 99.2841 123.636C99.2841 124.258 99.3788 124.822 99.5682 125.33C99.7614 125.833 100.045 126.235 100.42 126.534C100.799 126.83 101.269 126.977 101.83 126.977ZM111.949 128.182C111.108 128.182 110.383 127.996 109.773 127.625C109.167 127.25 108.699 126.727 108.369 126.057C108.044 125.383 107.881 124.598 107.881 123.705C107.881 122.811 108.044 122.023 108.369 121.341C108.699 120.655 109.157 120.121 109.744 119.739C110.335 119.352 111.025 119.159 111.812 119.159C112.267 119.159 112.716 119.235 113.159 119.386C113.602 119.538 114.006 119.784 114.369 120.125C114.733 120.462 115.023 120.909 115.239 121.466C115.455 122.023 115.562 122.708 115.562 123.523V124.091H108.835V122.932H114.199C114.199 122.439 114.1 122 113.903 121.614C113.71 121.227 113.434 120.922 113.074 120.699C112.718 120.475 112.297 120.364 111.812 120.364C111.278 120.364 110.816 120.496 110.426 120.761C110.04 121.023 109.742 121.364 109.534 121.784C109.326 122.205 109.222 122.655 109.222 123.136V123.909C109.222 124.568 109.335 125.127 109.562 125.585C109.794 126.04 110.114 126.386 110.523 126.625C110.932 126.86 111.407 126.977 111.949 126.977C112.301 126.977 112.619 126.928 112.903 126.83C113.191 126.727 113.439 126.576 113.648 126.375C113.856 126.17 114.017 125.917 114.131 125.614L115.426 125.977C115.29 126.417 115.061 126.803 114.739 127.136C114.417 127.466 114.019 127.723 113.545 127.909C113.072 128.091 112.54 128.182 111.949 128.182ZM122.284 128V116.364H126.216C127.129 116.364 127.875 116.528 128.455 116.858C129.038 117.184 129.47 117.625 129.75 118.182C130.03 118.739 130.17 119.36 130.17 120.045C130.17 120.731 130.03 121.354 129.75 121.915C129.473 122.475 129.045 122.922 128.466 123.256C127.886 123.585 127.144 123.75 126.239 123.75H123.42V122.5H126.193C126.818 122.5 127.32 122.392 127.699 122.176C128.078 121.96 128.352 121.669 128.523 121.301C128.697 120.93 128.784 120.511 128.784 120.045C128.784 119.58 128.697 119.163 128.523 118.795C128.352 118.428 128.076 118.14 127.693 117.932C127.311 117.72 126.803 117.614 126.17 117.614H123.693V128H122.284ZM134.827 128.205C134.274 128.205 133.772 128.1 133.321 127.892C132.87 127.68 132.512 127.375 132.247 126.977C131.982 126.576 131.849 126.091 131.849 125.523C131.849 125.023 131.948 124.617 132.145 124.307C132.342 123.992 132.605 123.746 132.935 123.568C133.264 123.39 133.628 123.258 134.026 123.17C134.427 123.08 134.83 123.008 135.236 122.955C135.766 122.886 136.196 122.835 136.526 122.801C136.859 122.763 137.101 122.701 137.253 122.614C137.408 122.527 137.486 122.375 137.486 122.159V122.114C137.486 121.553 137.332 121.117 137.026 120.807C136.723 120.496 136.262 120.341 135.645 120.341C135.005 120.341 134.503 120.481 134.139 120.761C133.776 121.042 133.52 121.341 133.372 121.659L132.099 121.205C132.327 120.674 132.63 120.261 133.009 119.966C133.391 119.667 133.808 119.458 134.259 119.341C134.713 119.22 135.16 119.159 135.599 119.159C135.88 119.159 136.202 119.193 136.565 119.261C136.933 119.326 137.287 119.46 137.628 119.665C137.973 119.869 138.259 120.178 138.486 120.591C138.713 121.004 138.827 121.557 138.827 122.25V128H137.486V126.818H137.418C137.327 127.008 137.175 127.21 136.963 127.426C136.751 127.642 136.469 127.826 136.116 127.977C135.764 128.129 135.334 128.205 134.827 128.205ZM135.031 127C135.562 127 136.009 126.896 136.372 126.688C136.74 126.479 137.016 126.21 137.202 125.881C137.391 125.551 137.486 125.205 137.486 124.841V123.614C137.429 123.682 137.304 123.744 137.111 123.801C136.921 123.854 136.702 123.902 136.452 123.943C136.205 123.981 135.965 124.015 135.73 124.045C135.499 124.072 135.312 124.095 135.168 124.114C134.819 124.159 134.493 124.233 134.19 124.335C133.891 124.434 133.649 124.583 133.463 124.784C133.281 124.981 133.19 125.25 133.19 125.591C133.19 126.057 133.363 126.409 133.707 126.648C134.056 126.883 134.497 127 135.031 127ZM142.615 122.75V128H141.274V119.273H142.57V120.636H142.683C142.888 120.193 143.198 119.837 143.615 119.568C144.032 119.295 144.57 119.159 145.229 119.159C145.82 119.159 146.337 119.28 146.78 119.523C147.223 119.761 147.568 120.125 147.814 120.614C148.06 121.098 148.183 121.712 148.183 122.455V128H146.842V122.545C146.842 121.86 146.664 121.326 146.308 120.943C145.952 120.557 145.464 120.364 144.842 120.364C144.414 120.364 144.032 120.456 143.695 120.642C143.361 120.828 143.098 121.098 142.905 121.455C142.712 121.811 142.615 122.242 142.615 122.75ZM153.202 128.205C152.649 128.205 152.147 128.1 151.696 127.892C151.245 127.68 150.887 127.375 150.622 126.977C150.357 126.576 150.224 126.091 150.224 125.523C150.224 125.023 150.323 124.617 150.52 124.307C150.717 123.992 150.98 123.746 151.31 123.568C151.639 123.39 152.003 123.258 152.401 123.17C152.802 123.08 153.205 123.008 153.611 122.955C154.141 122.886 154.571 122.835 154.901 122.801C155.234 122.763 155.476 122.701 155.628 122.614C155.783 122.527 155.861 122.375 155.861 122.159V122.114C155.861 121.553 155.707 121.117 155.401 120.807C155.098 120.496 154.637 120.341 154.02 120.341C153.38 120.341 152.878 120.481 152.514 120.761C152.151 121.042 151.895 121.341 151.747 121.659L150.474 121.205C150.702 120.674 151.005 120.261 151.384 119.966C151.766 119.667 152.183 119.458 152.634 119.341C153.088 119.22 153.535 119.159 153.974 119.159C154.255 119.159 154.577 119.193 154.94 119.261C155.308 119.326 155.662 119.46 156.003 119.665C156.348 119.869 156.634 120.178 156.861 120.591C157.088 121.004 157.202 121.557 157.202 122.25V128H155.861V126.818H155.793C155.702 127.008 155.55 127.21 155.338 127.426C155.126 127.642 154.844 127.826 154.491 127.977C154.139 128.129 153.709 128.205 153.202 128.205ZM153.406 127C153.937 127 154.384 126.896 154.747 126.688C155.115 126.479 155.391 126.21 155.577 125.881C155.766 125.551 155.861 125.205 155.861 124.841V123.614C155.804 123.682 155.679 123.744 155.486 123.801C155.296 123.854 155.077 123.902 154.827 123.943C154.58 123.981 154.34 124.015 154.105 124.045C153.874 124.072 153.687 124.095 153.543 124.114C153.194 124.159 152.868 124.233 152.565 124.335C152.266 124.434 152.024 124.583 151.838 124.784C151.656 124.981 151.565 125.25 151.565 125.591C151.565 126.057 151.738 126.409 152.082 126.648C152.431 126.883 152.872 127 153.406 127ZM159.649 128V119.273H160.945V120.636H161.058C161.24 120.17 161.534 119.809 161.939 119.551C162.344 119.29 162.831 119.159 163.399 119.159C163.975 119.159 164.454 119.29 164.837 119.551C165.223 119.809 165.524 120.17 165.74 120.636H165.831C166.054 120.186 166.39 119.828 166.837 119.562C167.284 119.294 167.82 119.159 168.445 119.159C169.225 119.159 169.863 119.403 170.359 119.892C170.856 120.377 171.104 121.133 171.104 122.159V128H169.763V122.159C169.763 121.515 169.587 121.055 169.234 120.778C168.882 120.502 168.467 120.364 167.99 120.364C167.376 120.364 166.901 120.549 166.564 120.92C166.227 121.288 166.058 121.754 166.058 122.318V128H164.695V122.023C164.695 121.527 164.534 121.127 164.212 120.824C163.89 120.517 163.475 120.364 162.967 120.364C162.619 120.364 162.293 120.456 161.99 120.642C161.691 120.828 161.448 121.085 161.263 121.415C161.081 121.741 160.99 122.117 160.99 122.545V128H159.649ZM176.124 128.205C175.571 128.205 175.069 128.1 174.618 127.892C174.167 127.68 173.809 127.375 173.544 126.977C173.279 126.576 173.146 126.091 173.146 125.523C173.146 125.023 173.245 124.617 173.442 124.307C173.639 123.992 173.902 123.746 174.232 123.568C174.561 123.39 174.925 123.258 175.322 123.17C175.724 123.08 176.127 123.008 176.533 122.955C177.063 122.886 177.493 122.835 177.822 122.801C178.156 122.763 178.398 122.701 178.55 122.614C178.705 122.527 178.783 122.375 178.783 122.159V122.114C178.783 121.553 178.629 121.117 178.322 120.807C178.019 120.496 177.559 120.341 176.942 120.341C176.302 120.341 175.8 120.481 175.436 120.761C175.072 121.042 174.817 121.341 174.669 121.659L173.396 121.205C173.624 120.674 173.927 120.261 174.305 119.966C174.688 119.667 175.105 119.458 175.555 119.341C176.01 119.22 176.457 119.159 176.896 119.159C177.177 119.159 177.499 119.193 177.862 119.261C178.23 119.326 178.584 119.46 178.925 119.665C179.269 119.869 179.555 120.178 179.783 120.591C180.01 121.004 180.124 121.557 180.124 122.25V128H178.783V126.818H178.714C178.624 127.008 178.472 127.21 178.26 127.426C178.048 127.642 177.766 127.826 177.413 127.977C177.061 128.129 176.631 128.205 176.124 128.205ZM176.328 127C176.858 127 177.305 126.896 177.669 126.688C178.036 126.479 178.313 126.21 178.499 125.881C178.688 125.551 178.783 125.205 178.783 124.841V123.614C178.726 123.682 178.601 123.744 178.408 123.801C178.218 123.854 177.999 123.902 177.749 123.943C177.502 123.981 177.262 124.015 177.027 124.045C176.796 124.072 176.608 124.095 176.464 124.114C176.116 124.159 175.79 124.233 175.487 124.335C175.188 124.434 174.946 124.583 174.76 124.784C174.578 124.981 174.487 125.25 174.487 125.591C174.487 126.057 174.66 126.409 175.004 126.648C175.353 126.883 175.794 127 176.328 127ZM176.374 118.091L177.76 115.455H179.328L177.555 118.091H176.374ZM27 147.864C26.5417 147.864 26.1231 147.752 25.7443 147.528C25.3655 147.301 25.0625 146.998 24.8352 146.619C24.6117 146.241 24.5 145.822 24.5 145.364C24.5 144.902 24.6117 144.483 24.8352 144.108C25.0625 143.729 25.3655 143.428 25.7443 143.205C26.1231 142.977 26.5417 142.864 27 142.864C27.4621 142.864 27.8807 142.977 28.2557 143.205C28.6345 143.428 28.9356 143.729 29.1591 144.108C29.3864 144.483 29.5 144.902 29.5 145.364C29.5 145.822 29.3864 146.241 29.1591 146.619C28.9356 146.998 28.6345 147.301 28.2557 147.528C27.8807 147.752 27.4621 147.864 27 147.864ZM40.4091 138.364H42.0909L46.0455 148.023H46.1818L50.1364 138.364H51.8182V150H50.5V141.159H50.3864L46.75 150H45.4773L41.8409 141.159H41.7273V150H40.4091V138.364ZM57.0298 150.205C56.4768 150.205 55.9749 150.1 55.5241 149.892C55.0734 149.68 54.7154 149.375 54.4503 148.977C54.1851 148.576 54.0526 148.091 54.0526 147.523C54.0526 147.023 54.151 146.617 54.348 146.307C54.545 145.992 54.8082 145.746 55.1378 145.568C55.4673 145.39 55.831 145.258 56.2287 145.17C56.6302 145.08 57.0336 145.008 57.4389 144.955C57.9692 144.886 58.3991 144.835 58.7287 144.801C59.062 144.763 59.3045 144.701 59.456 144.614C59.6113 144.527 59.6889 144.375 59.6889 144.159V144.114C59.6889 143.553 59.5355 143.117 59.2287 142.807C58.9257 142.496 58.4654 142.341 57.848 142.341C57.2079 142.341 56.706 142.481 56.3423 142.761C55.9787 143.042 55.723 143.341 55.5753 143.659L54.3026 143.205C54.5298 142.674 54.8329 142.261 55.2116 141.966C55.5942 141.667 56.0109 141.458 56.4616 141.341C56.9162 141.22 57.3632 141.159 57.8026 141.159C58.0829 141.159 58.4048 141.193 58.7685 141.261C59.1359 141.326 59.4901 141.46 59.831 141.665C60.1757 141.869 60.4616 142.178 60.6889 142.591C60.9162 143.004 61.0298 143.557 61.0298 144.25V150H59.6889V148.818H59.6207C59.5298 149.008 59.3783 149.21 59.1662 149.426C58.9541 149.642 58.6719 149.826 58.3196 149.977C57.9673 150.129 57.5374 150.205 57.0298 150.205ZM57.2344 149C57.7647 149 58.2116 148.896 58.5753 148.688C58.9427 148.479 59.2192 148.21 59.4048 147.881C59.5942 147.551 59.6889 147.205 59.6889 146.841V145.614C59.6321 145.682 59.5071 145.744 59.3139 145.801C59.1245 145.854 58.9048 145.902 58.6548 145.943C58.4086 145.981 58.1681 146.015 57.9332 146.045C57.7022 146.072 57.5147 146.095 57.3707 146.114C57.0223 146.159 56.6965 146.233 56.3935 146.335C56.0942 146.434 55.8518 146.583 55.6662 146.784C55.4844 146.981 55.3935 147.25 55.3935 147.591C55.3935 148.057 55.5658 148.409 55.9105 148.648C56.259 148.883 56.7003 149 57.2344 149ZM64.8182 144.75V150H63.4773V141.273H64.7727V142.636H64.8864C65.0909 142.193 65.4015 141.837 65.8182 141.568C66.2348 141.295 66.7727 141.159 67.4318 141.159C68.0227 141.159 68.5398 141.28 68.983 141.523C69.4261 141.761 69.7708 142.125 70.017 142.614C70.2633 143.098 70.3864 143.712 70.3864 144.455V150H69.0455V144.545C69.0455 143.86 68.8674 143.326 68.5114 142.943C68.1553 142.557 67.6667 142.364 67.0455 142.364C66.6174 142.364 66.2348 142.456 65.8977 142.642C65.5644 142.828 65.3011 143.098 65.108 143.455C64.9148 143.811 64.8182 144.242 64.8182 144.75ZM75.4048 150.205C74.8518 150.205 74.3499 150.1 73.8991 149.892C73.4484 149.68 73.0904 149.375 72.8253 148.977C72.5601 148.576 72.4276 148.091 72.4276 147.523C72.4276 147.023 72.526 146.617 72.723 146.307C72.92 145.992 73.1832 145.746 73.5128 145.568C73.8423 145.39 74.206 145.258 74.6037 145.17C75.0052 145.08 75.4086 145.008 75.8139 144.955C76.3442 144.886 76.7741 144.835 77.1037 144.801C77.437 144.763 77.6795 144.701 77.831 144.614C77.9863 144.527 78.0639 144.375 78.0639 144.159V144.114C78.0639 143.553 77.9105 143.117 77.6037 142.807C77.3007 142.496 76.8404 142.341 76.223 142.341C75.5829 142.341 75.081 142.481 74.7173 142.761C74.3537 143.042 74.098 143.341 73.9503 143.659L72.6776 143.205C72.9048 142.674 73.2079 142.261 73.5866 141.966C73.9692 141.667 74.3859 141.458 74.8366 141.341C75.2912 141.22 75.7382 141.159 76.1776 141.159C76.4579 141.159 76.7798 141.193 77.1435 141.261C77.5109 141.326 77.8651 141.46 78.206 141.665C78.5507 141.869 78.8366 142.178 79.0639 142.591C79.2912 143.004 79.4048 143.557 79.4048 144.25V150H78.0639V148.818H77.9957C77.9048 149.008 77.7533 149.21 77.5412 149.426C77.3291 149.642 77.0469 149.826 76.6946 149.977C76.3423 150.129 75.9124 150.205 75.4048 150.205ZM75.6094 149C76.1397 149 76.5866 148.896 76.9503 148.688C77.3177 148.479 77.5942 148.21 77.7798 147.881C77.9692 147.551 78.0639 147.205 78.0639 146.841V145.614C78.0071 145.682 77.8821 145.744 77.6889 145.801C77.4995 145.854 77.2798 145.902 77.0298 145.943C76.7836 145.981 76.5431 146.015 76.3082 146.045C76.0772 146.072 75.8897 146.095 75.7457 146.114C75.3973 146.159 75.0715 146.233 74.7685 146.335C74.4692 146.434 74.2268 146.583 74.0412 146.784C73.8594 146.981 73.7685 147.25 73.7685 147.591C73.7685 148.057 73.9408 148.409 74.2855 148.648C74.634 148.883 75.0753 149 75.6094 149ZM85.375 153.455C84.7273 153.455 84.1705 153.371 83.7045 153.205C83.2386 153.042 82.8504 152.826 82.5398 152.557C82.233 152.292 81.9886 152.008 81.8068 151.705L82.875 150.955C82.9962 151.114 83.1496 151.295 83.3352 151.5C83.5208 151.708 83.7746 151.888 84.0966 152.04C84.4223 152.195 84.8485 152.273 85.375 152.273C86.0795 152.273 86.661 152.102 87.1193 151.761C87.5777 151.42 87.8068 150.886 87.8068 150.159V148.386H87.6932C87.5947 148.545 87.4545 148.742 87.2727 148.977C87.0947 149.208 86.8371 149.415 86.5 149.597C86.1667 149.775 85.7159 149.864 85.1477 149.864C84.4432 149.864 83.8106 149.697 83.25 149.364C82.6932 149.03 82.2519 148.545 81.9261 147.909C81.6042 147.273 81.4432 146.5 81.4432 145.591C81.4432 144.697 81.6004 143.919 81.9148 143.256C82.2292 142.589 82.6667 142.074 83.2273 141.71C83.7879 141.343 84.4356 141.159 85.1705 141.159C85.7386 141.159 86.1894 141.254 86.5227 141.443C86.8598 141.629 87.1174 141.841 87.2955 142.08C87.4773 142.314 87.6174 142.508 87.7159 142.659H87.8523V141.273H89.1477V150.25C89.1477 151 88.9773 151.61 88.6364 152.08C88.2992 152.553 87.8447 152.9 87.2727 153.119C86.7045 153.343 86.072 153.455 85.375 153.455ZM85.3295 148.659C85.8674 148.659 86.322 148.536 86.6932 148.29C87.0644 148.044 87.3466 147.689 87.5398 147.227C87.733 146.765 87.8295 146.212 87.8295 145.568C87.8295 144.939 87.7348 144.384 87.5455 143.903C87.3561 143.422 87.0758 143.045 86.7045 142.773C86.3333 142.5 85.875 142.364 85.3295 142.364C84.7614 142.364 84.2879 142.508 83.9091 142.795C83.5341 143.083 83.2519 143.47 83.0625 143.955C82.8769 144.439 82.7841 144.977 82.7841 145.568C82.7841 146.174 82.8788 146.71 83.0682 147.176C83.2614 147.638 83.5455 148.002 83.9205 148.267C84.2992 148.528 84.7689 148.659 85.3295 148.659ZM97.1023 146.432V141.273H98.4432V150H97.1023V148.523H97.0114C96.8068 148.966 96.4886 149.343 96.0568 149.653C95.625 149.96 95.0795 150.114 94.4205 150.114C93.875 150.114 93.3902 149.994 92.9659 149.756C92.5417 149.513 92.2083 149.15 91.9659 148.665C91.7235 148.176 91.6023 147.561 91.6023 146.818V141.273H92.9432V146.727C92.9432 147.364 93.1212 147.871 93.4773 148.25C93.8371 148.629 94.2955 148.818 94.8523 148.818C95.1856 148.818 95.5246 148.733 95.8693 148.562C96.2178 148.392 96.5095 148.131 96.7443 147.778C96.983 147.426 97.1023 146.977 97.1023 146.432ZM103.467 150.205C102.914 150.205 102.412 150.1 101.962 149.892C101.511 149.68 101.153 149.375 100.888 148.977C100.623 148.576 100.49 148.091 100.49 147.523C100.49 147.023 100.589 146.617 100.786 146.307C100.982 145.992 101.246 145.746 101.575 145.568C101.905 145.39 102.268 145.258 102.666 145.17C103.068 145.08 103.471 145.008 103.876 144.955C104.407 144.886 104.837 144.835 105.166 144.801C105.5 144.763 105.742 144.701 105.893 144.614C106.049 144.527 106.126 144.375 106.126 144.159V144.114C106.126 143.553 105.973 143.117 105.666 142.807C105.363 142.496 104.903 142.341 104.286 142.341C103.645 142.341 103.143 142.481 102.78 142.761C102.416 143.042 102.161 143.341 102.013 143.659L100.74 143.205C100.967 142.674 101.27 142.261 101.649 141.966C102.032 141.667 102.448 141.458 102.899 141.341C103.354 141.22 103.801 141.159 104.24 141.159C104.52 141.159 104.842 141.193 105.206 141.261C105.573 141.326 105.928 141.46 106.268 141.665C106.613 141.869 106.899 142.178 107.126 142.591C107.354 143.004 107.467 143.557 107.467 144.25V150H106.126V148.818H106.058C105.967 149.008 105.816 149.21 105.604 149.426C105.392 149.642 105.109 149.826 104.757 149.977C104.405 150.129 103.975 150.205 103.467 150.205ZM103.672 149C104.202 149 104.649 148.896 105.013 148.688C105.38 148.479 105.657 148.21 105.842 147.881C106.032 147.551 106.126 147.205 106.126 146.841V145.614C106.07 145.682 105.945 145.744 105.751 145.801C105.562 145.854 105.342 145.902 105.092 145.943C104.846 145.981 104.606 146.015 104.371 146.045C104.14 146.072 103.952 146.095 103.808 146.114C103.46 146.159 103.134 146.233 102.831 146.335C102.532 146.434 102.289 146.583 102.104 146.784C101.922 146.981 101.831 147.25 101.831 147.591C101.831 148.057 102.003 148.409 102.348 148.648C102.696 148.883 103.138 149 103.672 149ZM27 169.864C26.5417 169.864 26.1231 169.752 25.7443 169.528C25.3655 169.301 25.0625 168.998 24.8352 168.619C24.6117 168.241 24.5 167.822 24.5 167.364C24.5 166.902 24.6117 166.483 24.8352 166.108C25.0625 165.729 25.3655 165.428 25.7443 165.205C26.1231 164.977 26.5417 164.864 27 164.864C27.4621 164.864 27.8807 164.977 28.2557 165.205C28.6345 165.428 28.9356 165.729 29.1591 166.108C29.3864 166.483 29.5 166.902 29.5 167.364C29.5 167.822 29.3864 168.241 29.1591 168.619C28.9356 168.998 28.6345 169.301 28.2557 169.528C27.8807 169.752 27.4621 169.864 27 169.864ZM46.7727 163.273C46.7045 162.697 46.428 162.25 45.9432 161.932C45.4583 161.614 44.8636 161.455 44.1591 161.455C43.6439 161.455 43.1932 161.538 42.8068 161.705C42.4242 161.871 42.125 162.1 41.9091 162.392C41.697 162.684 41.5909 163.015 41.5909 163.386C41.5909 163.697 41.6648 163.964 41.8125 164.188C41.964 164.407 42.1572 164.591 42.392 164.739C42.6269 164.883 42.8731 165.002 43.1307 165.097C43.3883 165.187 43.625 165.261 43.8409 165.318L45.0227 165.636C45.3258 165.716 45.6629 165.826 46.0341 165.966C46.4091 166.106 46.767 166.297 47.108 166.54C47.4527 166.778 47.7367 167.085 47.9602 167.46C48.1837 167.835 48.2955 168.295 48.2955 168.841C48.2955 169.47 48.1307 170.038 47.8011 170.545C47.4754 171.053 46.9981 171.456 46.3693 171.756C45.7443 172.055 44.9848 172.205 44.0909 172.205C43.2576 172.205 42.536 172.07 41.9261 171.801C41.3201 171.532 40.8428 171.157 40.4943 170.676C40.1496 170.195 39.9545 169.636 39.9091 169H41.3636C41.4015 169.439 41.5492 169.803 41.8068 170.091C42.0682 170.375 42.3977 170.587 42.7955 170.727C43.197 170.864 43.6288 170.932 44.0909 170.932C44.6288 170.932 45.1117 170.845 45.5398 170.67C45.9678 170.492 46.3068 170.246 46.5568 169.932C46.8068 169.614 46.9318 169.242 46.9318 168.818C46.9318 168.432 46.8239 168.117 46.608 167.875C46.392 167.633 46.108 167.436 45.7557 167.284C45.4034 167.133 45.0227 167 44.6136 166.886L43.1818 166.477C42.2727 166.216 41.553 165.843 41.0227 165.358C40.4924 164.873 40.2273 164.239 40.2273 163.455C40.2273 162.803 40.4034 162.235 40.7557 161.75C41.1117 161.261 41.589 160.883 42.1875 160.614C42.7898 160.341 43.4621 160.205 44.2045 160.205C44.9545 160.205 45.6212 160.339 46.2045 160.608C46.7879 160.873 47.25 161.237 47.5909 161.699C47.9356 162.161 48.1174 162.686 48.1364 163.273H46.7727ZM52.9986 172.205C52.4455 172.205 51.9437 172.1 51.4929 171.892C51.0421 171.68 50.6842 171.375 50.419 170.977C50.1539 170.576 50.0213 170.091 50.0213 169.523C50.0213 169.023 50.1198 168.617 50.3168 168.307C50.5137 167.992 50.777 167.746 51.1065 167.568C51.4361 167.39 51.7997 167.258 52.1974 167.17C52.599 167.08 53.0024 167.008 53.4077 166.955C53.938 166.886 54.3679 166.835 54.6974 166.801C55.0308 166.763 55.2732 166.701 55.4247 166.614C55.58 166.527 55.6577 166.375 55.6577 166.159V166.114C55.6577 165.553 55.5043 165.117 55.1974 164.807C54.8944 164.496 54.4342 164.341 53.8168 164.341C53.1766 164.341 52.6747 164.481 52.3111 164.761C51.9474 165.042 51.6918 165.341 51.544 165.659L50.2713 165.205C50.4986 164.674 50.8016 164.261 51.1804 163.966C51.563 163.667 51.9796 163.458 52.4304 163.341C52.8849 163.22 53.3319 163.159 53.7713 163.159C54.0516 163.159 54.3736 163.193 54.7372 163.261C55.1046 163.326 55.4588 163.46 55.7997 163.665C56.1444 163.869 56.4304 164.178 56.6577 164.591C56.8849 165.004 56.9986 165.557 56.9986 166.25V172H55.6577V170.818H55.5895C55.4986 171.008 55.3471 171.21 55.1349 171.426C54.9228 171.642 54.6406 171.826 54.2884 171.977C53.9361 172.129 53.5062 172.205 52.9986 172.205ZM53.2031 171C53.7334 171 54.1804 170.896 54.544 170.688C54.9115 170.479 55.188 170.21 55.3736 169.881C55.563 169.551 55.6577 169.205 55.6577 168.841V167.614C55.6009 167.682 55.4759 167.744 55.2827 167.801C55.0933 167.854 54.8736 167.902 54.6236 167.943C54.3774 167.981 54.1368 168.015 53.902 168.045C53.6709 168.072 53.4834 168.095 53.3395 168.114C52.991 168.159 52.6652 168.233 52.3622 168.335C52.063 168.434 51.8205 168.583 51.6349 168.784C51.4531 168.981 51.3622 169.25 51.3622 169.591C51.3622 170.057 51.5346 170.409 51.8793 170.648C52.2277 170.883 52.669 171 53.2031 171ZM60.7869 166.75V172H59.446V163.273H60.7415V164.636H60.8551C61.0597 164.193 61.3703 163.837 61.7869 163.568C62.2036 163.295 62.7415 163.159 63.4006 163.159C63.9915 163.159 64.5085 163.28 64.9517 163.523C65.3949 163.761 65.7396 164.125 65.9858 164.614C66.232 165.098 66.3551 165.712 66.3551 166.455V172H65.0142V166.545C65.0142 165.86 64.8362 165.326 64.4801 164.943C64.1241 164.557 63.6354 164.364 63.0142 164.364C62.5862 164.364 62.2036 164.456 61.8665 164.642C61.5331 164.828 61.2699 165.098 61.0767 165.455C60.8835 165.811 60.7869 166.242 60.7869 166.75ZM79.8509 163.273C79.7827 162.697 79.5062 162.25 79.0213 161.932C78.5365 161.614 77.9418 161.455 77.2372 161.455C76.7221 161.455 76.2713 161.538 75.8849 161.705C75.5024 161.871 75.2031 162.1 74.9872 162.392C74.7751 162.684 74.669 163.015 74.669 163.386C74.669 163.697 74.7429 163.964 74.8906 164.188C75.0421 164.407 75.2353 164.591 75.4702 164.739C75.705 164.883 75.9512 165.002 76.2088 165.097C76.4664 165.187 76.7031 165.261 76.919 165.318L78.1009 165.636C78.4039 165.716 78.741 165.826 79.1122 165.966C79.4872 166.106 79.8452 166.297 80.1861 166.54C80.5308 166.778 80.8149 167.085 81.0384 167.46C81.2618 167.835 81.3736 168.295 81.3736 168.841C81.3736 169.47 81.2088 170.038 80.8793 170.545C80.5535 171.053 80.0762 171.456 79.4474 171.756C78.8224 172.055 78.063 172.205 77.169 172.205C76.3357 172.205 75.6141 172.07 75.0043 171.801C74.3982 171.532 73.9209 171.157 73.5724 170.676C73.2277 170.195 73.0327 169.636 72.9872 169H74.4418C74.4796 169.439 74.6274 169.803 74.8849 170.091C75.1463 170.375 75.4759 170.587 75.8736 170.727C76.2751 170.864 76.7069 170.932 77.169 170.932C77.7069 170.932 78.1899 170.845 78.6179 170.67C79.0459 170.492 79.3849 170.246 79.6349 169.932C79.8849 169.614 80.0099 169.242 80.0099 168.818C80.0099 168.432 79.902 168.117 79.6861 167.875C79.4702 167.633 79.1861 167.436 78.8338 167.284C78.4815 167.133 78.1009 167 77.6918 166.886L76.2599 166.477C75.3509 166.216 74.6312 165.843 74.1009 165.358C73.5705 164.873 73.3054 164.239 73.3054 163.455C73.3054 162.803 73.4815 162.235 73.8338 161.75C74.1899 161.261 74.6671 160.883 75.2656 160.614C75.8679 160.341 76.5402 160.205 77.2827 160.205C78.0327 160.205 78.6993 160.339 79.2827 160.608C79.866 160.873 80.3281 161.237 80.669 161.699C81.0137 162.161 81.1955 162.686 81.2145 163.273H79.8509ZM86.0767 172.205C85.5237 172.205 85.0218 172.1 84.571 171.892C84.1203 171.68 83.7623 171.375 83.4972 170.977C83.232 170.576 83.0994 170.091 83.0994 169.523C83.0994 169.023 83.1979 168.617 83.3949 168.307C83.5919 167.992 83.8551 167.746 84.1847 167.568C84.5142 167.39 84.8778 167.258 85.2756 167.17C85.6771 167.08 86.0805 167.008 86.4858 166.955C87.0161 166.886 87.446 166.835 87.7756 166.801C88.1089 166.763 88.3513 166.701 88.5028 166.614C88.6581 166.527 88.7358 166.375 88.7358 166.159V166.114C88.7358 165.553 88.5824 165.117 88.2756 164.807C87.9725 164.496 87.5123 164.341 86.8949 164.341C86.2547 164.341 85.7528 164.481 85.3892 164.761C85.0256 165.042 84.7699 165.341 84.6222 165.659L83.3494 165.205C83.5767 164.674 83.8797 164.261 84.2585 163.966C84.6411 163.667 85.0578 163.458 85.5085 163.341C85.9631 163.22 86.41 163.159 86.8494 163.159C87.1297 163.159 87.4517 163.193 87.8153 163.261C88.1828 163.326 88.5369 163.46 88.8778 163.665C89.2225 163.869 89.5085 164.178 89.7358 164.591C89.9631 165.004 90.0767 165.557 90.0767 166.25V172H88.7358V170.818H88.6676C88.5767 171.008 88.4252 171.21 88.2131 171.426C88.0009 171.642 87.7188 171.826 87.3665 171.977C87.0142 172.129 86.5843 172.205 86.0767 172.205ZM86.2812 171C86.8116 171 87.2585 170.896 87.6222 170.688C87.9896 170.479 88.2661 170.21 88.4517 169.881C88.6411 169.551 88.7358 169.205 88.7358 168.841V167.614C88.679 167.682 88.554 167.744 88.3608 167.801C88.1714 167.854 87.9517 167.902 87.7017 167.943C87.4555 167.981 87.215 168.015 86.9801 168.045C86.7491 168.072 86.5616 168.095 86.4176 168.114C86.0691 168.159 85.7434 168.233 85.4403 168.335C85.1411 168.434 84.8987 168.583 84.7131 168.784C84.5313 168.981 84.4403 169.25 84.4403 169.591C84.4403 170.057 84.6127 170.409 84.9574 170.648C85.3059 170.883 85.7472 171 86.2812 171ZM93.8651 160.364V172H92.5241V160.364H93.8651ZM103.457 163.273L100.23 172H98.8665L95.6392 163.273H97.0938L99.5028 170.227H99.5938L102.003 163.273H103.457ZM107.53 172.205C106.977 172.205 106.475 172.1 106.024 171.892C105.573 171.68 105.215 171.375 104.95 170.977C104.685 170.576 104.553 170.091 104.553 169.523C104.553 169.023 104.651 168.617 104.848 168.307C105.045 167.992 105.308 167.746 105.638 167.568C105.967 167.39 106.331 167.258 106.729 167.17C107.13 167.08 107.534 167.008 107.939 166.955C108.469 166.886 108.899 166.835 109.229 166.801C109.562 166.763 109.804 166.701 109.956 166.614C110.111 166.527 110.189 166.375 110.189 166.159V166.114C110.189 165.553 110.036 165.117 109.729 164.807C109.426 164.496 108.965 164.341 108.348 164.341C107.708 164.341 107.206 164.481 106.842 164.761C106.479 165.042 106.223 165.341 106.075 165.659L104.803 165.205C105.03 164.674 105.333 164.261 105.712 163.966C106.094 163.667 106.511 163.458 106.962 163.341C107.416 163.22 107.863 163.159 108.303 163.159C108.583 163.159 108.905 163.193 109.268 163.261C109.636 163.326 109.99 163.46 110.331 163.665C110.676 163.869 110.962 164.178 111.189 164.591C111.416 165.004 111.53 165.557 111.53 166.25V172H110.189V170.818H110.121C110.03 171.008 109.878 171.21 109.666 171.426C109.454 171.642 109.172 171.826 108.82 171.977C108.467 172.129 108.037 172.205 107.53 172.205ZM107.734 171C108.265 171 108.712 170.896 109.075 170.688C109.443 170.479 109.719 170.21 109.905 169.881C110.094 169.551 110.189 169.205 110.189 168.841V167.614C110.132 167.682 110.007 167.744 109.814 167.801C109.625 167.854 109.405 167.902 109.155 167.943C108.909 167.981 108.668 168.015 108.433 168.045C108.202 168.072 108.015 168.095 107.871 168.114C107.522 168.159 107.196 168.233 106.893 168.335C106.594 168.434 106.352 168.583 106.166 168.784C105.984 168.981 105.893 169.25 105.893 169.591C105.893 170.057 106.066 170.409 106.411 170.648C106.759 170.883 107.2 171 107.734 171ZM117.273 172.182C116.545 172.182 115.903 171.998 115.347 171.631C114.79 171.259 114.354 170.737 114.04 170.062C113.725 169.384 113.568 168.583 113.568 167.659C113.568 166.742 113.725 165.947 114.04 165.273C114.354 164.598 114.792 164.078 115.352 163.71C115.913 163.343 116.561 163.159 117.295 163.159C117.864 163.159 118.313 163.254 118.642 163.443C118.975 163.629 119.229 163.841 119.403 164.08C119.581 164.314 119.72 164.508 119.818 164.659H119.932V160.364H121.273V172H119.977V170.659H119.818C119.72 170.818 119.58 171.019 119.398 171.261C119.216 171.5 118.956 171.714 118.619 171.903C118.282 172.089 117.833 172.182 117.273 172.182ZM117.455 170.977C117.992 170.977 118.447 170.837 118.818 170.557C119.189 170.273 119.472 169.881 119.665 169.381C119.858 168.877 119.955 168.295 119.955 167.636C119.955 166.985 119.86 166.415 119.67 165.926C119.481 165.434 119.201 165.051 118.83 164.778C118.458 164.502 118 164.364 117.455 164.364C116.886 164.364 116.413 164.509 116.034 164.801C115.659 165.089 115.377 165.481 115.188 165.977C115.002 166.47 114.909 167.023 114.909 167.636C114.909 168.258 115.004 168.822 115.193 169.33C115.386 169.833 115.67 170.235 116.045 170.534C116.424 170.83 116.894 170.977 117.455 170.977ZM127.46 172.182C126.672 172.182 125.981 171.994 125.386 171.619C124.795 171.244 124.333 170.72 124 170.045C123.67 169.371 123.506 168.583 123.506 167.682C123.506 166.773 123.67 165.979 124 165.301C124.333 164.623 124.795 164.097 125.386 163.722C125.981 163.347 126.672 163.159 127.46 163.159C128.248 163.159 128.938 163.347 129.528 163.722C130.123 164.097 130.585 164.623 130.915 165.301C131.248 165.979 131.415 166.773 131.415 167.682C131.415 168.583 131.248 169.371 130.915 170.045C130.585 170.72 130.123 171.244 129.528 171.619C128.938 171.994 128.248 172.182 127.46 172.182ZM127.46 170.977C128.059 170.977 128.551 170.824 128.938 170.517C129.324 170.21 129.61 169.807 129.795 169.307C129.981 168.807 130.074 168.265 130.074 167.682C130.074 167.098 129.981 166.555 129.795 166.051C129.61 165.547 129.324 165.14 128.938 164.83C128.551 164.519 128.059 164.364 127.46 164.364C126.862 164.364 126.369 164.519 125.983 164.83C125.597 165.14 125.311 165.547 125.125 166.051C124.939 166.555 124.847 167.098 124.847 167.682C124.847 168.265 124.939 168.807 125.125 169.307C125.311 169.807 125.597 170.21 125.983 170.517C126.369 170.824 126.862 170.977 127.46 170.977ZM133.462 172V163.273H134.757V164.591H134.848C135.007 164.159 135.295 163.809 135.712 163.54C136.128 163.271 136.598 163.136 137.121 163.136C137.219 163.136 137.342 163.138 137.49 163.142C137.638 163.146 137.75 163.152 137.825 163.159V164.523C137.78 164.511 137.676 164.494 137.513 164.472C137.354 164.445 137.185 164.432 137.007 164.432C136.583 164.432 136.204 164.521 135.871 164.699C135.541 164.873 135.28 165.116 135.087 165.426C134.897 165.733 134.803 166.083 134.803 166.477V172H133.462Z" fill="#F6F4F3"/>
<circle cx="27" cy="79" r="5" fill="#F6F4F3"/>
<circle cx="27" cy="101" r="5" fill="#F6F4F3"/>
<circle cx="27" cy="123" r="5" fill="#F6F4F3"/>
<circle cx="27" cy="145" r="5" fill="#F6F4F3"/>
<circle cx="27" cy="167" r="5" fill="#F6F4F3"/>
</svg>
