<svg width="30" height="30" viewBox="0 0 30 30" fill="none" xmlns="http://www.w3.org/2000/svg">
<path d="M15 0C6.73467 0 0 6.73467 0 15C0 23.2653 6.73467 30 15 30C23.2653 30 30 23.2653 30 15C30 6.73467 23.2653 0 15 0Z" fill="#014979"/>
<path d="M22.6532 14.8481L21.1226 13.3174H18.0614L13.7757 6.42969L12.3981 6.8889L14.388 10.4093H11.1737C11.1737 10.4093 11.1737 9.18482 10.4084 9.18482C9.94917 9.18482 9.64305 9.79704 9.64305 10.4093C9.64305 10.4093 8.26555 10.4093 7.50025 11.6338C6.888 12.5522 5.35736 15.0011 5.35736 15.0011H1.98999L3.67372 20.8175H25.4083L28.3165 14.0827L22.6532 14.8481ZM9.94919 14.0827H8.5716L9.49003 12.7052H9.94919V14.0827ZM11.6328 14.0827H10.4084V12.7052H11.6328V14.0827ZM13.3166 14.0827H11.939V12.7052H13.3166V14.0827ZM15.0002 14.0827H13.7757V12.7052H15.0002V14.0827ZM15.3063 14.0827V12.7052H15.9186L16.8369 14.0827H15.3063Z" fill="#F6F4F3"/>
</svg>
