<svg width="178" height="68" viewBox="0 0 178 68" fill="none" xmlns="http://www.w3.org/2000/svg">
<rect x="1.5" y="1.5" width="174.496" height="65" fill="#FFC999"/>
<rect x="1.5" y="1.5" width="174.496" height="65" stroke="#E06900" stroke-width="3" stroke-dasharray="10 10"/>
<path d="M30.9796 26.3958C30.8266 26.3958 30.8266 26.3958 30.9796 26.3958L27.3061 31.7529C27.1531 31.906 27.1531 32.059 27.3061 32.2121L30.2143 42.6203C30.2143 42.9264 30.2143 43.0794 29.9082 43.2325L28.0714 43.8447C27.9184 43.9978 27.6123 43.8447 27.4592 43.6917L23.7857 37.11C23.6327 36.8039 23.1735 36.8039 23.0204 37.11L21.3368 39.0998C21.1837 39.2529 21.1837 39.406 21.1837 39.559L22.2551 43.2325C22.2551 43.3855 22.2552 43.6917 22.1021 43.6917L20.7245 44.61C20.5714 44.7631 20.2653 44.7631 20.1122 44.457L18.1224 41.2427C18.1224 41.0896 17.9694 41.0896 17.8163 41.0896L13.8368 39.8651C13.5306 39.7121 13.3776 39.559 13.5306 39.2529L14.1429 37.8753C14.1429 37.7223 14.449 37.5692 14.6021 37.5692H18.7347C18.8878 37.5692 19.0408 37.4162 19.1939 37.2631L20.4184 35.1202C20.5714 34.8141 20.4183 34.508 20.1122 34.508L12.3061 32.3651C12.1531 32.3651 12 32.059 12 31.906V30.2223C12 29.9162 12.153 29.7631 12.4592 29.7631H23.7857C23.9388 29.7631 24.0919 29.7631 24.0919 29.6101L28.2245 24.7121C28.5307 24.406 30.5205 22.7223 31.2858 23.4876C31.898 24.2529 30.9796 26.0896 30.9796 26.3958Z" fill="#B85600"/>
<path d="M67.6362 26.58C67.6362 27.18 67.6562 27.76 67.8562 28H66.3562C66.1562 27.76 66.1362 27.18 66.1362 26.58V23.8C66.1362 21.28 64.5362 21.24 63.2362 21.24H62.4962V28H60.9962V12H63.2362C66.9562 12 67.6562 13.44 67.6562 16.36V16.72C67.6562 18.64 67.2362 19.98 65.7762 20.64C66.9762 21.02 67.6362 21.92 67.6362 23.94V26.58ZM62.4962 19.74H63.2362C65.7562 19.74 66.1562 18.72 66.1562 16.72V16.36C66.1562 14.22 65.7562 13.5 63.2362 13.5H62.4962V19.74ZM75.5849 26.08C75.5849 26.92 75.5849 27.36 75.7849 28H74.3849C74.1849 27.7 74.0849 26.9 74.0849 26.54C73.7649 27.26 73.0649 28.2 71.5849 28.2C69.7449 28.2 68.9649 27 68.9649 24.18V15H70.4649V24.54C70.4649 25.94 70.8649 26.9 72.1249 26.9C73.5249 26.9 74.0849 25.64 74.0849 24.38V15H75.5849V26.08ZM79.6017 16.3V23.64C79.6017 25.6 79.5817 26.7 81.0017 26.7H81.9017V28H80.8617C78.2217 28 78.1017 26.4 78.1017 23.64V16.3H76.6017V15C77.7817 14.66 78.4617 13.38 78.4417 12H79.9417C79.9417 13.5 79.1617 14.74 78.4017 15H81.9017V16.3H79.6017ZM89.5545 26.12C89.5545 26.76 89.5545 27.16 89.7545 28H88.3545C88.1345 27.54 88.0545 26.9 88.0545 26.54C87.5345 27.64 86.6545 28.2 85.4345 28.2C83.8545 28.2 82.7345 27.14 82.7345 24.96C82.7345 20.5 88.0545 20.8 88.0545 18.12V18.1C88.0545 16.74 87.4345 16.1 86.4145 16.1C85.2345 16.1 84.6145 16.8 84.6145 18.5V19.06H83.1145V18.8C83.1145 16.58 83.7345 14.8 86.4145 14.8C88.9545 14.8 89.5545 16.58 89.5545 18.5V26.12ZM88.0545 24.98V20.34C87.5745 21.56 84.2345 22.16 84.2345 24.84C84.2345 25.96 84.6745 26.9 85.9745 26.9C87.3545 26.9 87.9945 25.4 88.0545 24.98ZM94.8195 20.72C96.2795 21.92 97.4795 22.86 97.4795 24.96C97.4795 26.36 97.0795 28.2 94.3195 28.2C91.5395 28.2 90.8595 26.76 90.8595 23.74H92.3595C92.3595 26.2 92.8595 26.9 94.3195 26.9C95.4795 26.9 95.9795 26.2 95.9795 24.96C95.9795 23.54 95.2395 22.94 93.4995 21.56C92.4195 20.7 90.9995 19.88 90.9995 17.76C90.9995 16.48 91.5995 14.8 94.1195 14.8C96.6395 14.8 97.4195 16.42 97.4195 19H95.9195C95.9195 16.5 95.2395 16.1 94.1195 16.1C93.2195 16.1 92.4995 16.64 92.4995 17.76C92.4995 19.18 93.4195 19.58 94.8195 20.72ZM109.301 26.12C109.301 26.76 109.301 27.16 109.501 28H108.101C107.881 27.54 107.801 26.9 107.801 26.54C107.281 27.64 106.401 28.2 105.181 28.2C103.601 28.2 102.481 27.14 102.481 24.96C102.481 20.5 107.801 20.8 107.801 18.12V18.1C107.801 16.74 107.181 16.1 106.161 16.1C104.981 16.1 104.361 16.8 104.361 18.5V19.06H102.861V18.8C102.861 16.58 103.481 14.8 106.161 14.8C108.701 14.8 109.301 16.58 109.301 18.5V26.12ZM107.801 24.98V20.34C107.321 21.56 103.981 22.16 103.981 24.84C103.981 25.96 104.421 26.9 105.721 26.9C107.101 26.9 107.741 25.4 107.801 24.98ZM116.746 12.34L111.246 13.8L111.046 13.04L116.546 11.56L116.746 12.34ZM113.946 14.8C116.366 14.8 117.226 16.28 117.226 19.5V21.66H112.106V23.94C112.106 26.34 112.846 26.9 113.946 26.9C115.066 26.9 115.726 26.34 115.726 23.94V22.9H117.226V23.48C117.226 26.7 116.366 28.2 113.946 28.2C111.526 28.2 110.606 26.7 110.606 23.48V19.5C110.606 16.28 111.526 14.8 113.946 14.8ZM115.726 19.06C115.726 16.64 115.066 16.1 113.946 16.1C112.846 16.1 112.106 16.64 112.106 19.06V20.56H115.726V19.06ZM122.675 14.8C124.475 14.8 124.855 16.14 124.855 18.66V19.16H123.355V18.3C123.355 17.06 123.235 16.1 122.115 16.1C120.835 16.1 120.035 17.86 120.035 19.14V28H118.535V15H120.035V16.68C120.415 15.84 121.175 14.8 122.675 14.8ZM129.024 14.8C131.444 14.8 132.304 16.28 132.304 19.5V21.66H127.184V23.94C127.184 26.34 127.924 26.9 129.024 26.9C130.144 26.9 130.804 26.34 130.804 23.94V22.9H132.304V23.48C132.304 26.7 131.444 28.2 129.024 28.2C126.604 28.2 125.684 26.7 125.684 23.48V19.5C125.684 16.28 126.604 14.8 129.024 14.8ZM130.804 19.06C130.804 16.64 130.144 16.1 129.024 16.1C127.924 16.1 127.184 16.64 127.184 19.06V20.56H130.804V19.06ZM140.082 26.12C140.082 26.76 140.082 27.16 140.282 28H138.882C138.662 27.54 138.582 26.9 138.582 26.54C138.062 27.64 137.182 28.2 135.962 28.2C134.382 28.2 133.262 27.14 133.262 24.96C133.262 20.5 138.582 20.8 138.582 18.12V18.1C138.582 16.74 137.962 16.1 136.942 16.1C135.762 16.1 135.142 16.8 135.142 18.5V19.06H133.642V18.8C133.642 16.58 134.262 14.8 136.942 14.8C139.482 14.8 140.082 16.58 140.082 18.5V26.12ZM138.582 24.98V20.34C138.102 21.56 134.762 22.16 134.762 24.84C134.762 25.96 135.202 26.9 136.502 26.9C137.882 26.9 138.522 25.4 138.582 24.98ZM145.347 20.72C146.807 21.92 148.007 22.86 148.007 24.96C148.007 26.36 147.607 28.2 144.847 28.2C142.067 28.2 141.387 26.76 141.387 23.74H142.887C142.887 26.2 143.387 26.9 144.847 26.9C146.007 26.9 146.507 26.2 146.507 24.96C146.507 23.54 145.767 22.94 144.027 21.56C142.947 20.7 141.527 19.88 141.527 17.76C141.527 16.48 142.127 14.8 144.647 14.8C147.167 14.8 147.947 16.42 147.947 19H146.447C146.447 16.5 145.767 16.1 144.647 16.1C143.747 16.1 143.027 16.64 143.027 17.76C143.027 19.18 143.947 19.58 145.347 20.72ZM45.9963 38.8C48.4163 38.8 49.2763 40.28 49.2763 43.5V45.66H44.1563V47.94C44.1563 50.34 44.8963 50.9 45.9963 50.9C47.1163 50.9 47.7763 50.34 47.7763 47.94V46.9H49.2763V47.48C49.2763 50.7 48.4163 52.2 45.9963 52.2C43.5763 52.2 42.6563 50.7 42.6563 47.48V43.5C42.6563 40.28 43.5763 38.8 45.9963 38.8ZM47.7763 43.06C47.7763 40.64 47.1163 40.1 45.9963 40.1C44.8963 40.1 44.1563 40.64 44.1563 43.06V44.56H47.7763V43.06ZM49.4923 52L52.4923 45.5L49.4923 39H51.1123L53.4123 44.3L55.7123 39H57.3523L54.3323 45.5L57.3523 52H55.7123L53.4123 46.7L51.1123 52H49.4923ZM60.9884 40.3V47.64C60.9884 49.6 60.9684 50.7 62.3884 50.7H63.2884V52H62.2484C59.6084 52 59.4884 50.4 59.4884 47.64V40.3H57.9884V39C59.1684 38.66 59.8484 37.38 59.8284 36H61.3284C61.3284 37.5 60.5484 38.74 59.7884 39H63.2884V40.3H60.9884ZM68.5737 38.8C70.3737 38.8 70.7537 40.14 70.7537 42.66V43.16H69.2537V42.3C69.2537 41.06 69.1337 40.1 68.0137 40.1C66.7337 40.1 65.9337 41.86 65.9337 43.14V52H64.4337V39H65.9337V40.68C66.3137 39.84 67.0737 38.8 68.5737 38.8ZM78.0701 50.12C78.0701 50.76 78.0701 51.16 78.2701 52H76.8701C76.6501 51.54 76.5701 50.9 76.5701 50.54C76.0501 51.64 75.1701 52.2 73.9501 52.2C72.3701 52.2 71.2501 51.14 71.2501 48.96C71.2501 44.5 76.5701 44.8 76.5701 42.12V42.1C76.5701 40.74 75.9501 40.1 74.9301 40.1C73.7501 40.1 73.1301 40.8 73.1301 42.5V43.06H71.6301V42.8C71.6301 40.58 72.2501 38.8 74.9301 38.8C77.4701 38.8 78.0701 40.58 78.0701 42.5V50.12ZM76.5701 48.98V44.34C76.0901 45.56 72.7501 46.16 72.7501 48.84C72.7501 49.96 73.1901 50.9 74.4901 50.9C75.8701 50.9 76.5101 49.4 76.5701 48.98ZM84.4951 44.1V43.06C84.4951 40.64 83.8351 40.1 82.7151 40.1C81.6151 40.1 80.8751 40.64 80.8751 43.06V47.94C80.8751 50.34 81.6151 50.9 82.7151 50.9C83.8351 50.9 84.4951 50.34 84.4951 47.94V46.9H85.9951V47.48C85.9951 50.7 85.1351 52.2 82.7151 52.2C80.2951 52.2 79.3751 50.7 79.3751 47.48V43.5C79.3751 40.28 80.2951 38.8 82.7151 38.8C85.1351 38.8 85.9951 40.28 85.9951 43.5V44.1H84.4951ZM87.1485 47.48V43.5C87.1485 40.28 88.0285 38.8 90.4485 38.8C92.8685 38.8 93.7685 40.28 93.7685 43.5V47.48C93.7685 50.7 92.8685 52.2 90.4485 52.2C88.0285 52.2 87.1485 50.7 87.1485 47.48ZM88.6485 47.94C88.6485 50.34 89.3485 50.9 90.4485 50.9C91.5685 50.9 92.2685 50.34 92.2685 47.94V43.06C92.2685 40.64 91.5485 40.1 90.4485 40.1C89.3485 40.1 88.6485 40.64 88.6485 43.06V47.94ZM99.0582 38.8C100.898 38.8 101.698 39.98 101.698 42.8V52H100.198V42.46C100.198 41.04 99.7782 40.1 98.5382 40.1C97.1382 40.1 96.5782 41.34 96.5782 42.6V52H95.0782V39H96.5782V40.46C96.8982 39.74 97.5982 38.8 99.0582 38.8ZM105.344 40.3V47.64C105.344 49.6 105.324 50.7 106.744 50.7H107.644V52H106.604C103.964 52 103.844 50.4 103.844 47.64V40.3H102.344V39C103.524 38.66 104.204 37.38 104.184 36H105.684C105.684 37.5 104.904 38.74 104.144 39H107.644V40.3H105.344ZM109.529 37.5C109.049 37.5 108.629 37.12 108.629 36.66C108.629 36.18 109.049 35.8 109.529 35.8C110.029 35.8 110.429 36.18 110.429 36.66C110.429 37.12 110.029 37.5 109.529 37.5ZM108.789 39H110.289V52H108.789V39ZM115.562 38.8C117.402 38.8 118.202 39.98 118.202 42.8V52H116.702V42.46C116.702 41.04 116.282 40.1 115.042 40.1C113.642 40.1 113.082 41.34 113.082 42.6V52H111.582V39H113.082V40.46C113.402 39.74 114.102 38.8 115.562 38.8ZM122.852 38.8C125.272 38.8 126.132 40.28 126.132 43.5V45.66H121.012V47.94C121.012 50.34 121.752 50.9 122.852 50.9C123.972 50.9 124.632 50.34 124.632 47.94V46.9H126.132V47.48C126.132 50.7 125.272 52.2 122.852 52.2C120.432 52.2 119.512 50.7 119.512 47.48V43.5C119.512 40.28 120.432 38.8 122.852 38.8ZM124.632 43.06C124.632 40.64 123.972 40.1 122.852 40.1C121.752 40.1 121.012 40.64 121.012 43.06V44.56H124.632V43.06ZM131.421 38.8C133.261 38.8 134.061 39.98 134.061 42.8V52H132.561V42.46C132.561 41.04 132.141 40.1 130.901 40.1C129.501 40.1 128.941 41.34 128.941 42.6V52H127.441V39H128.941V40.46C129.261 39.74 129.961 38.8 131.421 38.8ZM137.707 40.3V47.64C137.707 49.6 137.687 50.7 139.107 50.7H140.007V52H138.967C136.327 52 136.207 50.4 136.207 47.64V40.3H134.707V39C135.887 38.66 136.567 37.38 136.547 36H138.047C138.047 37.5 137.267 38.74 136.507 39H140.007V40.3H137.707ZM147.66 50.12C147.66 50.76 147.66 51.16 147.86 52H146.46C146.24 51.54 146.16 50.9 146.16 50.54C145.64 51.64 144.76 52.2 143.54 52.2C141.96 52.2 140.84 51.14 140.84 48.96C140.84 44.5 146.16 44.8 146.16 42.12V42.1C146.16 40.74 145.54 40.1 144.52 40.1C143.34 40.1 142.72 40.8 142.72 42.5V43.06H141.22V42.8C141.22 40.58 141.84 38.8 144.52 38.8C147.06 38.8 147.66 40.58 147.66 42.5V50.12ZM146.16 48.98V44.34C145.68 45.56 142.34 46.16 142.34 48.84C142.34 49.96 142.78 50.9 144.08 50.9C145.46 50.9 146.1 49.4 146.16 48.98ZM149.16 36H150.66V52H149.16V36ZM155.293 38.8C157.713 38.8 158.573 40.28 158.573 43.5V45.66H153.453V47.94C153.453 50.34 154.193 50.9 155.293 50.9C156.413 50.9 157.073 50.34 157.073 47.94V46.9H158.573V47.48C158.573 50.7 157.713 52.2 155.293 52.2C152.873 52.2 151.953 50.7 151.953 47.48V43.5C151.953 40.28 152.873 38.8 155.293 38.8ZM157.073 43.06C157.073 40.64 156.413 40.1 155.293 40.1C154.193 40.1 153.453 40.64 153.453 43.06V44.56H157.073V43.06ZM163.687 44.72C165.147 45.92 166.347 46.86 166.347 48.96C166.347 50.36 165.947 52.2 163.187 52.2C160.407 52.2 159.727 50.76 159.727 47.74H161.227C161.227 50.2 161.727 50.9 163.187 50.9C164.347 50.9 164.847 50.2 164.847 48.96C164.847 47.54 164.107 46.94 162.367 45.56C161.287 44.7 159.867 43.88 159.867 41.76C159.867 40.48 160.467 38.8 162.987 38.8C165.507 38.8 166.287 40.42 166.287 43H164.787C164.787 40.5 164.107 40.1 162.987 40.1C162.087 40.1 161.367 40.64 161.367 41.76C161.367 43.18 162.287 43.58 163.687 44.72Z" fill="#B85600"/>
</svg>
