<svg width="30" height="30" viewBox="0 0 30 30" fill="none" xmlns="http://www.w3.org/2000/svg">
<path d="M15 0C6.73468 0 0 6.73468 0 15C0 23.2653 6.73468 30 15 30C23.2653 30 30 23.2653 30 15C30 6.73468 23.2653 0 15 0Z" fill="#FF7F11"/>
<path d="M20.0506 10.2544C20.0506 9.9483 20.2037 9.64214 20.5098 9.64214C20.8159 9.64214 20.9691 9.9483 20.9691 10.2544C20.9691 10.8667 20.9691 11.3258 20.9691 11.9381C20.9691 12.0911 20.969 12.2442 21.2751 12.2442C21.8874 12.3973 22.1935 12.8565 22.3466 13.3156C22.3466 13.9279 22.0405 14.3871 21.4282 14.5401C21.1221 14.5401 21.1221 14.6932 21.1221 14.9993C21.1221 15.9177 21.1221 16.8361 21.2751 17.9075C21.2751 19.4381 21.2752 21.1217 21.4282 22.6524C21.4282 23.8768 21.4282 25.1014 21.5813 26.3259C21.5813 26.4789 21.5813 26.785 21.4282 26.785C21.1221 26.9381 20.6629 26.7851 20.6629 26.3259C20.6629 26.0197 20.6629 25.5605 20.6629 25.2544C20.6629 23.5707 20.6629 22.0401 20.5098 20.3564C20.5098 18.6728 20.3568 16.836 20.3568 15.1523C20.3568 14.9992 20.3568 14.9993 20.0506 14.9993C18.52 14.9993 17.1425 14.6932 15.6119 14.234C15.3058 14.0809 15.3058 14.0809 15.3058 14.387C15.1527 14.9992 15.1527 15.6115 14.9996 16.2238C14.9996 16.5299 14.9997 16.6829 15.3058 16.9891C16.0711 17.6013 16.6833 18.2136 17.4486 18.8258C17.6016 18.9789 17.7547 19.1319 17.7547 19.285C17.7547 21.4278 17.7547 23.5707 17.7547 25.7136C17.7547 26.632 16.9895 27.2442 16.0711 27.2442C15.1527 27.2442 14.3874 26.4789 14.3874 25.7136C14.3874 24.336 14.3874 22.8054 14.3874 21.4279C14.3874 21.1218 14.3874 20.9687 14.0813 20.9687C13.9282 20.8157 13.7751 20.8156 13.622 20.6626C13.469 20.5095 13.4691 20.5095 13.316 20.6626C13.0099 21.5809 12.5506 22.4993 12.0914 23.4177C11.6323 24.336 11.3261 25.2544 10.867 26.3259C10.5608 26.9381 9.79551 27.3973 9.03021 27.0912C8.2649 26.7851 7.95882 26.1728 8.11188 25.4074C8.418 24.183 8.8772 22.9585 9.18333 21.887C9.48945 20.6626 9.94865 19.5911 10.2548 18.3667C10.2548 18.2136 10.2548 18.2136 10.2548 18.0605C10.1017 17.6013 10.1017 17.1422 10.1017 16.836C10.4078 14.9993 10.5608 13.1625 10.867 11.3258C11.02 9.94822 12.0915 9.02989 13.316 8.87683C14.6936 8.72377 15.7649 9.48909 16.2241 10.7136C16.3772 11.3258 16.8364 11.785 17.2956 12.2442C17.7547 12.5503 18.367 12.7034 18.8262 12.7034C19.1323 12.7034 19.2854 12.7034 19.5915 12.7034C19.7445 12.7034 19.7445 12.7034 19.7445 12.5503C20.0506 11.9381 19.8976 10.7136 20.0506 10.2544Z" fill="#F6F4F3"/>
<path d="M14.3871 8.11135C12.8565 8.11135 11.7852 7.0399 11.7852 5.50929C11.7852 4.13174 13.0096 2.90723 14.3871 2.90723C15.9177 2.90723 16.9892 3.97868 16.9892 5.50929C16.9892 7.0399 15.7647 8.11135 14.3871 8.11135Z" fill="#F6F4F3"/>
<path d="M7.65283 14.3873C7.65283 13.9281 7.80591 13.622 7.95897 13.1628C8.11203 12.0914 8.26504 11.173 8.57116 10.1016C8.72422 9.03013 9.94877 8.26483 11.0202 8.57095C11.1733 8.57095 11.1733 8.72407 11.0202 8.72407C10.408 9.48937 10.2548 10.2546 10.1018 11.173C9.94872 12.3975 9.79567 13.7751 9.64261 14.9995C9.64261 15.3057 9.48959 15.7649 9.48959 16.071C9.48959 16.3771 9.33651 16.224 9.18345 16.224C8.41814 16.071 7.80586 15.4588 7.80586 14.5404C7.65279 14.6934 7.65283 14.5403 7.65283 14.3873Z" fill="#F6F4F3"/>
</svg>
