<svg width="43" height="43" viewBox="0 0 43 43" fill="none" xmlns="http://www.w3.org/2000/svg">
<g id="Group 154">
<circle id="Ellipse 102" cx="21.5" cy="21.5" r="21.5" fill="#B85600"/>
<path id="Vector" d="M3 18.8012H8.55C8.89578 17.0637 9.5736 15.4128 10.5447 13.9431C11.5158 12.4734 12.7611 11.2137 14.2093 10.236C15.6576 9.25827 17.2804 8.58179 18.9849 8.24522C20.6894 7.90866 22.4421 7.91863 24.1429 8.27456C26.1514 8.67943 27.9221 9.59713 29.4286 10.7038L25.6229 14.6175C24.4336 13.8618 23.0329 13.4029 21.5 13.4029C18.17 13.4029 15.1571 15.5622 14.0471 18.8012H18.8571L10.9286 26.8986L3 18.8012ZM34.4764 24.1995C33.0229 31.5141 26.0457 36.2106 18.8571 34.7261C16.9511 34.2941 15.1521 33.4673 13.5714 32.2969L17.3771 28.3831C18.5929 29.1389 19.9936 29.5977 21.5 29.5977C24.8564 29.5977 27.8693 27.4384 28.9793 24.1995H24.1429L32.0714 16.102L40 24.1995H34.4764Z" fill="#D9D9D9"/>
</g>
</svg>
