<svg width="40" height="40" viewBox="0 0 40 40" fill="none" xmlns="http://www.w3.org/2000/svg">
<g id="Group 94">
<circle id="Ellipse 62" cx="20" cy="20" r="20" fill="#F6F4F3"/>
<g id="Group 8">
<path id="Vector" d="M17.6667 24.8152C17.5404 24.4646 17.4144 24.1138 17.2878 23.7632C16.5734 21.7868 15.8591 19.8103 15.1447 17.8339C14.6604 16.4941 14.1836 15.1515 13.6881 13.8158C13.403 13.0473 13.653 12.3208 14.1611 11.8837C15.0463 11.1219 16.4442 11.4845 16.8534 12.5757C17.7665 15.0104 18.6841 17.4435 19.5999 19.8771C19.6015 19.8811 19.6047 19.8846 19.6221 19.9113C19.6079 19.7478 19.6031 19.6065 19.5827 19.4675C19.4296 18.4201 20.2483 17.4905 21.308 17.5119C22.0184 17.5261 22.6568 18.0094 22.8808 18.7009C22.9585 18.9411 23.0384 19.1808 23.1283 19.4539C23.1985 19.2471 23.1704 19.0184 23.2347 18.8059C23.3028 18.5807 23.4179 18.3691 23.5723 18.1908C23.855 17.8641 24.2674 17.653 24.6981 17.6113C25.6095 17.5231 26.418 18.1898 26.536 19.0574C26.569 19.2992 26.6333 19.5367 26.6931 19.7769C26.6937 19.5017 26.7387 19.2375 26.8463 18.9833C27.1037 18.3741 27.7365 17.9619 28.4171 17.9653C29.0813 17.9688 29.7255 18.3915 29.9609 19.0007C30.4261 20.2047 30.6442 21.4506 30.9238 22.7035C31.2818 24.3064 31.7495 25.8749 32.2365 27.4425C32.5194 28.3534 32.4912 29.2504 32.1796 30.1431C31.7959 31.2424 31.104 32.1246 30.2162 32.8626C29.1484 33.75 27.9237 34.3199 26.5674 34.6064C25.2073 34.8936 23.8603 34.8597 22.541 34.3873C21.8376 34.1356 21.2166 33.7508 20.6816 33.2268C19.7219 32.2871 18.7911 31.3204 17.9102 30.3066C17.3661 29.6806 16.8491 29.0324 16.3353 28.3817C15.8357 27.749 15.2654 27.1879 14.6392 26.6794C13.8635 26.0494 13.1062 25.3974 12.358 24.7353C12.0041 24.4221 11.9384 24.0034 12.0204 23.5586C12.1271 22.9801 12.3827 22.7238 13.0163 22.6255C14.0193 22.47 14.972 22.6699 15.8382 23.1781C16.523 23.5799 17.1106 24.1117 17.5857 24.7556C17.6037 24.7802 17.6235 24.8032 17.6426 24.827C17.6506 24.8232 17.6587 24.8192 17.6667 24.8155V24.8152Z" fill="#333333"/>
<path id="Vector_2" d="M7.3125 12.8145C7.32698 11.0785 7.85444 9.51247 8.92278 8.14148C10.0751 6.66255 11.5856 5.7319 13.4273 5.3637C15.1228 5.02463 16.7583 5.24239 18.2954 6.0349C20.5109 7.17717 21.8616 8.98502 22.3483 11.4221C22.617 12.7672 22.4891 14.0877 22.0289 15.378C22.0096 15.4325 21.9954 15.4886 21.9788 15.5442C21.8731 15.8931 21.5428 16.0804 21.2199 15.9744C20.8807 15.8629 20.7174 15.5084 20.8525 15.1637C21.1035 14.5238 21.2467 13.8598 21.2824 13.1755C21.3207 12.4407 21.2328 11.7168 21.0134 11.0133C20.4516 9.21187 19.3173 7.89486 17.6143 7.07189C16.6376 6.60002 15.5991 6.39642 14.5181 6.46829C12.9333 6.57357 11.5555 7.17503 10.4239 8.28951C9.37597 9.32169 8.74902 10.5765 8.56345 12.0361C8.3449 13.7542 8.76162 15.316 9.79563 16.7046C10.5006 17.6513 11.407 18.35 12.5139 18.7815C12.8344 18.9063 12.9845 19.2347 12.8658 19.5431C12.7467 19.8519 12.4021 20.0101 12.0959 19.8768C11.3893 19.5692 10.7186 19.1984 10.1204 18.7081C9.2553 17.9995 8.56828 17.1474 8.08157 16.1424C7.66834 15.2893 7.41333 14.3899 7.33878 13.4416C7.32242 13.2324 7.31894 13.024 7.31277 12.814L7.3125 12.8145Z" fill="#333333"/>
<path id="Vector_3" d="M14.8697 8.85775C13.3709 8.92882 12.2278 9.59067 11.4957 10.9098C10.7363 12.2779 10.9439 14.0633 11.9765 15.2422C12.3589 15.6788 12.8075 16.0197 13.342 16.2508C13.641 16.3801 13.7705 16.7069 13.6544 17.0105C13.5426 17.3028 13.2275 17.4564 12.9202 17.36C12.6842 17.2859 12.4715 17.1614 12.2637 17.0302C10.9194 16.1811 10.1104 14.9696 9.90314 13.4022C9.67923 11.7085 10.2083 10.2429 11.4386 9.052C12.2527 8.26404 13.2411 7.80553 14.3755 7.70346C16.1321 7.54528 17.5998 8.14273 18.7531 9.46616C19.4232 10.2349 19.7976 11.1455 19.914 12.1611C20.0006 12.9175 19.9105 13.6521 19.6667 14.3698C19.5721 14.6487 19.3219 14.8066 19.0475 14.7764C18.7579 14.7444 18.5523 14.5418 18.5099 14.2485C18.4946 14.1434 18.5249 14.0459 18.5549 13.9479C19.0189 12.4315 18.6981 11.0921 17.5933 9.96261C16.9766 9.33202 16.2003 8.98039 15.314 8.88527C15.1668 8.86951 15.0206 8.85962 14.8697 8.85802V8.85775Z" fill="#333333"/>
</g>
</g>
</svg>
