<svg width="211" height="129" viewBox="0 0 211 129" fill="none" xmlns="http://www.w3.org/2000/svg">
<path d="M209.371 2H2.00114V127H181.016H209.371V2Z" fill="#014979" stroke="#F6F4F3" stroke-width="3" stroke-dasharray="10 10"/>
<path d="M57.7662 18.3636C57.7066 17.8598 57.4646 17.4688 57.0404 17.1903C56.6161 16.9119 56.0958 16.7727 55.4793 16.7727C55.0285 16.7727 54.6341 16.8456 54.296 16.9915C53.9613 17.1373 53.6995 17.3378 53.5105 17.593C53.3249 17.8482 53.2321 18.1383 53.2321 18.4631C53.2321 18.7348 53.2968 18.9685 53.426 19.1641C53.5586 19.3563 53.7276 19.517 53.9331 19.6463C54.1386 19.7723 54.354 19.8767 54.5794 19.9595C54.8048 20.0391 55.012 20.1037 55.2009 20.1534L56.235 20.4318C56.5001 20.5014 56.7951 20.5975 57.1199 20.7202C57.448 20.8428 57.7612 21.0102 58.0595 21.2223C58.3611 21.4311 58.6097 21.6996 58.8053 22.0277C59.0008 22.3558 59.0986 22.7585 59.0986 23.2358C59.0986 23.786 58.9544 24.2831 58.6661 24.7273C58.381 25.1714 57.9634 25.5244 57.4132 25.7862C56.8664 26.0481 56.2018 26.179 55.4196 26.179C54.6905 26.179 54.0591 26.0613 53.5254 25.826C52.9951 25.5907 52.5775 25.2625 52.2726 24.8416C51.971 24.4207 51.8003 23.9318 51.7605 23.375H53.0333C53.0664 23.7595 53.1957 24.0777 53.421 24.3295C53.6497 24.5781 53.9381 24.7637 54.2861 24.8864C54.6374 25.0057 55.0153 25.0653 55.4196 25.0653C55.8903 25.0653 56.3129 24.9891 56.6874 24.8366C57.0619 24.6809 57.3585 24.4654 57.5773 24.1903C57.796 23.9119 57.9054 23.5871 57.9054 23.2159C57.9054 22.8778 57.811 22.6027 57.622 22.3906C57.4331 22.1785 57.1845 22.0062 56.8763 21.8736C56.5681 21.741 56.235 21.625 55.877 21.5256L54.6242 21.1676C53.8287 20.9389 53.199 20.6125 52.735 20.1882C52.2709 19.764 52.0389 19.2088 52.0389 18.5227C52.0389 17.9527 52.1931 17.4555 52.5013 17.0312C52.8129 16.6037 53.2305 16.2723 53.7541 16.0369C54.2811 15.7983 54.8694 15.679 55.5191 15.679C56.1753 15.679 56.7586 15.7966 57.2691 16.032C57.7795 16.264 58.1838 16.5821 58.4821 16.9865C58.7837 17.3909 58.9428 17.8499 58.9594 18.3636H57.7662ZM61.2467 26V18.3636H62.42V26H61.2467ZM61.8433 17.0909C61.6146 17.0909 61.4174 17.013 61.2516 16.8572C61.0892 16.7015 61.008 16.5142 61.008 16.2955C61.008 16.0767 61.0892 15.8894 61.2516 15.7337C61.4174 15.5779 61.6146 15.5 61.8433 15.5C62.072 15.5 62.2675 15.5779 62.4299 15.7337C62.5956 15.8894 62.6785 16.0767 62.6785 16.2955C62.6785 16.5142 62.5956 16.7015 62.4299 16.8572C62.2675 17.013 62.072 17.0909 61.8433 17.0909ZM74.2767 28.8636V24.8267H74.1772C74.0911 24.9659 73.9684 25.1416 73.8093 25.3537C73.6502 25.5625 73.4232 25.7498 73.1282 25.9155C72.8332 26.0779 72.4405 26.1591 71.95 26.1591C71.3136 26.1591 70.7518 25.9983 70.2646 25.6768C69.7774 25.352 69.3962 24.8946 69.1211 24.3047C68.846 23.7114 68.7085 23.0104 68.7085 22.2017C68.7085 21.3996 68.846 20.7036 69.1211 20.1136C69.3962 19.5237 69.779 19.0679 70.2696 18.7464C70.7601 18.425 71.3269 18.2642 71.9698 18.2642C72.467 18.2642 72.8598 18.3471 73.1481 18.5128C73.4398 18.6752 73.6618 18.8608 73.8143 19.0696C73.9701 19.2751 74.0911 19.4441 74.1772 19.5767H74.3164V18.3636H75.45V28.8636H74.2767ZM72.1091 25.1051C72.5797 25.1051 72.9774 24.9825 73.3022 24.7372C73.627 24.4886 73.874 24.1456 74.043 23.7081C74.212 23.2673 74.2966 22.7585 74.2966 22.1818C74.2966 21.6117 74.2137 21.1129 74.048 20.6854C73.8823 20.2545 73.637 19.9197 73.3122 19.6811C72.9874 19.4392 72.5863 19.3182 72.1091 19.3182C71.6119 19.3182 71.1976 19.4458 70.8662 19.701C70.538 19.9529 70.2911 20.2959 70.1254 20.7301C69.963 21.161 69.8818 21.6449 69.8818 22.1818C69.8818 22.7254 69.9646 23.2192 70.1304 23.6634C70.2994 24.1042 70.548 24.4555 70.8761 24.7173C71.2075 24.9759 71.6185 25.1051 72.1091 25.1051ZM82.6902 22.8778V18.3636H83.8635V26H82.6902V24.7074H82.6106C82.4317 25.0952 82.1533 25.425 81.7754 25.6967C81.3976 25.9652 80.9203 26.0994 80.3436 26.0994C79.8663 26.0994 79.4421 25.995 79.0709 25.7862C78.6997 25.5741 78.408 25.2559 78.1959 24.8317C77.9837 24.4041 77.8777 23.8655 77.8777 23.2159V18.3636H79.051V23.1364C79.051 23.6932 79.2068 24.1373 79.5183 24.4688C79.8332 24.8002 80.2342 24.9659 80.7214 24.9659C81.0131 24.9659 81.3097 24.8913 81.6114 24.7422C81.9163 24.593 82.1715 24.3643 82.377 24.0561C82.5858 23.7479 82.6902 23.3551 82.6902 22.8778ZM86.2925 26V18.3636H87.4658V26H86.2925ZM86.889 17.0909C86.6604 17.0909 86.4631 17.013 86.2974 16.8572C86.135 16.7015 86.0538 16.5142 86.0538 16.2955C86.0538 16.0767 86.135 15.8894 86.2974 15.7337C86.4631 15.5779 86.6604 15.5 86.889 15.5C87.1177 15.5 87.3133 15.5779 87.4757 15.7337C87.6414 15.8894 87.7243 16.0767 87.7243 16.2955C87.7243 16.5142 87.6414 16.7015 87.4757 16.8572C87.3133 17.013 87.1177 17.0909 86.889 17.0909ZM93.0964 26.1591C92.3606 26.1591 91.7259 25.9967 91.1923 25.6719C90.662 25.3438 90.2527 24.8864 89.9643 24.2997C89.6793 23.7098 89.5368 23.0237 89.5368 22.2415C89.5368 21.4593 89.6793 20.7699 89.9643 20.1733C90.2527 19.5734 90.6537 19.1061 91.1674 18.7713C91.6845 18.4332 92.2877 18.2642 92.9771 18.2642C93.3748 18.2642 93.7676 18.3305 94.1554 18.4631C94.5432 18.5956 94.8961 18.8111 95.2143 19.1094C95.5325 19.4044 95.7861 19.7955 95.975 20.2827C96.1639 20.7699 96.2584 21.3698 96.2584 22.0824V22.5795H90.372V21.5653H95.0652C95.0652 21.1345 94.979 20.75 94.8067 20.4119C94.6376 20.0739 94.3957 19.8071 94.0808 19.6115C93.7692 19.416 93.4014 19.3182 92.9771 19.3182C92.5098 19.3182 92.1054 19.4342 91.764 19.6662C91.426 19.8949 91.1658 20.1932 90.9835 20.5611C90.8012 20.929 90.7101 21.3234 90.7101 21.7443V22.4205C90.7101 22.9972 90.8095 23.486 91.0084 23.8871C91.2105 24.2848 91.4906 24.5881 91.8486 24.7969C92.2065 25.0024 92.6225 25.1051 93.0964 25.1051C93.4047 25.1051 93.6831 25.062 93.9317 24.9759C94.1835 24.8864 94.4006 24.7538 94.5829 24.5781C94.7652 24.3991 94.9061 24.1771 95.0055 23.9119L96.139 24.2301C96.0197 24.6146 95.8192 24.9527 95.5375 25.2443C95.2558 25.5327 94.9077 25.758 94.4934 25.9205C94.0791 26.0795 93.6135 26.1591 93.0964 26.1591ZM98.3232 26V18.3636H99.4567V19.517H99.5362C99.6754 19.1392 99.9273 18.8326 100.292 18.5973C100.656 18.362 101.067 18.2443 101.525 18.2443C101.611 18.2443 101.719 18.246 101.848 18.2493C101.977 18.2526 102.075 18.2576 102.141 18.2642V19.4574C102.102 19.4474 102.01 19.4325 101.868 19.4126C101.729 19.3894 101.581 19.3778 101.425 19.3778C101.054 19.3778 100.723 19.4557 100.431 19.6115C100.143 19.764 99.9141 19.9761 99.745 20.2479C99.5793 20.5163 99.4965 20.8229 99.4965 21.1676V26H98.3232ZM106.781 26.1591C106.046 26.1591 105.411 25.9967 104.877 25.6719C104.347 25.3438 103.938 24.8864 103.649 24.2997C103.364 23.7098 103.222 23.0237 103.222 22.2415C103.222 21.4593 103.364 20.7699 103.649 20.1733C103.938 19.5734 104.339 19.1061 104.852 18.7713C105.369 18.4332 105.973 18.2642 106.662 18.2642C107.06 18.2642 107.453 18.3305 107.84 18.4631C108.228 18.5956 108.581 18.8111 108.899 19.1094C109.218 19.4044 109.471 19.7955 109.66 20.2827C109.849 20.7699 109.943 21.3698 109.943 22.0824V22.5795H104.057V21.5653H108.75C108.75 21.1345 108.664 20.75 108.492 20.4119C108.323 20.0739 108.081 19.8071 107.766 19.6115C107.454 19.416 107.086 19.3182 106.662 19.3182C106.195 19.3182 105.79 19.4342 105.449 19.6662C105.111 19.8949 104.851 20.1932 104.669 20.5611C104.486 20.929 104.395 21.3234 104.395 21.7443V22.4205C104.395 22.9972 104.494 23.486 104.693 23.8871C104.896 24.2848 105.176 24.5881 105.534 24.7969C105.892 25.0024 106.307 25.1051 106.781 25.1051C107.09 25.1051 107.368 25.062 107.617 24.9759C107.869 24.8864 108.086 24.7538 108.268 24.5781C108.45 24.3991 108.591 24.1771 108.691 23.9119L109.824 24.2301C109.705 24.6146 109.504 24.9527 109.222 25.2443C108.941 25.5327 108.593 25.758 108.178 25.9205C107.764 26.0795 107.298 26.1591 106.781 26.1591ZM117.417 20.0739L116.363 20.3722C116.297 20.1965 116.199 20.0258 116.07 19.8601C115.944 19.6911 115.772 19.5518 115.553 19.4425C115.334 19.3331 115.054 19.2784 114.713 19.2784C114.245 19.2784 113.856 19.3861 113.544 19.6016C113.236 19.8137 113.082 20.0838 113.082 20.4119C113.082 20.7036 113.188 20.9339 113.4 21.103C113.612 21.272 113.944 21.4129 114.395 21.5256L115.528 21.804C116.211 21.9697 116.72 22.2232 117.054 22.5646C117.389 22.9027 117.556 23.3385 117.556 23.8722C117.556 24.3097 117.431 24.7008 117.179 25.0455C116.93 25.3902 116.582 25.6619 116.135 25.8608C115.687 26.0597 115.167 26.1591 114.574 26.1591C113.795 26.1591 113.15 25.9901 112.64 25.652C112.129 25.3139 111.806 24.8201 111.67 24.1705L112.784 23.892C112.89 24.303 113.09 24.6113 113.385 24.8168C113.684 25.0223 114.073 25.125 114.554 25.125C115.1 25.125 115.535 25.009 115.856 24.777C116.181 24.5417 116.343 24.2599 116.343 23.9318C116.343 23.6667 116.251 23.4446 116.065 23.2656C115.879 23.0833 115.594 22.9474 115.21 22.858L113.937 22.5597C113.238 22.3939 112.724 22.1371 112.396 21.7891C112.071 21.4377 111.909 20.9986 111.909 20.4716C111.909 20.0407 112.03 19.6596 112.272 19.3281C112.517 18.9967 112.85 18.7365 113.271 18.5476C113.695 18.3587 114.176 18.2642 114.713 18.2642C115.468 18.2642 116.062 18.4299 116.493 18.7614C116.927 19.0928 117.235 19.5303 117.417 20.0739ZM129.229 20.0739L128.175 20.3722C128.109 20.1965 128.011 20.0258 127.882 19.8601C127.756 19.6911 127.584 19.5518 127.365 19.4425C127.146 19.3331 126.866 19.2784 126.525 19.2784C126.057 19.2784 125.668 19.3861 125.356 19.6016C125.048 19.8137 124.894 20.0838 124.894 20.4119C124.894 20.7036 125 20.9339 125.212 21.103C125.424 21.272 125.756 21.4129 126.206 21.5256L127.34 21.804C128.023 21.9697 128.532 22.2232 128.866 22.5646C129.201 22.9027 129.368 23.3385 129.368 23.8722C129.368 24.3097 129.242 24.7008 128.991 25.0455C128.742 25.3902 128.394 25.6619 127.947 25.8608C127.499 26.0597 126.979 26.1591 126.385 26.1591C125.607 26.1591 124.962 25.9901 124.452 25.652C123.941 25.3139 123.618 24.8201 123.482 24.1705L124.596 23.892C124.702 24.303 124.902 24.6113 125.197 24.8168C125.496 25.0223 125.885 25.125 126.366 25.125C126.912 25.125 127.347 25.009 127.668 24.777C127.993 24.5417 128.155 24.2599 128.155 23.9318C128.155 23.6667 128.063 23.4446 127.877 23.2656C127.691 23.0833 127.406 22.9474 127.022 22.858L125.749 22.5597C125.05 22.3939 124.536 22.1371 124.208 21.7891C123.883 21.4377 123.721 20.9986 123.721 20.4716C123.721 20.0407 123.842 19.6596 124.084 19.3281C124.329 18.9967 124.662 18.7365 125.083 18.5476C125.507 18.3587 125.988 18.2642 126.525 18.2642C127.28 18.2642 127.874 18.4299 128.304 18.7614C128.739 19.0928 129.047 19.5303 129.229 20.0739ZM133.662 26.179C133.178 26.179 132.739 26.0878 132.344 25.9055C131.95 25.7199 131.637 25.4531 131.405 25.1051C131.173 24.7538 131.057 24.3295 131.057 23.8324C131.057 23.3949 131.143 23.0402 131.315 22.7685C131.487 22.4934 131.718 22.2779 132.006 22.1222C132.295 21.9664 132.613 21.8504 132.961 21.7741C133.312 21.6946 133.665 21.6316 134.02 21.5852C134.484 21.5256 134.86 21.4808 135.148 21.451C135.44 21.4179 135.652 21.3632 135.785 21.2869C135.92 21.2107 135.988 21.0781 135.988 20.8892V20.8494C135.988 20.3589 135.854 19.9777 135.586 19.706C135.321 19.4342 134.918 19.2983 134.378 19.2983C133.817 19.2983 133.378 19.4209 133.06 19.6662C132.742 19.9115 132.518 20.1733 132.389 20.4517L131.275 20.054C131.474 19.59 131.739 19.2287 132.071 18.9702C132.406 18.7083 132.77 18.526 133.165 18.4233C133.562 18.3172 133.953 18.2642 134.338 18.2642C134.583 18.2642 134.865 18.294 135.183 18.3537C135.505 18.41 135.814 18.5277 136.113 18.7067C136.414 18.8857 136.665 19.1558 136.863 19.517C137.062 19.8783 137.162 20.3622 137.162 20.9688V26H135.988V24.9659H135.929C135.849 25.1316 135.717 25.3089 135.531 25.4979C135.345 25.6868 135.099 25.8475 134.79 25.9801C134.482 26.1127 134.106 26.179 133.662 26.179ZM133.841 25.125C134.305 25.125 134.696 25.0339 135.014 24.8516C135.335 24.6693 135.577 24.4339 135.74 24.1456C135.906 23.8572 135.988 23.554 135.988 23.2358V22.1619C135.939 22.2216 135.829 22.2763 135.66 22.326C135.495 22.3724 135.302 22.4138 135.084 22.4503C134.868 22.4834 134.658 22.5133 134.452 22.5398C134.25 22.563 134.086 22.5829 133.96 22.5994C133.655 22.6392 133.37 22.7038 133.105 22.7933C132.843 22.8795 132.631 23.0104 132.469 23.1861C132.309 23.3584 132.23 23.5937 132.23 23.892C132.23 24.2997 132.381 24.608 132.682 24.8168C132.987 25.0223 133.373 25.125 133.841 25.125ZM139.742 26V15.8182H140.916V19.5767H141.015C141.101 19.4441 141.221 19.2751 141.373 19.0696C141.529 18.8608 141.751 18.6752 142.039 18.5128C142.331 18.3471 142.725 18.2642 143.222 18.2642C143.865 18.2642 144.432 18.425 144.923 18.7464C145.413 19.0679 145.796 19.5237 146.071 20.1136C146.346 20.7036 146.484 21.3996 146.484 22.2017C146.484 23.0104 146.346 23.7114 146.071 24.3047C145.796 24.8946 145.415 25.352 144.928 25.6768C144.44 25.9983 143.879 26.1591 143.242 26.1591C142.752 26.1591 142.359 26.0779 142.064 25.9155C141.769 25.7498 141.542 25.5625 141.383 25.3537C141.224 25.1416 141.101 24.9659 141.015 24.8267H140.876V26H139.742ZM140.896 22.1818C140.896 22.7585 140.98 23.2673 141.149 23.7081C141.318 24.1456 141.565 24.4886 141.89 24.7372C142.215 24.9825 142.613 25.1051 143.083 25.1051C143.574 25.1051 143.983 24.9759 144.311 24.7173C144.643 24.4555 144.891 24.1042 145.057 23.6634C145.226 23.2192 145.311 22.7254 145.311 22.1818C145.311 21.6449 145.228 21.161 145.062 20.7301C144.9 20.2959 144.653 19.9529 144.321 19.701C143.993 19.4458 143.58 19.3182 143.083 19.3182C142.606 19.3182 142.205 19.4392 141.88 19.6811C141.555 19.9197 141.31 20.2545 141.144 20.6854C140.979 21.1129 140.896 21.6117 140.896 22.1818ZM151.76 26.1591C151.024 26.1591 150.39 25.9967 149.856 25.6719C149.326 25.3438 148.916 24.8864 148.628 24.2997C148.343 23.7098 148.201 23.0237 148.201 22.2415C148.201 21.4593 148.343 20.7699 148.628 20.1733C148.916 19.5734 149.318 19.1061 149.831 18.7713C150.348 18.4332 150.952 18.2642 151.641 18.2642C152.039 18.2642 152.431 18.3305 152.819 18.4631C153.207 18.5956 153.56 18.8111 153.878 19.1094C154.196 19.4044 154.45 19.7955 154.639 20.2827C154.828 20.7699 154.922 21.3698 154.922 22.0824V22.5795H149.036V21.5653H153.729C153.729 21.1345 153.643 20.75 153.47 20.4119C153.301 20.0739 153.059 19.8071 152.745 19.6115C152.433 19.416 152.065 19.3182 151.641 19.3182C151.174 19.3182 150.769 19.4342 150.428 19.6662C150.09 19.8949 149.83 20.1932 149.647 20.5611C149.465 20.929 149.374 21.3234 149.374 21.7443V22.4205C149.374 22.9972 149.473 23.486 149.672 23.8871C149.874 24.2848 150.154 24.5881 150.512 24.7969C150.87 25.0024 151.286 25.1051 151.76 25.1051C152.068 25.1051 152.347 25.062 152.595 24.9759C152.847 24.8864 153.064 24.7538 153.247 24.5781C153.429 24.3991 153.57 24.1771 153.669 23.9119L154.803 24.2301C154.684 24.6146 154.483 24.9527 154.201 25.2443C153.92 25.5327 153.572 25.758 153.157 25.9205C152.743 26.0795 152.277 26.1591 151.76 26.1591ZM156.987 26V18.3636H158.121V19.517H158.2C158.339 19.1392 158.591 18.8326 158.956 18.5973C159.32 18.362 159.731 18.2443 160.189 18.2443C160.275 18.2443 160.383 18.246 160.512 18.2493C160.641 18.2526 160.739 18.2576 160.805 18.2642V19.4574C160.765 19.4474 160.674 19.4325 160.532 19.4126C160.393 19.3894 160.245 19.3778 160.089 19.3778C159.718 19.3778 159.387 19.4557 159.095 19.6115C158.807 19.764 158.578 19.9761 158.409 20.2479C158.243 20.5163 158.16 20.8229 158.16 21.1676V26H156.987ZM47.3427 43V35.3636H48.4762V36.5568H48.5756C48.7347 36.1491 48.9916 35.8326 49.3462 35.6072C49.7008 35.3786 50.1267 35.2642 50.6239 35.2642C51.1277 35.2642 51.547 35.3786 51.8817 35.6072C52.2198 35.8326 52.4833 36.1491 52.6722 36.5568H52.7517C52.9473 36.1624 53.2406 35.8492 53.6317 35.6172C54.0228 35.3819 54.4918 35.2642 55.0387 35.2642C55.7214 35.2642 56.2799 35.478 56.7141 35.9055C57.1483 36.3298 57.3654 36.991 57.3654 37.8892V43H56.1921V37.8892C56.1921 37.3258 56.038 36.9231 55.7297 36.6811C55.4215 36.4392 55.0586 36.3182 54.6409 36.3182C54.104 36.3182 53.6881 36.4806 53.3931 36.8054C53.0981 37.1269 52.9506 37.5346 52.9506 38.0284V43H51.7574V37.7699C51.7574 37.3357 51.6166 36.986 51.3348 36.7209C51.0531 36.4524 50.6902 36.3182 50.2461 36.3182C49.9411 36.3182 49.6561 36.3994 49.3909 36.5618C49.1291 36.7242 48.917 36.9496 48.7546 37.2379C48.5955 37.523 48.5159 37.8527 48.5159 38.2273V43H47.3427ZM62.0378 43.179C61.5539 43.179 61.1147 43.0878 60.7203 42.9055C60.3259 42.7199 60.0127 42.4531 59.7807 42.1051C59.5487 41.7538 59.4327 41.3295 59.4327 40.8324C59.4327 40.3949 59.5188 40.0402 59.6912 39.7685C59.8635 39.4934 60.0939 39.2779 60.3822 39.1222C60.6706 38.9664 60.9888 38.8504 61.3368 38.7741C61.6881 38.6946 62.0411 38.6316 62.3957 38.5852C62.8597 38.5256 63.2359 38.4808 63.5243 38.451C63.816 38.4179 64.0281 38.3632 64.1606 38.2869C64.2965 38.2107 64.3645 38.0781 64.3645 37.8892V37.8494C64.3645 37.3589 64.2302 36.9777 63.9618 36.706C63.6966 36.4342 63.2939 36.2983 62.7537 36.2983C62.1936 36.2983 61.7544 36.4209 61.4362 36.6662C61.118 36.9115 60.8943 37.1733 60.7651 37.4517L59.6514 37.054C59.8503 36.59 60.1154 36.2287 60.4469 35.9702C60.7816 35.7083 61.1462 35.526 61.5406 35.4233C61.9383 35.3172 62.3294 35.2642 62.7139 35.2642C62.9592 35.2642 63.2409 35.294 63.5591 35.3537C63.8806 35.41 64.1905 35.5277 64.4888 35.7067C64.7904 35.8857 65.0406 36.1558 65.2395 36.517C65.4383 36.8783 65.5378 37.3622 65.5378 37.9688V43H64.3645V41.9659H64.3048C64.2253 42.1316 64.0927 42.3089 63.9071 42.4979C63.7215 42.6868 63.4746 42.8475 63.1663 42.9801C62.8581 43.1127 62.4819 43.179 62.0378 43.179ZM62.2168 42.125C62.6808 42.125 63.0719 42.0339 63.3901 41.8516C63.7115 41.6693 63.9535 41.4339 64.1159 41.1456C64.2816 40.8572 64.3645 40.554 64.3645 40.2358V39.1619C64.3148 39.2216 64.2054 39.2763 64.0364 39.326C63.8706 39.3724 63.6784 39.4138 63.4597 39.4503C63.2442 39.4834 63.0338 39.5133 62.8283 39.5398C62.6261 39.563 62.462 39.5829 62.3361 39.5994C62.0311 39.6392 61.7461 39.7038 61.481 39.7933C61.2191 39.8795 61.007 40.0104 60.8446 40.1861C60.6855 40.3584 60.606 40.5937 60.606 40.892C60.606 41.2997 60.7568 41.608 61.0584 41.8168C61.3633 42.0223 61.7494 42.125 62.2168 42.125ZM62.2565 34.3295L63.4696 32.0227H64.8418L63.2906 34.3295H62.2565ZM73.3684 37.0739L72.3144 37.3722C72.2481 37.1965 72.1503 37.0258 72.0211 36.8601C71.8951 36.6911 71.7228 36.5518 71.504 36.4425C71.2853 36.3331 71.0052 36.2784 70.6638 36.2784C70.1965 36.2784 69.8071 36.3861 69.4955 36.6016C69.1873 36.8137 69.0332 37.0838 69.0332 37.4119C69.0332 37.7036 69.1392 37.9339 69.3513 38.103C69.5635 38.272 69.8949 38.4129 70.3457 38.5256L71.4792 38.804C72.1619 38.9697 72.6707 39.2232 73.0055 39.5646C73.3402 39.9027 73.5076 40.3385 73.5076 40.8722C73.5076 41.3097 73.3816 41.7008 73.1297 42.0455C72.8812 42.3902 72.5332 42.6619 72.0857 42.8608C71.6383 43.0597 71.1179 43.1591 70.5246 43.1591C69.7457 43.1591 69.1011 42.9901 68.5907 42.652C68.0803 42.3139 67.7571 41.8201 67.6212 41.1705L68.7349 40.892C68.8409 41.303 69.0414 41.6113 69.3364 41.8168C69.6347 42.0223 70.0242 42.125 70.5047 42.125C71.0516 42.125 71.4858 42.009 71.8073 41.777C72.1321 41.5417 72.2945 41.2599 72.2945 40.9318C72.2945 40.6667 72.2017 40.4446 72.0161 40.2656C71.8305 40.0833 71.5455 39.9474 71.161 39.858L69.8883 39.5597C69.1889 39.3939 68.6752 39.1371 68.3471 38.7891C68.0223 38.4377 67.8599 37.9986 67.8599 37.4716C67.8599 37.0407 67.9808 36.6596 68.2228 36.3281C68.4681 35.9967 68.8011 35.7365 69.2221 35.5476C69.6463 35.3587 70.1269 35.2642 70.6638 35.2642C71.4195 35.2642 72.0128 35.4299 72.4437 35.7614C72.8779 36.0928 73.1861 36.5303 73.3684 37.0739ZM79.7712 43V35.3636H80.9445V43H79.7712ZM80.3678 34.0909C80.1391 34.0909 79.9419 34.013 79.7762 33.8572C79.6138 33.7015 79.5326 33.5142 79.5326 33.2955C79.5326 33.0767 79.6138 32.8894 79.7762 32.7337C79.9419 32.5779 80.1391 32.5 80.3678 32.5C80.5965 32.5 80.7921 32.5779 80.9545 32.7337C81.1202 32.8894 81.2031 33.0767 81.2031 33.2955C81.2031 33.5142 81.1202 33.7015 80.9545 33.8572C80.7921 34.013 80.5965 34.0909 80.3678 34.0909ZM84.5468 38.4062V43H83.3735V35.3636H84.507V36.5568H84.6065C84.7854 36.169 85.0572 35.8575 85.4218 35.6222C85.7864 35.3835 86.257 35.2642 86.8337 35.2642C87.3508 35.2642 87.8032 35.3703 88.191 35.5824C88.5788 35.7912 88.8804 36.1094 89.0958 36.5369C89.3112 36.9612 89.419 37.4981 89.419 38.1477V43H88.2457V38.2273C88.2457 37.6274 88.0899 37.16 87.7783 36.8253C87.4668 36.4872 87.0392 36.3182 86.4957 36.3182C86.1211 36.3182 85.7864 36.3994 85.4914 36.5618C85.1997 36.7242 84.9694 36.9612 84.8004 37.2727C84.6313 37.5843 84.5468 37.9621 84.5468 38.4062ZM94.9254 46.0227C94.3586 46.0227 93.8714 45.9498 93.4637 45.804C93.056 45.6615 92.7163 45.4725 92.4445 45.2372C92.1761 45.0052 91.9623 44.7566 91.8032 44.4915L92.7379 43.8352C92.8439 43.9744 92.9781 44.1335 93.1405 44.3125C93.303 44.4948 93.525 44.6522 93.8067 44.7848C94.0918 44.9207 94.4646 44.9886 94.9254 44.9886C95.5418 44.9886 96.0506 44.8395 96.4516 44.5412C96.8527 44.2429 97.0532 43.7756 97.0532 43.1392V41.5881H96.9538C96.8676 41.7273 96.745 41.8996 96.5859 42.1051C96.4301 42.3073 96.2047 42.4879 95.9097 42.647C95.6181 42.8028 95.2236 42.8807 94.7265 42.8807C94.11 42.8807 93.5565 42.7348 93.066 42.4432C92.5788 42.1515 92.1926 41.7273 91.9076 41.1705C91.6259 40.6136 91.485 39.9375 91.485 39.142C91.485 38.3598 91.6226 37.6787 91.8977 37.0987C92.1727 36.5154 92.5556 36.0646 93.0461 35.7464C93.5366 35.425 94.1034 35.2642 94.7464 35.2642C95.2435 35.2642 95.6379 35.3471 95.9296 35.5128C96.2246 35.6752 96.45 35.8608 96.6057 36.0696C96.7648 36.2751 96.8875 36.4441 96.9736 36.5767H97.093V35.3636H98.2265V43.2188C98.2265 43.875 98.0773 44.4086 97.779 44.8196C97.4841 45.2339 97.0863 45.5372 96.5859 45.7294C96.0887 45.925 95.5352 46.0227 94.9254 46.0227ZM94.8856 41.8267C95.3562 41.8267 95.7539 41.719 96.0788 41.5036C96.4036 41.2881 96.6505 40.9782 96.8195 40.5739C96.9886 40.1695 97.0731 39.6856 97.0731 39.1222C97.0731 38.572 96.9902 38.0864 96.8245 37.6655C96.6588 37.2446 96.4135 36.9148 96.0887 36.6761C95.7639 36.4375 95.3629 36.3182 94.8856 36.3182C94.3884 36.3182 93.9741 36.4441 93.6427 36.696C93.3146 36.9479 93.0676 37.286 92.9019 37.7102C92.7395 38.1345 92.6583 38.6051 92.6583 39.1222C92.6583 39.6525 92.7412 40.1214 92.9069 40.5291C93.0759 40.9335 93.3245 41.2517 93.6526 41.4837C93.9841 41.7124 94.395 41.8267 94.8856 41.8267ZM100.654 43V35.3636H101.788V36.517H101.867C102.006 36.1392 102.258 35.8326 102.623 35.5973C102.988 35.362 103.399 35.2443 103.856 35.2443C103.942 35.2443 104.05 35.246 104.179 35.2493C104.308 35.2526 104.406 35.2576 104.472 35.2642V36.4574C104.433 36.4474 104.341 36.4325 104.199 36.4126C104.06 36.3894 103.912 36.3778 103.756 36.3778C103.385 36.3778 103.054 36.4557 102.762 36.6115C102.474 36.764 102.245 36.9761 102.076 37.2479C101.91 37.5163 101.828 37.8229 101.828 38.1676V43H100.654ZM109.112 43.1591C108.377 43.1591 107.742 42.9967 107.208 42.6719C106.678 42.3438 106.269 41.8864 105.98 41.2997C105.695 40.7098 105.553 40.0237 105.553 39.2415C105.553 38.4593 105.695 37.7699 105.98 37.1733C106.269 36.5734 106.67 36.1061 107.184 35.7713C107.701 35.4332 108.304 35.2642 108.993 35.2642C109.391 35.2642 109.784 35.3305 110.171 35.4631C110.559 35.5956 110.912 35.8111 111.23 36.1094C111.549 36.4044 111.802 36.7955 111.991 37.2827C112.18 37.7699 112.274 38.3698 112.274 39.0824V39.5795H106.388V38.5653H111.081C111.081 38.1345 110.995 37.75 110.823 37.4119C110.654 37.0739 110.412 36.8071 110.097 36.6115C109.785 36.416 109.417 36.3182 108.993 36.3182C108.526 36.3182 108.121 36.4342 107.78 36.6662C107.442 36.8949 107.182 37.1932 107 37.5611C106.817 37.929 106.726 38.3234 106.726 38.7443V39.4205C106.726 39.9972 106.826 40.486 107.024 40.8871C107.227 41.2848 107.507 41.5881 107.865 41.7969C108.223 42.0024 108.639 42.1051 109.112 42.1051C109.421 42.1051 109.699 42.062 109.948 41.9759C110.2 41.8864 110.417 41.7538 110.599 41.5781C110.781 41.3991 110.922 41.1771 111.022 40.9119L112.155 41.2301C112.036 41.6146 111.835 41.9527 111.554 42.2443C111.272 42.5327 110.924 42.758 110.509 42.9205C110.095 43.0795 109.63 43.1591 109.112 43.1591ZM119.748 37.0739L118.694 37.3722C118.628 37.1965 118.53 37.0258 118.401 36.8601C118.275 36.6911 118.103 36.5518 117.884 36.4425C117.665 36.3331 117.385 36.2784 117.044 36.2784C116.576 36.2784 116.187 36.3861 115.875 36.6016C115.567 36.8137 115.413 37.0838 115.413 37.4119C115.413 37.7036 115.519 37.9339 115.731 38.103C115.943 38.272 116.275 38.4129 116.726 38.5256L117.859 38.804C118.542 38.9697 119.051 39.2232 119.385 39.5646C119.72 39.9027 119.888 40.3385 119.888 40.8722C119.888 41.3097 119.762 41.7008 119.51 42.0455C119.261 42.3902 118.913 42.6619 118.466 42.8608C118.018 43.0597 117.498 43.1591 116.905 43.1591C116.126 43.1591 115.481 42.9901 114.971 42.652C114.46 42.3139 114.137 41.8201 114.001 41.1705L115.115 40.892C115.221 41.303 115.421 41.6113 115.716 41.8168C116.015 42.0223 116.404 42.125 116.885 42.125C117.432 42.125 117.866 42.009 118.187 41.777C118.512 41.5417 118.674 41.2599 118.674 40.9318C118.674 40.6667 118.582 40.4446 118.396 40.2656C118.21 40.0833 117.925 39.9474 117.541 39.858L116.268 39.5597C115.569 39.3939 115.055 39.1371 114.727 38.7891C114.402 38.4377 114.24 37.9986 114.24 37.4716C114.24 37.0407 114.361 36.6596 114.603 36.3281C114.848 35.9967 115.181 35.7365 115.602 35.5476C116.026 35.3587 116.507 35.2642 117.044 35.2642C117.799 35.2642 118.393 35.4299 118.824 35.7614C119.258 36.0928 119.566 36.5303 119.748 37.0739ZM124.181 43.179C123.697 43.179 123.258 43.0878 122.863 42.9055C122.469 42.7199 122.156 42.4531 121.924 42.1051C121.692 41.7538 121.576 41.3295 121.576 40.8324C121.576 40.3949 121.662 40.0402 121.834 39.7685C122.007 39.4934 122.237 39.2779 122.525 39.1222C122.814 38.9664 123.132 38.8504 123.48 38.7741C123.831 38.6946 124.184 38.6316 124.539 38.5852C125.003 38.5256 125.379 38.4808 125.667 38.451C125.959 38.4179 126.171 38.3632 126.304 38.2869C126.44 38.2107 126.508 38.0781 126.508 37.8892V37.8494C126.508 37.3589 126.373 36.9777 126.105 36.706C125.84 36.4342 125.437 36.2983 124.897 36.2983C124.337 36.2983 123.897 36.4209 123.579 36.6662C123.261 36.9115 123.037 37.1733 122.908 37.4517L121.794 37.054C121.993 36.59 122.258 36.2287 122.59 35.9702C122.925 35.7083 123.289 35.526 123.684 35.4233C124.081 35.3172 124.472 35.2642 124.857 35.2642C125.102 35.2642 125.384 35.294 125.702 35.3537C126.024 35.41 126.334 35.5277 126.632 35.7067C126.933 35.8857 127.184 36.1558 127.383 36.517C127.581 36.8783 127.681 37.3622 127.681 37.9688V43H126.508V41.9659H126.448C126.368 42.1316 126.236 42.3089 126.05 42.4979C125.865 42.6868 125.618 42.8475 125.309 42.9801C125.001 43.1127 124.625 43.179 124.181 43.179ZM124.36 42.125C124.824 42.125 125.215 42.0339 125.533 41.8516C125.855 41.6693 126.097 41.4339 126.259 41.1456C126.425 40.8572 126.508 40.554 126.508 40.2358V39.1619C126.458 39.2216 126.348 39.2763 126.179 39.326C126.014 39.3724 125.821 39.4138 125.603 39.4503C125.387 39.4834 125.177 39.5133 124.971 39.5398C124.769 39.563 124.605 39.5829 124.479 39.5994C124.174 39.6392 123.889 39.7038 123.624 39.7933C123.362 39.8795 123.15 40.0104 122.988 40.1861C122.829 40.3584 122.749 40.5937 122.749 40.892C122.749 41.2997 122.9 41.608 123.201 41.8168C123.506 42.0223 123.892 42.125 124.36 42.125ZM136.567 43.179C136.083 43.179 135.644 43.0878 135.25 42.9055C134.855 42.7199 134.542 42.4531 134.31 42.1051C134.078 41.7538 133.962 41.3295 133.962 40.8324C133.962 40.3949 134.048 40.0402 134.22 39.7685C134.393 39.4934 134.623 39.2779 134.911 39.1222C135.2 38.9664 135.518 38.8504 135.866 38.7741C136.217 38.6946 136.57 38.6316 136.925 38.5852C137.389 38.5256 137.765 38.4808 138.054 38.451C138.345 38.4179 138.557 38.3632 138.69 38.2869C138.826 38.2107 138.894 38.0781 138.894 37.8892V37.8494C138.894 37.3589 138.759 36.9777 138.491 36.706C138.226 36.4342 137.823 36.2983 137.283 36.2983C136.723 36.2983 136.284 36.4209 135.965 36.6662C135.647 36.9115 135.424 37.1733 135.294 37.4517L134.181 37.054C134.379 36.59 134.645 36.2287 134.976 35.9702C135.311 35.7083 135.675 35.526 136.07 35.4233C136.468 35.3172 136.859 35.2642 137.243 35.2642C137.488 35.2642 137.77 35.294 138.088 35.3537C138.41 35.41 138.72 35.5277 139.018 35.7067C139.32 35.8857 139.57 36.1558 139.769 36.517C139.968 36.8783 140.067 37.3622 140.067 37.9688V43H138.894V41.9659H138.834C138.754 42.1316 138.622 42.3089 138.436 42.4979C138.251 42.6868 138.004 42.8475 137.696 42.9801C137.387 43.1127 137.011 43.179 136.567 43.179ZM136.746 42.125C137.21 42.125 137.601 42.0339 137.919 41.8516C138.241 41.6693 138.483 41.4339 138.645 41.1456C138.811 40.8572 138.894 40.554 138.894 40.2358V39.1619C138.844 39.2216 138.735 39.2763 138.566 39.326C138.4 39.3724 138.208 39.4138 137.989 39.4503C137.773 39.4834 137.563 39.5133 137.357 39.5398C137.155 39.563 136.991 39.5829 136.865 39.5994C136.56 39.6392 136.275 39.7038 136.01 39.7933C135.748 39.8795 135.536 40.0104 135.374 40.1861C135.215 40.3584 135.135 40.5937 135.135 40.892C135.135 41.2997 135.286 41.608 135.588 41.8168C135.893 42.0223 136.279 42.125 136.746 42.125ZM147.699 45.8636V41.8267H147.599C147.513 41.9659 147.39 42.1416 147.231 42.3537C147.072 42.5625 146.845 42.7498 146.55 42.9155C146.255 43.0779 145.863 43.1591 145.372 43.1591C144.736 43.1591 144.174 42.9983 143.687 42.6768C143.199 42.352 142.818 41.8946 142.543 41.3047C142.268 40.7114 142.131 40.0104 142.131 39.2017C142.131 38.3996 142.268 37.7036 142.543 37.1136C142.818 36.5237 143.201 36.0679 143.692 35.7464C144.182 35.425 144.749 35.2642 145.392 35.2642C145.889 35.2642 146.282 35.3471 146.57 35.5128C146.862 35.6752 147.084 35.8608 147.236 36.0696C147.392 36.2751 147.513 36.4441 147.599 36.5767H147.739V35.3636H148.872V45.8636H147.699ZM145.531 42.1051C146.002 42.1051 146.399 41.9825 146.724 41.7372C147.049 41.4886 147.296 41.1456 147.465 40.7081C147.634 40.2673 147.719 39.7585 147.719 39.1818C147.719 38.6117 147.636 38.1129 147.47 37.6854C147.304 37.2545 147.059 36.9197 146.734 36.6811C146.409 36.4392 146.008 36.3182 145.531 36.3182C145.034 36.3182 144.62 36.4458 144.288 36.701C143.96 36.9529 143.713 37.2959 143.547 37.7301C143.385 38.161 143.304 38.6449 143.304 39.1818C143.304 39.7254 143.387 40.2192 143.552 40.6634C143.721 41.1042 143.97 41.4555 144.298 41.7173C144.63 41.9759 145.041 42.1051 145.531 42.1051ZM156.112 39.8778V35.3636H157.286V43H156.112V41.7074H156.033C155.854 42.0952 155.575 42.425 155.197 42.6967C154.82 42.9652 154.342 43.0994 153.766 43.0994C153.288 43.0994 152.864 42.995 152.493 42.7862C152.122 42.5741 151.83 42.2559 151.618 41.8317C151.406 41.4041 151.3 40.8655 151.3 40.2159V35.3636H152.473V40.1364C152.473 40.6932 152.629 41.1373 152.94 41.4688C153.255 41.8002 153.656 41.9659 154.144 41.9659C154.435 41.9659 154.732 41.8913 155.033 41.7422C155.338 41.593 155.594 41.3643 155.799 41.0561C156.008 40.7479 156.112 40.3551 156.112 39.8778ZM159.715 43V35.3636H160.888V43H159.715ZM159.774 34.3295L160.987 32.0227H162.359L160.808 34.3295H159.774ZM164.172 43.0795C163.927 43.0795 163.716 42.9917 163.541 42.8161C163.365 42.6404 163.277 42.4299 163.277 42.1847C163.277 41.9394 163.365 41.7289 163.541 41.5533C163.716 41.3776 163.927 41.2898 164.172 41.2898C164.417 41.2898 164.628 41.3776 164.803 41.5533C164.979 41.7289 165.067 41.9394 165.067 42.1847C165.067 42.3471 165.025 42.4962 164.943 42.6321C164.863 42.768 164.755 42.8774 164.619 42.9602C164.487 43.0398 164.338 43.0795 164.172 43.0795ZM164.172 37.4119C163.927 37.4119 163.716 37.3241 163.541 37.1484C163.365 36.9728 163.277 36.7623 163.277 36.517C163.277 36.2718 163.365 36.0613 163.541 35.8857C163.716 35.71 163.927 35.6222 164.172 35.6222C164.417 35.6222 164.628 35.71 164.803 35.8857C164.979 36.0613 165.067 36.2718 165.067 36.517C165.067 36.6795 165.025 36.8286 164.943 36.9645C164.863 37.1004 164.755 37.2098 164.619 37.2926C164.487 37.3722 164.338 37.4119 164.172 37.4119Z" fill="#F6F4F3"/>
<path d="M192.391 114.633C192.299 114.376 192.206 114.119 192.114 113.862C191.59 112.413 191.067 110.965 190.543 109.517C190.188 108.535 189.839 107.551 189.476 106.572C189.267 106.009 189.45 105.477 189.822 105.156C190.471 104.598 191.495 104.864 191.795 105.664C192.464 107.448 193.137 109.231 193.808 111.014C193.809 111.017 193.811 111.019 193.824 111.039C193.814 110.919 193.81 110.816 193.795 110.714C193.683 109.946 194.283 109.265 195.06 109.281C195.58 109.291 196.048 109.645 196.212 110.152C196.269 110.328 196.328 110.504 196.393 110.704C196.445 110.552 196.424 110.385 196.471 110.229C196.521 110.064 196.606 109.909 196.719 109.778C196.926 109.539 197.228 109.384 197.544 109.354C198.212 109.289 198.804 109.778 198.891 110.413C198.915 110.59 198.962 110.765 199.006 110.941C199.006 110.739 199.039 110.545 199.118 110.359C199.307 109.913 199.77 109.611 200.269 109.613C200.756 109.616 201.228 109.925 201.4 110.372C201.741 111.254 201.901 112.167 202.106 113.085C202.368 114.26 202.711 115.409 203.068 116.558C203.275 117.225 203.255 117.883 203.026 118.537C202.745 119.342 202.238 119.989 201.587 120.53C200.805 121.18 199.908 121.598 198.914 121.808C197.917 122.018 196.93 121.993 195.963 121.647C195.448 121.463 194.993 121.181 194.601 120.797C193.897 120.108 193.215 119.4 192.57 118.657C192.171 118.198 191.792 117.723 191.416 117.246C191.05 116.782 190.632 116.371 190.173 115.999C189.604 115.537 189.049 115.059 188.501 114.574C188.242 114.345 188.194 114.038 188.254 113.712C188.332 113.288 188.519 113.1 188.983 113.028C189.718 112.914 190.417 113.061 191.051 113.433C191.553 113.727 191.984 114.117 192.332 114.589C192.345 114.607 192.36 114.624 192.374 114.641C192.379 114.638 192.385 114.636 192.391 114.633V114.633Z" fill="#F6F4F3"/>
<path d="M184.805 105.839C184.815 104.567 185.202 103.419 185.985 102.414C186.829 101.331 187.936 100.649 189.286 100.379C190.528 100.13 191.727 100.29 192.853 100.871C194.476 101.708 195.466 103.032 195.823 104.818C196.02 105.804 195.926 106.772 195.589 107.717C195.575 107.757 195.564 107.798 195.552 107.839C195.475 108.095 195.233 108.232 194.996 108.154C194.747 108.073 194.628 107.813 194.727 107.56C194.911 107.091 195.016 106.605 195.042 106.103C195.07 105.565 195.005 105.034 194.845 104.519C194.433 103.199 193.602 102.234 192.354 101.63C191.638 101.285 190.877 101.136 190.085 101.188C188.924 101.265 187.914 101.706 187.085 102.523C186.317 103.279 185.857 104.199 185.721 105.268C185.561 106.527 185.867 107.672 186.624 108.689C187.141 109.383 187.805 109.895 188.616 110.211C188.851 110.303 188.961 110.543 188.874 110.769C188.787 110.996 188.534 111.112 188.31 111.014C187.792 110.788 187.301 110.517 186.862 110.157C186.228 109.638 185.725 109.014 185.368 108.277C185.065 107.652 184.879 106.993 184.824 106.298C184.812 106.145 184.809 105.992 184.805 105.838L184.805 105.839Z" fill="#F6F4F3"/>
<path d="M190.344 102.939C189.246 102.991 188.408 103.476 187.872 104.443C187.315 105.446 187.467 106.754 188.224 107.618C188.504 107.938 188.833 108.188 189.225 108.357C189.444 108.452 189.539 108.691 189.454 108.914C189.372 109.128 189.141 109.24 188.916 109.17C188.743 109.115 188.587 109.024 188.435 108.928C187.449 108.306 186.857 107.418 186.705 106.269C186.541 105.028 186.928 103.954 187.83 103.082C188.426 102.504 189.151 102.168 189.982 102.093C191.269 101.978 192.345 102.415 193.19 103.385C193.681 103.948 193.955 104.616 194.041 105.36C194.104 105.914 194.038 106.453 193.859 106.978C193.79 107.183 193.607 107.299 193.406 107.276C193.193 107.253 193.043 107.105 193.012 106.89C193 106.813 193.023 106.741 193.045 106.669C193.385 105.558 193.15 104.577 192.34 103.749C191.888 103.287 191.319 103.029 190.67 102.959C190.562 102.948 190.455 102.941 190.344 102.939V102.939Z" fill="#F6F4F3"/>
<path d="M121.233 70.5905C121.233 63.0462 115.425 56.1904 106.055 56.1904C96.4447 56.1904 90.9961 63.2557 90.9961 70.7102C90.9961 78.5539 97.0136 85.0504 105.845 85.0504C115.036 85.0504 121.233 78.6737 121.233 70.5905ZM95.1574 70.7102C95.1574 66.01 98.3308 59.9925 106.204 59.9925C113.539 59.9925 117.102 65.8903 117.102 70.5605C117.102 72.9855 116.084 76.0392 114.288 77.9851C112.342 80.0808 109.078 81.3381 106.085 81.3381C100.187 81.3082 95.1574 77.1169 95.1574 70.7102Z" fill="#F6F4F3"/>
<path d="M129.971 56.5781H125.93V84.6897H129.971V56.5781Z" fill="#F6F4F3"/>
<path d="M150.391 73.6726L159.043 62.8052V84.6897H163.085V56.5781H159.343L150.002 68.1042L140.661 56.5781H136.859V84.6897H140.901V62.8052L149.643 73.6726H150.391Z" fill="#F6F4F3"/>
<path d="M53.303 89.9033C50.0997 89.9033 48.2734 92.2684 48.2734 94.7532C48.2734 97.3578 50.2793 99.5433 53.2132 99.5433C56.2668 99.5433 58.3325 97.4177 58.3325 94.7233C58.3625 92.1786 56.4165 89.9033 53.303 89.9033ZM56.0573 97.1782C55.3986 97.8668 54.3209 98.2859 53.3329 98.2859C51.357 98.2859 49.6805 96.8788 49.6805 94.7532C49.6805 93.1965 50.7283 91.1906 53.3629 91.1906C55.8178 91.1906 56.9853 93.1665 56.9853 94.7233C56.9853 95.5017 56.656 96.5196 56.0573 97.1782Z" fill="#F6F4F3"/>
<path d="M67.586 97.2934L61.2692 90.0186H60.1914V99.3891H61.4488V92.1741L67.7058 99.3891H68.8734V90.0186H67.586V97.2934Z" fill="#F6F4F3"/>
<path d="M77.9743 95.3475C77.9743 96.2755 77.8845 96.7545 77.7048 97.0839C77.4653 97.5329 76.8067 98.3113 75.2799 98.3113C74.2021 98.3113 73.5734 97.9521 73.1842 97.5329C72.7052 97.0539 72.5855 96.5749 72.5855 95.3475V90.0186H71.2383V95.3475C71.2383 95.9762 71.2383 97.0539 71.7472 97.8922C72.4957 99.0598 73.9327 99.5388 75.2799 99.5388C76.3576 99.5388 77.4054 99.2693 78.2437 98.5209C79.2915 97.5629 79.2915 96.2755 79.2915 95.3475V90.0186H77.9443V95.3475H77.9743Z" fill="#F6F4F3"/>
<path d="M89.9751 93.8805L86.8316 90.0186H85.5742V99.3891H86.9214V92.1142L89.8254 95.7367H90.0948L92.9689 92.1142V99.3891H94.3161V90.0186H93.0587L89.9751 93.8805Z" fill="#F6F4F3"/>
<path d="M98.3277 90.0186H96.9805V99.3891H98.3277V90.0186Z" fill="#F6F4F3"/>
<path d="M105.608 95.9807H107.404V97.9266C106.506 98.226 106.057 98.3458 105.368 98.3458C103.093 98.3458 101.596 96.789 101.596 94.7233C101.596 92.5079 103.362 91.1008 105.248 91.1008C105.757 91.1008 107.045 91.1906 108.571 92.0888V90.7116C107.554 90.2925 106.595 89.9033 105.278 89.9033C102.075 89.9033 100.219 92.3283 100.219 94.7832C100.219 96.9088 101.716 99.5133 105.338 99.5133C106.895 99.5133 108.062 99.0643 108.781 98.735V94.7832H105.637V95.9807H105.608Z" fill="#F6F4F3"/>
<path d="M115.126 94.9596C116.144 94.5704 116.683 93.7322 116.683 92.6544C116.683 91.6964 116.204 90.7683 115.216 90.3492C114.617 90.0797 114.049 90.0498 113.599 90.0498H111.234V99.4203H112.582V95.3488H112.941C113.599 95.3488 114.049 95.3488 114.947 96.5164C115.246 96.9056 116.563 98.9713 116.863 99.4203H118.449C117.791 98.5222 117.581 98.1929 117.162 97.5642C116.503 96.3667 115.965 95.5284 115.126 94.9596ZM114.408 94.0016C114.049 94.1513 113.3 94.1513 113.091 94.1513H112.582V91.1874H113.001C113.809 91.1874 114.258 91.2473 114.587 91.397C115.036 91.6066 115.306 92.1155 115.306 92.6544C115.306 93.1633 115.066 93.7322 114.408 94.0016Z" fill="#F6F4F3"/>
<path d="M122.905 89.9893L118.863 99.4196H120.24L121.408 96.6654H125.39L126.647 99.4196H128.024L123.833 89.9893H122.905ZM121.947 95.4379L123.354 92.055L124.881 95.4379H121.947Z" fill="#F6F4F3"/>
<path d="M129.97 94.7532C129.97 92.8672 131.407 91.1906 133.682 91.1906C134.819 91.1906 135.927 91.5499 136.915 92.1187V90.6817C136.316 90.4123 135.059 89.9033 133.622 89.9033C130.658 89.9033 128.562 92.1487 128.562 94.7233C128.562 96.9088 130.119 99.5133 133.592 99.5133C134.79 99.5133 135.927 99.2738 137.005 98.6751V97.2081C136.017 97.8668 134.849 98.256 133.682 98.256C131.197 98.2859 129.97 96.4896 129.97 94.7532Z" fill="#F6F4F3"/>
<path d="M140.687 90.0186H139.34V99.3891H140.687V90.0186Z" fill="#F6F4F3"/>
<path d="M146.832 89.3899H147.551L149.796 87.3242H147.82L146.832 89.3899Z" fill="#F6F4F3"/>
<path d="M147.787 89.9033C144.584 89.9033 142.758 92.2684 142.758 94.7532C142.758 97.3578 144.764 99.5433 147.698 99.5433C150.751 99.5433 152.817 97.4177 152.817 94.7233C152.847 92.1786 150.931 89.9033 147.787 89.9033ZM150.542 97.1782C149.883 97.8668 148.805 98.2859 147.817 98.2859C145.841 98.2859 144.165 96.8788 144.165 94.7532C144.165 93.1965 145.213 91.1906 147.847 91.1906C150.302 91.1906 151.47 93.1665 151.47 94.7233C151.5 95.5017 151.14 96.5196 150.542 97.1782Z" fill="#F6F4F3"/>
<path d="M161.801 90.0186V97.2934L155.484 90.0186H154.406V99.3891H155.664V92.1741L161.921 99.3891H163.088V90.0186H161.801Z" fill="#F6F4F3"/>
<path d="M62.9751 67.9853C63.3044 67.9853 63.5439 67.7159 63.5439 67.4165C63.5439 67.1171 63.2745 66.8477 62.9751 66.8477C62.6757 66.8477 62.4062 67.1171 62.4062 67.4165C62.4062 67.7159 62.6757 67.9853 62.9751 67.9853Z" fill="#F6F4F3"/>
<path d="M69.5315 68.3753C69.5016 68.2855 69.4118 68.2256 69.292 68.2256H68.9028H68.6334H68.3041H68.0346H67.6155C67.5257 68.2256 67.4359 68.2855 67.376 68.3753L66.2683 70.9499H65.1905L64.0829 68.3753C64.0529 68.2855 63.9631 68.2256 63.8433 68.2256H62.9752H62.107C62.0171 68.2256 61.9273 68.2855 61.8675 68.3753L60.6999 71.0996C60.64 71.2194 60.6999 71.3391 60.7897 71.4289C60.8196 71.4589 60.8795 71.4589 60.9094 71.4589C60.9993 71.4589 61.0891 71.399 61.1489 71.3092L62.1668 68.9142L62.2267 71.2493L61.8375 74.2131C61.8375 74.3329 61.8974 74.4526 61.9872 74.4826C62.0172 74.4826 62.0471 74.5125 62.077 74.5125C62.1968 74.5125 62.3165 74.4227 62.3165 74.3029L62.6758 71.4888H63.1847L63.544 74.3029C63.5739 74.4227 63.6637 74.5125 63.7835 74.5125C63.8134 74.5125 63.8434 74.5125 63.8733 74.4826C63.993 74.4526 64.0529 74.3329 64.023 74.2131L63.6338 71.2493L63.6937 68.9142L64.7115 71.3092C64.7115 71.3092 64.7115 71.3391 64.7415 71.3391C64.7415 71.3391 64.7415 71.369 64.7714 71.369L64.8014 71.399C64.8014 71.399 64.8313 71.399 64.8313 71.4289H64.8612H64.8912H65.1007L64.7714 73.1054C64.7415 73.2252 64.7714 73.3449 64.8612 73.4348C64.9211 73.4946 64.981 73.5246 65.0409 73.5545V74.273C65.0409 74.3928 65.1307 74.4826 65.2504 74.4826C65.3702 74.4826 65.46 74.3928 65.46 74.273V73.6144C65.46 73.6144 65.46 73.6144 65.4899 73.6144H65.6097H65.7294C65.7294 73.6144 65.7294 73.6144 65.7594 73.6144V74.3029C65.7594 74.4227 65.8492 74.5125 65.9689 74.5125C66.0887 74.5125 66.1785 74.4227 66.1785 74.3029V73.5844C66.2384 73.5545 66.2982 73.5246 66.3581 73.4647C66.4479 73.3749 66.4779 73.2551 66.4479 73.1354L66.1186 71.4589H66.3282C66.3581 71.4589 66.3581 71.4589 66.3581 71.4589H66.3881C66.3881 71.4589 66.418 71.4589 66.418 71.4289C66.418 71.4289 66.4479 71.4289 66.4479 71.399C66.4479 71.399 66.4479 71.369 66.4779 71.369C66.4779 71.369 66.4779 71.3391 66.5078 71.3391L67.5556 68.8543L67.7652 69.8722C67.7951 70.0518 67.7951 70.2015 67.7353 70.3811L66.7773 74.5425H68.1245H68.4538H69.801L68.843 70.3811C68.813 70.2314 68.7831 70.0518 68.843 69.8722L69.0525 68.8543L69.8608 70.8601C69.8908 70.9499 69.9806 71.0098 70.1003 71.0098C70.1303 71.0098 70.1602 71.0098 70.1902 70.9799C70.3099 70.92 70.3698 70.7703 70.3399 70.6505L69.5315 68.3753Z" fill="#F6F4F3"/>
<path d="M68.4555 67.9853C68.7849 67.9853 69.0244 67.7159 69.0244 67.4165C69.0244 67.1171 68.7549 66.8477 68.4555 66.8477C68.1262 66.8477 67.8867 67.1171 67.8867 67.4165C67.8867 67.7159 68.1262 67.9853 68.4555 67.9853Z" fill="#F6F4F3"/>
<path d="M65.7277 70.8304C65.9672 70.8304 66.1468 70.6508 66.1468 70.4113C66.1468 70.1718 65.9672 69.9922 65.7277 69.9922C65.4882 69.9922 65.3086 70.1718 65.3086 70.4113C65.3086 70.6508 65.4882 70.8304 65.7277 70.8304Z" fill="#F6F4F3"/>
<path d="M74.5874 56.6396C75.3658 57.3582 76.4435 58.6155 76.4435 58.6155C79.3176 61.8189 80.9642 66.1299 80.9642 69.9619C80.9642 70.0218 80.9642 70.0518 80.9642 70.1116H76.234C75.5155 62.5973 69.5279 56.6696 62.283 56.6696C54.5291 56.6696 48.2422 63.3457 48.2422 71.5786C48.2422 76.0393 50.278 81.0389 53.631 84.7512H56.5948C55.8164 84.0327 54.7387 82.7753 54.7387 82.7753C51.8647 79.572 50.2181 75.2609 50.2181 71.4289C50.2181 71.369 50.2181 71.3391 50.2181 71.2792H54.9782C55.6967 78.7936 61.6842 84.7213 68.9292 84.7213C76.683 84.7213 82.97 78.0451 82.97 69.8123C82.97 65.3515 80.9342 60.3519 77.5812 56.6396H74.5874ZM74.2581 70.0817H71.8331C71.8331 70.0518 71.8331 70.0518 71.8331 70.0218C71.8331 68.5848 71.4439 67.1777 70.7554 65.9203H73.1504C73.7491 67.1777 74.1084 68.5848 74.2581 70.0817ZM72.7313 65.0222H70.2464C69.3184 63.6151 68.061 62.4476 66.6838 61.7291C67.3425 61.3698 67.9412 60.9207 68.4502 60.4118C70.2165 61.5195 71.7134 63.1361 72.7313 65.0222ZM62.8518 58.6155C64.6181 58.7054 66.2947 59.2143 67.7916 60.0226C66.5042 61.2201 64.7678 61.9985 62.8518 62.1183V58.6155ZM62.8518 62.8368C63.8697 62.7769 64.8576 62.5374 65.7558 62.1781C67.103 62.7769 68.3304 63.7648 69.2884 65.0222H62.8219V62.8368H62.8518ZM61.9537 58.5856V62.0883C59.9478 61.9985 58.1516 61.1902 56.8343 59.9328C58.3911 59.1245 60.1275 58.6455 61.9537 58.5856ZM61.9537 62.8368V65.0222H55.3674C56.3254 63.7648 57.5828 62.7469 58.9 62.1781C59.858 62.5673 60.8759 62.8068 61.9537 62.8368ZM56.1757 60.3519C56.7146 60.8908 57.3433 61.3399 58.0019 61.7291C56.6547 62.4775 55.3674 63.6151 54.4393 65.0222H51.7748C52.8227 63.1062 54.3495 61.4596 56.1757 60.3519ZM50.2181 70.3811C50.3378 68.7944 50.727 67.2675 51.3557 65.8904H53.9304C53.2717 67.1478 52.8526 68.5549 52.8526 69.9919C52.8526 70.0518 52.8526 70.2314 52.8526 70.3811H50.2181ZM56.9241 71.2493H59.3491C59.3491 71.2792 59.3491 71.2792 59.3491 71.3091C59.3491 72.7462 59.7383 74.1532 60.4269 75.4106H58.0318C57.4331 74.1532 57.0439 72.7462 56.9241 71.2493ZM58.451 76.3087H60.9358C61.8639 77.7158 63.1512 78.8834 64.4984 79.6019C63.8398 79.9612 63.241 80.4102 62.7321 80.9192C60.9358 79.8115 59.4688 78.1948 58.451 76.3087ZM68.3304 82.7154C66.5641 82.6256 64.8876 82.1167 63.3907 81.3083C64.678 80.1108 66.4144 79.3325 68.3304 79.2127V82.7154ZM68.3304 78.4942C67.3125 78.5541 66.3246 78.7936 65.4265 79.1528C64.0793 78.5541 62.8518 77.5661 61.8938 76.3087H68.3603V78.4942H68.3304ZM61.295 75.4406C60.5765 74.2131 60.1275 72.806 60.1275 71.3391C60.1275 71.3091 60.1275 71.3091 60.1275 71.2792V70.411H53.631C53.631 70.2913 53.631 70.1416 53.631 70.0218C53.631 68.5549 54.0801 67.1478 54.7986 65.9203H69.8872C70.6057 67.1478 71.0547 68.5549 71.0547 70.0218C71.0547 70.0518 71.0547 70.0518 71.0547 70.0817V70.9499H77.5513C77.5513 71.0696 77.5513 71.2193 77.5513 71.3091C77.5513 72.7761 77.1022 74.1832 76.3837 75.4106H61.295V75.4406ZM75.7849 76.3087C74.8269 77.5661 73.5695 78.584 72.2522 79.1528C71.3242 78.7636 70.2764 78.5241 69.1986 78.4942V76.3087H75.7849ZM69.1986 82.7454V79.2426C71.2044 79.3325 73.0007 80.1408 74.318 81.3982C72.7911 82.2065 71.0548 82.6855 69.1986 82.7454ZM75.0065 80.979C74.4677 80.4402 73.839 79.9911 73.1803 79.6019C74.5275 78.8535 75.8148 77.7158 76.7429 76.3087H79.4074C78.3296 78.2547 76.8327 79.8713 75.0065 80.979ZM79.8265 75.4406H77.2519C77.9105 74.1832 78.3296 72.7761 78.3296 71.3391C78.3296 71.2792 78.3296 71.0996 78.3296 70.9798H80.9642C80.8145 72.5366 80.4253 74.0634 79.8265 75.4406Z" fill="#F6F4F3"/>
</svg>
