<svg width="26" height="31" viewBox="0 0 26 31" fill="none" xmlns="http://www.w3.org/2000/svg">
<g id="icono">
<g id="Group 8">
<path id="Vector" d="M10.8479 20.3153C10.7216 19.9648 10.5955 19.6139 10.469 19.2634C9.7546 17.2869 9.04023 15.3104 8.32586 13.334C7.84157 11.9943 7.36479 10.6516 6.86923 9.31588C6.58418 8.54742 6.8341 7.82091 7.34226 7.38378C8.22745 6.622 9.62535 6.98458 10.0346 8.07582C10.9476 10.5105 11.8653 12.9436 12.781 15.3772C12.7826 15.3813 12.7858 15.3847 12.8033 15.4114C12.7891 15.2479 12.7842 15.1066 12.7639 14.9676C12.6107 13.9202 13.4294 12.9906 14.4892 13.012C15.1995 13.0262 15.838 13.5095 16.0619 14.201C16.1397 14.4413 16.2196 14.6809 16.3094 14.954C16.3797 14.7472 16.3515 14.5185 16.4159 14.3061C16.484 14.0808 16.599 13.8692 16.7535 13.691C17.0361 13.3642 17.4485 13.1531 17.8792 13.1114C18.7907 13.0232 19.5992 13.6899 19.7172 14.5575C19.7501 14.7993 19.8145 15.0368 19.8743 15.277C19.8748 15.0018 19.9199 14.7376 20.0274 14.4835C20.2848 13.8743 20.9177 13.462 21.5983 13.4655C22.2625 13.4689 22.9066 13.8916 23.142 14.5008C23.6073 15.7048 23.8253 16.9508 24.105 18.2037C24.463 19.8066 24.9307 21.375 25.4176 22.9427C25.7005 23.8535 25.6724 24.7505 25.3608 25.6432C24.977 26.7425 24.2852 27.6248 23.3973 28.3628C22.3295 29.2501 21.1049 29.82 19.7485 30.1065C18.3884 30.3937 17.0415 30.3598 15.7222 29.8874C15.0188 29.6357 14.3977 29.2509 13.8628 28.7269C12.903 27.7872 11.9723 26.8205 11.0914 25.8067C10.5473 25.1807 10.0303 24.5325 9.51647 23.8819C9.0169 23.2491 8.44653 22.688 7.82038 22.1795C7.04461 21.5495 6.28733 20.8975 5.53918 20.2354C5.18521 19.9223 5.11951 19.5036 5.20157 19.0587C5.30829 18.4802 5.56385 18.224 6.1975 18.1256C7.20041 17.9701 8.15317 18.17 9.01931 18.6782C9.70418 19.0801 10.2917 19.6118 10.7669 20.2557C10.7849 20.2803 10.8047 20.3033 10.8237 20.3271C10.8318 20.3233 10.8398 20.3193 10.8479 20.3156V20.3153Z" fill="#C1C1C1"/>
<path id="Vector_2" d="M0.494141 8.31462C0.508621 6.57864 1.03609 5.01259 2.10442 3.64161C3.25669 2.16267 4.76722 1.23202 6.60892 0.863824C8.30447 0.524751 9.93996 0.742516 11.477 1.53502C13.6925 2.67729 15.0433 4.48515 15.53 6.92225C15.7986 8.26732 15.6707 9.58781 15.2106 10.8781C15.1913 10.9326 15.1771 10.9887 15.1604 11.0443C15.0548 11.3933 14.7244 11.5806 14.4016 11.4745C14.0623 11.3631 13.899 11.0085 14.0342 10.6638C14.2852 10.0239 14.4284 9.35989 14.464 8.6756C14.5024 7.94081 14.4144 7.21697 14.1951 6.51344C13.6333 4.712 12.499 3.39498 10.7959 2.57202C9.81929 2.10014 8.78072 1.89654 7.69978 1.96842C6.11497 2.07369 4.73718 2.67515 3.60556 3.78963C2.55761 4.82182 1.93066 6.07657 1.74509 7.53627C1.52654 9.25435 1.94326 10.8161 2.97727 12.2047C3.68226 13.1514 4.58862 13.8501 5.69558 14.2817C6.01602 14.4064 6.16619 14.7348 6.0474 15.0432C5.92834 15.3521 5.58375 15.5102 5.27752 15.3769C4.57093 15.0694 3.90027 14.6985 3.30201 14.2082C2.43694 13.4996 1.74992 12.6475 1.26321 11.6426C0.849985 10.7894 0.594968 9.89001 0.52042 8.94173C0.504062 8.73251 0.500576 8.5241 0.494409 8.31408L0.494141 8.31462Z" fill="#C1C1C1"/>
<path id="Vector_3" d="M8.05179 4.35787C6.55307 4.42895 5.40991 5.09079 4.67785 6.40995C3.91843 7.77799 4.12598 9.56341 5.15865 10.7423C5.54104 11.1789 5.98967 11.5198 6.52411 11.7509C6.8231 11.8803 6.95262 12.2071 6.83651 12.5106C6.72469 12.8029 6.4096 12.9565 6.1023 12.8601C5.86632 12.7861 5.65367 12.6616 5.44585 12.5304C4.10158 11.6812 3.29255 10.4697 3.08527 8.90236C2.86135 7.2086 3.39043 5.74302 4.62073 4.55212C5.43485 3.76416 6.42328 3.30565 7.55758 3.20358C9.31428 3.0454 10.7819 3.64285 11.9352 4.96628C12.6054 5.73501 12.9797 6.64561 13.0961 7.66123C13.1827 8.41766 13.0926 9.15219 12.8488 9.86988C12.7542 10.1488 12.504 10.3067 12.2297 10.2766C11.9401 10.2445 11.7344 10.042 11.692 9.74857C11.6767 9.64356 11.707 9.54604 11.7371 9.44798C12.201 7.93163 11.8803 6.59217 10.7755 5.46273C10.1587 4.83215 9.38239 4.48051 8.49613 4.38539C8.34891 4.36963 8.20277 4.35974 8.05179 4.35814V4.35787Z" fill="#C1C1C1"/>
</g>
</g>
</svg>
