<svg width="615" height="314" viewBox="0 0 615 314" fill="none" xmlns="http://www.w3.org/2000/svg">
<path d="M30.264 70.462C30.264 72.802 30.342 75.064 31.122 76H19.422C18.642 75.064 18.564 72.802 18.564 70.462V58.45C18.564 53.926 17.004 53.146 12.48 53.146V76H0.78V13.6H12.48C25.818 13.6 30.264 18.046 30.264 30.604V36.142C30.264 43.006 28.158 47.452 24.492 50.104C28.47 51.742 30.264 54.94 30.264 60.79V70.462ZM18.564 30.604C18.564 26.08 17.004 25.3 12.48 25.3V41.446C17.004 41.446 18.564 40.666 18.564 36.142V30.604ZM55.7243 25.3H45.1943V38.95H55.7243V50.65H45.1943V64.3H55.7243V76H33.4943V13.6H55.7243V25.3ZM70.5199 13.6C83.8579 13.6 88.3039 18.046 88.3039 30.604V38.482C88.3039 50.884 83.8579 55.252 70.5199 55.486V76H58.8199V13.6H70.5199ZM70.5199 43.786C75.0439 43.786 76.6039 43.006 76.6039 38.482V30.604C76.6039 26.08 75.0439 25.3 70.5199 25.3V43.786ZM94.968 5.956L116.418 0.183995L117.198 3.226L95.748 8.92L94.968 5.956ZM120.786 13.6V58.996C120.786 71.554 115.56 76.78 106.122 76.78C96.684 76.78 91.458 71.554 91.458 58.996V13.6H103.158V58.216C103.158 63.52 103.548 65.08 106.122 65.08C108.696 65.08 109.086 63.52 109.086 58.216V13.6H120.786ZM146.408 43.162C150.386 45.112 153.428 49.012 153.428 56.578V59.776C153.428 71.398 148.982 75.922 135.644 76H123.944V13.6H135.644C148.982 13.6 152.648 18.046 152.648 30.604V31.15C152.648 38.014 149.996 41.368 146.408 43.162ZM140.948 30.604C140.948 26.08 140.168 25.3 135.644 25.3V38.014C140.168 38.014 140.948 37.234 140.948 32.71V30.604ZM135.644 64.3C140.168 64.3 141.728 63.52 141.728 58.996V55.018C141.728 50.494 140.168 49.714 135.644 49.714V64.3ZM168.282 64.3H178.812V76H156.582V13.6H168.282V64.3ZM181.908 13.6H193.608V76H181.908V13.6ZM214.349 38.95V31.384C214.349 26.08 213.959 24.52 211.385 24.52C208.811 24.52 208.421 26.08 208.421 31.384V58.216C208.421 63.52 208.811 65.08 211.385 65.08C213.959 65.08 214.349 63.52 214.349 58.216V50.65H226.049V58.996C226.049 71.554 220.823 76.78 211.385 76.78C201.947 76.78 196.721 71.554 196.721 58.996V30.604C196.721 18.046 201.947 12.82 211.385 12.82C220.823 12.82 226.049 18.046 226.049 30.604V38.95H214.349ZM247.262 76L246.404 65.392H240.242L239.384 76H227.684L235.328 13.6H251.318L258.962 76H247.262ZM241.178 53.692H245.468L243.362 26.002L241.178 53.692ZM12.48 107.6C25.818 107.6 30.264 112.046 30.264 124.604V152.996C30.264 165.398 25.818 170 12.48 170H0.78V107.6H12.48ZM12.48 158.3C17.004 158.3 18.564 157.52 18.564 152.996V124.604C18.564 120.08 17.004 119.3 12.48 119.3V158.3ZM48.0821 106.82C57.5201 106.82 62.7461 112.046 62.7461 124.604V152.996C62.7461 165.554 57.5201 170.78 48.0821 170.78C38.6441 170.78 33.4181 165.554 33.4181 152.996V124.604C33.4181 112.046 38.6441 106.82 48.0821 106.82ZM51.0461 152.216V125.384C51.0461 120.08 50.6561 118.52 48.0821 118.52C45.5081 118.52 45.1181 120.08 45.1181 125.384V152.216C45.1181 157.52 45.5081 159.08 48.0821 159.08C50.6561 159.08 51.0461 157.52 51.0461 152.216ZM92.7359 107.6H104.436V170H92.7359V143.246L87.8999 170H82.4399L77.6039 143.246V170H65.9039V107.6H77.6039L85.1699 143.636L92.7359 107.6ZM107.53 107.6H119.23V170H107.53V107.6ZM144.106 107.6H155.806V170H144.106L134.044 139.19V170H122.344V107.6H134.044L144.106 138.41V107.6ZM158.943 107.6H170.643V170H158.943V107.6ZM191.385 132.95V125.384C191.385 120.08 190.995 118.52 188.421 118.52C185.847 118.52 185.457 120.08 185.457 125.384V152.216C185.457 157.52 185.847 159.08 188.421 159.08C190.995 159.08 191.385 157.52 191.385 152.216V144.65H203.085V152.996C203.085 165.554 197.859 170.78 188.421 170.78C178.983 170.78 173.757 165.554 173.757 152.996V124.604C173.757 112.046 178.983 106.82 188.421 106.82C197.859 106.82 203.085 112.046 203.085 124.604V132.95H191.385ZM224.298 170L223.44 159.392H217.278L216.42 170H204.72L212.364 107.6H228.354L235.998 170H224.298ZM218.214 147.692H222.504L220.398 120.002L218.214 147.692ZM260.11 107.6H271.81V170H260.11L250.048 139.19V170H238.348V107.6H250.048L260.11 138.41V107.6ZM293.763 170L292.905 159.392H286.743L285.885 170H274.185L281.829 107.6H297.819L305.463 170H293.763ZM287.679 147.692H291.969L289.863 120.002L287.679 147.692Z" fill="#25A7EF"/>
<path d="M53.6023 250.727C53.483 249.72 52.9991 248.938 52.1506 248.381C51.3021 247.824 50.2614 247.545 49.0284 247.545C48.1269 247.545 47.3381 247.691 46.6619 247.983C45.9924 248.275 45.4688 248.676 45.0909 249.186C44.7197 249.696 44.5341 250.277 44.5341 250.926C44.5341 251.47 44.6634 251.937 44.9219 252.328C45.187 252.713 45.5251 253.034 45.9361 253.293C46.3471 253.545 46.7779 253.753 47.2287 253.919C47.6795 254.078 48.0938 254.207 48.4716 254.307L50.5398 254.864C51.0701 255.003 51.66 255.195 52.3097 255.44C52.9659 255.686 53.5923 256.02 54.1889 256.445C54.7921 256.862 55.2893 257.399 55.6804 258.055C56.0715 258.712 56.267 259.517 56.267 260.472C56.267 261.572 55.9787 262.566 55.402 263.455C54.8319 264.343 53.9967 265.049 52.8963 265.572C51.8026 266.096 50.4735 266.358 48.9091 266.358C47.4508 266.358 46.188 266.123 45.1207 265.652C44.0601 265.181 43.2249 264.525 42.6151 263.683C42.0118 262.841 41.6705 261.864 41.5909 260.75H44.1364C44.2027 261.519 44.4612 262.155 44.9119 262.659C45.3693 263.156 45.946 263.527 46.642 263.773C47.3447 264.011 48.1004 264.131 48.9091 264.131C49.8504 264.131 50.6955 263.978 51.4446 263.673C52.1937 263.362 52.7869 262.931 53.2244 262.381C53.6619 261.824 53.8807 261.174 53.8807 260.432C53.8807 259.756 53.6918 259.205 53.3139 258.781C52.9361 258.357 52.4389 258.012 51.8224 257.747C51.206 257.482 50.5398 257.25 49.8239 257.051L47.3182 256.335C45.7273 255.878 44.4678 255.225 43.5398 254.376C42.6117 253.528 42.1477 252.418 42.1477 251.045C42.1477 249.905 42.456 248.911 43.0724 248.062C43.6955 247.207 44.5308 246.545 45.5781 246.074C46.6321 245.597 47.8087 245.358 49.108 245.358C50.4205 245.358 51.5871 245.593 52.608 246.064C53.6288 246.528 54.4375 247.164 55.0341 247.973C55.6373 248.782 55.9555 249.7 55.9886 250.727H53.6023ZM66.4066 266.318C64.935 266.318 63.6656 265.993 62.5984 265.344C61.5378 264.688 60.7191 263.773 60.1424 262.599C59.5723 261.42 59.2873 260.047 59.2873 258.483C59.2873 256.919 59.5723 255.54 60.1424 254.347C60.7191 253.147 61.5212 252.212 62.5487 251.543C63.5827 250.866 64.7892 250.528 66.168 250.528C66.9634 250.528 67.7489 250.661 68.5245 250.926C69.3001 251.191 70.006 251.622 70.6424 252.219C71.2788 252.809 71.7859 253.591 72.1637 254.565C72.5415 255.54 72.7305 256.74 72.7305 258.165V259.159H60.9577V257.131H70.3441C70.3441 256.269 70.1718 255.5 69.8271 254.824C69.489 254.148 69.0051 253.614 68.3754 253.223C67.7522 252.832 67.0165 252.636 66.168 252.636C65.2333 252.636 64.4246 252.868 63.7418 253.332C63.0657 253.79 62.5453 254.386 62.1808 255.122C61.8162 255.858 61.6339 256.647 61.6339 257.489V258.841C61.6339 259.994 61.8327 260.972 62.2305 261.774C62.6348 262.57 63.195 263.176 63.9109 263.594C64.6268 264.005 65.4587 264.21 66.4066 264.21C67.0231 264.21 67.5799 264.124 68.0771 263.952C68.5808 263.773 69.015 263.508 69.3796 263.156C69.7442 262.798 70.0259 262.354 70.2248 261.824L72.4918 262.46C72.2532 263.229 71.8522 263.905 71.2887 264.489C70.7253 265.065 70.0292 265.516 69.2006 265.841C68.372 266.159 67.4407 266.318 66.4066 266.318ZM90.5785 266.318C89.1069 266.318 87.8375 265.993 86.7702 265.344C85.7096 264.688 84.891 263.773 84.3143 262.599C83.7442 261.42 83.4592 260.047 83.4592 258.483C83.4592 256.919 83.7442 255.54 84.3143 254.347C84.891 253.147 85.6931 252.212 86.7205 251.543C87.7546 250.866 88.9611 250.528 90.3398 250.528C91.1353 250.528 91.9208 250.661 92.6964 250.926C93.4719 251.191 94.1779 251.622 94.8143 252.219C95.4506 252.809 95.9577 253.591 96.3356 254.565C96.7134 255.54 96.9023 256.74 96.9023 258.165V259.159H85.1296V257.131H94.516C94.516 256.269 94.3436 255.5 93.9989 254.824C93.6609 254.148 93.177 253.614 92.5472 253.223C91.9241 252.832 91.1883 252.636 90.3398 252.636C89.4052 252.636 88.5965 252.868 87.9137 253.332C87.2376 253.79 86.7172 254.386 86.3526 255.122C85.988 255.858 85.8058 256.647 85.8058 257.489V258.841C85.8058 259.994 86.0046 260.972 86.4023 261.774C86.8067 262.57 87.3668 263.176 88.0827 263.594C88.7987 264.005 89.6306 264.21 90.5785 264.21C91.195 264.21 91.7518 264.124 92.2489 263.952C92.7527 263.773 93.1869 263.508 93.5515 263.156C93.9161 262.798 94.1978 262.354 94.3967 261.824L96.6637 262.46C96.4251 263.229 96.024 263.905 95.4606 264.489C94.8971 265.065 94.2011 265.516 93.3725 265.841C92.5439 266.159 91.6126 266.318 90.5785 266.318ZM111.29 254.148L109.182 254.744C109.05 254.393 108.854 254.052 108.596 253.72C108.344 253.382 107.999 253.104 107.561 252.885C107.124 252.666 106.564 252.557 105.881 252.557C104.946 252.557 104.167 252.772 103.544 253.203C102.928 253.627 102.62 254.168 102.62 254.824C102.62 255.407 102.832 255.868 103.256 256.206C103.68 256.544 104.343 256.826 105.245 257.051L107.512 257.608C108.877 257.939 109.895 258.446 110.564 259.129C111.234 259.805 111.569 260.677 111.569 261.744C111.569 262.619 111.317 263.402 110.813 264.091C110.316 264.78 109.62 265.324 108.725 265.722C107.83 266.119 106.789 266.318 105.603 266.318C104.045 266.318 102.756 265.98 101.735 265.304C100.714 264.628 100.068 263.64 99.7958 262.341L102.023 261.784C102.235 262.606 102.636 263.223 103.226 263.634C103.823 264.045 104.602 264.25 105.563 264.25C106.657 264.25 107.525 264.018 108.168 263.554C108.818 263.083 109.142 262.52 109.142 261.864C109.142 261.333 108.957 260.889 108.586 260.531C108.214 260.167 107.644 259.895 106.875 259.716L104.33 259.119C102.931 258.788 101.904 258.274 101.248 257.578C100.598 256.875 100.273 255.997 100.273 254.943C100.273 254.081 100.515 253.319 100.999 252.656C101.489 251.993 102.156 251.473 102.998 251.095C103.846 250.717 104.807 250.528 105.881 250.528C107.392 250.528 108.579 250.86 109.441 251.523C110.309 252.186 110.926 253.061 111.29 254.148ZM121.743 250.727V252.716H113.828V250.727H121.743ZM116.135 247.068H118.482V261.625C118.482 262.288 118.578 262.785 118.77 263.116C118.969 263.441 119.221 263.66 119.526 263.773C119.837 263.879 120.165 263.932 120.51 263.932C120.768 263.932 120.981 263.919 121.146 263.892C121.312 263.859 121.445 263.832 121.544 263.812L122.021 265.92C121.862 265.98 121.64 266.04 121.355 266.099C121.07 266.166 120.709 266.199 120.271 266.199C119.608 266.199 118.959 266.056 118.322 265.771C117.693 265.486 117.169 265.052 116.751 264.469C116.34 263.885 116.135 263.15 116.135 262.261V247.068ZM129.767 266.358C128.799 266.358 127.921 266.176 127.132 265.811C126.343 265.44 125.717 264.906 125.253 264.21C124.789 263.508 124.557 262.659 124.557 261.665C124.557 260.79 124.729 260.08 125.074 259.537C125.419 258.987 125.879 258.556 126.456 258.244C127.033 257.933 127.669 257.701 128.365 257.548C129.068 257.389 129.774 257.263 130.483 257.17C131.411 257.051 132.163 256.962 132.74 256.902C133.323 256.836 133.748 256.726 134.013 256.574C134.285 256.421 134.42 256.156 134.42 255.778V255.699C134.42 254.718 134.152 253.955 133.615 253.412C133.085 252.868 132.279 252.597 131.199 252.597C130.079 252.597 129.2 252.842 128.564 253.332C127.928 253.823 127.48 254.347 127.222 254.903L124.994 254.108C125.392 253.18 125.922 252.457 126.585 251.94C127.255 251.417 127.984 251.052 128.773 250.847C129.568 250.634 130.35 250.528 131.119 250.528C131.61 250.528 132.173 250.588 132.81 250.707C133.453 250.82 134.072 251.055 134.669 251.413C135.272 251.771 135.773 252.312 136.17 253.034C136.568 253.757 136.767 254.724 136.767 255.938V266H134.42V263.932H134.301C134.142 264.263 133.877 264.618 133.506 264.996C133.134 265.374 132.641 265.695 132.024 265.96C131.408 266.225 130.655 266.358 129.767 266.358ZM130.125 264.25C131.053 264.25 131.835 264.068 132.472 263.703C133.115 263.339 133.598 262.868 133.923 262.291C134.255 261.714 134.42 261.108 134.42 260.472V258.324C134.321 258.443 134.102 258.553 133.764 258.652C133.433 258.745 133.048 258.828 132.611 258.901C132.18 258.967 131.759 259.027 131.348 259.08C130.944 259.126 130.616 259.166 130.364 259.199C129.754 259.278 129.184 259.408 128.653 259.587C128.13 259.759 127.705 260.021 127.381 260.372C127.063 260.717 126.903 261.187 126.903 261.784C126.903 262.599 127.205 263.216 127.808 263.634C128.418 264.045 129.19 264.25 130.125 264.25ZM130.205 248.659L132.631 244.045H135.375L132.273 248.659H130.205ZM153.419 266.358C152.452 266.358 151.573 266.176 150.784 265.811C149.996 265.44 149.369 264.906 148.905 264.21C148.441 263.508 148.209 262.659 148.209 261.665C148.209 260.79 148.382 260.08 148.726 259.537C149.071 258.987 149.532 258.556 150.108 258.244C150.685 257.933 151.321 257.701 152.017 257.548C152.72 257.389 153.426 257.263 154.135 257.17C155.063 257.051 155.816 256.962 156.392 256.902C156.976 256.836 157.4 256.726 157.665 256.574C157.937 256.421 158.073 256.156 158.073 255.778V255.699C158.073 254.718 157.804 253.955 157.267 253.412C156.737 252.868 155.932 252.597 154.851 252.597C153.731 252.597 152.853 252.842 152.216 253.332C151.58 253.823 151.132 254.347 150.874 254.903L148.647 254.108C149.044 253.18 149.575 252.457 150.238 251.94C150.907 251.417 151.636 251.052 152.425 250.847C153.221 250.634 154.003 250.528 154.772 250.528C155.262 250.528 155.826 250.588 156.462 250.707C157.105 250.82 157.725 251.055 158.321 251.413C158.925 251.771 159.425 252.312 159.823 253.034C160.221 253.757 160.419 254.724 160.419 255.938V266H158.073V263.932H157.953C157.794 264.263 157.529 264.618 157.158 264.996C156.787 265.374 156.293 265.695 155.676 265.96C155.06 266.225 154.308 266.358 153.419 266.358ZM153.777 264.25C154.705 264.25 155.488 264.068 156.124 263.703C156.767 263.339 157.251 262.868 157.576 262.291C157.907 261.714 158.073 261.108 158.073 260.472V258.324C157.973 258.443 157.755 258.553 157.417 258.652C157.085 258.745 156.701 258.828 156.263 258.901C155.832 258.967 155.411 259.027 155 259.08C154.596 259.126 154.268 259.166 154.016 259.199C153.406 259.278 152.836 259.408 152.306 259.587C151.782 259.759 151.358 260.021 151.033 260.372C150.715 260.717 150.556 261.187 150.556 261.784C150.556 262.599 150.857 263.216 151.461 263.634C152.07 264.045 152.843 264.25 153.777 264.25ZM176.644 250.727L170.996 266H168.61L162.962 250.727H165.508L169.724 262.898H169.883L174.099 250.727H176.644ZM183.771 266.358C182.803 266.358 181.925 266.176 181.136 265.811C180.347 265.44 179.721 264.906 179.257 264.21C178.793 263.508 178.561 262.659 178.561 261.665C178.561 260.79 178.733 260.08 179.078 259.537C179.422 258.987 179.883 258.556 180.46 258.244C181.037 257.933 181.673 257.701 182.369 257.548C183.072 257.389 183.778 257.263 184.487 257.17C185.415 257.051 186.167 256.962 186.744 256.902C187.327 256.836 187.752 256.726 188.017 256.574C188.288 256.421 188.424 256.156 188.424 255.778V255.699C188.424 254.718 188.156 253.955 187.619 253.412C187.089 252.868 186.283 252.597 185.203 252.597C184.083 252.597 183.204 252.842 182.568 253.332C181.931 253.823 181.484 254.347 181.225 254.903L178.998 254.108C179.396 253.18 179.926 252.457 180.589 251.94C181.259 251.417 181.988 251.052 182.777 250.847C183.572 250.634 184.354 250.528 185.123 250.528C185.614 250.528 186.177 250.588 186.814 250.707C187.457 250.82 188.076 251.055 188.673 251.413C189.276 251.771 189.777 252.312 190.174 253.034C190.572 253.757 190.771 254.724 190.771 255.938V266H188.424V263.932H188.305C188.146 264.263 187.881 264.618 187.51 264.996C187.138 265.374 186.645 265.695 186.028 265.96C185.412 266.225 184.659 266.358 183.771 266.358ZM184.129 264.25C185.057 264.25 185.839 264.068 186.475 263.703C187.118 263.339 187.602 262.868 187.927 262.291C188.259 261.714 188.424 261.108 188.424 260.472V258.324C188.325 258.443 188.106 258.553 187.768 258.652C187.437 258.745 187.052 258.828 186.615 258.901C186.184 258.967 185.763 259.027 185.352 259.08C184.948 259.126 184.619 259.166 184.368 259.199C183.758 259.278 183.188 259.408 182.657 259.587C182.134 259.759 181.709 260.021 181.385 260.372C181.066 260.717 180.907 261.187 180.907 261.784C180.907 262.599 181.209 263.216 181.812 263.634C182.422 264.045 183.194 264.25 184.129 264.25ZM197.401 256.812V266H195.054V250.727H197.321V253.114H197.52C197.878 252.338 198.421 251.715 199.151 251.244C199.88 250.767 200.821 250.528 201.974 250.528C203.009 250.528 203.913 250.741 204.689 251.165C205.464 251.582 206.068 252.219 206.499 253.074C206.929 253.922 207.145 254.996 207.145 256.295V266H204.798V256.455C204.798 255.255 204.487 254.32 203.864 253.651C203.241 252.974 202.385 252.636 201.298 252.636C200.549 252.636 199.88 252.799 199.29 253.124C198.706 253.448 198.246 253.922 197.908 254.545C197.57 255.169 197.401 255.924 197.401 256.812ZM210.995 266V264.21L219.666 253.074V252.915H211.274V250.727H222.689V252.597L214.257 263.653V263.812H222.967V266H210.995ZM231.076 266.358C230.108 266.358 229.23 266.176 228.441 265.811C227.652 265.44 227.025 264.906 226.561 264.21C226.097 263.508 225.865 262.659 225.865 261.665C225.865 260.79 226.038 260.08 226.382 259.537C226.727 258.987 227.188 258.556 227.765 258.244C228.341 257.933 228.978 257.701 229.674 257.548C230.376 257.389 231.082 257.263 231.792 257.17C232.72 257.051 233.472 256.962 234.049 256.902C234.632 256.836 235.056 256.726 235.321 256.574C235.593 256.421 235.729 256.156 235.729 255.778V255.699C235.729 254.718 235.461 253.955 234.924 253.412C234.393 252.868 233.588 252.597 232.507 252.597C231.387 252.597 230.509 252.842 229.873 253.332C229.236 253.823 228.789 254.347 228.53 254.903L226.303 254.108C226.701 253.18 227.231 252.457 227.894 251.94C228.563 251.417 229.292 251.052 230.081 250.847C230.877 250.634 231.659 250.528 232.428 250.528C232.918 250.528 233.482 250.588 234.118 250.707C234.761 250.82 235.381 251.055 235.978 251.413C236.581 251.771 237.081 252.312 237.479 253.034C237.877 253.757 238.076 254.724 238.076 255.938V266H235.729V263.932H235.61C235.451 264.263 235.185 264.618 234.814 264.996C234.443 265.374 233.949 265.695 233.333 265.96C232.716 266.225 231.964 266.358 231.076 266.358ZM231.434 264.25C232.362 264.25 233.144 264.068 233.78 263.703C234.423 263.339 234.907 262.868 235.232 262.291C235.563 261.714 235.729 261.108 235.729 260.472V258.324C235.63 258.443 235.411 258.553 235.073 258.652C234.741 258.745 234.357 258.828 233.919 258.901C233.489 258.967 233.068 259.027 232.657 259.08C232.252 259.126 231.924 259.166 231.672 259.199C231.062 259.278 230.492 259.408 229.962 259.587C229.438 259.759 229.014 260.021 228.689 260.372C228.371 260.717 228.212 261.187 228.212 261.784C228.212 262.599 228.514 263.216 229.117 263.634C229.727 264.045 230.499 264.25 231.434 264.25ZM244.705 256.812V266H242.359V250.727H244.626V253.114H244.825C245.183 252.338 245.726 251.715 246.455 251.244C247.184 250.767 248.126 250.528 249.279 250.528C250.313 250.528 251.218 250.741 251.994 251.165C252.769 251.582 253.372 252.219 253.803 253.074C254.234 253.922 254.45 254.996 254.45 256.295V266H252.103V256.455C252.103 255.255 251.791 254.32 251.168 253.651C250.545 252.974 249.69 252.636 248.603 252.636C247.854 252.636 247.184 252.799 246.594 253.124C246.011 253.448 245.55 253.922 245.212 254.545C244.874 255.169 244.705 255.924 244.705 256.812ZM264.505 266.318C263.232 266.318 262.108 265.997 261.134 265.354C260.159 264.704 259.397 263.789 258.847 262.609C258.297 261.423 258.022 260.021 258.022 258.403C258.022 256.799 258.297 255.407 258.847 254.227C259.397 253.047 260.163 252.136 261.144 251.493C262.125 250.85 263.258 250.528 264.544 250.528C265.539 250.528 266.324 250.694 266.901 251.026C267.484 251.35 267.928 251.722 268.233 252.139C268.545 252.55 268.787 252.888 268.959 253.153H269.158V245.636H271.505V266H269.238V263.653H268.959C268.787 263.932 268.542 264.283 268.223 264.707C267.905 265.125 267.451 265.5 266.861 265.831C266.271 266.156 265.486 266.318 264.505 266.318ZM264.823 264.21C265.764 264.21 266.56 263.965 267.209 263.474C267.859 262.977 268.353 262.291 268.691 261.416C269.029 260.535 269.198 259.517 269.198 258.364C269.198 257.223 269.032 256.226 268.701 255.371C268.369 254.509 267.879 253.839 267.229 253.362C266.579 252.878 265.777 252.636 264.823 252.636C263.828 252.636 263 252.892 262.337 253.402C261.681 253.906 261.187 254.592 260.855 255.46C260.531 256.322 260.368 257.29 260.368 258.364C260.368 259.451 260.534 260.438 260.865 261.327C261.203 262.208 261.701 262.911 262.357 263.435C263.02 263.952 263.842 264.21 264.823 264.21ZM282.333 266.318C280.954 266.318 279.744 265.99 278.703 265.334C277.669 264.678 276.861 263.759 276.277 262.58C275.701 261.4 275.412 260.021 275.412 258.443C275.412 256.852 275.701 255.464 276.277 254.277C276.861 253.09 277.669 252.169 278.703 251.513C279.744 250.857 280.954 250.528 282.333 250.528C283.712 250.528 284.918 250.857 285.952 251.513C286.993 252.169 287.801 253.09 288.378 254.277C288.962 255.464 289.253 256.852 289.253 258.443C289.253 260.021 288.962 261.4 288.378 262.58C287.801 263.759 286.993 264.678 285.952 265.334C284.918 265.99 283.712 266.318 282.333 266.318ZM282.333 264.21C283.38 264.21 284.242 263.942 284.918 263.405C285.594 262.868 286.095 262.162 286.419 261.287C286.744 260.412 286.907 259.464 286.907 258.443C286.907 257.422 286.744 256.471 286.419 255.589C286.095 254.708 285.594 253.995 284.918 253.452C284.242 252.908 283.38 252.636 282.333 252.636C281.285 252.636 280.424 252.908 279.748 253.452C279.071 253.995 278.571 254.708 278.246 255.589C277.921 256.471 277.759 257.422 277.759 258.443C277.759 259.464 277.921 260.412 278.246 261.287C278.571 262.162 279.071 262.868 279.748 263.405C280.424 263.942 281.285 264.21 282.333 264.21ZM307.114 266.318C305.642 266.318 304.373 265.993 303.305 265.344C302.245 264.688 301.426 263.773 300.849 262.599C300.279 261.42 299.994 260.047 299.994 258.483C299.994 256.919 300.279 255.54 300.849 254.347C301.426 253.147 302.228 252.212 303.256 251.543C304.29 250.866 305.496 250.528 306.875 250.528C307.67 250.528 308.456 250.661 309.232 250.926C310.007 251.191 310.713 251.622 311.349 252.219C311.986 252.809 312.493 253.591 312.871 254.565C313.249 255.54 313.438 256.74 313.438 258.165V259.159H301.665V257.131H311.051C311.051 256.269 310.879 255.5 310.534 254.824C310.196 254.148 309.712 253.614 309.082 253.223C308.459 252.832 307.723 252.636 306.875 252.636C305.94 252.636 305.132 252.868 304.449 253.332C303.773 253.79 303.252 254.386 302.888 255.122C302.523 255.858 302.341 256.647 302.341 257.489V258.841C302.341 259.994 302.54 260.972 302.938 261.774C303.342 262.57 303.902 263.176 304.618 263.594C305.334 264.005 306.166 264.21 307.114 264.21C307.73 264.21 308.287 264.124 308.784 263.952C309.288 263.773 309.722 263.508 310.087 263.156C310.451 262.798 310.733 262.354 310.932 261.824L313.199 262.46C312.96 263.229 312.559 263.905 311.996 264.489C311.432 265.065 310.736 265.516 309.908 265.841C309.079 266.159 308.148 266.318 307.114 266.318ZM319.354 256.812V266H317.007V250.727H319.274V253.114H319.473C319.831 252.338 320.375 251.715 321.104 251.244C321.833 250.767 322.774 250.528 323.928 250.528C324.962 250.528 325.866 250.741 326.642 251.165C327.418 251.582 328.021 252.219 328.452 253.074C328.883 253.922 329.098 254.996 329.098 256.295V266H326.751V256.455C326.751 255.255 326.44 254.32 325.817 253.651C325.194 252.974 324.339 252.636 323.251 252.636C322.502 252.636 321.833 252.799 321.243 253.124C320.66 253.448 320.199 253.922 319.861 254.545C319.523 255.169 319.354 255.924 319.354 256.812ZM343.608 245.636V266H341.261V245.636H343.608ZM352.4 266.358C351.432 266.358 350.554 266.176 349.765 265.811C348.976 265.44 348.35 264.906 347.886 264.21C347.422 263.508 347.19 262.659 347.19 261.665C347.19 260.79 347.362 260.08 347.707 259.537C348.051 258.987 348.512 258.556 349.089 258.244C349.665 257.933 350.302 257.701 350.998 257.548C351.701 257.389 352.406 257.263 353.116 257.17C354.044 257.051 354.796 256.962 355.373 256.902C355.956 256.836 356.38 256.726 356.646 256.574C356.917 256.421 357.053 256.156 357.053 255.778V255.699C357.053 254.718 356.785 253.955 356.248 253.412C355.718 252.868 354.912 252.597 353.832 252.597C352.711 252.597 351.833 252.842 351.197 253.332C350.56 253.823 350.113 254.347 349.854 254.903L347.627 254.108C348.025 253.18 348.555 252.457 349.218 251.94C349.888 251.417 350.617 251.052 351.406 250.847C352.201 250.634 352.983 250.528 353.752 250.528C354.243 250.528 354.806 250.588 355.442 250.707C356.085 250.82 356.705 251.055 357.302 251.413C357.905 251.771 358.406 252.312 358.803 253.034C359.201 253.757 359.4 254.724 359.4 255.938V266H357.053V263.932H356.934C356.775 264.263 356.51 264.618 356.138 264.996C355.767 265.374 355.273 265.695 354.657 265.96C354.04 266.225 353.288 266.358 352.4 266.358ZM352.758 264.25C353.686 264.25 354.468 264.068 355.104 263.703C355.747 263.339 356.231 262.868 356.556 262.291C356.888 261.714 357.053 261.108 357.053 260.472V258.324C356.954 258.443 356.735 258.553 356.397 258.652C356.066 258.745 355.681 258.828 355.244 258.901C354.813 258.967 354.392 259.027 353.981 259.08C353.576 259.126 353.248 259.166 352.996 259.199C352.387 259.278 351.817 259.408 351.286 259.587C350.763 259.759 350.338 260.021 350.013 260.372C349.695 260.717 349.536 261.187 349.536 261.784C349.536 262.599 349.838 263.216 350.441 263.634C351.051 264.045 351.823 264.25 352.758 264.25ZM371.558 266V250.727H373.904V266H371.558ZM372.751 248.182C372.294 248.182 371.899 248.026 371.568 247.714C371.243 247.403 371.081 247.028 371.081 246.591C371.081 246.153 371.243 245.779 371.568 245.467C371.899 245.156 372.294 245 372.751 245C373.208 245 373.6 245.156 373.924 245.467C374.256 245.779 374.422 246.153 374.422 246.591C374.422 247.028 374.256 247.403 373.924 247.714C373.6 248.026 373.208 248.182 372.751 248.182ZM378.202 266V250.727H380.469V253.114H380.668C380.987 252.298 381.5 251.665 382.21 251.214C382.919 250.757 383.771 250.528 384.765 250.528C385.772 250.528 386.611 250.757 387.281 251.214C387.957 251.665 388.484 252.298 388.862 253.114H389.021C389.412 252.325 389.998 251.698 390.781 251.234C391.563 250.764 392.501 250.528 393.594 250.528C394.96 250.528 396.077 250.956 396.945 251.811C397.814 252.66 398.248 253.982 398.248 255.778V266H395.901V255.778C395.901 254.652 395.593 253.846 394.977 253.362C394.36 252.878 393.634 252.636 392.799 252.636C391.725 252.636 390.893 252.961 390.303 253.611C389.713 254.254 389.418 255.069 389.418 256.057V266H387.032V255.54C387.032 254.671 386.75 253.972 386.187 253.442C385.623 252.905 384.897 252.636 384.009 252.636C383.399 252.636 382.829 252.799 382.299 253.124C381.775 253.448 381.351 253.899 381.026 254.476C380.708 255.046 380.549 255.705 380.549 256.455V266H378.202ZM402.538 271.727V250.727H404.805V253.153H405.084C405.256 252.888 405.495 252.55 405.8 252.139C406.111 251.722 406.555 251.35 407.132 251.026C407.715 250.694 408.504 250.528 409.499 250.528C410.785 250.528 411.918 250.85 412.899 251.493C413.88 252.136 414.646 253.047 415.196 254.227C415.746 255.407 416.021 256.799 416.021 258.403C416.021 260.021 415.746 261.423 415.196 262.609C414.646 263.789 413.884 264.704 412.909 265.354C411.935 265.997 410.811 266.318 409.538 266.318C408.557 266.318 407.772 266.156 407.182 265.831C406.592 265.5 406.138 265.125 405.82 264.707C405.501 264.283 405.256 263.932 405.084 263.653H404.885V271.727H402.538ZM404.845 258.364C404.845 259.517 405.014 260.535 405.352 261.416C405.69 262.291 406.184 262.977 406.834 263.474C407.483 263.965 408.279 264.21 409.22 264.21C410.201 264.21 411.02 263.952 411.676 263.435C412.339 262.911 412.836 262.208 413.168 261.327C413.506 260.438 413.675 259.451 413.675 258.364C413.675 257.29 413.509 256.322 413.178 255.46C412.853 254.592 412.359 253.906 411.696 253.402C411.04 252.892 410.214 252.636 409.22 252.636C408.266 252.636 407.464 252.878 406.814 253.362C406.164 253.839 405.674 254.509 405.342 255.371C405.011 256.226 404.845 257.223 404.845 258.364ZM421.947 245.636V266H419.601V245.636H421.947ZM432.649 266.318C431.177 266.318 429.908 265.993 428.841 265.344C427.78 264.688 426.961 263.773 426.385 262.599C425.815 261.42 425.529 260.047 425.529 258.483C425.529 256.919 425.815 255.54 426.385 254.347C426.961 253.147 427.763 252.212 428.791 251.543C429.825 250.866 431.031 250.528 432.41 250.528C433.206 250.528 433.991 250.661 434.767 250.926C435.542 251.191 436.248 251.622 436.885 252.219C437.521 252.809 438.028 253.591 438.406 254.565C438.784 255.54 438.973 256.74 438.973 258.165V259.159H427.2V257.131H436.586C436.586 256.269 436.414 255.5 436.069 254.824C435.731 254.148 435.247 253.614 434.618 253.223C433.994 252.832 433.259 252.636 432.41 252.636C431.475 252.636 430.667 252.868 429.984 253.332C429.308 253.79 428.788 254.386 428.423 255.122C428.058 255.858 427.876 256.647 427.876 257.489V258.841C427.876 259.994 428.075 260.972 428.473 261.774C428.877 262.57 429.437 263.176 430.153 263.594C430.869 264.005 431.701 264.21 432.649 264.21C433.265 264.21 433.822 264.124 434.319 263.952C434.823 263.773 435.257 263.508 435.622 263.156C435.986 262.798 436.268 262.354 436.467 261.824L438.734 262.46C438.495 263.229 438.094 263.905 437.531 264.489C436.967 265.065 436.271 265.516 435.443 265.841C434.614 266.159 433.683 266.318 432.649 266.318ZM442.542 266V250.727H444.809V253.114H445.008C445.326 252.298 445.84 251.665 446.549 251.214C447.259 250.757 448.11 250.528 449.105 250.528C450.112 250.528 450.951 250.757 451.62 251.214C452.297 251.665 452.824 252.298 453.201 253.114H453.36C453.752 252.325 454.338 251.698 455.12 251.234C455.903 250.764 456.841 250.528 457.934 250.528C459.3 250.528 460.417 250.956 461.285 251.811C462.154 252.66 462.588 253.982 462.588 255.778V266H460.241V255.778C460.241 254.652 459.933 253.846 459.316 253.362C458.7 252.878 457.974 252.636 457.139 252.636C456.065 252.636 455.233 252.961 454.643 253.611C454.053 254.254 453.758 255.069 453.758 256.057V266H451.372V255.54C451.372 254.671 451.09 253.972 450.527 253.442C449.963 252.905 449.237 252.636 448.349 252.636C447.739 252.636 447.169 252.799 446.639 253.124C446.115 253.448 445.691 253.899 445.366 254.476C445.048 255.046 444.889 255.705 444.889 256.455V266H442.542ZM473.282 266.318C471.81 266.318 470.541 265.993 469.473 265.344C468.413 264.688 467.594 263.773 467.017 262.599C466.447 261.42 466.162 260.047 466.162 258.483C466.162 256.919 466.447 255.54 467.017 254.347C467.594 253.147 468.396 252.212 469.424 251.543C470.458 250.866 471.664 250.528 473.043 250.528C473.838 250.528 474.624 250.661 475.4 250.926C476.175 251.191 476.881 251.622 477.517 252.219C478.154 252.809 478.661 253.591 479.039 254.565C479.417 255.54 479.605 256.74 479.605 258.165V259.159H467.833V257.131H477.219C477.219 256.269 477.047 255.5 476.702 254.824C476.364 254.148 475.88 253.614 475.25 253.223C474.627 252.832 473.891 252.636 473.043 252.636C472.108 252.636 471.3 252.868 470.617 253.332C469.941 253.79 469.42 254.386 469.056 255.122C468.691 255.858 468.509 256.647 468.509 257.489V258.841C468.509 259.994 468.708 260.972 469.105 261.774C469.51 262.57 470.07 263.176 470.786 263.594C471.502 264.005 472.334 264.21 473.282 264.21C473.898 264.21 474.455 264.124 474.952 263.952C475.456 263.773 475.89 263.508 476.255 263.156C476.619 262.798 476.901 262.354 477.1 261.824L479.367 262.46C479.128 263.229 478.727 263.905 478.164 264.489C477.6 265.065 476.904 265.516 476.076 265.841C475.247 266.159 474.316 266.318 473.282 266.318ZM485.522 256.812V266H483.175V250.727H485.442V253.114H485.641C485.999 252.338 486.542 251.715 487.272 251.244C488.001 250.767 488.942 250.528 490.096 250.528C491.13 250.528 492.034 250.741 492.81 251.165C493.586 251.582 494.189 252.219 494.62 253.074C495.051 253.922 495.266 254.996 495.266 256.295V266H492.919V256.455C492.919 255.255 492.608 254.32 491.985 253.651C491.362 252.974 490.507 252.636 489.419 252.636C488.67 252.636 488.001 252.799 487.411 253.124C486.828 253.448 486.367 253.922 486.029 254.545C485.691 255.169 485.522 255.924 485.522 256.812ZM506.196 250.727V252.716H498.281V250.727H506.196ZM500.588 247.068H502.935V261.625C502.935 262.288 503.031 262.785 503.223 263.116C503.422 263.441 503.674 263.66 503.979 263.773C504.29 263.879 504.618 263.932 504.963 263.932C505.222 263.932 505.434 263.919 505.599 263.892C505.765 263.859 505.898 263.832 505.997 263.812L506.474 265.92C506.315 265.98 506.093 266.04 505.808 266.099C505.523 266.166 505.162 266.199 504.724 266.199C504.062 266.199 503.412 266.056 502.776 265.771C502.146 265.486 501.622 265.052 501.205 264.469C500.794 263.885 500.588 263.15 500.588 262.261V247.068ZM514.22 266.358C513.252 266.358 512.374 266.176 511.585 265.811C510.796 265.44 510.17 264.906 509.706 264.21C509.242 263.508 509.01 262.659 509.01 261.665C509.01 260.79 509.182 260.08 509.527 259.537C509.872 258.987 510.332 258.556 510.909 258.244C511.486 257.933 512.122 257.701 512.818 257.548C513.521 257.389 514.227 257.263 514.936 257.17C515.864 257.051 516.616 256.962 517.193 256.902C517.777 256.836 518.201 256.726 518.466 256.574C518.738 256.421 518.874 256.156 518.874 255.778V255.699C518.874 254.718 518.605 253.955 518.068 253.412C517.538 252.868 516.732 252.597 515.652 252.597C514.532 252.597 513.653 252.842 513.017 253.332C512.381 253.823 511.933 254.347 511.675 254.903L509.447 254.108C509.845 253.18 510.375 252.457 511.038 251.94C511.708 251.417 512.437 251.052 513.226 250.847C514.021 250.634 514.804 250.528 515.572 250.528C516.063 250.528 516.626 250.588 517.263 250.707C517.906 250.82 518.526 251.055 519.122 251.413C519.725 251.771 520.226 252.312 520.624 253.034C521.021 253.757 521.22 254.724 521.22 255.938V266H518.874V263.932H518.754C518.595 264.263 518.33 264.618 517.959 264.996C517.588 265.374 517.094 265.695 516.477 265.96C515.861 266.225 515.108 266.358 514.22 266.358ZM514.578 264.25C515.506 264.25 516.288 264.068 516.925 263.703C517.568 263.339 518.052 262.868 518.376 262.291C518.708 261.714 518.874 261.108 518.874 260.472V258.324C518.774 258.443 518.555 258.553 518.217 258.652C517.886 258.745 517.501 258.828 517.064 258.901C516.633 258.967 516.212 259.027 515.801 259.08C515.397 259.126 515.069 259.166 514.817 259.199C514.207 259.278 513.637 259.408 513.107 259.587C512.583 259.759 512.159 260.021 511.834 260.372C511.516 260.717 511.357 261.187 511.357 261.784C511.357 262.599 511.658 263.216 512.261 263.634C512.871 264.045 513.643 264.25 514.578 264.25ZM531.708 266.318C530.276 266.318 529.043 265.98 528.009 265.304C526.975 264.628 526.179 263.696 525.623 262.51C525.066 261.323 524.787 259.968 524.787 258.443C524.787 256.892 525.072 255.523 525.642 254.337C526.219 253.143 527.021 252.212 528.049 251.543C529.083 250.866 530.289 250.528 531.668 250.528C532.742 250.528 533.71 250.727 534.571 251.125C535.433 251.523 536.139 252.08 536.689 252.795C537.239 253.511 537.581 254.347 537.713 255.301H535.367C535.188 254.605 534.79 253.989 534.174 253.452C533.564 252.908 532.742 252.636 531.708 252.636C530.793 252.636 529.991 252.875 529.301 253.352C528.619 253.823 528.085 254.489 527.701 255.351C527.323 256.206 527.134 257.21 527.134 258.364C527.134 259.544 527.319 260.571 527.691 261.446C528.069 262.321 528.599 263 529.282 263.484C529.971 263.968 530.78 264.21 531.708 264.21C532.318 264.21 532.871 264.104 533.368 263.892C533.865 263.68 534.286 263.375 534.631 262.977C534.976 262.58 535.221 262.102 535.367 261.545H537.713C537.581 262.447 537.253 263.259 536.729 263.982C536.212 264.697 535.526 265.268 534.671 265.692C533.822 266.109 532.835 266.318 531.708 266.318ZM541.144 266V250.727H543.49V266H541.144ZM542.337 248.182C541.88 248.182 541.485 248.026 541.154 247.714C540.829 247.403 540.667 247.028 540.667 246.591C540.667 246.153 540.829 245.779 541.154 245.467C541.485 245.156 541.88 245 542.337 245C542.794 245 543.185 245.156 543.51 245.467C543.842 245.779 544.007 246.153 544.007 246.591C544.007 247.028 543.842 247.403 543.51 247.714C543.185 248.026 542.794 248.182 542.337 248.182ZM553.993 266.318C552.614 266.318 551.404 265.99 550.364 265.334C549.33 264.678 548.521 263.759 547.938 262.58C547.361 261.4 547.072 260.021 547.072 258.443C547.072 256.852 547.361 255.464 547.938 254.277C548.521 253.09 549.33 252.169 550.364 251.513C551.404 250.857 552.614 250.528 553.993 250.528C555.372 250.528 556.578 250.857 557.612 251.513C558.653 252.169 559.462 253.09 560.038 254.277C560.622 255.464 560.913 256.852 560.913 258.443C560.913 260.021 560.622 261.4 560.038 262.58C559.462 263.759 558.653 264.678 557.612 265.334C556.578 265.99 555.372 266.318 553.993 266.318ZM553.993 264.21C555.04 264.21 555.902 263.942 556.578 263.405C557.254 262.868 557.755 262.162 558.08 261.287C558.404 260.412 558.567 259.464 558.567 258.443C558.567 257.422 558.404 256.471 558.08 255.589C557.755 254.708 557.254 253.995 556.578 253.452C555.902 252.908 555.04 252.636 553.993 252.636C552.946 252.636 552.084 252.908 551.408 253.452C550.732 253.995 550.231 254.708 549.906 255.589C549.581 256.471 549.419 257.422 549.419 258.443C549.419 259.464 549.581 260.412 549.906 261.287C550.231 262.162 550.732 262.868 551.408 263.405C552.084 263.942 552.946 264.21 553.993 264.21ZM552.919 248.659L555.345 244.045H558.089L554.987 248.659H552.919ZM566.842 256.812V266H564.495V250.727H566.762V253.114H566.961C567.319 252.338 567.863 251.715 568.592 251.244C569.321 250.767 570.262 250.528 571.416 250.528C572.45 250.528 573.355 250.741 574.13 251.165C574.906 251.582 575.509 252.219 575.94 253.074C576.371 253.922 576.586 254.996 576.586 256.295V266H574.24V256.455C574.24 255.255 573.928 254.32 573.305 253.651C572.682 252.974 571.827 252.636 570.74 252.636C569.991 252.636 569.321 252.799 568.731 253.124C568.148 253.448 567.687 253.922 567.349 254.545C567.011 255.169 566.842 255.924 566.842 256.812ZM47.9148 305.318C46.642 305.318 45.5185 304.997 44.544 304.354C43.5696 303.704 42.8073 302.789 42.2571 301.609C41.7069 300.423 41.4318 299.021 41.4318 297.403C41.4318 295.799 41.7069 294.407 42.2571 293.227C42.8073 292.047 43.5729 291.136 44.554 290.493C45.535 289.85 46.6686 289.528 47.9545 289.528C48.9489 289.528 49.7344 289.694 50.3111 290.026C50.8944 290.35 51.3385 290.722 51.6435 291.139C51.955 291.55 52.197 291.888 52.3693 292.153H52.5682V284.636H54.9148V305H52.6477V302.653H52.3693C52.197 302.932 51.9517 303.283 51.6335 303.707C51.3153 304.125 50.8613 304.5 50.2713 304.831C49.6813 305.156 48.8958 305.318 47.9148 305.318ZM48.233 303.21C49.1742 303.21 49.9697 302.965 50.6193 302.474C51.2689 301.977 51.7628 301.291 52.1009 300.416C52.4389 299.535 52.608 298.517 52.608 297.364C52.608 296.223 52.4422 295.226 52.1108 294.371C51.7794 293.509 51.2888 292.839 50.6392 292.362C49.9896 291.878 49.1875 291.636 48.233 291.636C47.2386 291.636 46.41 291.892 45.7472 292.402C45.0909 292.906 44.5971 293.592 44.2656 294.46C43.9408 295.322 43.7784 296.29 43.7784 297.364C43.7784 298.451 43.9441 299.438 44.2756 300.327C44.6136 301.208 45.1108 301.911 45.767 302.435C46.4299 302.952 47.2519 303.21 48.233 303.21ZM65.9418 305.318C64.4702 305.318 63.2008 304.993 62.1335 304.344C61.0729 303.688 60.2543 302.773 59.6776 301.599C59.1075 300.42 58.8224 299.047 58.8224 297.483C58.8224 295.919 59.1075 294.54 59.6776 293.347C60.2543 292.147 61.0563 291.212 62.0838 290.543C63.1179 289.866 64.3243 289.528 65.7031 289.528C66.4986 289.528 67.2841 289.661 68.0597 289.926C68.8352 290.191 69.5412 290.622 70.1776 291.219C70.8139 291.809 71.321 292.591 71.6989 293.565C72.0767 294.54 72.2656 295.74 72.2656 297.165V298.159H60.4929V296.131H69.8793C69.8793 295.269 69.7069 294.5 69.3622 293.824C69.0241 293.148 68.5402 292.614 67.9105 292.223C67.2874 291.832 66.5516 291.636 65.7031 291.636C64.7685 291.636 63.9598 291.868 63.277 292.332C62.6009 292.79 62.0805 293.386 61.7159 294.122C61.3513 294.858 61.169 295.647 61.169 296.489V297.841C61.169 298.994 61.3679 299.972 61.7656 300.774C62.17 301.57 62.7301 302.176 63.446 302.594C64.1619 303.005 64.9938 303.21 65.9418 303.21C66.5582 303.21 67.1151 303.124 67.6122 302.952C68.116 302.773 68.5502 302.508 68.9148 302.156C69.2794 301.798 69.5611 301.354 69.7599 300.824L72.027 301.46C71.7884 302.229 71.3873 302.905 70.8239 303.489C70.2604 304.065 69.5644 304.516 68.7358 304.841C67.9072 305.159 66.9759 305.318 65.9418 305.318ZM86.0568 284.636V305H83.7102V284.636H86.0568ZM94.8491 305.358C93.8813 305.358 93.003 305.176 92.2141 304.811C91.4253 304.44 90.7989 303.906 90.3349 303.21C89.8709 302.508 89.6388 301.659 89.6388 300.665C89.6388 299.79 89.8112 299.08 90.1559 298.537C90.5006 297.987 90.9613 297.556 91.538 297.244C92.1147 296.933 92.7511 296.701 93.4471 296.548C94.1497 296.389 94.8557 296.263 95.565 296.17C96.493 296.051 97.2454 295.962 97.8221 295.902C98.4054 295.836 98.8297 295.726 99.0948 295.574C99.3666 295.421 99.5025 295.156 99.5025 294.778V294.699C99.5025 293.718 99.234 292.955 98.6971 292.412C98.1668 291.868 97.3614 291.597 96.2809 291.597C95.1606 291.597 94.2823 291.842 93.646 292.332C93.0096 292.823 92.5621 293.347 92.3036 293.903L90.0763 293.108C90.4741 292.18 91.0044 291.457 91.6673 290.94C92.3368 290.417 93.0659 290.052 93.8548 289.847C94.6502 289.634 95.4324 289.528 96.2013 289.528C96.6919 289.528 97.2553 289.588 97.8917 289.707C98.5347 289.82 99.1545 290.055 99.7511 290.413C100.354 290.771 100.855 291.312 101.252 292.034C101.65 292.757 101.849 293.724 101.849 294.938V305H99.5025V302.932H99.3832C99.2241 303.263 98.9589 303.618 98.5877 303.996C98.2165 304.374 97.7227 304.695 97.1062 304.96C96.4897 305.225 95.7373 305.358 94.8491 305.358ZM95.207 303.25C96.1351 303.25 96.9173 303.068 97.5536 302.703C98.1966 302.339 98.6805 301.868 99.0053 301.291C99.3368 300.714 99.5025 300.108 99.5025 299.472V297.324C99.4031 297.443 99.1843 297.553 98.8462 297.652C98.5148 297.745 98.1303 297.828 97.6928 297.901C97.262 297.967 96.841 298.027 96.43 298.08C96.0257 298.126 95.6976 298.166 95.4457 298.199C94.8358 298.278 94.2657 298.408 93.7354 298.587C93.2118 298.759 92.7875 299.021 92.4627 299.372C92.1445 299.717 91.9854 300.187 91.9854 300.784C91.9854 301.599 92.2871 302.216 92.8903 302.634C93.5001 303.045 94.2724 303.25 95.207 303.25ZM116.95 293.148L114.842 293.744C114.71 293.393 114.514 293.052 114.256 292.72C114.004 292.382 113.659 292.104 113.222 291.885C112.784 291.666 112.224 291.557 111.541 291.557C110.607 291.557 109.828 291.772 109.205 292.203C108.588 292.627 108.28 293.168 108.28 293.824C108.28 294.407 108.492 294.868 108.916 295.206C109.34 295.544 110.003 295.826 110.905 296.051L113.172 296.608C114.537 296.939 115.555 297.446 116.224 298.129C116.894 298.805 117.229 299.677 117.229 300.744C117.229 301.619 116.977 302.402 116.473 303.091C115.976 303.78 115.28 304.324 114.385 304.722C113.49 305.119 112.449 305.318 111.263 305.318C109.705 305.318 108.416 304.98 107.395 304.304C106.374 303.628 105.728 302.64 105.456 301.341L107.683 300.784C107.895 301.606 108.296 302.223 108.886 302.634C109.483 303.045 110.262 303.25 111.223 303.25C112.317 303.25 113.185 303.018 113.828 302.554C114.478 302.083 114.803 301.52 114.803 300.864C114.803 300.333 114.617 299.889 114.246 299.531C113.875 299.167 113.304 298.895 112.536 298.716L109.99 298.119C108.591 297.788 107.564 297.274 106.908 296.578C106.258 295.875 105.933 294.997 105.933 293.943C105.933 293.081 106.175 292.319 106.659 291.656C107.15 290.993 107.816 290.473 108.658 290.095C109.506 289.717 110.467 289.528 111.541 289.528C113.053 289.528 114.239 289.86 115.101 290.523C115.969 291.186 116.586 292.061 116.95 293.148ZM127.841 286.824V284.636H143.113V286.824H136.71V305H134.244V286.824H127.841ZM149.385 284.636V305H146.919V284.636H149.385ZM170.716 291H168.25C168.104 290.291 167.849 289.668 167.484 289.131C167.126 288.594 166.689 288.143 166.172 287.778C165.661 287.407 165.094 287.129 164.471 286.943C163.848 286.758 163.199 286.665 162.522 286.665C161.289 286.665 160.172 286.976 159.172 287.599C158.177 288.223 157.385 289.141 156.795 290.354C156.212 291.567 155.92 293.055 155.92 294.818C155.92 296.581 156.212 298.07 156.795 299.283C157.385 300.496 158.177 301.414 159.172 302.037C160.172 302.66 161.289 302.972 162.522 302.972C163.199 302.972 163.848 302.879 164.471 302.693C165.094 302.508 165.661 302.232 166.172 301.868C166.689 301.497 167.126 301.043 167.484 300.506C167.849 299.962 168.104 299.339 168.25 298.636H170.716C170.53 299.677 170.192 300.608 169.701 301.43C169.211 302.252 168.601 302.952 167.872 303.528C167.143 304.098 166.324 304.533 165.416 304.831C164.514 305.129 163.55 305.278 162.522 305.278C160.786 305.278 159.241 304.854 157.889 304.006C156.537 303.157 155.473 301.951 154.697 300.386C153.922 298.822 153.534 296.966 153.534 294.818C153.534 292.67 153.922 290.814 154.697 289.25C155.473 287.686 156.537 286.479 157.889 285.631C159.241 284.782 160.786 284.358 162.522 284.358C163.55 284.358 164.514 284.507 165.416 284.805C166.324 285.104 167.143 285.541 167.872 286.118C168.601 286.688 169.211 287.384 169.701 288.206C170.192 289.021 170.53 289.953 170.716 291ZM185.2 293.148L183.092 293.744C182.96 293.393 182.764 293.052 182.506 292.72C182.254 292.382 181.909 292.104 181.472 291.885C181.034 291.666 180.474 291.557 179.791 291.557C178.857 291.557 178.078 291.772 177.455 292.203C176.838 292.627 176.53 293.168 176.53 293.824C176.53 294.407 176.742 294.868 177.166 295.206C177.59 295.544 178.253 295.826 179.155 296.051L181.422 296.608C182.787 296.939 183.805 297.446 184.474 298.129C185.144 298.805 185.479 299.677 185.479 300.744C185.479 301.619 185.227 302.402 184.723 303.091C184.226 303.78 183.53 304.324 182.635 304.722C181.74 305.119 180.699 305.318 179.513 305.318C177.955 305.318 176.666 304.98 175.645 304.304C174.624 303.628 173.978 302.64 173.706 301.341L175.933 300.784C176.145 301.606 176.546 302.223 177.136 302.634C177.733 303.045 178.512 303.25 179.473 303.25C180.567 303.25 181.435 303.018 182.078 302.554C182.728 302.083 183.053 301.52 183.053 300.864C183.053 300.333 182.867 299.889 182.496 299.531C182.125 299.167 181.554 298.895 180.786 298.716L178.24 298.119C176.841 297.788 175.814 297.274 175.158 296.578C174.508 295.875 174.183 294.997 174.183 293.943C174.183 293.081 174.425 292.319 174.909 291.656C175.4 290.993 176.066 290.473 176.908 290.095C177.756 289.717 178.717 289.528 179.791 289.528C181.303 289.528 182.489 289.86 183.351 290.523C184.219 291.186 184.836 292.061 185.2 293.148ZM196.886 310.727V289.727H199.153V292.153H199.431C199.604 291.888 199.842 291.55 200.147 291.139C200.459 290.722 200.903 290.35 201.48 290.026C202.063 289.694 202.852 289.528 203.846 289.528C205.132 289.528 206.266 289.85 207.247 290.493C208.228 291.136 208.993 292.047 209.544 293.227C210.094 294.407 210.369 295.799 210.369 297.403C210.369 299.021 210.094 300.423 209.544 301.609C208.993 302.789 208.231 303.704 207.257 304.354C206.282 304.997 205.159 305.318 203.886 305.318C202.905 305.318 202.119 305.156 201.529 304.831C200.94 304.5 200.485 304.125 200.167 303.707C199.849 303.283 199.604 302.932 199.431 302.653H199.233V310.727H196.886ZM199.193 297.364C199.193 298.517 199.362 299.535 199.7 300.416C200.038 301.291 200.532 301.977 201.181 302.474C201.831 302.965 202.627 303.21 203.568 303.21C204.549 303.21 205.368 302.952 206.024 302.435C206.687 301.911 207.184 301.208 207.515 300.327C207.853 299.438 208.022 298.451 208.022 297.364C208.022 296.29 207.857 295.322 207.525 294.46C207.2 293.592 206.707 292.906 206.044 292.402C205.387 291.892 204.562 291.636 203.568 291.636C202.613 291.636 201.811 291.878 201.162 292.362C200.512 292.839 200.021 293.509 199.69 294.371C199.359 295.226 199.193 296.223 199.193 297.364ZM218.443 305.358C217.475 305.358 216.597 305.176 215.808 304.811C215.019 304.44 214.393 303.906 213.929 303.21C213.465 302.508 213.233 301.659 213.233 300.665C213.233 299.79 213.405 299.08 213.75 298.537C214.094 297.987 214.555 297.556 215.132 297.244C215.708 296.933 216.345 296.701 217.041 296.548C217.743 296.389 218.449 296.263 219.159 296.17C220.087 296.051 220.839 295.962 221.416 295.902C221.999 295.836 222.423 295.726 222.689 295.574C222.96 295.421 223.096 295.156 223.096 294.778V294.699C223.096 293.718 222.828 292.955 222.291 292.412C221.761 291.868 220.955 291.597 219.875 291.597C218.754 291.597 217.876 291.842 217.24 292.332C216.603 292.823 216.156 293.347 215.897 293.903L213.67 293.108C214.068 292.18 214.598 291.457 215.261 290.94C215.931 290.417 216.66 290.052 217.449 289.847C218.244 289.634 219.026 289.528 219.795 289.528C220.286 289.528 220.849 289.588 221.485 289.707C222.128 289.82 222.748 290.055 223.345 290.413C223.948 290.771 224.449 291.312 224.846 292.034C225.244 292.757 225.443 293.724 225.443 294.938V305H223.096V302.932H222.977C222.818 303.263 222.553 303.618 222.181 303.996C221.81 304.374 221.316 304.695 220.7 304.96C220.083 305.225 219.331 305.358 218.443 305.358ZM218.801 303.25C219.729 303.25 220.511 303.068 221.147 302.703C221.79 302.339 222.274 301.868 222.599 301.291C222.931 300.714 223.096 300.108 223.096 299.472V297.324C222.997 297.443 222.778 297.553 222.44 297.652C222.109 297.745 221.724 297.828 221.287 297.901C220.856 297.967 220.435 298.027 220.024 298.08C219.619 298.126 219.291 298.166 219.039 298.199C218.43 298.278 217.859 298.408 217.329 298.587C216.806 298.759 216.381 299.021 216.056 299.372C215.738 299.717 215.579 300.187 215.579 300.784C215.579 301.599 215.881 302.216 216.484 302.634C217.094 303.045 217.866 303.25 218.801 303.25ZM229.726 305V289.727H231.993V292.034H232.152C232.43 291.278 232.934 290.665 233.663 290.195C234.393 289.724 235.214 289.489 236.129 289.489C236.302 289.489 236.517 289.492 236.776 289.499C237.034 289.505 237.23 289.515 237.362 289.528V291.915C237.283 291.895 237.1 291.865 236.815 291.825C236.537 291.779 236.242 291.756 235.93 291.756C235.188 291.756 234.525 291.911 233.942 292.223C233.365 292.528 232.908 292.952 232.57 293.496C232.238 294.033 232.072 294.646 232.072 295.335V305H229.726ZM244.638 305.358C243.67 305.358 242.792 305.176 242.003 304.811C241.214 304.44 240.588 303.906 240.124 303.21C239.66 302.508 239.428 301.659 239.428 300.665C239.428 299.79 239.6 299.08 239.945 298.537C240.29 297.987 240.75 297.556 241.327 297.244C241.904 296.933 242.54 296.701 243.236 296.548C243.939 296.389 244.645 296.263 245.354 296.17C246.282 296.051 247.034 295.962 247.611 295.902C248.194 295.836 248.619 295.726 248.884 295.574C249.156 295.421 249.292 295.156 249.292 294.778V294.699C249.292 293.718 249.023 292.955 248.486 292.412C247.956 291.868 247.15 291.597 246.07 291.597C244.95 291.597 244.071 291.842 243.435 292.332C242.799 292.823 242.351 293.347 242.093 293.903L239.865 293.108C240.263 292.18 240.793 291.457 241.456 290.94C242.126 290.417 242.855 290.052 243.644 289.847C244.439 289.634 245.221 289.528 245.99 289.528C246.481 289.528 247.044 289.588 247.681 289.707C248.324 289.82 248.944 290.055 249.54 290.413C250.143 290.771 250.644 291.312 251.042 292.034C251.439 292.757 251.638 293.724 251.638 294.938V305H249.292V302.932H249.172C249.013 303.263 248.748 303.618 248.377 303.996C248.006 304.374 247.512 304.695 246.895 304.96C246.279 305.225 245.526 305.358 244.638 305.358ZM244.996 303.25C245.924 303.25 246.706 303.068 247.343 302.703C247.986 302.339 248.47 301.868 248.794 301.291C249.126 300.714 249.292 300.108 249.292 299.472V297.324C249.192 297.443 248.973 297.553 248.635 297.652C248.304 297.745 247.919 297.828 247.482 297.901C247.051 297.967 246.63 298.027 246.219 298.08C245.815 298.126 245.487 298.166 245.235 298.199C244.625 298.278 244.055 298.408 243.525 298.587C243.001 298.759 242.577 299.021 242.252 299.372C241.934 299.717 241.775 300.187 241.775 300.784C241.775 301.599 242.076 302.216 242.679 302.634C243.289 303.045 244.061 303.25 244.996 303.25ZM270.001 305.318C268.569 305.318 267.336 304.98 266.302 304.304C265.268 303.628 264.472 302.696 263.915 301.51C263.359 300.323 263.08 298.968 263.08 297.443C263.08 295.892 263.365 294.523 263.935 293.337C264.512 292.143 265.314 291.212 266.342 290.543C267.376 289.866 268.582 289.528 269.961 289.528C271.035 289.528 272.003 289.727 272.864 290.125C273.726 290.523 274.432 291.08 274.982 291.795C275.532 292.511 275.874 293.347 276.006 294.301H273.66C273.481 293.605 273.083 292.989 272.467 292.452C271.857 291.908 271.035 291.636 270.001 291.636C269.086 291.636 268.284 291.875 267.594 292.352C266.912 292.823 266.378 293.489 265.994 294.351C265.616 295.206 265.427 296.21 265.427 297.364C265.427 298.544 265.612 299.571 265.984 300.446C266.362 301.321 266.892 302 267.575 302.484C268.264 302.968 269.073 303.21 270.001 303.21C270.611 303.21 271.164 303.104 271.661 302.892C272.158 302.68 272.579 302.375 272.924 301.977C273.269 301.58 273.514 301.102 273.66 300.545H276.006C275.874 301.447 275.546 302.259 275.022 302.982C274.505 303.697 273.819 304.268 272.964 304.692C272.115 305.109 271.128 305.318 270.001 305.318ZM285.641 305.318C284.263 305.318 283.053 304.99 282.012 304.334C280.978 303.678 280.169 302.759 279.586 301.58C279.009 300.4 278.721 299.021 278.721 297.443C278.721 295.852 279.009 294.464 279.586 293.277C280.169 292.09 280.978 291.169 282.012 290.513C283.053 289.857 284.263 289.528 285.641 289.528C287.02 289.528 288.227 289.857 289.261 290.513C290.301 291.169 291.11 292.09 291.687 293.277C292.27 294.464 292.562 295.852 292.562 297.443C292.562 299.021 292.27 300.4 291.687 301.58C291.11 302.759 290.301 303.678 289.261 304.334C288.227 304.99 287.02 305.318 285.641 305.318ZM285.641 303.21C286.689 303.21 287.55 302.942 288.227 302.405C288.903 301.868 289.403 301.162 289.728 300.287C290.053 299.412 290.215 298.464 290.215 297.443C290.215 296.422 290.053 295.471 289.728 294.589C289.403 293.708 288.903 292.995 288.227 292.452C287.55 291.908 286.689 291.636 285.641 291.636C284.594 291.636 283.732 291.908 283.056 292.452C282.38 292.995 281.879 293.708 281.555 294.589C281.23 295.471 281.067 296.422 281.067 297.443C281.067 298.464 281.23 299.412 281.555 300.287C281.879 301.162 282.38 301.868 283.056 302.405C283.732 302.942 284.594 303.21 285.641 303.21ZM296.144 305V289.727H298.411V292.114H298.61C298.928 291.298 299.442 290.665 300.151 290.214C300.86 289.757 301.712 289.528 302.706 289.528C303.714 289.528 304.552 289.757 305.222 290.214C305.898 290.665 306.425 291.298 306.803 292.114H306.962C307.353 291.325 307.94 290.698 308.722 290.234C309.504 289.764 310.442 289.528 311.536 289.528C312.901 289.528 314.018 289.956 314.887 290.811C315.755 291.66 316.189 292.982 316.189 294.778V305H313.843V294.778C313.843 293.652 313.534 292.846 312.918 292.362C312.301 291.878 311.576 291.636 310.74 291.636C309.667 291.636 308.835 291.961 308.245 292.611C307.655 293.254 307.36 294.069 307.36 295.057V305H304.973V294.54C304.973 293.671 304.692 292.972 304.128 292.442C303.565 291.905 302.839 291.636 301.951 291.636C301.341 291.636 300.771 291.799 300.24 292.124C299.717 292.448 299.292 292.899 298.968 293.476C298.65 294.046 298.49 294.705 298.49 295.455V305H296.144ZM320.798 305V284.636H323.145V292.153H323.343C323.516 291.888 323.754 291.55 324.059 291.139C324.371 290.722 324.815 290.35 325.392 290.026C325.975 289.694 326.764 289.528 327.758 289.528C329.044 289.528 330.178 289.85 331.159 290.493C332.14 291.136 332.905 292.047 333.456 293.227C334.006 294.407 334.281 295.799 334.281 297.403C334.281 299.021 334.006 300.423 333.456 301.609C332.905 302.789 332.143 303.704 331.169 304.354C330.194 304.997 329.071 305.318 327.798 305.318C326.817 305.318 326.031 305.156 325.441 304.831C324.851 304.5 324.397 304.125 324.079 303.707C323.761 303.283 323.516 302.932 323.343 302.653H323.065V305H320.798ZM323.105 297.364C323.105 298.517 323.274 299.535 323.612 300.416C323.95 301.291 324.444 301.977 325.093 302.474C325.743 302.965 326.538 303.21 327.48 303.21C328.461 303.21 329.279 302.952 329.936 302.435C330.599 301.911 331.096 301.208 331.427 300.327C331.765 299.438 331.934 298.451 331.934 297.364C331.934 296.29 331.769 295.322 331.437 294.46C331.112 293.592 330.618 292.906 329.956 292.402C329.299 291.892 328.474 291.636 327.48 291.636C326.525 291.636 325.723 291.878 325.074 292.362C324.424 292.839 323.933 293.509 323.602 294.371C323.27 295.226 323.105 296.223 323.105 297.364ZM342.365 305.358C341.397 305.358 340.519 305.176 339.73 304.811C338.941 304.44 338.315 303.906 337.85 303.21C337.386 302.508 337.154 301.659 337.154 300.665C337.154 299.79 337.327 299.08 337.672 298.537C338.016 297.987 338.477 297.556 339.054 297.244C339.63 296.933 340.267 296.701 340.963 296.548C341.665 296.389 342.371 296.263 343.081 296.17C344.009 296.051 344.761 295.962 345.338 295.902C345.921 295.836 346.345 295.726 346.61 295.574C346.882 295.421 347.018 295.156 347.018 294.778V294.699C347.018 293.718 346.75 292.955 346.213 292.412C345.682 291.868 344.877 291.597 343.797 291.597C342.676 291.597 341.798 291.842 341.162 292.332C340.525 292.823 340.078 293.347 339.819 293.903L337.592 293.108C337.99 292.18 338.52 291.457 339.183 290.94C339.852 290.417 340.582 290.052 341.37 289.847C342.166 289.634 342.948 289.528 343.717 289.528C344.208 289.528 344.771 289.588 345.407 289.707C346.05 289.82 346.67 290.055 347.267 290.413C347.87 290.771 348.37 291.312 348.768 292.034C349.166 292.757 349.365 293.724 349.365 294.938V305H347.018V302.932H346.899C346.74 303.263 346.475 303.618 346.103 303.996C345.732 304.374 345.238 304.695 344.622 304.96C344.005 305.225 343.253 305.358 342.365 305.358ZM342.723 303.25C343.651 303.25 344.433 303.068 345.069 302.703C345.712 302.339 346.196 301.868 346.521 301.291C346.852 300.714 347.018 300.108 347.018 299.472V297.324C346.919 297.443 346.7 297.553 346.362 297.652C346.03 297.745 345.646 297.828 345.208 297.901C344.778 297.967 344.357 298.027 343.946 298.08C343.541 298.126 343.213 298.166 342.961 298.199C342.351 298.278 341.781 298.408 341.251 298.587C340.727 298.759 340.303 299.021 339.978 299.372C339.66 299.717 339.501 300.187 339.501 300.784C339.501 301.599 339.803 302.216 340.406 302.634C341.016 303.045 341.788 303.25 342.723 303.25ZM360.29 289.727V291.716H352.375V289.727H360.29ZM354.682 286.068H357.028V300.625C357.028 301.288 357.125 301.785 357.317 302.116C357.516 302.441 357.768 302.66 358.072 302.773C358.384 302.879 358.712 302.932 359.057 302.932C359.315 302.932 359.527 302.919 359.693 302.892C359.859 302.859 359.991 302.832 360.091 302.812L360.568 304.92C360.409 304.98 360.187 305.04 359.902 305.099C359.617 305.166 359.256 305.199 358.818 305.199C358.155 305.199 357.506 305.056 356.869 304.771C356.24 304.486 355.716 304.052 355.298 303.469C354.887 302.885 354.682 302.15 354.682 301.261V286.068ZM363.82 305V289.727H366.166V305H363.82ZM365.013 287.182C364.555 287.182 364.161 287.026 363.83 286.714C363.505 286.403 363.342 286.028 363.342 285.591C363.342 285.153 363.505 284.779 363.83 284.467C364.161 284.156 364.555 284 365.013 284C365.47 284 365.861 284.156 366.186 284.467C366.518 284.779 366.683 285.153 366.683 285.591C366.683 286.028 366.518 286.403 366.186 286.714C365.861 287.026 365.47 287.182 365.013 287.182ZM370.464 305V289.727H372.731V292.034H372.89C373.169 291.278 373.672 290.665 374.402 290.195C375.131 289.724 375.953 289.489 376.868 289.489C377.04 289.489 377.255 289.492 377.514 289.499C377.772 289.505 377.968 289.515 378.1 289.528V291.915C378.021 291.895 377.839 291.865 377.554 291.825C377.275 291.779 376.98 291.756 376.669 291.756C375.926 291.756 375.263 291.911 374.68 292.223C374.103 292.528 373.646 292.952 373.308 293.496C372.976 294.033 372.811 294.646 372.811 295.335V305H370.464ZM395.161 305.318C393.689 305.318 392.42 304.993 391.352 304.344C390.292 303.688 389.473 302.773 388.896 301.599C388.326 300.42 388.041 299.047 388.041 297.483C388.041 295.919 388.326 294.54 388.896 293.347C389.473 292.147 390.275 291.212 391.303 290.543C392.337 289.866 393.543 289.528 394.922 289.528C395.717 289.528 396.503 289.661 397.278 289.926C398.054 290.191 398.76 290.622 399.396 291.219C400.033 291.809 400.54 292.591 400.918 293.565C401.295 294.54 401.484 295.74 401.484 297.165V298.159H389.712V296.131H399.098C399.098 295.269 398.926 294.5 398.581 293.824C398.243 293.148 397.759 292.614 397.129 292.223C396.506 291.832 395.77 291.636 394.922 291.636C393.987 291.636 393.179 291.868 392.496 292.332C391.82 292.79 391.299 293.386 390.935 294.122C390.57 294.858 390.388 295.647 390.388 296.489V297.841C390.388 298.994 390.587 299.972 390.984 300.774C391.389 301.57 391.949 302.176 392.665 302.594C393.381 303.005 394.213 303.21 395.161 303.21C395.777 303.21 396.334 303.124 396.831 302.952C397.335 302.773 397.769 302.508 398.134 302.156C398.498 301.798 398.78 301.354 398.979 300.824L401.246 301.46C401.007 302.229 400.606 302.905 400.043 303.489C399.479 304.065 398.783 304.516 397.955 304.841C397.126 305.159 396.195 305.318 395.161 305.318ZM407.401 284.636V305H405.054V284.636H407.401ZM418.778 286.824V284.636H434.051V286.824H427.647V305H425.181V286.824H418.778ZM440.322 284.636V305H437.857V284.636H440.322ZM445.267 284.636H448.21L455.13 301.54H455.369L462.289 284.636H465.233V305H462.926V289.528H462.727L456.363 305H454.136L447.772 289.528H447.574V305H445.267V284.636ZM471.569 305.159C471.078 305.159 470.657 304.983 470.306 304.632C469.955 304.281 469.779 303.86 469.779 303.369C469.779 302.879 469.955 302.458 470.306 302.107C470.657 301.755 471.078 301.58 471.569 301.58C472.059 301.58 472.48 301.755 472.832 302.107C473.183 302.458 473.359 302.879 473.359 303.369C473.359 303.694 473.276 303.992 473.11 304.264C472.951 304.536 472.736 304.755 472.464 304.92C472.199 305.08 471.9 305.159 471.569 305.159Z" fill="#1F1F1F"/>
</svg>
