<svg width="60" height="60" viewBox="0 0 60 60" fill="none" xmlns="http://www.w3.org/2000/svg">
<g id="Group 94">
<circle id="Ellipse 62" cx="30" cy="30" r="30" fill="#D9D9D9"/>
<g id="Group 8">
<path id="Vector" d="M26.4993 37.2241C26.3099 36.6982 26.1208 36.172 25.931 35.6461C24.8594 32.6815 23.7879 29.7168 22.7163 26.7521C21.9899 24.7425 21.2747 22.7285 20.5314 20.7249C20.1038 19.5722 20.4787 18.4825 21.2409 17.8268C22.5687 16.6841 24.6656 17.228 25.2794 18.8648C26.649 22.5169 28.0254 26.1665 29.3991 29.817C29.4015 29.823 29.4063 29.8282 29.4324 29.8683C29.4111 29.623 29.4039 29.411 29.3733 29.2025C29.1436 27.6314 30.3717 26.2371 31.9613 26.2691C33.0268 26.2904 33.9845 27.0154 34.3204 28.0527C34.4371 28.413 34.5569 28.7725 34.6917 29.1821C34.7971 28.8719 34.7548 28.5288 34.8514 28.2102C34.9535 27.8723 35.1261 27.5549 35.3578 27.2875C35.7817 26.7974 36.4004 26.4807 37.0464 26.4182C38.4135 26.286 39.6263 27.2859 39.8033 28.5873C39.8527 28.95 39.9493 29.3064 40.039 29.6667C40.0398 29.2538 40.1074 28.8575 40.2687 28.4763C40.6548 27.5625 41.6041 26.9441 42.6249 26.9493C43.6213 26.9545 44.5875 27.5885 44.9406 28.5024C45.6385 30.3083 45.9655 32.1773 46.385 34.0566C46.922 36.461 47.6235 38.8136 48.354 41.1651C48.7783 42.5314 48.7361 43.8769 48.2687 45.2159C47.6931 46.8648 46.6553 48.1882 45.3235 49.2952C43.7218 50.6263 41.8848 51.4812 39.8503 51.9108C37.8102 52.3417 35.7898 52.2908 33.8108 51.5822C32.7557 51.2046 31.8241 50.6275 31.0217 49.8415C29.5821 48.4319 28.1859 46.9818 26.8646 45.4612C26.0484 44.5222 25.2729 43.5498 24.5023 42.5739C23.7529 41.6248 22.8973 40.7831 21.9581 40.0204C20.7944 39.0753 19.6585 38.0974 18.5363 37.1042C18.0054 36.6345 17.9068 36.0065 18.0299 35.3391C18.19 34.4714 18.5733 34.087 19.5238 33.9396C21.0281 33.7063 22.4573 34.0061 23.7565 34.7684C24.7838 35.3712 25.6651 36.1688 26.3779 37.1347C26.4048 37.1716 26.4346 37.206 26.4631 37.2417C26.4752 37.2361 26.4873 37.2301 26.4993 37.2245V37.2241Z" fill="#1F1F1F"/>
<path id="Vector_2" d="M10.9688 19.2222C10.9905 16.6182 11.7817 14.2691 13.3842 12.2127C15.1126 9.99425 17.3784 8.59828 20.1409 8.04598C22.6842 7.53737 25.1375 7.86402 27.4431 9.05278C30.7664 10.7662 32.7924 13.478 33.5225 17.1336C33.9255 19.1512 33.7336 21.132 33.0434 23.0674C33.0144 23.1492 32.9931 23.2333 32.9682 23.3167C32.8097 23.8401 32.3142 24.1211 31.8299 23.962C31.321 23.7948 31.0761 23.263 31.2788 22.746C31.6553 21.7861 31.8701 20.7901 31.9236 19.7636C31.9811 18.6615 31.8492 17.5757 31.5201 16.5204C30.6775 13.8182 28.976 11.8427 26.4214 10.6083C24.9565 9.90046 23.3986 9.59505 21.7772 9.70287C19.4 9.86078 17.3333 10.763 15.6359 12.4347C14.0639 13.983 13.1235 15.8651 12.8452 18.0546C12.5174 20.6318 13.1424 22.9744 14.6934 25.0574C15.7509 26.4774 17.1105 27.5255 18.7709 28.1727C19.2516 28.3599 19.4768 28.8525 19.2986 29.315C19.12 29.7783 18.6032 30.0156 18.1438 29.8156C17.0839 29.3543 16.0779 28.798 15.1806 28.0625C13.8829 26.9996 12.8524 25.7215 12.1224 24.2141C11.5025 22.9343 11.12 21.5853 11.0082 20.1628C10.9836 19.849 10.9784 19.5364 10.9692 19.2214L10.9688 19.2222Z" fill="#1F1F1F"/>
<path id="Vector_3" d="M22.3043 13.2863C20.0562 13.3929 18.3414 14.3857 17.2433 16.3644C16.1042 18.4165 16.4155 21.0946 17.9645 22.8629C18.5381 23.5178 19.2111 24.0292 20.0127 24.3759C20.4612 24.5699 20.6555 25.0601 20.4813 25.5154C20.3136 25.9539 19.841 26.1843 19.38 26.0396C19.026 25.9286 18.7071 25.7418 18.3953 25.5451C16.3789 24.2713 15.1654 22.4541 14.8545 20.1031C14.5186 17.5624 15.3122 15.364 17.1577 13.5777C18.3788 12.3958 19.8615 11.708 21.5629 11.5549C24.198 11.3176 26.3994 12.2138 28.1294 14.1989C29.1346 15.352 29.6961 16.7179 29.8707 18.2414C30.0006 19.376 29.8655 20.4778 29.4998 21.5543C29.3578 21.9728 28.9826 22.2096 28.5711 22.1643C28.1367 22.1162 27.8281 21.8124 27.7646 21.3724C27.7417 21.2149 27.7871 21.0686 27.8322 20.9215C28.528 18.647 28.047 16.6378 26.3898 14.9436C25.4646 13.9977 24.3001 13.4703 22.9708 13.3276C22.7499 13.304 22.5307 13.2891 22.3043 13.2867V13.2863Z" fill="#1F1F1F"/>
</g>
</g>
</svg>
