<svg width="211" height="129" viewBox="0 0 211 129" fill="none" xmlns="http://www.w3.org/2000/svg">
<path d="M209.37 2H2.00017V127H181.015H209.37V2Z" fill="#B85600" stroke="#D9D9D9" stroke-width="3" stroke-dasharray="10 10"/>
<path d="M57.7682 18.3636C57.7085 17.8598 57.4666 17.4688 57.0423 17.1903C56.6181 16.9119 56.0977 16.7727 55.4812 16.7727C55.0305 16.7727 54.6361 16.8456 54.298 16.9915C53.9632 17.1373 53.7014 17.3378 53.5125 17.593C53.3269 17.8482 53.2341 18.1383 53.2341 18.4631C53.2341 18.7348 53.2987 18.9685 53.428 19.1641C53.5605 19.3563 53.7296 19.517 53.9351 19.6463C54.1406 19.7723 54.356 19.8767 54.5814 19.9595C54.8068 20.0391 55.0139 20.1037 55.2028 20.1534L56.2369 20.4318C56.5021 20.5014 56.797 20.5975 57.1219 20.7202C57.45 20.8428 57.7632 21.0102 58.0615 21.2223C58.3631 21.4311 58.6117 21.6996 58.8072 22.0277C59.0028 22.3558 59.1006 22.7585 59.1006 23.2358C59.1006 23.786 58.9564 24.2831 58.668 24.7273C58.383 25.1714 57.9654 25.5244 57.4152 25.7862C56.8683 26.0481 56.2038 26.179 55.4216 26.179C54.6924 26.179 54.061 26.0613 53.5274 25.826C52.9971 25.5907 52.5795 25.2625 52.2746 24.8416C51.9729 24.4207 51.8023 23.9318 51.7625 23.375H53.0352C53.0684 23.7595 53.1976 24.0777 53.423 24.3295C53.6517 24.5781 53.94 24.7637 54.2881 24.8864C54.6394 25.0057 55.0172 25.0653 55.4216 25.0653C55.8922 25.0653 56.3148 24.9891 56.6893 24.8366C57.0639 24.6809 57.3605 24.4654 57.5792 24.1903C57.798 23.9119 57.9074 23.5871 57.9074 23.2159C57.9074 22.8778 57.8129 22.6027 57.624 22.3906C57.4351 22.1785 57.1865 22.0062 56.8783 21.8736C56.57 21.741 56.2369 21.625 55.879 21.5256L54.6261 21.1676C53.8307 20.9389 53.2009 20.6125 52.7369 20.1882C52.2729 19.764 52.0409 19.2088 52.0409 18.5227C52.0409 17.9527 52.195 17.4555 52.5033 17.0312C52.8148 16.6037 53.2324 16.2723 53.7561 16.0369C54.2831 15.7983 54.8714 15.679 55.521 15.679C56.1773 15.679 56.7606 15.7966 57.271 16.032C57.7814 16.264 58.1858 16.5821 58.4841 16.9865C58.7857 17.3909 58.9448 17.8499 58.9613 18.3636H57.7682ZM61.2486 26V18.3636H62.4219V26H61.2486ZM61.8452 17.0909C61.6165 17.0909 61.4193 17.013 61.2536 16.8572C61.0912 16.7015 61.01 16.5142 61.01 16.2955C61.01 16.0767 61.0912 15.8894 61.2536 15.7337C61.4193 15.5779 61.6165 15.5 61.8452 15.5C62.0739 15.5 62.2695 15.5779 62.4319 15.7337C62.5976 15.8894 62.6804 16.0767 62.6804 16.2955C62.6804 16.5142 62.5976 16.7015 62.4319 16.8572C62.2695 17.013 62.0739 17.0909 61.8452 17.0909ZM74.2786 28.8636V24.8267H74.1792C74.093 24.9659 73.9704 25.1416 73.8113 25.3537C73.6522 25.5625 73.4252 25.7498 73.1302 25.9155C72.8352 26.0779 72.4424 26.1591 71.9519 26.1591C71.3156 26.1591 70.7538 25.9983 70.2665 25.6768C69.7793 25.352 69.3982 24.8946 69.1231 24.3047C68.848 23.7114 68.7104 23.0104 68.7104 22.2017C68.7104 21.3996 68.848 20.7036 69.1231 20.1136C69.3982 19.5237 69.781 19.0679 70.2715 18.7464C70.762 18.425 71.3288 18.2642 71.9718 18.2642C72.469 18.2642 72.8617 18.3471 73.1501 18.5128C73.4417 18.6752 73.6638 18.8608 73.8163 19.0696C73.972 19.2751 74.093 19.4441 74.1792 19.5767H74.3184V18.3636H75.4519V28.8636H74.2786ZM72.111 25.1051C72.5817 25.1051 72.9794 24.9825 73.3042 24.7372C73.629 24.4886 73.8759 24.1456 74.045 23.7081C74.214 23.2673 74.2985 22.7585 74.2985 22.1818C74.2985 21.6117 74.2156 21.1129 74.0499 20.6854C73.8842 20.2545 73.6389 19.9197 73.3141 19.6811C72.9893 19.4392 72.5883 19.3182 72.111 19.3182C71.6138 19.3182 71.1995 19.4458 70.8681 19.701C70.54 19.9529 70.2931 20.2959 70.1273 20.7301C69.9649 21.161 69.8837 21.6449 69.8837 22.1818C69.8837 22.7254 69.9666 23.2192 70.1323 23.6634C70.3013 24.1042 70.5499 24.4555 70.8781 24.7173C71.2095 24.9759 71.6205 25.1051 72.111 25.1051ZM82.6921 22.8778V18.3636H83.8654V26H82.6921V24.7074H82.6126C82.4336 25.0952 82.1552 25.425 81.7774 25.6967C81.3995 25.9652 80.9223 26.0994 80.3456 26.0994C79.8683 26.0994 79.444 25.995 79.0728 25.7862C78.7016 25.5741 78.4099 25.2559 78.1978 24.8317C77.9857 24.4041 77.8796 23.8655 77.8796 23.2159V18.3636H79.0529V23.1364C79.0529 23.6932 79.2087 24.1373 79.5203 24.4688C79.8351 24.8002 80.2362 24.9659 80.7234 24.9659C81.0151 24.9659 81.3117 24.8913 81.6133 24.7422C81.9182 24.593 82.1734 24.3643 82.3789 24.0561C82.5877 23.7479 82.6921 23.3551 82.6921 22.8778ZM86.2944 26V18.3636H87.4677V26H86.2944ZM86.891 17.0909C86.6623 17.0909 86.4651 17.013 86.2994 16.8572C86.137 16.7015 86.0558 16.5142 86.0558 16.2955C86.0558 16.0767 86.137 15.8894 86.2994 15.7337C86.4651 15.5779 86.6623 15.5 86.891 15.5C87.1197 15.5 87.3152 15.5779 87.4776 15.7337C87.6434 15.8894 87.7262 16.0767 87.7262 16.2955C87.7262 16.5142 87.6434 16.7015 87.4776 16.8572C87.3152 17.013 87.1197 17.0909 86.891 17.0909ZM93.0984 26.1591C92.3626 26.1591 91.7279 25.9967 91.1943 25.6719C90.664 25.3438 90.2546 24.8864 89.9663 24.2997C89.6812 23.7098 89.5387 23.0237 89.5387 22.2415C89.5387 21.4593 89.6812 20.7699 89.9663 20.1733C90.2546 19.5734 90.6557 19.1061 91.1694 18.7713C91.6864 18.4332 92.2897 18.2642 92.9791 18.2642C93.3768 18.2642 93.7695 18.3305 94.1573 18.4631C94.5451 18.5956 94.8981 18.8111 95.2163 19.1094C95.5345 19.4044 95.788 19.7955 95.9769 20.2827C96.1659 20.7699 96.2603 21.3698 96.2603 22.0824V22.5795H90.3739V21.5653H95.0671C95.0671 21.1345 94.981 20.75 94.8086 20.4119C94.6396 20.0739 94.3976 19.8071 94.0828 19.6115C93.7712 19.416 93.4033 19.3182 92.9791 19.3182C92.5117 19.3182 92.1074 19.4342 91.766 19.6662C91.4279 19.8949 91.1677 20.1932 90.9855 20.5611C90.8032 20.929 90.712 21.3234 90.712 21.7443V22.4205C90.712 22.9972 90.8114 23.486 91.0103 23.8871C91.2125 24.2848 91.4926 24.5881 91.8505 24.7969C92.2085 25.0024 92.6244 25.1051 93.0984 25.1051C93.4066 25.1051 93.685 25.062 93.9336 24.9759C94.1855 24.8864 94.4026 24.7538 94.5849 24.5781C94.7672 24.3991 94.908 24.1771 95.0075 23.9119L96.141 24.2301C96.0217 24.6146 95.8212 24.9527 95.5394 25.2443C95.2577 25.5327 94.9097 25.758 94.4954 25.9205C94.0811 26.0795 93.6154 26.1591 93.0984 26.1591ZM98.3251 26V18.3636H99.4586V19.517H99.5382C99.6774 19.1392 99.9293 18.8326 100.294 18.5973C100.658 18.362 101.069 18.2443 101.527 18.2443C101.613 18.2443 101.721 18.246 101.85 18.2493C101.979 18.2526 102.077 18.2576 102.143 18.2642V19.4574C102.104 19.4474 102.012 19.4325 101.87 19.4126C101.731 19.3894 101.583 19.3778 101.427 19.3778C101.056 19.3778 100.725 19.4557 100.433 19.6115C100.145 19.764 99.916 19.9761 99.747 20.2479C99.5813 20.5163 99.4984 20.8229 99.4984 21.1676V26H98.3251ZM106.783 26.1591C106.048 26.1591 105.413 25.9967 104.879 25.6719C104.349 25.3438 103.94 24.8864 103.651 24.2997C103.366 23.7098 103.224 23.0237 103.224 22.2415C103.224 21.4593 103.366 20.7699 103.651 20.1733C103.94 19.5734 104.341 19.1061 104.854 18.7713C105.371 18.4332 105.975 18.2642 106.664 18.2642C107.062 18.2642 107.455 18.3305 107.842 18.4631C108.23 18.5956 108.583 18.8111 108.901 19.1094C109.219 19.4044 109.473 19.7955 109.662 20.2827C109.851 20.7699 109.945 21.3698 109.945 22.0824V22.5795H104.059V21.5653H108.752C108.752 21.1345 108.666 20.75 108.494 20.4119C108.325 20.0739 108.083 19.8071 107.768 19.6115C107.456 19.416 107.088 19.3182 106.664 19.3182C106.197 19.3182 105.792 19.4342 105.451 19.6662C105.113 19.8949 104.853 20.1932 104.67 20.5611C104.488 20.929 104.397 21.3234 104.397 21.7443V22.4205C104.397 22.9972 104.496 23.486 104.695 23.8871C104.897 24.2848 105.178 24.5881 105.536 24.7969C105.893 25.0024 106.309 25.1051 106.783 25.1051C107.092 25.1051 107.37 25.062 107.619 24.9759C107.871 24.8864 108.088 24.7538 108.27 24.5781C108.452 24.3991 108.593 24.1771 108.692 23.9119L109.826 24.2301C109.707 24.6146 109.506 24.9527 109.224 25.2443C108.943 25.5327 108.595 25.758 108.18 25.9205C107.766 26.0795 107.3 26.1591 106.783 26.1591ZM117.419 20.0739L116.365 20.3722C116.299 20.1965 116.201 20.0258 116.072 19.8601C115.946 19.6911 115.774 19.5518 115.555 19.4425C115.336 19.3331 115.056 19.2784 114.715 19.2784C114.247 19.2784 113.858 19.3861 113.546 19.6016C113.238 19.8137 113.084 20.0838 113.084 20.4119C113.084 20.7036 113.19 20.9339 113.402 21.103C113.614 21.272 113.946 21.4129 114.396 21.5256L115.53 21.804C116.213 21.9697 116.722 22.2232 117.056 22.5646C117.391 22.9027 117.558 23.3385 117.558 23.8722C117.558 24.3097 117.432 24.7008 117.181 25.0455C116.932 25.3902 116.584 25.6619 116.137 25.8608C115.689 26.0597 115.169 26.1591 114.575 26.1591C113.797 26.1591 113.152 25.9901 112.642 25.652C112.131 25.3139 111.808 24.8201 111.672 24.1705L112.786 23.892C112.892 24.303 113.092 24.6113 113.387 24.8168C113.686 25.0223 114.075 25.125 114.556 25.125C115.102 25.125 115.537 25.009 115.858 24.777C116.183 24.5417 116.345 24.2599 116.345 23.9318C116.345 23.6667 116.253 23.4446 116.067 23.2656C115.881 23.0833 115.596 22.9474 115.212 22.858L113.939 22.5597C113.24 22.3939 112.726 22.1371 112.398 21.7891C112.073 21.4377 111.911 20.9986 111.911 20.4716C111.911 20.0407 112.032 19.6596 112.274 19.3281C112.519 18.9967 112.852 18.7365 113.273 18.5476C113.697 18.3587 114.178 18.2642 114.715 18.2642C115.47 18.2642 116.064 18.4299 116.494 18.7614C116.929 19.0928 117.237 19.5303 117.419 20.0739ZM129.231 20.0739L128.177 20.3722C128.111 20.1965 128.013 20.0258 127.884 19.8601C127.758 19.6911 127.586 19.5518 127.367 19.4425C127.148 19.3331 126.868 19.2784 126.527 19.2784C126.059 19.2784 125.67 19.3861 125.358 19.6016C125.05 19.8137 124.896 20.0838 124.896 20.4119C124.896 20.7036 125.002 20.9339 125.214 21.103C125.426 21.272 125.758 21.4129 126.208 21.5256L127.342 21.804C128.025 21.9697 128.533 22.2232 128.868 22.5646C129.203 22.9027 129.37 23.3385 129.37 23.8722C129.37 24.3097 129.244 24.7008 128.993 25.0455C128.744 25.3902 128.396 25.6619 127.948 25.8608C127.501 26.0597 126.981 26.1591 126.387 26.1591C125.609 26.1591 124.964 25.9901 124.453 25.652C123.943 25.3139 123.62 24.8201 123.484 24.1705L124.598 23.892C124.704 24.303 124.904 24.6113 125.199 24.8168C125.497 25.0223 125.887 25.125 126.368 25.125C126.914 25.125 127.349 25.009 127.67 24.777C127.995 24.5417 128.157 24.2599 128.157 23.9318C128.157 23.6667 128.064 23.4446 127.879 23.2656C127.693 23.0833 127.408 22.9474 127.024 22.858L125.751 22.5597C125.052 22.3939 124.538 22.1371 124.21 21.7891C123.885 21.4377 123.723 20.9986 123.723 20.4716C123.723 20.0407 123.844 19.6596 124.086 19.3281C124.331 18.9967 124.664 18.7365 125.085 18.5476C125.509 18.3587 125.99 18.2642 126.527 18.2642C127.282 18.2642 127.876 18.4299 128.306 18.7614C128.741 19.0928 129.049 19.5303 129.231 20.0739ZM133.664 26.179C133.18 26.179 132.741 26.0878 132.346 25.9055C131.952 25.7199 131.639 25.4531 131.407 25.1051C131.175 24.7538 131.059 24.3295 131.059 23.8324C131.059 23.3949 131.145 23.0402 131.317 22.7685C131.489 22.4934 131.72 22.2779 132.008 22.1222C132.296 21.9664 132.615 21.8504 132.963 21.7741C133.314 21.6946 133.667 21.6316 134.022 21.5852C134.486 21.5256 134.862 21.4808 135.15 21.451C135.442 21.4179 135.654 21.3632 135.787 21.2869C135.922 21.2107 135.99 21.0781 135.99 20.8892V20.8494C135.99 20.3589 135.856 19.9777 135.588 19.706C135.323 19.4342 134.92 19.2983 134.38 19.2983C133.819 19.2983 133.38 19.4209 133.062 19.6662C132.744 19.9115 132.52 20.1733 132.391 20.4517L131.277 20.054C131.476 19.59 131.741 19.2287 132.073 18.9702C132.408 18.7083 132.772 18.526 133.167 18.4233C133.564 18.3172 133.955 18.2642 134.34 18.2642C134.585 18.2642 134.867 18.294 135.185 18.3537C135.506 18.41 135.816 18.5277 136.115 18.7067C136.416 18.8857 136.667 19.1558 136.865 19.517C137.064 19.8783 137.164 20.3622 137.164 20.9688V26H135.99V24.9659H135.931C135.851 25.1316 135.719 25.3089 135.533 25.4979C135.347 25.6868 135.1 25.8475 134.792 25.9801C134.484 26.1127 134.108 26.179 133.664 26.179ZM133.843 25.125C134.307 25.125 134.698 25.0339 135.016 24.8516C135.337 24.6693 135.579 24.4339 135.742 24.1456C135.908 23.8572 135.99 23.554 135.99 23.2358V22.1619C135.941 22.2216 135.831 22.2763 135.662 22.326C135.497 22.3724 135.304 22.4138 135.086 22.4503C134.87 22.4834 134.66 22.5133 134.454 22.5398C134.252 22.563 134.088 22.5829 133.962 22.5994C133.657 22.6392 133.372 22.7038 133.107 22.7933C132.845 22.8795 132.633 23.0104 132.47 23.1861C132.311 23.3584 132.232 23.5937 132.232 23.892C132.232 24.2997 132.383 24.608 132.684 24.8168C132.989 25.0223 133.375 25.125 133.843 25.125ZM139.744 26V15.8182H140.918V19.5767H141.017C141.103 19.4441 141.222 19.2751 141.375 19.0696C141.531 18.8608 141.753 18.6752 142.041 18.5128C142.333 18.3471 142.727 18.2642 143.224 18.2642C143.867 18.2642 144.434 18.425 144.925 18.7464C145.415 19.0679 145.798 19.5237 146.073 20.1136C146.348 20.7036 146.486 21.3996 146.486 22.2017C146.486 23.0104 146.348 23.7114 146.073 24.3047C145.798 24.8946 145.417 25.352 144.93 25.6768C144.442 25.9983 143.881 26.1591 143.244 26.1591C142.754 26.1591 142.361 26.0779 142.066 25.9155C141.771 25.7498 141.544 25.5625 141.385 25.3537C141.226 25.1416 141.103 24.9659 141.017 24.8267H140.878V26H139.744ZM140.898 22.1818C140.898 22.7585 140.982 23.2673 141.151 23.7081C141.32 24.1456 141.567 24.4886 141.892 24.7372C142.217 24.9825 142.615 25.1051 143.085 25.1051C143.576 25.1051 143.985 24.9759 144.313 24.7173C144.645 24.4555 144.893 24.1042 145.059 23.6634C145.228 23.2192 145.312 22.7254 145.312 22.1818C145.312 21.6449 145.23 21.161 145.064 20.7301C144.901 20.2959 144.655 19.9529 144.323 19.701C143.995 19.4458 143.582 19.3182 143.085 19.3182C142.608 19.3182 142.207 19.4392 141.882 19.6811C141.557 19.9197 141.312 20.2545 141.146 20.6854C140.981 21.1129 140.898 21.6117 140.898 22.1818ZM151.762 26.1591C151.026 26.1591 150.392 25.9967 149.858 25.6719C149.328 25.3438 148.918 24.8864 148.63 24.2997C148.345 23.7098 148.203 23.0237 148.203 22.2415C148.203 21.4593 148.345 20.7699 148.63 20.1733C148.918 19.5734 149.319 19.1061 149.833 18.7713C150.35 18.4332 150.953 18.2642 151.643 18.2642C152.041 18.2642 152.433 18.3305 152.821 18.4631C153.209 18.5956 153.562 18.8111 153.88 19.1094C154.198 19.4044 154.452 19.7955 154.641 20.2827C154.83 20.7699 154.924 21.3698 154.924 22.0824V22.5795H149.038V21.5653H153.731C153.731 21.1345 153.645 20.75 153.472 20.4119C153.303 20.0739 153.061 19.8071 152.747 19.6115C152.435 19.416 152.067 19.3182 151.643 19.3182C151.176 19.3182 150.771 19.4342 150.43 19.6662C150.092 19.8949 149.832 20.1932 149.649 20.5611C149.467 20.929 149.376 21.3234 149.376 21.7443V22.4205C149.376 22.9972 149.475 23.486 149.674 23.8871C149.876 24.2848 150.156 24.5881 150.514 24.7969C150.872 25.0024 151.288 25.1051 151.762 25.1051C152.07 25.1051 152.349 25.062 152.597 24.9759C152.849 24.8864 153.066 24.7538 153.249 24.5781C153.431 24.3991 153.572 24.1771 153.671 23.9119L154.805 24.2301C154.685 24.6146 154.485 24.9527 154.203 25.2443C153.922 25.5327 153.574 25.758 153.159 25.9205C152.745 26.0795 152.279 26.1591 151.762 26.1591ZM156.989 26V18.3636H158.122V19.517H158.202C158.341 19.1392 158.593 18.8326 158.958 18.5973C159.322 18.362 159.733 18.2443 160.191 18.2443C160.277 18.2443 160.385 18.246 160.514 18.2493C160.643 18.2526 160.741 18.2576 160.807 18.2642V19.4574C160.767 19.4474 160.676 19.4325 160.534 19.4126C160.394 19.3894 160.247 19.3778 160.091 19.3778C159.72 19.3778 159.389 19.4557 159.097 19.6115C158.809 19.764 158.58 19.9761 158.411 20.2479C158.245 20.5163 158.162 20.8229 158.162 21.1676V26H156.989ZM47.3446 43V35.3636H48.4781V36.5568H48.5776C48.7366 36.1491 48.9935 35.8326 49.3482 35.6072C49.7028 35.3786 50.1287 35.2642 50.6259 35.2642C51.1296 35.2642 51.5489 35.3786 51.8837 35.6072C52.2217 35.8326 52.4852 36.1491 52.6741 36.5568H52.7537C52.9492 36.1624 53.2426 35.8492 53.6337 35.6172C54.0248 35.3819 54.4938 35.2642 55.0406 35.2642C55.7234 35.2642 56.2819 35.478 56.7161 35.9055C57.1502 36.3298 57.3673 36.991 57.3673 37.8892V43H56.194V37.8892C56.194 37.3258 56.0399 36.9231 55.7317 36.6811C55.4234 36.4392 55.0605 36.3182 54.6429 36.3182C54.106 36.3182 53.69 36.4806 53.395 36.8054C53.1 37.1269 52.9526 37.5346 52.9526 38.0284V43H51.7594V37.7699C51.7594 37.3357 51.6185 36.986 51.3368 36.7209C51.0551 36.4524 50.6921 36.3182 50.248 36.3182C49.9431 36.3182 49.6581 36.3994 49.3929 36.5618C49.1311 36.7242 48.9189 36.9496 48.7565 37.2379C48.5974 37.523 48.5179 37.8527 48.5179 38.2273V43H47.3446ZM62.0397 43.179C61.5558 43.179 61.1167 43.0878 60.7223 42.9055C60.3278 42.7199 60.0146 42.4531 59.7826 42.1051C59.5506 41.7538 59.4346 41.3295 59.4346 40.8324C59.4346 40.3949 59.5208 40.0402 59.6931 39.7685C59.8655 39.4934 60.0958 39.2779 60.3842 39.1222C60.6725 38.9664 60.9907 38.8504 61.3387 38.7741C61.6901 38.6946 62.043 38.6316 62.3977 38.5852C62.8617 38.5256 63.2379 38.4808 63.5262 38.451C63.8179 38.4179 64.03 38.3632 64.1626 38.2869C64.2985 38.2107 64.3664 38.0781 64.3664 37.8892V37.8494C64.3664 37.3589 64.2322 36.9777 63.9637 36.706C63.6986 36.4342 63.2959 36.2983 62.7556 36.2983C62.1955 36.2983 61.7564 36.4209 61.4382 36.6662C61.12 36.9115 60.8963 37.1733 60.767 37.4517L59.6534 37.054C59.8522 36.59 60.1174 36.2287 60.4488 35.9702C60.7836 35.7083 61.1482 35.526 61.5426 35.4233C61.9403 35.3172 62.3314 35.2642 62.7159 35.2642C62.9611 35.2642 63.2429 35.294 63.561 35.3537C63.8825 35.41 64.1924 35.5277 64.4907 35.7067C64.7923 35.8857 65.0426 36.1558 65.2414 36.517C65.4403 36.8783 65.5397 37.3622 65.5397 37.9688V43H64.3664V41.9659H64.3068C64.2272 42.1316 64.0947 42.3089 63.909 42.4979C63.7234 42.6868 63.4765 42.8475 63.1683 42.9801C62.86 43.1127 62.4839 43.179 62.0397 43.179ZM62.2187 42.125C62.6827 42.125 63.0738 42.0339 63.392 41.8516C63.7135 41.6693 63.9555 41.4339 64.1179 41.1456C64.2836 40.8572 64.3664 40.554 64.3664 40.2358V39.1619C64.3167 39.2216 64.2073 39.2763 64.0383 39.326C63.8726 39.3724 63.6804 39.4138 63.4616 39.4503C63.2462 39.4834 63.0357 39.5133 62.8302 39.5398C62.628 39.563 62.464 39.5829 62.338 39.5994C62.0331 39.6392 61.7481 39.7038 61.4829 39.7933C61.2211 39.8795 61.009 40.0104 60.8465 40.1861C60.6875 40.3584 60.6079 40.5937 60.6079 40.892C60.6079 41.2997 60.7587 41.608 61.0603 41.8168C61.3653 42.0223 61.7514 42.125 62.2187 42.125ZM62.2585 34.3295L63.4715 32.0227H64.8437L63.2926 34.3295H62.2585ZM73.3703 37.0739L72.3164 37.3722C72.2501 37.1965 72.1523 37.0258 72.023 36.8601C71.8971 36.6911 71.7247 36.5518 71.506 36.4425C71.2872 36.3331 71.0072 36.2784 70.6658 36.2784C70.1985 36.2784 69.809 36.3861 69.4975 36.6016C69.1892 36.8137 69.0351 37.0838 69.0351 37.4119C69.0351 37.7036 69.1412 37.9339 69.3533 38.103C69.5654 38.272 69.8969 38.4129 70.3476 38.5256L71.4811 38.804C72.1639 38.9697 72.6727 39.2232 73.0074 39.5646C73.3422 39.9027 73.5095 40.3385 73.5095 40.8722C73.5095 41.3097 73.3836 41.7008 73.1317 42.0455C72.8831 42.3902 72.5351 42.6619 72.0877 42.8608C71.6402 43.0597 71.1199 43.1591 70.5266 43.1591C69.7477 43.1591 69.1031 42.9901 68.5926 42.652C68.0822 42.3139 67.7591 41.8201 67.6232 41.1705L68.7368 40.892C68.8429 41.303 69.0434 41.6113 69.3384 41.8168C69.6367 42.0223 70.0261 42.125 70.5067 42.125C71.0536 42.125 71.4878 42.009 71.8093 41.777C72.1341 41.5417 72.2965 41.2599 72.2965 40.9318C72.2965 40.6667 72.2037 40.4446 72.0181 40.2656C71.8325 40.0833 71.5474 39.9474 71.1629 39.858L69.8902 39.5597C69.1909 39.3939 68.6772 39.1371 68.349 38.7891C68.0242 38.4377 67.8618 37.9986 67.8618 37.4716C67.8618 37.0407 67.9828 36.6596 68.2247 36.3281C68.47 35.9967 68.8031 35.7365 69.224 35.5476C69.6483 35.3587 70.1289 35.2642 70.6658 35.2642C71.4215 35.2642 72.0147 35.4299 72.4456 35.7614C72.8798 36.0928 73.188 36.5303 73.3703 37.0739ZM79.7732 43V35.3636H80.9465V43H79.7732ZM80.3698 34.0909C80.1411 34.0909 79.9439 34.013 79.7782 33.8572C79.6158 33.7015 79.5346 33.5142 79.5346 33.2955C79.5346 33.0767 79.6158 32.8894 79.7782 32.7337C79.9439 32.5779 80.1411 32.5 80.3698 32.5C80.5985 32.5 80.794 32.5779 80.9564 32.7337C81.1222 32.8894 81.205 33.0767 81.205 33.2955C81.205 33.5142 81.1222 33.7015 80.9564 33.8572C80.794 34.013 80.5985 34.0909 80.3698 34.0909ZM84.5488 38.4062V43H83.3755V35.3636H84.509V36.5568H84.6084C84.7874 36.169 85.0592 35.8575 85.4238 35.6222C85.7883 35.3835 86.259 35.2642 86.8357 35.2642C87.3527 35.2642 87.8052 35.3703 88.1929 35.5824C88.5807 35.7912 88.8823 36.1094 89.0978 36.5369C89.3132 36.9612 89.4209 37.4981 89.4209 38.1477V43H88.2476V38.2273C88.2476 37.6274 88.0918 37.16 87.7803 36.8253C87.4687 36.4872 87.0412 36.3182 86.4976 36.3182C86.1231 36.3182 85.7883 36.3994 85.4934 36.5618C85.2017 36.7242 84.9713 36.9612 84.8023 37.2727C84.6333 37.5843 84.5488 37.9621 84.5488 38.4062ZM94.9273 46.0227C94.3605 46.0227 93.8733 45.9498 93.4657 45.804C93.058 45.6615 92.7183 45.4725 92.4465 45.2372C92.178 45.0052 91.9642 44.7566 91.8051 44.4915L92.7398 43.8352C92.8459 43.9744 92.9801 44.1335 93.1425 44.3125C93.3049 44.4948 93.527 44.6522 93.8087 44.7848C94.0937 44.9207 94.4666 44.9886 94.9273 44.9886C95.5438 44.9886 96.0525 44.8395 96.4536 44.5412C96.8546 44.2429 97.0551 43.7756 97.0551 43.1392V41.5881H96.9557C96.8695 41.7273 96.7469 41.8996 96.5878 42.1051C96.432 42.3073 96.2067 42.4879 95.9117 42.647C95.62 42.8028 95.2256 42.8807 94.7284 42.8807C94.112 42.8807 93.5585 42.7348 93.0679 42.4432C92.5807 42.1515 92.1946 41.7273 91.9095 41.1705C91.6278 40.6136 91.487 39.9375 91.487 39.142C91.487 38.3598 91.6245 37.6787 91.8996 37.0987C92.1747 36.5154 92.5575 36.0646 93.048 35.7464C93.5386 35.425 94.1053 35.2642 94.7483 35.2642C95.2455 35.2642 95.6399 35.3471 95.9316 35.5128C96.2265 35.6752 96.4519 35.8608 96.6077 36.0696C96.7668 36.2751 96.8894 36.4441 96.9756 36.5767H97.0949V35.3636H98.2284V43.2188C98.2284 43.875 98.0793 44.4086 97.781 44.8196C97.486 45.2339 97.0883 45.5372 96.5878 45.7294C96.0907 45.925 95.5372 46.0227 94.9273 46.0227ZM94.8875 41.8267C95.3582 41.8267 95.7559 41.719 96.0807 41.5036C96.4055 41.2881 96.6524 40.9782 96.8215 40.5739C96.9905 40.1695 97.075 39.6856 97.075 39.1222C97.075 38.572 96.9922 38.0864 96.8265 37.6655C96.6607 37.2446 96.4155 36.9148 96.0907 36.6761C95.7658 36.4375 95.3648 36.3182 94.8875 36.3182C94.3904 36.3182 93.9761 36.4441 93.6446 36.696C93.3165 36.9479 93.0696 37.286 92.9039 37.7102C92.7415 38.1345 92.6603 38.6051 92.6603 39.1222C92.6603 39.6525 92.7431 40.1214 92.9088 40.5291C93.0779 40.9335 93.3265 41.2517 93.6546 41.4837C93.986 41.7124 94.397 41.8267 94.8875 41.8267ZM100.656 43V35.3636H101.79V36.517H101.869C102.008 36.1392 102.26 35.8326 102.625 35.5973C102.989 35.362 103.4 35.2443 103.858 35.2443C103.944 35.2443 104.052 35.246 104.181 35.2493C104.31 35.2526 104.408 35.2576 104.474 35.2642V36.4574C104.435 36.4474 104.343 36.4325 104.201 36.4126C104.062 36.3894 103.914 36.3778 103.758 36.3778C103.387 36.3778 103.056 36.4557 102.764 36.6115C102.476 36.764 102.247 36.9761 102.078 37.2479C101.912 37.5163 101.829 37.8229 101.829 38.1676V43H100.656ZM109.114 43.1591C108.379 43.1591 107.744 42.9967 107.21 42.6719C106.68 42.3438 106.271 41.8864 105.982 41.2997C105.697 40.7098 105.555 40.0237 105.555 39.2415C105.555 38.4593 105.697 37.7699 105.982 37.1733C106.271 36.5734 106.672 36.1061 107.185 35.7713C107.703 35.4332 108.306 35.2642 108.995 35.2642C109.393 35.2642 109.786 35.3305 110.173 35.4631C110.561 35.5956 110.914 35.8111 111.232 36.1094C111.551 36.4044 111.804 36.7955 111.993 37.2827C112.182 37.7699 112.276 38.3698 112.276 39.0824V39.5795H106.39V38.5653H111.083C111.083 38.1345 110.997 37.75 110.825 37.4119C110.656 37.0739 110.414 36.8071 110.099 36.6115C109.787 36.416 109.419 36.3182 108.995 36.3182C108.528 36.3182 108.123 36.4342 107.782 36.6662C107.444 36.8949 107.184 37.1932 107.002 37.5611C106.819 37.929 106.728 38.3234 106.728 38.7443V39.4205C106.728 39.9972 106.828 40.486 107.026 40.8871C107.229 41.2848 107.509 41.5881 107.867 41.7969C108.225 42.0024 108.64 42.1051 109.114 42.1051C109.423 42.1051 109.701 42.062 109.95 41.9759C110.202 41.8864 110.419 41.7538 110.601 41.5781C110.783 41.3991 110.924 41.1771 111.024 40.9119L112.157 41.2301C112.038 41.6146 111.837 41.9527 111.555 42.2443C111.274 42.5327 110.926 42.758 110.511 42.9205C110.097 43.0795 109.631 43.1591 109.114 43.1591ZM119.75 37.0739L118.696 37.3722C118.63 37.1965 118.532 37.0258 118.403 36.8601C118.277 36.6911 118.105 36.5518 117.886 36.4425C117.667 36.3331 117.387 36.2784 117.046 36.2784C116.578 36.2784 116.189 36.3861 115.877 36.6016C115.569 36.8137 115.415 37.0838 115.415 37.4119C115.415 37.7036 115.521 37.9339 115.733 38.103C115.945 38.272 116.277 38.4129 116.728 38.5256L117.861 38.804C118.544 38.9697 119.053 39.2232 119.387 39.5646C119.722 39.9027 119.889 40.3385 119.889 40.8722C119.889 41.3097 119.764 41.7008 119.512 42.0455C119.263 42.3902 118.915 42.6619 118.468 42.8608C118.02 43.0597 117.5 43.1591 116.907 43.1591C116.128 43.1591 115.483 42.9901 114.973 42.652C114.462 42.3139 114.139 41.8201 114.003 41.1705L115.117 40.892C115.223 41.303 115.423 41.6113 115.718 41.8168C116.017 42.0223 116.406 42.125 116.887 42.125C117.433 42.125 117.868 42.009 118.189 41.777C118.514 41.5417 118.676 41.2599 118.676 40.9318C118.676 40.6667 118.584 40.4446 118.398 40.2656C118.212 40.0833 117.927 39.9474 117.543 39.858L116.27 39.5597C115.571 39.3939 115.057 39.1371 114.729 38.7891C114.404 38.4377 114.242 37.9986 114.242 37.4716C114.242 37.0407 114.363 36.6596 114.605 36.3281C114.85 35.9967 115.183 35.7365 115.604 35.5476C116.028 35.3587 116.509 35.2642 117.046 35.2642C117.801 35.2642 118.395 35.4299 118.826 35.7614C119.26 36.0928 119.568 36.5303 119.75 37.0739ZM124.183 43.179C123.699 43.179 123.26 43.0878 122.865 42.9055C122.471 42.7199 122.158 42.4531 121.926 42.1051C121.694 41.7538 121.578 41.3295 121.578 40.8324C121.578 40.3949 121.664 40.0402 121.836 39.7685C122.009 39.4934 122.239 39.2779 122.527 39.1222C122.816 38.9664 123.134 38.8504 123.482 38.7741C123.833 38.6946 124.186 38.6316 124.541 38.5852C125.005 38.5256 125.381 38.4808 125.669 38.451C125.961 38.4179 126.173 38.3632 126.306 38.2869C126.442 38.2107 126.509 38.0781 126.509 37.8892V37.8494C126.509 37.3589 126.375 36.9777 126.107 36.706C125.842 36.4342 125.439 36.2983 124.899 36.2983C124.339 36.2983 123.899 36.4209 123.581 36.6662C123.263 36.9115 123.039 37.1733 122.91 37.4517L121.796 37.054C121.995 36.59 122.26 36.2287 122.592 35.9702C122.927 35.7083 123.291 35.526 123.686 35.4233C124.083 35.3172 124.474 35.2642 124.859 35.2642C125.104 35.2642 125.386 35.294 125.704 35.3537C126.026 35.41 126.335 35.5277 126.634 35.7067C126.935 35.8857 127.186 36.1558 127.384 36.517C127.583 36.8783 127.683 37.3622 127.683 37.9688V43H126.509V41.9659H126.45C126.37 42.1316 126.238 42.3089 126.052 42.4979C125.866 42.6868 125.62 42.8475 125.311 42.9801C125.003 43.1127 124.627 43.179 124.183 43.179ZM124.362 42.125C124.826 42.125 125.217 42.0339 125.535 41.8516C125.857 41.6693 126.098 41.4339 126.261 41.1456C126.427 40.8572 126.509 40.554 126.509 40.2358V39.1619C126.46 39.2216 126.35 39.2763 126.181 39.326C126.016 39.3724 125.823 39.4138 125.605 39.4503C125.389 39.4834 125.179 39.5133 124.973 39.5398C124.771 39.563 124.607 39.5829 124.481 39.5994C124.176 39.6392 123.891 39.7038 123.626 39.7933C123.364 39.8795 123.152 40.0104 122.99 40.1861C122.831 40.3584 122.751 40.5937 122.751 40.892C122.751 41.2997 122.902 41.608 123.203 41.8168C123.508 42.0223 123.894 42.125 124.362 42.125ZM136.569 43.179C136.085 43.179 135.646 43.0878 135.251 42.9055C134.857 42.7199 134.544 42.4531 134.312 42.1051C134.08 41.7538 133.964 41.3295 133.964 40.8324C133.964 40.3949 134.05 40.0402 134.222 39.7685C134.395 39.4934 134.625 39.2779 134.913 39.1222C135.202 38.9664 135.52 38.8504 135.868 38.7741C136.219 38.6946 136.572 38.6316 136.927 38.5852C137.391 38.5256 137.767 38.4808 138.055 38.451C138.347 38.4179 138.559 38.3632 138.692 38.2869C138.828 38.2107 138.896 38.0781 138.896 37.8892V37.8494C138.896 37.3589 138.761 36.9777 138.493 36.706C138.228 36.4342 137.825 36.2983 137.285 36.2983C136.725 36.2983 136.286 36.4209 135.967 36.6662C135.649 36.9115 135.425 37.1733 135.296 37.4517L134.183 37.054C134.381 36.59 134.647 36.2287 134.978 35.9702C135.313 35.7083 135.677 35.526 136.072 35.4233C136.47 35.3172 136.861 35.2642 137.245 35.2642C137.49 35.2642 137.772 35.294 138.09 35.3537C138.412 35.41 138.722 35.5277 139.02 35.7067C139.322 35.8857 139.572 36.1558 139.771 36.517C139.97 36.8783 140.069 37.3622 140.069 37.9688V43H138.896V41.9659H138.836C138.756 42.1316 138.624 42.3089 138.438 42.4979C138.253 42.6868 138.006 42.8475 137.697 42.9801C137.389 43.1127 137.013 43.179 136.569 43.179ZM136.748 42.125C137.212 42.125 137.603 42.0339 137.921 41.8516C138.243 41.6693 138.485 41.4339 138.647 41.1456C138.813 40.8572 138.896 40.554 138.896 40.2358V39.1619C138.846 39.2216 138.737 39.2763 138.568 39.326C138.402 39.3724 138.21 39.4138 137.991 39.4503C137.775 39.4834 137.565 39.5133 137.359 39.5398C137.157 39.563 136.993 39.5829 136.867 39.5994C136.562 39.6392 136.277 39.7038 136.012 39.7933C135.75 39.8795 135.538 40.0104 135.376 40.1861C135.217 40.3584 135.137 40.5937 135.137 40.892C135.137 41.2997 135.288 41.608 135.59 41.8168C135.894 42.0223 136.281 42.125 136.748 42.125ZM147.701 45.8636V41.8267H147.601C147.515 41.9659 147.392 42.1416 147.233 42.3537C147.074 42.5625 146.847 42.7498 146.552 42.9155C146.257 43.0779 145.865 43.1591 145.374 43.1591C144.738 43.1591 144.176 42.9983 143.689 42.6768C143.201 42.352 142.82 41.8946 142.545 41.3047C142.27 40.7114 142.133 40.0104 142.133 39.2017C142.133 38.3996 142.27 37.7036 142.545 37.1136C142.82 36.5237 143.203 36.0679 143.694 35.7464C144.184 35.425 144.751 35.2642 145.394 35.2642C145.891 35.2642 146.284 35.3471 146.572 35.5128C146.864 35.6752 147.086 35.8608 147.238 36.0696C147.394 36.2751 147.515 36.4441 147.601 36.5767H147.74V35.3636H148.874V45.8636H147.701ZM145.533 42.1051C146.004 42.1051 146.401 41.9825 146.726 41.7372C147.051 41.4886 147.298 41.1456 147.467 40.7081C147.636 40.2673 147.721 39.7585 147.721 39.1818C147.721 38.6117 147.638 38.1129 147.472 37.6854C147.306 37.2545 147.061 36.9197 146.736 36.6811C146.411 36.4392 146.01 36.3182 145.533 36.3182C145.036 36.3182 144.622 36.4458 144.29 36.701C143.962 36.9529 143.715 37.2959 143.549 37.7301C143.387 38.161 143.306 38.6449 143.306 39.1818C143.306 39.7254 143.389 40.2192 143.554 40.6634C143.723 41.1042 143.972 41.4555 144.3 41.7173C144.632 41.9759 145.043 42.1051 145.533 42.1051ZM156.114 39.8778V35.3636H157.288V43H156.114V41.7074H156.035C155.856 42.0952 155.577 42.425 155.199 42.6967C154.822 42.9652 154.344 43.0994 153.768 43.0994C153.29 43.0994 152.866 42.995 152.495 42.7862C152.124 42.5741 151.832 42.2559 151.62 41.8317C151.408 41.4041 151.302 40.8655 151.302 40.2159V35.3636H152.475V40.1364C152.475 40.6932 152.631 41.1373 152.942 41.4688C153.257 41.8002 153.658 41.9659 154.145 41.9659C154.437 41.9659 154.734 41.8913 155.035 41.7422C155.34 41.593 155.596 41.3643 155.801 41.0561C156.01 40.7479 156.114 40.3551 156.114 39.8778ZM159.716 43V35.3636H160.89V43H159.716ZM159.776 34.3295L160.989 32.0227H162.361L160.81 34.3295H159.776ZM164.174 43.0795C163.929 43.0795 163.718 42.9917 163.542 42.8161C163.367 42.6404 163.279 42.4299 163.279 42.1847C163.279 41.9394 163.367 41.7289 163.542 41.5533C163.718 41.3776 163.929 41.2898 164.174 41.2898C164.419 41.2898 164.63 41.3776 164.805 41.5533C164.981 41.7289 165.069 41.9394 165.069 42.1847C165.069 42.3471 165.027 42.4962 164.944 42.6321C164.865 42.768 164.757 42.8774 164.621 42.9602C164.489 43.0398 164.34 43.0795 164.174 43.0795ZM164.174 37.4119C163.929 37.4119 163.718 37.3241 163.542 37.1484C163.367 36.9728 163.279 36.7623 163.279 36.517C163.279 36.2718 163.367 36.0613 163.542 35.8857C163.718 35.71 163.929 35.6222 164.174 35.6222C164.419 35.6222 164.63 35.71 164.805 35.8857C164.981 36.0613 165.069 36.2718 165.069 36.517C165.069 36.6795 165.027 36.8286 164.944 36.9645C164.865 37.1004 164.757 37.2098 164.621 37.2926C164.489 37.3722 164.34 37.4119 164.174 37.4119Z" fill="#F6F4F3"/>
<path d="M192.391 114.632C192.299 114.375 192.206 114.118 192.114 113.861C191.59 112.412 191.067 110.964 190.543 109.516C190.188 108.534 189.839 107.55 189.476 106.571C189.267 106.008 189.45 105.476 189.822 105.155C190.471 104.597 191.495 104.863 191.795 105.663C192.464 107.447 193.137 109.23 193.808 111.013C193.809 111.016 193.811 111.019 193.824 111.038C193.814 110.918 193.81 110.815 193.795 110.713C193.683 109.945 194.283 109.264 195.06 109.28C195.58 109.29 196.048 109.644 196.212 110.151C196.269 110.327 196.328 110.503 196.393 110.703C196.445 110.551 196.424 110.384 196.471 110.228C196.521 110.063 196.606 109.908 196.719 109.777C196.926 109.538 197.228 109.383 197.544 109.353C198.212 109.288 198.804 109.777 198.891 110.412C198.915 110.59 198.962 110.764 199.006 110.94C199.006 110.738 199.039 110.544 199.118 110.358C199.307 109.912 199.77 109.61 200.269 109.612C200.756 109.615 201.228 109.924 201.4 110.371C201.741 111.253 201.901 112.166 202.106 113.084C202.368 114.259 202.711 115.408 203.068 116.557C203.275 117.224 203.255 117.882 203.026 118.536C202.745 119.341 202.238 119.988 201.587 120.529C200.805 121.179 199.908 121.597 198.914 121.807C197.917 122.017 196.93 121.992 195.963 121.646C195.448 121.462 194.993 121.18 194.601 120.796C193.897 120.107 193.215 119.399 192.57 118.656C192.171 118.197 191.792 117.722 191.416 117.245C191.05 116.782 190.632 116.37 190.173 115.998C189.604 115.536 189.049 115.058 188.501 114.573C188.242 114.344 188.194 114.037 188.254 113.711C188.332 113.287 188.519 113.099 188.983 113.027C189.718 112.913 190.417 113.06 191.051 113.432C191.553 113.726 191.984 114.116 192.332 114.588C192.345 114.606 192.36 114.623 192.374 114.64C192.379 114.637 192.385 114.635 192.391 114.632V114.632Z" fill="#F6F4F3"/>
<path d="M184.804 105.839C184.814 104.567 185.201 103.419 185.984 102.414C186.828 101.331 187.935 100.649 189.285 100.379C190.527 100.13 191.726 100.29 192.852 100.871C194.475 101.708 195.465 103.032 195.822 104.818C196.019 105.804 195.925 106.772 195.588 107.717C195.574 107.757 195.563 107.798 195.551 107.839C195.474 108.095 195.232 108.232 194.995 108.154C194.746 108.073 194.627 107.813 194.726 107.56C194.91 107.091 195.015 106.605 195.041 106.103C195.069 105.565 195.004 105.034 194.844 104.519C194.432 103.199 193.601 102.234 192.353 101.63C191.637 101.285 190.876 101.136 190.084 101.188C188.923 101.265 187.913 101.706 187.084 102.523C186.316 103.279 185.856 104.199 185.72 105.268C185.56 106.527 185.866 107.672 186.623 108.689C187.14 109.383 187.804 109.895 188.615 110.211C188.85 110.303 188.96 110.543 188.873 110.769C188.786 110.996 188.533 111.112 188.309 111.014C187.791 110.788 187.3 110.517 186.861 110.157C186.227 109.638 185.724 109.014 185.367 108.277C185.064 107.652 184.878 106.993 184.823 106.298C184.811 106.145 184.808 105.992 184.804 105.838L184.804 105.839Z" fill="#F6F4F3"/>
<path d="M190.341 102.939C189.243 102.991 188.405 103.476 187.869 104.443C187.312 105.446 187.464 106.754 188.221 107.618C188.501 107.938 188.83 108.188 189.222 108.357C189.441 108.452 189.536 108.691 189.451 108.914C189.369 109.128 189.138 109.24 188.913 109.17C188.74 109.115 188.584 109.024 188.432 108.928C187.447 108.306 186.854 107.418 186.702 106.269C186.538 105.028 186.925 103.954 187.827 103.082C188.424 102.504 189.148 102.168 189.979 102.093C191.266 101.978 192.342 102.415 193.187 103.385C193.678 103.948 193.952 104.616 194.038 105.36C194.101 105.914 194.035 106.453 193.856 106.978C193.787 107.183 193.604 107.299 193.403 107.276C193.191 107.253 193.04 107.105 193.009 106.89C192.998 106.813 193.02 106.741 193.042 106.669C193.382 105.558 193.147 104.577 192.337 103.749C191.885 103.287 191.316 103.029 190.667 102.959C190.559 102.948 190.452 102.941 190.341 102.939V102.939Z" fill="#F6F4F3"/>
<path d="M121.236 70.5905C121.236 63.0462 115.428 56.1904 106.058 56.1904C96.4477 56.1904 90.999 63.2557 90.999 70.7102C90.999 78.5539 97.0165 85.0504 105.848 85.0504C115.039 85.0504 121.236 78.6737 121.236 70.5905ZM95.1603 70.7102C95.1603 66.01 98.3337 59.9925 106.207 59.9925C113.542 59.9925 117.105 65.8903 117.105 70.5605C117.105 72.9855 116.087 76.0392 114.291 77.9851C112.345 80.0808 109.081 81.3381 106.088 81.3381C100.19 81.3082 95.1603 77.1169 95.1603 70.7102Z" fill="#F6F4F3"/>
<path d="M129.972 56.5781H125.931V84.6897H129.972V56.5781Z" fill="#F6F4F3"/>
<path d="M150.394 73.6726L159.046 62.8052V84.6897H163.088V56.5781H159.346L150.005 68.1042L140.664 56.5781H136.862V84.6897H140.904V62.8052L149.646 73.6726H150.394Z" fill="#F6F4F3"/>
<path d="M53.303 89.9023C50.0997 89.9023 48.2734 92.2674 48.2734 94.7523C48.2734 97.3568 50.2793 99.5423 53.2132 99.5423C56.2668 99.5423 58.3325 97.4167 58.3325 94.7223C58.3625 92.1776 56.4165 89.9023 53.303 89.9023ZM56.0573 97.1772C55.3986 97.8658 54.3209 98.2849 53.3329 98.2849C51.357 98.2849 49.6805 96.8778 49.6805 94.7523C49.6805 93.1955 50.7283 91.1897 53.3629 91.1897C55.8178 91.1897 56.9853 93.1656 56.9853 94.7223C56.9853 95.5007 56.656 96.5186 56.0573 97.1772Z" fill="#F6F4F3"/>
<path d="M67.586 97.2934L61.2692 90.0186H60.1914V99.3891H61.4488V92.1741L67.7058 99.3891H68.8734V90.0186H67.586V97.2934Z" fill="#F6F4F3"/>
<path d="M77.9743 95.3475C77.9743 96.2755 77.8845 96.7545 77.7048 97.0839C77.4653 97.5329 76.8067 98.3113 75.2799 98.3113C74.2021 98.3113 73.5734 97.9521 73.1842 97.5329C72.7052 97.0539 72.5855 96.5749 72.5855 95.3475V90.0186H71.2383V95.3475C71.2383 95.9762 71.2383 97.0539 71.7472 97.8922C72.4957 99.0598 73.9327 99.5388 75.2799 99.5388C76.3576 99.5388 77.4054 99.2693 78.2437 98.5209C79.2915 97.5629 79.2915 96.2755 79.2915 95.3475V90.0186H77.9443V95.3475H77.9743Z" fill="#F6F4F3"/>
<path d="M89.978 93.8805L86.8346 90.0186H85.5771V99.3891H86.9243V92.1142L89.8283 95.7367H90.0978L92.9718 92.1142V99.3891H94.319V90.0186H93.0616L89.978 93.8805Z" fill="#F6F4F3"/>
<path d="M98.3277 90.0186H96.9805V99.3891H98.3277V90.0186Z" fill="#F6F4F3"/>
<path d="M105.609 95.9797H107.405V97.9257C106.507 98.225 106.058 98.3448 105.369 98.3448C103.094 98.3448 101.597 96.788 101.597 94.7223C101.597 92.5069 103.363 91.0999 105.249 91.0999C105.758 91.0999 107.046 91.1897 108.572 92.0878V90.7107C107.554 90.2915 106.596 89.9023 105.279 89.9023C102.076 89.9023 100.22 92.3273 100.22 94.7822C100.22 96.9078 101.717 99.5124 105.339 99.5124C106.896 99.5124 108.063 99.0633 108.782 98.734V94.7822H105.638V95.9797H105.609Z" fill="#F6F4F3"/>
<path d="M115.128 94.9596C116.146 94.5704 116.685 93.7322 116.685 92.6544C116.685 91.6964 116.206 90.7683 115.218 90.3492C114.619 90.0797 114.05 90.0498 113.601 90.0498H111.236V99.4203H112.584V95.3488H112.943C113.601 95.3488 114.05 95.3488 114.949 96.5164C115.248 96.9056 116.565 98.9713 116.865 99.4203H118.451C117.793 98.5222 117.583 98.1929 117.164 97.5642C116.505 96.3667 115.966 95.5284 115.128 94.9596ZM114.41 94.0016C114.05 94.1513 113.302 94.1513 113.092 94.1513H112.584V91.1874H113.003C113.811 91.1874 114.26 91.2473 114.589 91.397C115.038 91.6066 115.308 92.1155 115.308 92.6544C115.308 93.1633 115.068 93.7322 114.41 94.0016Z" fill="#F6F4F3"/>
<path d="M122.907 89.9893L118.865 99.4196H120.242L121.41 96.6654H125.392L126.649 99.4196H128.026L123.835 89.9893H122.907ZM121.949 95.4379L123.356 92.055L124.883 95.4379H121.949Z" fill="#F6F4F3"/>
<path d="M129.972 94.7523C129.972 92.8662 131.41 91.1897 133.685 91.1897C134.822 91.1897 135.93 91.5489 136.918 92.1177V90.6807C136.319 90.4113 135.062 89.9023 133.625 89.9023C130.661 89.9023 128.565 92.1477 128.565 94.7223C128.565 96.9078 130.122 99.5124 133.595 99.5124C134.792 99.5124 135.93 99.2729 137.008 98.6741V97.2072C136.02 97.8658 134.852 98.255 133.685 98.255C131.2 98.2849 129.972 96.4887 129.972 94.7523Z" fill="#F6F4F3"/>
<path d="M140.689 90.0186H139.342V99.3891H140.689V90.0186Z" fill="#F6F4F3"/>
<path d="M146.832 89.3899H147.551L149.796 87.3242H147.82L146.832 89.3899Z" fill="#F6F4F3"/>
<path d="M147.787 89.9023C144.584 89.9023 142.758 92.2674 142.758 94.7523C142.758 97.3568 144.764 99.5423 147.698 99.5423C150.751 99.5423 152.817 97.4167 152.817 94.7223C152.847 92.1776 150.931 89.9023 147.787 89.9023ZM150.542 97.1772C149.883 97.8658 148.805 98.2849 147.817 98.2849C145.841 98.2849 144.165 96.8778 144.165 94.7523C144.165 93.1955 145.213 91.1897 147.847 91.1897C150.302 91.1897 151.47 93.1656 151.47 94.7223C151.5 95.5007 151.14 96.5186 150.542 97.1772Z" fill="#F6F4F3"/>
<path d="M161.8 90.0186V97.2934L155.483 90.0186H154.405V99.3891H155.663V92.1741L161.92 99.3891H163.087V90.0186H161.8Z" fill="#F6F4F3"/>
<path d="M62.977 67.9853C63.3063 67.9853 63.5458 67.7159 63.5458 67.4165C63.5458 67.1171 63.2764 66.8477 62.977 66.8477C62.6777 66.8477 62.4082 67.1171 62.4082 67.4165C62.4082 67.7159 62.6777 67.9853 62.977 67.9853Z" fill="#F6F4F3"/>
<path d="M69.5325 68.3753C69.5026 68.2855 69.4128 68.2256 69.293 68.2256H68.9038H68.6344H68.3051H68.0356H67.6165C67.5267 68.2256 67.4369 68.2855 67.377 68.3753L66.2693 70.9499H65.1915L64.0838 68.3753C64.0539 68.2855 63.9641 68.2256 63.8443 68.2256H62.9761H62.1079C62.0181 68.2256 61.9283 68.2855 61.8684 68.3753L60.7009 71.0996C60.641 71.2194 60.7009 71.3391 60.7907 71.4289C60.8206 71.4589 60.8805 71.4589 60.9104 71.4589C61.0002 71.4589 61.09 71.399 61.1499 71.3092L62.1678 68.9142L62.2277 71.2493L61.8385 74.2131C61.8385 74.3329 61.8984 74.4526 61.9882 74.4826C62.0181 74.4826 62.0481 74.5125 62.078 74.5125C62.1978 74.5125 62.3175 74.4227 62.3175 74.3029L62.6768 71.4888H63.1857L63.5449 74.3029C63.5749 74.4227 63.6647 74.5125 63.7845 74.5125C63.8144 74.5125 63.8443 74.5125 63.8743 74.4826C63.994 74.4526 64.0539 74.3329 64.024 74.2131L63.6348 71.2493L63.6946 68.9142L64.7125 71.3092C64.7125 71.3092 64.7125 71.3391 64.7425 71.3391C64.7425 71.3391 64.7425 71.369 64.7724 71.369L64.8023 71.399C64.8023 71.399 64.8323 71.399 64.8323 71.4289H64.8622H64.8921H65.1017L64.7724 73.1054C64.7425 73.2252 64.7724 73.3449 64.8622 73.4348C64.9221 73.4946 64.982 73.5246 65.0418 73.5545V74.273C65.0418 74.3928 65.1316 74.4826 65.2514 74.4826C65.3711 74.4826 65.461 74.3928 65.461 74.273V73.6144C65.461 73.6144 65.461 73.6144 65.4909 73.6144H65.6107H65.7304C65.7304 73.6144 65.7304 73.6144 65.7603 73.6144V74.3029C65.7603 74.4227 65.8502 74.5125 65.9699 74.5125C66.0897 74.5125 66.1795 74.4227 66.1795 74.3029V73.5844C66.2394 73.5545 66.2992 73.5246 66.3591 73.4647C66.4489 73.3749 66.4788 73.2551 66.4489 73.1354L66.1196 71.4589H66.3292C66.3591 71.4589 66.3591 71.4589 66.3591 71.4589H66.389C66.389 71.4589 66.419 71.4589 66.419 71.4289C66.419 71.4289 66.4489 71.4289 66.4489 71.399C66.4489 71.399 66.4489 71.369 66.4789 71.369C66.4789 71.369 66.4788 71.3391 66.5088 71.3391L67.5566 68.8543L67.7662 69.8722C67.7961 70.0518 67.7961 70.2015 67.7362 70.3811L66.7782 74.5425H68.1254H68.4547H69.8019L68.8439 70.3811C68.814 70.2314 68.7841 70.0518 68.8439 69.8722L69.0535 68.8543L69.8618 70.8601C69.8917 70.9499 69.9816 71.0098 70.1013 71.0098C70.1313 71.0098 70.1612 71.0098 70.1911 70.9799C70.3109 70.92 70.3708 70.7703 70.3408 70.6505L69.5325 68.3753Z" fill="#F6F4F3"/>
<path d="M68.4565 67.9853C68.7858 67.9853 69.0253 67.7159 69.0253 67.4165C69.0253 67.1171 68.7559 66.8477 68.4565 66.8477C68.1272 66.8477 67.8877 67.1171 67.8877 67.4165C67.8877 67.7159 68.1272 67.9853 68.4565 67.9853Z" fill="#F6F4F3"/>
<path d="M65.7287 70.8304C65.9682 70.8304 66.1478 70.6508 66.1478 70.4113C66.1478 70.1718 65.9682 69.9922 65.7287 69.9922C65.4892 69.9922 65.3096 70.1718 65.3096 70.4113C65.3096 70.6508 65.4892 70.8304 65.7287 70.8304Z" fill="#F6F4F3"/>
<path d="M74.5884 56.6396C75.3668 57.3582 76.4445 58.6155 76.4445 58.6155C79.3185 61.8189 80.9651 66.1299 80.9651 69.9619C80.9651 70.0218 80.9651 70.0518 80.9651 70.1116H76.235C75.5165 62.5973 69.5289 56.6696 62.284 56.6696C54.5301 56.6696 48.2432 63.3457 48.2432 71.5786C48.2432 76.0393 50.2789 81.0389 53.632 84.7512H56.5958C55.8174 84.0327 54.7397 82.7753 54.7397 82.7753C51.8656 79.572 50.219 75.2609 50.219 71.4289C50.219 71.369 50.219 71.3391 50.219 71.2792H54.9792C55.6977 78.7936 61.6852 84.7213 68.9301 84.7213C76.684 84.7213 82.971 78.0451 82.971 69.8123C82.971 65.3515 80.9352 60.3519 77.5822 56.6396H74.5884ZM74.2591 70.0817H71.8341C71.8341 70.0518 71.8341 70.0518 71.8341 70.0218C71.8341 68.5848 71.4449 67.1777 70.7563 65.9203H73.1514C73.7501 67.1777 74.1094 68.5848 74.2591 70.0817ZM72.7323 65.0222H70.2474C69.3193 63.6151 68.0619 62.4476 66.6848 61.7291C67.3434 61.3698 67.9422 60.9207 68.4511 60.4118C70.2175 61.5195 71.7144 63.1361 72.7323 65.0222ZM62.8528 58.6155C64.6191 58.7054 66.2956 59.2143 67.7925 60.0226C66.5052 61.2201 64.7688 61.9985 62.8528 62.1183V58.6155ZM62.8528 62.8368C63.8707 62.7769 64.8586 62.5374 65.7567 62.1781C67.1039 62.7769 68.3314 63.7648 69.2894 65.0222H62.8229V62.8368H62.8528ZM61.9546 58.5856V62.0883C59.9488 61.9985 58.1526 61.1902 56.8353 59.9328C58.3921 59.1245 60.1284 58.6455 61.9546 58.5856ZM61.9546 62.8368V65.0222H55.3683C56.3264 63.7648 57.5837 62.7469 58.901 62.1781C59.859 62.5673 60.8769 62.8068 61.9546 62.8368ZM56.1767 60.3519C56.7155 60.8908 57.3442 61.3399 58.0029 61.7291C56.6557 62.4775 55.3684 63.6151 54.4403 65.0222H51.7758C52.8236 63.1062 54.3505 61.4596 56.1767 60.3519ZM50.219 70.3811C50.3388 68.7944 50.728 67.2675 51.3567 65.8904H53.9313C53.2727 67.1478 52.8536 68.5549 52.8536 69.9919C52.8536 70.0518 52.8536 70.2314 52.8536 70.3811H50.219ZM56.9251 71.2493H59.3501C59.3501 71.2792 59.3501 71.2792 59.3501 71.3091C59.3501 72.7462 59.7393 74.1532 60.4278 75.4106H58.0328C57.4341 74.1532 57.0449 72.7462 56.9251 71.2493ZM58.4519 76.3087H60.9368C61.8648 77.7158 63.1522 78.8834 64.4994 79.6019C63.8407 79.9612 63.242 80.4102 62.733 80.9192C60.9368 79.8115 59.4698 78.1948 58.4519 76.3087ZM68.3314 82.7154C66.5651 82.6256 64.8885 82.1167 63.3917 81.3083C64.679 80.1108 66.4154 79.3325 68.3314 79.2127V82.7154ZM68.3314 78.4942C67.3135 78.5541 66.3256 78.7936 65.4274 79.1528C64.0802 78.5541 62.8528 77.5661 61.8948 76.3087H68.3613V78.4942H68.3314ZM61.296 75.4406C60.5775 74.2131 60.1285 72.806 60.1285 71.3391C60.1285 71.3091 60.1285 71.3091 60.1285 71.2792V70.411H53.632C53.632 70.2913 53.632 70.1416 53.632 70.0218C53.632 68.5549 54.081 67.1478 54.7995 65.9203H69.8882C70.6067 67.1478 71.0557 68.5549 71.0557 70.0218C71.0557 70.0518 71.0557 70.0518 71.0557 70.0817V70.9499H77.5522C77.5522 71.0696 77.5522 71.2193 77.5522 71.3091C77.5522 72.7761 77.1032 74.1832 76.3846 75.4106H61.296V75.4406ZM75.7859 76.3087C74.8279 77.5661 73.5705 78.584 72.2532 79.1528C71.3252 78.7636 70.2773 78.5241 69.1996 78.4942V76.3087H75.7859ZM69.1996 82.7454V79.2426C71.2054 79.3325 73.0017 80.1408 74.3189 81.3982C72.7921 82.2065 71.0557 82.6855 69.1996 82.7454ZM75.0075 80.979C74.4686 80.4402 73.84 79.9911 73.1813 79.6019C74.5285 78.8535 75.8158 77.7158 76.7439 76.3087H79.4084C78.3306 78.2547 76.8337 79.8713 75.0075 80.979ZM79.8275 75.4406H77.2529C77.9115 74.1832 78.3306 72.7761 78.3306 71.3391C78.3306 71.2792 78.3306 71.0996 78.3306 70.9798H80.9651C80.8155 72.5366 80.4262 74.0634 79.8275 75.4406Z" fill="#F6F4F3"/>
</svg>
