<svg width="108" height="71" viewBox="0 0 108 71" fill="none" xmlns="http://www.w3.org/2000/svg">
<path d="M103.898 31.2474H108V40.5729H103.898V31.2474ZM95.8157 43.3034H99.9174V28.517H95.8157V43.3034ZM87.8688 50.9515H91.9705V20.8688H87.8688V50.9515ZM80.3142 56.8532H84.4159V15.2424H80.3142V56.8432V56.8532ZM72.2264 46.6915H76.3281V25.1288H72.2264V46.6915ZM64.0104 63.0075H68.1121V7.89008H63.9975V63.0075H64.0104ZM55.9252 70.9102H60.0269V0.910156H55.9252V70.9102ZM47.9783 60.1034H52.0799V11.7167H47.9783V60.1036V60.1034ZM39.7571 46.3625H43.8588V25.9673H39.7571V46.3625ZM31.8105 41.5006H35.9121V30.3018H31.8105V41.519V41.5006ZM23.8635 47.4919H27.9652V24.3205H23.8635V47.4994V47.4919ZM16.0448 58.7087H20.1465V11.7856H16.045V58.7169L16.0448 58.7087ZM8.09812 51.5401H12.1998V19.8772H8.09812V51.5481V51.5401ZM0 43.3034H4.10165V28.517H0V43.3034Z" fill="#F6F4F3"/>
</svg>
