<svg width="201" height="70" viewBox="0 0 201 70" fill="none" xmlns="http://www.w3.org/2000/svg">
<path d="M50.7494 48.9781C50.7189 49.0698 50.7494 49.1309 50.8105 49.192L50.8716 49.2531C50.9633 49.3448 51.1161 49.3753 51.2077 49.2837L51.7577 48.7642C51.8494 48.6726 51.8494 48.5198 51.7577 48.3976L50.5661 47.3282C50.505 47.2671 50.4133 47.2365 50.3217 47.2671L48.1828 47.9698C48.0912 48.0004 47.9995 47.9698 47.9384 47.9087L46.5635 46.5949C46.5024 46.5338 46.4718 46.4727 46.5024 46.381L47.0218 43.3867C47.0523 43.2644 46.9607 43.1117 46.8079 43.1117L44.5774 42.8672C44.058 42.8061 43.5386 42.7756 43.0497 42.6839C42.8358 42.6534 42.347 42.5006 42.5608 42.195C42.6219 42.1339 42.683 42.0728 42.7442 42.0423C42.8664 41.9812 43.0191 41.8895 43.0497 41.7367L43.1414 40.8506C43.1414 40.759 43.0803 40.6368 42.9886 40.6062C42.8664 40.5451 42.7747 40.6368 42.6525 40.6979C42.2858 40.9117 41.9192 40.9729 41.4914 41.0034L41.7359 39.9951L43.2636 39.8729C43.3552 39.8729 43.4469 39.8118 43.4775 39.7201L44.7608 36.2369C44.8219 36.0536 44.6691 35.8703 44.4858 35.9314L41.6136 36.6952C41.5525 36.7258 41.4914 36.7563 41.4609 36.8175L40.1165 39.4146C40.0859 39.4757 40.0248 39.5062 39.9637 39.5368L37.5194 40.209C37.4277 40.2396 37.336 40.209 37.2749 40.1479L33.8834 36.2369C33.8528 36.2064 33.8223 36.1453 33.8223 36.0841V31.8676C33.8223 31.776 33.7612 31.6843 33.6695 31.6538L32.2945 31.1038C32.264 31.0732 32.2334 31.0427 32.1723 31.0121L30.0335 27.6817C29.9724 27.59 29.8502 27.5289 29.728 27.59L28.7197 28.0483C28.628 28.0789 28.5363 28.0789 28.4447 28.0178L25.4198 25.1457C25.3587 25.1151 25.2976 25.0846 25.2365 25.0846C25.0531 25.0846 24.9004 25.0846 24.717 25.1151C24.3198 25.1151 23.9226 25.1457 23.5254 25.1457C23.0671 25.1457 22.6393 25.1762 22.181 25.1762C21.8449 25.1762 21.5394 25.1762 21.2033 25.2068C20.9588 25.2068 20.7755 25.054 20.5922 24.9318C20.3172 24.7485 20.0117 24.5651 19.7367 24.3818C19.4006 24.1679 19.0339 23.954 18.6978 23.7096C18.3923 23.5263 18.0867 23.3124 17.7812 23.1291C17.5979 23.0068 17.4451 22.9152 17.2618 22.793C17.2618 22.793 17.2312 22.793 17.2312 22.7624C17.1395 22.7013 17.0479 22.7013 16.9562 22.7624L15.9174 23.4652C15.8257 23.5263 15.7951 23.679 15.8563 23.7707L21.3866 34.2203C21.4477 34.3425 21.6005 34.3731 21.7227 34.312L22.3643 33.9759C22.4866 33.9148 22.5171 33.762 22.456 33.6398L18.3312 26.0012C18.3006 25.9401 18.3312 25.9095 18.3617 25.879L18.6062 25.7568C18.6367 25.7568 18.6978 25.7262 18.7284 25.7873L25.9698 36.298C26.0309 36.4202 26.0309 36.5425 25.9087 36.6341L24.8087 37.4285C24.6559 37.5202 24.6865 37.7646 24.8393 37.8258L34.8611 42.9283C34.9222 42.9589 34.9833 42.9589 35.0444 42.9283L36.9388 42.195C36.9999 42.1645 37.0916 42.1645 37.1527 42.2256L40.0554 43.9672C40.0859 43.9672 40.1165 43.9977 40.1165 43.9977C40.6665 44.12 41.247 44.2422 41.797 44.3644C42.1331 44.4255 42.4386 44.5172 42.7747 44.5783C43.0191 44.6394 43.2636 44.6394 43.4469 44.8533C43.5691 44.9755 43.6913 45.1283 43.8136 45.2505L44.6385 46.1366L44.7302 46.2588C44.7607 46.3199 44.7913 46.381 44.7913 46.4421L44.7608 47.0837C44.7608 47.206 44.8219 47.2976 44.9441 47.3282L45.6774 47.5115C45.7079 47.5421 45.769 47.5726 45.7996 47.5726L46.5329 48.367C46.5635 48.3976 46.5635 48.3976 46.594 48.4281L47.0218 48.642C47.0523 48.642 47.0523 48.6726 47.0829 48.6726L49.13 49.1614C49.2217 49.192 49.2828 49.1614 49.3439 49.1003L50.0772 48.367C50.1689 48.2754 50.3217 48.2754 50.4133 48.367L50.6578 48.6115C50.7189 48.6726 50.7494 48.7642 50.7189 48.8559L50.7494 48.9781Z" fill="white"/>
<path d="M53.5944 43.203L53.6249 43.1419C53.686 43.0197 53.6555 42.8669 53.5333 42.8058L51.4556 41.7364C51.3333 41.6753 51.15 41.7364 51.1195 41.8891L50.8139 43.1724C50.7834 43.2335 50.8139 43.3252 50.8445 43.3863L50.9667 43.5391C51.0584 43.6613 51.2417 43.6613 51.3334 43.5391L51.5167 43.2946C51.5778 43.2335 51.6389 43.203 51.7306 43.203L53.3805 43.3252C53.4722 43.3252 53.5638 43.2641 53.5944 43.203Z" fill="white"/>
<path d="M80.7842 48.3691C80.4175 48.7358 79.9592 48.8885 79.4398 48.8885C78.1259 48.8885 77.576 47.9719 77.5454 47.0553C77.5454 46.1386 78.1565 45.1914 79.4398 45.1914C79.9287 45.1914 80.387 45.3748 80.7536 45.7414L80.2953 46.1692C80.0509 45.9553 79.7453 45.8331 79.4398 45.8331C78.5843 45.8331 78.2176 46.4747 78.2176 47.0553C78.2176 47.6358 78.5537 48.2469 79.4398 48.2469C79.7453 48.2469 80.112 48.1247 80.3259 47.8802L80.7842 48.3691Z" fill="white"/>
<path d="M85.643 47.0553C85.643 47.9719 85.0624 48.8885 83.8097 48.8885C82.557 48.8885 81.9764 48.0024 81.9764 47.0553C81.9764 46.1081 82.5875 45.1914 83.8097 45.1914C85.0624 45.1914 85.6735 46.1386 85.643 47.0553ZM82.6792 47.0858C82.7098 47.6663 83.0153 48.308 83.8403 48.308C84.6652 48.308 85.0013 47.6663 85.0013 47.0858C85.0013 46.4747 84.6652 45.8025 83.8403 45.8025C82.9847 45.8025 82.6486 46.4747 82.6792 47.0858Z" fill="white"/>
<path d="M89.6782 48.1557H87.8144L87.5088 48.8279H86.7755L88.3643 45.2531H89.0977L90.6865 48.8279H89.9532L89.6782 48.1557ZM88.7616 46.0169L88.0893 47.5446H89.4032L88.7616 46.0169Z" fill="white"/>
<path d="M92.7285 45.2531V48.1863H94.5617V48.8279H92.0563V45.2531H92.7285Z" fill="white"/>
<path d="M96.7347 45.2531H96.0625V48.8279H96.7347V45.2531Z" fill="white"/>
<path d="M101.5 48.3691C101.133 48.7358 100.675 48.8885 100.156 48.8885C98.8418 48.8885 98.2918 47.9719 98.2612 47.0553C98.2612 46.1386 98.8723 45.1914 100.156 45.1914C100.644 45.1914 101.103 45.3748 101.469 45.7414L101.011 46.1692C100.767 45.9553 100.461 45.8331 100.156 45.8331C99.3001 45.8331 98.9334 46.4747 98.9334 47.0553C98.9334 47.6358 99.2695 48.2469 100.156 48.2469C100.461 48.2469 100.828 48.1247 101.042 47.8802L101.5 48.3691Z" fill="white"/>
<path d="M103.578 45.2531H102.906V48.8279H103.578V45.2531Z" fill="white"/>
<path d="M106.969 45.1887C108.191 45.1887 108.802 46.1359 108.802 47.0525C108.802 47.9692 108.221 48.8858 106.969 48.8858C105.716 48.8858 105.135 47.9997 105.135 47.0525C105.135 46.1359 105.747 45.1887 106.969 45.1887ZM106.969 45.7998C106.144 45.7998 105.777 46.472 105.808 47.0831C105.838 47.6636 106.144 48.3053 106.969 48.3053C107.794 48.3053 108.13 47.6636 108.13 47.0831C108.13 46.472 107.794 45.7998 106.969 45.7998ZM107.794 44.1499H107.06L106.694 44.8526V44.8832H107.244L107.794 44.1499Z" fill="white"/>
<path d="M112.628 45.2531H113.301V48.8279H112.903L111.009 46.4141V48.8279H110.367V45.2531H110.887L112.628 47.453V45.2531Z" fill="white"/>
<path d="M120.109 48.8279H119.314L118.275 47.6363H117.634V48.8279H116.962V45.2531C117.512 45.2531 118.092 45.2531 118.642 45.2531C119.467 45.2531 119.925 45.803 119.925 46.4447C119.925 46.9336 119.711 47.4224 119.039 47.5752L120.109 48.7974V48.8279ZM117.634 45.8947V47.0252H118.642C119.07 47.0252 119.253 46.7502 119.253 46.4447C119.253 46.1697 119.07 45.8642 118.642 45.8642H117.634V45.8947Z" fill="white"/>
<path d="M124.051 48.8279H121.393V45.2531H124.051V45.8947H122.065V46.7197H123.99V47.3613H122.065V48.1557H124.051V48.8279Z" fill="white"/>
<path d="M128.21 46.1368C127.966 45.9229 127.63 45.7702 127.294 45.7702C126.53 45.7702 126.071 46.3507 126.071 47.084C126.071 47.6645 126.407 48.2756 127.294 48.2756C127.568 48.2756 127.813 48.2145 128.088 48.0006V47.359H127.171V46.7479H128.699V48.2451C128.363 48.6423 127.905 48.8867 127.294 48.8867C125.949 48.8867 125.43 48.0006 125.43 47.084C125.43 46.0757 126.041 45.1591 127.294 45.1591C127.782 45.1591 128.241 45.3424 128.607 45.7091L128.21 46.1368Z" fill="white"/>
<path d="M130.958 45.2531H130.286V48.8279H130.958V45.2531Z" fill="white"/>
<path d="M136.182 47.0553C136.182 47.9719 135.601 48.8885 134.348 48.8885C133.096 48.8885 132.515 48.0024 132.515 47.0553C132.515 46.1081 133.126 45.1914 134.348 45.1914C135.601 45.1914 136.212 46.1386 136.182 47.0553ZM133.218 47.0858C133.248 47.6663 133.554 48.308 134.379 48.308C135.204 48.308 135.54 47.6663 135.54 47.0858C135.54 46.4747 135.204 45.8025 134.379 45.8025C133.554 45.8025 133.187 46.4747 133.218 47.0858Z" fill="white"/>
<path d="M140.034 45.2531H140.706V48.8279H140.278L138.414 46.4141V48.8279H137.742V45.2531H138.292L140.034 47.453V45.2531Z" fill="white"/>
<path d="M144.862 48.1557H142.998L142.693 48.8279H141.959L143.548 45.2531H144.281L145.87 48.8279H145.137L144.862 48.1557ZM143.915 46.0169L143.243 47.5446H144.556L143.915 46.0169Z" fill="white"/>
<path d="M147.912 45.2531V48.1863H149.745V48.8279H147.24V45.2531H147.912Z" fill="white"/>
<path d="M156.377 48.3691C156.011 48.7358 155.552 48.8885 155.033 48.8885C153.719 48.8885 153.169 47.9719 153.138 47.0553C153.138 46.1386 153.75 45.1914 155.033 45.1914C155.522 45.1914 155.98 45.3748 156.347 45.7414L155.888 46.1692C155.644 45.9553 155.338 45.8331 155.033 45.8331C154.177 45.8331 153.811 46.4747 153.811 47.0553C153.811 47.6358 154.147 48.2469 155.033 48.2469C155.338 48.2469 155.705 48.1247 155.919 47.8802L156.377 48.3691Z" fill="white"/>
<path d="M161.262 47.0553C161.262 47.9719 160.681 48.8885 159.429 48.8885C158.176 48.8885 157.595 48.0024 157.595 47.0553C157.595 46.1081 158.207 45.1914 159.429 45.1914C160.651 45.1914 161.262 46.1386 161.262 47.0553ZM158.268 47.0858C158.298 47.6663 158.604 48.308 159.429 48.308C160.254 48.308 160.59 47.6663 160.59 47.0858C160.59 46.4747 160.254 45.8025 159.429 45.8025C158.604 45.8025 158.268 46.4747 158.268 47.0858Z" fill="white"/>
<path d="M165.119 45.2531H165.761V48.8279H165.363L163.5 46.4141V48.8279H162.827V45.2531H163.377L165.119 47.453V45.2531Z" fill="white"/>
<path d="M168.324 45.8642H167.194V45.2531H170.097V45.8642H168.997V48.8279H168.324V45.8642Z" fill="white"/>
<path d="M174.68 48.8279H173.885L172.846 47.6363H172.205V48.8279H171.533V45.2531C172.083 45.2531 172.663 45.2531 173.213 45.2531C174.038 45.2531 174.496 45.803 174.496 46.4447C174.496 46.9336 174.282 47.4224 173.61 47.5752L174.68 48.7974V48.8279ZM172.205 45.8947V47.0252H173.213C173.641 47.0252 173.824 46.7502 173.824 46.4447C173.824 46.1697 173.641 45.8642 173.213 45.8642H172.205V45.8947Z" fill="white"/>
<path d="M178.503 48.1557H176.639L176.334 48.8279H175.6L177.189 45.2531H177.922L179.511 48.8279H178.778L178.503 48.1557ZM177.556 46.0169L176.884 47.5446H178.197L177.556 46.0169Z" fill="white"/>
<path d="M78.3099 51.3616V54.2948H80.1432V54.9059H77.6377V51.3616H78.3099Z" fill="white"/>
<path d="M84.1481 54.2334H82.2843L81.9787 54.9056H81.276L82.8648 51.3307H83.5981L85.187 54.9056H84.4537L84.1481 54.2334ZM83.2315 52.0946L82.5593 53.6223H83.8731L83.2315 52.0946Z" fill="white"/>
<path d="M89.3993 51.9726H88.2688V51.3616H91.1715V51.9726H90.0715V54.9059H89.3993V51.9726Z" fill="white"/>
<path d="M95.7594 54.9056H94.965L93.9261 53.714H93.2845V54.9056H92.6123V51.3307C93.1623 51.3307 93.7428 51.3307 94.2928 51.3307C95.1178 51.3307 95.5761 51.8807 95.5761 52.5224C95.5761 53.0112 95.3622 53.5001 94.69 53.6529L95.7594 54.8751V54.9056ZM93.2845 51.9724V53.1029H94.2928C94.7206 53.1029 94.9039 52.8279 94.9039 52.5224C94.9039 52.2474 94.7206 51.9418 94.2928 51.9418H93.2845V51.9724Z" fill="white"/>
<path d="M99.578 54.2334H97.7141L97.4086 54.9056H96.6753L98.2641 51.3307H98.9974L100.586 54.9056H99.853L99.578 54.2334ZM98.6308 52.0946L97.9586 53.6223H99.2724L98.6308 52.0946Z" fill="white"/>
<path d="M102.237 51.9726H101.106V51.3616H104.04V51.9726H102.909V54.9059H102.237V51.9726Z" fill="white"/>
<path d="M107.977 54.2334H106.113L105.808 54.9056H105.105L106.694 51.3307H107.427L109.016 54.9056H108.283L107.977 54.2334ZM107.06 52.0946L106.388 53.6223H107.702L107.06 52.0946Z" fill="white"/>
<path d="M115.433 53.1029C115.463 53.989 114.913 54.9056 113.66 54.9056H112.255V51.3307H113.66C114.883 51.3613 115.402 52.2168 115.433 53.1029ZM112.927 54.264H113.66C114.455 54.264 114.791 53.6834 114.76 53.1029C114.73 52.5529 114.424 52.0029 113.66 52.0029H112.927V54.264Z" fill="white"/>
<path d="M119.532 54.9059H116.874V51.3616H119.532V52.0032H117.546V52.8282H119.471V53.4393H117.546V54.2642H119.532V54.9059Z" fill="white"/>
<path d="M124.785 53.8668H123.777V54.9056H123.105V51.3307C123.655 51.3307 124.205 51.3307 124.785 51.3307C126.496 51.3613 126.496 53.8668 124.785 53.8668ZM123.777 53.2557H124.785C125.641 53.2557 125.641 52.0029 124.785 52.0029H123.777V53.2557Z" fill="white"/>
<path d="M130.194 54.9059H127.536V51.3616H130.194V52.0032H128.208V52.8282H130.102V53.4393H128.208V54.2642H130.194V54.9059Z" fill="white"/>
<path d="M134.869 54.9056H134.075L133.036 53.714H132.394V54.9056H131.722V51.3307C132.272 51.3307 132.853 51.3307 133.403 51.3307C134.228 51.3307 134.686 51.8807 134.686 52.5224C134.686 53.0112 134.472 53.5001 133.8 53.6529L134.869 54.8751V54.9056ZM132.394 51.9724V53.1029H133.403C133.83 53.1029 134.014 52.8279 134.014 52.5224C134.014 52.2474 133.83 51.9418 133.403 51.9418H132.394V51.9724Z" fill="white"/>
<path d="M138.505 52.2184C138.383 52.0045 138.047 51.8212 137.65 51.8212C137.161 51.8212 136.917 52.0351 136.917 52.2795C136.917 52.585 137.283 52.6767 137.711 52.7378C138.444 52.8295 139.147 53.0128 139.147 53.8683C139.147 54.6627 138.444 54.9988 137.65 54.9988C136.917 54.9988 136.367 54.785 136.092 54.1128L136.642 53.8378C136.794 54.235 137.222 54.3878 137.65 54.3878C138.078 54.3878 138.475 54.235 138.475 53.8683C138.475 53.5322 138.139 53.41 137.65 53.3489C136.917 53.2572 136.244 53.0739 136.244 52.2795C136.244 51.5462 136.978 51.2406 137.619 51.2406C138.169 51.2406 138.75 51.3934 139.025 51.9434L138.505 52.2184Z" fill="white"/>
<path d="M144.158 53.1644C144.158 54.0811 143.578 54.9977 142.325 54.9977C141.072 54.9977 140.492 54.1116 140.492 53.1644C140.492 52.2173 141.103 51.3006 142.325 51.3006C143.578 51.2701 144.189 52.2173 144.158 53.1644ZM141.164 53.1644C141.164 53.745 141.5 54.3866 142.325 54.3866C143.15 54.3866 143.486 53.745 143.486 53.1644C143.486 52.5533 143.15 51.8812 142.325 51.8812C141.5 51.8812 141.164 52.5839 141.164 53.1644Z" fill="white"/>
<path d="M148.007 51.3616H148.68V54.9059H148.252V54.9364L146.388 52.5226V54.9059H145.716V51.3616H146.266L148.007 53.5615V51.3616Z" fill="white"/>
<path d="M152.805 54.2334H150.941L150.635 54.9056H149.902L151.491 51.3307H152.224L153.813 54.9056H153.08L152.805 54.2334ZM151.888 52.0946L151.216 53.6223H152.53L151.888 52.0946Z" fill="white"/>
<path d="M157.291 52.2184C157.168 52.0045 156.832 51.8212 156.435 51.8212C155.946 51.8212 155.702 52.0351 155.702 52.2795C155.702 52.585 156.068 52.6767 156.496 52.7378C157.229 52.8295 157.932 53.0128 157.932 53.8683C157.932 54.6627 157.229 54.9988 156.435 54.9988C155.702 54.9988 155.152 54.785 154.877 54.1128L155.427 53.8378C155.579 54.235 156.007 54.3878 156.435 54.3878C156.863 54.3878 157.26 54.235 157.26 53.8683C157.26 53.5322 156.924 53.41 156.435 53.3489C155.702 53.2572 155.029 53.0739 155.029 52.2795C155.029 51.5462 155.763 51.2406 156.404 51.2406C156.954 51.2406 157.535 51.3934 157.81 51.9434L157.291 52.2184Z" fill="white"/>
<path d="M79.1381 58.9405L80.0853 57.4739H80.8797V57.5045L79.4742 59.5516V61.0182H78.802V59.5516L77.4576 57.5045V57.4739H78.2521L79.1381 58.9405Z" fill="white"/>
<path d="M86.8948 61.0182H84.2366V57.4739H86.8948V58.1156H84.8782V58.9405H86.8031V59.5516H84.8782V60.346H86.8948V61.0182Z" fill="white"/>
<path d="M89.0982 57.4739V60.4071H90.9009V61.0182H88.426V57.4739H89.0982Z" fill="white"/>
<path d="M95.3626 58.085H94.2321V57.4739H97.1347V58.085H96.0348V61.0182H95.3626V58.085Z" fill="white"/>
<path d="M101.715 61.018H100.92L99.8813 59.8264H99.2397V61.018H98.5675V57.4431C99.1175 57.4431 99.698 57.4431 100.248 57.4431C101.073 57.4431 101.531 57.9931 101.531 58.6347C101.531 59.1236 101.317 59.6125 100.645 59.7653L101.715 60.9874V61.018ZM99.2397 58.0848V59.2153H100.248C100.676 59.2153 100.859 58.9403 100.859 58.6347C100.859 58.3597 100.676 58.0542 100.248 58.0542H99.2397V58.0848Z" fill="white"/>
<path d="M105.502 60.3467H103.639L103.333 61.0189H102.6L104.189 57.444H104.922L106.511 61.0189H105.777L105.502 60.3467ZM105.258 59.7356L104.586 58.2079L103.914 59.7356H105.258ZM105.411 56.3746H104.677L104.311 57.0774V57.1079H104.861L105.411 56.3746Z" fill="white"/>
<path d="M107.793 61.0182V57.4739H110.36V58.1156H108.465V59.0933H110.268V59.7044H108.465V61.0182H107.793Z" fill="white"/>
<path d="M112.564 57.4739H111.892V61.0488H112.564V57.4739Z" fill="white"/>
<path d="M117.332 60.5576C116.966 60.9243 116.507 61.077 115.988 61.077C114.674 61.077 114.124 60.1604 114.093 59.2438C114.093 58.3271 114.704 57.38 115.988 57.38C116.477 57.38 116.935 57.5633 117.302 57.9299L116.843 58.3577C116.599 58.1438 116.293 58.0216 115.988 58.0216C115.132 58.0216 114.766 58.6632 114.766 59.2438C114.766 59.8243 115.102 60.4354 115.988 60.4354C116.293 60.4354 116.66 60.3132 116.874 60.0688L117.332 60.5576Z" fill="white"/>
<path d="M122.183 59.2438C122.183 60.1604 121.602 61.077 120.35 61.077C119.097 61.077 118.516 60.191 118.516 59.2438C118.516 58.2966 119.128 57.38 120.35 57.38C121.602 57.38 122.214 58.3271 122.183 59.2438ZM119.219 59.2743C119.219 59.8549 119.555 60.4965 120.38 60.4965C121.205 60.4965 121.541 59.8549 121.541 59.2743C121.541 58.6632 121.205 57.991 120.38 57.991C119.555 57.991 119.189 58.6632 119.219 59.2743Z" fill="white"/>
<path d="M126.431 57.4739H125.759V61.0488H126.431V57.4739Z" fill="white"/>
<path d="M128.725 57.4739V60.4071H130.559V61.0182H128.053V57.4739H128.725Z" fill="white"/>
<path d="M132.029 57.4749H132.701V61.0497H132.029V57.4749ZM133.19 56.4055H132.456L132.09 57.1082V57.1388H132.64L133.19 56.4055Z" fill="white"/>
<path d="M137.461 60.5576C137.095 60.9243 136.636 61.077 136.117 61.077C134.803 61.077 134.253 60.1604 134.222 59.2438C134.222 58.3271 134.834 57.38 136.117 57.38C136.606 57.38 137.064 57.5633 137.431 57.9299L136.972 58.3577C136.728 58.1438 136.422 58.0216 136.117 58.0216C135.261 58.0216 134.895 58.6632 134.895 59.2438C134.895 59.8243 135.231 60.4354 136.117 60.4354C136.422 60.4354 136.789 60.3132 137.003 60.0688L137.461 60.5576Z" fill="white"/>
<path d="M139.545 57.4739H138.872V61.0488H139.545V57.4739Z" fill="white"/>
<path d="M142.258 58.085H141.128V57.4739H144.061V58.085H142.93V61.0182H142.258V58.085Z" fill="white"/>
<path d="M148.95 59.2438C148.95 60.1604 148.369 61.077 147.116 61.077C145.864 61.077 145.283 60.191 145.283 59.2438C145.283 58.2966 145.894 57.38 147.116 57.38C148.369 57.38 148.98 58.3271 148.95 59.2438ZM145.986 59.2743C146.017 59.8549 146.322 60.4965 147.147 60.4965C147.972 60.4965 148.308 59.8549 148.308 59.2743C148.308 58.6632 147.972 57.991 147.147 57.991C146.292 57.991 145.955 58.6632 145.986 59.2743Z" fill="white"/>
<path d="M155.611 59.2153C155.611 60.1014 155.092 61.018 153.839 61.018H152.464V57.4431H153.87C155.061 57.4737 155.611 58.3292 155.611 59.2153ZM153.136 60.3763H153.87C154.664 60.3763 155 59.7958 154.97 59.2153C154.939 58.6653 154.633 58.1153 153.87 58.1153H153.136V60.3763Z" fill="white"/>
<path d="M159.741 61.0182H157.083V57.4739H159.741V58.1156H157.725V58.9405H159.65V59.5516H157.725V60.346H159.741V61.0182Z" fill="white"/>
<path d="M166.4 58.4517L165.239 59.9794H165.117L163.986 58.4517V61.0182H163.314V57.4739H164.078L165.178 59.0016L166.308 57.4739H167.072V61.0182H166.4V58.4517Z" fill="white"/>
<path d="M169.367 57.4739H168.695V61.0488H169.367V57.4739Z" fill="white"/>
<path d="M173.643 58.3269C173.399 58.0824 173.063 57.9602 172.727 57.9602C171.963 57.9602 171.504 58.5407 171.504 59.2741C171.504 59.8546 171.841 60.4657 172.727 60.4657C173.002 60.4657 173.246 60.4046 173.521 60.1907V59.549H172.604V58.938H174.132V60.4351C173.796 60.8323 173.338 61.0768 172.727 61.0768C171.382 61.0768 170.863 60.1907 170.863 59.2741C170.863 58.2658 171.474 57.3491 172.727 57.3491C173.215 57.3491 173.674 57.5324 174.04 57.8991L173.643 58.3269Z" fill="white"/>
<path d="M178.805 61.018H178.01L176.971 59.8264H176.33V61.018H175.688V57.4431C176.238 57.4431 176.819 57.4431 177.368 57.4431C178.193 57.4431 178.652 57.9931 178.652 58.6347C178.652 59.1236 178.438 59.6125 177.766 59.7653L178.835 60.9874V61.018H178.805ZM176.36 58.0848V59.2153H177.368C177.796 59.2153 177.98 58.9403 177.98 58.6347C177.98 58.3597 177.796 58.0542 177.368 58.0542H176.36V58.0848Z" fill="white"/>
<path d="M182.628 60.3458H180.764L180.458 61.018H179.725L181.314 57.4431H182.047L183.636 61.018H182.903L182.628 60.3458ZM181.711 58.207L181.039 59.7347H182.353L181.711 58.207Z" fill="white"/>
<path d="M187.298 57.4431H187.97V61.018H187.573L185.678 58.6347V61.018H185.037V57.4737H185.556L187.298 59.6736V57.4431Z" fill="white"/>
<path d="M190.506 58.085H189.406V57.4739H192.309V58.085H191.178V61.0182H190.506V58.085Z" fill="white"/>
<path d="M196.377 61.0182H193.719V57.4739H196.377V58.1156H194.391V58.9405H196.316V59.5516H194.391V60.346H196.377V61.0182Z" fill="white"/>
<path d="M200.196 58.3269C200.073 58.113 199.737 57.9297 199.34 57.9297C198.851 57.9297 198.607 58.1435 198.607 58.388C198.607 58.6935 198.973 58.7852 199.401 58.8463C200.134 58.938 200.837 59.1213 200.837 59.9768C200.837 60.7712 200.134 61.1073 199.34 61.1073C198.607 61.1073 198.057 60.8934 197.782 60.2212L198.332 59.9462C198.484 60.3435 198.912 60.4962 199.34 60.4962C199.768 60.4962 200.165 60.3435 200.165 59.9768C200.165 59.6407 199.829 59.5185 199.34 59.4574C198.607 59.3657 197.935 59.1824 197.935 58.388C197.935 57.6547 198.668 57.3491 199.309 57.3491C199.859 57.3491 200.44 57.5019 200.715 58.0519L200.196 58.3269Z" fill="white"/>
<path d="M93.224 31.808C91.4518 33.5801 89.1297 34.4051 86.6548 34.4051C80.2078 34.4051 77.4884 29.9747 77.4579 25.4526C77.4273 20.9 80.3911 16.2863 86.6548 16.2863C89.0075 16.2863 91.2379 17.1724 93.0101 18.9445L90.8407 21.0528C89.7102 19.9223 88.1825 19.4029 86.6548 19.4029C82.4688 19.4029 80.6661 22.5194 80.6966 25.4221C80.7272 28.2942 82.3771 31.3191 86.6548 31.3191C88.1519 31.3191 89.863 30.708 91.024 29.5469L93.224 31.808Z" fill="white"/>
<path d="M117.024 25.4222C116.963 29.9137 114.213 34.4052 108.133 34.4052C102.053 34.4052 99.2112 30.0054 99.2112 25.4528C99.2112 20.8696 102.144 16.2865 108.133 16.2865C114.091 16.2559 117.086 20.8696 117.024 25.4222ZM102.45 25.4833C102.511 28.3249 104.069 31.3804 108.133 31.3804C112.227 31.3804 113.755 28.2944 113.786 25.4528C113.847 22.5196 112.197 19.2502 108.133 19.2502C104.039 19.2502 102.358 22.5501 102.45 25.4833Z" fill="white"/>
<path d="M139.753 34.0087H135.873L130.831 28.2034H127.684V34.0087H124.415V16.5927C127.165 16.5927 129.915 16.6233 132.665 16.6233C136.759 16.6538 138.898 19.3732 138.898 22.3981C138.898 24.7813 137.798 27.1951 134.528 27.8673L139.784 33.7949V34.0087H139.753ZM127.654 19.6787V25.2396H132.634C134.712 25.2396 135.598 23.8341 135.598 22.4592C135.598 21.0537 134.681 19.6787 132.634 19.6787H127.654Z" fill="white"/>
<path d="M158.946 34.0066H145.991V16.6212H158.946V19.7988H149.23V23.8014H158.61V26.8569H149.23V30.7679H158.946V34.0066Z" fill="white"/>
<path d="M171.931 19.5849H166.432V16.6212H180.67V19.5849H175.201V34.0066H171.931V19.5849Z" fill="white"/>
<path d="M192.099 19.5849H186.599V16.6212H200.868V19.5849H195.369V34.0066H192.099V19.5849Z" fill="white"/>
<path d="M14.2347 12.6201L11.3015 9.41184L0.11853 30.4333L9.68207 31.5638L17.7179 16.4088L14.2347 12.6201Z" fill="white"/>
<path d="M0 31.1361L4.91926 54.4491L13.1384 49.0715L9.59409 32.2666L0 31.1361Z" fill="white"/>
<path d="M33.8831 0.0308228L11.8228 8.92216L14.6338 12.0082L18.2392 15.9497L34.1275 9.53325L33.8831 0.0308228Z" fill="white"/>
<path d="M18.2429 15.9499L14.6375 12.0084L18.2429 15.9499Z" fill="white"/>
<path d="M57.2013 7.39417L34.5911 0L34.6216 1.37495L34.8661 9.50243L51.1516 14.8189L57.2013 7.39417Z" fill="white"/>
<path d="M34.8617 9.50242L34.6173 1.37494L34.8617 9.50242Z" fill="white"/>
<path d="M48.4578 69.175L44.7607 59.8865L27.6502 60.467L25.7558 66.5168L24.6864 70L48.4578 69.175Z" fill="white"/>
<path d="M13.5078 49.6494L5.2887 55.0576L24.0186 69.7542L24.9046 66.9432L26.9823 60.2213L13.5078 49.6494Z" fill="white"/>
<path d="M53.5024 21.478L60.0411 32.0193L64.2882 31.2249L66.8547 30.736L57.7801 16.1616L53.5024 21.478Z" fill="white"/>
<path d="M48.8835 53.9295L51.5418 60.5598L64.283 49.0713L60.8303 47.1464L58.111 45.6187L48.8835 53.9295Z" fill="white"/>
<path d="M58.446 45.0047L64.5875 48.4268L67.0013 31.4386L64.7097 31.8663L60.1876 32.6913L58.446 45.0047Z" fill="white"/>
<path d="M58.446 45.0059L64.5875 48.428L58.446 45.0059Z" fill="white"/>
</svg>
