<svg width="411" height="70" viewBox="0 0 411 70" fill="none" xmlns="http://www.w3.org/2000/svg">
<path d="M50.7494 48.9781C50.7189 49.0698 50.7494 49.1309 50.8105 49.192L50.8716 49.2531C50.9633 49.3448 51.1161 49.3753 51.2077 49.2837L51.7577 48.7642C51.8494 48.6726 51.8494 48.5198 51.7577 48.3976L50.5661 47.3282C50.505 47.2671 50.4133 47.2365 50.3217 47.2671L48.1828 47.9698C48.0912 48.0004 47.9995 47.9698 47.9384 47.9087L46.5635 46.5949C46.5024 46.5338 46.4718 46.4727 46.5024 46.381L47.0218 43.3867C47.0523 43.2644 46.9607 43.1117 46.8079 43.1117L44.5774 42.8672C44.058 42.8061 43.5386 42.7756 43.0497 42.6839C42.8358 42.6534 42.347 42.5006 42.5608 42.195C42.6219 42.1339 42.683 42.0728 42.7442 42.0423C42.8664 41.9812 43.0191 41.8895 43.0497 41.7367L43.1414 40.8506C43.1414 40.759 43.0803 40.6368 42.9886 40.6062C42.8664 40.5451 42.7747 40.6368 42.6525 40.6979C42.2858 40.9117 41.9192 40.9729 41.4914 41.0034L41.7359 39.9951L43.2636 39.8729C43.3552 39.8729 43.4469 39.8118 43.4775 39.7201L44.7608 36.2369C44.8219 36.0536 44.6691 35.8703 44.4858 35.9314L41.6136 36.6952C41.5525 36.7258 41.4914 36.7563 41.4609 36.8175L40.1165 39.4146C40.0859 39.4757 40.0248 39.5062 39.9637 39.5368L37.5194 40.209C37.4277 40.2396 37.336 40.209 37.2749 40.1479L33.8834 36.2369C33.8528 36.2064 33.8223 36.1453 33.8223 36.0841V31.8676C33.8223 31.776 33.7612 31.6843 33.6695 31.6538L32.2945 31.1038C32.264 31.0732 32.2334 31.0427 32.1723 31.0121L30.0335 27.6817C29.9724 27.59 29.8502 27.5289 29.728 27.59L28.7197 28.0483C28.628 28.0789 28.5363 28.0789 28.4447 28.0178L25.4198 25.1457C25.3587 25.1151 25.2976 25.0846 25.2365 25.0846C25.0531 25.0846 24.9004 25.0846 24.717 25.1151C24.3198 25.1151 23.9226 25.1457 23.5254 25.1457C23.0671 25.1457 22.6393 25.1762 22.181 25.1762C21.8449 25.1762 21.5394 25.1762 21.2033 25.2068C20.9588 25.2068 20.7755 25.054 20.5922 24.9318C20.3172 24.7485 20.0117 24.5651 19.7367 24.3818C19.4006 24.1679 19.0339 23.954 18.6978 23.7096C18.3923 23.5263 18.0867 23.3124 17.7812 23.1291C17.5979 23.0068 17.4451 22.9152 17.2618 22.793C17.2618 22.793 17.2312 22.793 17.2312 22.7624C17.1395 22.7013 17.0479 22.7013 16.9562 22.7624L15.9174 23.4652C15.8257 23.5263 15.7951 23.679 15.8563 23.7707L21.3866 34.2203C21.4477 34.3425 21.6005 34.3731 21.7227 34.312L22.3643 33.9759C22.4866 33.9148 22.5171 33.762 22.456 33.6398L18.3312 26.0012C18.3006 25.9401 18.3312 25.9095 18.3617 25.879L18.6062 25.7568C18.6367 25.7568 18.6978 25.7262 18.7284 25.7873L25.9698 36.298C26.0309 36.4202 26.0309 36.5425 25.9087 36.6341L24.8087 37.4285C24.6559 37.5202 24.6865 37.7646 24.8393 37.8258L34.8611 42.9283C34.9222 42.9589 34.9833 42.9589 35.0444 42.9283L36.9388 42.195C36.9999 42.1645 37.0916 42.1645 37.1527 42.2256L40.0554 43.9672C40.0859 43.9672 40.1165 43.9977 40.1165 43.9977C40.6665 44.12 41.247 44.2422 41.797 44.3644C42.1331 44.4255 42.4386 44.5172 42.7747 44.5783C43.0191 44.6394 43.2636 44.6394 43.4469 44.8533C43.5691 44.9755 43.6913 45.1283 43.8136 45.2505L44.6385 46.1366L44.7302 46.2588C44.7607 46.3199 44.7913 46.381 44.7913 46.4421L44.7608 47.0837C44.7608 47.206 44.8219 47.2976 44.9441 47.3282L45.6774 47.5115C45.7079 47.5421 45.769 47.5726 45.7996 47.5726L46.5329 48.367C46.5635 48.3976 46.5635 48.3976 46.594 48.4281L47.0218 48.642C47.0523 48.642 47.0523 48.6726 47.0829 48.6726L49.13 49.1614C49.2217 49.192 49.2828 49.1614 49.3439 49.1003L50.0772 48.367C50.1689 48.2754 50.3217 48.2754 50.4133 48.367L50.6578 48.6115C50.7189 48.6726 50.7494 48.7642 50.7189 48.8559L50.7494 48.9781Z" fill="white"/>
<path d="M53.5944 43.203L53.6249 43.1419C53.686 43.0197 53.6555 42.8669 53.5333 42.8058L51.4556 41.7364C51.3333 41.6753 51.15 41.7364 51.1195 41.8891L50.8139 43.1724C50.7834 43.2335 50.8139 43.3252 50.8445 43.3863L50.9667 43.5391C51.0584 43.6613 51.2417 43.6613 51.3334 43.5391L51.5167 43.2946C51.5778 43.2335 51.6389 43.203 51.7306 43.203L53.3805 43.3252C53.4722 43.3252 53.5638 43.2641 53.5944 43.203Z" fill="white"/>
<path d="M80.7842 48.3691C80.4175 48.7358 79.9592 48.8885 79.4398 48.8885C78.1259 48.8885 77.576 47.9719 77.5454 47.0553C77.5454 46.1386 78.1565 45.1914 79.4398 45.1914C79.9287 45.1914 80.387 45.3748 80.7536 45.7414L80.2953 46.1692C80.0509 45.9553 79.7453 45.8331 79.4398 45.8331C78.5843 45.8331 78.2176 46.4747 78.2176 47.0553C78.2176 47.6358 78.5537 48.2469 79.4398 48.2469C79.7453 48.2469 80.112 48.1247 80.3259 47.8802L80.7842 48.3691Z" fill="white"/>
<path d="M85.643 47.0553C85.643 47.9719 85.0624 48.8885 83.8097 48.8885C82.557 48.8885 81.9764 48.0024 81.9764 47.0553C81.9764 46.1081 82.5875 45.1914 83.8097 45.1914C85.0624 45.1914 85.6735 46.1386 85.643 47.0553ZM82.6792 47.0858C82.7098 47.6663 83.0153 48.308 83.8403 48.308C84.6652 48.308 85.0013 47.6663 85.0013 47.0858C85.0013 46.4747 84.6652 45.8025 83.8403 45.8025C82.9847 45.8025 82.6486 46.4747 82.6792 47.0858Z" fill="white"/>
<path d="M89.6782 48.1557H87.8144L87.5088 48.8279H86.7755L88.3643 45.2531H89.0977L90.6865 48.8279H89.9532L89.6782 48.1557ZM88.7616 46.0169L88.0893 47.5446H89.4032L88.7616 46.0169Z" fill="white"/>
<path d="M92.7285 45.2531V48.1863H94.5617V48.8279H92.0563V45.2531H92.7285Z" fill="white"/>
<path d="M96.7347 45.2531H96.0625V48.8279H96.7347V45.2531Z" fill="white"/>
<path d="M101.5 48.3691C101.133 48.7358 100.675 48.8885 100.156 48.8885C98.8418 48.8885 98.2918 47.9719 98.2612 47.0553C98.2612 46.1386 98.8723 45.1914 100.156 45.1914C100.644 45.1914 101.103 45.3748 101.469 45.7414L101.011 46.1692C100.767 45.9553 100.461 45.8331 100.156 45.8331C99.3001 45.8331 98.9334 46.4747 98.9334 47.0553C98.9334 47.6358 99.2695 48.2469 100.156 48.2469C100.461 48.2469 100.828 48.1247 101.042 47.8802L101.5 48.3691Z" fill="white"/>
<path d="M103.578 45.2531H102.906V48.8279H103.578V45.2531Z" fill="white"/>
<path d="M106.969 45.1887C108.191 45.1887 108.802 46.1359 108.802 47.0525C108.802 47.9692 108.221 48.8858 106.969 48.8858C105.716 48.8858 105.135 47.9997 105.135 47.0525C105.135 46.1359 105.747 45.1887 106.969 45.1887ZM106.969 45.7998C106.144 45.7998 105.777 46.472 105.808 47.0831C105.838 47.6636 106.144 48.3053 106.969 48.3053C107.794 48.3053 108.13 47.6636 108.13 47.0831C108.13 46.472 107.794 45.7998 106.969 45.7998ZM107.794 44.1499H107.06L106.694 44.8526V44.8832H107.244L107.794 44.1499Z" fill="white"/>
<path d="M112.628 45.2531H113.301V48.8279H112.903L111.009 46.4141V48.8279H110.367V45.2531H110.887L112.628 47.453V45.2531Z" fill="white"/>
<path d="M120.109 48.8279H119.314L118.275 47.6363H117.634V48.8279H116.962V45.2531C117.512 45.2531 118.092 45.2531 118.642 45.2531C119.467 45.2531 119.925 45.803 119.925 46.4447C119.925 46.9336 119.711 47.4224 119.039 47.5752L120.109 48.7974V48.8279ZM117.634 45.8947V47.0252H118.642C119.07 47.0252 119.253 46.7502 119.253 46.4447C119.253 46.1697 119.07 45.8642 118.642 45.8642H117.634V45.8947Z" fill="white"/>
<path d="M124.051 48.8279H121.393V45.2531H124.051V45.8947H122.065V46.7197H123.99V47.3613H122.065V48.1557H124.051V48.8279Z" fill="white"/>
<path d="M128.21 46.1368C127.966 45.9229 127.63 45.7702 127.294 45.7702C126.53 45.7702 126.071 46.3507 126.071 47.084C126.071 47.6645 126.407 48.2756 127.294 48.2756C127.568 48.2756 127.813 48.2145 128.088 48.0006V47.359H127.171V46.7479H128.699V48.2451C128.363 48.6423 127.905 48.8867 127.294 48.8867C125.949 48.8867 125.43 48.0006 125.43 47.084C125.43 46.0757 126.041 45.1591 127.294 45.1591C127.782 45.1591 128.241 45.3424 128.607 45.7091L128.21 46.1368Z" fill="white"/>
<path d="M130.958 45.2531H130.286V48.8279H130.958V45.2531Z" fill="white"/>
<path d="M136.182 47.0553C136.182 47.9719 135.601 48.8885 134.348 48.8885C133.096 48.8885 132.515 48.0024 132.515 47.0553C132.515 46.1081 133.126 45.1914 134.348 45.1914C135.601 45.1914 136.212 46.1386 136.182 47.0553ZM133.218 47.0858C133.248 47.6663 133.554 48.308 134.379 48.308C135.204 48.308 135.54 47.6663 135.54 47.0858C135.54 46.4747 135.204 45.8025 134.379 45.8025C133.554 45.8025 133.187 46.4747 133.218 47.0858Z" fill="white"/>
<path d="M140.034 45.2531H140.706V48.8279H140.278L138.414 46.4141V48.8279H137.742V45.2531H138.292L140.034 47.453V45.2531Z" fill="white"/>
<path d="M144.862 48.1557H142.998L142.693 48.8279H141.959L143.548 45.2531H144.281L145.87 48.8279H145.137L144.862 48.1557ZM143.915 46.0169L143.243 47.5446H144.556L143.915 46.0169Z" fill="white"/>
<path d="M147.912 45.2531V48.1863H149.745V48.8279H147.24V45.2531H147.912Z" fill="white"/>
<path d="M156.377 48.3691C156.011 48.7358 155.552 48.8885 155.033 48.8885C153.719 48.8885 153.169 47.9719 153.138 47.0553C153.138 46.1386 153.75 45.1914 155.033 45.1914C155.522 45.1914 155.98 45.3748 156.347 45.7414L155.888 46.1692C155.644 45.9553 155.338 45.8331 155.033 45.8331C154.177 45.8331 153.811 46.4747 153.811 47.0553C153.811 47.6358 154.147 48.2469 155.033 48.2469C155.338 48.2469 155.705 48.1247 155.919 47.8802L156.377 48.3691Z" fill="white"/>
<path d="M161.262 47.0553C161.262 47.9719 160.681 48.8885 159.429 48.8885C158.176 48.8885 157.595 48.0024 157.595 47.0553C157.595 46.1081 158.207 45.1914 159.429 45.1914C160.651 45.1914 161.262 46.1386 161.262 47.0553ZM158.268 47.0858C158.298 47.6663 158.604 48.308 159.429 48.308C160.254 48.308 160.59 47.6663 160.59 47.0858C160.59 46.4747 160.254 45.8025 159.429 45.8025C158.604 45.8025 158.268 46.4747 158.268 47.0858Z" fill="white"/>
<path d="M165.119 45.2531H165.761V48.8279H165.363L163.5 46.4141V48.8279H162.827V45.2531H163.377L165.119 47.453V45.2531Z" fill="white"/>
<path d="M168.324 45.8642H167.194V45.2531H170.097V45.8642H168.997V48.8279H168.324V45.8642Z" fill="white"/>
<path d="M174.68 48.8279H173.885L172.846 47.6363H172.205V48.8279H171.533V45.2531C172.083 45.2531 172.663 45.2531 173.213 45.2531C174.038 45.2531 174.496 45.803 174.496 46.4447C174.496 46.9336 174.282 47.4224 173.61 47.5752L174.68 48.7974V48.8279ZM172.205 45.8947V47.0252H173.213C173.641 47.0252 173.824 46.7502 173.824 46.4447C173.824 46.1697 173.641 45.8642 173.213 45.8642H172.205V45.8947Z" fill="white"/>
<path d="M178.503 48.1557H176.639L176.334 48.8279H175.6L177.189 45.2531H177.922L179.511 48.8279H178.778L178.503 48.1557ZM177.556 46.0169L176.884 47.5446H178.197L177.556 46.0169Z" fill="white"/>
<path d="M78.3099 51.3616V54.2948H80.1432V54.9059H77.6377V51.3616H78.3099Z" fill="white"/>
<path d="M84.1481 54.2334H82.2843L81.9787 54.9056H81.276L82.8648 51.3307H83.5981L85.187 54.9056H84.4537L84.1481 54.2334ZM83.2315 52.0946L82.5593 53.6223H83.8731L83.2315 52.0946Z" fill="white"/>
<path d="M89.3993 51.9726H88.2688V51.3616H91.1715V51.9726H90.0715V54.9059H89.3993V51.9726Z" fill="white"/>
<path d="M95.7594 54.9056H94.965L93.9261 53.714H93.2845V54.9056H92.6123V51.3307C93.1623 51.3307 93.7428 51.3307 94.2928 51.3307C95.1178 51.3307 95.5761 51.8807 95.5761 52.5224C95.5761 53.0112 95.3622 53.5001 94.69 53.6529L95.7594 54.8751V54.9056ZM93.2845 51.9724V53.1029H94.2928C94.7206 53.1029 94.9039 52.8279 94.9039 52.5224C94.9039 52.2474 94.7206 51.9418 94.2928 51.9418H93.2845V51.9724Z" fill="white"/>
<path d="M99.578 54.2334H97.7141L97.4086 54.9056H96.6753L98.2641 51.3307H98.9974L100.586 54.9056H99.853L99.578 54.2334ZM98.6308 52.0946L97.9586 53.6223H99.2724L98.6308 52.0946Z" fill="white"/>
<path d="M102.237 51.9726H101.106V51.3616H104.04V51.9726H102.909V54.9059H102.237V51.9726Z" fill="white"/>
<path d="M107.977 54.2334H106.113L105.808 54.9056H105.105L106.694 51.3307H107.427L109.016 54.9056H108.283L107.977 54.2334ZM107.06 52.0946L106.388 53.6223H107.702L107.06 52.0946Z" fill="white"/>
<path d="M115.433 53.1029C115.463 53.989 114.913 54.9056 113.66 54.9056H112.255V51.3307H113.66C114.883 51.3613 115.402 52.2168 115.433 53.1029ZM112.927 54.264H113.66C114.455 54.264 114.791 53.6834 114.76 53.1029C114.73 52.5529 114.424 52.0029 113.66 52.0029H112.927V54.264Z" fill="white"/>
<path d="M119.532 54.9059H116.874V51.3616H119.532V52.0032H117.546V52.8282H119.471V53.4393H117.546V54.2642H119.532V54.9059Z" fill="white"/>
<path d="M124.785 53.8668H123.777V54.9056H123.105V51.3307C123.655 51.3307 124.205 51.3307 124.785 51.3307C126.496 51.3613 126.496 53.8668 124.785 53.8668ZM123.777 53.2557H124.785C125.641 53.2557 125.641 52.0029 124.785 52.0029H123.777V53.2557Z" fill="white"/>
<path d="M130.194 54.9059H127.536V51.3616H130.194V52.0032H128.208V52.8282H130.102V53.4393H128.208V54.2642H130.194V54.9059Z" fill="white"/>
<path d="M134.869 54.9056H134.075L133.036 53.714H132.394V54.9056H131.722V51.3307C132.272 51.3307 132.853 51.3307 133.403 51.3307C134.228 51.3307 134.686 51.8807 134.686 52.5224C134.686 53.0112 134.472 53.5001 133.8 53.6529L134.869 54.8751V54.9056ZM132.394 51.9724V53.1029H133.403C133.83 53.1029 134.014 52.8279 134.014 52.5224C134.014 52.2474 133.83 51.9418 133.403 51.9418H132.394V51.9724Z" fill="white"/>
<path d="M138.505 52.2184C138.383 52.0045 138.047 51.8212 137.65 51.8212C137.161 51.8212 136.917 52.0351 136.917 52.2795C136.917 52.585 137.283 52.6767 137.711 52.7378C138.444 52.8295 139.147 53.0128 139.147 53.8683C139.147 54.6627 138.444 54.9988 137.65 54.9988C136.917 54.9988 136.367 54.785 136.092 54.1128L136.642 53.8378C136.794 54.235 137.222 54.3878 137.65 54.3878C138.078 54.3878 138.475 54.235 138.475 53.8683C138.475 53.5322 138.139 53.41 137.65 53.3489C136.917 53.2572 136.244 53.0739 136.244 52.2795C136.244 51.5462 136.978 51.2406 137.619 51.2406C138.169 51.2406 138.75 51.3934 139.025 51.9434L138.505 52.2184Z" fill="white"/>
<path d="M144.158 53.1644C144.158 54.0811 143.578 54.9977 142.325 54.9977C141.072 54.9977 140.492 54.1116 140.492 53.1644C140.492 52.2173 141.103 51.3006 142.325 51.3006C143.578 51.2701 144.189 52.2173 144.158 53.1644ZM141.164 53.1644C141.164 53.745 141.5 54.3866 142.325 54.3866C143.15 54.3866 143.486 53.745 143.486 53.1644C143.486 52.5533 143.15 51.8812 142.325 51.8812C141.5 51.8812 141.164 52.5839 141.164 53.1644Z" fill="white"/>
<path d="M148.007 51.3616H148.68V54.9059H148.252V54.9364L146.388 52.5226V54.9059H145.716V51.3616H146.266L148.007 53.5615V51.3616Z" fill="white"/>
<path d="M152.805 54.2334H150.941L150.635 54.9056H149.902L151.491 51.3307H152.224L153.813 54.9056H153.08L152.805 54.2334ZM151.888 52.0946L151.216 53.6223H152.53L151.888 52.0946Z" fill="white"/>
<path d="M157.291 52.2184C157.168 52.0045 156.832 51.8212 156.435 51.8212C155.946 51.8212 155.702 52.0351 155.702 52.2795C155.702 52.585 156.068 52.6767 156.496 52.7378C157.229 52.8295 157.932 53.0128 157.932 53.8683C157.932 54.6627 157.229 54.9988 156.435 54.9988C155.702 54.9988 155.152 54.785 154.877 54.1128L155.427 53.8378C155.579 54.235 156.007 54.3878 156.435 54.3878C156.863 54.3878 157.26 54.235 157.26 53.8683C157.26 53.5322 156.924 53.41 156.435 53.3489C155.702 53.2572 155.029 53.0739 155.029 52.2795C155.029 51.5462 155.763 51.2406 156.404 51.2406C156.954 51.2406 157.535 51.3934 157.81 51.9434L157.291 52.2184Z" fill="white"/>
<path d="M79.1381 58.9405L80.0853 57.4739H80.8797V57.5045L79.4742 59.5516V61.0182H78.802V59.5516L77.4576 57.5045V57.4739H78.2521L79.1381 58.9405Z" fill="white"/>
<path d="M86.8948 61.0182H84.2366V57.4739H86.8948V58.1156H84.8782V58.9405H86.8031V59.5516H84.8782V60.346H86.8948V61.0182Z" fill="white"/>
<path d="M89.0982 57.4739V60.4071H90.9009V61.0182H88.426V57.4739H89.0982Z" fill="white"/>
<path d="M95.3626 58.085H94.2321V57.4739H97.1347V58.085H96.0348V61.0182H95.3626V58.085Z" fill="white"/>
<path d="M101.715 61.018H100.92L99.8813 59.8264H99.2397V61.018H98.5675V57.4431C99.1175 57.4431 99.698 57.4431 100.248 57.4431C101.073 57.4431 101.531 57.9931 101.531 58.6347C101.531 59.1236 101.317 59.6125 100.645 59.7653L101.715 60.9874V61.018ZM99.2397 58.0848V59.2153H100.248C100.676 59.2153 100.859 58.9403 100.859 58.6347C100.859 58.3597 100.676 58.0542 100.248 58.0542H99.2397V58.0848Z" fill="white"/>
<path d="M105.502 60.3467H103.639L103.333 61.0189H102.6L104.189 57.444H104.922L106.511 61.0189H105.777L105.502 60.3467ZM105.258 59.7356L104.586 58.2079L103.914 59.7356H105.258ZM105.411 56.3746H104.677L104.311 57.0774V57.1079H104.861L105.411 56.3746Z" fill="white"/>
<path d="M107.793 61.0182V57.4739H110.36V58.1156H108.465V59.0933H110.268V59.7044H108.465V61.0182H107.793Z" fill="white"/>
<path d="M112.564 57.4739H111.892V61.0488H112.564V57.4739Z" fill="white"/>
<path d="M117.332 60.5576C116.966 60.9243 116.507 61.077 115.988 61.077C114.674 61.077 114.124 60.1604 114.093 59.2438C114.093 58.3271 114.704 57.38 115.988 57.38C116.477 57.38 116.935 57.5633 117.302 57.9299L116.843 58.3577C116.599 58.1438 116.293 58.0216 115.988 58.0216C115.132 58.0216 114.766 58.6632 114.766 59.2438C114.766 59.8243 115.102 60.4354 115.988 60.4354C116.293 60.4354 116.66 60.3132 116.874 60.0688L117.332 60.5576Z" fill="white"/>
<path d="M122.183 59.2438C122.183 60.1604 121.602 61.077 120.35 61.077C119.097 61.077 118.516 60.191 118.516 59.2438C118.516 58.2966 119.128 57.38 120.35 57.38C121.602 57.38 122.214 58.3271 122.183 59.2438ZM119.219 59.2743C119.219 59.8549 119.555 60.4965 120.38 60.4965C121.205 60.4965 121.541 59.8549 121.541 59.2743C121.541 58.6632 121.205 57.991 120.38 57.991C119.555 57.991 119.189 58.6632 119.219 59.2743Z" fill="white"/>
<path d="M126.431 57.4739H125.759V61.0488H126.431V57.4739Z" fill="white"/>
<path d="M128.725 57.4739V60.4071H130.559V61.0182H128.053V57.4739H128.725Z" fill="white"/>
<path d="M132.029 57.4749H132.701V61.0497H132.029V57.4749ZM133.19 56.4055H132.456L132.09 57.1082V57.1388H132.64L133.19 56.4055Z" fill="white"/>
<path d="M137.461 60.5576C137.095 60.9243 136.636 61.077 136.117 61.077C134.803 61.077 134.253 60.1604 134.222 59.2438C134.222 58.3271 134.834 57.38 136.117 57.38C136.606 57.38 137.064 57.5633 137.431 57.9299L136.972 58.3577C136.728 58.1438 136.422 58.0216 136.117 58.0216C135.261 58.0216 134.895 58.6632 134.895 59.2438C134.895 59.8243 135.231 60.4354 136.117 60.4354C136.422 60.4354 136.789 60.3132 137.003 60.0688L137.461 60.5576Z" fill="white"/>
<path d="M139.545 57.4739H138.872V61.0488H139.545V57.4739Z" fill="white"/>
<path d="M142.258 58.085H141.128V57.4739H144.061V58.085H142.93V61.0182H142.258V58.085Z" fill="white"/>
<path d="M148.95 59.2438C148.95 60.1604 148.369 61.077 147.116 61.077C145.864 61.077 145.283 60.191 145.283 59.2438C145.283 58.2966 145.894 57.38 147.116 57.38C148.369 57.38 148.98 58.3271 148.95 59.2438ZM145.986 59.2743C146.017 59.8549 146.322 60.4965 147.147 60.4965C147.972 60.4965 148.308 59.8549 148.308 59.2743C148.308 58.6632 147.972 57.991 147.147 57.991C146.292 57.991 145.955 58.6632 145.986 59.2743Z" fill="white"/>
<path d="M155.611 59.2153C155.611 60.1014 155.092 61.018 153.839 61.018H152.464V57.4431H153.87C155.061 57.4737 155.611 58.3292 155.611 59.2153ZM153.136 60.3763H153.87C154.664 60.3763 155 59.7958 154.97 59.2153C154.939 58.6653 154.633 58.1153 153.87 58.1153H153.136V60.3763Z" fill="white"/>
<path d="M159.741 61.0182H157.083V57.4739H159.741V58.1156H157.725V58.9405H159.65V59.5516H157.725V60.346H159.741V61.0182Z" fill="white"/>
<path d="M166.4 58.4517L165.239 59.9794H165.117L163.986 58.4517V61.0182H163.314V57.4739H164.078L165.178 59.0016L166.308 57.4739H167.072V61.0182H166.4V58.4517Z" fill="white"/>
<path d="M169.367 57.4739H168.695V61.0488H169.367V57.4739Z" fill="white"/>
<path d="M173.643 58.3269C173.399 58.0824 173.063 57.9602 172.727 57.9602C171.963 57.9602 171.504 58.5407 171.504 59.2741C171.504 59.8546 171.841 60.4657 172.727 60.4657C173.002 60.4657 173.246 60.4046 173.521 60.1907V59.549H172.604V58.938H174.132V60.4351C173.796 60.8323 173.338 61.0768 172.727 61.0768C171.382 61.0768 170.863 60.1907 170.863 59.2741C170.863 58.2658 171.474 57.3491 172.727 57.3491C173.215 57.3491 173.674 57.5324 174.04 57.8991L173.643 58.3269Z" fill="white"/>
<path d="M178.805 61.018H178.01L176.971 59.8264H176.33V61.018H175.688V57.4431C176.238 57.4431 176.819 57.4431 177.368 57.4431C178.193 57.4431 178.652 57.9931 178.652 58.6347C178.652 59.1236 178.438 59.6125 177.766 59.7653L178.835 60.9874V61.018H178.805ZM176.36 58.0848V59.2153H177.368C177.796 59.2153 177.98 58.9403 177.98 58.6347C177.98 58.3597 177.796 58.0542 177.368 58.0542H176.36V58.0848Z" fill="white"/>
<path d="M182.628 60.3458H180.764L180.458 61.018H179.725L181.314 57.4431H182.047L183.636 61.018H182.903L182.628 60.3458ZM181.711 58.207L181.039 59.7347H182.353L181.711 58.207Z" fill="white"/>
<path d="M187.298 57.4431H187.97V61.018H187.573L185.678 58.6347V61.018H185.037V57.4737H185.556L187.298 59.6736V57.4431Z" fill="white"/>
<path d="M190.506 58.085H189.406V57.4739H192.309V58.085H191.178V61.0182H190.506V58.085Z" fill="white"/>
<path d="M196.377 61.0182H193.719V57.4739H196.377V58.1156H194.391V58.9405H196.316V59.5516H194.391V60.346H196.377V61.0182Z" fill="white"/>
<path d="M200.196 58.3269C200.073 58.113 199.737 57.9297 199.34 57.9297C198.851 57.9297 198.607 58.1435 198.607 58.388C198.607 58.6935 198.973 58.7852 199.401 58.8463C200.134 58.938 200.837 59.1213 200.837 59.9768C200.837 60.7712 200.134 61.1073 199.34 61.1073C198.607 61.1073 198.057 60.8934 197.782 60.2212L198.332 59.9462C198.484 60.3435 198.912 60.4962 199.34 60.4962C199.768 60.4962 200.165 60.3435 200.165 59.9768C200.165 59.6407 199.829 59.5185 199.34 59.4574C198.607 59.3657 197.935 59.1824 197.935 58.388C197.935 57.6547 198.668 57.3491 199.309 57.3491C199.859 57.3491 200.44 57.5019 200.715 58.0519L200.196 58.3269Z" fill="white"/>
<path d="M93.224 31.808C91.4518 33.5801 89.1297 34.4051 86.6548 34.4051C80.2078 34.4051 77.4884 29.9747 77.4579 25.4526C77.4273 20.9 80.3911 16.2863 86.6548 16.2863C89.0075 16.2863 91.2379 17.1724 93.0101 18.9445L90.8407 21.0528C89.7102 19.9223 88.1825 19.4029 86.6548 19.4029C82.4688 19.4029 80.6661 22.5194 80.6966 25.4221C80.7272 28.2942 82.3771 31.3191 86.6548 31.3191C88.1519 31.3191 89.863 30.708 91.024 29.5469L93.224 31.808Z" fill="white"/>
<path d="M117.024 25.4222C116.963 29.9137 114.213 34.4052 108.133 34.4052C102.053 34.4052 99.2112 30.0054 99.2112 25.4528C99.2112 20.8696 102.144 16.2865 108.133 16.2865C114.091 16.2559 117.086 20.8696 117.024 25.4222ZM102.45 25.4833C102.511 28.3249 104.069 31.3804 108.133 31.3804C112.227 31.3804 113.755 28.2944 113.786 25.4528C113.847 22.5196 112.197 19.2502 108.133 19.2502C104.039 19.2502 102.358 22.5501 102.45 25.4833Z" fill="white"/>
<path d="M139.753 34.0087H135.873L130.831 28.2034H127.684V34.0087H124.415V16.5927C127.165 16.5927 129.915 16.6233 132.665 16.6233C136.759 16.6538 138.898 19.3732 138.898 22.3981C138.898 24.7813 137.798 27.1951 134.528 27.8673L139.784 33.7949V34.0087H139.753ZM127.654 19.6787V25.2396H132.634C134.712 25.2396 135.598 23.8341 135.598 22.4592C135.598 21.0537 134.681 19.6787 132.634 19.6787H127.654Z" fill="white"/>
<path d="M158.946 34.0066H145.991V16.6212H158.946V19.7988H149.23V23.8014H158.61V26.8569H149.23V30.7679H158.946V34.0066Z" fill="white"/>
<path d="M171.931 19.5849H166.432V16.6212H180.67V19.5849H175.201V34.0066H171.931V19.5849Z" fill="white"/>
<path d="M192.099 19.5849H186.599V16.6212H200.868V19.5849H195.369V34.0066H192.099V19.5849Z" fill="white"/>
<path d="M14.2347 12.6201L11.3015 9.41184L0.11853 30.4333L9.68207 31.5638L17.7179 16.4088L14.2347 12.6201Z" fill="white"/>
<path d="M0 31.1361L4.91926 54.4491L13.1384 49.0715L9.59409 32.2666L0 31.1361Z" fill="white"/>
<path d="M33.8831 0.0308228L11.8228 8.92216L14.6338 12.0082L18.2392 15.9497L34.1275 9.53325L33.8831 0.0308228Z" fill="white"/>
<path d="M18.2429 15.9499L14.6375 12.0084L18.2429 15.9499Z" fill="white"/>
<path d="M57.2013 7.39417L34.5911 0L34.6216 1.37495L34.8661 9.50243L51.1516 14.8189L57.2013 7.39417Z" fill="white"/>
<path d="M34.8617 9.50242L34.6173 1.37494L34.8617 9.50242Z" fill="white"/>
<path d="M48.4578 69.175L44.7607 59.8865L27.6502 60.467L25.7558 66.5168L24.6864 70L48.4578 69.175Z" fill="white"/>
<path d="M13.5078 49.6494L5.2887 55.0576L24.0186 69.7542L24.9046 66.9432L26.9823 60.2213L13.5078 49.6494Z" fill="white"/>
<path d="M53.5024 21.478L60.0411 32.0193L64.2882 31.2249L66.8547 30.736L57.7801 16.1616L53.5024 21.478Z" fill="white"/>
<path d="M48.8835 53.9295L51.5418 60.5598L64.283 49.0713L60.8303 47.1464L58.111 45.6187L48.8835 53.9295Z" fill="white"/>
<path d="M58.446 45.0047L64.5875 48.4268L67.0013 31.4386L64.7097 31.8663L60.1876 32.6913L58.446 45.0047Z" fill="white"/>
<path d="M58.446 45.0059L64.5875 48.428L58.446 45.0059Z" fill="white"/>
<path d="M367.967 40.3001C367.967 32.6004 362.04 25.6035 352.476 25.6035C342.668 25.6035 337.107 32.8143 337.107 40.4224C337.107 48.4276 343.249 55.0579 352.262 55.0579C361.643 55.0579 367.967 48.5498 367.967 40.3001ZM341.354 40.4224C341.354 35.6253 344.593 29.4839 352.629 29.4839C360.115 29.4839 363.751 35.5031 363.751 40.2696C363.751 42.7445 362.712 45.861 360.879 47.8471C358.893 49.9859 355.562 51.2692 352.507 51.2692C346.488 51.2386 341.354 46.961 341.354 40.4224Z" fill="white"/>
<path d="M376.884 25.9999H372.759V54.6905H376.884V25.9999Z" fill="white"/>
<path d="M397.726 43.4465L406.556 32.3552V54.6905H410.681V25.9999H406.862L397.329 37.7633L387.796 25.9999H383.916V54.6905H388.04V32.3552L396.962 43.4465H397.726Z" fill="white"/>
<path d="M298.635 60.0105C295.366 60.0105 293.502 62.4243 293.502 64.9603C293.502 67.6186 295.549 69.8491 298.543 69.8491C301.66 69.8491 303.768 67.6797 303.768 64.9298C303.799 62.3327 301.813 60.0105 298.635 60.0105ZM301.446 67.4352C300.774 68.138 299.674 68.5658 298.666 68.5658C296.649 68.5658 294.938 67.1297 294.938 64.9603C294.938 63.3715 296.007 61.3244 298.696 61.3244C301.202 61.3244 302.393 63.341 302.393 64.9298C302.393 65.7242 302.057 66.7631 301.446 67.4352Z" fill="white"/>
<path d="M313.212 67.5538L306.765 60.129H305.665V69.6926H306.948V62.3289L313.334 69.6926H314.526V60.129H313.212V67.5538Z" fill="white"/>
<path d="M323.815 65.5677C323.815 66.5149 323.723 67.0038 323.54 67.3399C323.295 67.7982 322.623 68.5926 321.065 68.5926C319.965 68.5926 319.323 68.226 318.926 67.7982C318.437 67.3093 318.315 66.8205 318.315 65.5677V60.129H316.94V65.5677C316.94 66.2094 316.94 67.3093 317.459 68.1648C318.223 69.3565 319.69 69.8453 321.065 69.8453C322.165 69.8453 323.234 69.5703 324.09 68.8065C325.159 67.8287 325.159 66.5149 325.159 65.5677V60.129H323.784V65.5677H323.815Z" fill="white"/>
<path d="M336.066 64.0705L332.857 60.129H331.574V69.6926H332.949V62.2678L335.913 65.9649H336.188L339.121 62.2678V69.6926H340.496V60.129H339.213L336.066 64.0705Z" fill="white"/>
<path d="M344.587 60.129H343.212V69.6926H344.587V60.129Z" fill="white"/>
<path d="M352.018 66.2131H353.851V68.1991C352.934 68.5047 352.476 68.6269 351.773 68.6269C349.451 68.6269 347.923 67.038 347.923 64.9298C347.923 62.6688 349.726 61.2327 351.651 61.2327C352.17 61.2327 353.484 61.3244 355.043 62.241V60.8355C354.004 60.4077 353.026 60.0105 351.682 60.0105C348.412 60.0105 346.518 62.4854 346.518 64.9909C346.518 67.1603 348.046 69.8185 351.743 69.8185C353.331 69.8185 354.523 69.3602 355.256 69.0241V64.9909H352.048V66.2131H352.018Z" fill="white"/>
<path d="M361.734 65.1708C362.773 64.7736 363.323 63.918 363.323 62.8181C363.323 61.8403 362.834 60.8931 361.826 60.4654C361.214 60.1904 360.634 60.1598 360.176 60.1598H357.762V69.7234H359.137V65.568H359.503C360.176 65.568 360.634 65.568 361.551 66.7596C361.856 67.1568 363.201 69.2651 363.506 69.7234H365.125C364.453 68.8068 364.239 68.4707 363.812 67.829C363.139 66.6068 362.589 65.7513 361.734 65.1708ZM361.001 64.193C360.634 64.3458 359.87 64.3458 359.656 64.3458H359.137V61.3209H359.565C360.39 61.3209 360.848 61.382 361.184 61.5348C361.642 61.7487 361.917 62.2681 361.917 62.8181C361.917 63.3375 361.673 63.918 361.001 64.193Z" fill="white"/>
<path d="M369.672 60.0982L365.547 69.7228H366.953L368.145 66.9118H372.208L373.492 69.7228H374.897L370.62 60.0982H369.672ZM368.695 65.6591L370.131 62.2064L371.689 65.6591H368.695Z" fill="white"/>
<path d="M376.884 64.9603C376.884 63.0354 378.35 61.3244 380.672 61.3244C381.833 61.3244 382.964 61.691 383.972 62.2716V60.8049C383.361 60.5299 382.078 60.0105 380.611 60.0105C377.586 60.0105 375.448 62.3021 375.448 64.9298C375.448 67.1603 377.036 69.8185 380.581 69.8185C381.803 69.8185 382.964 69.5741 384.064 68.963V67.4658C383.056 68.138 381.864 68.5352 380.672 68.5352C378.136 68.5658 376.884 66.7325 376.884 64.9603Z" fill="white"/>
<path d="M387.822 60.129H386.447V69.6926H387.822V60.129Z" fill="white"/>
<path d="M394.091 59.4875H394.824L397.116 57.3793H395.099L394.091 59.4875Z" fill="white"/>
<path d="M395.066 60.0105C391.796 60.0105 389.932 62.4243 389.932 64.9603C389.932 67.6186 391.98 69.8491 394.974 69.8491C398.09 69.8491 400.199 67.6797 400.199 64.9298C400.229 62.3327 398.274 60.0105 395.066 60.0105ZM397.877 67.4352C397.204 68.138 396.104 68.5658 395.096 68.5658C393.079 68.5658 391.368 67.1297 391.368 64.9603C391.368 63.3715 392.438 61.3244 395.127 61.3244C397.632 61.3244 398.824 63.341 398.824 64.9298C398.854 65.7242 398.488 66.7631 397.877 67.4352Z" fill="white"/>
<path d="M409.367 60.129V67.5538L402.92 60.129H401.82V69.6926H403.103V62.3289L409.489 69.6926H410.681V60.129H409.367Z" fill="white"/>
<path d="M308.509 37.6413C308.845 37.6413 309.089 37.3663 309.089 37.0608C309.089 36.7553 308.814 36.4803 308.509 36.4803C308.203 36.4803 307.928 36.7553 307.928 37.0608C307.928 37.3663 308.203 37.6413 308.509 37.6413Z" fill="white"/>
<path d="M315.199 38.0402C315.169 37.9485 315.077 37.8874 314.955 37.8874H314.558H314.283H313.946H313.671H313.244C313.152 37.8874 313.06 37.9485 312.999 38.0402L311.869 40.6679H310.769L309.638 38.0402C309.608 37.9485 309.516 37.8874 309.394 37.8874H308.508H307.622C307.53 37.8874 307.438 37.9485 307.377 38.0402L306.186 40.8206C306.124 40.9429 306.186 41.0651 306.277 41.1567C306.308 41.1873 306.369 41.1873 306.399 41.1873C306.491 41.1873 306.583 41.1262 306.644 41.0345L307.683 38.5902L307.744 40.9734L307.347 43.9983C307.347 44.1205 307.408 44.2427 307.499 44.2733C307.53 44.2733 307.561 44.3039 307.591 44.3039C307.713 44.3039 307.836 44.2122 307.836 44.09L308.202 41.2179H308.722L309.088 44.09C309.119 44.2122 309.211 44.3039 309.333 44.3039C309.363 44.3039 309.394 44.3039 309.424 44.2733C309.547 44.2427 309.608 44.1205 309.577 43.9983L309.18 40.9734L309.241 38.5902L310.28 41.0345C310.28 41.0345 310.28 41.0651 310.31 41.0651C310.31 41.0651 310.31 41.0956 310.341 41.0956L310.372 41.1262C310.372 41.1262 310.402 41.1262 310.402 41.1567H310.433H310.463H310.677L310.341 42.8678C310.31 42.99 310.341 43.1122 310.433 43.2039C310.494 43.265 310.555 43.2956 310.616 43.3261V44.0594C310.616 44.1816 310.708 44.2733 310.83 44.2733C310.952 44.2733 311.044 44.1816 311.044 44.0594V43.3872C311.044 43.3872 311.044 43.3872 311.074 43.3872H311.197H311.319C311.319 43.3872 311.319 43.3872 311.349 43.3872V44.09C311.349 44.2122 311.441 44.3039 311.563 44.3039C311.685 44.3039 311.777 44.2122 311.777 44.09V43.3567C311.838 43.3261 311.899 43.2956 311.96 43.2344C312.052 43.1428 312.083 43.0206 312.052 42.8983L311.716 41.1873H311.93C311.96 41.1873 311.96 41.1873 311.96 41.1873H311.991C311.991 41.1873 312.022 41.1873 312.022 41.1567C312.022 41.1567 312.052 41.1567 312.052 41.1262C312.052 41.1262 312.052 41.0956 312.083 41.0956C312.083 41.0956 312.083 41.0651 312.113 41.0651L313.183 38.5291L313.396 39.5679C313.427 39.7512 313.427 39.904 313.366 40.0873L312.388 44.3344H313.763H314.099H315.474L314.496 40.0873C314.466 39.9346 314.435 39.7512 314.496 39.5679L314.71 38.5291L315.535 40.5762C315.566 40.6679 315.657 40.729 315.78 40.729C315.81 40.729 315.841 40.729 315.871 40.6984C315.994 40.6373 316.055 40.4845 316.024 40.3623L315.199 38.0402Z" fill="white"/>
<path d="M314.101 37.6413C314.437 37.6413 314.681 37.3663 314.681 37.0608C314.681 36.7553 314.406 36.4803 314.101 36.4803C313.765 36.4803 313.52 36.7553 313.52 37.0608C313.52 37.3663 313.765 37.6413 314.101 37.6413Z" fill="white"/>
<path d="M311.317 40.5451C311.561 40.5451 311.745 40.3618 311.745 40.1174C311.745 39.8729 311.561 39.6896 311.317 39.6896C311.072 39.6896 310.889 39.8729 310.889 40.1174C310.889 40.3618 311.072 40.5451 311.317 40.5451Z" fill="white"/>
<path d="M320.359 26.063C321.153 26.7963 322.253 28.0796 322.253 28.0796C325.187 31.349 326.867 35.7488 326.867 39.6598C326.867 39.7209 326.867 39.7514 326.867 39.8125H322.039C321.306 32.1434 315.195 26.0936 307.801 26.0936C299.888 26.0936 293.471 32.9072 293.471 41.3097C293.471 45.8623 295.549 50.9649 298.971 54.7537H301.996C301.201 54.0203 300.101 52.7371 300.101 52.7371C297.168 49.4677 295.488 45.0679 295.488 41.1569C295.488 41.0958 295.488 41.0653 295.488 41.0042H300.346C301.079 48.6733 307.19 54.7231 314.584 54.7231C322.498 54.7231 328.914 47.9095 328.914 39.507C328.914 34.9544 326.837 29.8518 323.414 26.063H320.359ZM320.023 39.782H317.548C317.548 39.7514 317.548 39.7514 317.548 39.7209C317.548 38.2543 317.151 36.8182 316.448 35.5349H318.892C319.503 36.8182 319.87 38.2543 320.023 39.782ZM318.465 34.6183H315.929C314.981 33.1822 313.698 31.9906 312.293 31.2573C312.965 30.8906 313.576 30.4323 314.095 29.9129C315.898 31.0434 317.426 32.6934 318.465 34.6183ZM308.382 28.0796C310.184 28.1713 311.895 28.6907 313.423 29.5157C312.109 30.7379 310.337 31.5323 308.382 31.6545V28.0796ZM308.382 32.3878C309.42 32.3267 310.429 32.0823 311.345 31.7156C312.72 32.3267 313.973 33.335 314.951 34.6183H308.351V32.3878H308.382ZM307.465 28.0491V31.6239C305.418 31.5323 303.585 30.7073 302.24 29.424C303.829 28.5991 305.601 28.1102 307.465 28.0491ZM307.465 32.3878V34.6183H300.743C301.721 33.335 303.004 32.2961 304.348 31.7156C305.326 32.1128 306.365 32.3573 307.465 32.3878ZM301.568 29.8518C302.118 30.4018 302.76 30.8601 303.432 31.2573C302.057 32.0212 300.743 33.1822 299.796 34.6183H297.076C298.146 32.6628 299.704 30.9823 301.568 29.8518ZM295.488 40.0875C295.61 38.4681 296.007 36.9099 296.649 35.5044H299.276C298.604 36.7876 298.176 38.2237 298.176 39.6903C298.176 39.7514 298.176 39.9348 298.176 40.0875H295.488ZM302.332 40.9736H304.807C304.807 41.0042 304.807 41.0042 304.807 41.0347C304.807 42.5013 305.204 43.9374 305.907 45.2207H303.462C302.851 43.9374 302.454 42.5013 302.332 40.9736ZM303.89 46.1373H306.426C307.373 47.5734 308.687 48.765 310.062 49.4983C309.39 49.8649 308.779 50.3233 308.259 50.8427C306.426 49.7122 304.929 48.0622 303.89 46.1373ZM313.973 52.676C312.17 52.5843 310.459 52.0649 308.932 51.2399C310.245 50.0177 312.018 49.2233 313.973 49.1011V52.676ZM313.973 48.3678C312.934 48.4289 311.926 48.6733 311.009 49.04C309.634 48.4289 308.382 47.4206 307.404 46.1373H314.004V48.3678H313.973ZM306.793 45.2512C306.059 43.9985 305.601 42.5624 305.601 41.0653C305.601 41.0347 305.601 41.0347 305.601 41.0042V40.1181H298.971C298.971 39.9959 298.971 39.8431 298.971 39.7209C298.971 38.2237 299.429 36.7876 300.162 35.5349H315.562C316.295 36.7876 316.754 38.2237 316.754 39.7209C316.754 39.7514 316.754 39.7514 316.754 39.782V40.6681H323.384C323.384 40.7903 323.384 40.9431 323.384 41.0347C323.384 42.5319 322.926 43.9679 322.192 45.2207H306.793V45.2512ZM321.581 46.1373C320.603 47.4206 319.32 48.4594 317.976 49.04C317.029 48.6428 315.959 48.3983 314.859 48.3678V46.1373H321.581ZM314.859 52.7065V49.1316C316.906 49.2233 318.74 50.0483 320.084 51.3316C318.526 52.1565 316.754 52.6454 314.859 52.7065ZM320.787 50.9038C320.237 50.3538 319.595 49.8955 318.923 49.4983C320.298 48.7344 321.612 47.5734 322.559 46.1373H325.278C324.178 48.1233 322.651 49.7733 320.787 50.9038ZM325.706 45.2512H323.078C323.751 43.9679 324.178 42.5319 324.178 41.0653C324.178 41.0042 324.178 40.8208 324.178 40.6986H326.867C326.714 42.2874 326.317 43.8457 325.706 45.2512Z" fill="white"/>
<path d="M303.373 3.51401C302.823 2.90292 302.211 2.47516 301.6 2.16961C300.959 1.89462 300.286 1.74185 299.523 1.74185C298.912 1.74185 298.3 1.86407 297.72 2.10851C297.139 2.35294 296.62 2.68904 296.192 3.14736C295.734 3.60567 295.428 4.1251 295.184 4.67508C294.97 5.25561 294.848 5.8667 294.848 6.56945C294.848 7.11943 294.909 7.6083 295.031 8.06662C295.153 8.52494 295.367 8.9527 295.612 9.31935C296.07 9.99155 296.651 10.4804 297.323 10.8471C297.995 11.2137 298.728 11.3971 299.523 11.3971C300.256 11.3971 300.959 11.2443 301.6 10.9387C302.242 10.6332 302.823 10.1749 303.342 9.56379V11.3971C302.761 11.8248 302.15 12.1304 301.478 12.3442C300.806 12.5581 300.134 12.6803 299.431 12.6803C298.82 12.6803 298.209 12.5887 297.628 12.4053C297.048 12.222 296.498 11.947 296.009 11.6109C295.153 11.0304 294.512 10.2971 294.084 9.44157C293.626 8.58605 293.412 7.63886 293.412 6.63056C293.412 5.74448 293.565 4.91951 293.87 4.18621C294.176 3.4529 294.634 2.7807 295.245 2.20017C295.826 1.61963 296.498 1.19187 297.201 0.916883C297.934 0.641893 298.698 0.48912 299.553 0.48912C300.225 0.48912 300.867 0.580784 301.509 0.794665C302.15 1.00855 302.761 1.31409 303.373 1.74185V3.51401Z" fill="white"/>
<path d="M304.717 8.7689C304.717 8.24948 304.808 7.73005 305.022 7.27173C305.206 6.81342 305.511 6.38566 305.878 6.019C306.245 5.65235 306.672 5.37736 307.161 5.16348C307.65 4.98015 308.139 4.88849 308.689 4.88849C309.208 4.88849 309.728 4.98015 310.186 5.19403C310.644 5.37736 311.103 5.6829 311.469 6.04956C311.836 6.41621 312.142 6.84397 312.325 7.30229C312.508 7.76061 312.63 8.28003 312.63 8.79946C312.63 9.31888 312.539 9.83831 312.325 10.2966C312.142 10.7549 311.836 11.1827 311.469 11.5494C311.072 11.916 310.644 12.2216 310.186 12.4354C309.697 12.6493 309.208 12.741 308.689 12.741C308.169 12.741 307.65 12.6493 307.161 12.4354C306.672 12.2521 306.245 11.9466 305.878 11.5799C305.511 11.2133 305.206 10.7855 305.022 10.2966C304.808 9.7772 304.717 9.28833 304.717 8.7689ZM306.031 8.7689C306.031 9.53276 306.275 10.1744 306.794 10.7244C307.314 11.2438 307.925 11.5188 308.658 11.5188C309.392 11.5188 310.003 11.2438 310.492 10.7244C311.011 10.205 311.255 9.53276 311.255 8.7689C311.255 8.00504 311.011 7.3634 310.492 6.81342C309.972 6.29399 309.361 6.019 308.658 6.019C307.925 6.019 307.314 6.29399 306.794 6.81342C306.275 7.33284 306.031 7.97449 306.031 8.7689Z" fill="white"/>
<path d="M314.22 12.375V5.10308H315.442V6.23359C315.748 5.77528 316.114 5.40862 316.573 5.19474C317 4.98086 317.52 4.85864 318.1 4.85864C318.956 4.85864 319.628 5.07252 320.117 5.53084C320.606 5.98916 320.85 6.6308 320.85 7.42522V12.375H319.567V8.09741C319.567 7.36411 319.414 6.81413 319.109 6.44747C318.803 6.08082 318.314 5.89749 317.672 5.89749C317.306 5.89749 316.97 5.9586 316.664 6.11137C316.359 6.23359 316.114 6.44747 315.9 6.69191C315.748 6.87524 315.625 7.08912 315.564 7.33355C315.503 7.57799 315.473 8.00575 315.473 8.61684V12.375H314.22Z" fill="white"/>
<path d="M333.926 8.92193H328.182V9.04415C328.182 9.80801 328.396 10.4497 328.854 10.9385C329.313 11.4274 329.863 11.6413 330.596 11.6413C331.085 11.6413 331.513 11.5191 331.91 11.2441C332.307 10.9691 332.643 10.6024 332.949 10.0524L333.896 10.6941C333.529 11.3357 333.071 11.8552 332.49 12.1913C331.91 12.5274 331.268 12.6801 330.535 12.6801C329.435 12.6801 328.549 12.3135 327.846 11.5802C327.174 10.8469 326.838 9.89967 326.838 8.70805C326.838 7.57754 327.174 6.63035 327.846 5.9276C328.518 5.19429 329.404 4.82764 330.443 4.82764C331.513 4.82764 332.368 5.16374 332.979 5.86649C333.621 6.56924 333.926 7.48587 333.926 8.6775V8.92193ZM332.582 7.91363C332.551 7.27199 332.338 6.78312 331.94 6.44702C331.543 6.11092 331.024 5.9276 330.352 5.9276C329.74 5.9276 329.252 6.11092 328.854 6.47758C328.457 6.84423 328.213 7.3331 328.152 7.94419H332.582V7.91363Z" fill="white"/>
<path d="M335.546 12.3752V0.0618134H336.829V12.3447H335.546V12.3752Z" fill="white"/>
<path d="M350.366 5.10237V12.3743H349.174V11.0605C348.868 11.5799 348.502 12.0077 348.074 12.2827C347.616 12.5577 347.127 12.7104 346.546 12.7104C345.507 12.7104 344.652 12.3438 344.041 11.641C343.399 10.9383 343.094 9.99108 343.094 8.79946C343.094 7.60783 343.399 6.66065 344.01 5.95789C344.621 5.25514 345.446 4.88849 346.485 4.88849C347.096 4.88849 347.616 5.01071 348.074 5.2857C348.532 5.56069 348.868 5.95789 349.143 6.50787V5.13292H350.366V5.10237ZM349.143 8.79946C349.143 7.97449 348.93 7.33284 348.471 6.81342C348.013 6.32455 347.432 6.04956 346.73 6.04956C345.996 6.04956 345.416 6.29399 344.988 6.75231C344.56 7.21063 344.346 7.85227 344.346 8.67724C344.346 9.56332 344.56 10.2355 344.988 10.6938C345.416 11.1827 345.996 11.3966 346.791 11.3966C347.524 11.3966 348.105 11.1521 348.532 10.6938C348.93 10.2661 349.143 9.62443 349.143 8.79946Z" fill="white"/>
<path d="M352.534 15.8888V5.10308H353.726V6.47803C354.001 5.9586 354.368 5.56139 354.826 5.2864C355.284 5.01141 355.804 4.85864 356.354 4.85864C357.393 4.85864 358.248 5.2253 358.89 5.92805C359.531 6.6308 359.837 7.57799 359.837 8.76961C359.837 9.96123 359.531 10.9084 358.89 11.6417C358.279 12.3445 357.423 12.7111 356.384 12.7111C355.773 12.7111 355.254 12.5889 354.826 12.3139C354.368 12.0389 354.032 11.6417 353.726 11.0917V15.8888H352.534ZM353.726 8.76961C353.726 9.59458 353.94 10.2362 354.398 10.7251C354.857 11.214 355.437 11.4584 356.17 11.4584C356.904 11.4584 357.454 11.2445 357.881 10.7862C358.309 10.3279 358.493 9.7168 358.493 8.92238C358.493 8.0363 358.279 7.33355 357.881 6.81413C357.454 6.2947 356.904 6.05027 356.14 6.05027C355.376 6.05027 354.795 6.2947 354.368 6.78357C353.94 7.24189 353.726 7.91409 353.726 8.76961Z" fill="white"/>
<path d="M360.937 8.7689C360.937 8.24948 361.029 7.73005 361.243 7.27173C361.426 6.81342 361.732 6.38566 362.098 6.019C362.465 5.65235 362.893 5.37736 363.381 5.16348C363.87 4.98015 364.359 4.88849 364.909 4.88849C365.429 4.88849 365.948 4.98015 366.406 5.19403C366.865 5.37736 367.323 5.6829 367.69 6.04956C368.056 6.41621 368.362 6.84397 368.545 7.30229C368.728 7.76061 368.851 8.28003 368.851 8.79946C368.851 9.31888 368.759 9.83831 368.545 10.2966C368.362 10.7549 368.056 11.1827 367.69 11.5494C367.292 11.916 366.865 12.2216 366.406 12.4354C365.917 12.6493 365.429 12.741 364.909 12.741C364.39 12.741 363.87 12.6493 363.381 12.4354C362.893 12.2521 362.465 11.9466 362.098 11.5799C361.732 11.2133 361.426 10.7855 361.243 10.2966C361.029 9.7772 360.937 9.28833 360.937 8.7689ZM362.251 8.7689C362.251 9.53276 362.495 10.1744 363.015 10.7244C363.534 11.2438 364.145 11.5188 364.879 11.5188C365.612 11.5188 366.223 11.2438 366.712 10.7244C367.231 10.205 367.476 9.53276 367.476 8.7689C367.476 8.00504 367.231 7.3634 366.712 6.81342C366.192 6.29399 365.581 6.019 364.879 6.019C364.145 6.019 363.534 6.29399 363.015 6.81342C362.495 7.33284 362.251 7.97449 362.251 8.7689Z" fill="white"/>
<path d="M370.164 15.889L372.119 11.642L369.277 5.10333H370.714L372.822 10.3281L375.052 5.10333H376.427L371.539 15.889H370.164Z" fill="white"/>
<path d="M376.703 8.7689C376.703 8.24948 376.795 7.73005 377.009 7.27173C377.192 6.81342 377.498 6.38566 377.865 6.019C378.231 5.65235 378.659 5.37736 379.148 5.16348C379.637 4.98015 380.126 4.88849 380.676 4.88849C381.195 4.88849 381.714 4.98015 382.173 5.19403C382.631 5.37736 383.089 5.6829 383.456 6.04956C383.823 6.41621 384.128 6.84397 384.312 7.30229C384.495 7.76061 384.617 8.28003 384.617 8.79946C384.617 9.31888 384.525 9.83831 384.312 10.2966C384.128 10.7549 383.823 11.1827 383.456 11.5494C383.059 11.916 382.631 12.2216 382.173 12.4354C381.684 12.6493 381.195 12.741 380.676 12.741C380.156 12.741 379.637 12.6493 379.148 12.4354C378.659 12.2521 378.231 11.9466 377.865 11.5799C377.498 11.2133 377.192 10.7855 377.009 10.2966C376.795 9.7772 376.703 9.28833 376.703 8.7689ZM378.017 8.7689C378.017 9.53276 378.262 10.1744 378.781 10.7244C379.301 11.2438 379.912 11.5188 380.645 11.5188C381.378 11.5188 381.989 11.2438 382.478 10.7244C382.998 10.205 383.242 9.53276 383.242 8.7689C383.242 8.00504 382.998 7.3634 382.478 6.81342C381.959 6.29399 381.348 6.019 380.645 6.019C379.912 6.019 379.301 6.29399 378.781 6.81342C378.262 7.33284 378.017 7.97449 378.017 8.7689Z" fill="white"/>
<path d="M397.45 0.0613619V12.3442H396.259V11.0304C395.984 11.5498 395.617 11.947 395.159 12.222C394.701 12.497 394.181 12.6498 393.631 12.6498C392.592 12.6498 391.737 12.2831 391.126 11.5804C390.484 10.8776 390.178 9.93045 390.178 8.73882C390.178 7.5472 390.484 6.60001 391.126 5.89726C391.737 5.19451 392.592 4.82785 393.631 4.82785C394.242 4.82785 394.762 4.95007 395.189 5.22506C395.617 5.50005 395.984 5.89726 396.259 6.44724V0.0308075H397.45V0.0613619ZM396.259 8.76938C396.259 7.97496 396.045 7.30276 395.587 6.81389C395.128 6.32502 394.548 6.08059 393.814 6.08059C393.081 6.08059 392.501 6.29447 392.103 6.75278C391.706 7.2111 391.492 7.82219 391.492 8.6166C391.492 9.50268 391.706 10.2054 392.134 10.7249C392.562 11.2443 393.142 11.4887 393.876 11.4887C394.639 11.4887 395.22 11.2443 395.678 10.786C396.137 10.3277 396.259 9.6249 396.259 8.76938Z" fill="white"/>
<path d="M406.157 8.92193H400.412V9.04415C400.412 9.80801 400.626 10.4497 401.085 10.9385C401.543 11.4274 402.093 11.6413 402.826 11.6413C403.315 11.6413 403.743 11.5191 404.14 11.2441C404.537 10.9691 404.873 10.6024 405.179 10.0524L406.126 10.6941C405.759 11.3357 405.301 11.8552 404.721 12.1913C404.14 12.5274 403.498 12.6801 402.765 12.6801C401.665 12.6801 400.779 12.3135 400.076 11.5802C399.404 10.8469 399.068 9.89967 399.068 8.70805C399.068 7.57754 399.404 6.63035 400.076 5.9276C400.749 5.19429 401.635 4.82764 402.673 4.82764C403.743 4.82764 404.598 5.16374 405.209 5.86649C405.851 6.56924 406.157 7.48587 406.157 8.6775V8.92193ZM404.843 7.91363C404.812 7.27199 404.598 6.78312 404.201 6.44702C403.804 6.11092 403.284 5.9276 402.612 5.9276C402.001 5.9276 401.512 6.11092 401.115 6.47758C400.718 6.84423 400.474 7.3331 400.412 7.94419H404.843V7.91363Z" fill="white"/>
<path d="M408.113 6.23314C408.113 5.9887 408.204 5.74427 408.388 5.56094C408.571 5.37761 408.785 5.28595 409.06 5.28595C409.304 5.28595 409.549 5.37761 409.732 5.56094C409.915 5.74427 410.007 5.95815 410.007 6.23314C410.007 6.50813 409.915 6.72201 409.732 6.90534C409.549 7.08866 409.335 7.18032 409.06 7.18032C408.785 7.18032 408.571 7.08866 408.388 6.90534C408.204 6.72201 408.113 6.50813 408.113 6.23314ZM408.113 11.5802C408.113 11.3357 408.204 11.0913 408.388 10.908C408.571 10.7246 408.785 10.633 409.06 10.633C409.304 10.633 409.549 10.7246 409.732 10.908C409.915 11.0913 410.007 11.3052 410.007 11.5802C410.007 11.8246 409.915 12.069 409.732 12.2524C409.549 12.4357 409.335 12.5274 409.06 12.5274C408.785 12.5274 408.571 12.4357 408.388 12.2524C408.204 12.0385 408.113 11.8246 408.113 11.5802Z" fill="white"/>
<path d="M242.145 0.518829H241.503V69.3274H242.145V0.518829Z" fill="white"/>
</svg>
