<svg width="118" height="70" viewBox="0 0 118 70" fill="none" xmlns="http://www.w3.org/2000/svg">
<path d="M74.9674 40.3001C74.9674 32.6004 69.0398 25.6035 59.4763 25.6035C49.6683 25.6035 44.1074 32.8143 44.1074 40.4224C44.1074 48.4276 50.2489 55.0579 59.2624 55.0579C68.6426 55.0579 74.9674 48.5498 74.9674 40.3001ZM48.3545 40.4224C48.3545 35.6253 51.5932 29.4839 59.6291 29.4839C67.1149 29.4839 70.7509 35.5031 70.7509 40.2696C70.7509 42.7445 69.712 45.861 67.8787 47.8471C65.8927 49.9859 62.5623 51.2692 59.5068 51.2692C53.4876 51.2386 48.3545 46.961 48.3545 40.4224Z" fill="white"/>
<path d="M83.8841 25.9999H79.7593V54.6905H83.8841V25.9999Z" fill="white"/>
<path d="M104.726 43.4465L113.556 32.3552V54.6905H117.681V25.9999H113.862L104.329 37.7633L94.7959 25.9999H90.9155V54.6905H95.0404V32.3552L103.962 43.4465H104.726Z" fill="white"/>
<path d="M5.63511 60.0105C2.36579 60.0105 0.501953 62.4243 0.501953 64.9603C0.501953 67.6186 2.5491 69.8491 5.54344 69.8491C8.65999 69.8491 10.7683 67.6797 10.7683 64.9298C10.7988 62.3327 8.81277 60.0105 5.63511 60.0105ZM8.44611 67.4352C7.77391 68.138 6.67396 68.5658 5.66566 68.5658C3.64907 68.5658 1.93802 67.1297 1.93802 64.9603C1.93802 63.3715 3.00742 61.3244 5.69621 61.3244C8.20167 61.3244 9.39331 63.341 9.39331 64.9298C9.39331 65.7242 9.0572 66.7631 8.44611 67.4352Z" fill="white"/>
<path d="M20.212 67.5538L13.765 60.129H12.665V69.6926H13.9483V62.3289L20.3342 69.6926H21.5258V60.129H20.212V67.5538Z" fill="white"/>
<path d="M30.8146 65.5677C30.8146 66.5149 30.7229 67.0038 30.5396 67.3399C30.2951 67.7982 29.6229 68.5926 28.0647 68.5926C26.9647 68.5926 26.3231 68.226 25.9259 67.7982C25.437 67.3093 25.3148 66.8205 25.3148 65.5677V60.129H23.9398V65.5677C23.9398 66.2094 23.9398 67.3093 24.4592 68.1648C25.2231 69.3565 26.6897 69.8453 28.0647 69.8453C29.1646 69.8453 30.234 69.5703 31.0895 68.8065C32.1589 67.8287 32.1589 66.5149 32.1589 65.5677V60.129H30.784V65.5677H30.8146Z" fill="white"/>
<path d="M43.0656 64.0705L39.8574 60.129H38.5741V69.6926H39.949V62.2678L42.9128 65.9649H43.1878L46.1211 62.2678V69.6926H47.496V60.129H46.2127L43.0656 64.0705Z" fill="white"/>
<path d="M51.587 60.129H50.212V69.6926H51.587V60.129Z" fill="white"/>
<path d="M59.0176 66.2131H60.8509V68.1991C59.9343 68.5047 59.476 68.6269 58.7732 68.6269C56.4511 68.6269 54.9233 67.038 54.9233 64.9298C54.9233 62.6688 56.7261 61.2327 58.651 61.2327C59.1704 61.2327 60.4842 61.3244 62.0425 62.241V60.8355C61.0037 60.4077 60.0259 60.0105 58.6815 60.0105C55.4122 60.0105 53.5178 62.4854 53.5178 64.9909C53.5178 67.1603 55.0455 69.8185 58.7426 69.8185C60.3315 69.8185 61.5231 69.3602 62.2564 69.0241V64.9909H59.0482V66.2131H59.0176Z" fill="white"/>
<path d="M68.7339 65.1708C69.7728 64.7736 70.3227 63.918 70.3227 62.8181C70.3227 61.8403 69.8339 60.8931 68.8256 60.4654C68.2145 60.1904 67.634 60.1598 67.1756 60.1598H64.7618V69.7234H66.1368V65.568H66.5034C67.1756 65.568 67.634 65.568 68.5506 66.7596C68.8561 67.1568 70.2005 69.2651 70.5061 69.7234H72.1255C71.4533 68.8068 71.2394 68.4707 70.8116 67.829C70.1394 66.6068 69.5894 65.7513 68.7339 65.1708ZM68.0006 64.193C67.634 64.3458 66.8701 64.3458 66.6562 64.3458H66.1368V61.3209H66.5646C67.3895 61.3209 67.8478 61.382 68.1839 61.5348C68.6422 61.7487 68.9172 62.2681 68.9172 62.8181C68.9172 63.3375 68.6728 63.918 68.0006 64.193Z" fill="white"/>
<path d="M76.6723 60.0982L72.5475 69.7228H73.953L75.1446 66.9118H79.2083L80.4916 69.7228H81.8971L77.6195 60.0982H76.6723ZM75.6946 65.6591L77.1307 62.2064L78.6889 65.6591H75.6946Z" fill="white"/>
<path d="M83.8836 64.9603C83.8836 63.0354 85.3502 61.3244 87.6723 61.3244C88.8334 61.3244 89.9639 61.691 90.9722 62.2716V60.8049C90.3611 60.5299 89.0778 60.0105 87.6112 60.0105C84.5863 60.0105 82.4475 62.3021 82.4475 64.9298C82.4475 67.1603 84.0363 69.8185 87.5806 69.8185C88.8028 69.8185 89.9639 69.5741 91.0638 68.963V67.4658C90.0555 68.138 88.8639 68.5352 87.6723 68.5352C85.1363 68.5658 83.8836 66.7325 83.8836 64.9603Z" fill="white"/>
<path d="M94.8216 60.129H93.4467V69.6926H94.8216V60.129Z" fill="white"/>
<path d="M101.091 59.4875H101.824L104.116 57.3793H102.099L101.091 59.4875Z" fill="white"/>
<path d="M102.066 60.0105C98.7962 60.0105 96.9324 62.4243 96.9324 64.9603C96.9324 67.6186 98.9795 69.8491 101.974 69.8491C105.09 69.8491 107.199 67.6797 107.199 64.9298C107.229 62.3327 105.274 60.0105 102.066 60.0105ZM104.877 67.4352C104.204 68.138 103.104 68.5658 102.096 68.5658C100.079 68.5658 98.3685 67.1297 98.3685 64.9603C98.3685 63.3715 99.4378 61.3244 102.127 61.3244C104.632 61.3244 105.824 63.341 105.824 64.9298C105.854 65.7242 105.488 66.7631 104.877 67.4352Z" fill="white"/>
<path d="M116.367 60.129V67.5538L109.92 60.129H108.82V69.6926H110.103V62.3289L116.489 69.6926H117.681V60.129H116.367Z" fill="white"/>
<path d="M15.5089 37.6413C15.845 37.6413 16.0894 37.3663 16.0894 37.0608C16.0894 36.7553 15.8144 36.4803 15.5089 36.4803C15.2033 36.4803 14.9283 36.7553 14.9283 37.0608C14.9283 37.3663 15.2033 37.6413 15.5089 37.6413Z" fill="white"/>
<path d="M22.1992 38.0402C22.1686 37.9485 22.077 37.8874 21.9548 37.8874H21.5575H21.2825H20.9464H20.6714H20.2437C20.152 37.8874 20.0604 37.9485 19.9993 38.0402L18.8687 40.6679H17.7688L16.6383 38.0402C16.6077 37.9485 16.516 37.8874 16.3938 37.8874H15.5078H14.6217C14.53 37.8874 14.4383 37.9485 14.3772 38.0402L13.1856 40.8206C13.1245 40.9429 13.1856 41.0651 13.2773 41.1567C13.3078 41.1873 13.3689 41.1873 13.3995 41.1873C13.4912 41.1873 13.5828 41.1262 13.6439 41.0345L14.6828 38.5902L14.7439 40.9734L14.3467 43.9983C14.3467 44.1205 14.4078 44.2427 14.4995 44.2733C14.53 44.2733 14.5606 44.3039 14.5911 44.3039C14.7133 44.3039 14.8356 44.2122 14.8356 44.09L15.2022 41.2179H15.7216L16.0883 44.09C16.1188 44.2122 16.2105 44.3039 16.3327 44.3039C16.3633 44.3039 16.3938 44.3039 16.4244 44.2733C16.5466 44.2427 16.6077 44.1205 16.5772 43.9983L16.18 40.9734L16.241 38.5902L17.2799 41.0345C17.2799 41.0345 17.2799 41.0651 17.3105 41.0651C17.3105 41.0651 17.3105 41.0956 17.341 41.0956L17.3716 41.1262C17.3716 41.1262 17.4021 41.1262 17.4021 41.1567H17.4327H17.4632H17.6771L17.341 42.8678C17.3105 42.99 17.341 43.1122 17.4327 43.2039C17.4938 43.265 17.5549 43.2956 17.616 43.3261V44.0594C17.616 44.1816 17.7077 44.2733 17.8299 44.2733C17.9521 44.2733 18.0438 44.1816 18.0438 44.0594V43.3872C18.0438 43.3872 18.0438 43.3872 18.0743 43.3872H18.1965H18.3188C18.3188 43.3872 18.3188 43.3872 18.3493 43.3872V44.09C18.3493 44.2122 18.441 44.3039 18.5632 44.3039C18.6854 44.3039 18.7771 44.2122 18.7771 44.09V43.3567C18.8382 43.3261 18.8993 43.2956 18.9604 43.2344C19.0521 43.1428 19.0826 43.0206 19.0521 42.8983L18.716 41.1873H18.9299C18.9604 41.1873 18.9604 41.1873 18.9604 41.1873H18.9909C18.9909 41.1873 19.0215 41.1873 19.0215 41.1567C19.0215 41.1567 19.0521 41.1567 19.0521 41.1262C19.0521 41.1262 19.0521 41.0956 19.0826 41.0956C19.0826 41.0956 19.0826 41.0651 19.1132 41.0651L20.1826 38.5291L20.3964 39.5679C20.427 39.7512 20.427 39.904 20.3659 40.0873L19.3882 44.3344H20.7631H21.0992H22.4742L21.4964 40.0873C21.4659 39.9346 21.4353 39.7512 21.4964 39.5679L21.7103 38.5291L22.5353 40.5762C22.5658 40.6679 22.6575 40.729 22.7797 40.729C22.8103 40.729 22.8408 40.729 22.8714 40.6984C22.9936 40.6373 23.0547 40.4845 23.0242 40.3623L22.1992 38.0402Z" fill="white"/>
<path d="M21.1009 37.6413C21.437 37.6413 21.6815 37.3663 21.6815 37.0608C21.6815 36.7553 21.4065 36.4803 21.1009 36.4803C20.7648 36.4803 20.5204 36.7553 20.5204 37.0608C20.5204 37.3663 20.7648 37.6413 21.1009 37.6413Z" fill="white"/>
<path d="M18.3169 40.5451C18.5614 40.5451 18.7447 40.3618 18.7447 40.1174C18.7447 39.8729 18.5614 39.6896 18.3169 39.6896C18.0725 39.6896 17.8892 39.8729 17.8892 40.1174C17.8892 40.3618 18.0725 40.5451 18.3169 40.5451Z" fill="white"/>
<path d="M27.359 26.063C28.1534 26.7963 29.2533 28.0796 29.2533 28.0796C32.1866 31.349 33.8671 35.7488 33.8671 39.6598C33.8671 39.7209 33.8671 39.7514 33.8671 39.8125H29.0395C28.3062 32.1434 22.1953 26.0936 14.8011 26.0936C6.88751 26.0936 0.471069 32.9072 0.471069 41.3097C0.471069 45.8623 2.54877 50.9649 5.97087 54.7537H8.99577C8.20135 54.0203 7.10139 52.7371 7.10139 52.7371C4.16816 49.4677 2.48765 45.0679 2.48765 41.1569C2.48765 41.0958 2.48765 41.0653 2.48765 41.0042H7.34582C8.07912 48.6733 14.19 54.7231 21.5842 54.7231C29.4978 54.7231 35.9142 47.9095 35.9142 39.507C35.9142 34.9544 33.8365 29.8518 30.4144 26.063H27.359ZM27.0229 39.782H24.548C24.548 39.7514 24.548 39.7514 24.548 39.7209C24.548 38.2543 24.1507 36.8182 23.448 35.5349H25.8923C26.5034 36.8182 26.8701 38.2543 27.0229 39.782ZM25.4646 34.6183H22.9286C21.9814 33.1822 20.6981 31.9906 19.2926 31.2573C19.9648 30.8906 20.5759 30.4323 21.0953 29.9129C22.898 31.0434 24.4258 32.6934 25.4646 34.6183ZM15.3816 28.0796C17.1843 28.1713 18.8954 28.6907 20.4231 29.5157C19.1093 30.7379 17.3371 31.5323 15.3816 31.6545V28.0796ZM15.3816 32.3878C16.4205 32.3267 17.4288 32.0823 18.3454 31.7156C19.7204 32.3267 20.9731 33.335 21.9509 34.6183H15.3511V32.3878H15.3816ZM14.465 28.0491V31.6239C12.4179 31.5323 10.5846 30.7073 9.2402 29.424C10.829 28.5991 12.6012 28.1102 14.465 28.0491ZM14.465 32.3878V34.6183H7.74302C8.72076 33.335 10.004 32.2961 11.3484 31.7156C12.3262 32.1128 13.365 32.3573 14.465 32.3878ZM8.568 29.8518C9.11798 30.4018 9.75961 30.8601 10.4318 31.2573C9.05686 32.0212 7.74303 33.1822 6.79584 34.6183H4.07649C5.1459 32.6628 6.70418 30.9823 8.568 29.8518ZM2.48765 40.0875C2.60987 38.4681 3.0071 36.9099 3.64874 35.5044H6.27641C5.60422 36.7876 5.17646 38.2237 5.17646 39.6903C5.17646 39.7514 5.17646 39.9348 5.17646 40.0875H2.48765ZM9.33186 40.9736H11.8068C11.8068 41.0042 11.8068 41.0042 11.8068 41.0347C11.8068 42.5013 12.204 43.9374 12.9067 45.2207H10.4624C9.85129 43.9374 9.45407 42.5013 9.33186 40.9736ZM10.8901 46.1373H13.4262C14.3733 47.5734 15.6872 48.765 17.0621 49.4983C16.3899 49.8649 15.7789 50.3233 15.2594 50.8427C13.4262 49.7122 11.929 48.0622 10.8901 46.1373ZM20.9731 52.676C19.1704 52.5843 17.4593 52.0649 15.9316 51.2399C17.2454 50.0177 19.0176 49.2233 20.9731 49.1011V52.676ZM20.9731 48.3678C19.9342 48.4289 18.926 48.6733 18.0093 49.04C16.6344 48.4289 15.3816 47.4206 14.4039 46.1373H21.0036V48.3678H20.9731ZM13.7928 45.2512C13.0595 43.9985 12.6012 42.5624 12.6012 41.0653C12.6012 41.0347 12.6012 41.0347 12.6012 41.0042V40.1181H5.97087C5.97087 39.9959 5.97087 39.8431 5.97087 39.7209C5.97087 38.2237 6.42919 36.7876 7.1625 35.5349H22.5619C23.2953 36.7876 23.7535 38.2237 23.7535 39.7209C23.7535 39.7514 23.7535 39.7514 23.7535 39.782V40.6681H30.3839C30.3839 40.7903 30.3839 40.9431 30.3839 41.0347C30.3839 42.5319 29.9256 43.9679 29.1922 45.2207H13.7928V45.2512ZM28.5812 46.1373C27.6034 47.4206 26.3201 48.4594 24.9757 49.04C24.0285 48.6428 22.9591 48.3983 21.8592 48.3678V46.1373H28.5812ZM21.8592 52.7065V49.1316C23.9063 49.2233 25.7396 50.0483 27.084 51.3316C25.5257 52.1565 23.7536 52.6454 21.8592 52.7065ZM27.7867 50.9038C27.2368 50.3538 26.5951 49.8955 25.9229 49.4983C27.2979 48.7344 28.6117 47.5734 29.5589 46.1373H32.2782C31.1783 48.1233 29.6506 49.7733 27.7867 50.9038ZM32.706 45.2512H30.0783C30.7505 43.9679 31.1783 42.5319 31.1783 41.0653C31.1783 41.0042 31.1783 40.8208 31.1783 40.6986H33.8671C33.7143 42.2874 33.3171 43.8457 32.706 45.2512Z" fill="white"/>
<path d="M10.3725 3.51401C9.82252 2.90292 9.21142 2.47516 8.60033 2.16961C7.95868 1.89462 7.28649 1.74185 6.52263 1.74185C5.91154 1.74185 5.30046 1.86407 4.71993 2.10851C4.1394 2.35294 3.61997 2.68904 3.19221 3.14736C2.73389 3.60567 2.42833 4.1251 2.1839 4.67508C1.97002 5.25561 1.84781 5.8667 1.84781 6.56945C1.84781 7.11943 1.90891 7.6083 2.03112 8.06662C2.15334 8.52494 2.36723 8.9527 2.61167 9.31935C3.06998 9.99155 3.65051 10.4804 4.32271 10.8471C4.9949 11.2137 5.72821 11.3971 6.52263 11.3971C7.25594 11.3971 7.95868 11.2443 8.60033 10.9387C9.24197 10.6332 9.82251 10.1749 10.3419 9.56379V11.3971C9.7614 11.8248 9.15032 12.1304 8.47812 12.3442C7.80592 12.5581 7.13372 12.6803 6.43097 12.6803C5.81988 12.6803 5.20879 12.5887 4.62825 12.4053C4.04772 12.222 3.49774 11.947 3.00887 11.6109C2.15335 11.0304 1.51171 10.2971 1.08394 9.44157C0.625628 8.58605 0.411743 7.63886 0.411743 6.63056C0.411743 5.74448 0.564515 4.91951 0.87006 4.18621C1.1756 3.4529 1.63392 2.7807 2.24501 2.20017C2.82554 1.61963 3.49775 1.19187 4.2005 0.916883C4.93381 0.641893 5.69767 0.48912 6.5532 0.48912C7.22539 0.48912 7.86703 0.580784 8.50867 0.794665C9.15031 1.00855 9.76141 1.31409 10.3725 1.74185V3.51401Z" fill="white"/>
<path d="M11.7168 8.7689C11.7168 8.24948 11.8085 7.73005 12.0223 7.27173C12.2057 6.81342 12.5112 6.38566 12.8779 6.019C13.2445 5.65235 13.6723 5.37736 14.1612 5.16348C14.65 4.98015 15.1389 4.88849 15.6889 4.88849C16.2083 4.88849 16.7277 4.98015 17.186 5.19403C17.6444 5.37736 18.1027 5.6829 18.4693 6.04956C18.836 6.41621 19.1415 6.84397 19.3249 7.30229C19.5082 7.76061 19.6304 8.28003 19.6304 8.79946C19.6304 9.31888 19.5387 9.83831 19.3249 10.2966C19.1415 10.7549 18.836 11.1827 18.4693 11.5494C18.0721 11.916 17.6444 12.2216 17.186 12.4354C16.6972 12.6493 16.2083 12.741 15.6889 12.741C15.1694 12.741 14.65 12.6493 14.1612 12.4354C13.6723 12.2521 13.2445 11.9466 12.8779 11.5799C12.5112 11.2133 12.2057 10.7855 12.0223 10.2966C11.8085 9.7772 11.7168 9.28833 11.7168 8.7689ZM13.0306 8.7689C13.0306 9.53276 13.2751 10.1744 13.7945 10.7244C14.3139 11.2438 14.925 11.5188 15.6583 11.5188C16.3916 11.5188 17.0027 11.2438 17.4916 10.7244C18.011 10.205 18.2555 9.53276 18.2555 8.7689C18.2555 8.00504 18.011 7.3634 17.4916 6.81342C16.9722 6.29399 16.3611 6.019 15.6583 6.019C14.925 6.019 14.3139 6.29399 13.7945 6.81342C13.2751 7.33284 13.0306 7.97449 13.0306 8.7689Z" fill="white"/>
<path d="M21.2198 12.375V5.10308H22.442V6.23359C22.7476 5.77528 23.1142 5.40862 23.5725 5.19474C24.0003 4.98086 24.5197 4.85864 25.1002 4.85864C25.9558 4.85864 26.628 5.07252 27.1168 5.53084C27.6057 5.98916 27.8501 6.6308 27.8501 7.42522V12.375H26.5669V8.09741C26.5669 7.36411 26.4141 6.81413 26.1086 6.44747C25.803 6.08082 25.3141 5.89749 24.6725 5.89749C24.3058 5.89749 23.9697 5.9586 23.6642 6.11137C23.3587 6.23359 23.1142 6.44747 22.9003 6.69191C22.7476 6.87524 22.6254 7.08912 22.5643 7.33355C22.5031 7.57799 22.4726 8.00575 22.4726 8.61684V12.375H21.2198Z" fill="white"/>
<path d="M40.9264 8.92193H35.1822V9.04415C35.1822 9.80801 35.3961 10.4497 35.8544 10.9385C36.3127 11.4274 36.8627 11.6413 37.596 11.6413C38.0849 11.6413 38.5126 11.5191 38.9098 11.2441C39.307 10.9691 39.6431 10.6024 39.9487 10.0524L40.8959 10.6941C40.5292 11.3357 40.0709 11.8552 39.4903 12.1913C38.9098 12.5274 38.2682 12.6801 37.5349 12.6801C36.4349 12.6801 35.5488 12.3135 34.8461 11.5802C34.1739 10.8469 33.8378 9.89967 33.8378 8.70805C33.8378 7.57754 34.1739 6.63035 34.8461 5.9276C35.5183 5.19429 36.4044 4.82764 37.4432 4.82764C38.5126 4.82764 39.3682 5.16374 39.9792 5.86649C40.6209 6.56924 40.9264 7.48587 40.9264 8.6775V8.92193ZM39.582 7.91363C39.5515 7.27199 39.3376 6.78312 38.9404 6.44702C38.5432 6.11092 38.0237 5.9276 37.3515 5.9276C36.7404 5.9276 36.2516 6.11092 35.8544 6.47758C35.4572 6.84423 35.2127 7.3331 35.1516 7.94419H39.582V7.91363Z" fill="white"/>
<path d="M42.5459 12.3752V0.0618134H43.8292V12.3447H42.5459V12.3752Z" fill="white"/>
<path d="M57.3656 5.10237V12.3743H56.174V11.0605C55.8684 11.5799 55.5017 12.0077 55.074 12.2827C54.6157 12.5577 54.1268 12.7104 53.5463 12.7104C52.5074 12.7104 51.6519 12.3438 51.0408 11.641C50.3992 10.9383 50.0936 9.99108 50.0936 8.79946C50.0936 7.60783 50.3992 6.66065 51.0103 5.95789C51.6213 5.25514 52.4463 4.88849 53.4852 4.88849C54.0963 4.88849 54.6157 5.01071 55.074 5.2857C55.5323 5.56069 55.8684 5.95789 56.1434 6.50787V5.13292H57.3656V5.10237ZM56.1434 8.79946C56.1434 7.97449 55.9295 7.33284 55.4712 6.81342C55.0129 6.32455 54.4324 6.04956 53.7296 6.04956C52.9963 6.04956 52.4158 6.29399 51.988 6.75231C51.5602 7.21063 51.3464 7.85227 51.3464 8.67724C51.3464 9.56332 51.5602 10.2355 51.988 10.6938C52.4158 11.1827 52.9963 11.3966 53.7907 11.3966C54.524 11.3966 55.1045 11.1521 55.5323 10.6938C55.9295 10.2661 56.1434 9.62443 56.1434 8.79946Z" fill="white"/>
<path d="M59.5344 15.8888V5.10308H60.726V6.47803C61.001 5.9586 61.3677 5.56139 61.826 5.2864C62.2843 5.01141 62.8037 4.85864 63.3537 4.85864C64.3926 4.85864 65.2481 5.2253 65.8897 5.92805C66.5314 6.6308 66.8369 7.57799 66.8369 8.76961C66.8369 9.96123 66.5314 10.9084 65.8897 11.6417C65.2786 12.3445 64.4231 12.7111 63.3843 12.7111C62.7732 12.7111 62.2538 12.5889 61.826 12.3139C61.3677 12.0389 61.0316 11.6417 60.726 11.0917V15.8888H59.5344ZM60.726 8.76961C60.726 9.59458 60.9399 10.2362 61.3982 10.7251C61.8566 11.214 62.4371 11.4584 63.1704 11.4584C63.9037 11.4584 64.4537 11.2445 64.8814 10.7862C65.3092 10.3279 65.4925 9.7168 65.4925 8.92238C65.4925 8.0363 65.2787 7.33355 64.8814 6.81413C64.4537 6.2947 63.9037 6.05027 63.1398 6.05027C62.376 6.05027 61.7955 6.2947 61.3677 6.78357C60.9399 7.24189 60.726 7.91409 60.726 8.76961Z" fill="white"/>
<path d="M67.9371 8.7689C67.9371 8.24948 68.0288 7.73005 68.2427 7.27173C68.426 6.81342 68.7315 6.38566 69.0982 6.019C69.4648 5.65235 69.8926 5.37736 70.3815 5.16348C70.8704 4.98015 71.3592 4.88849 71.9092 4.88849C72.4286 4.88849 72.948 4.98015 73.4063 5.19403C73.8647 5.37736 74.323 5.6829 74.6897 6.04956C75.0563 6.41621 75.3618 6.84397 75.5452 7.30229C75.7285 7.76061 75.8507 8.28003 75.8507 8.79946C75.8507 9.31888 75.759 9.83831 75.5452 10.2966C75.3618 10.7549 75.0563 11.1827 74.6897 11.5494C74.2924 11.916 73.8647 12.2216 73.4063 12.4354C72.9175 12.6493 72.4286 12.741 71.9092 12.741C71.3898 12.741 70.8704 12.6493 70.3815 12.4354C69.8926 12.2521 69.4648 11.9466 69.0982 11.5799C68.7315 11.2133 68.426 10.7855 68.2427 10.2966C68.0288 9.7772 67.9371 9.28833 67.9371 8.7689ZM69.251 8.7689C69.251 9.53276 69.4954 10.1744 70.0148 10.7244C70.5342 11.2438 71.1453 11.5188 71.8786 11.5188C72.6119 11.5188 73.223 11.2438 73.7119 10.7244C74.2313 10.205 74.4758 9.53276 74.4758 8.7689C74.4758 8.00504 74.2313 7.3634 73.7119 6.81342C73.1925 6.29399 72.5814 6.019 71.8786 6.019C71.1453 6.019 70.5342 6.29399 70.0148 6.81342C69.4954 7.33284 69.251 7.97449 69.251 8.7689Z" fill="white"/>
<path d="M77.1636 15.889L79.119 11.642L76.2775 5.10333H77.7135L79.8218 10.3281L82.0523 5.10333H83.4272L78.5385 15.889H77.1636Z" fill="white"/>
<path d="M83.7035 8.7689C83.7035 8.24948 83.7952 7.73005 84.009 7.27173C84.1924 6.81342 84.4979 6.38566 84.8645 6.019C85.2312 5.65235 85.659 5.37736 86.1478 5.16348C86.6367 4.98015 87.1256 4.88849 87.6756 4.88849C88.195 4.88849 88.7144 4.98015 89.1727 5.19403C89.6311 5.37736 90.0894 5.6829 90.456 6.04956C90.8227 6.41621 91.1282 6.84397 91.3116 7.30229C91.4949 7.76061 91.6171 8.28003 91.6171 8.79946C91.6171 9.31888 91.5254 9.83831 91.3116 10.2966C91.1282 10.7549 90.8227 11.1827 90.456 11.5494C90.0588 11.916 89.6311 12.2216 89.1727 12.4354C88.6839 12.6493 88.195 12.741 87.6756 12.741C87.1561 12.741 86.6367 12.6493 86.1478 12.4354C85.659 12.2521 85.2312 11.9466 84.8645 11.5799C84.4979 11.2133 84.1924 10.7855 84.009 10.2966C83.7952 9.7772 83.7035 9.28833 83.7035 8.7689ZM85.0173 8.7689C85.0173 9.53276 85.2617 10.1744 85.7812 10.7244C86.3006 11.2438 86.9117 11.5188 87.645 11.5188C88.3783 11.5188 88.9894 11.2438 89.4783 10.7244C89.9977 10.205 90.2421 9.53276 90.2421 8.7689C90.2421 8.00504 89.9977 7.3634 89.4783 6.81342C88.9589 6.29399 88.3478 6.019 87.645 6.019C86.9117 6.019 86.3006 6.29399 85.7812 6.81342C85.2617 7.33284 85.0173 7.97449 85.0173 8.7689Z" fill="white"/>
<path d="M104.45 0.0613619V12.3442H103.259V11.0304C102.984 11.5498 102.617 11.947 102.159 12.222C101.701 12.497 101.181 12.6498 100.631 12.6498C99.5923 12.6498 98.7367 12.2831 98.1256 11.5804C97.484 10.8776 97.1785 9.93045 97.1785 8.73882C97.1785 7.5472 97.484 6.60001 98.1256 5.89726C98.7367 5.19451 99.5923 4.82785 100.631 4.82785C101.242 4.82785 101.762 4.95007 102.189 5.22506C102.617 5.50005 102.984 5.89726 103.259 6.44724V0.0308075H104.45V0.0613619ZM103.259 8.76938C103.259 7.97496 103.045 7.30276 102.587 6.81389C102.128 6.32502 101.548 6.08059 100.814 6.08059C100.081 6.08059 99.5006 6.29447 99.1034 6.75278C98.7062 7.2111 98.4923 7.82219 98.4923 8.6166C98.4923 9.50268 98.7062 10.2054 99.134 10.7249C99.5617 11.2443 100.142 11.4887 100.876 11.4887C101.639 11.4887 102.22 11.2443 102.678 10.786C103.137 10.3277 103.259 9.6249 103.259 8.76938Z" fill="white"/>
<path d="M113.157 8.92193H107.412V9.04415C107.412 9.80801 107.626 10.4497 108.085 10.9385C108.543 11.4274 109.093 11.6413 109.826 11.6413C110.315 11.6413 110.743 11.5191 111.14 11.2441C111.537 10.9691 111.873 10.6024 112.179 10.0524L113.126 10.6941C112.759 11.3357 112.301 11.8552 111.721 12.1913C111.14 12.5274 110.498 12.6801 109.765 12.6801C108.665 12.6801 107.779 12.3135 107.076 11.5802C106.404 10.8469 106.068 9.89967 106.068 8.70805C106.068 7.57754 106.404 6.63035 107.076 5.9276C107.749 5.19429 108.635 4.82764 109.673 4.82764C110.743 4.82764 111.598 5.16374 112.209 5.86649C112.851 6.56924 113.157 7.48587 113.157 8.6775V8.92193ZM111.843 7.91363C111.812 7.27199 111.598 6.78312 111.201 6.44702C110.804 6.11092 110.284 5.9276 109.612 5.9276C109.001 5.9276 108.512 6.11092 108.115 6.47758C107.718 6.84423 107.474 7.3331 107.412 7.94419H111.843V7.91363Z" fill="white"/>
<path d="M115.113 6.23314C115.113 5.9887 115.204 5.74427 115.388 5.56094C115.571 5.37761 115.785 5.28595 116.06 5.28595C116.304 5.28595 116.549 5.37761 116.732 5.56094C116.915 5.74427 117.007 5.95815 117.007 6.23314C117.007 6.50813 116.915 6.72201 116.732 6.90534C116.549 7.08866 116.335 7.18032 116.06 7.18032C115.785 7.18032 115.571 7.08866 115.388 6.90534C115.204 6.72201 115.113 6.50813 115.113 6.23314ZM115.113 11.5802C115.113 11.3357 115.204 11.0913 115.388 10.908C115.571 10.7246 115.785 10.633 116.06 10.633C116.304 10.633 116.549 10.7246 116.732 10.908C116.915 11.0913 117.007 11.3052 117.007 11.5802C117.007 11.8246 116.915 12.069 116.732 12.2524C116.549 12.4357 116.335 12.5274 116.06 12.5274C115.785 12.5274 115.571 12.4357 115.388 12.2524C115.204 12.0385 115.113 11.8246 115.113 11.5802Z" fill="white"/>
</svg>
