<svg width="80" height="80" viewBox="0 0 80 80" fill="none" xmlns="http://www.w3.org/2000/svg">
<circle cx="40" cy="40" r="40" fill="#25A7EF"/>
<path d="M35.3541 33.402L32.5461 33.48C31.6101 33.48 30.1021 33.298 28.0221 32.934C27.0341 30.23 26.5141 26.824 26.4621 22.716C27.8661 21.312 29.8681 20.012 32.4681 18.816C35.1201 17.568 37.6161 16.944 39.9561 16.944C44.7401 16.944 48.5881 18.166 51.5001 20.61C54.4641 23.054 55.9461 25.888 55.9461 29.112C55.9461 32.336 55.2441 35.17 53.8401 37.614C52.4361 40.058 49.9401 42.84 46.3521 45.96L38.1621 53.058H46.6641C47.2361 48.95 47.6001 46.636 47.7561 46.116C48.3801 46.012 49.3421 45.96 50.6421 45.96C51.9421 45.96 53.2941 46.246 54.6981 46.818C55.4261 50.458 55.7901 53.942 55.7901 57.27L55.7121 60H27.2421C26.3581 58.128 25.9161 56.126 25.9161 53.994C37.2521 43.074 43.4921 36.6 44.6361 34.572C45.3121 33.376 45.6501 31.634 45.6501 29.346C45.6501 28.098 45.1301 26.876 44.0901 25.68C43.0501 24.484 41.4641 23.886 39.3321 23.886C38.3441 23.886 37.6161 23.912 37.1481 23.964C36.8881 25.108 36.5501 26.85 36.1341 29.19C35.7181 31.478 35.4581 32.882 35.3541 33.402Z" fill="#D9D9D9"/>
</svg>
