<svg width="80" height="80" viewBox="0 0 80 80" fill="none" xmlns="http://www.w3.org/2000/svg">
<circle cx="40" cy="40" r="40" fill="#25A7EF"/>
<path d="M44.8043 30.282C44.8043 25.862 42.4643 23.652 37.7843 23.652C37.3163 23.652 36.7183 23.704 35.9903 23.808L34.1963 33.324C30.5563 33.324 28.1383 33.168 26.9423 32.856C25.9023 29.944 25.3823 26.798 25.3823 23.418V22.716C26.5783 21.26 28.5283 19.96 31.2323 18.816C33.9883 17.62 36.3803 17.022 38.4083 17.022C43.2443 17.022 47.2223 18.218 50.3423 20.61C53.4623 22.95 55.0223 25.836 55.0223 29.268C55.0223 33.792 52.7603 37.484 48.2363 40.344C50.7323 41.124 52.8383 42.658 54.5543 44.946C56.2703 47.182 57.1283 50.016 57.1283 53.448C57.1283 56.88 56.0103 60 53.7743 62.808C51.5383 65.668 48.9383 67.748 45.9743 69.048C43.0103 70.4 39.7863 71.076 36.3023 71.076C32.8703 71.076 28.8663 70.296 24.2903 68.736C24.3943 66.084 24.9663 64.004 26.0063 62.496L28.3463 62.964C30.8423 63.588 32.8703 63.9 34.4303 63.9C36.0423 63.9 37.2643 63.822 38.0963 63.666C38.9283 63.51 40.0983 63.172 41.6063 62.652C43.1143 62.132 44.3623 61.17 45.3503 59.766C46.3383 58.362 46.8323 56.49 46.8323 54.15C46.8323 51.81 46.0263 49.86 44.4143 48.3C42.8023 46.688 40.7223 45.882 38.1743 45.882C38.0183 45.882 36.2243 46.038 32.7923 46.35C32.2723 44.166 32.0123 42.736 32.0123 42.06C32.0123 41.384 32.0643 40.526 32.1683 39.486L36.7703 38.862C39.0063 38.55 40.9043 37.64 42.4643 36.132C44.0243 34.572 44.8043 32.622 44.8043 30.282Z" fill="#D9D9D9"/>
</svg>
