<svg width="80" height="80" viewBox="0 0 80 80" fill="none" xmlns="http://www.w3.org/2000/svg">
<circle cx="40" cy="40" r="40" fill="#25A7EF"/>
<path d="M60.1932 50.796L60.2712 52.59C60.2712 54.618 59.8292 56.386 58.9452 57.894H52.2372L51.6912 70.062C50.8072 70.27 49.6112 70.374 48.1032 70.374C46.5952 70.374 45.2172 70.296 43.9692 70.14L43.4232 57.894H21.9732C20.9332 56.386 20.4132 54.8 20.4132 53.136C20.4132 52.72 20.4652 52.408 20.5692 52.2L40.4592 17.88H53.0952C53.0952 18.088 52.8612 29.034 52.3932 50.718L60.1932 50.796ZM43.2672 50.64L42.7212 31.062L31.0992 50.796C33.8032 50.796 37.8592 50.744 43.2672 50.64Z" fill="#D9D9D9"/>
</svg>
