<svg width="211" height="129" viewBox="0 0 211 129" fill="none" xmlns="http://www.w3.org/2000/svg">
<path d="M209.185 2H1.81499V127H180.83H209.185V2Z" fill="#014979" stroke="#F6F4F3" stroke-width="3" stroke-dasharray="10 10"/>
<path d="M57.5826 18.3636C57.523 17.8598 57.281 17.4688 56.8568 17.1903C56.4325 16.9119 55.9122 16.7727 55.2957 16.7727C54.8449 16.7727 54.4505 16.8456 54.1124 16.9915C53.7777 17.1373 53.5159 17.3378 53.3269 17.593C53.1413 17.8482 53.0485 18.1383 53.0485 18.4631C53.0485 18.7348 53.1132 18.9685 53.2424 19.1641C53.375 19.3563 53.544 19.517 53.7495 19.6463C53.955 19.7723 54.1705 19.8767 54.3958 19.9595C54.6212 20.0391 54.8284 20.1037 55.0173 20.1534L56.0514 20.4318C56.3165 20.5014 56.6115 20.5975 56.9363 20.7202C57.2644 20.8428 57.5776 21.0102 57.8759 21.2223C58.1776 21.4311 58.4261 21.6996 58.6217 22.0277C58.8172 22.3558 58.915 22.7585 58.915 23.2358C58.915 23.786 58.7708 24.2831 58.4825 24.7273C58.1974 25.1714 57.7798 25.5244 57.2296 25.7862C56.6828 26.0481 56.0182 26.179 55.236 26.179C54.5069 26.179 53.8755 26.0613 53.3419 25.826C52.8115 25.5907 52.3939 25.2625 52.089 24.8416C51.7874 24.4207 51.6167 23.9318 51.5769 23.375H52.8497C52.8828 23.7595 53.0121 24.0777 53.2374 24.3295C53.4661 24.5781 53.7545 24.7637 54.1025 24.8864C54.4538 25.0057 54.8317 25.0653 55.236 25.0653C55.7067 25.0653 56.1293 24.9891 56.5038 24.8366C56.8783 24.6809 57.1749 24.4654 57.3937 24.1903C57.6124 23.9119 57.7218 23.5871 57.7218 23.2159C57.7218 22.8778 57.6274 22.6027 57.4384 22.3906C57.2495 22.1785 57.0009 22.0062 56.6927 21.8736C56.3845 21.741 56.0514 21.625 55.6934 21.5256L54.4406 21.1676C53.6451 20.9389 53.0154 20.6125 52.5514 20.1882C52.0874 19.764 51.8553 19.2088 51.8553 18.5227C51.8553 17.9527 52.0095 17.4555 52.3177 17.0312C52.6293 16.6037 53.0469 16.2723 53.5705 16.0369C54.0975 15.7983 54.6858 15.679 55.3355 15.679C55.9917 15.679 56.575 15.7966 57.0855 16.032C57.5959 16.264 58.0002 16.5821 58.2985 16.9865C58.6001 17.3909 58.7592 17.8499 58.7758 18.3636H57.5826ZM61.0631 26V18.3636H62.2364V26H61.0631ZM61.6597 17.0909C61.431 17.0909 61.2338 17.013 61.0681 16.8572C60.9056 16.7015 60.8244 16.5142 60.8244 16.2955C60.8244 16.0767 60.9056 15.8894 61.0681 15.7337C61.2338 15.5779 61.431 15.5 61.6597 15.5C61.8884 15.5 62.0839 15.5779 62.2463 15.7337C62.412 15.8894 62.4949 16.0767 62.4949 16.2955C62.4949 16.5142 62.412 16.7015 62.2463 16.8572C62.0839 17.013 61.8884 17.0909 61.6597 17.0909ZM74.0931 28.8636V24.8267H73.9936C73.9075 24.9659 73.7848 25.1416 73.6257 25.3537C73.4667 25.5625 73.2396 25.7498 72.9446 25.9155C72.6497 26.0779 72.2569 26.1591 71.7664 26.1591C71.13 26.1591 70.5682 25.9983 70.081 25.6768C69.5938 25.352 69.2126 24.8946 68.9375 24.3047C68.6624 23.7114 68.5249 23.0104 68.5249 22.2017C68.5249 21.3996 68.6624 20.7036 68.9375 20.1136C69.2126 19.5237 69.5954 19.0679 70.086 18.7464C70.5765 18.425 71.1433 18.2642 71.7863 18.2642C72.2834 18.2642 72.6762 18.3471 72.9645 18.5128C73.2562 18.6752 73.4783 18.8608 73.6307 19.0696C73.7865 19.2751 73.9075 19.4441 73.9936 19.5767H74.1328V18.3636H75.2664V28.8636H74.0931ZM71.9255 25.1051C72.3961 25.1051 72.7938 24.9825 73.1186 24.7372C73.4435 24.4886 73.6904 24.1456 73.8594 23.7081C74.0284 23.2673 74.113 22.7585 74.113 22.1818C74.113 21.6117 74.0301 21.1129 73.8644 20.6854C73.6987 20.2545 73.4534 19.9197 73.1286 19.6811C72.8038 19.4392 72.4027 19.3182 71.9255 19.3182C71.4283 19.3182 71.014 19.4458 70.6826 19.701C70.3544 19.9529 70.1075 20.2959 69.9418 20.7301C69.7794 21.161 69.6982 21.6449 69.6982 22.1818C69.6982 22.7254 69.781 23.2192 69.9468 23.6634C70.1158 24.1042 70.3644 24.4555 70.6925 24.7173C71.0239 24.9759 71.4349 25.1051 71.9255 25.1051ZM82.5066 22.8778V18.3636H83.6799V26H82.5066V24.7074H82.4271C82.2481 25.0952 81.9697 25.425 81.5918 25.6967C81.214 25.9652 80.7367 26.0994 80.16 26.0994C79.6827 26.0994 79.2585 25.995 78.8873 25.7862C78.5161 25.5741 78.2244 25.2559 78.0123 24.8317C77.8002 24.4041 77.6941 23.8655 77.6941 23.2159V18.3636H78.8674V23.1364C78.8674 23.6932 79.0232 24.1373 79.3347 24.4688C79.6496 24.8002 80.0506 24.9659 80.5378 24.9659C80.8295 24.9659 81.1262 24.8913 81.4278 24.7422C81.7327 24.593 81.9879 24.3643 82.1934 24.0561C82.4022 23.7479 82.5066 23.3551 82.5066 22.8778ZM86.1089 26V18.3636H87.2822V26H86.1089ZM86.7055 17.0909C86.4768 17.0909 86.2796 17.013 86.1138 16.8572C85.9514 16.7015 85.8702 16.5142 85.8702 16.2955C85.8702 16.0767 85.9514 15.8894 86.1138 15.7337C86.2796 15.5779 86.4768 15.5 86.7055 15.5C86.9341 15.5 87.1297 15.5779 87.2921 15.7337C87.4578 15.8894 87.5407 16.0767 87.5407 16.2955C87.5407 16.5142 87.4578 16.7015 87.2921 16.8572C87.1297 17.013 86.9341 17.0909 86.7055 17.0909ZM92.9128 26.1591C92.177 26.1591 91.5423 25.9967 91.0087 25.6719C90.4784 25.3438 90.0691 24.8864 89.7807 24.2997C89.4957 23.7098 89.3532 23.0237 89.3532 22.2415C89.3532 21.4593 89.4957 20.7699 89.7807 20.1733C90.0691 19.5734 90.4701 19.1061 90.9839 18.7713C91.5009 18.4332 92.1041 18.2642 92.7935 18.2642C93.1912 18.2642 93.584 18.3305 93.9718 18.4631C94.3596 18.5956 94.7125 18.8111 95.0307 19.1094C95.3489 19.4044 95.6025 19.7955 95.7914 20.2827C95.9803 20.7699 96.0748 21.3698 96.0748 22.0824V22.5795H90.1884V21.5653H94.8816C94.8816 21.1345 94.7954 20.75 94.6231 20.4119C94.454 20.0739 94.2121 19.8071 93.8972 19.6115C93.5857 19.416 93.2178 19.3182 92.7935 19.3182C92.3262 19.3182 91.9218 19.4342 91.5804 19.6662C91.2424 19.8949 90.9822 20.1932 90.7999 20.5611C90.6176 20.929 90.5265 21.3234 90.5265 21.7443V22.4205C90.5265 22.9972 90.6259 23.486 90.8248 23.8871C91.0269 24.2848 91.307 24.5881 91.665 24.7969C92.0229 25.0024 92.4389 25.1051 92.9128 25.1051C93.2211 25.1051 93.4995 25.062 93.7481 24.9759C94 24.8864 94.217 24.7538 94.3993 24.5781C94.5816 24.3991 94.7225 24.1771 94.8219 23.9119L95.9554 24.2301C95.8361 24.6146 95.6356 24.9527 95.3539 25.2443C95.0722 25.5327 94.7241 25.758 94.3098 25.9205C93.8956 26.0795 93.4299 26.1591 92.9128 26.1591ZM98.1396 26V18.3636H99.2731V19.517H99.3526C99.4918 19.1392 99.7437 18.8326 100.108 18.5973C100.473 18.362 100.884 18.2443 101.341 18.2443C101.427 18.2443 101.535 18.246 101.664 18.2493C101.794 18.2526 101.891 18.2576 101.958 18.2642V19.4574C101.918 19.4474 101.827 19.4325 101.684 19.4126C101.545 19.3894 101.398 19.3778 101.242 19.3778C100.871 19.3778 100.539 19.4557 100.248 19.6115C99.9592 19.764 99.7305 19.9761 99.5614 20.2479C99.3957 20.5163 99.3129 20.8229 99.3129 21.1676V26H98.1396ZM106.598 26.1591C105.862 26.1591 105.227 25.9967 104.694 25.6719C104.163 25.3438 103.754 24.8864 103.466 24.2997C103.181 23.7098 103.038 23.0237 103.038 22.2415C103.038 21.4593 103.181 20.7699 103.466 20.1733C103.754 19.5734 104.155 19.1061 104.669 18.7713C105.186 18.4332 105.789 18.2642 106.479 18.2642C106.876 18.2642 107.269 18.3305 107.657 18.4631C108.045 18.5956 108.398 18.8111 108.716 19.1094C109.034 19.4044 109.287 19.7955 109.476 20.2827C109.665 20.7699 109.76 21.3698 109.76 22.0824V22.5795H103.873V21.5653H108.567C108.567 21.1345 108.48 20.75 108.308 20.4119C108.139 20.0739 107.897 19.8071 107.582 19.6115C107.271 19.416 106.903 19.3182 106.479 19.3182C106.011 19.3182 105.607 19.4342 105.265 19.6662C104.927 19.8949 104.667 20.1932 104.485 20.5611C104.303 20.929 104.211 21.3234 104.211 21.7443V22.4205C104.211 22.9972 104.311 23.486 104.51 23.8871C104.712 24.2848 104.992 24.5881 105.35 24.7969C105.708 25.0024 106.124 25.1051 106.598 25.1051C106.906 25.1051 107.184 25.062 107.433 24.9759C107.685 24.8864 107.902 24.7538 108.084 24.5781C108.267 24.3991 108.407 24.1771 108.507 23.9119L109.64 24.2301C109.521 24.6146 109.321 24.9527 109.039 25.2443C108.757 25.5327 108.409 25.758 107.995 25.9205C107.581 26.0795 107.115 26.1591 106.598 26.1591ZM117.234 20.0739L116.18 20.3722C116.113 20.1965 116.016 20.0258 115.886 19.8601C115.76 19.6911 115.588 19.5518 115.369 19.4425C115.151 19.3331 114.87 19.2784 114.529 19.2784C114.062 19.2784 113.672 19.3861 113.361 19.6016C113.053 19.8137 112.898 20.0838 112.898 20.4119C112.898 20.7036 113.004 20.9339 113.217 21.103C113.429 21.272 113.76 21.4129 114.211 21.5256L115.344 21.804C116.027 21.9697 116.536 22.2232 116.871 22.5646C117.205 22.9027 117.373 23.3385 117.373 23.8722C117.373 24.3097 117.247 24.7008 116.995 25.0455C116.746 25.3902 116.398 25.6619 115.951 25.8608C115.504 26.0597 114.983 26.1591 114.39 26.1591C113.611 26.1591 112.966 25.9901 112.456 25.652C111.946 25.3139 111.622 24.8201 111.486 24.1705L112.6 23.892C112.706 24.303 112.907 24.6113 113.202 24.8168C113.5 25.0223 113.889 25.125 114.37 25.125C114.917 25.125 115.351 25.009 115.673 24.777C115.997 24.5417 116.16 24.2599 116.16 23.9318C116.16 23.6667 116.067 23.4446 115.881 23.2656C115.696 23.0833 115.411 22.9474 115.026 22.858L113.754 22.5597C113.054 22.3939 112.54 22.1371 112.212 21.7891C111.888 21.4377 111.725 20.9986 111.725 20.4716C111.725 20.0407 111.846 19.6596 112.088 19.3281C112.333 18.9967 112.666 18.7365 113.087 18.5476C113.512 18.3587 113.992 18.2642 114.529 18.2642C115.285 18.2642 115.878 18.4299 116.309 18.7614C116.743 19.0928 117.051 19.5303 117.234 20.0739ZM129.046 20.0739L127.992 20.3722C127.925 20.1965 127.828 20.0258 127.698 19.8601C127.572 19.6911 127.4 19.5518 127.181 19.4425C126.963 19.3331 126.682 19.2784 126.341 19.2784C125.874 19.2784 125.484 19.3861 125.173 19.6016C124.864 19.8137 124.71 20.0838 124.71 20.4119C124.71 20.7036 124.816 20.9339 125.029 21.103C125.241 21.272 125.572 21.4129 126.023 21.5256L127.156 21.804C127.839 21.9697 128.348 22.2232 128.683 22.5646C129.017 22.9027 129.185 23.3385 129.185 23.8722C129.185 24.3097 129.059 24.7008 128.807 25.0455C128.558 25.3902 128.21 25.6619 127.763 25.8608C127.315 26.0597 126.795 26.1591 126.202 26.1591C125.423 26.1591 124.778 25.9901 124.268 25.652C123.757 25.3139 123.434 24.8201 123.298 24.1705L124.412 23.892C124.518 24.303 124.719 24.6113 125.014 24.8168C125.312 25.0223 125.701 25.125 126.182 25.125C126.729 25.125 127.163 25.009 127.485 24.777C127.809 24.5417 127.972 24.2599 127.972 23.9318C127.972 23.6667 127.879 23.4446 127.693 23.2656C127.508 23.0833 127.223 22.9474 126.838 22.858L125.565 22.5597C124.866 22.3939 124.352 22.1371 124.024 21.7891C123.699 21.4377 123.537 20.9986 123.537 20.4716C123.537 20.0407 123.658 19.6596 123.9 19.3281C124.145 18.9967 124.478 18.7365 124.899 18.5476C125.324 18.3587 125.804 18.2642 126.341 18.2642C127.097 18.2642 127.69 18.4299 128.121 18.7614C128.555 19.0928 128.863 19.5303 129.046 20.0739ZM133.478 26.179C132.994 26.179 132.555 26.0878 132.161 25.9055C131.766 25.7199 131.453 25.4531 131.221 25.1051C130.989 24.7538 130.873 24.3295 130.873 23.8324C130.873 23.3949 130.959 23.0402 131.132 22.7685C131.304 22.4934 131.534 22.2779 131.823 22.1222C132.111 21.9664 132.429 21.8504 132.777 21.7741C133.128 21.6946 133.481 21.6316 133.836 21.5852C134.3 21.5256 134.676 21.4808 134.965 21.451C135.256 21.4179 135.468 21.3632 135.601 21.2869C135.737 21.2107 135.805 21.0781 135.805 20.8892V20.8494C135.805 20.3589 135.671 19.9777 135.402 19.706C135.137 19.4342 134.734 19.2983 134.194 19.2983C133.634 19.2983 133.195 19.4209 132.877 19.6662C132.558 19.9115 132.335 20.1733 132.205 20.4517L131.092 20.054C131.291 19.59 131.556 19.2287 131.887 18.9702C132.222 18.7083 132.587 18.526 132.981 18.4233C133.379 18.3172 133.77 18.2642 134.154 18.2642C134.4 18.2642 134.681 18.294 134.999 18.3537C135.321 18.41 135.631 18.5277 135.929 18.7067C136.231 18.8857 136.481 19.1558 136.68 19.517C136.879 19.8783 136.978 20.3622 136.978 20.9688V26H135.805V24.9659H135.745C135.666 25.1316 135.533 25.3089 135.347 25.4979C135.162 25.6868 134.915 25.8475 134.607 25.9801C134.298 26.1127 133.922 26.179 133.478 26.179ZM133.657 25.125C134.121 25.125 134.512 25.0339 134.83 24.8516C135.152 24.6693 135.394 24.4339 135.556 24.1456C135.722 23.8572 135.805 23.554 135.805 23.2358V22.1619C135.755 22.2216 135.646 22.2763 135.477 22.326C135.311 22.3724 135.119 22.4138 134.9 22.4503C134.685 22.4834 134.474 22.5133 134.269 22.5398C134.066 22.563 133.902 22.5829 133.776 22.5994C133.471 22.6392 133.186 22.7038 132.921 22.7933C132.659 22.8795 132.447 23.0104 132.285 23.1861C132.126 23.3584 132.046 23.5937 132.046 23.892C132.046 24.2997 132.197 24.608 132.499 24.8168C132.804 25.0223 133.19 25.125 133.657 25.125ZM139.559 26V15.8182H140.732V19.5767H140.831C140.918 19.4441 141.037 19.2751 141.189 19.0696C141.345 18.8608 141.567 18.6752 141.856 18.5128C142.147 18.3471 142.542 18.2642 143.039 18.2642C143.682 18.2642 144.249 18.425 144.739 18.7464C145.23 19.0679 145.612 19.5237 145.888 20.1136C146.163 20.7036 146.3 21.3996 146.3 22.2017C146.3 23.0104 146.163 23.7114 145.888 24.3047C145.612 24.8946 145.231 25.352 144.744 25.6768C144.257 25.9983 143.695 26.1591 143.059 26.1591C142.568 26.1591 142.175 26.0779 141.88 25.9155C141.585 25.7498 141.358 25.5625 141.199 25.3537C141.04 25.1416 140.918 24.9659 140.831 24.8267H140.692V26H139.559ZM140.712 22.1818C140.712 22.7585 140.797 23.2673 140.966 23.7081C141.135 24.1456 141.382 24.4886 141.706 24.7372C142.031 24.9825 142.429 25.1051 142.9 25.1051C143.39 25.1051 143.799 24.9759 144.128 24.7173C144.459 24.4555 144.708 24.1042 144.873 23.6634C145.042 23.2192 145.127 22.7254 145.127 22.1818C145.127 21.6449 145.044 21.161 144.878 20.7301C144.716 20.2959 144.469 19.9529 144.138 19.701C143.809 19.4458 143.397 19.3182 142.9 19.3182C142.422 19.3182 142.021 19.4392 141.697 19.6811C141.372 19.9197 141.126 20.2545 140.961 20.6854C140.795 21.1129 140.712 21.6117 140.712 22.1818ZM151.577 26.1591C150.841 26.1591 150.206 25.9967 149.673 25.6719C149.142 25.3438 148.733 24.8864 148.445 24.2997C148.16 23.7098 148.017 23.0237 148.017 22.2415C148.017 21.4593 148.16 20.7699 148.445 20.1733C148.733 19.5734 149.134 19.1061 149.648 18.7713C150.165 18.4332 150.768 18.2642 151.457 18.2642C151.855 18.2642 152.248 18.3305 152.636 18.4631C153.023 18.5956 153.376 18.8111 153.695 19.1094C154.013 19.4044 154.266 19.7955 154.455 20.2827C154.644 20.7699 154.739 21.3698 154.739 22.0824V22.5795H148.852V21.5653H153.545C153.545 21.1345 153.459 20.75 153.287 20.4119C153.118 20.0739 152.876 19.8071 152.561 19.6115C152.249 19.416 151.882 19.3182 151.457 19.3182C150.99 19.3182 150.586 19.4342 150.244 19.6662C149.906 19.8949 149.646 20.1932 149.464 20.5611C149.281 20.929 149.19 21.3234 149.19 21.7443V22.4205C149.19 22.9972 149.29 23.486 149.489 23.8871C149.691 24.2848 149.971 24.5881 150.329 24.7969C150.687 25.0024 151.103 25.1051 151.577 25.1051C151.885 25.1051 152.163 25.062 152.412 24.9759C152.664 24.8864 152.881 24.7538 153.063 24.5781C153.245 24.3991 153.386 24.1771 153.486 23.9119L154.619 24.2301C154.5 24.6146 154.299 24.9527 154.018 25.2443C153.736 25.5327 153.388 25.758 152.974 25.9205C152.559 26.0795 152.094 26.1591 151.577 26.1591ZM156.803 26V18.3636H157.937V19.517H158.016C158.156 19.1392 158.408 18.8326 158.772 18.5973C159.137 18.362 159.548 18.2443 160.005 18.2443C160.091 18.2443 160.199 18.246 160.328 18.2493C160.458 18.2526 160.555 18.2576 160.622 18.2642V19.4574C160.582 19.4474 160.491 19.4325 160.348 19.4126C160.209 19.3894 160.061 19.3778 159.906 19.3778C159.534 19.3778 159.203 19.4557 158.911 19.6115C158.623 19.764 158.394 19.9761 158.225 20.2479C158.06 20.5163 157.977 20.8229 157.977 21.1676V26H156.803ZM47.1591 43V35.3636H48.2926V36.5568H48.392C48.5511 36.1491 48.808 35.8326 49.1626 35.6072C49.5172 35.3786 49.9431 35.2642 50.4403 35.2642C50.9441 35.2642 51.3634 35.3786 51.6981 35.6072C52.0362 35.8326 52.2997 36.1491 52.4886 36.5568H52.5681C52.7637 36.1624 53.057 35.8492 53.4481 35.6172C53.8392 35.3819 54.3082 35.2642 54.8551 35.2642C55.5378 35.2642 56.0963 35.478 56.5305 35.9055C56.9647 36.3298 57.1818 36.991 57.1818 37.8892V43H56.0085V37.8892C56.0085 37.3258 55.8544 36.9231 55.5461 36.6811C55.2379 36.4392 54.875 36.3182 54.4574 36.3182C53.9204 36.3182 53.5045 36.4806 53.2095 36.8054C52.9145 37.1269 52.767 37.5346 52.767 38.0284V43H51.5738V37.7699C51.5738 37.3357 51.433 36.986 51.1512 36.7209C50.8695 36.4524 50.5066 36.3182 50.0625 36.3182C49.7575 36.3182 49.4725 36.3994 49.2074 36.5618C48.9455 36.7242 48.7334 36.9496 48.571 37.2379C48.4119 37.523 48.3324 37.8527 48.3324 38.2273V43H47.1591ZM61.8542 43.179C61.3703 43.179 60.9311 43.0878 60.5367 42.9055C60.1423 42.7199 59.8291 42.4531 59.5971 42.1051C59.3651 41.7538 59.2491 41.3295 59.2491 40.8324C59.2491 40.3949 59.3352 40.0402 59.5076 39.7685C59.6799 39.4934 59.9103 39.2779 60.1986 39.1222C60.487 38.9664 60.8052 38.8504 61.1532 38.7741C61.5045 38.6946 61.8575 38.6316 62.2121 38.5852C62.6762 38.5256 63.0523 38.4808 63.3407 38.451C63.6324 38.4179 63.8445 38.3632 63.9771 38.2869C64.1129 38.2107 64.1809 38.0781 64.1809 37.8892V37.8494C64.1809 37.3589 64.0467 36.9777 63.7782 36.706C63.513 36.4342 63.1103 36.2983 62.5701 36.2983C62.01 36.2983 61.5708 36.4209 61.2526 36.6662C60.9344 36.9115 60.7107 37.1733 60.5815 37.4517L59.4678 37.054C59.6667 36.59 59.9318 36.2287 60.2633 35.9702C60.598 35.7083 60.9626 35.526 61.357 35.4233C61.7548 35.3172 62.1459 35.2642 62.5303 35.2642C62.7756 35.2642 63.0573 35.294 63.3755 35.3537C63.697 35.41 64.0069 35.5277 64.3052 35.7067C64.6068 35.8857 64.857 36.1558 65.0559 36.517C65.2548 36.8783 65.3542 37.3622 65.3542 37.9688V43H64.1809V41.9659H64.1212C64.0417 42.1316 63.9091 42.3089 63.7235 42.4979C63.5379 42.6868 63.291 42.8475 62.9827 42.9801C62.6745 43.1127 62.2983 43.179 61.8542 43.179ZM62.0332 42.125C62.4972 42.125 62.8883 42.0339 63.2065 41.8516C63.528 41.6693 63.7699 41.4339 63.9323 41.1456C64.098 40.8572 64.1809 40.554 64.1809 40.2358V39.1619C64.1312 39.2216 64.0218 39.2763 63.8528 39.326C63.687 39.3724 63.4948 39.4138 63.2761 39.4503C63.0606 39.4834 62.8502 39.5133 62.6447 39.5398C62.4425 39.563 62.2784 39.5829 62.1525 39.5994C61.8476 39.6392 61.5625 39.7038 61.2974 39.7933C61.0355 39.8795 60.8234 40.0104 60.661 40.1861C60.5019 40.3584 60.4224 40.5937 60.4224 40.892C60.4224 41.2997 60.5732 41.608 60.8748 41.8168C61.1797 42.0223 61.5658 42.125 62.0332 42.125ZM62.0729 34.3295L63.286 32.0227H64.6582L63.107 34.3295H62.0729ZM73.1848 37.0739L72.1308 37.3722C72.0645 37.1965 71.9667 37.0258 71.8375 36.8601C71.7115 36.6911 71.5392 36.5518 71.3204 36.4425C71.1017 36.3331 70.8216 36.2784 70.4802 36.2784C70.0129 36.2784 69.6235 36.3861 69.3119 36.6016C69.0037 36.8137 68.8496 37.0838 68.8496 37.4119C68.8496 37.7036 68.9556 37.9339 69.1677 38.103C69.3799 38.272 69.7113 38.4129 70.1621 38.5256L71.2956 38.804C71.9783 38.9697 72.4871 39.2232 72.8219 39.5646C73.1566 39.9027 73.324 40.3385 73.324 40.8722C73.324 41.3097 73.198 41.7008 72.9462 42.0455C72.6976 42.3902 72.3496 42.6619 71.9021 42.8608C71.4547 43.0597 70.9343 43.1591 70.341 43.1591C69.5622 43.1591 68.9175 42.9901 68.4071 42.652C67.8967 42.3139 67.5735 41.8201 67.4376 41.1705L68.5513 40.892C68.6573 41.303 68.8578 41.6113 69.1528 41.8168C69.4511 42.0223 69.8406 42.125 70.3212 42.125C70.868 42.125 71.3022 42.009 71.6237 41.777C71.9485 41.5417 72.1109 41.2599 72.1109 40.9318C72.1109 40.6667 72.0181 40.4446 71.8325 40.2656C71.6469 40.0833 71.3619 39.9474 70.9774 39.858L69.7047 39.5597C69.0053 39.3939 68.4916 39.1371 68.1635 38.7891C67.8387 38.4377 67.6763 37.9986 67.6763 37.4716C67.6763 37.0407 67.7972 36.6596 68.0392 36.3281C68.2845 35.9967 68.6176 35.7365 69.0385 35.5476C69.4627 35.3587 69.9433 35.2642 70.4802 35.2642C71.2359 35.2642 71.8292 35.4299 72.2601 35.7614C72.6943 36.0928 73.0025 36.5303 73.1848 37.0739ZM79.5876 43V35.3636H80.7609V43H79.5876ZM80.1842 34.0909C79.9555 34.0909 79.7583 34.013 79.5926 33.8572C79.4302 33.7015 79.349 33.5142 79.349 33.2955C79.349 33.0767 79.4302 32.8894 79.5926 32.7337C79.7583 32.5779 79.9555 32.5 80.1842 32.5C80.4129 32.5 80.6085 32.5779 80.7709 32.7337C80.9366 32.8894 81.0195 33.0767 81.0195 33.2955C81.0195 33.5142 80.9366 33.7015 80.7709 33.8572C80.6085 34.013 80.4129 34.0909 80.1842 34.0909ZM84.3632 38.4062V43H83.1899V35.3636H84.3234V36.5568H84.4229C84.6019 36.169 84.8736 35.8575 85.2382 35.6222C85.6028 35.3835 86.0734 35.2642 86.6501 35.2642C87.1672 35.2642 87.6196 35.3703 88.0074 35.5824C88.3952 35.7912 88.6968 36.1094 88.9122 36.5369C89.1277 36.9612 89.2354 37.4981 89.2354 38.1477V43H88.0621V38.2273C88.0621 37.6274 87.9063 37.16 87.5947 36.8253C87.2832 36.4872 86.8556 36.3182 86.3121 36.3182C85.9376 36.3182 85.6028 36.3994 85.3078 36.5618C85.0161 36.7242 84.7858 36.9612 84.6168 37.2727C84.4477 37.5843 84.3632 37.9621 84.3632 38.4062ZM94.7418 46.0227C94.175 46.0227 93.6878 45.9498 93.2801 45.804C92.8724 45.6615 92.5327 45.4725 92.2609 45.2372C91.9925 45.0052 91.7787 44.7566 91.6196 44.4915L92.5543 43.8352C92.6603 43.9744 92.7946 44.1335 92.957 44.3125C93.1194 44.4948 93.3414 44.6522 93.6231 44.7848C93.9082 44.9207 94.2811 44.9886 94.7418 44.9886C95.3582 44.9886 95.867 44.8395 96.268 44.5412C96.6691 44.2429 96.8696 43.7756 96.8696 43.1392V41.5881H96.7702C96.684 41.7273 96.5614 41.8996 96.4023 42.1051C96.2465 42.3073 96.0211 42.4879 95.7261 42.647C95.4345 42.8028 95.0401 42.8807 94.5429 42.8807C93.9264 42.8807 93.3729 42.7348 92.8824 42.4432C92.3952 42.1515 92.009 41.7273 91.724 41.1705C91.4423 40.6136 91.3014 39.9375 91.3014 39.142C91.3014 38.3598 91.439 37.6787 91.7141 37.0987C91.9892 36.5154 92.372 36.0646 92.8625 35.7464C93.353 35.425 93.9198 35.2642 94.5628 35.2642C95.0599 35.2642 95.4544 35.3471 95.746 35.5128C96.041 35.6752 96.2664 35.8608 96.4222 36.0696C96.5812 36.2751 96.7039 36.4441 96.7901 36.5767H96.9094V35.3636H98.0429V43.2188C98.0429 43.875 97.8937 44.4086 97.5954 44.8196C97.3005 45.2339 96.9027 45.5372 96.4023 45.7294C95.9051 45.925 95.3516 46.0227 94.7418 46.0227ZM94.702 41.8267C95.1726 41.8267 95.5704 41.719 95.8952 41.5036C96.22 41.2881 96.4669 40.9782 96.6359 40.5739C96.805 40.1695 96.8895 39.6856 96.8895 39.1222C96.8895 38.572 96.8066 38.0864 96.6409 37.6655C96.4752 37.2446 96.2299 36.9148 95.9051 36.6761C95.5803 36.4375 95.1793 36.3182 94.702 36.3182C94.2048 36.3182 93.7905 36.4441 93.4591 36.696C93.131 36.9479 92.884 37.286 92.7183 37.7102C92.5559 38.1345 92.4747 38.6051 92.4747 39.1222C92.4747 39.6525 92.5576 40.1214 92.7233 40.5291C92.8923 40.9335 93.1409 41.2517 93.469 41.4837C93.8005 41.7124 94.2115 41.8267 94.702 41.8267ZM100.471 43V35.3636H101.604V36.517H101.684C101.823 36.1392 102.075 35.8326 102.439 35.5973C102.804 35.362 103.215 35.2443 103.672 35.2443C103.758 35.2443 103.866 35.246 103.995 35.2493C104.125 35.2526 104.223 35.2576 104.289 35.2642V36.4574C104.249 36.4474 104.158 36.4325 104.015 36.4126C103.876 36.3894 103.729 36.3778 103.573 36.3778C103.202 36.3778 102.87 36.4557 102.579 36.6115C102.29 36.764 102.062 36.9761 101.892 37.2479C101.727 37.5163 101.644 37.8229 101.644 38.1676V43H100.471ZM108.929 43.1591C108.193 43.1591 107.558 42.9967 107.025 42.6719C106.494 42.3438 106.085 41.8864 105.797 41.2997C105.512 40.7098 105.369 40.0237 105.369 39.2415C105.369 38.4593 105.512 37.7699 105.797 37.1733C106.085 36.5734 106.486 36.1061 107 35.7713C107.517 35.4332 108.12 35.2642 108.81 35.2642C109.207 35.2642 109.6 35.3305 109.988 35.4631C110.376 35.5956 110.729 35.8111 111.047 36.1094C111.365 36.4044 111.619 36.7955 111.807 37.2827C111.996 37.7699 112.091 38.3698 112.091 39.0824V39.5795H106.204V38.5653H110.898C110.898 38.1345 110.811 37.75 110.639 37.4119C110.47 37.0739 110.228 36.8071 109.913 36.6115C109.602 36.416 109.234 36.3182 108.81 36.3182C108.342 36.3182 107.938 36.4342 107.597 36.6662C107.258 36.8949 106.998 37.1932 106.816 37.5611C106.634 37.929 106.543 38.3234 106.543 38.7443V39.4205C106.543 39.9972 106.642 40.486 106.841 40.8871C107.043 41.2848 107.323 41.5881 107.681 41.7969C108.039 42.0024 108.455 42.1051 108.929 42.1051C109.237 42.1051 109.516 42.062 109.764 41.9759C110.016 41.8864 110.233 41.7538 110.415 41.5781C110.598 41.3991 110.739 41.1771 110.838 40.9119L111.972 41.2301C111.852 41.6146 111.652 41.9527 111.37 42.2443C111.088 42.5327 110.74 42.758 110.326 42.9205C109.912 43.0795 109.446 43.1591 108.929 43.1591ZM119.565 37.0739L118.511 37.3722C118.444 37.1965 118.347 37.0258 118.217 36.8601C118.091 36.6911 117.919 36.5518 117.7 36.4425C117.482 36.3331 117.202 36.2784 116.86 36.2784C116.393 36.2784 116.003 36.3861 115.692 36.6016C115.384 36.8137 115.229 37.0838 115.229 37.4119C115.229 37.7036 115.336 37.9339 115.548 38.103C115.76 38.272 116.091 38.4129 116.542 38.5256L117.676 38.804C118.358 38.9697 118.867 39.2232 119.202 39.5646C119.537 39.9027 119.704 40.3385 119.704 40.8722C119.704 41.3097 119.578 41.7008 119.326 42.0455C119.077 42.3902 118.729 42.6619 118.282 42.8608C117.835 43.0597 117.314 43.1591 116.721 43.1591C115.942 43.1591 115.297 42.9901 114.787 42.652C114.277 42.3139 113.953 41.8201 113.818 41.1705L114.931 40.892C115.037 41.303 115.238 41.6113 115.533 41.8168C115.831 42.0223 116.22 42.125 116.701 42.125C117.248 42.125 117.682 42.009 118.004 41.777C118.328 41.5417 118.491 41.2599 118.491 40.9318C118.491 40.6667 118.398 40.4446 118.212 40.2656C118.027 40.0833 117.742 39.9474 117.357 39.858L116.085 39.5597C115.385 39.3939 114.872 39.1371 114.543 38.7891C114.219 38.4377 114.056 37.9986 114.056 37.4716C114.056 37.0407 114.177 36.6596 114.419 36.3281C114.664 35.9967 114.997 35.7365 115.418 35.5476C115.843 35.3587 116.323 35.2642 116.86 35.2642C117.616 35.2642 118.209 35.4299 118.64 35.7614C119.074 36.0928 119.382 36.5303 119.565 37.0739ZM123.997 43.179C123.513 43.179 123.074 43.0878 122.68 42.9055C122.285 42.7199 121.972 42.4531 121.74 42.1051C121.508 41.7538 121.392 41.3295 121.392 40.8324C121.392 40.3949 121.478 40.0402 121.651 39.7685C121.823 39.4934 122.053 39.2779 122.342 39.1222C122.63 38.9664 122.948 38.8504 123.296 38.7741C123.648 38.6946 124.001 38.6316 124.355 38.5852C124.819 38.5256 125.195 38.4808 125.484 38.451C125.775 38.4179 125.988 38.3632 126.12 38.2869C126.256 38.2107 126.324 38.0781 126.324 37.8892V37.8494C126.324 37.3589 126.19 36.9777 125.921 36.706C125.656 36.4342 125.253 36.2983 124.713 36.2983C124.153 36.2983 123.714 36.4209 123.396 36.6662C123.077 36.9115 122.854 37.1733 122.725 37.4517L121.611 37.054C121.81 36.59 122.075 36.2287 122.406 35.9702C122.741 35.7083 123.106 35.526 123.5 35.4233C123.898 35.3172 124.289 35.2642 124.673 35.2642C124.919 35.2642 125.2 35.294 125.519 35.3537C125.84 35.41 126.15 35.5277 126.448 35.7067C126.75 35.8857 127 36.1558 127.199 36.517C127.398 36.8783 127.497 37.3622 127.497 37.9688V43H126.324V41.9659H126.264C126.185 42.1316 126.052 42.3089 125.867 42.4979C125.681 42.6868 125.434 42.8475 125.126 42.9801C124.818 43.1127 124.441 43.179 123.997 43.179ZM124.176 42.125C124.64 42.125 125.031 42.0339 125.35 41.8516C125.671 41.6693 125.913 41.4339 126.075 41.1456C126.241 40.8572 126.324 40.554 126.324 40.2358V39.1619C126.274 39.2216 126.165 39.2763 125.996 39.326C125.83 39.3724 125.638 39.4138 125.419 39.4503C125.204 39.4834 124.993 39.5133 124.788 39.5398C124.586 39.563 124.421 39.5829 124.296 39.5994C123.991 39.6392 123.706 39.7038 123.44 39.7933C123.179 39.8795 122.966 40.0104 122.804 40.1861C122.645 40.3584 122.565 40.5937 122.565 40.892C122.565 41.2997 122.716 41.608 123.018 41.8168C123.323 42.0223 123.709 42.125 124.176 42.125ZM136.383 43.179C135.899 43.179 135.46 43.0878 135.066 42.9055C134.672 42.7199 134.358 42.4531 134.126 42.1051C133.894 41.7538 133.778 41.3295 133.778 40.8324C133.778 40.3949 133.864 40.0402 134.037 39.7685C134.209 39.4934 134.44 39.2779 134.728 39.1222C135.016 38.9664 135.334 38.8504 135.682 38.7741C136.034 38.6946 136.387 38.6316 136.741 38.5852C137.205 38.5256 137.582 38.4808 137.87 38.451C138.162 38.4179 138.374 38.3632 138.506 38.2869C138.642 38.2107 138.71 38.0781 138.71 37.8892V37.8494C138.71 37.3589 138.576 36.9777 138.307 36.706C138.042 36.4342 137.64 36.2983 137.099 36.2983C136.539 36.2983 136.1 36.4209 135.782 36.6662C135.464 36.9115 135.24 37.1733 135.111 37.4517L133.997 37.054C134.196 36.59 134.461 36.2287 134.792 35.9702C135.127 35.7083 135.492 35.526 135.886 35.4233C136.284 35.3172 136.675 35.2642 137.06 35.2642C137.305 35.2642 137.587 35.294 137.905 35.3537C138.226 35.41 138.536 35.5277 138.834 35.7067C139.136 35.8857 139.386 36.1558 139.585 36.517C139.784 36.8783 139.883 37.3622 139.883 37.9688V43H138.71V41.9659H138.65C138.571 42.1316 138.438 42.3089 138.253 42.4979C138.067 42.6868 137.82 42.8475 137.512 42.9801C137.204 43.1127 136.828 43.179 136.383 43.179ZM136.562 42.125C137.026 42.125 137.417 42.0339 137.736 41.8516C138.057 41.6693 138.299 41.4339 138.462 41.1456C138.627 40.8572 138.71 40.554 138.71 40.2358V39.1619C138.66 39.2216 138.551 39.2763 138.382 39.326C138.216 39.3724 138.024 39.4138 137.805 39.4503C137.59 39.4834 137.379 39.5133 137.174 39.5398C136.972 39.563 136.808 39.5829 136.682 39.5994C136.377 39.6392 136.092 39.7038 135.827 39.7933C135.565 39.8795 135.353 40.0104 135.19 40.1861C135.031 40.3584 134.952 40.5937 134.952 40.892C134.952 41.2997 135.102 41.608 135.404 41.8168C135.709 42.0223 136.095 42.125 136.562 42.125ZM147.515 45.8636V41.8267H147.416C147.33 41.9659 147.207 42.1416 147.048 42.3537C146.889 42.5625 146.662 42.7498 146.367 42.9155C146.072 43.0779 145.679 43.1591 145.188 43.1591C144.552 43.1591 143.99 42.9983 143.503 42.6768C143.016 42.352 142.635 41.8946 142.36 41.3047C142.085 40.7114 141.947 40.0104 141.947 39.2017C141.947 38.3996 142.085 37.7036 142.36 37.1136C142.635 36.5237 143.018 36.0679 143.508 35.7464C143.999 35.425 144.565 35.2642 145.208 35.2642C145.705 35.2642 146.098 35.3471 146.387 35.5128C146.678 35.6752 146.9 35.8608 147.053 36.0696C147.209 36.2751 147.33 36.4441 147.416 36.5767H147.555V35.3636H148.688V45.8636H147.515ZM145.348 42.1051C145.818 42.1051 146.216 41.9825 146.541 41.7372C146.866 41.4886 147.112 41.1456 147.281 40.7081C147.451 40.2673 147.535 39.7585 147.535 39.1818C147.535 38.6117 147.452 38.1129 147.286 37.6854C147.121 37.2545 146.875 36.9197 146.551 36.6811C146.226 36.4392 145.825 36.3182 145.348 36.3182C144.85 36.3182 144.436 36.4458 144.105 36.701C143.777 36.9529 143.53 37.2959 143.364 37.7301C143.201 38.161 143.12 38.6449 143.12 39.1818C143.12 39.7254 143.203 40.2192 143.369 40.6634C143.538 41.1042 143.786 41.4555 144.115 41.7173C144.446 41.9759 144.857 42.1051 145.348 42.1051ZM155.929 39.8778V35.3636H157.102V43H155.929V41.7074H155.849C155.67 42.0952 155.392 42.425 155.014 42.6967C154.636 42.9652 154.159 43.0994 153.582 43.0994C153.105 43.0994 152.681 42.995 152.309 42.7862C151.938 42.5741 151.646 42.2559 151.434 41.8317C151.222 41.4041 151.116 40.8655 151.116 40.2159V35.3636H152.289V40.1364C152.289 40.6932 152.445 41.1373 152.757 41.4688C153.072 41.8002 153.473 41.9659 153.96 41.9659C154.252 41.9659 154.548 41.8913 154.85 41.7422C155.155 41.593 155.41 41.3643 155.615 41.0561C155.824 40.7479 155.929 40.3551 155.929 39.8778ZM159.531 43V35.3636H160.704V43H159.531ZM159.591 34.3295L160.804 32.0227H162.176L160.625 34.3295H159.591ZM163.988 43.0795C163.743 43.0795 163.533 42.9917 163.357 42.8161C163.181 42.6404 163.093 42.4299 163.093 42.1847C163.093 41.9394 163.181 41.7289 163.357 41.5533C163.533 41.3776 163.743 41.2898 163.988 41.2898C164.234 41.2898 164.444 41.3776 164.62 41.5533C164.795 41.7289 164.883 41.9394 164.883 42.1847C164.883 42.3471 164.842 42.4962 164.759 42.6321C164.679 42.768 164.572 42.8774 164.436 42.9602C164.303 43.0398 164.154 43.0795 163.988 43.0795ZM163.988 37.4119C163.743 37.4119 163.533 37.3241 163.357 37.1484C163.181 36.9728 163.093 36.7623 163.093 36.517C163.093 36.2718 163.181 36.0613 163.357 35.8857C163.533 35.71 163.743 35.6222 163.988 35.6222C164.234 35.6222 164.444 35.71 164.62 35.8857C164.795 36.0613 164.883 36.2718 164.883 36.517C164.883 36.6795 164.842 36.8286 164.759 36.9645C164.679 37.1004 164.572 37.2098 164.436 37.2926C164.303 37.3722 164.154 37.4119 163.988 37.4119Z" fill="#F6F4F3"/>
<path d="M192.206 114.633C192.114 114.376 192.021 114.119 191.928 113.862C191.405 112.413 190.881 110.965 190.358 109.517C190.003 108.535 189.654 107.551 189.291 106.572C189.082 106.009 189.265 105.477 189.637 105.156C190.286 104.598 191.31 104.864 191.61 105.664C192.279 107.448 192.952 109.231 193.623 111.014C193.624 111.017 193.626 111.019 193.639 111.039C193.629 110.919 193.625 110.816 193.61 110.714C193.498 109.946 194.098 109.265 194.874 109.281C195.395 109.291 195.863 109.645 196.027 110.152C196.084 110.328 196.142 110.504 196.208 110.704C196.26 110.552 196.239 110.385 196.286 110.229C196.336 110.064 196.42 109.909 196.534 109.778C196.741 109.539 197.043 109.384 197.359 109.354C198.027 109.289 198.619 109.778 198.705 110.413C198.73 110.59 198.777 110.765 198.821 110.941C198.821 110.739 198.854 110.545 198.933 110.359C199.121 109.913 199.585 109.611 200.084 109.613C200.571 109.616 201.043 109.925 201.215 110.372C201.556 111.254 201.716 112.167 201.921 113.085C202.183 114.26 202.526 115.409 202.883 116.558C203.09 117.225 203.069 117.883 202.841 118.537C202.56 119.342 202.053 119.989 201.402 120.53C200.62 121.18 199.722 121.598 198.728 121.808C197.732 122.018 196.745 121.993 195.778 121.647C195.262 121.463 194.807 121.181 194.415 120.797C193.712 120.108 193.03 119.4 192.384 118.657C191.986 118.198 191.607 117.723 191.23 117.246C190.864 116.782 190.446 116.371 189.988 115.999C189.419 115.537 188.864 115.059 188.316 114.574C188.056 114.345 188.008 114.038 188.068 113.712C188.147 113.288 188.334 113.1 188.798 113.028C189.533 112.914 190.231 113.061 190.866 113.433C191.368 113.727 191.799 114.117 192.147 114.589C192.16 114.607 192.174 114.624 192.188 114.641C192.194 114.638 192.2 114.636 192.206 114.633V114.633Z" fill="#F6F4F3"/>
<path d="M184.618 105.839C184.629 104.567 185.016 103.419 185.798 102.415C186.643 101.331 187.75 100.649 189.099 100.379C190.342 100.131 191.54 100.29 192.667 100.871C194.29 101.708 195.28 103.033 195.637 104.819C195.833 105.804 195.74 106.772 195.403 107.718C195.388 107.758 195.378 107.799 195.366 107.839C195.288 108.095 195.046 108.232 194.81 108.155C194.561 108.073 194.441 107.813 194.54 107.561C194.724 107.092 194.829 106.605 194.855 106.104C194.884 105.565 194.819 105.035 194.658 104.519C194.247 103.199 193.415 102.234 192.167 101.631C191.452 101.285 190.691 101.136 189.899 101.189C188.737 101.266 187.728 101.707 186.898 102.523C186.131 103.28 185.671 104.199 185.535 105.269C185.375 106.528 185.68 107.672 186.438 108.69C186.955 109.384 187.619 109.896 188.43 110.212C188.665 110.303 188.775 110.544 188.688 110.77C188.601 110.996 188.348 111.112 188.124 111.014C187.606 110.789 187.114 110.517 186.676 110.158C186.042 109.639 185.539 109.014 185.182 108.278C184.879 107.653 184.692 106.994 184.638 106.299C184.626 106.145 184.623 105.993 184.619 105.839L184.618 105.839Z" fill="#F6F4F3"/>
<path d="M190.156 102.939C189.058 102.991 188.22 103.476 187.684 104.443C187.127 105.446 187.279 106.754 188.036 107.618C188.316 107.938 188.645 108.188 189.037 108.357C189.256 108.452 189.351 108.691 189.265 108.914C189.184 109.128 188.953 109.24 188.727 109.17C188.555 109.115 188.399 109.024 188.246 108.928C187.261 108.306 186.668 107.418 186.517 106.269C186.352 105.028 186.74 103.954 187.642 103.082C188.238 102.504 188.963 102.168 189.794 102.093C191.081 101.978 192.157 102.415 193.002 103.385C193.493 103.948 193.767 104.616 193.852 105.36C193.916 105.914 193.85 106.453 193.671 106.978C193.602 107.183 193.419 107.299 193.218 107.276C193.005 107.253 192.855 107.105 192.824 106.89C192.812 106.813 192.835 106.741 192.857 106.669C193.197 105.558 192.962 104.577 192.152 103.749C191.7 103.287 191.131 103.029 190.482 102.959C190.374 102.948 190.267 102.941 190.156 102.939V102.939Z" fill="#F6F4F3"/>
<path d="M121.05 70.591C121.05 63.0467 115.243 56.1909 105.872 56.1909C96.262 56.1909 90.8134 63.2562 90.8134 70.7107C90.8134 78.5544 96.8308 85.0509 105.662 85.0509C114.853 85.0509 121.05 78.6742 121.05 70.591ZM94.9747 70.7107C94.9747 66.0105 98.1481 59.993 106.022 59.993C113.356 59.993 116.919 65.8907 116.919 70.561C116.919 72.986 115.901 76.0396 114.105 77.9856C112.159 80.0812 108.896 81.3386 105.902 81.3386C100.004 81.3087 94.9747 77.1174 94.9747 70.7107Z" fill="#F6F4F3"/>
<path d="M129.787 56.5786H125.746V84.6902H129.787V56.5786Z" fill="#F6F4F3"/>
<path d="M150.208 73.6731L158.86 62.8057V84.6902H162.902V56.5786H159.16L149.819 68.1046L140.479 56.5786H136.677V84.6902H140.718V62.8057L149.46 73.6731H150.208Z" fill="#F6F4F3"/>
<path d="M53.1174 89.9033C49.9141 89.9033 48.0879 92.2684 48.0879 94.7532C48.0879 97.3578 50.0937 99.5433 53.0276 99.5433C56.0813 99.5433 58.147 97.4177 58.147 94.7233C58.1769 92.1786 56.231 89.9033 53.1174 89.9033ZM55.8717 97.1782C55.2131 97.8668 54.1353 98.2859 53.1474 98.2859C51.1715 98.2859 49.495 96.8788 49.495 94.7532C49.495 93.1965 50.5428 91.1906 53.1773 91.1906C55.6322 91.1906 56.7998 93.1665 56.7998 94.7233C56.7998 95.5017 56.4705 96.5196 55.8717 97.1782Z" fill="#F6F4F3"/>
<path d="M67.4002 97.2939L61.0834 90.019H60.0056V99.3896H61.263V92.1746L67.52 99.3896H68.6876V90.019H67.4002V97.2939Z" fill="#F6F4F3"/>
<path d="M77.7887 95.348C77.7887 96.276 77.6989 96.755 77.5193 97.0843C77.2798 97.5334 76.6212 98.3118 75.0943 98.3118C74.0166 98.3118 73.3879 97.9525 72.9987 97.5334C72.5197 97.0544 72.3999 96.5754 72.3999 95.348V90.019H71.0527V95.348C71.0527 95.9767 71.0527 97.0544 71.5617 97.8927C72.3101 99.0602 73.7471 99.5392 75.0943 99.5392C76.1721 99.5392 77.2199 99.2698 78.0581 98.5214C79.106 97.5634 79.106 96.276 79.106 95.348V90.019H77.7588V95.348H77.7887Z" fill="#F6F4F3"/>
<path d="M89.7925 93.881L86.649 90.019H85.3916V99.3896H86.7388V92.1147L89.6428 95.7371H89.9122L92.7862 92.1147V99.3896H94.1334V90.019H92.876L89.7925 93.881Z" fill="#F6F4F3"/>
<path d="M98.142 90.019H96.7948V99.3896H98.142V90.019Z" fill="#F6F4F3"/>
<path d="M105.423 95.9807H107.219V97.9266C106.321 98.226 105.872 98.3458 105.183 98.3458C102.908 98.3458 101.411 96.789 101.411 94.7233C101.411 92.5079 103.177 91.1008 105.063 91.1008C105.572 91.1008 106.86 91.1906 108.387 92.0888V90.7116C107.369 90.2925 106.411 89.9033 105.093 89.9033C101.89 89.9033 100.034 92.3283 100.034 94.7832C100.034 96.9088 101.531 99.5133 105.153 99.5133C106.71 99.5133 107.878 99.0643 108.596 98.735V94.7832H105.453V95.9807H105.423Z" fill="#F6F4F3"/>
<path d="M114.943 94.9601C115.961 94.5709 116.499 93.7326 116.499 92.6549C116.499 91.6969 116.02 90.7688 115.032 90.3497C114.434 90.0802 113.865 90.0503 113.416 90.0503H111.051V99.4208H112.398V95.3493H112.757C113.416 95.3493 113.865 95.3493 114.763 96.5168C115.062 96.906 116.38 98.9717 116.679 99.4208H118.266C117.607 98.5227 117.398 98.1934 116.978 97.5647C116.32 96.3672 115.781 95.5289 114.943 94.9601ZM114.224 94.0021C113.865 94.1518 113.116 94.1518 112.907 94.1518H112.398V91.1879H112.817C113.625 91.1879 114.074 91.2478 114.404 91.3975C114.853 91.6071 115.122 92.116 115.122 92.6549C115.122 93.1638 114.883 93.7326 114.224 94.0021Z" fill="#F6F4F3"/>
<path d="M122.721 89.9893L118.679 99.4196H120.057L121.224 96.6654H125.206L126.463 99.4196H127.84L123.649 89.9893H122.721ZM121.763 95.4379L123.17 92.055L124.697 95.4379H121.763Z" fill="#F6F4F3"/>
<path d="M129.787 94.7532C129.787 92.8672 131.224 91.1906 133.499 91.1906C134.637 91.1906 135.744 91.5499 136.732 92.1187V90.6817C136.133 90.4123 134.876 89.9033 133.439 89.9033C130.475 89.9033 128.38 92.1487 128.38 94.7233C128.38 96.9088 129.936 99.5133 133.409 99.5133C134.607 99.5133 135.744 99.2738 136.822 98.6751V97.2081C135.834 97.8668 134.667 98.256 133.499 98.256C131.014 98.2859 129.787 96.4896 129.787 94.7532Z" fill="#F6F4F3"/>
<path d="M140.504 90.019H139.157V99.3896H140.504V90.019Z" fill="#F6F4F3"/>
<path d="M146.647 89.3899H147.365L149.611 87.3242H147.635L146.647 89.3899Z" fill="#F6F4F3"/>
<path d="M147.602 89.9033C144.398 89.9033 142.572 92.2684 142.572 94.7532C142.572 97.3578 144.578 99.5433 147.512 99.5433C150.566 99.5433 152.631 97.4177 152.631 94.7233C152.661 92.1786 150.745 89.9033 147.602 89.9033ZM150.356 97.1782C149.697 97.8668 148.62 98.2859 147.632 98.2859C145.656 98.2859 143.979 96.8788 143.979 94.7532C143.979 93.1965 145.027 91.1906 147.662 91.1906C150.117 91.1906 151.284 93.1665 151.284 94.7233C151.314 95.5017 150.955 96.5196 150.356 97.1782Z" fill="#F6F4F3"/>
<path d="M161.614 90.019V97.2939L155.298 90.019H154.22V99.3896H155.477V92.1746L161.734 99.3896H162.902V90.019H161.614Z" fill="#F6F4F3"/>
<path d="M62.792 67.9853C63.1213 67.9853 63.3608 67.7159 63.3608 67.4165C63.3608 67.1171 63.0913 66.8477 62.792 66.8477C62.4926 66.8477 62.2231 67.1171 62.2231 67.4165C62.2231 67.7159 62.4926 67.9853 62.792 67.9853Z" fill="#F6F4F3"/>
<path d="M69.3473 68.3763C69.3174 68.2864 69.2276 68.2266 69.1078 68.2266H68.7186H68.4492H68.1199H67.8504H67.4313C67.3415 68.2266 67.2517 68.2864 67.1918 68.3763L66.0841 70.9509H65.0063L63.8987 68.3763C63.8687 68.2864 63.7789 68.2266 63.6591 68.2266H62.791H61.9228C61.8329 68.2266 61.7431 68.2864 61.6833 68.3763L60.5157 71.1006C60.4558 71.2203 60.5157 71.3401 60.6055 71.4299C60.6354 71.4598 60.6953 71.4598 60.7252 71.4598C60.8151 71.4598 60.9049 71.4 60.9647 71.3102L61.9826 68.9151L62.0425 71.2503L61.6533 74.2141C61.6533 74.3339 61.7132 74.4536 61.803 74.4835C61.833 74.4835 61.8629 74.5135 61.8928 74.5135C62.0126 74.5135 62.1323 74.4237 62.1323 74.3039L62.4916 71.4898H63.0005L63.3598 74.3039C63.3897 74.4237 63.4795 74.5135 63.5993 74.5135C63.6292 74.5135 63.6592 74.5135 63.6891 74.4835C63.8088 74.4536 63.8687 74.3339 63.8388 74.2141L63.4496 71.2503L63.5095 68.9151L64.5273 71.3102C64.5273 71.3102 64.5273 71.3401 64.5573 71.3401C64.5573 71.3401 64.5573 71.37 64.5872 71.37L64.6172 71.4C64.6172 71.4 64.6471 71.4 64.6471 71.4299H64.677H64.707H64.9165L64.5872 73.1064C64.5573 73.2262 64.5872 73.3459 64.677 73.4357C64.7369 73.4956 64.7968 73.5255 64.8566 73.5555V74.274C64.8566 74.3937 64.9465 74.4835 65.0662 74.4835C65.186 74.4835 65.2758 74.3937 65.2758 74.274V73.6154C65.2758 73.6154 65.2758 73.6154 65.3057 73.6154H65.4255H65.5452C65.5452 73.6154 65.5452 73.6154 65.5752 73.6154V74.3039C65.5752 74.4237 65.665 74.5135 65.7847 74.5135C65.9045 74.5135 65.9943 74.4237 65.9943 74.3039V73.5854C66.0542 73.5555 66.114 73.5255 66.1739 73.4657C66.2637 73.3759 66.2937 73.2561 66.2637 73.1364L65.9344 71.4598H66.144C66.1739 71.4598 66.1739 71.4598 66.1739 71.4598H66.2038C66.2038 71.4598 66.2338 71.4598 66.2338 71.4299C66.2338 71.4299 66.2637 71.4299 66.2637 71.4C66.2637 71.4 66.2637 71.37 66.2937 71.37C66.2937 71.37 66.2937 71.3401 66.3236 71.3401L67.3714 68.8553L67.581 69.8731C67.6109 70.0528 67.6109 70.2025 67.551 70.3821L66.5931 74.5434H67.9403H68.2696H69.6168L68.6588 70.3821C68.6288 70.2324 68.5989 70.0528 68.6588 69.8731L68.8683 68.8553L69.6766 70.8611C69.7066 70.9509 69.7964 71.0108 69.9161 71.0108C69.9461 71.0108 69.976 71.0108 70.006 70.9808C70.1257 70.921 70.1856 70.7713 70.1557 70.6515L69.3473 68.3763Z" fill="#F6F4F3"/>
<path d="M68.2712 67.9853C68.6005 67.9853 68.84 67.7159 68.84 67.4165C68.84 67.1171 68.5706 66.8477 68.2712 66.8477C67.9419 66.8477 67.7024 67.1171 67.7024 67.4165C67.7024 67.7159 67.9419 67.9853 68.2712 67.9853Z" fill="#F6F4F3"/>
<path d="M65.5432 70.8309C65.7827 70.8309 65.9623 70.6513 65.9623 70.4118C65.9623 70.1723 65.7827 69.9927 65.5432 69.9927C65.3037 69.9927 65.124 70.1723 65.124 70.4118C65.124 70.6513 65.3037 70.8309 65.5432 70.8309Z" fill="#F6F4F3"/>
<path d="M74.403 56.6401C75.1813 57.3586 76.2591 58.616 76.2591 58.616C79.1331 61.8194 80.7797 66.1304 80.7797 69.9624C80.7797 70.0223 80.7797 70.0522 80.7797 70.1121H76.0495C75.331 62.5977 69.3435 56.6701 62.0986 56.6701C54.3447 56.6701 48.0577 63.3462 48.0577 71.5791C48.0577 76.0398 50.0935 81.0394 53.4465 84.7517H56.4104C55.632 84.0332 54.5542 82.7758 54.5542 82.7758C51.6802 79.5725 50.0336 75.2614 50.0336 71.4294C50.0336 71.3695 50.0336 71.3396 50.0336 71.2797H54.7937C55.5122 78.7941 61.4998 84.7217 68.7447 84.7217C76.4986 84.7217 82.7855 78.0456 82.7855 69.8127C82.7855 65.352 80.7498 60.3524 77.3967 56.6401H74.403ZM74.0737 70.0822H71.6487C71.6487 70.0522 71.6487 70.0522 71.6487 70.0223C71.6487 68.5853 71.2595 67.1782 70.5709 65.9208H72.9659C73.5647 67.1782 73.924 68.5853 74.0737 70.0822ZM72.5468 65.0227H70.062C69.1339 63.6156 67.8765 62.4481 66.4994 61.7296C67.158 61.3703 67.7568 60.9212 68.2657 60.4123C70.032 61.52 71.5289 63.1366 72.5468 65.0227ZM62.6674 58.616C64.4337 58.7058 66.1102 59.2148 67.6071 60.0231C66.3198 61.2206 64.5834 61.999 62.6674 62.1187V58.616ZM62.6674 62.8372C63.6852 62.7774 64.6732 62.5379 65.5713 62.1786C66.9185 62.7774 68.146 63.7653 69.104 65.0227H62.6374V62.8372H62.6674ZM61.7692 58.5861V62.0888C59.7634 61.999 57.9671 61.1907 56.6499 59.9333C58.2066 59.125 59.943 58.646 61.7692 58.5861ZM61.7692 62.8372V65.0227H55.1829C56.1409 63.7653 57.3983 62.7474 58.7156 62.1786C59.6736 62.5678 60.6915 62.8073 61.7692 62.8372ZM55.9912 60.3524C56.5301 60.8913 57.1588 61.3404 57.8174 61.7296C56.4702 62.478 55.1829 63.6156 54.2549 65.0227H51.5904C52.6382 63.1067 54.165 61.4601 55.9912 60.3524ZM50.0336 70.3816C50.1534 68.7949 50.5426 67.268 51.1713 65.8909H53.7459C53.0873 67.1483 52.6682 68.5554 52.6682 69.9924C52.6682 70.0522 52.6682 70.2319 52.6682 70.3816H50.0336ZM56.7397 71.2498H59.1646C59.1646 71.2797 59.1646 71.2797 59.1646 71.3096C59.1646 72.7466 59.5538 74.1537 60.2424 75.4111H57.8474C57.2486 74.1537 56.8594 72.7466 56.7397 71.2498ZM58.2665 76.3092H60.7514C61.6794 77.7163 62.9667 78.8839 64.3139 79.6024C63.6553 79.9616 63.0566 80.4107 62.5476 80.9196C60.7514 79.8119 59.2844 78.1953 58.2665 76.3092ZM68.146 82.7159C66.3796 82.6261 64.7031 82.1172 63.2062 81.3088C64.4936 80.1113 66.2299 79.3329 68.146 79.2132V82.7159ZM68.146 78.4947C67.1281 78.5546 66.1401 78.7941 65.242 79.1533C63.8948 78.5546 62.6674 77.5666 61.7093 76.3092H68.1759V78.4947H68.146ZM61.1106 75.441C60.3921 74.2136 59.943 72.8065 59.943 71.3396C59.943 71.3096 59.943 71.3096 59.943 71.2797V70.4115H53.4465C53.4465 70.2917 53.4465 70.1421 53.4465 70.0223C53.4465 68.5554 53.8956 67.1483 54.6141 65.9208H69.7027C70.4213 67.1483 70.8703 68.5554 70.8703 70.0223C70.8703 70.0522 70.8703 70.0522 70.8703 70.0822V70.9504H77.3668C77.3668 71.0701 77.3668 71.2198 77.3668 71.3096C77.3668 72.7766 76.9177 74.1837 76.1992 75.4111H61.1106V75.441ZM75.6005 76.3092C74.6425 77.5666 73.3851 78.5845 72.0678 79.1533C71.1397 78.7641 70.0919 78.5246 69.0142 78.4947V76.3092H75.6005ZM69.0142 82.7458V79.2431C71.02 79.3329 72.8163 80.1413 74.1335 81.3987C72.6067 82.207 70.8703 82.686 69.0142 82.7458ZM74.8221 80.9795C74.2832 80.4406 73.6545 79.9916 72.9959 79.6024C74.3431 78.8539 75.6304 77.7163 76.5585 76.3092H79.2229C78.1452 78.2552 76.6483 79.8718 74.8221 80.9795ZM79.6421 75.441H77.0674C77.7261 74.1837 78.1452 72.7766 78.1452 71.3396C78.1452 71.2797 78.1452 71.1001 78.1452 70.9803H80.7797C80.63 72.5371 80.2408 74.0639 79.6421 75.441Z" fill="#F6F4F3"/>
</svg>
